<?xml version="1.0" encoding="UTF-8"?>
<svg xmlns="http://www.w3.org/2000/svg" width="800.000" height="600.000" viewBox="0.0 0.0 800.000 600.000" version="1.1">
  <title>Produce by Acme CAD Converter</title>
  <desc>Produce by Acme CAD Converter</desc>
<path d="M446.56 1.7L446.56 598.3M446.56 598.3L353.44 598.3M353.44 598.3L353.44 1.7M353.44 1.7L446.56 1.7"
fill="none" stroke="black" stroke-width="0.5"/>
<path d="M442.76 3.42L357.24 3.42M357.24 3.42L357.24 3.42M357.24 3.42L356.45 3.58M356.45 3.58L355.77 4.03M355.77 4.03L355.33 4.7M355.33 4.7L355.17 5.49M355.17 5.49L355.17 594.51M355.17 594.51L355.17 594.51M355.17 594.51L355.33 595.3M355.33 595.3L355.77 595.97M355.77 595.97L356.45 596.42M356.45 596.42L357.24 596.58M357.24 596.58L442.76 596.58M442.76 596.58L442.76 596.58M442.76 596.58L443.55 596.42M443.55 596.42L444.23 595.97M444.23 595.97L444.67 595.3M444.67 595.3L444.83 594.51M444.83 594.51L444.83 5.49M444.83 5.49L444.83 5.49M444.83 5.49L444.67 4.7M444.67 4.7L444.23 4.03M444.23 4.03L443.55 3.58M443.55 3.58L442.76 3.42"
fill="none" stroke="black" stroke-width="0.5"/>
<path d="M443.8 5.49L443.8 594.51M443.8 594.51L443.8 594.51M443.8 594.51L443.66 595.03M443.66 595.03L443.28 595.4M443.28 595.4L442.76 595.54M442.76 595.54L357.24 595.54M357.24 595.54L357.24 595.54M357.24 595.54L356.72 595.4M356.72 595.4L356.34 595.03M356.34 595.03L356.2 594.51M356.2 594.51L356.2 5.49M356.2 5.49L356.2 5.49M356.2 5.49L356.34 4.97M356.34 4.97L356.72 4.6M356.72 4.6L357.24 4.46M357.24 4.46L442.76 4.46M442.76 4.46L442.76 4.46M442.76 4.46L443.28 4.6M443.28 4.6L443.66 4.97M443.66 4.97L443.8 5.49"
fill="none" stroke="black" stroke-width="0.5"/>
<path d="M442.59 5.66L357.41 5.66M357.41 5.66L357.41 113.09M357.41 113.09L442.59 113.09M442.59 113.09L442.59 5.66"
fill="none" stroke="black" stroke-width="0.5"/>
<path d="M442.59 148.26L357.41 148.26M357.41 148.26L357.41 451.74M357.41 451.74L442.59 451.74M442.59 451.74L442.59 148.26"
fill="none" stroke="black" stroke-width="0.5"/>
<path d="M442.59 486.91L357.41 486.91M357.41 486.91L357.41 594.34M357.41 594.34L442.59 594.34M442.59 594.34L442.59 486.91"
fill="none" stroke="black" stroke-width="0.5"/>
<path d="M435 13.25L435 105.5M435 105.5L365 105.5M365 105.5L365 13.25M365 13.25L435 13.25"
fill="none" stroke="black" stroke-width="0.5"/>
<path d="M435 155.85L435 444.15M435 444.15L365 444.15M365 444.15L365 155.85M365 155.85L435 155.85"
fill="none" stroke="black" stroke-width="0.5"/>
<path d="M435 494.5L435 586.75M435 586.75L365 586.75M365 586.75L365 494.5M365 494.5L435 494.5"
fill="none" stroke="black" stroke-width="0.5"/>
<path d="M432.93 583.99L432.84 584.34M432.84 584.34L432.59 584.59M432.59 584.59L432.24 584.68M432.24 584.68L367.76 584.68M367.76 584.68L367.76 584.68M367.76 584.68L367.41 584.59M367.41 584.59L367.16 584.34M367.16 584.34L367.07 583.99M367.07 583.99L367.07 497.26M367.07 497.26L367.07 497.26M367.07 497.26L367.16 496.91M367.16 496.91L367.41 496.66M367.41 496.66L367.76 496.57M367.76 496.57L432.24 496.57M432.24 496.57L432.24 496.57M432.24 496.57L432.59 496.66M432.59 496.66L432.84 496.91M432.84 496.91L432.93 497.26M432.93 497.26L432.93 583.99"
fill="none" stroke="black" stroke-width="0.5"/>
<path d="M431.9 582.96L431.81 583.3M431.81 583.3L431.55 583.55M431.55 583.55L431.21 583.65M431.21 583.65L368.79 583.65M368.79 583.65L368.79 583.65M368.79 583.65L368.45 583.55M368.45 583.55L368.19 583.3M368.19 583.3L368.1 582.96M368.1 582.96L368.1 498.29M368.1 498.29L368.1 498.29M368.1 498.29L368.19 497.95M368.19 497.95L368.45 497.7M368.45 497.7L368.79 497.6M368.79 497.6L431.21 497.6M431.21 497.6L431.21 497.6M431.21 497.6L431.55 497.7M431.55 497.7L431.81 497.95M431.81 497.95L431.9 498.29M431.9 498.29L431.9 582.96"
fill="none" stroke="black" stroke-width="0.5"/>
<path d="M380.17 508.64L379.65 508.78M379.65 508.78L379.27 509.16M379.27 509.16L379.14 509.67M379.14 509.67L379.14 571.58M379.14 571.58L379.14 571.58M379.14 571.58L379.27 572.09M379.27 572.09L379.65 572.47M379.65 572.47L380.17 572.61M380.17 572.61L419.83 572.61M419.83 572.61L419.83 572.61M419.83 572.61L420.35 572.47M420.35 572.47L420.73 572.09M420.73 572.09L420.86 571.58M420.86 571.58L420.86 509.67M420.86 509.67L420.86 509.67M420.86 509.67L420.73 509.16M420.73 509.16L420.35 508.78M420.35 508.78L419.83 508.64M419.83 508.64L380.17 508.64"
fill="none" stroke="black" stroke-width="0.5"/>
<path d="M413.97 564.68L413.83 565.2M413.83 565.2L413.45 565.57M413.45 565.57L412.93 565.71M412.93 565.71L387.07 565.71M387.07 565.71L387.07 565.71M387.07 565.71L386.55 565.57M386.55 565.57L386.17 565.2M386.17 565.2L386.03 564.68M386.03 564.68L386.03 516.57M386.03 516.57L386.03 516.57M386.03 516.57L386.17 516.05M386.17 516.05L386.55 515.68M386.55 515.68L387.07 515.54M387.07 515.54L412.93 515.54M412.93 515.54L412.93 515.54M412.93 515.54L413.45 515.68M413.45 515.68L413.83 516.05M413.83 516.05L413.97 516.57M413.97 516.57L413.97 564.68"
fill="none" stroke="black" stroke-width="0.5"/>
<path d="M358.1 452.94L357.75 453.04M357.75 453.04L357.5 453.29M357.5 453.29L357.41 453.63M357.41 453.63L357.41 485.02M357.41 485.02L357.41 485.02M357.41 485.02L357.5 485.36M357.5 485.36L357.75 485.61M357.75 485.61L358.1 485.71M358.1 485.71L441.9 485.71M441.9 485.71L441.9 485.71M441.9 485.71L442.25 485.61M442.25 485.61L442.5 485.36M442.5 485.36L442.59 485.02M442.59 485.02L442.59 453.63M442.59 453.63L442.59 453.63M442.59 453.63L442.5 453.29M442.5 453.29L442.25 453.04M442.25 453.04L441.9 452.94M441.9 452.94L358.1 452.94"
fill="none" stroke="black" stroke-width="0.5"/>
<path d="M441.56 483.98L441.46 484.33M441.46 484.33L441.21 484.58M441.21 484.58L440.87 484.67M440.87 484.67L359.13 484.67M359.13 484.67L359.13 484.67M359.13 484.67L358.79 484.58M358.79 484.58L358.54 484.33M358.54 484.33L358.44 483.98M358.44 483.98L358.44 454.67M358.44 454.67L358.44 454.67M358.44 454.67L358.54 454.32M358.54 454.32L358.79 454.07M358.79 454.07L359.13 453.98M359.13 453.98L440.87 453.98M440.87 453.98L440.87 453.98M440.87 453.98L441.21 454.07M441.21 454.07L441.46 454.32M441.46 454.32L441.56 454.67M441.56 454.67L441.56 483.98"
fill="none" stroke="black" stroke-width="0.5"/>
<path d="M432.93 441.39L432.84 441.74M432.84 441.74L432.59 441.99M432.59 441.99L432.24 442.08M432.24 442.08L367.76 442.08M367.76 442.08L367.76 442.08M367.76 442.08L367.41 441.99M367.41 441.99L367.16 441.74M367.16 441.74L367.07 441.39M367.07 441.39L367.07 158.61M367.07 158.61L367.07 158.61M367.07 158.61L367.16 158.26M367.16 158.26L367.41 158.01M367.41 158.01L367.76 157.92M367.76 157.92L432.24 157.92M432.24 157.92L432.24 157.92M432.24 157.92L432.59 158.01M432.59 158.01L432.84 158.26M432.84 158.26L432.93 158.61M432.93 158.61L432.93 441.39"
fill="none" stroke="black" stroke-width="0.5"/>
<path d="M431.9 440.36L431.81 440.7M431.81 440.7L431.55 440.95M431.55 440.95L431.21 441.05M431.21 441.05L368.79 441.05M368.79 441.05L368.79 441.05M368.79 441.05L368.45 440.95M368.45 440.95L368.19 440.7M368.19 440.7L368.1 440.36M368.1 440.36L368.1 159.64M368.1 159.64L368.1 159.64M368.1 159.64L368.19 159.3M368.19 159.3L368.45 159.05M368.45 159.05L368.79 158.95M368.79 158.95L431.21 158.95M431.21 158.95L431.21 158.95M431.21 158.95L431.55 159.05M431.55 159.05L431.81 159.3M431.81 159.3L431.9 159.64M431.9 159.64L431.9 440.36"
fill="none" stroke="black" stroke-width="0.5"/>
<path d="M380.17 169.99L379.65 170.13M379.65 170.13L379.27 170.51M379.27 170.51L379.14 171.02M379.14 171.02L379.14 428.98M379.14 428.98L379.14 428.98M379.14 428.98L379.27 429.49M379.27 429.49L379.65 429.87M379.65 429.87L380.17 430.01M380.17 430.01L419.83 430.01M419.83 430.01L419.83 430.01M419.83 430.01L420.35 429.87M420.35 429.87L420.73 429.49M420.73 429.49L420.86 428.98M420.86 428.98L420.86 171.02M420.86 171.02L420.86 171.02M420.86 171.02L420.73 170.51M420.73 170.51L420.35 170.13M420.35 170.13L419.83 169.99M419.83 169.99L380.17 169.99"
fill="none" stroke="black" stroke-width="0.5"/>
<path d="M413.97 422.08L413.83 422.6M413.83 422.6L413.45 422.98M413.45 422.98L412.93 423.11M412.93 423.11L387.07 423.11M387.07 423.11L387.07 423.11M387.07 423.11L386.55 422.98M386.55 422.98L386.17 422.6M386.17 422.6L386.03 422.08M386.03 422.08L386.03 177.92M386.03 177.92L386.03 177.92M386.03 177.92L386.17 177.4M386.17 177.4L386.55 177.02M386.55 177.02L387.07 176.89M387.07 176.89L412.93 176.89M412.93 176.89L412.93 176.89M412.93 176.89L413.45 177.02M413.45 177.02L413.83 177.4M413.83 177.4L413.97 177.92M413.97 177.92L413.97 422.08"
fill="none" stroke="black" stroke-width="0.5"/>
<path d="M380.17 27.39L379.65 27.53M379.65 27.53L379.27 27.91M379.27 27.91L379.14 28.42M379.14 28.42L379.14 90.33M379.14 90.33L379.14 90.33M379.14 90.33L379.27 90.84M379.27 90.84L379.65 91.22M379.65 91.22L380.17 91.36M380.17 91.36L419.83 91.36M419.83 91.36L419.83 91.36M419.83 91.36L420.35 91.22M420.35 91.22L420.73 90.84M420.73 90.84L420.86 90.33M420.86 90.33L420.86 28.42M420.86 28.42L420.86 28.42M420.86 28.42L420.73 27.91M420.73 27.91L420.35 27.53M420.35 27.53L419.83 27.39M419.83 27.39L380.17 27.39"
fill="none" stroke="black" stroke-width="0.5"/>
<path d="M413.97 83.43L413.83 83.95M413.83 83.95L413.45 84.32M413.45 84.32L412.93 84.46M412.93 84.46L387.07 84.46M387.07 84.46L387.07 84.46M387.07 84.46L386.55 84.33M386.55 84.33L386.17 83.95M386.17 83.95L386.03 83.43M386.03 83.43L386.03 35.32M386.03 35.32L386.03 35.32M386.03 35.32L386.17 34.8M386.17 34.8L386.55 34.43M386.55 34.43L387.07 34.29M387.07 34.29L412.93 34.29M412.93 34.29L412.93 34.29M412.93 34.29L413.45 34.43M413.45 34.43L413.83 34.8M413.83 34.8L413.97 35.32M413.97 35.32L413.97 83.43"
fill="none" stroke="black" stroke-width="0.5"/>
<path d="M432.93 102.74L432.84 103.09M432.84 103.09L432.59 103.34M432.59 103.34L432.24 103.43M432.24 103.43L367.76 103.43M367.76 103.43L367.76 103.43M367.76 103.43L367.41 103.34M367.41 103.34L367.16 103.09M367.16 103.09L367.07 102.74M367.07 102.74L367.07 16.01M367.07 16.01L367.07 16.01M367.07 16.01L367.16 15.66M367.16 15.66L367.41 15.41M367.41 15.41L367.76 15.32M367.76 15.32L432.24 15.32M432.24 15.32L432.24 15.32M432.24 15.32L432.59 15.41M432.59 15.41L432.84 15.66M432.84 15.66L432.93 16.01M432.93 16.01L432.93 102.74"
fill="none" stroke="black" stroke-width="0.5"/>
<path d="M431.9 101.71L431.81 102.05M431.81 102.05L431.55 102.3M431.55 102.3L431.21 102.4M431.21 102.4L368.79 102.4M368.79 102.4L368.79 102.4M368.79 102.4L368.45 102.3M368.45 102.3L368.19 102.05M368.19 102.05L368.1 101.71M368.1 101.71L368.1 17.04M368.1 17.04L368.1 17.04M368.1 17.04L368.19 16.7M368.19 16.7L368.45 16.45M368.45 16.45L368.79 16.35M368.79 16.35L431.21 16.35M431.21 16.35L431.21 16.35M431.21 16.35L431.55 16.45M431.55 16.45L431.81 16.7M431.81 16.7L431.9 17.04M431.9 17.04L431.9 101.71"
fill="none" stroke="black" stroke-width="0.5"/>
<path d="M357.41 114.98L357.41 146.37M357.41 146.37L357.41 146.37M357.41 146.37L357.5 146.71M357.5 146.71L357.75 146.96M357.75 146.96L358.1 147.06M358.1 147.06L441.9 147.06M441.9 147.06L441.9 147.06M441.9 147.06L442.25 146.96M442.25 146.96L442.5 146.71M442.5 146.71L442.59 146.37M442.59 146.37L442.59 114.98M442.59 114.98L442.59 114.98M442.59 114.98L442.5 114.64M442.5 114.64L442.25 114.39M442.25 114.39L441.9 114.29M441.9 114.29L358.1 114.29M358.1 114.29L358.1 114.29M358.1 114.29L357.75 114.39M357.75 114.39L357.5 114.64M357.5 114.64L357.41 114.98"
fill="none" stroke="black" stroke-width="0.5"/>
<path d="M440.87 146.02L359.13 146.02M359.13 146.02L359.13 146.02M359.13 146.02L358.79 145.93M358.79 145.93L358.54 145.68M358.54 145.68L358.44 145.33M358.44 145.33L358.44 116.02M358.44 116.02L358.44 116.02M358.44 116.02L358.54 115.67M358.54 115.67L358.79 115.42M358.79 115.42L359.13 115.33M359.13 115.33L440.87 115.33M440.87 115.33L440.87 115.33M440.87 115.33L441.21 115.42M441.21 115.42L441.46 115.67M441.46 115.67L441.56 116.02M441.56 116.02L441.56 145.33M441.56 145.33L441.56 145.33M441.56 145.33L441.46 145.68M441.46 145.68L441.21 145.93M441.21 145.93L440.87 146.02"
fill="none" stroke="black" stroke-width="0.5"/>
</svg>
