<?xml version="1.0" encoding="UTF-8" standalone="yes"?>
<!-- Created with sK1/UniConvertor (http://sk1project.org/) -->
<svg xmlns="http://www.w3.org/2000/svg" xmlns:xlink="http://www.w3.org/1999/xlink"
  width="595.276pt" height="841.89pt" viewBox="0 0 595.276 841.89"
  fill-rule="evenodd">
<g>
<path style="stroke:#000000; stroke-width:0.850394; stroke-linejoin:round; stroke-linecap:round; fill:none" d="M 214.401 294.302L 6.88924 294.302L 6.05418 293.467L 6.05418 257.977L 6.88924 257.142L 214.401 257.142L 215.236 257.977L 215.236 293.466L 214.401 294.301"/>
<path style="stroke:#000000; stroke-width:0.850394; stroke-linejoin:round; stroke-linecap:round; fill:none" d="M 4.8016 256.724L 4.8016 294.719L 5.63666 295.554L 215.653 295.554L 216.488 294.719L 216.488 256.724L 215.653 255.889L 5.63678 255.889L 4.8016 256.724"/>
<path style="stroke:#000000; stroke-width:0.850394; stroke-linejoin:round; stroke-linecap:round; fill:none" d="M 203.545 240.649L 202.71 241.484L 18.58 241.484L 17.745 240.649L 17.745 138.146L 18.58 137.311L 202.71 137.311L 203.545 138.146L 203.545 240.649"/>
<path style="stroke:#000000; stroke-width:0.850394; stroke-linejoin:round; stroke-linecap:round; fill:none" d="M 204.798 241.901L 203.963 242.737L 17.3274 242.737L 16.4924 241.902L 16.4924 136.894L 17.3274 136.059L 203.963 136.059L 204.798 136.893L 204.798 241.902"/>
<path style="stroke:#000000; stroke-width:0.850394; stroke-linejoin:round; stroke-linecap:round; fill:none" d="M 181.834 218.52L 180.581 219.773L 40.709 219.773L 39.4564 218.52L 39.4564 160.275L 40.709 159.023L 180.581 159.023L 181.834 160.275L 181.834 218.52"/>
<path style="stroke:#000000; stroke-width:0.850394; stroke-linejoin:round; stroke-linecap:round; fill:none" d="M 32.3587 150.672L 31.1059 151.924L 31.1059 226.871L 32.3585 228.124L 188.932 228.124L 190.184 226.871L 190.184 151.925L 188.932 150.672L 32.3585 150.672"/>
<path style="stroke:#000000; stroke-width:0.850394; stroke-linejoin:round; stroke-linecap:round; fill:none" d="M 181.834 628.533L 180.581 629.786L 40.709 629.786L 39.4564 628.533L 39.4564 332.923L 40.709 331.671L 180.581 331.671L 181.834 332.923L 181.834 628.533"/>
<path style="stroke:#000000; stroke-width:0.850394; stroke-linejoin:round; stroke-linecap:round; fill:none" d="M 32.3586 323.32L 31.1059 324.573L 31.1059 636.884L 32.3584 638.136L 188.932 638.136L 190.184 636.884L 190.184 324.573L 188.932 323.32L 32.3585 323.32"/>
<path style="stroke:#000000; stroke-width:0.850394; stroke-linejoin:round; stroke-linecap:round; fill:none" d="M 203.545 650.662L 202.71 651.497L 18.58 651.497L 17.7449 650.662L 17.745 310.794L 18.58 309.959L 202.71 309.959L 203.545 310.794L 203.545 650.662"/>
<path style="stroke:#000000; stroke-width:0.850394; stroke-linejoin:round; stroke-linecap:round; fill:none" d="M 204.798 651.915L 203.963 652.75L 17.3274 652.75L 16.4924 651.915L 16.4924 309.541L 17.3274 308.706L 203.963 308.706L 204.798 309.541L 204.798 651.915"/>
<path style="stroke:#000000; stroke-width:0.850394; stroke-linejoin:round; stroke-linecap:round; fill:none" d="M 215.236 703.479L 214.401 704.314L 6.88921 704.314L 6.05416 703.479L 6.05416 667.99L 6.88921 667.154L 214.401 667.154L 215.236 667.99L 215.236 703.479"/>
<path style="stroke:#000000; stroke-width:0.850394; stroke-linejoin:round; stroke-linecap:round; fill:none" d="M 5.63658 665.902L 4.80157 666.737L 4.80157 704.732L 5.63663 705.567L 215.653 705.567L 216.488 704.732L 216.488 666.737L 215.653 665.902L 5.63663 665.902"/>
<path style="stroke:#000000; stroke-width:0.850394; stroke-linejoin:round; stroke-linecap:round; fill:none" d="M 181.834 801.181L 180.581 802.434L 40.709 802.434L 39.4564 801.181L 39.4564 742.936L 40.709 741.683L 180.581 741.683L 181.834 742.936L 181.834 801.181"/>
<path style="stroke:#000000; stroke-width:0.850394; stroke-linejoin:round; stroke-linecap:round; fill:none" d="M 32.3585 733.333L 31.1059 734.585L 31.1059 809.532L 32.3584 810.784L 188.932 810.784L 190.184 809.532L 190.184 734.585L 188.932 733.333L 32.3584 733.333"/>
<path style="stroke:#000000; stroke-width:0.850394; stroke-linejoin:round; stroke-linecap:round; fill:none" d="M 203.545 823.31L 202.71 824.145L 18.58 824.145L 17.7449 823.31L 17.7449 720.807L 18.58 719.972L 202.71 719.972L 203.545 720.807L 203.545 823.31"/>
<path style="stroke:#000000; stroke-width:0.850394; stroke-linejoin:round; stroke-linecap:round; fill:none" d="M 204.798 824.562L 203.963 825.398L 17.3274 825.398L 16.4924 824.563L 16.4924 719.554L 17.3274 718.719L 203.963 718.719L 204.798 719.554L 204.798 824.563"/>
<path style="stroke:#000000; stroke-width:0.850394; stroke-linejoin:round; stroke-linecap:round; fill:none" d="M 207.303 716.214L 207.303 827.903L 13.9872 827.903L 13.9872 716.214L 207.303 716.214"/>
<path style="stroke:#000000; stroke-width:0.850394; stroke-linejoin:round; stroke-linecap:round; fill:none" d="M 207.303 306.201L 207.303 655.255L 13.9872 655.255L 13.9872 306.201L 207.303 306.201"/>
<path style="stroke:#000000; stroke-width:0.850394; stroke-linejoin:round; stroke-linecap:round; fill:none" d="M 207.303 133.553L 207.303 245.242L 13.9872 245.242L 13.9872 133.553L 207.303 133.553"/>
<path style="stroke:#000000; stroke-width:0.850394; stroke-linejoin:round; stroke-linecap:round; fill:none" d="M 216.488 707.028L 4.80157 707.028L 4.80157 837.088L 216.488 837.088L 216.488 707.028"/>
<path style="stroke:#000000; stroke-width:0.850394; stroke-linejoin:round; stroke-linecap:round; fill:none" d="M 216.488 297.016L 4.8016 297.016L 4.80157 664.44L 216.488 664.44L 216.488 297.016"/>
<path style="stroke:#000000; stroke-width:0.850394; stroke-linejoin:round; stroke-linecap:round; fill:none" d="M 216.488 124.368L 4.8016 124.368L 4.8016 254.428L 216.488 254.428L 216.488 124.368"/>
<path style="stroke:#000000; stroke-width:0.850394; stroke-linejoin:round; stroke-linecap:round; fill:none" d="M 217.95 124.159L 217.95 837.297L 216.697 838.55L 4.59281 838.55L 3.34023 837.297L 3.34025 124.159L 4.59284 122.906L 216.697 122.906L 217.95 124.159"/>
<path style="stroke:#000000; stroke-width:0.850394; stroke-linejoin:round; stroke-linecap:round; fill:none" d="M 216.697 121.654L 4.59284 121.654L 2.08767 124.159L 2.08764 837.297L 4.59281 839.802L 216.697 839.802L 219.202 837.297L 219.202 124.159L 216.697 121.654"/>
<path style="stroke:#000000; stroke-width:0.850394; stroke-linejoin:round; stroke-linecap:round; fill:none" d="M 221.29 119.566L 221.29 841.89L 0 841.89L 2.54692e-05 119.566L 221.29 119.566"/>
</g>
</svg>