<?xml version="1.0" encoding="UTF-8"?>
<svg xmlns="http://www.w3.org/2000/svg" width="800.000" height="600.000" viewBox="0.0 0.0 800.000 600.000" version="1.1">
  <title>Produce by Acme CAD Converter</title>
  <desc>Produce by Acme CAD Converter</desc>
<path d="M380.2 555.46L380.2 557.29M380.2 557.29L380.2 559.12M380.2 559.12L380.2 559.2M380.2 559.2L380.2 559.28M380.2 559.28L380.2 559.32M380.2 559.32L380.2 559.36M380.2 559.36L380.2 559.4M380.2 559.4L380.2 559.44M380.2 559.44L380.2 559.44M380.2 559.44L380.2 559.52M380.2 559.52L380.2 559.52M380.2 559.52L380.21 559.61M380.21 559.61L380.21 559.61M380.21 559.61L380.21 559.69M380.21 559.69L380.21 559.69M380.21 559.69L380.3 560.09M380.3 560.09L380.3 560.09M380.3 560.09L380.6 560.58M380.6 560.58L380.6 560.58M380.6 560.58L381.04 560.95M381.04 560.95L381.04 560.95M381.04 560.95L381.58 561.13M381.58 561.13L381.58 561.13M381.58 561.13L381.67 561.14M381.67 561.14L381.67 561.14M381.67 561.14L381.75 561.15M381.75 561.15L381.75 561.15M381.75 561.15L381.83 561.15M381.83 561.15L381.83 561.15M381.83 561.15L382.13 561.15M382.13 561.15L382.13 561.15M382.13 561.15L382.44 561.15M382.44 561.15L382.59 561.15M382.59 561.15L382.74 561.15M382.74 561.15L382.92 561.15M382.92 561.15L382.92 561.15M382.92 561.15L383.1 561.15M383.1 561.15L383.46 561.15M383.46 561.15L383.64 561.15M383.64 561.15L383.64 561.15M383.64 561.15L383.82 561.15M383.82 561.15L384.18 561.15M384.18 561.15L384.9 561.15M384.9 561.15L385.26 561.15M385.26 561.15L385.44 561.15M385.44 561.15L385.44 561.15M385.44 561.15L385.62 561.15M385.62 561.15L387.06 561.15M387.06 561.15L387.42 561.15M387.42 561.15L387.51 561.15M387.51 561.15L387.51 561.15M387.51 561.15L387.6 561.15M387.6 561.15L387.78 561.15M387.78 561.15L388.5 561.15M388.5 561.15L389.05 561.15M389.05 561.15L389.19 561.15M389.19 561.15L389.19 561.15M389.19 561.15L389.32 561.15M389.32 561.15L389.6 561.15M389.6 561.15L390.7 561.15M390.7 561.15L391.8 561.15M391.8 561.15L392.35 561.15M392.35 561.15L392.62 561.15M392.62 561.15L392.76 561.15M392.76 561.15L392.76 561.15M392.76 561.15L392.89 561.15M392.89 561.15L395.09 561.15M395.09 561.15L395.09 561.15M395.09 561.15L395.37 561.15M395.37 561.15L395.64 561.15M395.64 561.15L396.19 561.15M396.19 561.15L397.29 561.15M397.29 561.15L402.71 561.15M402.71 561.15L409.53 561.15M409.53 561.15L416.35 561.15M416.35 561.15L416.65 561.15M416.65 561.15L416.96 561.15M416.96 561.15L417.11 561.15M417.11 561.15L417.26 561.15M417.26 561.15L417.41 561.15M417.41 561.15L417.56 561.15M417.56 561.15L417.71 561.15M417.71 561.15L417.71 561.15M417.71 561.15L417.87 561.15M417.87 561.15L417.87 561.15M417.87 561.15L418.17 561.15M418.17 561.15L418.17 561.15M418.17 561.15L418.25 561.15M418.25 561.15L418.25 561.15M418.25 561.15L418.33 561.14M418.33 561.14L418.33 561.14M418.33 561.14L418.66 561.08M418.66 561.08L418.66 561.08M418.66 561.08L419.17 560.81M419.17 560.81L419.17 560.81M419.17 560.81L419.55 560.38M419.55 560.38L419.55 560.38M419.55 560.38L419.74 559.93M419.74 559.93L419.74 559.93M419.74 559.93L419.79 559.69M419.79 559.69L419.79 559.69M419.79 559.69L419.79 559.61M419.79 559.61L419.79 559.61M419.79 559.61L419.8 559.52M419.8 559.52L419.8 559.52M419.8 559.52L419.8 559.44M419.8 559.44L419.8 559.4M419.8 559.4L419.8 559.36M419.8 559.36L419.8 559.36M419.8 559.36L419.8 558.38M419.8 558.38L419.8 557.41M419.8 557.41L419.8 557.16M419.8 557.16L419.8 557.16M419.8 557.16L419.8 557.04M419.8 557.04L419.8 556.92M419.8 556.92L419.8 556.68M419.8 556.68L419.8 556.68M419.8 556.68L419.8 556.55M419.8 556.55L419.8 556.43M419.8 556.43L419.8 556.19M419.8 556.19L419.8 556.19M419.8 556.19L419.8 556.07M419.8 556.07L419.8 555.94M419.8 555.94L419.8 555.46M419.8 555.46L419.8 533.76M419.8 533.76L419.8 531.93M419.8 531.93L419.8 530.1M419.8 530.1L419.8 530.02M419.8 530.02L419.8 529.94M419.8 529.94L419.8 529.9M419.8 529.9L419.8 529.86M419.8 529.86L419.8 529.81M419.8 529.81L419.8 529.77M419.8 529.77L419.8 529.77M419.8 529.77L419.8 529.69M419.8 529.69L419.8 529.69M419.8 529.69L419.79 529.61M419.79 529.61L419.79 529.61M419.79 529.61L419.79 529.53M419.79 529.53L419.79 529.53M419.79 529.53L419.7 529.13M419.7 529.13L419.7 529.13M419.7 529.13L419.4 528.63M419.4 528.63L419.4 528.63M419.4 528.63L418.96 528.27M418.96 528.27L418.96 528.27M418.96 528.27L418.42 528.08M418.42 528.08L418.42 528.08M418.42 528.08L418.33 528.07M418.33 528.07L418.33 528.07M418.33 528.07L418.25 528.07M418.25 528.07L418.25 528.07M418.25 528.07L418.17 528.07M418.17 528.07L418.17 528.07M418.17 528.07L417.87 528.07M417.87 528.07L417.87 528.07M417.87 528.07L417.71 528.07M417.71 528.07L417.56 528.07M417.56 528.07L417.41 528.07M417.41 528.07L417.26 528.07M417.26 528.07L417.08 528.07M417.08 528.07L417.08 528.07M417.08 528.07L416.9 528.07M416.9 528.07L416.54 528.07M416.54 528.07L416.36 528.07M416.36 528.07L416.36 528.07M416.36 528.07L416.18 528.07M416.18 528.07L415.82 528.07M415.82 528.07L415.1 528.07M415.1 528.07L414.92 528.07M414.92 528.07L414.92 528.07M414.92 528.07L414.74 528.07M414.74 528.07L414.38 528.07M414.38 528.07L413.66 528.07M413.66 528.07L413.48 528.07M413.48 528.07L413.48 528.07M413.48 528.07L413.3 528.07M413.3 528.07L412.94 528.07M412.94 528.07L412.76 528.07M412.76 528.07L412.76 528.07M412.76 528.07L412.58 528.07M412.58 528.07L412.22 528.07M412.22 528.07L412.04 528.07M412.04 528.07L412.04 528.07M412.04 528.07L411.86 528.07M411.86 528.07L411.5 528.07M411.5 528.07L410.95 528.07M410.95 528.07L410.81 528.07M410.81 528.07L410.81 528.07M410.81 528.07L410.68 528.06M410.68 528.06L410.4 528.06M410.4 528.06L409.3 528.06M409.3 528.06L408.75 528.06M408.75 528.06L408.62 528.06M408.62 528.06L408.62 528.06M408.62 528.06L408.48 528.07M408.48 528.07L408.2 528.07M408.2 528.07L407.11 528.07M407.11 528.07L404.91 528.07M404.91 528.07L404.91 528.07M404.91 528.07L404.63 528.07M404.63 528.07L404.36 528.07M404.36 528.07L403.81 528.07M403.81 528.07L402.71 528.07M402.71 528.07L397.29 528.07M397.29 528.07L390.47 528.07M390.47 528.07L383.65 528.07M383.65 528.07L383.35 528.07M383.35 528.07L383.04 528.07M383.04 528.07L382.89 528.07M382.89 528.07L382.74 528.07M382.74 528.07L382.59 528.07M382.59 528.07L382.59 528.07M382.59 528.07L382.44 528.07M382.44 528.07L382.29 528.07M382.29 528.07L382.29 528.07M382.29 528.07L382.13 528.07M382.13 528.07L382.13 528.07M382.13 528.07L381.83 528.07M381.83 528.07L381.83 528.07M381.83 528.07L381.75 528.07M381.75 528.07L381.75 528.07M381.75 528.07L381.67 528.07M381.67 528.07L381.67 528.07M381.67 528.07L381.34 528.14M381.34 528.14L381.34 528.14M381.34 528.14L380.83 528.41M380.83 528.41L380.83 528.41M380.83 528.41L380.45 528.83M380.45 528.83L380.45 528.83M380.45 528.83L380.26 529.28M380.26 529.28L380.26 529.28M380.26 529.28L380.21 529.53M380.21 529.53L380.21 529.53M380.21 529.53L380.21 529.61M380.21 529.61L380.21 529.61M380.21 529.61L380.2 529.69M380.2 529.69L380.2 529.69M380.2 529.69L380.2 529.77M380.2 529.77L380.2 529.81M380.2 529.81L380.2 529.86M380.2 529.86L380.2 529.86M380.2 529.86L380.2 530.83M380.2 530.83L380.2 531.81M380.2 531.81L380.2 532.05M380.2 532.05L380.2 532.05M380.2 532.05L380.2 532.17M380.2 532.17L380.2 532.3M380.2 532.3L380.2 532.54M380.2 532.54L380.2 532.54M380.2 532.54L380.2 532.66M380.2 532.66L380.2 532.78M380.2 532.78L380.2 533.03M380.2 533.03L380.2 533.03M380.2 533.03L380.2 533.15M380.2 533.15L380.2 533.27M380.2 533.27L380.2 533.76M380.2 533.76L380.2 555.46"
fill="none" stroke="black" stroke-width="0.5"/>
<path d="M397.29 456.2L376.58 456.2M376.58 456.2L355.88 456.2M355.88 456.2L354.94 456.2M354.94 456.2L353.99 456.2M353.99 456.2L353.52 456.2M353.52 456.2L353.05 456.2M353.05 456.2L352.58 456.2M352.58 456.2L352.11 456.2M352.11 456.2L352.11 456.2M352.11 456.2L351.17 456.2M351.17 456.2L351.17 456.2M351.17 456.2L350.23 456.2M350.23 456.2L350.23 456.2M350.23 456.2L349.29 456.2M349.29 456.2L349.29 456.2M349.29 456.2L349.22 456.2M349.22 456.2L349.22 456.2M349.22 456.2L349.15 456.21M349.15 456.21L349.15 456.21M349.15 456.21L348.95 456.25M348.95 456.25L348.95 456.25M348.95 456.25L348.6 456.45M348.6 456.45L348.6 456.45M348.6 456.45L348.34 456.76M348.34 456.76L348.34 456.76M348.34 456.76L348.22 457.08M348.22 457.08L348.22 457.08M348.22 457.08L348.21 457.15M348.21 457.15L348.21 457.15M348.21 457.15L348.21 457.22M348.21 457.22L348.21 457.22M348.21 457.22L348.2 457.25M348.2 457.25L348.2 457.29M348.2 457.29L348.2 457.29M348.2 457.29L348.2 457.92M348.2 457.92L348.2 457.92M348.2 457.92L348.2 458.56M348.2 458.56L348.2 458.56M348.2 458.56L348.2 458.88M348.2 458.88L348.2 459.2M348.2 459.2L348.2 459.2M348.2 459.2L348.2 459.52M348.2 459.52L348.2 459.84M348.2 459.84L348.2 459.84M348.2 459.84L348.2 461.43M348.2 461.43L348.2 461.43M348.2 461.43L348.2 463.03M348.2 463.03L348.2 463.03M348.2 463.03L348.2 463.13M348.2 463.13L348.2 463.23M348.2 463.23L348.2 463.43M348.2 463.43L348.2 463.83M348.2 463.83L348.2 464.62M348.2 464.62L348.2 466.22M348.2 466.22L348.2 472.6M348.2 472.6L348.2 474.2M348.2 474.2L348.2 474.59M348.2 474.59L348.2 474.59M348.2 474.59L348.2 474.79M348.2 474.79L348.2 474.99M348.2 474.99L348.2 475.79M348.2 475.79L348.2 477.39M348.2 477.39L348.2 477.78M348.2 477.78L348.2 477.78M348.2 477.78L348.2 477.98M348.2 477.98L348.2 478.18M348.2 478.18L348.2 478.98M348.2 478.98L348.2 480.58M348.2 480.58L348.2 480.98M348.2 480.98L348.2 480.98M348.2 480.98L348.2 481.17M348.2 481.17L348.2 481.37M348.2 481.37L348.2 482.17M348.2 482.17L348.2 485.36M348.2 485.36L348.2 486M348.2 486L348.2 486.64M348.2 486.64L348.2 486.96M348.2 486.96L348.2 487.28M348.2 487.28L348.2 487.6M348.2 487.6L348.2 487.91M348.2 487.91L348.2 488.23M348.2 488.23L348.2 488.23M348.2 488.23L348.2 488.55M348.2 488.55L348.2 488.55M348.2 488.55L348.2 489.19M348.2 489.19L348.2 489.19M348.2 489.19L348.2 489.83M348.2 489.83L348.2 489.83M348.2 489.83L348.21 489.9M348.21 489.9L348.21 489.9M348.21 489.9L348.21 489.96M348.21 489.96L348.21 489.96M348.21 489.96L348.26 490.16M348.26 490.16L348.26 490.16M348.26 490.16L348.45 490.52M348.45 490.52L348.45 490.52M348.45 490.52L348.77 490.78M348.77 490.78L348.77 490.78M348.77 490.78L349.09 490.89M349.09 490.89L349.09 490.89M349.09 490.89L349.15 490.9M349.15 490.9L349.15 490.9M349.15 490.9L349.22 490.91M349.22 490.91L349.22 490.91M349.22 490.91L349.29 490.91M349.29 490.91L349.29 490.91M349.29 490.91L350.23 490.91M350.23 490.91L350.23 490.91M350.23 490.91L351.17 490.91M351.17 490.91L351.17 490.91M351.17 490.91L351.64 490.91M351.64 490.91L352.11 490.91M352.11 490.91L352.11 490.91M352.11 490.91L352.58 490.91M352.58 490.91L353.05 490.91M353.05 490.91L354.47 490.91M354.47 490.91L355.88 490.91M355.88 490.91L357.29 490.91M357.29 490.91L357.64 490.91M357.64 490.91L357.73 490.91M357.73 490.91L357.73 490.91M357.73 490.91L357.82 490.91M357.82 490.91L357.99 490.91M357.99 490.91L358.7 490.91M358.7 490.91L359.3 490.91M359.3 490.91L359.45 490.91M359.45 490.91L359.45 490.91M359.45 490.91L359.61 490.91M359.61 490.91L359.91 490.91M359.91 490.91L361.11 490.91M361.11 490.91L361.11 490.91M361.11 490.91L363.52 490.91M363.52 490.91L363.52 490.91M363.52 490.91L368.35 490.91M368.35 490.91L368.35 490.91M368.35 490.91L368.5 490.91M368.5 490.91L368.65 490.91M368.65 490.91L368.95 490.91M368.95 490.91L369.55 490.91M369.55 490.91L370.76 490.91M370.76 490.91L373.17 490.91M373.17 490.91L374.38 490.91M374.38 490.91L374.68 490.91M374.68 490.91L374.68 490.91M374.68 490.91L374.98 490.91M374.98 490.91L375.58 490.91M375.58 490.91L378 490.91M378 490.91L380.41 490.91M380.41 490.91L381.01 490.91M381.01 490.91L381.01 490.91M381.01 490.91L381.31 490.91M381.31 490.91L381.61 490.91M381.61 490.91L382.82 490.91M382.82 490.91L385.23 490.91M385.23 490.91L385.83 490.91M385.83 490.91L385.83 490.91M385.83 490.91L386.14 490.91M386.14 490.91L386.44 490.91M386.44 490.91L387.64 490.91M387.64 490.91L390.05 490.91M390.05 490.91L390.66 490.91M390.66 490.91L390.66 490.91M390.66 490.91L390.96 490.91M390.96 490.91L391.26 490.91M391.26 490.91L392.47 490.91M392.47 490.91L397.29 490.91M397.29 490.91L402.71 490.91M402.71 490.91L423.42 490.91M423.42 490.91L433.77 490.91M433.77 490.91L444.12 490.91M444.12 490.91L445.06 490.91M445.06 490.91L446.01 490.91M446.01 490.91L446.48 490.91M446.48 490.91L446.95 490.91M446.95 490.91L447.42 490.91M447.42 490.91L447.42 490.91M447.42 490.91L447.89 490.91M447.89 490.91L448.36 490.91M448.36 490.91L448.36 490.91M448.36 490.91L448.83 490.91M448.83 490.91L448.83 490.91M448.83 490.91L449.77 490.91M449.77 490.91L449.77 490.91M449.77 490.91L450.71 490.91M450.71 490.91L450.75 490.91M450.75 490.91L450.75 490.91M450.75 490.91L450.78 490.91M450.78 490.91L450.78 490.91M450.78 490.91L450.85 490.9M450.85 490.9L450.85 490.9M450.85 490.9L451.05 490.86M451.05 490.86L451.05 490.86M451.05 490.86L451.4 490.66M451.4 490.66L451.4 490.66M451.4 490.66L451.66 490.35M451.66 490.35L451.66 490.35M451.66 490.35L451.78 490.03M451.78 490.03L451.78 490.03M451.78 490.03L451.79 489.96M451.79 489.96L451.79 489.96M451.79 489.96L451.79 489.9M451.79 489.9L451.79 489.9M451.79 489.9L451.8 489.83M451.8 489.83L451.8 489.83M451.8 489.83L451.8 489.19M451.8 489.19L451.8 489.19M451.8 489.19L451.8 488.55M451.8 488.55L451.8 488.55M451.8 488.55L451.8 488.23M451.8 488.23L451.8 488.23M451.8 488.23L451.8 488.07M451.8 488.07L451.8 487.91M451.8 487.91L451.8 487.6M451.8 487.6L451.8 487.28M451.8 487.28L451.8 487.28M451.8 487.28L451.8 485.68M451.8 485.68L451.8 485.68M451.8 485.68L451.8 484.09M451.8 484.09L451.8 484.09M451.8 484.09L451.8 483.99M451.8 483.99L451.8 483.89M451.8 483.89L451.8 483.69M451.8 483.69L451.8 483.29M451.8 483.29L451.8 482.49M451.8 482.49L451.8 480.9M451.8 480.9L451.8 474.51M451.8 474.51L451.8 472.92M451.8 472.92L451.8 472.52M451.8 472.52L451.8 472.52M451.8 472.52L451.8 472.32M451.8 472.32L451.8 472.12M451.8 472.12L451.8 471.32M451.8 471.32L451.8 469.73M451.8 469.73L451.8 469.33M451.8 469.33L451.8 469.33M451.8 469.33L451.8 469.13M451.8 469.13L451.8 468.93M451.8 468.93L451.8 468.13M451.8 468.13L451.8 466.54M451.8 466.54L451.8 466.14M451.8 466.14L451.8 466.14M451.8 466.14L451.8 465.94M451.8 465.94L451.8 465.74M451.8 465.74L451.8 464.94M451.8 464.94L451.8 461.75M451.8 461.75L451.8 461.11M451.8 461.11L451.8 460.48M451.8 460.48L451.8 460.16M451.8 460.16L451.8 459.84M451.8 459.84L451.8 459.52M451.8 459.52L451.8 459.2M451.8 459.2L451.8 458.88M451.8 458.88L451.8 458.88M451.8 458.88L451.8 458.56M451.8 458.56L451.8 458.56M451.8 458.56L451.8 457.92M451.8 457.92L451.8 457.92M451.8 457.92L451.8 457.29M451.8 457.29L451.8 457.29M451.8 457.29L451.79 457.22M451.79 457.22L451.79 457.22M451.79 457.22L451.79 457.15M451.79 457.15L451.79 457.15M451.79 457.15L451.74 456.95M451.74 456.95L451.74 456.95M451.74 456.95L451.55 456.6M451.55 456.6L451.55 456.6M451.55 456.6L451.23 456.34M451.23 456.34L451.23 456.34M451.23 456.34L450.91 456.22M450.91 456.22L450.91 456.22M450.91 456.22L450.85 456.21M450.85 456.21L450.85 456.21M450.85 456.21L450.78 456.2M450.78 456.2L450.78 456.2M450.78 456.2L450.71 456.2M450.71 456.2L450.71 456.2M450.71 456.2L449.77 456.2M449.77 456.2L449.77 456.2M449.77 456.2L448.83 456.2M448.83 456.2L448.83 456.2M448.83 456.2L447.89 456.2M447.89 456.2L447.42 456.2M447.42 456.2L446.95 456.2M446.95 456.2L446.59 456.2M446.59 456.2L446.51 456.2M446.51 456.2L446.51 456.2M446.51 456.2L446.42 456.2M446.42 456.2L446.24 456.2M446.24 456.2L445.53 456.2M445.53 456.2L444.83 456.2M444.83 456.2L444.48 456.2M444.48 456.2L444.3 456.2M444.3 456.2L444.3 456.2M444.3 456.2L444.12 456.2M444.12 456.2L441.3 456.2M441.3 456.2L440.7 456.2M440.7 456.2L440.55 456.2M440.55 456.2L440.55 456.2M440.55 456.2L440.39 456.2M440.39 456.2L440.09 456.2M440.09 456.2L438.89 456.2M438.89 456.2L438.28 456.2M438.28 456.2L438.13 456.2M438.13 456.2L438.13 456.2M438.13 456.2L437.98 456.2M437.98 456.2L437.68 456.2M437.68 456.2L436.48 456.2M436.48 456.2L434.06 456.2M434.06 456.2L432.86 456.2M432.86 456.2L432.25 456.2M432.25 456.2L431.95 456.2M431.95 456.2L431.8 456.2M431.8 456.2L431.8 456.2M431.8 456.2L431.65 456.2M431.65 456.2L431.65 456.2M431.65 456.2L431.5 456.2M431.5 456.2L431.35 456.2M431.35 456.2L431.05 456.2M431.05 456.2L430.45 456.2M430.45 456.2L429.24 456.2M429.24 456.2L426.83 456.2M426.83 456.2L425.62 456.2M425.62 456.2L425.32 456.2M425.32 456.2L425.32 456.2M425.32 456.2L425.02 456.2M425.02 456.2L424.42 456.2M424.42 456.2L422 456.2M422 456.2L419.59 456.2M419.59 456.2L418.99 456.2M418.99 456.2L418.99 456.2M418.99 456.2L418.69 456.2M418.69 456.2L418.39 456.2M418.39 456.2L417.18 456.2M417.18 456.2L414.77 456.2M414.77 456.2L414.17 456.2M414.17 456.2L414.17 456.2M414.17 456.2L413.86 456.2M413.86 456.2L413.56 456.2M413.56 456.2L412.36 456.2M412.36 456.2L409.95 456.2M409.95 456.2L409.34 456.2M409.34 456.2L409.34 456.2M409.34 456.2L409.04 456.2M409.04 456.2L408.74 456.2M408.74 456.2L407.53 456.2M407.53 456.2L402.71 456.2M402.71 456.2L397.29 456.2"
fill="none" stroke="black" stroke-width="0.5"/>
<path d="M380.2 224.39L380.2 250.07M380.2 250.07L380.2 275.76M380.2 275.76L380.2 275.76M380.2 275.76L380.2 275.86M380.2 275.86L380.2 275.96M380.2 275.96L380.2 276.16M380.2 276.16L380.2 276.56M380.2 276.56L380.2 277.36M380.2 277.36L380.2 278.97M380.2 278.97L380.2 282.18M380.2 282.18L380.2 288.6M380.2 288.6L380.2 301.44M380.2 301.44L380.2 307.86M380.2 307.86L380.2 309.46M380.2 309.46L380.2 309.86M380.2 309.86L380.2 309.96M380.2 309.96L380.2 309.96M380.2 309.96L380.2 310.06M380.2 310.06L380.2 310.26M380.2 310.26L380.2 311.07M380.2 311.07L380.2 314.28M380.2 314.28L380.2 327.12M380.2 327.12L380.2 339.96M380.2 339.96L380.2 343.17M380.2 343.17L380.2 343.97M380.2 343.97L380.2 344.17M380.2 344.17L380.2 344.17M380.2 344.17L380.2 344.27M380.2 344.27L380.2 344.37M380.2 344.37L380.2 344.77M380.2 344.77L380.2 346.38M380.2 346.38L380.2 352.8M380.2 352.8L380.2 365.64M380.2 365.64L380.2 368.85M380.2 368.85L380.2 369.65M380.2 369.65L380.2 369.85M380.2 369.85L380.2 369.85M380.2 369.85L380.2 369.95M380.2 369.95L380.2 370.05M380.2 370.05L380.2 370.46M380.2 370.46L380.2 372.06M380.2 372.06L380.2 378.48M380.2 378.48L380.2 391.32M380.2 391.32L380.2 394.53M380.2 394.53L380.2 395.33M380.2 395.33L380.2 395.54M380.2 395.54L380.2 395.54M380.2 395.54L380.2 395.64M380.2 395.64L380.2 395.74M380.2 395.74L380.2 396.14M380.2 396.14L380.2 343.51M380.2 343.51L380.2 349.93M380.2 349.93L380.2 375.61M380.2 375.61L380.2 380.83M380.2 380.83L380.2 386.06M380.2 386.06L380.2 388.67M380.2 388.67L380.2 391.29M380.2 391.29L380.2 393.9M380.2 393.9L380.2 396.51M380.2 396.51L380.2 397.82M380.2 397.82L380.2 398.15M380.2 398.15L380.2 398.15M380.2 398.15L380.2 398.31M380.2 398.31L380.2 398.48M380.2 398.48L380.2 399.13M380.2 399.13L380.2 400.44M380.2 400.44L380.2 401.09M380.2 401.09L380.2 401.09M380.2 401.09L380.2 401.42M380.2 401.42L380.2 401.74M380.2 401.74L380.2 402.07M380.2 402.07L380.2 402.07M380.2 402.07L380.2 402.23M380.2 402.23L380.2 402.4M380.2 402.4L380.2 402.72M380.2 402.72L380.2 402.72M380.2 402.72L380.2 402.89M380.2 402.89L380.2 403.05M380.2 403.05L380.2 404.36M380.2 404.36L380.2 404.36M380.2 404.36L380.2 404.68M380.2 404.68L380.2 405.01M380.2 405.01L380.2 405.34M380.2 405.34L380.2 405.5M380.2 405.5L380.2 405.5M380.2 405.5L380.2 405.66M380.2 405.66L380.2 406.32M380.2 406.32L380.2 406.64M380.2 406.64L380.2 406.97M380.2 406.97L380.2 406.97M380.2 406.97L380.2 412.2M380.2 412.2L380.2 412.2M380.2 412.2L380.19 414.81M380.19 414.81L380.19 414.81M380.19 414.81L380.2 417.42M380.2 417.42L380.2 417.42M380.2 417.42L380.21 417.5M380.21 417.5L380.21 417.5M380.21 417.5L380.21 417.59M380.21 417.59L380.21 417.59M380.21 417.59L380.26 417.83M380.26 417.83L380.26 417.83M380.26 417.83L380.5 418.35M380.5 418.35L380.5 418.35M380.5 418.35L380.83 418.71M380.83 418.71L380.83 418.71M380.83 418.71L381.27 418.95M381.27 418.95L381.27 418.95M381.27 418.95L381.58 419.03M381.58 419.03L381.58 419.03M381.58 419.03L381.67 419.04M381.67 419.04L381.67 419.04M381.67 419.04L381.75 419.05M381.75 419.05L381.75 419.05M381.75 419.05L381.83 419.05M381.83 419.05L381.83 419.05M381.83 419.05L382.13 419.05M382.13 419.05L382.13 419.05M382.13 419.05L382.29 419.05M382.29 419.05L382.44 419.05M382.44 419.05L382.59 419.05M382.59 419.05L382.74 419.05M382.74 419.05L382.92 419.05M382.92 419.05L382.92 419.05M382.92 419.05L383.1 419.05M383.1 419.05L383.46 419.05M383.46 419.05L383.64 419.05M383.64 419.05L383.64 419.05M383.64 419.05L383.82 419.05M383.82 419.05L384.18 419.05M384.18 419.05L384.9 419.05M384.9 419.05L385.26 419.05M385.26 419.05L385.44 419.05M385.44 419.05L385.44 419.05M385.44 419.05L385.62 419.05M385.62 419.05L387.06 419.05M387.06 419.05L387.42 419.05M387.42 419.05L387.51 419.05M387.51 419.05L387.51 419.05M387.51 419.05L387.6 419.05M387.6 419.05L387.78 419.05M387.78 419.05L388.5 419.05M388.5 419.05L388.77 419.05M388.77 419.05L388.77 419.05M388.77 419.05L389.05 419.05M389.05 419.05L389.6 419.05M389.6 419.05L390.7 419.05M390.7 419.05L391.8 419.05M391.8 419.05L392.35 419.05M392.35 419.05L392.62 419.05M392.62 419.05L392.76 419.05M392.76 419.05L392.76 419.05M392.76 419.05L392.89 419.05M392.89 419.05L395.09 419.05M395.09 419.05L395.09 419.05M395.09 419.05L395.37 419.05M395.37 419.05L395.64 419.05M395.64 419.05L396.19 419.05M396.19 419.05L397.29 419.05M397.29 419.05L402.71 419.05M402.71 419.05L409.53 419.05M409.53 419.05L416.35 419.05M416.35 419.05L416.65 419.05M416.65 419.05L416.96 419.05M416.96 419.05L417.11 419.05M417.11 419.05L417.26 419.05M417.26 419.05L417.41 419.05M417.41 419.05L417.41 419.05M417.41 419.05L417.56 419.05M417.56 419.05L417.71 419.05M417.71 419.05L417.71 419.05M417.71 419.05L417.87 419.05M417.87 419.05L417.87 419.05M417.87 419.05L418.17 419.05M418.17 419.05L418.17 419.05M418.17 419.05L418.25 419.05M418.25 419.05L418.25 419.05M418.25 419.05L418.33 419.04M418.33 419.04L418.33 419.04M418.33 419.04L418.66 418.98M418.66 418.98L418.66 418.98M418.66 418.98L419.17 418.71M419.17 418.71L419.17 418.71M419.17 418.71L419.55 418.28M419.55 418.28L419.55 418.28M419.55 418.28L419.74 417.83M419.74 417.83L419.74 417.83M419.74 417.83L419.78 417.67M419.78 417.67L419.78 417.67M419.78 417.67L419.79 417.59M419.79 417.59L419.79 417.59M419.79 417.59L419.79 417.5M419.79 417.5L419.79 417.5M419.79 417.5L419.8 417.42M419.8 417.42L419.8 417.42M419.8 417.42L419.81 414.81M419.81 414.81L419.81 414.81M419.81 414.81L419.8 412.2M419.8 412.2L419.8 412.2M419.8 412.2L419.8 406.97M419.8 406.97L419.8 406.97M419.8 406.97L419.8 406.64M419.8 406.64L419.8 406.64M419.8 406.64L419.8 406.32M419.8 406.32L419.8 406.32M419.8 406.32L419.8 405.66M419.8 405.66L419.8 405.5M419.8 405.5L419.8 405.34M419.8 405.34L419.8 405.01M419.8 405.01L419.8 404.36M419.8 404.36L419.8 403.7M419.8 403.7L419.8 403.54M419.8 403.54L419.8 403.54M419.8 403.54L419.8 403.38M419.8 403.38L419.8 403.05M419.8 403.05L419.8 402.89M419.8 402.89L419.8 402.89M419.8 402.89L419.8 402.72M419.8 402.72L419.8 402.4M419.8 402.4L419.8 402.23M419.8 402.23L419.8 402.23M419.8 402.23L419.8 402.07M419.8 402.07L419.8 401.74M419.8 401.74L419.8 401.42M419.8 401.42L419.8 401.42M419.8 401.42L419.8 401.09M419.8 401.09L419.8 400.44M419.8 400.44L419.8 399.13M419.8 399.13L419.8 398.48M419.8 398.48L419.8 398.31M419.8 398.31L419.8 398.31M419.8 398.31L419.8 398.15M419.8 398.15L419.8 397.82M419.8 397.82L419.8 396.51M419.8 396.51L419.8 393.9M419.8 393.9L419.8 391.29M419.8 391.29L419.8 387.37M419.8 387.37L419.8 383.45M419.8 383.45L419.8 375.61M419.8 375.61L419.8 362.77M419.8 362.77L419.8 349.93M419.8 349.93L419.8 349.93M419.8 349.93L419.8 349.83M419.8 349.83L419.8 349.73M419.8 349.73L419.8 349.52M419.8 349.52L419.8 349.12M419.8 349.12L419.8 348.32M419.8 348.32L419.8 346.72M419.8 346.72L419.8 343.51M419.8 343.51L419.8 391.32M419.8 391.32L419.8 378.48M419.8 378.48L419.8 327.12M419.8 327.12L419.8 314.28M419.8 314.28L419.8 311.07M419.8 311.07L419.8 310.26M419.8 310.26L419.8 310.06M419.8 310.06L419.8 310.06M419.8 310.06L419.8 309.96M419.8 309.96L419.8 309.86M419.8 309.86L419.8 309.46M419.8 309.46L419.8 307.86M419.8 307.86L419.8 301.44M419.8 301.44L419.8 288.6M419.8 288.6L419.8 285.39M419.8 285.39L419.8 284.58M419.8 284.58L419.8 284.38M419.8 284.38L419.8 284.38M419.8 284.38L419.8 284.28M419.8 284.28L419.8 284.18M419.8 284.18L419.8 283.78M419.8 283.78L419.8 282.18M419.8 282.18L419.8 275.76M419.8 275.76L419.8 262.91M419.8 262.91L419.8 259.7M419.8 259.7L419.8 258.9M419.8 258.9L419.8 258.7M419.8 258.7L419.8 258.7M419.8 258.7L419.8 258.6M419.8 258.6L419.8 258.5M419.8 258.5L419.8 258.1M419.8 258.1L419.8 256.49M419.8 256.49L419.8 250.07M419.8 250.07L419.8 224.39M419.8 224.39L419.8 219.17M419.8 219.17L419.8 213.94M419.8 213.94L419.8 211.33M419.8 211.33L419.8 208.71M419.8 208.71L419.8 206.1M419.8 206.1L419.8 203.49M419.8 203.49L419.8 202.18M419.8 202.18L419.8 201.85M419.8 201.85L419.8 201.85M419.8 201.85L419.8 201.69M419.8 201.69L419.8 201.53M419.8 201.53L419.8 200.87M419.8 200.87L419.8 199.56M419.8 199.56L419.8 198.91M419.8 198.91L419.8 198.91M419.8 198.91L419.8 198.58M419.8 198.58L419.8 198.26M419.8 198.26L419.8 197.93M419.8 197.93L419.8 197.93M419.8 197.93L419.8 197.77M419.8 197.77L419.8 197.6M419.8 197.6L419.8 197.28M419.8 197.28L419.8 197.28M419.8 197.28L419.8 197.11M419.8 197.11L419.8 196.95M419.8 196.95L419.8 195.64M419.8 195.64L419.8 195.64M419.8 195.64L419.8 195.32M419.8 195.32L419.8 194.99M419.8 194.99L419.8 194.66M419.8 194.66L419.8 194.5M419.8 194.5L419.8 194.5M419.8 194.5L419.8 194.34M419.8 194.34L419.8 193.68M419.8 193.68L419.8 193.36M419.8 193.36L419.8 193.03M419.8 193.03L419.8 193.03M419.8 193.03L419.8 187.8M419.8 187.8L419.8 187.8M419.8 187.8L419.81 185.19M419.81 185.19L419.81 185.19M419.81 185.19L419.8 182.58M419.8 182.58L419.8 182.58M419.8 182.58L419.79 182.5M419.79 182.5L419.79 182.5M419.79 182.5L419.79 182.41M419.79 182.41L419.79 182.41M419.79 182.41L419.74 182.17M419.74 182.17L419.74 182.17M419.74 182.17L419.5 181.65M419.5 181.65L419.5 181.65M419.5 181.65L419.17 181.29M419.17 181.29L419.17 181.29M419.17 181.29L418.73 181.05M418.73 181.05L418.73 181.05M418.73 181.05L418.42 180.97M418.42 180.97L418.42 180.97M418.42 180.97L418.33 180.96M418.33 180.96L418.33 180.96M418.33 180.96L418.25 180.95M418.25 180.95L418.25 180.95M418.25 180.95L418.17 180.95M418.17 180.95L418.17 180.95M418.17 180.95L417.87 180.95M417.87 180.95L417.87 180.95M417.87 180.95L417.56 180.95M417.56 180.95L417.56 180.95M417.56 180.95L417.41 180.95M417.41 180.95L417.26 180.95M417.26 180.95L416.54 180.95M416.54 180.95L415.82 180.95M415.82 180.95L415.1 180.95M415.1 180.95L414.38 180.95M414.38 180.95L412.94 180.95M412.94 180.95L411.5 180.95M411.5 180.95L410.4 180.95M410.4 180.95L409.3 180.95M409.3 180.95L407.11 180.95M407.11 180.95L404.91 180.95M404.91 180.95L402.71 180.95M402.71 180.95L397.29 180.95M397.29 180.95L390.47 180.95M390.47 180.95L387.06 180.95M387.06 180.95L383.65 180.95M383.65 180.95L383.35 180.95M383.35 180.95L383.04 180.95M383.04 180.95L382.89 180.95M382.89 180.95L382.74 180.95M382.74 180.95L382.59 180.95M382.59 180.95L382.59 180.95M382.59 180.95L382.44 180.95M382.44 180.95L382.44 180.95M382.44 180.95L382.13 180.95M382.13 180.95L382.13 180.95M382.13 180.95L381.83 180.95M381.83 180.95L381.83 180.95M381.83 180.95L381.75 180.95M381.75 180.95L381.75 180.95M381.75 180.95L381.67 180.96M381.67 180.96L381.67 180.96M381.67 180.96L381.34 181.02M381.34 181.02L381.34 181.02M381.34 181.02L380.83 181.29M380.83 181.29L380.83 181.29M380.83 181.29L380.45 181.72M380.45 181.72L380.45 181.72M380.45 181.72L380.26 182.17M380.26 182.17L380.26 182.17M380.26 182.17L380.22 182.33M380.22 182.33L380.22 182.33M380.22 182.33L380.21 182.41M380.21 182.41L380.21 182.41M380.21 182.41L380.21 182.5M380.21 182.5L380.21 182.5M380.21 182.5L380.2 182.58M380.2 182.58L380.2 182.58M380.2 182.58L380.19 185.19M380.19 185.19L380.19 185.19M380.19 185.19L380.2 187.8M380.2 187.8L380.2 187.8M380.2 187.8L380.2 193.03M380.2 193.03L380.2 193.36M380.2 193.36L380.2 193.68M380.2 193.68L380.2 194.34M380.2 194.34L380.2 194.34M380.2 194.34L380.2 194.5M380.2 194.5L380.2 194.66M380.2 194.66L380.2 194.99M380.2 194.99L380.2 195.32M380.2 195.32L380.2 195.32M380.2 195.32L380.2 195.64M380.2 195.64L380.2 196.95M380.2 196.95L380.2 197.11M380.2 197.11L380.2 197.11M380.2 197.11L380.2 197.28M380.2 197.28L380.2 197.6M380.2 197.6L380.2 197.77M380.2 197.77L380.2 197.77M380.2 197.77L380.2 197.93M380.2 197.93L380.2 198.26M380.2 198.26L380.2 198.58M380.2 198.58L380.2 198.58M380.2 198.58L380.2 198.91M380.2 198.91L380.2 199.56M380.2 199.56L380.2 200.87M380.2 200.87L380.2 201.53M380.2 201.53L380.2 201.69M380.2 201.69L380.2 201.69M380.2 201.69L380.2 201.85M380.2 201.85L380.2 202.18M380.2 202.18L380.2 203.49M380.2 203.49L380.2 206.1M380.2 206.1L380.2 208.71M380.2 208.71L380.2 212.63M380.2 212.63L380.2 216.55M380.2 216.55L380.2 220.47M380.2 220.47L380.2 222.43M380.2 222.43L380.2 223.41M380.2 223.41L380.2 223.9M380.2 223.9L380.2 224.15M380.2 224.15L380.2 224.27M380.2 224.27L380.2 224.27M380.2 224.27L380.2 224.39"
fill="none" stroke="black" stroke-width="0.5"/>
<path d="M402.71 143.8L423.42 143.8M423.42 143.8L444.12 143.8M444.12 143.8L445.06 143.8M445.06 143.8L446.01 143.8M446.01 143.8L446.48 143.8M446.48 143.8L446.71 143.8M446.71 143.8L446.95 143.8M446.95 143.8L447.42 143.8M447.42 143.8L447.89 143.8M447.89 143.8L447.89 143.8M447.89 143.8L448.83 143.8M448.83 143.8L449.06 143.8M449.06 143.8L449.3 143.8M449.3 143.8L449.3 143.8M449.3 143.8L449.77 143.8M449.77 143.8L449.77 143.8M449.77 143.8L450.71 143.8M450.71 143.8L450.71 143.8M450.71 143.8L450.75 143.8M450.75 143.8L450.75 143.8M450.75 143.8L450.78 143.8M450.78 143.8L450.78 143.8M450.78 143.8L450.85 143.79M450.85 143.79L450.85 143.79M450.85 143.79L451.05 143.74M451.05 143.74L451.05 143.74M451.05 143.74L451.4 143.55M451.4 143.55L451.4 143.55M451.4 143.55L451.66 143.24M451.66 143.24L451.66 143.24M451.66 143.24L451.78 142.92M451.78 142.92L451.78 142.92M451.78 142.92L451.79 142.85M451.79 142.85L451.79 142.85M451.79 142.85L451.79 142.78M451.79 142.78L451.79 142.78M451.79 142.78L451.8 142.71M451.8 142.71L451.8 142.71M451.8 142.71L451.8 142.08M451.8 142.08L451.8 142.08M451.8 142.08L451.8 141.44M451.8 141.44L451.8 141.44M451.8 141.44L451.8 141.12M451.8 141.12L451.8 140.8M451.8 140.8L451.8 140.48M451.8 140.48L451.8 140.16M451.8 140.16L451.8 140.16M451.8 140.16L451.8 138.57M451.8 138.57L451.8 138.57M451.8 138.57L451.8 136.97M451.8 136.97L451.8 136.97M451.8 136.97L451.8 136.87M451.8 136.87L451.8 136.77M451.8 136.77L451.8 136.57M451.8 136.57L451.8 136.17M451.8 136.17L451.8 135.38M451.8 135.38L451.8 133.78M451.8 133.78L451.8 127.4M451.8 127.4L451.8 125.8M451.8 125.8L451.8 125.41M451.8 125.41L451.8 125.41M451.8 125.41L451.8 125.21M451.8 125.21L451.8 125.01M451.8 125.01L451.8 124.21M451.8 124.21L451.8 122.61M451.8 122.61L451.8 122.21M451.8 122.21L451.8 122.21M451.8 122.21L451.8 122.02M451.8 122.02L451.8 121.82M451.8 121.82L451.8 121.02M451.8 121.02L451.8 119.42M451.8 119.42L451.8 119.02M451.8 119.02L451.8 119.02M451.8 119.02L451.8 118.83M451.8 118.83L451.8 118.63M451.8 118.63L451.8 117.83M451.8 117.83L451.8 114.64M451.8 114.64L451.8 114M451.8 114L451.8 113.36M451.8 113.36L451.8 113.04M451.8 113.04L451.8 112.72M451.8 112.72L451.8 112.4M451.8 112.4L451.8 112.09M451.8 112.09L451.8 111.77M451.8 111.77L451.8 111.77M451.8 111.77L451.8 111.45M451.8 111.45L451.8 111.45M451.8 111.45L451.8 110.81M451.8 110.81L451.8 110.81M451.8 110.81L451.8 110.17M451.8 110.17L451.8 110.17M451.8 110.17L451.79 110.1M451.79 110.1L451.79 110.1M451.79 110.1L451.79 110.04M451.79 110.04L451.79 110.04M451.79 110.04L451.74 109.84M451.74 109.84L451.74 109.84M451.74 109.84L451.55 109.48M451.55 109.48L451.55 109.48M451.55 109.48L451.23 109.22M451.23 109.22L451.23 109.22M451.23 109.22L450.91 109.11M450.91 109.11L450.91 109.11M450.91 109.11L450.85 109.1M450.85 109.1L450.85 109.1M450.85 109.1L450.78 109.09M450.78 109.09L450.78 109.09M450.78 109.09L450.71 109.09M450.71 109.09L450.71 109.09M450.71 109.09L449.77 109.09M449.77 109.09L449.77 109.09M449.77 109.09L448.83 109.09M448.83 109.09L448.83 109.09M448.83 109.09L447.89 109.09M447.89 109.09L447.65 109.09M447.65 109.09L447.42 109.09M447.42 109.09L446.95 109.09M446.95 109.09L445.53 109.09M445.53 109.09L444.12 109.09M444.12 109.09L442.71 109.09M442.71 109.09L441.3 109.09M441.3 109.09L436.48 109.09M436.48 109.09L431.65 109.09M431.65 109.09L426.83 109.09M426.83 109.09L422 109.09M422 109.09L412.36 109.09M412.36 109.09L407.53 109.09M407.53 109.09L402.71 109.09M402.71 109.09L397.29 109.09M397.29 109.09L376.58 109.09M376.58 109.09L355.88 109.09M355.88 109.09L354.94 109.09M354.94 109.09L353.99 109.09M353.99 109.09L353.52 109.09M353.52 109.09L353.05 109.09M353.05 109.09L352.58 109.09M352.58 109.09L352.35 109.09M352.35 109.09L352.11 109.09M352.11 109.09L352.11 109.09M352.11 109.09L351.17 109.09M351.17 109.09L351.17 109.09M351.17 109.09L350.23 109.09M350.23 109.09L350.23 109.09M350.23 109.09L349.29 109.09M349.29 109.09L349.29 109.09M349.29 109.09L349.22 109.09M349.22 109.09L349.22 109.09M349.22 109.09L349.15 109.1M349.15 109.1L349.15 109.1M349.15 109.1L348.95 109.14M348.95 109.14L348.95 109.14M348.95 109.14L348.6 109.34M348.6 109.34L348.6 109.34M348.6 109.34L348.34 109.65M348.34 109.65L348.34 109.65M348.34 109.65L348.22 109.97M348.22 109.97L348.22 109.97M348.22 109.97L348.21 110.04M348.21 110.04L348.21 110.04M348.21 110.04L348.21 110.1M348.21 110.1L348.21 110.1M348.21 110.1L348.2 110.17M348.2 110.17L348.2 110.17M348.2 110.17L348.2 110.81M348.2 110.81L348.2 110.81M348.2 110.81L348.2 111.45M348.2 111.45L348.2 111.45M348.2 111.45L348.2 111.77M348.2 111.77L348.2 112.09M348.2 112.09L348.2 112.09M348.2 112.09L348.2 112.4M348.2 112.4L348.2 112.72M348.2 112.72L348.2 112.72M348.2 112.72L348.2 114.32M348.2 114.32L348.2 114.32M348.2 114.32L348.2 115.91M348.2 115.91L348.2 115.91M348.2 115.91L348.2 116.01M348.2 116.01L348.2 116.11M348.2 116.11L348.2 116.31M348.2 116.31L348.2 116.71M348.2 116.71L348.2 117.51M348.2 117.51L348.2 119.1M348.2 119.1L348.2 125.49M348.2 125.49L348.2 127.08M348.2 127.08L348.2 127.48M348.2 127.48L348.2 127.48M348.2 127.48L348.2 127.68M348.2 127.68L348.2 127.88M348.2 127.88L348.2 128.68M348.2 128.68L348.2 130.27M348.2 130.27L348.2 130.67M348.2 130.67L348.2 130.67M348.2 130.67L348.2 130.87M348.2 130.87L348.2 131.07M348.2 131.07L348.2 131.87M348.2 131.87L348.2 133.46M348.2 133.46L348.2 133.86M348.2 133.86L348.2 133.86M348.2 133.86L348.2 134.06M348.2 134.06L348.2 134.26M348.2 134.26L348.2 135.06M348.2 135.06L348.2 138.25M348.2 138.25L348.2 138.88M348.2 138.88L348.2 139.52M348.2 139.52L348.2 139.84M348.2 139.84L348.2 140.16M348.2 140.16L348.2 140.48M348.2 140.48L348.2 140.8M348.2 140.8L348.2 141.12M348.2 141.12L348.2 141.12M348.2 141.12L348.2 141.44M348.2 141.44L348.2 141.44M348.2 141.44L348.2 142.08M348.2 142.08L348.2 142.08M348.2 142.08L348.2 142.71M348.2 142.71L348.2 142.75M348.2 142.75L348.2 142.75M348.2 142.75L348.21 142.78M348.21 142.78L348.21 142.78M348.21 142.78L348.21 142.85M348.21 142.85L348.21 142.85M348.21 142.85L348.26 143.05M348.26 143.05L348.26 143.05M348.26 143.05L348.45 143.4M348.45 143.4L348.45 143.4M348.45 143.4L348.77 143.66M348.77 143.66L348.77 143.66M348.77 143.66L349.09 143.78M349.09 143.78L349.09 143.78M349.09 143.78L349.15 143.79M349.15 143.79L349.15 143.79M349.15 143.79L349.22 143.8M349.22 143.8L349.22 143.8M349.22 143.8L349.25 143.8M349.25 143.8L349.25 143.8M349.25 143.8L349.29 143.8M349.29 143.8L349.29 143.8M349.29 143.8L350.23 143.8M350.23 143.8L350.23 143.8M350.23 143.8L350.7 143.8M350.7 143.8L350.94 143.8M350.94 143.8L351.17 143.8M351.17 143.8L351.41 143.8M351.41 143.8L351.64 143.8M351.64 143.8L352.11 143.8M352.11 143.8L352.11 143.8M352.11 143.8L353.05 143.8M353.05 143.8L354.47 143.8M354.47 143.8L355.88 143.8M355.88 143.8L358.7 143.8M358.7 143.8L363.52 143.8M363.52 143.8L368.35 143.8M368.35 143.8L373.17 143.8M373.17 143.8L378 143.8M378 143.8L387.64 143.8M387.64 143.8L392.47 143.8M392.47 143.8L397.29 143.8M397.29 143.8L402.71 143.8"
fill="none" stroke="black" stroke-width="0.5"/>
<path d="M380.2 44.54L380.2 66.24M380.2 66.24L380.2 68.07M380.2 68.07L380.2 69.9M380.2 69.9L380.2 69.98M380.2 69.98L380.2 70.06M380.2 70.06L380.2 70.1M380.2 70.1L380.2 70.14M380.2 70.14L380.2 70.19M380.2 70.19L380.2 70.23M380.2 70.23L380.2 70.23M380.2 70.23L380.2 70.31M380.2 70.31L380.2 70.31M380.2 70.31L380.21 70.39M380.21 70.39L380.21 70.39M380.21 70.39L380.21 70.47M380.21 70.47L380.21 70.47M380.21 70.47L380.3 70.87M380.3 70.87L380.3 70.87M380.3 70.87L380.6 71.37M380.6 71.37L380.6 71.37M380.6 71.37L381.04 71.73M381.04 71.73L381.04 71.73M381.04 71.73L381.58 71.92M381.58 71.92L381.58 71.92M381.58 71.92L381.67 71.93M381.67 71.93L381.67 71.93M381.67 71.93L381.75 71.93M381.75 71.93L381.75 71.93M381.75 71.93L381.83 71.93M381.83 71.93L381.83 71.93M381.83 71.93L382.13 71.93M382.13 71.93L382.29 71.93M382.29 71.93L382.44 71.93M382.44 71.93L382.44 71.93M382.44 71.93L382.74 71.93M382.74 71.93L383.46 71.93M383.46 71.93L384.18 71.93M384.18 71.93L384.9 71.93M384.9 71.93L385.62 71.93M385.62 71.93L386.34 71.93M386.34 71.93L387.06 71.93M387.06 71.93L388.5 71.93M388.5 71.93L389.6 71.93M389.6 71.93L390.7 71.93M390.7 71.93L391.8 71.93M391.8 71.93L392.89 71.93M392.89 71.93L395.09 71.93M395.09 71.93L397.29 71.93M397.29 71.93L402.71 71.93M402.71 71.93L409.53 71.93M409.53 71.93L416.35 71.93M416.35 71.93L416.65 71.93M416.65 71.93L416.96 71.93M416.96 71.93L417.11 71.93M417.11 71.93L417.26 71.93M417.26 71.93L417.41 71.93M417.41 71.93L417.56 71.93M417.56 71.93L417.71 71.93M417.71 71.93L417.71 71.93M417.71 71.93L417.87 71.93M417.87 71.93L417.87 71.93M417.87 71.93L418.17 71.93M418.17 71.93L418.17 71.93M418.17 71.93L418.25 71.93M418.25 71.93L418.25 71.93M418.25 71.93L418.33 71.93M418.33 71.93L418.33 71.93M418.33 71.93L418.66 71.86M418.66 71.86L418.66 71.86M418.66 71.86L419.17 71.59M419.17 71.59L419.17 71.59M419.17 71.59L419.55 71.17M419.55 71.17L419.55 71.17M419.55 71.17L419.74 70.72M419.74 70.72L419.74 70.72M419.74 70.72L419.79 70.47M419.79 70.47L419.79 70.47M419.79 70.47L419.79 70.39M419.79 70.39L419.79 70.39M419.79 70.39L419.8 70.31M419.8 70.31L419.8 70.31M419.8 70.31L419.8 70.23M419.8 70.23L419.8 70.19M419.8 70.19L419.8 70.14M419.8 70.14L419.8 70.14M419.8 70.14L419.8 69.17M419.8 69.17L419.8 68.19M419.8 68.19L419.8 67.95M419.8 67.95L419.8 67.95M419.8 67.95L419.8 67.83M419.8 67.83L419.8 67.7M419.8 67.7L419.8 67.46M419.8 67.46L419.8 67.46M419.8 67.46L419.8 67.34M419.8 67.34L419.8 67.22M419.8 67.22L419.8 66.97M419.8 66.97L419.8 66.97M419.8 66.97L419.8 66.85M419.8 66.85L419.8 66.73M419.8 66.73L419.8 66.24M419.8 66.24L419.8 44.54M419.8 44.54L419.8 42.71M419.8 42.71L419.8 40.88M419.8 40.88L419.8 40.8M419.8 40.8L419.8 40.72M419.8 40.72L419.8 40.68M419.8 40.68L419.8 40.64M419.8 40.64L419.8 40.6M419.8 40.6L419.8 40.56M419.8 40.56L419.8 40.56M419.8 40.56L419.8 40.48M419.8 40.48L419.8 40.48M419.8 40.48L419.79 40.39M419.79 40.39L419.79 40.39M419.79 40.39L419.79 40.31M419.79 40.31L419.79 40.31M419.79 40.31L419.7 39.91M419.7 39.91L419.7 39.91M419.7 39.91L419.4 39.42M419.4 39.42L419.4 39.42M419.4 39.42L418.96 39.05M418.96 39.05L418.96 39.05M418.96 39.05L418.42 38.87M418.42 38.87L418.42 38.87M418.42 38.87L418.33 38.86M418.33 38.86L418.33 38.86M418.33 38.86L418.25 38.85M418.25 38.85L418.25 38.85M418.25 38.85L418.17 38.85M418.17 38.85L418.17 38.85M418.17 38.85L417.87 38.85M417.87 38.85L417.87 38.85M417.87 38.85L417.71 38.85M417.71 38.85L417.56 38.85M417.56 38.85L417.41 38.85M417.41 38.85L417.26 38.85M417.26 38.85L416.54 38.85M416.54 38.85L415.82 38.85M415.82 38.85L415.1 38.85M415.1 38.85L414.38 38.85M414.38 38.85L412.94 38.85M412.94 38.85L411.5 38.85M411.5 38.85L409.3 38.85M409.3 38.85L407.11 38.85M407.11 38.85L404.91 38.85M404.91 38.85L402.71 38.85M402.71 38.85L397.29 38.85M397.29 38.85L390.47 38.85M390.47 38.85L383.65 38.85M383.65 38.85L383.35 38.85M383.35 38.85L383.04 38.85M383.04 38.85L382.89 38.85M382.89 38.85L382.89 38.85M382.89 38.85L382.74 38.85M382.74 38.85L382.59 38.85M382.59 38.85L382.44 38.85M382.44 38.85L382.44 38.85M382.44 38.85L382.13 38.85M382.13 38.85L382.13 38.85M382.13 38.85L381.83 38.85M381.83 38.85L381.83 38.85M381.83 38.85L381.75 38.85M381.75 38.85L381.75 38.85M381.75 38.85L381.67 38.86M381.67 38.86L381.67 38.86M381.67 38.86L381.34 38.92M381.34 38.92L381.34 38.92M381.34 38.92L380.83 39.19M380.83 39.19L380.83 39.19M380.83 39.19L380.45 39.62M380.45 39.62L380.45 39.62M380.45 39.62L380.26 40.07M380.26 40.07L380.26 40.07M380.26 40.07L380.21 40.31M380.21 40.31L380.21 40.31M380.21 40.31L380.21 40.39M380.21 40.39L380.21 40.39M380.21 40.39L380.2 40.48M380.2 40.48L380.2 40.48M380.2 40.48L380.2 40.56M380.2 40.56L380.2 40.6M380.2 40.6L380.2 40.64M380.2 40.64L380.2 40.64M380.2 40.64L380.2 41.62M380.2 41.62L380.2 42.59M380.2 42.59L380.2 42.84M380.2 42.84L380.2 42.84M380.2 42.84L380.2 42.96M380.2 42.96L380.2 43.08M380.2 43.08L380.2 43.32M380.2 43.32L380.2 43.32M380.2 43.32L380.2 43.45M380.2 43.45L380.2 43.57M380.2 43.57L380.2 43.81M380.2 43.81L380.2 43.81M380.2 43.81L380.2 43.93M380.2 43.93L380.2 44.06M380.2 44.06L380.2 44.54"
fill="none" stroke="black" stroke-width="0.5"/>
<path d="M431.73 66.24L431.73 73.3M431.73 73.3L431.73 80.36M431.73 80.36L431.73 80.67M431.73 80.67L431.73 80.98M431.73 80.98L431.73 81.14M431.73 81.14L431.73 81.3M431.73 81.3L431.73 81.45M431.73 81.45L431.73 81.45M431.73 81.45L431.73 81.61M431.73 81.61L431.73 81.77M431.73 81.77L431.73 81.77M431.73 81.77L431.73 81.93M431.73 81.93L431.73 81.93M431.73 81.93L431.73 82.24M431.73 82.24L431.73 82.24M431.73 82.24L431.73 82.32M431.73 82.32L431.73 82.32M431.73 82.32L431.72 82.4M431.72 82.4L431.72 82.4M431.72 82.4L431.65 82.73M431.65 82.73L431.65 82.73M431.65 82.73L431.39 83.24M431.39 83.24L431.39 83.24M431.39 83.24L430.96 83.62M430.96 83.62L430.96 83.62M430.96 83.62L430.51 83.81M430.51 83.81L430.51 83.81M430.51 83.81L430.35 83.85M430.35 83.85L430.35 83.85M430.35 83.85L430.27 83.86M430.27 83.86L430.27 83.86M430.27 83.86L430.18 83.86M430.18 83.86L430.18 83.86M430.18 83.86L430.1 83.87M430.1 83.87L430.1 83.87M430.1 83.87L429.56 83.87M429.56 83.87L429.56 83.87M429.56 83.87L429.03 83.87M429.03 83.87L428.89 83.87M428.89 83.87L428.76 83.87M428.76 83.87L428.49 83.87M428.49 83.87L428.22 83.87M428.22 83.87L427.95 83.87M427.95 83.87L424.8 83.87M424.8 83.87L421.64 83.87M421.64 83.87L418.49 83.87M418.49 83.87L415.33 83.87M415.33 83.87L409.02 83.87M409.02 83.87L405.87 83.87M405.87 83.87L402.71 83.87M402.71 83.87L397.29 83.87M397.29 83.87L385.47 83.87M385.47 83.87L373.66 83.87M373.66 83.87L372.85 83.87M372.85 83.87L372.05 83.87M372.05 83.87L371.78 83.87M371.78 83.87L371.51 83.87M371.51 83.87L371.51 83.87M371.51 83.87L370.97 83.87M370.97 83.87L370.84 83.87M370.84 83.87L370.7 83.87M370.7 83.87L370.7 83.87M370.7 83.87L370.44 83.87M370.44 83.87L370.44 83.87M370.44 83.87L369.9 83.87M369.9 83.87L369.9 83.87M369.9 83.87L369.82 83.86M369.82 83.86L369.82 83.86M369.82 83.86L369.73 83.86M369.73 83.86L369.73 83.86M369.73 83.86L369.41 83.79M369.41 83.79L369.41 83.79M369.41 83.79L368.9 83.53M368.9 83.53L368.9 83.53M368.9 83.53L368.52 83.1M368.52 83.1L368.52 83.1M368.52 83.1L368.32 82.65M368.32 82.65L368.32 82.65M368.32 82.65L368.29 82.49M368.29 82.49L368.29 82.49M368.29 82.49L368.28 82.4M368.28 82.4L368.28 82.4M368.28 82.4L368.27 82.32M368.27 82.32L368.27 82.32M368.27 82.32L368.27 82.24M368.27 82.24L368.27 82.24M368.27 82.24L368.27 81.93M368.27 81.93L368.27 81.93M368.27 81.93L368.27 81.77M368.27 81.77L368.27 81.61M368.27 81.61L368.27 81.61M368.27 81.61L368.27 81.45M368.27 81.45L368.27 81.3M368.27 81.3L368.27 80.36M368.27 80.36L368.27 79.42M368.27 79.42L368.27 77.53M368.27 77.53L368.27 77.53M368.27 77.53L368.27 77.42M368.27 77.42L368.27 77.3M368.27 77.3L368.27 77.06M368.27 77.06L368.27 76.59M368.27 76.59L368.27 75.65M368.27 75.65L368.27 74.71M368.27 74.71L368.27 74.47M368.27 74.47L368.27 74.47M368.27 74.47L368.27 74.24M368.27 74.24L368.27 73.77M368.27 73.77L368.27 72.83M368.27 72.83L368.27 72.59M368.27 72.59L368.27 72.59M368.27 72.59L368.27 72.36M368.27 72.36L368.27 71.89M368.27 71.89L368.27 70.95M368.27 70.95L368.27 70.71M368.27 70.71L368.27 70.71M368.27 70.71L368.27 70.47M368.27 70.47L368.27 70M368.27 70L368.27 68.12M368.27 68.12L368.27 68.12M368.27 68.12L368.27 68M368.27 68L368.27 67.89M368.27 67.89L368.27 67.65M368.27 67.65L368.27 67.18M368.27 67.18L368.27 66.24M368.27 66.24L368.27 44.54M368.27 44.54L368.27 37.49M368.27 37.49L368.27 30.43M368.27 30.43L368.27 30.11M368.27 30.11L368.27 29.8M368.27 29.8L368.27 29.64M368.27 29.64L368.27 29.49M368.27 29.49L368.27 29.33M368.27 29.33L368.27 29.17M368.27 29.17L368.27 29.17M368.27 29.17L368.27 28.86M368.27 28.86L368.27 28.86M368.27 28.86L368.27 28.54M368.27 28.54L368.27 28.54M368.27 28.54L368.27 28.46M368.27 28.46L368.27 28.46M368.27 28.46L368.28 28.38M368.28 28.38L368.28 28.38M368.28 28.38L368.35 28.06M368.35 28.06L368.35 28.06M368.35 28.06L368.61 27.55M368.61 27.55L368.61 27.55M368.61 27.55L369.04 27.16M369.04 27.16L369.04 27.16M369.04 27.16L369.49 26.97M369.49 26.97L369.49 26.97M369.49 26.97L369.65 26.94M369.65 26.94L369.65 26.94M369.65 26.94L369.73 26.93M369.73 26.93L369.73 26.93M369.73 26.93L369.82 26.92M369.82 26.92L369.82 26.92M369.82 26.92L369.9 26.92M369.9 26.92L369.9 26.92M369.9 26.92L370.44 26.92M370.44 26.92L370.44 26.92M370.44 26.92L370.97 26.92M370.97 26.92L371.24 26.92M371.24 26.92L371.51 26.92M371.51 26.92L371.64 26.92M371.64 26.92L371.78 26.92M371.78 26.92L372.05 26.92M372.05 26.92L375.2 26.92M375.2 26.92L378.36 26.92M378.36 26.92L381.51 26.92M381.51 26.92L384.67 26.92M384.67 26.92L390.98 26.92M390.98 26.92L397.29 26.92M397.29 26.92L402.71 26.92M402.71 26.92L414.53 26.92M414.53 26.92L426.34 26.92M426.34 26.92L427.15 26.92M427.15 26.92L427.55 26.92M427.55 26.92L427.95 26.92M427.95 26.92L428.22 26.92M428.22 26.92L428.49 26.92M428.49 26.92L428.76 26.92M428.76 26.92L428.89 26.92M428.89 26.92L429.03 26.92M429.03 26.92L429.03 26.92M429.03 26.92L429.56 26.92M429.56 26.92L429.56 26.92M429.56 26.92L430.1 26.92M430.1 26.92L430.1 26.92M430.1 26.92L430.18 26.92M430.18 26.92L430.18 26.92M430.18 26.92L430.27 26.93M430.27 26.93L430.27 26.93M430.27 26.93L430.59 26.99M430.59 26.99L430.59 26.99M430.59 26.99L431.1 27.26M431.1 27.26L431.1 27.26M431.1 27.26L431.48 27.68M431.48 27.68L431.48 27.68M431.48 27.68L431.68 28.14M431.68 28.14L431.68 28.14M431.68 28.14L431.71 28.3M431.71 28.3L431.71 28.3M431.71 28.3L431.72 28.38M431.72 28.38L431.72 28.38M431.72 28.38L431.73 28.46M431.73 28.46L431.73 28.46M431.73 28.46L431.73 28.54M431.73 28.54L431.73 28.54M431.73 28.54L431.73 28.86M431.73 28.86L431.73 28.86M431.73 28.86L431.73 29.02M431.73 29.02L431.73 29.17M431.73 29.17L431.73 29.33M431.73 29.33L431.73 29.49M431.73 29.49L431.73 29.62M431.73 29.62L431.73 29.62M431.73 29.62L431.73 29.76M431.73 29.76L431.73 30.04M431.73 30.04L431.73 30.58M431.73 30.58L431.73 31.68M431.73 31.68L431.73 33.88M431.73 33.88L431.73 34.21M431.73 34.21L431.73 34.29M431.73 34.29L431.73 34.29M431.73 34.29L431.73 34.38M431.73 34.38L431.73 34.54M431.73 34.54L431.73 35.21M431.73 35.21L431.73 35.54M431.73 35.54L431.73 35.63M431.73 35.63L431.73 35.63M431.73 35.63L431.73 35.71M431.73 35.71L431.73 35.88M431.73 35.88L431.73 36.54M431.73 36.54L431.73 37.88M431.73 37.88L431.73 38.21M431.73 38.21L431.73 38.29M431.73 38.29L431.73 38.29M431.73 38.29L431.73 38.38M431.73 38.38L431.73 38.54M431.73 38.54L431.73 39.21M431.73 39.21L431.73 41.88M431.73 41.88L431.73 41.88M431.73 41.88L431.73 42.04M431.73 42.04L431.73 42.21M431.73 42.21L431.73 42.54M431.73 42.54L431.73 43.21M431.73 43.21L431.73 44.54M431.73 44.54L431.73 66.24"
fill="none" stroke="black" stroke-width="0.5"/>
<path d="M438.24 66.24L438.24 44.54M438.24 44.54L438.24 20.41M438.24 20.41L402.71 20.41M402.71 20.41L397.29 20.41M397.29 20.41L361.76 20.41M361.76 20.41L361.76 44.54M361.76 44.54L361.76 66.24M361.76 66.24L361.76 90.37M361.76 90.37L397.29 90.37M397.29 90.37L402.71 90.37M402.71 90.37L438.24 90.37M438.24 90.37L438.24 66.24"
fill="none" stroke="black" stroke-width="0.5"/>
<path d="M402.71 169.02L414.53 169.02M414.53 169.02L426.34 169.02M426.34 169.02L427.15 169.02M427.15 169.02L427.95 169.02M427.95 169.02L428.22 169.02M428.22 169.02L428.49 169.02M428.49 169.02L428.76 169.02M428.76 169.02L428.89 169.02M428.89 169.02L429.03 169.02M429.03 169.02L429.03 169.02M429.03 169.02L429.56 169.02M429.56 169.02L429.56 169.02M429.56 169.02L430.1 169.02M430.1 169.02L430.1 169.02M430.1 169.02L430.18 169.02M430.18 169.02L430.18 169.02M430.18 169.02L430.27 169.03M430.27 169.03L430.27 169.03M430.27 169.03L430.59 169.09M430.59 169.09L430.59 169.09M430.59 169.09L431.1 169.36M431.1 169.36L431.1 169.36M431.1 169.36L431.48 169.78M431.48 169.78L431.48 169.78M431.48 169.78L431.68 170.24M431.68 170.24L431.68 170.24M431.68 170.24L431.71 170.4M431.71 170.4L431.71 170.4M431.71 170.4L431.72 170.48M431.72 170.48L431.72 170.48M431.72 170.48L431.73 170.56M431.73 170.56L431.73 170.56M431.73 170.56L431.73 170.65M431.73 170.65L431.73 170.65M431.73 170.65L431.74 173.38M431.74 173.38L431.74 173.38M431.74 173.38L431.73 176.11M431.73 176.11L431.73 176.11M431.73 176.11L431.73 181.57M431.73 181.57L431.73 181.91M431.73 181.91L431.73 182.25M431.73 182.25L431.73 182.93M431.73 182.93L431.73 182.93M431.73 182.93L431.73 183.02M431.73 183.02L431.73 183.1M431.73 183.1L431.73 183.27M431.73 183.27L431.73 183.61M431.73 183.61L431.73 183.96M431.73 183.96L431.73 184.13M431.73 184.13L431.73 184.13M431.73 184.13L431.73 184.3M431.73 184.3L431.73 185.66M431.73 185.66L431.73 185.83M431.73 185.83L431.73 185.83M431.73 185.83L431.73 186M431.73 186L431.73 186.35M431.73 186.35L431.73 186.52M431.73 186.52L431.73 186.52M431.73 186.52L431.73 186.69M431.73 186.69L431.73 187.03M431.73 187.03L431.73 187.37M431.73 187.37L431.73 187.45M431.73 187.45L431.73 187.45M431.73 187.45L431.73 187.54M431.73 187.54L431.73 187.71M431.73 187.71L431.73 188.39M431.73 188.39L431.73 189.76M431.73 189.76L431.73 190.44M431.73 190.44L431.73 190.61M431.73 190.61L431.73 190.61M431.73 190.61L431.73 190.78M431.73 190.78L431.73 191.12M431.73 191.12L431.73 192.49M431.73 192.49L431.73 195.22M431.73 195.22L431.73 197.95M431.73 197.95L431.73 202.05M431.73 202.05L431.73 206.14M431.73 206.14L431.73 210.24M431.73 210.24L431.73 212.28M431.73 212.28L431.73 213.31M431.73 213.31L431.73 213.82M431.73 213.82L431.73 214.08M431.73 214.08L431.73 214.2M431.73 214.2L431.73 214.2M431.73 214.2L431.73 214.33M431.73 214.33L431.73 242.53M431.73 242.53L431.73 270.73M431.73 270.73L431.73 270.73M431.73 270.73L431.73 270.84M431.73 270.84L431.73 270.95M431.73 270.95L431.73 271.17M431.73 271.17L431.73 271.61M431.73 271.61L431.73 272.49M431.73 272.49L431.73 274.25M431.73 274.25L431.73 277.77M431.73 277.77L431.73 284.82M431.73 284.82L431.73 298.92M431.73 298.92L431.73 305.97M431.73 305.97L431.73 307.73M431.73 307.73L431.73 308.17M431.73 308.17L431.73 308.28M431.73 308.28L431.73 308.28M431.73 308.28L431.73 308.39M431.73 308.39L431.73 308.61M431.73 308.61L431.73 309.5M431.73 309.5L431.73 313.02M431.73 313.02L431.73 327.12M431.73 327.12L431.73 341.22M431.73 341.22L431.73 344.74M431.73 344.74L431.73 345.62M431.73 345.62L431.73 345.84M431.73 345.84L431.73 345.84M431.73 345.84L431.73 345.95M431.73 345.95L431.73 346.06M431.73 346.06L431.73 346.5M431.73 346.5L431.73 348.27M431.73 348.27L431.73 355.31M431.73 355.31L431.73 369.41M431.73 369.41L431.73 372.94M431.73 372.94L431.73 373.82M431.73 373.82L431.73 374.04M431.73 374.04L431.73 374.04M431.73 374.04L431.73 374.15M431.73 374.15L431.73 374.26M431.73 374.26L431.73 374.7M431.73 374.7L431.73 376.46M431.73 376.46L431.73 383.51M431.73 383.51L431.73 343.37M431.73 343.37L431.73 346.9M431.73 346.9L431.73 347.78M431.73 347.78L431.73 348M431.73 348L431.73 348M431.73 348L431.73 348.11M431.73 348.11L431.73 348.22M431.73 348.22L431.73 348.66M431.73 348.66L431.73 350.42M431.73 350.42L431.73 357.47M431.73 357.47L431.73 385.67M431.73 385.67L431.73 391.13M431.73 391.13L431.73 396.59M431.73 396.59L431.73 399.32M431.73 399.32L431.73 402.05M431.73 402.05L431.73 404.78M431.73 404.78L431.73 407.51M431.73 407.51L431.73 408.88M431.73 408.88L431.73 409.22M431.73 409.22L431.73 409.22M431.73 409.22L431.73 409.39M431.73 409.39L431.73 409.56M431.73 409.56L431.73 410.24M431.73 410.24L431.73 411.61M431.73 411.61L431.73 412.29M431.73 412.29L431.73 412.46M431.73 412.46L431.73 412.46M431.73 412.46L431.73 412.55M431.73 412.55L431.73 412.63M431.73 412.63L431.73 412.97M431.73 412.97L431.73 413.31M431.73 413.31L431.73 413.31M431.73 413.31L431.73 413.48M431.73 413.48L431.73 413.65M431.73 413.65L431.73 414M431.73 414L431.73 414M431.73 414L431.73 414.17M431.73 414.17L431.73 414.34M431.73 414.34L431.73 415.7M431.73 415.7L431.73 415.7M431.73 415.7L431.73 415.87M431.73 415.87L431.73 416.04M431.73 416.04L431.73 416.39M431.73 416.39L431.73 416.73M431.73 416.73L431.73 416.9M431.73 416.9L431.73 416.98M431.73 416.98L431.73 416.98M431.73 416.98L431.73 417.07M431.73 417.07L431.73 417.75M431.73 417.75L431.73 418.09M431.73 418.09L431.73 418.43M431.73 418.43L431.73 418.43M431.73 418.43L431.73 423.89M431.73 423.89L431.73 423.89M431.73 423.89L431.74 426.62M431.74 426.62L431.74 426.62M431.74 426.62L431.73 429.35M431.73 429.35L431.73 429.35M431.73 429.35L431.73 429.44M431.73 429.44L431.73 429.44M431.73 429.44L431.72 429.52M431.72 429.52L431.72 429.52M431.72 429.52L431.68 429.76M431.68 429.76L431.68 429.76M431.68 429.76L431.44 430.28M431.44 430.28L431.44 430.28M431.44 430.28L431.1 430.64M431.1 430.64L431.1 430.64M431.1 430.64L430.67 430.88M430.67 430.88L430.67 430.88M430.67 430.88L430.35 430.96M430.35 430.96L430.35 430.96M430.35 430.96L430.27 430.97M430.27 430.97L430.27 430.97M430.27 430.97L430.18 430.98M430.18 430.98L430.18 430.98M430.18 430.98L430.1 430.98M430.1 430.98L430.1 430.98M430.1 430.98L429.56 430.98M429.56 430.98L429.56 430.98M429.56 430.98L429.3 430.98M429.3 430.98L429.23 430.98M429.23 430.98L429.23 430.98M429.23 430.98L429.16 430.98M429.16 430.98L429.03 430.98M429.03 430.98L429.03 430.98M429.03 430.98L428.76 430.98M428.76 430.98L428.49 430.98M428.49 430.98L428.22 430.98M428.22 430.98L427.95 430.98M427.95 430.98L427.56 430.98M427.56 430.98L427.46 430.98M427.46 430.98L427.46 430.98M427.46 430.98L427.36 430.98M427.36 430.98L427.16 430.98M427.16 430.98L426.38 430.98M426.38 430.98L425.98 430.98M425.98 430.98L425.88 430.98M425.88 430.98L425.88 430.98M425.88 430.98L425.78 430.98M425.78 430.98L425.59 430.98M425.59 430.98L424.8 430.98M424.8 430.98L423.22 430.98M423.22 430.98L422.43 430.98M422.43 430.98L422.43 430.98M422.43 430.98L421.64 430.98M421.64 430.98L421.64 430.98M421.64 430.98L421.54 430.98M421.54 430.98L421.45 430.98M421.45 430.98L421.25 430.98M421.25 430.98L420.85 430.98M420.85 430.98L420.07 430.98M420.07 430.98L418.49 430.98M418.49 430.98L417.7 430.98M417.7 430.98L417.5 430.98M417.5 430.98L417.5 430.98M417.5 430.98L417.3 430.98M417.3 430.98L416.91 430.98M416.91 430.98L415.33 430.98M415.33 430.98L412.18 430.98M412.18 430.98L411.39 430.98M411.39 430.98L411.19 430.98M411.19 430.98L411.19 430.98M411.19 430.98L411.09 430.98M411.09 430.98L411.09 430.98M411.09 430.98L410.99 430.98M410.99 430.98L410.6 430.98M410.6 430.98L409.02 430.98M409.02 430.98L407.44 430.98M407.44 430.98L407.05 430.98M407.05 430.98L407.05 430.98M407.05 430.98L406.85 430.98M406.85 430.98L406.66 430.98M406.66 430.98L405.87 430.98M405.87 430.98L402.71 430.98M402.71 430.98L397.29 430.98M397.29 430.98L385.47 430.98M385.47 430.98L373.66 430.98M373.66 430.98L373.46 430.98M373.46 430.98L373.46 430.98M373.46 430.98L373.36 430.98M373.36 430.98L373.26 430.98M373.26 430.98L372.85 430.98M372.85 430.98L372.45 430.98M372.45 430.98L372.45 430.98M372.45 430.98L372.25 430.98M372.25 430.98L372.05 430.98M372.05 430.98L371.78 430.98M371.78 430.98L371.51 430.98M371.51 430.98L371.24 430.98M371.24 430.98L371.24 430.98M371.24 430.98L370.97 430.98M370.97 430.98L370.84 430.98M370.84 430.98L370.84 430.98M370.84 430.98L370.77 430.98M370.77 430.98L370.7 430.98M370.7 430.98L370.7 430.98M370.7 430.98L370.44 430.98M370.44 430.98L370.44 430.98M370.44 430.98L369.9 430.98M369.9 430.98L369.9 430.98M369.9 430.98L369.82 430.98M369.82 430.98L369.82 430.98M369.82 430.98L369.73 430.97M369.73 430.97L369.73 430.97M369.73 430.97L369.41 430.91M369.41 430.91L369.41 430.91M369.41 430.91L368.9 430.64M368.9 430.64L368.9 430.64M368.9 430.64L368.52 430.22M368.52 430.22L368.52 430.22M368.52 430.22L368.32 429.76M368.32 429.76L368.32 429.76M368.32 429.76L368.29 429.6M368.29 429.6L368.29 429.6M368.29 429.6L368.28 429.52M368.28 429.52L368.28 429.52M368.28 429.52L368.27 429.44M368.27 429.44L368.27 429.44M368.27 429.44L368.27 429.35M368.27 429.35L368.27 429.35M368.27 429.35L368.26 426.62M368.26 426.62L368.26 426.62M368.26 426.62L368.27 423.89M368.27 423.89L368.27 423.89M368.27 423.89L368.27 418.43M368.27 418.43L368.27 418.09M368.27 418.09L368.27 417.75M368.27 417.75L368.27 417.07M368.27 417.07L368.27 417.07M368.27 417.07L368.27 416.98M368.27 416.98L368.27 416.9M368.27 416.9L368.27 416.73M368.27 416.73L368.27 416.39M368.27 416.39L368.27 416.04M368.27 416.04L368.27 415.87M368.27 415.87L368.27 415.87M368.27 415.87L368.27 415.7M368.27 415.7L368.27 414.34M368.27 414.34L368.27 414.17M368.27 414.17L368.27 414.17M368.27 414.17L368.27 414M368.27 414L368.27 413.65M368.27 413.65L368.27 413.48M368.27 413.48L368.27 413.48M368.27 413.48L368.27 413.31M368.27 413.31L368.27 412.97M368.27 412.97L368.27 412.63M368.27 412.63L368.27 412.55M368.27 412.55L368.27 412.55M368.27 412.55L368.27 412.46M368.27 412.46L368.27 412.29M368.27 412.29L368.27 411.61M368.27 411.61L368.27 410.24M368.27 410.24L368.27 409.56M368.27 409.56L368.27 409.39M368.27 409.39L368.27 409.39M368.27 409.39L368.27 409.22M368.27 409.22L368.27 408.88M368.27 408.88L368.27 407.51M368.27 407.51L368.27 404.78M368.27 404.78L368.27 402.05M368.27 402.05L368.27 397.95M368.27 397.95L368.27 393.86M368.27 393.86L368.27 389.76M368.27 389.76L368.27 387.72M368.27 387.72L368.27 386.69M368.27 386.69L368.27 386.18M368.27 386.18L368.27 385.92M368.27 385.92L368.27 385.8M368.27 385.8L368.27 385.8M368.27 385.8L368.27 385.67M368.27 385.67L368.27 357.47M368.27 357.47L368.27 383.51M368.27 383.51L368.27 383.51M368.27 383.51L368.27 383.4M368.27 383.4L368.27 383.29M368.27 383.29L368.27 383.07M368.27 383.07L368.27 382.63M368.27 382.63L368.27 381.75M368.27 381.75L368.27 379.99M368.27 379.99L368.27 376.46M368.27 376.46L368.27 369.41M368.27 369.41L368.27 355.31M368.27 355.31L368.27 348.27M368.27 348.27L368.27 346.5M368.27 346.5L368.27 346.06M368.27 346.06L368.27 345.95M368.27 345.95L368.27 345.95M368.27 345.95L368.27 345.84M368.27 345.84L368.27 345.62M368.27 345.62L368.27 344.74M368.27 344.74L368.27 341.22M368.27 341.22L368.27 327.12M368.27 327.12L368.27 313.02M368.27 313.02L368.27 309.5M368.27 309.5L368.27 308.61M368.27 308.61L368.27 308.39M368.27 308.39L368.27 308.39M368.27 308.39L368.27 308.28M368.27 308.28L368.27 308.17M368.27 308.17L368.27 307.73M368.27 307.73L368.27 305.97M368.27 305.97L368.27 298.92M368.27 298.92L368.27 284.82M368.27 284.82L368.27 281.3M368.27 281.3L368.27 280.42M368.27 280.42L368.27 280.2M368.27 280.2L368.27 280.2M368.27 280.2L368.27 280.09M368.27 280.09L368.27 279.98M368.27 279.98L368.27 279.54M368.27 279.54L368.27 277.77M368.27 277.77L368.27 270.73M368.27 270.73L368.27 214.33M368.27 214.33L368.27 208.87M368.27 208.87L368.27 203.41M368.27 203.41L368.27 200.68M368.27 200.68L368.27 197.95M368.27 197.95L368.27 197.95M368.27 197.95L368.27 197.86M368.27 197.86L368.27 197.78M368.27 197.78L368.27 197.61M368.27 197.61L368.27 197.27M368.27 197.27L368.27 196.58M368.27 196.58L368.27 195.22M368.27 195.22L368.27 193.85M368.27 193.85L368.27 193.17M368.27 193.17L368.27 192.83M368.27 192.83L368.27 192.66M368.27 192.66L368.27 192.57M368.27 192.57L368.27 192.57M368.27 192.57L368.27 192.49M368.27 192.49L368.27 192.49M368.27 192.49L368.27 192.4M368.27 192.4L368.27 192.32M368.27 192.32L368.27 192.15M368.27 192.15L368.27 191.81M368.27 191.81L368.27 191.12M368.27 191.12L368.27 189.76M368.27 189.76L368.27 188.39M368.27 188.39L368.27 187.71M368.27 187.71L368.27 187.37M368.27 187.37L368.27 187.2M368.27 187.2L368.27 187.11M368.27 187.11L368.27 187.11M368.27 187.11L368.27 187.03M368.27 187.03L368.27 185.66M368.27 185.66L368.27 185.32M368.27 185.32L368.27 185.32M368.27 185.32L368.27 185.15M368.27 185.15L368.27 184.98M368.27 184.98L368.27 184.3M368.27 184.3L368.27 183.96M368.27 183.96L368.27 183.96M368.27 183.96L368.27 183.79M368.27 183.79L368.27 183.61M368.27 183.61L368.27 183.27M368.27 183.27L368.27 183.1M368.27 183.1L368.27 183.02M368.27 183.02L368.27 183.02M368.27 183.02L368.27 182.93M368.27 182.93L368.27 182.93M368.27 182.93L368.27 182.25M368.27 182.25L368.27 182.25M368.27 182.25L368.27 181.57M368.27 181.57L368.27 181.57M368.27 181.57L368.27 176.11M368.27 176.11L368.27 176.11M368.27 176.11L368.27 174.74M368.27 174.74L368.27 174.74M368.27 174.74L368.26 173.38M368.26 173.38L368.26 173.38M368.26 173.38L368.27 170.65M368.27 170.65L368.27 170.65M368.27 170.65L368.27 170.56M368.27 170.56L368.27 170.56M368.27 170.56L368.28 170.48M368.28 170.48L368.28 170.48M368.28 170.48L368.32 170.24M368.32 170.24L368.32 170.24M368.32 170.24L368.56 169.72M368.56 169.72L368.56 169.72M368.56 169.72L368.9 169.36M368.9 169.36L368.9 169.36M368.9 169.36L369.33 169.12M369.33 169.12L369.33 169.12M369.33 169.12L369.65 169.04M369.65 169.04L369.65 169.04M369.65 169.04L369.73 169.03M369.73 169.03L369.73 169.03M369.73 169.03L369.82 169.02M369.82 169.02L369.82 169.02M369.82 169.02L369.9 169.02M369.9 169.02L369.9 169.02M369.9 169.02L370.44 169.02M370.44 169.02L370.44 169.02M370.44 169.02L370.97 169.02M370.97 169.02L371.11 169.02M371.11 169.02L371.24 169.02M371.24 169.02L371.51 169.02M371.51 169.02L371.78 169.02M371.78 169.02L372.05 169.02M372.05 169.02L375.2 169.02M375.2 169.02L378.36 169.02M378.36 169.02L381.51 169.02M381.51 169.02L384.67 169.02M384.67 169.02L390.98 169.02M390.98 169.02L397.29 169.02M397.29 169.02L402.71 169.02"
fill="none" stroke="black" stroke-width="0.5"/>
<path d="M402.71 162.51L397.29 162.51M397.29 162.51L361.76 162.51M361.76 162.51L361.76 437.49M361.76 437.49L397.29 437.49M397.29 437.49L402.71 437.49M402.71 437.49L438.24 437.49M438.24 437.49L438.24 162.51M438.24 162.51L402.71 162.51"
fill="none" stroke="black" stroke-width="0.5"/>
<path d="M402.71 145.42L397.29 145.42M397.29 145.42L375.88 145.42M375.88 145.42L354.47 145.42M354.47 145.42L353.5 145.42M353.5 145.42L352.53 145.42M352.53 145.42L352.04 145.43M352.04 145.43L351.8 145.43M351.8 145.43L351.55 145.42M351.55 145.42L351.07 145.42M351.07 145.42L350.58 145.42M350.58 145.42L350.09 145.43M350.09 145.43L349.85 145.43M349.85 145.43L349.61 145.43M349.61 145.43L349.61 145.43M349.61 145.43L349.36 145.42M349.36 145.42L349.12 145.42M349.12 145.42L349.12 145.42M349.12 145.42L348.63 145.42M348.63 145.42L348.63 145.42M348.63 145.42L347.66 145.43M347.66 145.43L347.66 145.43M347.66 145.43L347.59 145.42M347.59 145.42L347.59 145.42M347.59 145.42L347.53 145.42M347.53 145.42L347.53 145.42M347.53 145.42L347.33 145.37M347.33 145.37L347.33 145.37M347.33 145.37L346.97 145.18M346.97 145.18L346.97 145.18M346.97 145.18L346.71 144.86M346.71 144.86L346.71 144.86M346.71 144.86L346.6 144.54M346.6 144.54L346.6 144.54M346.6 144.54L346.59 144.48M346.59 144.48L346.59 144.48M346.59 144.48L346.58 144.41M346.58 144.41L346.58 144.41M346.58 144.41L346.58 144.37M346.58 144.37L346.58 144.34M346.58 144.34L346.58 144.34M346.58 144.34L346.58 143.64M346.58 143.64L346.58 143.64M346.58 143.64L346.58 142.94M346.58 142.94L346.58 142.94M346.58 142.94L346.58 142.59M346.58 142.59L346.58 142.23M346.58 142.23L346.58 142.23M346.58 142.23L346.58 141.88M346.58 141.88L346.58 141.53M346.58 141.53L346.58 141.53M346.58 141.53L346.58 139.87M346.58 139.87L346.58 139.87M346.58 139.87L346.58 138.2M346.58 138.2L346.58 138.2M346.58 138.2L346.58 138.09M346.58 138.09L346.58 137.99M346.58 137.99L346.58 137.78M346.58 137.78L346.58 137.37M346.58 137.37L346.58 136.53M346.58 136.53L346.58 134.86M346.58 134.86L346.58 131.53M346.58 131.53L346.58 129.86M346.58 129.86L346.58 129.03M346.58 129.03L346.58 128.61M346.58 128.61L346.58 128.41M346.58 128.41L346.58 128.41M346.58 128.41L346.58 128.2M346.58 128.2L346.58 121.53M346.58 121.53L346.58 118.2M346.58 118.2L346.58 118.2M346.58 118.2L346.58 118.09M346.58 118.09L346.58 117.99M346.58 117.99L346.58 117.78M346.58 117.78L346.58 117.36M346.58 117.36L346.58 116.53M346.58 116.53L346.58 114.86M346.58 114.86L346.58 114.16M346.58 114.16L346.58 113.81M346.58 113.81L346.58 113.63M346.58 113.63L346.58 113.55M346.58 113.55L346.58 113.55M346.58 113.55L346.58 113.46M346.58 113.46L346.58 113.46M346.58 113.46L346.58 113.37M346.58 113.37L346.58 113.28M346.58 113.28L346.58 113.11M346.58 113.11L346.58 112.76M346.58 112.76L346.58 112.05M346.58 112.05L346.58 111.7M346.58 111.7L346.58 111.35M346.58 111.35L346.58 111M346.58 111L346.58 110.65M346.58 110.65L346.58 110.3M346.58 110.3L346.58 110.3M346.58 110.3L346.58 109.95M346.58 109.95L346.58 109.95M346.58 109.95L346.58 109.25M346.58 109.25L346.58 109.25M346.58 109.25L346.58 108.54M346.58 108.54L346.58 108.54M346.58 108.54L346.58 108.48M346.58 108.48L346.58 108.48M346.58 108.48L346.59 108.41M346.59 108.41L346.59 108.41M346.59 108.41L346.65 108.14M346.65 108.14L346.65 108.14M346.65 108.14L346.87 107.8M346.87 107.8L346.87 107.8M346.87 107.8L347.2 107.56M347.2 107.56L347.2 107.56M347.2 107.56L347.46 107.48M347.46 107.48L347.46 107.48M347.46 107.48L347.53 107.47M347.53 107.47L347.53 107.47M347.53 107.47L347.59 107.46M347.59 107.46L347.59 107.46M347.59 107.46L347.66 107.46M347.66 107.46L347.66 107.46M347.66 107.46L348.63 107.46M348.63 107.46L348.63 107.46M348.63 107.46L349.61 107.46M349.61 107.46L350.09 107.46M350.09 107.46L350.58 107.46M350.58 107.46L350.58 107.46M350.58 107.46L351.55 107.46M351.55 107.46L353.99 107.46M353.99 107.46L355.2 107.46M355.2 107.46L356.42 107.46M356.42 107.46L361.53 107.46M361.53 107.46L366.64 107.46M366.64 107.46L371.74 107.46M371.74 107.46L376.85 107.46M376.85 107.46L387.07 107.46M387.07 107.46L392.18 107.46M392.18 107.46L397.29 107.46M397.29 107.46L402.71 107.46M402.71 107.46L424.12 107.46M424.12 107.46L445.53 107.46M445.53 107.46L446.5 107.46M446.5 107.46L447.47 107.46M447.47 107.46L447.96 107.46M447.96 107.46L448.45 107.46M448.45 107.46L448.93 107.46M448.93 107.46L449.18 107.46M449.18 107.46L449.42 107.46M449.42 107.46L449.42 107.46M449.42 107.46L450.39 107.46M450.39 107.46L450.39 107.46M450.39 107.46L451.37 107.46M451.37 107.46L451.37 107.46M451.37 107.46L452.34 107.46M452.34 107.46L452.34 107.46M452.34 107.46L452.41 107.46M452.41 107.46L452.41 107.46M452.41 107.46L452.47 107.47M452.47 107.47L452.47 107.47M452.47 107.47L452.67 107.51M452.67 107.51L452.67 107.51M452.67 107.51L453.03 107.71M453.03 107.71L453.03 107.71M453.03 107.71L453.29 108.02M453.29 108.02L453.29 108.02M453.29 108.02L453.4 108.34M453.4 108.34L453.4 108.34M453.4 108.34L453.41 108.41M453.41 108.41L453.41 108.41M453.41 108.41L453.42 108.48M453.42 108.48L453.42 108.48M453.42 108.48L453.42 108.54M453.42 108.54L453.42 108.54M453.42 108.54L453.42 109.25M453.42 109.25L453.42 109.25M453.42 109.25L453.42 109.95M453.42 109.95L453.42 109.95M453.42 109.95L453.42 110.3M453.42 110.3L453.42 110.65M453.42 110.65L453.42 111M453.42 111L453.42 111.35M453.42 111.35L453.42 113.02M453.42 113.02L453.42 114.69M453.42 114.69L453.42 118.02M453.42 118.02L453.42 118.02M453.42 118.02L453.42 118.12M453.42 118.12L453.42 118.23M453.42 118.23L453.42 118.44M453.42 118.44L453.42 118.85M453.42 118.85L453.42 119.69M453.42 119.69L453.42 121.35M453.42 121.35L453.42 122.19M453.42 122.19L453.42 122.4M453.42 122.4L453.42 122.4M453.42 122.4L453.42 122.6M453.42 122.6L453.42 123.02M453.42 123.02L453.42 124.69M453.42 124.69L453.42 126.35M453.42 126.35L453.42 126.77M453.42 126.77L453.42 126.77M453.42 126.77L453.42 126.98M453.42 126.98L453.42 127.19M453.42 127.19L453.42 128.02M453.42 128.02L453.42 129.69M453.42 129.69L453.42 130.11M453.42 130.11L453.42 130.11M453.42 130.11L453.42 130.31M453.42 130.31L453.42 130.52M453.42 130.52L453.42 131.36M453.42 131.36L453.42 133.02M453.42 133.02L453.42 133.44M453.42 133.44L453.42 133.44M453.42 133.44L453.42 133.65M453.42 133.65L453.42 133.86M453.42 133.86L453.42 134.69M453.42 134.69L453.42 138.02M453.42 138.02L453.42 139.43M453.42 139.43L453.42 140.83M453.42 140.83L453.42 141.18M453.42 141.18L453.42 141.53M453.42 141.53L453.42 141.88M453.42 141.88L453.42 142.23M453.42 142.23L453.42 142.59M453.42 142.59L453.42 142.59M453.42 142.59L453.42 142.94M453.42 142.94L453.42 142.94M453.42 142.94L453.42 143.64M453.42 143.64L453.42 143.64M453.42 143.64L453.42 144.34M453.42 144.34L453.42 144.34M453.42 144.34L453.42 144.41M453.42 144.41L453.42 144.41M453.42 144.41L453.41 144.48M453.41 144.48L453.41 144.48M453.41 144.48L453.37 144.68M453.37 144.68L453.37 144.68M453.37 144.68L453.17 145.03M453.17 145.03L453.17 145.03M453.17 145.03L452.86 145.29M452.86 145.29L452.86 145.29M452.86 145.29L452.54 145.41M452.54 145.41L452.54 145.41M452.54 145.41L452.47 145.42M452.47 145.42L452.47 145.42M452.47 145.42L452.41 145.42M452.41 145.42L452.41 145.42M452.41 145.42L452.34 145.43M452.34 145.43L452.34 145.43M452.34 145.43L451.37 145.43M451.37 145.43L451.37 145.43M451.37 145.43L450.39 145.42M450.39 145.42L450.39 145.42M450.39 145.42L449.42 145.42M449.42 145.42L448.93 145.42M448.93 145.42L448.45 145.42M448.45 145.42L447.23 145.43M447.23 145.43L446.01 145.43M446.01 145.43L444.8 145.43M444.8 145.43L443.58 145.42M443.58 145.42L438.47 145.42M438.47 145.42L433.36 145.42M433.36 145.42L428.25 145.42M428.25 145.42L423.15 145.42M423.15 145.42L412.93 145.42M412.93 145.42L407.82 145.42M407.82 145.42L402.71 145.42"
fill="none" stroke="black" stroke-width="0.5"/>
<path d="M453.42 44.54L453.42 66.24M453.42 66.24L453.42 105.56M453.42 105.56L402.71 105.56M402.71 105.56L397.29 105.56M397.29 105.56L346.58 105.56M346.58 105.56L346.58 66.24M346.58 66.24L346.58 44.54M346.58 44.54L346.58 5.22M346.58 5.22L397.29 5.22M397.29 5.22L402.71 5.22M402.71 5.22L453.42 5.22M453.42 5.22L453.42 44.54"
fill="none" stroke="black" stroke-width="0.5"/>
<path d="M402.71 454.57L424.12 454.57M424.12 454.57L445.53 454.57M445.53 454.57L446.5 454.57M446.5 454.57L447.47 454.57M447.47 454.57L447.96 454.57M447.96 454.57L448.45 454.57M448.45 454.57L448.93 454.57M448.93 454.57L449.42 454.57M449.42 454.57L449.42 454.57M449.42 454.57L450.39 454.57M450.39 454.57L450.39 454.57M450.39 454.57L451.37 454.57M451.37 454.57L451.37 454.57M451.37 454.57L452.34 454.57M452.34 454.57L452.34 454.57M452.34 454.57L452.41 454.58M452.41 454.58L452.41 454.58M452.41 454.58L452.47 454.58M452.47 454.58L452.47 454.58M452.47 454.58L452.67 454.63M452.67 454.63L452.67 454.63M452.67 454.63L453.03 454.82M453.03 454.82L453.03 454.82M453.03 454.82L453.29 455.14M453.29 455.14L453.29 455.14M453.29 455.14L453.4 455.46M453.4 455.46L453.4 455.46M453.4 455.46L453.41 455.52M453.41 455.52L453.41 455.52M453.41 455.52L453.42 455.59M453.42 455.59L453.42 455.59M453.42 455.59L453.42 455.66M453.42 455.66L453.42 455.66M453.42 455.66L453.42 456.36M453.42 456.36L453.42 456.36M453.42 456.36L453.42 457.06M453.42 457.06L453.42 457.06M453.42 457.06L453.42 457.41M453.42 457.41L453.42 457.77M453.42 457.77L453.42 458.12M453.42 458.12L453.42 458.47M453.42 458.47L453.42 460.13M453.42 460.13L453.42 461.8M453.42 461.8L453.42 465.13M453.42 465.13L453.42 465.13M453.42 465.13L453.42 465.24M453.42 465.24L453.42 465.34M453.42 465.34L453.42 465.55M453.42 465.55L453.42 465.97M453.42 465.97L453.42 466.8M453.42 466.8L453.42 468.47M453.42 468.47L453.42 469.3M453.42 469.3L453.42 469.51M453.42 469.51L453.42 469.51M453.42 469.51L453.42 469.72M453.42 469.72L453.42 470.14M453.42 470.14L453.42 471.8M453.42 471.8L453.42 473.47M453.42 473.47L453.42 473.89M453.42 473.89L453.42 473.89M453.42 473.89L453.42 474.09M453.42 474.09L453.42 474.3M453.42 474.3L453.42 475.14M453.42 475.14L453.42 476.8M453.42 476.8L453.42 477.22M453.42 477.22L453.42 477.22M453.42 477.22L453.42 477.43M453.42 477.43L453.42 477.64M453.42 477.64L453.42 478.47M453.42 478.47L453.42 480.14M453.42 480.14L453.42 480.55M453.42 480.55L453.42 480.55M453.42 480.55L453.42 480.76M453.42 480.76L453.42 480.97M453.42 480.97L453.42 481.8M453.42 481.8L453.42 485.14M453.42 485.14L453.42 486.54M453.42 486.54L453.42 487.95M453.42 487.95L453.42 488.3M453.42 488.3L453.42 488.65M453.42 488.65L453.42 489M453.42 489L453.42 489.35M453.42 489.35L453.42 489.7M453.42 489.7L453.42 489.7M453.42 489.7L453.42 490.05M453.42 490.05L453.42 490.05M453.42 490.05L453.42 490.75M453.42 490.75L453.42 490.75M453.42 490.75L453.42 491.46M453.42 491.46L453.42 491.46M453.42 491.46L453.42 491.52M453.42 491.52L453.42 491.52M453.42 491.52L453.41 491.59M453.41 491.59L453.41 491.59M453.41 491.59L453.37 491.79M453.37 491.79L453.37 491.79M453.37 491.79L453.17 492.15M453.17 492.15L453.17 492.15M453.17 492.15L452.86 492.41M452.86 492.41L452.86 492.41M452.86 492.41L452.54 492.52M452.54 492.52L452.54 492.52M452.54 492.52L452.47 492.53M452.47 492.53L452.47 492.53M452.47 492.53L452.41 492.54M452.41 492.54L452.41 492.54M452.41 492.54L452.37 492.54M452.37 492.54L452.34 492.54M452.34 492.54L452.34 492.54M452.34 492.54L451.37 492.54M451.37 492.54L451.37 492.54M451.37 492.54L450.39 492.54M450.39 492.54L450.39 492.54M450.39 492.54L449.91 492.54M449.91 492.54L449.42 492.54M449.42 492.54L449.42 492.54M449.42 492.54L448.93 492.54M448.93 492.54L448.45 492.54M448.45 492.54L447.23 492.54M447.23 492.54L446.01 492.54M446.01 492.54L444.8 492.54M444.8 492.54L444.49 492.54M444.49 492.54L444.49 492.54M444.49 492.54L444.19 492.54M444.19 492.54L443.58 492.54M443.58 492.54L442.94 492.54M442.94 492.54L442.78 492.54M442.78 492.54L442.78 492.54M442.78 492.54L442.62 492.54M442.62 492.54L442.3 492.54M442.3 492.54L441.03 492.54M441.03 492.54L441.03 492.54M441.03 492.54L438.47 492.54M438.47 492.54L438.47 492.54M438.47 492.54L433.36 492.54M433.36 492.54L433.36 492.54M433.36 492.54L433.2 492.54M433.2 492.54L433.04 492.54M433.04 492.54L432.72 492.54M432.72 492.54L432.09 492.54M432.09 492.54L430.81 492.54M430.81 492.54L428.25 492.54M428.25 492.54L426.98 492.54M426.98 492.54L426.66 492.54M426.66 492.54L426.66 492.54M426.66 492.54L426.34 492.54M426.34 492.54L425.7 492.54M425.7 492.54L423.15 492.54M423.15 492.54L420.59 492.54M420.59 492.54L419.95 492.54M419.95 492.54L419.95 492.54M419.95 492.54L419.63 492.54M419.63 492.54L419.31 492.54M419.31 492.54L418.04 492.54M418.04 492.54L415.48 492.54M415.48 492.54L414.84 492.54M414.84 492.54L414.84 492.54M414.84 492.54L414.52 492.54M414.52 492.54L414.2 492.54M414.2 492.54L412.93 492.54M412.93 492.54L410.37 492.54M410.37 492.54L409.73 492.54M409.73 492.54L409.73 492.54M409.73 492.54L409.42 492.54M409.42 492.54L409.1 492.54M409.1 492.54L407.82 492.54M407.82 492.54L402.71 492.54M402.71 492.54L397.29 492.54M397.29 492.54L375.88 492.54M375.88 492.54L365.18 492.54M365.18 492.54L354.47 492.54M354.47 492.54L353.5 492.54M353.5 492.54L352.53 492.54M352.53 492.54L352.04 492.54M352.04 492.54L351.55 492.54M351.55 492.54L351.55 492.54M351.55 492.54L350.58 492.54M350.58 492.54L350.09 492.54M350.09 492.54L350.09 492.54M350.09 492.54L349.61 492.54M349.61 492.54L349.61 492.54M349.61 492.54L348.63 492.54M348.63 492.54L348.63 492.54M348.63 492.54L347.66 492.54M347.66 492.54L347.63 492.54M347.63 492.54L347.63 492.54M347.63 492.54L347.59 492.54M347.59 492.54L347.59 492.54M347.59 492.54L347.53 492.53M347.53 492.53L347.53 492.53M347.53 492.53L347.33 492.49M347.33 492.49L347.33 492.49M347.33 492.49L346.97 492.29M346.97 492.29L346.97 492.29M346.97 492.29L346.71 491.98M346.71 491.98L346.71 491.98M346.71 491.98L346.6 491.66M346.6 491.66L346.6 491.66M346.6 491.66L346.59 491.59M346.59 491.59L346.59 491.59M346.59 491.59L346.58 491.52M346.58 491.52L346.58 491.52M346.58 491.52L346.58 491.46M346.58 491.46L346.58 491.46M346.58 491.46L346.58 490.75M346.58 490.75L346.58 490.75M346.58 490.75L346.58 490.05M346.58 490.05L346.58 490.05M346.58 490.05L346.58 489.96M346.58 489.96L346.58 489.96M346.58 489.96L346.58 489.88M346.58 489.88L346.58 489.7M346.58 489.7L346.58 489.61M346.58 489.61L346.58 489.61M346.58 489.61L346.58 489.53M346.58 489.53L346.58 489.35M346.58 489.35L346.58 489M346.58 489L346.58 488.65M346.58 488.65L346.58 488.28M346.58 488.28L346.58 488.18M346.58 488.18L346.58 488.18M346.58 488.18L346.58 488.09M346.58 488.09L346.58 487.9M346.58 487.9L346.58 487.16M346.58 487.16L346.58 486.78M346.58 486.78L346.58 486.69M346.58 486.69L346.58 486.69M346.58 486.69L346.58 486.6M346.58 486.6L346.58 486.41M346.58 486.41L346.58 485.67M346.58 485.67L346.58 484.17M346.58 484.17L346.58 483.43M346.58 483.43L346.58 483.06M346.58 483.06L346.58 482.87M346.58 482.87L346.58 482.87M346.58 482.87L346.58 482.68M346.58 482.68L346.58 479.7M346.58 479.7L346.58 478.95M346.58 478.95L346.58 478.77M346.58 478.77L346.58 478.77M346.58 478.77L346.58 478.58M346.58 478.58L346.58 478.21M346.58 478.21L346.58 476.72M346.58 476.72L346.58 475.66M346.58 475.66L346.58 475.4M346.58 475.4L346.58 475.4M346.58 475.4L346.58 475.14M346.58 475.14L346.58 474.61M346.58 474.61L346.58 472.5M346.58 472.5L346.58 470.4M346.58 470.4L346.58 469.35M346.58 469.35L346.58 468.82M346.58 468.82L346.58 468.56M346.58 468.56L346.58 468.43M346.58 468.43L346.58 468.43M346.58 468.43L346.58 468.29M346.58 468.29L346.58 464.08M346.58 464.08L346.58 464.08M346.58 464.08L346.58 463.82M346.58 463.82L346.58 463.56M346.58 463.56L346.58 463.03M346.58 463.03L346.58 461.98M346.58 461.98L346.58 459.87M346.58 459.87L346.58 459.17M346.58 459.17L346.58 458.47M346.58 458.47L346.58 458.12M346.58 458.12L346.58 457.77M346.58 457.77L346.58 457.41M346.58 457.41L346.58 457.41M346.58 457.41L346.58 457.06M346.58 457.06L346.58 457.06M346.58 457.06L346.58 456.36M346.58 456.36L346.58 456.36M346.58 456.36L346.58 455.66M346.58 455.66L346.58 455.63M346.58 455.63L346.58 455.63M346.58 455.63L346.58 455.59M346.58 455.59L346.58 455.59M346.58 455.59L346.59 455.52M346.59 455.52L346.59 455.52M346.59 455.52L346.63 455.32M346.63 455.32L346.63 455.32M346.63 455.32L346.83 454.97M346.83 454.97L346.83 454.97M346.83 454.97L347.14 454.71M347.14 454.71L347.14 454.71M347.14 454.71L347.46 454.59M347.46 454.59L347.46 454.59M347.46 454.59L347.53 454.58M347.53 454.58L347.53 454.58M347.53 454.58L347.59 454.58M347.59 454.58L347.59 454.58M347.59 454.58L347.66 454.57M347.66 454.57L347.66 454.57M347.66 454.57L348.63 454.57M348.63 454.57L348.63 454.57M348.63 454.57L349.61 454.57M349.61 454.57L349.61 454.57M349.61 454.57L350.58 454.57M350.58 454.57L351.07 454.57M351.07 454.57L351.55 454.57M351.55 454.57L351.92 454.57M351.92 454.57L352.01 454.57M352.01 454.57L352.01 454.57M352.01 454.57L352.1 454.57M352.1 454.57L352.28 454.57M352.28 454.57L353.01 454.57M353.01 454.57L354.47 454.57M354.47 454.57L355.2 454.57M355.2 454.57L355.39 454.57M355.39 454.57L355.39 454.57M355.39 454.57L355.48 454.57M355.48 454.57L355.57 454.57M355.57 454.57L355.93 454.57M355.93 454.57L357.39 454.57M357.39 454.57L359.89 454.58M359.89 454.58L362.38 454.58M362.38 454.58L362.38 454.58M362.38 454.58L362.53 454.58M362.53 454.58L362.69 454.58M362.69 454.58L363 454.58M363 454.58L363.63 454.58M363.63 454.58L364.87 454.58M364.87 454.58L367.37 454.58M367.37 454.58L377.34 454.58M377.34 454.58L379.83 454.58M379.83 454.58L380.46 454.58M380.46 454.58L380.46 454.58M380.46 454.58L380.77 454.58M380.77 454.58L381.08 454.58M381.08 454.58L382.33 454.58M382.33 454.58L384.82 454.58M384.82 454.58L385.44 454.58M385.44 454.58L385.44 454.58M385.44 454.58L385.76 454.58M385.76 454.58L386.07 454.58M386.07 454.58L387.31 454.58M387.31 454.58L389.81 454.58M389.81 454.58L390.43 454.58M390.43 454.58L390.43 454.58M390.43 454.58L390.74 454.57M390.74 454.57L391.05 454.57M391.05 454.57L392.3 454.57M392.3 454.57L397.29 454.57M397.29 454.57L402.71 454.57"
fill="none" stroke="black" stroke-width="0.5"/>
<path d="M402.71 594.78L397.29 594.78M397.29 594.78L346.58 594.78M346.58 594.78L346.58 555.46M346.58 555.46L346.58 533.76M346.58 533.76L346.58 494.44M346.58 494.44L397.29 494.44M397.29 494.44L402.71 494.44M402.71 494.44L453.42 494.44M453.42 494.44L453.42 533.76M453.42 533.76L453.42 555.46M453.42 555.46L453.42 594.78M453.42 594.78L402.71 594.78"
fill="none" stroke="black" stroke-width="0.5"/>
<path d="M455.32 44.54L455.32 27.47M455.32 27.47L455.32 10.39M455.32 10.39L455.32 9.61M455.32 9.61L455.32 8.83M455.32 8.83L455.32 8.45M455.32 8.45L455.32 8.06M455.32 8.06L455.32 7.67M455.32 7.67L455.32 7.28M455.32 7.28L455.32 6.89M455.32 6.89L455.32 6.89M455.32 6.89L455.32 6.5M455.32 6.5L455.32 6.5M455.32 6.5L455.32 5.73M455.32 5.73L455.32 5.73M455.32 5.73L455.32 4.95M455.32 4.95L455.32 4.95M455.32 4.95L455.32 4.87M455.32 4.87L455.32 4.87M455.32 4.87L455.31 4.79M455.31 4.79L455.31 4.79M455.31 4.79L455.25 4.46M455.25 4.46L455.25 4.46M455.25 4.46L454.98 3.96M454.98 3.96L454.98 3.96M454.98 3.96L454.56 3.57M454.56 3.57L454.56 3.57M454.56 3.57L454.1 3.38M454.1 3.38L454.1 3.38M454.1 3.38L453.94 3.34M453.94 3.34L453.94 3.34M453.94 3.34L453.86 3.33M453.86 3.33L453.86 3.33M453.86 3.33L453.78 3.33M453.78 3.33L453.78 3.33M453.78 3.33L453.69 3.32M453.69 3.32L453.69 3.32M453.69 3.32L452.69 3.32M452.69 3.32L452.69 3.32M452.69 3.32L452.19 3.33M452.19 3.33L451.94 3.33M451.94 3.33L451.69 3.32M451.69 3.32L451.45 3.32M451.45 3.32L451.2 3.32M451.2 3.32L450.7 3.32M450.7 3.32L450.2 3.32M450.2 3.32L449.7 3.32M449.7 3.32L447.95 3.32M447.95 3.32L446.2 3.32M446.2 3.32L444.45 3.32M444.45 3.32L442.7 3.32M442.7 3.32L435.7 3.33M435.7 3.33L431.58 3.33M431.58 3.33L427.45 3.33M427.45 3.33L423.33 3.33M423.33 3.33L419.2 3.33M419.2 3.33L410.96 3.32M410.96 3.32L402.71 3.32M402.71 3.32L397.29 3.32M397.29 3.32L375.3 3.32M375.3 3.32L353.3 3.32M353.3 3.32L352.3 3.32M352.3 3.32L351.3 3.32M351.3 3.32L350.8 3.32M350.8 3.32L350.3 3.32M350.3 3.32L349.8 3.32M349.8 3.32L349.3 3.32M349.3 3.32L349.05 3.32M349.05 3.32L348.8 3.32M348.8 3.32L348.55 3.32M348.55 3.32L348.3 3.32M348.3 3.32L348.05 3.33M348.05 3.33L347.8 3.33M347.8 3.33L347.8 3.33M347.8 3.33L347.31 3.32M347.31 3.32L347.31 3.32M347.31 3.32L346.31 3.32M346.31 3.32L346.31 3.32M346.31 3.32L346.22 3.33M346.22 3.33L346.22 3.33M346.22 3.33L346.14 3.33M346.14 3.33L346.14 3.33M346.14 3.33L345.82 3.4M345.82 3.4L345.82 3.4M345.82 3.4L345.31 3.67M345.31 3.67L345.31 3.67M345.31 3.67L344.92 4.09M344.92 4.09L344.92 4.09M344.92 4.09L344.73 4.54M344.73 4.54L344.73 4.54M344.73 4.54L344.7 4.71M344.7 4.71L344.7 4.71M344.7 4.71L344.69 4.79M344.69 4.79L344.69 4.79M344.69 4.79L344.68 4.87M344.68 4.87L344.68 4.87M344.68 4.87L344.68 4.95M344.68 4.95L344.68 4.95M344.68 4.95L344.68 5.73M344.68 5.73L344.68 5.73M344.68 5.73L344.68 6.5M344.68 6.5L344.68 6.5M344.68 6.5L344.68 6.89M344.68 6.89L344.68 7.28M344.68 7.28L344.68 7.67M344.68 7.67L344.68 8.06M344.68 8.06L344.68 10.34M344.68 10.34L344.68 12.62M344.68 12.62L344.68 17.18M344.68 17.18L344.68 17.18M344.68 17.18L344.68 17.32M344.68 17.32L344.68 17.46M344.68 17.46L344.68 17.75M344.68 17.75L344.68 18.32M344.68 18.32L344.68 19.46M344.68 19.46L344.68 21.74M344.68 21.74L344.68 22.88M344.68 22.88L344.68 23.17M344.68 23.17L344.68 23.17M344.68 23.17L344.68 23.45M344.68 23.45L344.68 24.02M344.68 24.02L344.68 26.3M344.68 26.3L344.68 28.58M344.68 28.58L344.68 29.15M344.68 29.15L344.68 29.15M344.68 29.15L344.68 29.44M344.68 29.44L344.68 29.72M344.68 29.72L344.68 30.86M344.68 30.86L344.68 33.14M344.68 33.14L344.68 33.71M344.68 33.71L344.68 33.71M344.68 33.71L344.68 34M344.68 34L344.68 34.28M344.68 34.28L344.68 35.42M344.68 35.42L344.68 37.7M344.68 37.7L344.68 38.27M344.68 38.27L344.68 38.27M344.68 38.27L344.68 38.56M344.68 38.56L344.68 38.84M344.68 38.84L344.68 39.98M344.68 39.98L344.68 44.54M344.68 44.54L344.68 66.24M344.68 66.24L344.68 533.76M344.68 533.76L344.68 555.46M344.68 555.46L344.68 572.53M344.68 572.53L344.68 589.61M344.68 589.61L344.68 590.39M344.68 590.39L344.68 591.17M344.68 591.17L344.68 591.55M344.68 591.55L344.68 591.94M344.68 591.94L344.68 592.33M344.68 592.33L344.68 592.72M344.68 592.72L344.68 593.11M344.68 593.11L344.68 593.11M344.68 593.11L344.68 593.5M344.68 593.5L344.68 593.5M344.68 593.5L344.68 594.27M344.68 594.27L344.68 594.27M344.68 594.27L344.68 595.05M344.68 595.05L344.68 595.05M344.68 595.05L344.68 595.13M344.68 595.13L344.68 595.13M344.68 595.13L344.69 595.21M344.69 595.21L344.69 595.21M344.69 595.21L344.75 595.54M344.75 595.54L344.75 595.54M344.75 595.54L345.02 596.04M345.02 596.04L345.02 596.04M345.02 596.04L345.44 596.43M345.44 596.43L345.44 596.43M345.44 596.43L345.9 596.62M345.9 596.62L345.9 596.62M345.9 596.62L346.06 596.66M346.06 596.66L346.06 596.66M346.06 596.66L346.14 596.67M346.14 596.67L346.14 596.67M346.14 596.67L346.22 596.67M346.22 596.67L346.22 596.67M346.22 596.67L346.31 596.68M346.31 596.68L346.31 596.68M346.31 596.68L347.31 596.68M347.31 596.68L347.31 596.68M347.31 596.68L347.8 596.67M347.8 596.67L348.05 596.67M348.05 596.67L348.05 596.67M348.05 596.67L348.18 596.68M348.18 596.68L348.3 596.68M348.3 596.68L348.55 596.68M348.55 596.68L348.8 596.68M348.8 596.68L349.3 596.68M349.3 596.68L349.55 596.68M349.55 596.68L349.8 596.68M349.8 596.68L350.3 596.68M350.3 596.68L350.74 596.68M350.74 596.68L350.85 596.68M350.85 596.68L350.85 596.68M350.85 596.68L350.96 596.68M350.96 596.68L351.18 596.68M351.18 596.68L352.05 596.68M352.05 596.68L353.8 596.68M353.8 596.68L357.3 596.68M357.3 596.68L364.3 596.67M364.3 596.67L365.33 596.67M365.33 596.67L365.59 596.67M365.59 596.67L365.59 596.67M365.59 596.67L365.85 596.67M365.85 596.67L366.36 596.67M366.36 596.67L368.42 596.67M368.42 596.67L372.55 596.67M372.55 596.67L376.67 596.67M376.67 596.67L377.7 596.67M377.7 596.67L377.96 596.67M377.96 596.67L377.96 596.67M377.96 596.67L378.22 596.67M378.22 596.67L378.73 596.67M378.73 596.67L380.79 596.67M380.79 596.67L389.04 596.68M389.04 596.68L389.04 596.68M389.04 596.68L389.3 596.68M389.3 596.68L389.56 596.68M389.56 596.68L390.07 596.68M390.07 596.68L391.1 596.68M391.1 596.68L393.16 596.68M393.16 596.68L397.29 596.68M397.29 596.68L402.71 596.68M402.71 596.68L424.7 596.68M424.7 596.68L435.7 596.68M435.7 596.68L446.7 596.68M446.7 596.68L447.7 596.68M447.7 596.68L448.7 596.68M448.7 596.68L449.2 596.68M449.2 596.68L449.7 596.68M449.7 596.68L450.2 596.68M450.2 596.68L450.45 596.68M450.45 596.68L450.7 596.68M450.7 596.68L451.2 596.68M451.2 596.68L451.45 596.68M451.45 596.68L451.7 596.68M451.7 596.68L451.7 596.68M451.7 596.68L452.69 596.68M452.69 596.68L452.69 596.68M452.69 596.68L453.69 596.68M453.69 596.68L453.69 596.68M453.69 596.68L453.78 596.67M453.78 596.67L453.78 596.67M453.78 596.67L453.86 596.67M453.86 596.67L453.86 596.67M453.86 596.67L454.18 596.6M454.18 596.6L454.18 596.6M454.18 596.6L454.69 596.33M454.69 596.33L454.69 596.33M454.69 596.33L455.08 595.91M455.08 595.91L455.08 595.91M455.08 595.91L455.27 595.46M455.27 595.46L455.27 595.46M455.27 595.46L455.3 595.29M455.3 595.29L455.3 595.29M455.3 595.29L455.31 595.21M455.31 595.21L455.31 595.21M455.31 595.21L455.32 595.13M455.32 595.13L455.32 595.13M455.32 595.13L455.32 595.05M455.32 595.05L455.32 595.05M455.32 595.05L455.32 594.27M455.32 594.27L455.32 594.27M455.32 594.27L455.32 593.5M455.32 593.5L455.32 593.5M455.32 593.5L455.32 593.11M455.32 593.11L455.32 592.72M455.32 592.72L455.32 592.33M455.32 592.33L455.32 591.94M455.32 591.94L455.32 589.66M455.32 589.66L455.32 587.38M455.32 587.38L455.32 582.82M455.32 582.82L455.32 582.82M455.32 582.82L455.32 582.68M455.32 582.68L455.32 582.54M455.32 582.54L455.32 582.25M455.32 582.25L455.32 581.68M455.32 581.68L455.32 580.54M455.32 580.54L455.32 578.26M455.32 578.26L455.32 577.12M455.32 577.12L455.32 576.83M455.32 576.83L455.32 576.83M455.32 576.83L455.32 576.55M455.32 576.55L455.32 575.98M455.32 575.98L455.32 573.7M455.32 573.7L455.32 571.42M455.32 571.42L455.32 570.85M455.32 570.85L455.32 570.85M455.32 570.85L455.32 570.56M455.32 570.56L455.32 570.28M455.32 570.28L455.32 569.14M455.32 569.14L455.32 566.86M455.32 566.86L455.32 566.29M455.32 566.29L455.32 566.29M455.32 566.29L455.32 566M455.32 566L455.32 565.72M455.32 565.72L455.32 564.58M455.32 564.58L455.32 562.3M455.32 562.3L455.32 561.73M455.32 561.73L455.32 561.73M455.32 561.73L455.32 561.44M455.32 561.44L455.32 561.16M455.32 561.16L455.32 560.02M455.32 560.02L455.32 555.46M455.32 555.46L455.32 533.76M455.32 533.76L455.32 66.24M455.32 66.24L455.32 44.54"
fill="none" stroke="black" stroke-width="0.5"/>
<path d="M453.42 147.32L453.42 452.68M453.42 452.68L402.71 452.68M402.71 452.68L397.29 452.68M397.29 452.68L346.58 452.68M346.58 452.68L346.58 147.32M346.58 147.32L397.29 147.32M397.29 147.32L402.71 147.32M402.71 147.32L453.42 147.32"
fill="none" stroke="black" stroke-width="0.5"/>
<path d="M368.27 555.46L368.27 533.76M368.27 533.76L368.27 526.7M368.27 526.7L368.27 519.64M368.27 519.64L368.27 519.33M368.27 519.33L368.27 519.02M368.27 519.02L368.27 518.86M368.27 518.86L368.27 518.7M368.27 518.7L368.27 518.54M368.27 518.54L368.27 518.39M368.27 518.39L368.27 518.39M368.27 518.39L368.27 518.07M368.27 518.07L368.27 518.07M368.27 518.07L368.27 517.76M368.27 517.76L368.27 517.76M368.27 517.76L368.27 517.68M368.27 517.68L368.27 517.68M368.27 517.68L368.28 517.6M368.28 517.6L368.28 517.6M368.28 517.6L368.35 517.27M368.35 517.27L368.35 517.27M368.35 517.27L368.61 516.76M368.61 516.76L368.61 516.76M368.61 516.76L369.04 516.38M369.04 516.38L369.04 516.38M369.04 516.38L369.49 516.19M369.49 516.19L369.49 516.19M369.49 516.19L369.65 516.15M369.65 516.15L369.65 516.15M369.65 516.15L369.73 516.14M369.73 516.14L369.73 516.14M369.73 516.14L369.82 516.14M369.82 516.14L369.82 516.14M369.82 516.14L369.9 516.13M369.9 516.13L369.9 516.13M369.9 516.13L370.44 516.13M370.44 516.13L370.44 516.13M370.44 516.13L370.7 516.13M370.7 516.13L370.77 516.13M370.77 516.13L370.77 516.13M370.77 516.13L370.84 516.13M370.84 516.13L370.97 516.13M370.97 516.13L370.97 516.13M370.97 516.13L371.24 516.13M371.24 516.13L371.51 516.13M371.51 516.13L371.78 516.13M371.78 516.13L372.05 516.13M372.05 516.13L372.05 516.13M372.05 516.13L372.84 516.13M372.84 516.13L372.84 516.13M372.84 516.13L373.62 516.13M373.62 516.13L373.62 516.13M373.62 516.13L375.2 516.13M375.2 516.13L375.2 516.13M375.2 516.13L378.36 516.13M378.36 516.13L378.36 516.13M378.36 516.13L378.46 516.13M378.46 516.13L378.55 516.13M378.55 516.13L378.75 516.13M378.75 516.13L379.15 516.13M379.15 516.13L379.93 516.13M379.93 516.13L381.51 516.13M381.51 516.13L382.3 516.13M382.3 516.13L382.5 516.13M382.5 516.13L382.5 516.13M382.5 516.13L382.7 516.13M382.7 516.13L383.09 516.13M383.09 516.13L384.67 516.13M384.67 516.13L387.82 516.13M387.82 516.13L388.61 516.13M388.61 516.13L388.81 516.13M388.81 516.13L388.81 516.13M388.81 516.13L388.91 516.13M388.91 516.13L388.91 516.13M388.91 516.13L389.01 516.13M389.01 516.13L389.4 516.13M389.4 516.13L390.98 516.13M390.98 516.13L392.56 516.13M392.56 516.13L392.95 516.13M392.95 516.13L392.95 516.13M392.95 516.13L393.15 516.13M393.15 516.13L393.34 516.13M393.34 516.13L394.13 516.13M394.13 516.13L397.29 516.13M397.29 516.13L402.71 516.13M402.71 516.13L414.53 516.13M414.53 516.13L426.34 516.13M426.34 516.13L427.15 516.13M427.15 516.13L427.55 516.13M427.55 516.13L427.95 516.13M427.95 516.13L428.22 516.13M428.22 516.13L428.49 516.13M428.49 516.13L428.76 516.13M428.76 516.13L428.76 516.13M428.76 516.13L429.03 516.13M429.03 516.13L429.16 516.13M429.16 516.13L429.16 516.13M429.16 516.13L429.23 516.13M429.23 516.13L429.3 516.13M429.3 516.13L429.3 516.13M429.3 516.13L429.56 516.13M429.56 516.13L429.56 516.13M429.56 516.13L430.1 516.13M430.1 516.13L430.1 516.13M430.1 516.13L430.18 516.14M430.18 516.14L430.18 516.14M430.18 516.14L430.27 516.14M430.27 516.14L430.27 516.14M430.27 516.14L430.59 516.21M430.59 516.21L430.59 516.21M430.59 516.21L431.1 516.47M431.1 516.47L431.1 516.47M431.1 516.47L431.48 516.9M431.48 516.9L431.48 516.9M431.48 516.9L431.68 517.35M431.68 517.35L431.68 517.35M431.68 517.35L431.71 517.51M431.71 517.51L431.71 517.51M431.71 517.51L431.72 517.6M431.72 517.6L431.72 517.6M431.72 517.6L431.73 517.68M431.73 517.68L431.73 517.68M431.73 517.68L431.73 517.76M431.73 517.76L431.73 517.76M431.73 517.76L431.73 518.07M431.73 518.07L431.73 518.07M431.73 518.07L431.73 518.39M431.73 518.39L431.73 518.54M431.73 518.54L431.73 518.7M431.73 518.7L431.73 518.83M431.73 518.83L431.73 518.83M431.73 518.83L431.73 518.96M431.73 518.96L431.73 519.21M431.73 519.21L431.73 519.72M431.73 519.72L431.73 520.74M431.73 520.74L431.73 522.78M431.73 522.78L431.73 523.12M431.73 523.12L431.73 523.21M431.73 523.21L431.73 523.21M431.73 523.21L431.73 523.29M431.73 523.29L431.73 523.47M431.73 523.47L431.73 524.15M431.73 524.15L431.73 524.5M431.73 524.5L431.73 524.58M431.73 524.58L431.73 524.58M431.73 524.58L431.73 524.67M431.73 524.67L431.73 524.84M431.73 524.84L431.73 525.53M431.73 525.53L431.73 526.9M431.73 526.9L431.73 527.24M431.73 527.24L431.73 527.33M431.73 527.33L431.73 527.33M431.73 527.33L431.73 527.41M431.73 527.41L431.73 527.58M431.73 527.58L431.73 528.27M431.73 528.27L431.73 531.02M431.73 531.02L431.73 531.02M431.73 531.02L431.73 531.19M431.73 531.19L431.73 531.36M431.73 531.36L431.73 531.7M431.73 531.7L431.73 532.39M431.73 532.39L431.73 533.76M431.73 533.76L431.73 555.46M431.73 555.46L431.73 562.51M431.73 562.51L431.73 569.57M431.73 569.57L431.73 569.89M431.73 569.89L431.73 570.2M431.73 570.2L431.73 570.36M431.73 570.36L431.73 570.51M431.73 570.51L431.73 570.67M431.73 570.67L431.73 570.83M431.73 570.83L431.73 570.83M431.73 570.83L431.73 571.14M431.73 571.14L431.73 571.14M431.73 571.14L431.73 571.46M431.73 571.46L431.73 571.46M431.73 571.46L431.73 571.54M431.73 571.54L431.73 571.54M431.73 571.54L431.72 571.62M431.72 571.62L431.72 571.62M431.72 571.62L431.65 571.94M431.65 571.94L431.65 571.94M431.65 571.94L431.39 572.45M431.39 572.45L431.39 572.45M431.39 572.45L430.96 572.84M430.96 572.84L430.96 572.84M430.96 572.84L430.51 573.03M430.51 573.03L430.51 573.03M430.51 573.03L430.35 573.06M430.35 573.06L430.35 573.06M430.35 573.06L430.27 573.07M430.27 573.07L430.27 573.07M430.27 573.07L430.18 573.08M430.18 573.08L430.18 573.08M430.18 573.08L430.1 573.08M430.1 573.08L430.1 573.08M430.1 573.08L429.56 573.08M429.56 573.08L429.56 573.08M429.56 573.08L429.03 573.08M429.03 573.08L428.76 573.08M428.76 573.08L428.49 573.08M428.49 573.08L428.22 573.08M428.22 573.08L427.95 573.08M427.95 573.08L424.8 573.08M424.8 573.08L424.8 573.08M424.8 573.08L424.7 573.08M424.7 573.08L424.6 573.08M424.6 573.08L424.4 573.08M424.4 573.08L424.01 573.08M424.01 573.08L423.22 573.08M423.22 573.08L421.64 573.08M421.64 573.08L415.33 573.08M415.33 573.08L409.02 573.08M409.02 573.08L409.02 573.08M409.02 573.08L408.82 573.08M408.82 573.08L408.63 573.08M408.63 573.08L408.23 573.08M408.23 573.08L407.44 573.08M407.44 573.08L405.87 573.08M405.87 573.08L402.71 573.08M402.71 573.08L397.29 573.08M397.29 573.08L385.47 573.08M385.47 573.08L373.66 573.08M373.66 573.08L372.85 573.08M372.85 573.08L372.05 573.08M372.05 573.08L371.78 573.08M371.78 573.08L371.51 573.08M371.51 573.08L371.24 573.08M371.24 573.08L371.24 573.08M371.24 573.08L370.97 573.08M370.97 573.08L370.97 573.08M370.97 573.08L370.44 573.08M370.44 573.08L370.44 573.08M370.44 573.08L369.9 573.08M369.9 573.08L369.9 573.08M369.9 573.08L369.82 573.08M369.82 573.08L369.82 573.08M369.82 573.08L369.73 573.07M369.73 573.07L369.73 573.07M369.73 573.07L369.41 573.01M369.41 573.01L369.41 573.01M369.41 573.01L368.9 572.74M368.9 572.74L368.9 572.74M368.9 572.74L368.52 572.32M368.52 572.32L368.52 572.32M368.52 572.32L368.32 571.86M368.32 571.86L368.32 571.86M368.32 571.86L368.29 571.7M368.29 571.7L368.29 571.7M368.29 571.7L368.28 571.62M368.28 571.62L368.28 571.62M368.28 571.62L368.27 571.54M368.27 571.54L368.27 571.54M368.27 571.54L368.27 571.46M368.27 571.46L368.27 571.46M368.27 571.46L368.27 571.14M368.27 571.14L368.27 571.14M368.27 571.14L368.27 570.83M368.27 570.83L368.27 570.83M368.27 570.83L368.27 570.51M368.27 570.51L368.27 570.26M368.27 570.26L368.27 570.26M368.27 570.26L368.27 570M368.27 570L368.27 569.49M368.27 569.49L368.27 568.98M368.27 568.98L368.27 568.73M368.27 568.73L368.27 568.73M368.27 568.73L368.27 568.47M368.27 568.47L368.27 567.46M368.27 567.46L368.27 566.44M368.27 566.44L368.27 566.09M368.27 566.09L368.27 566.01M368.27 566.01L368.27 566.01M368.27 566.01L368.27 565.92M368.27 565.92L368.27 565.75M368.27 565.75L368.27 565.06M368.27 565.06L368.27 563.69M368.27 563.69L368.27 560.95M368.27 560.95L368.27 558.2M368.27 558.2L368.27 558.2M368.27 558.2L368.27 558.03M368.27 558.03L368.27 557.86M368.27 557.86L368.27 557.51M368.27 557.51L368.27 556.83M368.27 556.83L368.27 555.46"
fill="none" stroke="black" stroke-width="0.5"/>
<path d="M361.76 555.46L361.76 579.59M361.76 579.59L397.29 579.59M397.29 579.59L402.71 579.59M402.71 579.59L438.24 579.59M438.24 579.59L438.24 555.46M438.24 555.46L438.24 533.76M438.24 533.76L438.24 509.63M438.24 509.63L402.71 509.63M402.71 509.63L397.29 509.63M397.29 509.63L361.76 509.63M361.76 509.63L361.76 533.76M361.76 533.76L361.76 555.46"
fill="none" stroke="black" stroke-width="0.5"/>
<path d="M453.69 1.7L346.31 1.7M346.31 1.7L346.31 1.7M346.31 1.7L345.3 1.86M345.3 1.86L344.39 2.32M344.39 2.32L343.67 3.04M343.67 3.04L343.21 3.95M343.21 3.95L343.05 4.95M343.05 4.95L343.05 595.05M343.05 595.05L343.05 595.05M343.05 595.05L343.21 596.05M343.21 596.05L343.67 596.96M343.67 596.96L344.39 597.68M344.39 597.68L345.3 598.14M345.3 598.14L346.31 598.3M346.31 598.3L453.69 598.3M453.69 598.3L453.69 598.3M453.69 598.3L454.7 598.14M454.7 598.14L455.61 597.68M455.61 597.68L456.33 596.96M456.33 596.96L456.79 596.05M456.79 596.05L456.95 595.05M456.95 595.05L456.95 4.95M456.95 4.95L456.95 4.95M456.95 4.95L456.79 3.95M456.79 3.95L456.33 3.04M456.33 3.04L455.61 2.32M455.61 2.32L454.7 1.86M454.7 1.86L453.69 1.7"
fill="none" stroke="black" stroke-width="0.5"/>
</svg>
