<?xml version="1.0" encoding="UTF-8"?>
<svg xmlns="http://www.w3.org/2000/svg" width="800.000" height="600.000" viewBox="0.0 0.0 800.000 600.000" version="1.1">
  <title>Produce by Acme CAD Converter</title>
  <desc>Produce by Acme CAD Converter</desc>
<path d="M354.51 559.03L354.51 560.7M354.51 560.7L354.51 562.38M354.51 562.38L354.51 562.46M354.51 562.46L354.51 562.53M354.51 562.53L354.51 562.57M354.51 562.57L354.51 562.61M354.51 562.61L354.51 562.64M354.51 562.64L354.51 562.68M354.51 562.68L354.51 562.68M354.51 562.68L354.51 562.76M354.51 562.76L354.51 562.76M354.51 562.76L354.51 562.83M354.51 562.83L354.51 562.83M354.51 562.83L354.52 562.91M354.52 562.91L354.52 562.91M354.52 562.91L354.6 563.27M354.6 563.27L354.6 563.27M354.6 563.27L354.87 563.73M354.87 563.73L354.87 563.73M354.87 563.73L355.28 564.06M355.28 564.06L355.28 564.06M355.28 564.06L355.77 564.23M355.77 564.23L355.77 564.23M355.77 564.23L355.85 564.24M355.85 564.24L355.85 564.24M355.85 564.24L355.92 564.24M355.92 564.24L355.92 564.24M355.92 564.24L356 564.25M356 564.25L356 564.25M356 564.25L356.28 564.25M356.28 564.25L356.28 564.25M356.28 564.25L356.56 564.25M356.56 564.25L356.7 564.25M356.7 564.25L356.83 564.25M356.83 564.25L357 564.25M357 564.25L357 564.25M357 564.25L357.16 564.25M357.16 564.25L357.49 564.25M357.49 564.25L357.66 564.25M357.66 564.25L357.66 564.25M357.66 564.25L357.82 564.25M357.82 564.25L358.15 564.25M358.15 564.25L358.81 564.25M358.81 564.25L359.14 564.25M359.14 564.25L359.31 564.25M359.31 564.25L359.31 564.25M359.31 564.25L359.47 564.25M359.47 564.25L360.79 564.25M360.79 564.25L361.12 564.25M361.12 564.25L361.21 564.25M361.21 564.25L361.21 564.25M361.21 564.25L361.29 564.25M361.29 564.25L361.45 564.25M361.45 564.25L362.11 564.25M362.11 564.25L362.62 564.25M362.62 564.25L362.74 564.25M362.74 564.25L362.74 564.25M362.74 564.25L362.87 564.25M362.87 564.25L363.12 564.25M363.12 564.25L364.13 564.25M364.13 564.25L365.14 564.25M365.14 564.25L365.64 564.25M365.64 564.25L365.89 564.25M365.89 564.25L366.02 564.25M366.02 564.25L366.02 564.25M366.02 564.25L366.14 564.25M366.14 564.25L368.16 564.25M368.16 564.25L368.16 564.25M368.16 564.25L368.41 564.25M368.41 564.25L368.66 564.25M368.66 564.25L369.16 564.25M369.16 564.25L370.17 564.25M370.17 564.25L429.83 564.25M429.83 564.25L436.08 564.25M436.08 564.25L442.33 564.25M442.33 564.25L442.61 564.25M442.61 564.25L442.89 564.25M442.89 564.25L443.03 564.25M443.03 564.25L443.17 564.25M443.17 564.25L443.3 564.25M443.3 564.25L443.44 564.25M443.44 564.25L443.58 564.25M443.58 564.25L443.58 564.25M443.58 564.25L443.72 564.25M443.72 564.25L443.72 564.25M443.72 564.25L444 564.25M444 564.25L444 564.25M444 564.25L444.08 564.24M444.08 564.24L444.08 564.24M444.08 564.24L444.15 564.24M444.15 564.24L444.15 564.24M444.15 564.24L444.45 564.18M444.45 564.18L444.45 564.18M444.45 564.18L444.91 563.93M444.91 563.93L444.91 563.93M444.91 563.93L445.27 563.54M445.27 563.54L445.27 563.54M445.27 563.54L445.44 563.13M445.44 563.13L445.44 563.13M445.44 563.13L445.48 562.91M445.48 562.91L445.48 562.91M445.48 562.91L445.49 562.83M445.49 562.83L445.49 562.83M445.49 562.83L445.49 562.76M445.49 562.76L445.49 562.76M445.49 562.76L445.49 562.68M445.49 562.68L445.49 562.64M445.49 562.64L445.49 562.61M445.49 562.61L445.49 562.61M445.49 562.61L445.49 561.71M445.49 561.71L445.49 560.82M445.49 560.82L445.49 560.59M445.49 560.59L445.49 560.59M445.49 560.59L445.49 560.48M445.49 560.48L445.49 560.37M445.49 560.37L445.49 560.14M445.49 560.14L445.49 560.14M445.49 560.14L445.49 560.03M445.49 560.03L445.49 559.92M445.49 559.92L445.49 559.7M445.49 559.7L445.49 559.7M445.49 559.7L445.49 559.59M445.49 559.59L445.49 559.47M445.49 559.47L445.49 559.03M445.49 559.03L445.49 539.14M445.49 539.14L445.49 537.46M445.49 537.46L445.49 535.78M445.49 535.78L445.49 535.71M445.49 535.71L445.49 535.63M445.49 535.63L445.49 535.6M445.49 535.6L445.49 535.56M445.49 535.56L445.49 535.52M445.49 535.52L445.49 535.48M445.49 535.48L445.49 535.48M445.49 535.48L445.49 535.41M445.49 535.41L445.49 535.41M445.49 535.41L445.49 535.33M445.49 535.33L445.49 535.33M445.49 535.33L445.48 535.26M445.48 535.26L445.48 535.26M445.48 535.26L445.4 534.89M445.4 534.89L445.4 534.89M445.4 534.89L445.13 534.44M445.13 534.44L445.13 534.44M445.13 534.44L444.72 534.11M444.72 534.11L444.72 534.11M444.72 534.11L444.23 533.94M444.23 533.94L444.23 533.94M444.23 533.94L444.15 533.93M444.15 533.93L444.15 533.93M444.15 533.93L444.08 533.92M444.08 533.92L444.08 533.92M444.08 533.92L444 533.92M444 533.92L444 533.92M444 533.92L443.72 533.92M443.72 533.92L443.72 533.92M443.72 533.92L443.58 533.92M443.58 533.92L443.44 533.92M443.44 533.92L443.3 533.92M443.3 533.92L443.17 533.92M443.17 533.92L443 533.92M443 533.92L443 533.92M443 533.92L442.84 533.92M442.84 533.92L442.51 533.92M442.51 533.92L442.34 533.92M442.34 533.92L442.34 533.92M442.34 533.92L442.18 533.92M442.18 533.92L441.85 533.92M441.85 533.92L441.19 533.92M441.19 533.92L441.02 533.92M441.02 533.92L441.02 533.92M441.02 533.92L440.86 533.92M440.86 533.92L440.53 533.92M440.53 533.92L439.87 533.92M439.87 533.92L439.7 533.92M439.7 533.92L439.7 533.92M439.7 533.92L439.54 533.92M439.54 533.92L439.21 533.92M439.21 533.92L439.04 533.92M439.04 533.92L439.04 533.92M439.04 533.92L438.88 533.92M438.88 533.92L438.55 533.92M438.55 533.92L438.38 533.92M438.38 533.92L438.38 533.92M438.38 533.92L438.22 533.92M438.22 533.92L437.89 533.92M437.89 533.92L437.38 533.92M437.38 533.92L437.26 533.92M437.26 533.92L437.26 533.92M437.26 533.92L437.13 533.92M437.13 533.92L436.88 533.92M436.88 533.92L435.87 533.92M435.87 533.92L435.37 533.92M435.37 533.92L435.24 533.92M435.24 533.92L435.24 533.92M435.24 533.92L435.12 533.92M435.12 533.92L434.86 533.92M434.86 533.92L433.86 533.92M433.86 533.92L431.84 533.92M431.84 533.92L431.84 533.92M431.84 533.92L431.59 533.92M431.59 533.92L431.34 533.92M431.34 533.92L430.84 533.92M430.84 533.92L429.83 533.92M429.83 533.92L370.17 533.92M370.17 533.92L363.92 533.92M363.92 533.92L357.67 533.92M357.67 533.92L357.39 533.92M357.39 533.92L357.11 533.92M357.11 533.92L356.97 533.92M356.97 533.92L356.83 533.92M356.83 533.92L356.7 533.92M356.7 533.92L356.7 533.92M356.7 533.92L356.56 533.92M356.56 533.92L356.42 533.92M356.42 533.92L356.42 533.92M356.42 533.92L356.28 533.92M356.28 533.92L356.28 533.92M356.28 533.92L356 533.92M356 533.92L356 533.92M356 533.92L355.92 533.92M355.92 533.92L355.92 533.92M355.92 533.92L355.85 533.93M355.85 533.93L355.85 533.93M355.85 533.93L355.55 533.99M355.55 533.99L355.55 533.99M355.55 533.99L355.09 534.23M355.09 534.23L355.09 534.23M355.09 534.23L354.73 534.62M354.73 534.62L354.73 534.62M354.73 534.62L354.56 535.04M354.56 535.04L354.56 535.04M354.56 535.04L354.52 535.26M354.52 535.26L354.52 535.26M354.52 535.26L354.51 535.33M354.51 535.33L354.51 535.33M354.51 535.33L354.51 535.41M354.51 535.41L354.51 535.41M354.51 535.41L354.51 535.48M354.51 535.48L354.51 535.52M354.51 535.52L354.51 535.56M354.51 535.56L354.51 535.56M354.51 535.56L354.51 536.45M354.51 536.45L354.51 537.35M354.51 537.35L354.51 537.57M354.51 537.57L354.51 537.57M354.51 537.57L354.51 537.68M354.51 537.68L354.51 537.8M354.51 537.8L354.51 538.02M354.51 538.02L354.51 538.02M354.51 538.02L354.51 538.13M354.51 538.13L354.51 538.24M354.51 538.24L354.51 538.47M354.51 538.47L354.51 538.47M354.51 538.47L354.51 538.58M354.51 538.58L354.51 538.69M354.51 538.69L354.51 539.14M354.51 539.14L354.51 559.03"
fill="none" stroke="black" stroke-width="0.5"/>
<path d="M370.17 468.04L351.19 468.04M351.19 468.04L332.21 468.04M332.21 468.04L331.35 468.04M331.35 468.04L330.48 468.04M330.48 468.04L330.05 468.04M330.05 468.04L329.62 468.04M329.62 468.04L329.19 468.04M329.19 468.04L328.76 468.04M328.76 468.04L328.76 468.04M328.76 468.04L327.9 468.04M327.9 468.04L327.9 468.04M327.9 468.04L327.03 468.04M327.03 468.04L327.03 468.04M327.03 468.04L326.17 468.04M326.17 468.04L326.17 468.04M326.17 468.04L326.11 468.05M326.11 468.05L326.11 468.05M326.11 468.05L326.05 468.05M326.05 468.05L326.05 468.05M326.05 468.05L325.86 468.09M325.86 468.09L325.86 468.09M325.86 468.09L325.54 468.27M325.54 468.27L325.54 468.27M325.54 468.27L325.3 468.56M325.3 468.56L325.3 468.56M325.3 468.56L325.19 468.85M325.19 468.85L325.19 468.85M325.19 468.85L325.18 468.91M325.18 468.91L325.18 468.91M325.18 468.91L325.18 468.98M325.18 468.98L325.18 468.98M325.18 468.98L325.18 469.01M325.18 469.01L325.18 469.04M325.18 469.04L325.18 469.04M325.18 469.04L325.18 469.62M325.18 469.62L325.18 469.62M325.18 469.62L325.18 470.21M325.18 470.21L325.18 470.21M325.18 470.21L325.18 470.5M325.18 470.5L325.18 470.79M325.18 470.79L325.18 470.79M325.18 470.79L325.18 471.09M325.18 471.09L325.18 471.38M325.18 471.38L325.18 471.38M325.18 471.38L325.18 472.84M325.18 472.84L325.18 472.84M325.18 472.84L325.18 474.3M325.18 474.3L325.18 474.3M325.18 474.3L325.18 474.39M325.18 474.39L325.18 474.48M325.18 474.48L325.18 474.67M325.18 474.67L325.18 475.03M325.18 475.03L325.18 475.76M325.18 475.76L325.18 477.23M325.18 477.23L325.18 483.08M325.18 483.08L325.18 484.54M325.18 484.54L325.18 484.9M325.18 484.9L325.18 484.9M325.18 484.9L325.18 485.09M325.18 485.09L325.18 485.27M325.18 485.27L325.18 486M325.18 486L325.18 487.46M325.18 487.46L325.18 487.83M325.18 487.83L325.18 487.83M325.18 487.83L325.18 488.01M325.18 488.01L325.18 488.19M325.18 488.19L325.18 488.92M325.18 488.92L325.18 490.39M325.18 490.39L325.18 490.75M325.18 490.75L325.18 490.75M325.18 490.75L325.18 490.94M325.18 490.94L325.18 491.12M325.18 491.12L325.18 491.85M325.18 491.85L325.18 494.77M325.18 494.77L325.18 495.36M325.18 495.36L325.18 495.94M325.18 495.94L325.18 496.24M325.18 496.24L325.18 496.53M325.18 496.53L325.18 496.82M325.18 496.82L325.18 497.11M325.18 497.11L325.18 497.41M325.18 497.41L325.18 497.41M325.18 497.41L325.18 497.7M325.18 497.7L325.18 497.7M325.18 497.7L325.18 498.28M325.18 498.28L325.18 498.28M325.18 498.28L325.18 498.87M325.18 498.87L325.18 498.87M325.18 498.87L325.18 498.93M325.18 498.93L325.18 498.93M325.18 498.93L325.18 498.99M325.18 498.99L325.18 498.99M325.18 498.99L325.22 499.18M325.22 499.18L325.22 499.18M325.22 499.18L325.4 499.5M325.4 499.5L325.4 499.5M325.4 499.5L325.69 499.74M325.69 499.74L325.69 499.74M325.69 499.74L325.98 499.84M325.98 499.84L325.98 499.84M325.98 499.84L326.05 499.85M326.05 499.85L326.05 499.85M326.05 499.85L326.11 499.86M326.11 499.86L326.11 499.86M326.11 499.86L326.17 499.86M326.17 499.86L326.17 499.86M326.17 499.86L327.03 499.86M327.03 499.86L327.03 499.86M327.03 499.86L327.9 499.86M327.9 499.86L327.9 499.86M327.9 499.86L328.33 499.86M328.33 499.86L328.76 499.86M328.76 499.86L328.76 499.86M328.76 499.86L329.19 499.86M329.19 499.86L329.62 499.86M329.62 499.86L330.92 499.86M330.92 499.86L332.21 499.86M332.21 499.86L333.5 499.86M333.5 499.86L333.83 499.86M333.83 499.86L333.91 499.86M333.91 499.86L333.91 499.86M333.91 499.86L333.99 499.86M333.99 499.86L334.15 499.86M334.15 499.86L334.8 499.86M334.8 499.86L335.35 499.86M335.35 499.86L335.49 499.86M335.49 499.86L335.49 499.86M335.49 499.86L335.63 499.86M335.63 499.86L335.9 499.86M335.9 499.86L337.01 499.86M337.01 499.86L337.01 499.86M337.01 499.86L339.22 499.86M339.22 499.86L339.22 499.86M339.22 499.86L343.64 499.86M343.64 499.86L343.64 499.86M343.64 499.86L343.78 499.86M343.78 499.86L343.92 499.86M343.92 499.86L344.19 499.86M344.19 499.86L344.75 499.86M344.75 499.86L345.85 499.86M345.85 499.86L348.06 499.86M348.06 499.86L349.17 499.86M349.17 499.86L349.44 499.86M349.44 499.86L349.44 499.86M349.44 499.86L349.72 499.86M349.72 499.86L350.27 499.86M350.27 499.86L352.48 499.86M352.48 499.86L354.7 499.86M354.7 499.86L355.25 499.86M355.25 499.86L355.25 499.86M355.25 499.86L355.52 499.86M355.52 499.86L355.8 499.86M355.8 499.86L356.91 499.86M356.91 499.86L359.12 499.86M359.12 499.86L359.67 499.86M359.67 499.86L359.67 499.86M359.67 499.86L359.95 499.86M359.95 499.86L360.22 499.86M360.22 499.86L361.33 499.86M361.33 499.86L363.54 499.86M363.54 499.86L364.09 499.86M364.09 499.86L364.09 499.86M364.09 499.86L364.37 499.86M364.37 499.86L364.64 499.86M364.64 499.86L365.75 499.86M365.75 499.86L370.17 499.86M370.17 499.86L429.83 499.86M429.83 499.86L448.81 499.86M448.81 499.86L458.3 499.86M458.3 499.86L467.79 499.86M467.79 499.86L468.65 499.86M468.65 499.86L469.52 499.86M469.52 499.86L469.95 499.86M469.95 499.86L470.38 499.86M470.38 499.86L470.81 499.86M470.81 499.86L470.81 499.86M470.81 499.86L471.24 499.86M471.24 499.86L471.67 499.86M471.67 499.86L471.67 499.86M471.67 499.86L472.1 499.86M472.1 499.86L472.1 499.86M472.1 499.86L472.97 499.86M472.97 499.86L472.97 499.86M472.97 499.86L473.83 499.86M473.83 499.86L473.86 499.86M473.86 499.86L473.86 499.86M473.86 499.86L473.89 499.86M473.89 499.86L473.89 499.86M473.89 499.86L473.95 499.85M473.95 499.85L473.95 499.85M473.95 499.85L474.14 499.81M474.14 499.81L474.14 499.81M474.14 499.81L474.46 499.63M474.46 499.63L474.46 499.63M474.46 499.63L474.7 499.35M474.7 499.35L474.7 499.35M474.7 499.35L474.81 499.05M474.81 499.05L474.81 499.05M474.81 499.05L474.82 498.99M474.82 498.99L474.82 498.99M474.82 498.99L474.82 498.93M474.82 498.93L474.82 498.93M474.82 498.93L474.82 498.87M474.82 498.87L474.82 498.87M474.82 498.87L474.82 498.28M474.82 498.28L474.82 498.28M474.82 498.28L474.82 497.7M474.82 497.7L474.82 497.7M474.82 497.7L474.82 497.41M474.82 497.41L474.82 497.41M474.82 497.41L474.82 497.26M474.82 497.26L474.82 497.11M474.82 497.11L474.82 496.82M474.82 496.82L474.82 496.53M474.82 496.53L474.82 496.53M474.82 496.53L474.82 495.07M474.82 495.07L474.82 495.07M474.82 495.07L474.82 493.6M474.82 493.6L474.82 493.6M474.82 493.6L474.82 493.51M474.82 493.51L474.82 493.42M474.82 493.42L474.82 493.24M474.82 493.24L474.82 492.87M474.82 492.87L474.82 492.14M474.82 492.14L474.82 490.68M474.82 490.68L474.82 484.83M474.82 484.83L474.82 483.37M474.82 483.37L474.82 483M474.82 483L474.82 483M474.82 483L474.82 482.82M474.82 482.82L474.82 482.64M474.82 482.64L474.82 481.91M474.82 481.91L474.82 480.44M474.82 480.44L474.82 480.08M474.82 480.08L474.82 480.08M474.82 480.08L474.82 479.9M474.82 479.9L474.82 479.71M474.82 479.71L474.82 478.98M474.82 478.98L474.82 477.52M474.82 477.52L474.82 477.15M474.82 477.15L474.82 477.15M474.82 477.15L474.82 476.97M474.82 476.97L474.82 476.79M474.82 476.79L474.82 476.06M474.82 476.06L474.82 473.13M474.82 473.13L474.82 472.55M474.82 472.55L474.82 471.96M474.82 471.96L474.82 471.67M474.82 471.67L474.82 471.38M474.82 471.38L474.82 471.09M474.82 471.09L474.82 470.79M474.82 470.79L474.82 470.5M474.82 470.5L474.82 470.5M474.82 470.5L474.82 470.21M474.82 470.21L474.82 470.21M474.82 470.21L474.82 469.62M474.82 469.62L474.82 469.62M474.82 469.62L474.82 469.04M474.82 469.04L474.82 469.04M474.82 469.04L474.82 468.98M474.82 468.98L474.82 468.98M474.82 468.98L474.82 468.91M474.82 468.91L474.82 468.91M474.82 468.91L474.78 468.73M474.78 468.73L474.78 468.73M474.78 468.73L474.6 468.4M474.6 468.4L474.6 468.4M474.6 468.4L474.31 468.17M474.31 468.17L474.31 468.17M474.31 468.17L474.02 468.06M474.02 468.06L474.02 468.06M474.02 468.06L473.95 468.05M473.95 468.05L473.95 468.05M473.95 468.05L473.89 468.05M473.89 468.05L473.89 468.05M473.89 468.05L473.83 468.04M473.83 468.04L473.83 468.04M473.83 468.04L472.97 468.04M472.97 468.04L472.97 468.04M472.97 468.04L472.1 468.04M472.1 468.04L472.1 468.04M472.1 468.04L471.24 468.04M471.24 468.04L470.81 468.04M470.81 468.04L470.38 468.04M470.38 468.04L470.06 468.04M470.06 468.04L469.97 468.04M469.97 468.04L469.97 468.04M469.97 468.04L469.89 468.04M469.89 468.04L469.73 468.04M469.73 468.04L469.08 468.04M469.08 468.04L468.44 468.04M468.44 468.04L468.11 468.04M468.11 468.04L467.95 468.04M467.95 468.04L467.95 468.04M467.95 468.04L467.79 468.04M467.79 468.04L465.2 468.04M465.2 468.04L464.65 468.04M464.65 468.04L464.51 468.04M464.51 468.04L464.51 468.04M464.51 468.04L464.37 468.04M464.37 468.04L464.1 468.04M464.1 468.04L462.99 468.04M462.99 468.04L462.44 468.04M462.44 468.04L462.3 468.04M462.3 468.04L462.3 468.04M462.3 468.04L462.16 468.04M462.16 468.04L461.89 468.04M461.89 468.04L460.78 468.04M460.78 468.04L458.57 468.04M458.57 468.04L457.46 468.04M457.46 468.04L456.91 468.04M456.91 468.04L456.64 468.04M456.64 468.04L456.5 468.04M456.5 468.04L456.5 468.04M456.5 468.04L456.36 468.04M456.36 468.04L456.36 468.04M456.36 468.04L456.22 468.04M456.22 468.04L456.08 468.04M456.08 468.04L455.81 468.04M455.81 468.04L455.25 468.04M455.25 468.04L454.15 468.04M454.15 468.04L451.94 468.04M451.94 468.04L450.83 468.04M450.83 468.04L450.56 468.04M450.56 468.04L450.56 468.04M450.56 468.04L450.28 468.04M450.28 468.04L449.73 468.04M449.73 468.04L447.52 468.04M447.52 468.04L445.3 468.04M445.3 468.04L444.75 468.04M444.75 468.04L444.75 468.04M444.75 468.04L444.48 468.04M444.48 468.04L444.2 468.04M444.2 468.04L443.09 468.04M443.09 468.04L440.88 468.04M440.88 468.04L440.33 468.04M440.33 468.04L440.33 468.04M440.33 468.04L440.05 468.04M440.05 468.04L439.78 468.04M439.78 468.04L438.67 468.04M438.67 468.04L436.46 468.04M436.46 468.04L435.91 468.04M435.91 468.04L435.91 468.04M435.91 468.04L435.63 468.04M435.63 468.04L435.36 468.04M435.36 468.04L434.25 468.04M434.25 468.04L429.83 468.04M429.83 468.04L370.17 468.04"
fill="none" stroke="black" stroke-width="0.5"/>
<path d="M354.51 205.84L354.51 229.38M354.51 229.38L354.51 252.92M354.51 252.92L354.51 252.92M354.51 252.92L354.51 253.01M354.51 253.01L354.51 253.1M354.51 253.1L354.51 253.29M354.51 253.29L354.51 253.65M354.51 253.65L354.51 254.39M354.51 254.39L354.51 255.86M354.51 255.86L354.51 258.8M354.51 258.8L354.51 264.69M354.51 264.69L354.51 276.46M354.51 276.46L354.51 282.34M354.51 282.34L354.51 283.82M354.51 283.82L354.51 284.18M354.51 284.18L354.51 284.28M354.51 284.28L354.51 284.28M354.51 284.28L354.51 284.37M354.51 284.37L354.51 284.55M354.51 284.55L354.51 285.29M354.51 285.29L354.51 288.23M354.51 288.23L354.51 300M354.51 300L354.51 311.77M354.51 311.77L354.51 314.71M354.51 314.71L354.51 315.45M354.51 315.45L354.51 315.63M354.51 315.63L354.51 315.63M354.51 315.63L354.51 315.72M354.51 315.72L354.51 315.82M354.51 315.82L354.51 316.18M354.51 316.18L354.51 317.66M354.51 317.66L354.51 323.54M354.51 323.54L354.51 335.31M354.51 335.31L354.51 338.25M354.51 338.25L354.51 338.99M354.51 338.99L354.51 339.17M354.51 339.17L354.51 339.17M354.51 339.17L354.51 339.27M354.51 339.27L354.51 339.36M354.51 339.36L354.51 339.73M354.51 339.73L354.51 341.2M354.51 341.2L354.51 347.08M354.51 347.08L354.51 358.85M354.51 358.85L354.51 361.8M354.51 361.8L354.51 362.53M354.51 362.53L354.51 362.72M354.51 362.72L354.51 362.72M354.51 362.72L354.51 362.81M354.51 362.81L354.51 362.9M354.51 362.9L354.51 363.27M354.51 363.27L354.51 364.74M354.51 364.74L354.51 370.62M354.51 370.62L354.51 394.16M354.51 394.16L354.51 398.96M354.51 398.96L354.51 403.75M354.51 403.75L354.51 406.14M354.51 406.14L354.51 408.54M354.51 408.54L354.51 410.93M354.51 410.93L354.51 413.33M354.51 413.33L354.51 414.53M354.51 414.53L354.51 414.83M354.51 414.83L354.51 414.83M354.51 414.83L354.51 414.98M354.51 414.98L354.51 415.13M354.51 415.13L354.51 415.73M354.51 415.73L354.51 416.92M354.51 416.92L354.51 417.52M354.51 417.52L354.51 417.52M354.51 417.52L354.51 417.82M354.51 417.82L354.51 418.12M354.51 418.12L354.51 418.42M354.51 418.42L354.51 418.42M354.51 418.42L354.51 418.57M354.51 418.57L354.51 418.72M354.51 418.72L354.51 419.02M354.51 419.02L354.51 419.02M354.51 419.02L354.51 419.17M354.51 419.17L354.51 419.32M354.51 419.32L354.51 420.52M354.51 420.52L354.51 420.52M354.51 420.52L354.51 420.82M354.51 420.82L354.51 421.12M354.51 421.12L354.51 421.42M354.51 421.42L354.51 421.57M354.51 421.57L354.51 421.57M354.51 421.57L354.51 421.72M354.51 421.72L354.51 422.31M354.51 422.31L354.51 422.61M354.51 422.61L354.51 422.91M354.51 422.91L354.51 422.91M354.51 422.91L354.51 427.7M354.51 427.7L354.51 427.7M354.51 427.7L354.5 430.1M354.5 430.1L354.5 430.1M354.5 430.1L354.51 432.5M354.51 432.5L354.51 432.5M354.51 432.5L354.51 432.57M354.51 432.57L354.51 432.57M354.51 432.57L354.52 432.65M354.52 432.65L354.52 432.65M354.52 432.65L354.56 432.87M354.56 432.87L354.56 432.87M354.56 432.87L354.78 433.35M354.78 433.35L354.78 433.35M354.78 433.35L355.09 433.68M355.09 433.68L355.09 433.68M355.09 433.68L355.48 433.89M355.48 433.89L355.48 433.89M355.48 433.89L355.77 433.97M355.77 433.97L355.77 433.97M355.77 433.97L355.85 433.98M355.85 433.98L355.85 433.98M355.85 433.98L355.92 433.99M355.92 433.99L355.92 433.99M355.92 433.99L356 433.99M356 433.99L356 433.99M356 433.99L356.28 433.99M356.28 433.99L356.28 433.99M356.28 433.99L356.42 433.99M356.42 433.99L356.56 433.99M356.56 433.99L356.7 433.99M356.7 433.99L356.83 433.99M356.83 433.99L357 433.99M357 433.99L357 433.99M357 433.99L357.16 433.99M357.16 433.99L357.49 433.99M357.49 433.99L357.66 433.99M357.66 433.99L357.66 433.99M357.66 433.99L357.82 433.99M357.82 433.99L358.15 433.99M358.15 433.99L358.81 433.99M358.81 433.99L359.14 433.99M359.14 433.99L359.31 433.99M359.31 433.99L359.31 433.99M359.31 433.99L359.47 433.99M359.47 433.99L360.79 433.99M360.79 433.99L361.12 433.99M361.12 433.99L361.21 433.99M361.21 433.99L361.21 433.99M361.21 433.99L361.29 433.99M361.29 433.99L361.45 433.99M361.45 433.99L362.11 433.99M362.11 433.99L362.37 433.99M362.37 433.99L362.37 433.99M362.37 433.99L362.62 433.99M362.62 433.99L363.12 433.99M363.12 433.99L364.13 433.99M364.13 433.99L365.14 433.99M365.14 433.99L365.64 433.99M365.64 433.99L365.89 433.99M365.89 433.99L366.02 433.99M366.02 433.99L366.02 433.99M366.02 433.99L366.14 433.99M366.14 433.99L368.16 433.99M368.16 433.99L368.16 433.99M368.16 433.99L368.41 433.99M368.41 433.99L368.66 433.99M368.66 433.99L369.16 433.99M369.16 433.99L370.17 433.99M370.17 433.99L429.83 433.99M429.83 433.99L436.08 433.99M436.08 433.99L442.33 433.99M442.33 433.99L442.61 433.99M442.61 433.99L442.89 433.99M442.89 433.99L443.03 433.99M443.03 433.99L443.17 433.99M443.17 433.99L443.3 433.99M443.3 433.99L443.3 433.99M443.3 433.99L443.44 433.99M443.44 433.99L443.58 433.99M443.58 433.99L443.58 433.99M443.58 433.99L443.72 433.99M443.72 433.99L443.72 433.99M443.72 433.99L444 433.99M444 433.99L444 433.99M444 433.99L444.08 433.99M444.08 433.99L444.08 433.99M444.08 433.99L444.15 433.98M444.15 433.98L444.15 433.98M444.15 433.98L444.45 433.92M444.45 433.92L444.45 433.92M444.45 433.92L444.91 433.68M444.91 433.68L444.91 433.68M444.91 433.68L445.27 433.28M445.27 433.28L445.27 433.28M445.27 433.28L445.44 432.87M445.44 432.87L445.44 432.87M445.44 432.87L445.47 432.72M445.47 432.72L445.47 432.72M445.47 432.72L445.48 432.65M445.48 432.65L445.48 432.65M445.48 432.65L445.49 432.57M445.49 432.57L445.49 432.57M445.49 432.57L445.49 432.5M445.49 432.5L445.49 432.5M445.49 432.5L445.5 430.1M445.5 430.1L445.5 430.1M445.5 430.1L445.49 427.7M445.49 427.7L445.49 427.7M445.49 427.7L445.49 422.91M445.49 422.91L445.49 422.91M445.49 422.91L445.49 422.61M445.49 422.61L445.49 422.61M445.49 422.61L445.49 422.31M445.49 422.31L445.49 422.31M445.49 422.31L445.49 421.72M445.49 421.72L445.49 421.57M445.49 421.57L445.49 421.42M445.49 421.42L445.49 421.12M445.49 421.12L445.49 420.52M445.49 420.52L445.49 419.92M445.49 419.92L445.49 419.77M445.49 419.77L445.49 419.77M445.49 419.77L445.49 419.62M445.49 419.62L445.49 419.32M445.49 419.32L445.49 419.17M445.49 419.17L445.49 419.17M445.49 419.17L445.49 419.02M445.49 419.02L445.49 418.72M445.49 418.72L445.49 418.57M445.49 418.57L445.49 418.57M445.49 418.57L445.49 418.42M445.49 418.42L445.49 418.12M445.49 418.12L445.49 417.82M445.49 417.82L445.49 417.82M445.49 417.82L445.49 417.52M445.49 417.52L445.49 416.92M445.49 416.92L445.49 415.73M445.49 415.73L445.49 415.13M445.49 415.13L445.49 414.98M445.49 414.98L445.49 414.98M445.49 414.98L445.49 414.83M445.49 414.83L445.49 414.53M445.49 414.53L445.49 413.33M445.49 413.33L445.49 410.93M445.49 410.93L445.49 408.54M445.49 408.54L445.49 404.95M445.49 404.95L445.49 401.35M445.49 401.35L445.49 394.16M445.49 394.16L445.49 382.39M445.49 382.39L445.49 370.62M445.49 370.62L445.49 370.62M445.49 370.62L445.49 370.53M445.49 370.53L445.49 370.44M445.49 370.44L445.49 370.26M445.49 370.26L445.49 369.89M445.49 369.89L445.49 369.15M445.49 369.15L445.49 367.68M445.49 367.68L445.49 364.74M445.49 364.74L445.49 358.85M445.49 358.85L445.49 347.08M445.49 347.08L445.49 300M445.49 300L445.49 288.23M445.49 288.23L445.49 285.29M445.49 285.29L445.49 284.55M445.49 284.55L445.49 284.37M445.49 284.37L445.49 284.37M445.49 284.37L445.49 284.28M445.49 284.28L445.49 284.18M445.49 284.18L445.49 283.82M445.49 283.82L445.49 282.34M445.49 282.34L445.49 276.46M445.49 276.46L445.49 264.69M445.49 264.69L445.49 261.75M445.49 261.75L445.49 261.01M445.49 261.01L445.49 260.83M445.49 260.83L445.49 260.83M445.49 260.83L445.49 260.73M445.49 260.73L445.49 260.64M445.49 260.64L445.49 260.27M445.49 260.27L445.49 258.8M445.49 258.8L445.49 252.92M445.49 252.92L445.49 241.15M445.49 241.15L445.49 238.2M445.49 238.2L445.49 237.47M445.49 237.47L445.49 237.28M445.49 237.28L445.49 237.28M445.49 237.28L445.49 237.19M445.49 237.19L445.49 237.1M445.49 237.1L445.49 236.73M445.49 236.73L445.49 235.26M445.49 235.26L445.49 229.38M445.49 229.38L445.49 205.84M445.49 205.84L445.49 201.04M445.49 201.04L445.49 196.25M445.49 196.25L445.49 193.86M445.49 193.86L445.49 191.46M445.49 191.46L445.49 189.07M445.49 189.07L445.49 186.67M445.49 186.67L445.49 185.47M445.49 185.47L445.49 185.17M445.49 185.17L445.49 185.17M445.49 185.17L445.49 185.02M445.49 185.02L445.49 184.87M445.49 184.87L445.49 184.27M445.49 184.27L445.49 183.08M445.49 183.08L445.49 182.48M445.49 182.48L445.49 182.48M445.49 182.48L445.49 182.18M445.49 182.18L445.49 181.88M445.49 181.88L445.49 181.58M445.49 181.58L445.49 181.58M445.49 181.58L445.49 181.43M445.49 181.43L445.49 181.28M445.49 181.28L445.49 180.98M445.49 180.98L445.49 180.98M445.49 180.98L445.49 180.83M445.49 180.83L445.49 180.68M445.49 180.68L445.49 179.48M445.49 179.48L445.49 179.48M445.49 179.48L445.49 179.18M445.49 179.18L445.49 178.88M445.49 178.88L445.49 178.58M445.49 178.58L445.49 178.43M445.49 178.43L445.49 178.43M445.49 178.43L445.49 178.28M445.49 178.28L445.49 177.69M445.49 177.69L445.49 177.39M445.49 177.39L445.49 177.09M445.49 177.09L445.49 177.09M445.49 177.09L445.49 172.3M445.49 172.3L445.49 172.3M445.49 172.3L445.5 169.9M445.5 169.9L445.5 169.9M445.5 169.9L445.49 167.5M445.49 167.5L445.49 167.5M445.49 167.5L445.49 167.43M445.49 167.43L445.49 167.43M445.49 167.43L445.48 167.35M445.48 167.35L445.48 167.35M445.48 167.35L445.44 167.13M445.44 167.13L445.44 167.13M445.44 167.13L445.22 166.65M445.22 166.65L445.22 166.65M445.22 166.65L444.91 166.32M444.91 166.32L444.91 166.32M444.91 166.32L444.52 166.11M444.52 166.11L444.52 166.11M444.52 166.11L444.23 166.03M444.23 166.03L444.23 166.03M444.23 166.03L444.15 166.02M444.15 166.02L444.15 166.02M444.15 166.02L444.08 166.01M444.08 166.01L444.08 166.01M444.08 166.01L444 166.01M444 166.01L444 166.01M444 166.01L443.72 166.01M443.72 166.01L443.72 166.01M443.72 166.01L443.44 166.01M443.44 166.01L443.44 166.01M443.44 166.01L443.3 166.01M443.3 166.01L443.17 166.01M443.17 166.01L442.51 166.01M442.51 166.01L441.85 166.01M441.85 166.01L441.19 166.01M441.19 166.01L440.53 166.01M440.53 166.01L439.21 166.01M439.21 166.01L437.89 166.01M437.89 166.01L436.88 166.01M436.88 166.01L435.87 166.01M435.87 166.01L433.86 166.01M433.86 166.01L431.84 166.01M431.84 166.01L429.83 166.01M429.83 166.01L370.17 166.01M370.17 166.01L363.92 166.01M363.92 166.01L360.79 166.01M360.79 166.01L357.67 166.01M357.67 166.01L357.39 166.01M357.39 166.01L357.11 166.01M357.11 166.01L356.97 166.01M356.97 166.01L356.83 166.01M356.83 166.01L356.7 166.01M356.7 166.01L356.7 166.01M356.7 166.01L356.56 166.01M356.56 166.01L356.56 166.01M356.56 166.01L356.28 166.01M356.28 166.01L356.28 166.01M356.28 166.01L356 166.01M356 166.01L356 166.01M356 166.01L355.92 166.01M355.92 166.01L355.92 166.01M355.92 166.01L355.85 166.02M355.85 166.02L355.85 166.02M355.85 166.02L355.55 166.08M355.55 166.08L355.55 166.08M355.55 166.08L355.09 166.32M355.09 166.32L355.09 166.32M355.09 166.32L354.73 166.72M354.73 166.72L354.73 166.72M354.73 166.72L354.56 167.13M354.56 167.13L354.56 167.13M354.56 167.13L354.53 167.28M354.53 167.28L354.53 167.28M354.53 167.28L354.52 167.35M354.52 167.35L354.52 167.35M354.52 167.35L354.51 167.43M354.51 167.43L354.51 167.43M354.51 167.43L354.51 167.5M354.51 167.5L354.51 167.5M354.51 167.5L354.5 169.9M354.5 169.9L354.5 169.9M354.5 169.9L354.51 172.29M354.51 172.29L354.51 172.29M354.51 172.29L354.51 177.09M354.51 177.09L354.51 177.39M354.51 177.39L354.51 177.69M354.51 177.69L354.51 178.28M354.51 178.28L354.51 178.28M354.51 178.28L354.51 178.43M354.51 178.43L354.51 178.58M354.51 178.58L354.51 178.88M354.51 178.88L354.51 179.18M354.51 179.18L354.51 179.18M354.51 179.18L354.51 179.48M354.51 179.48L354.51 180.68M354.51 180.68L354.51 180.83M354.51 180.83L354.51 180.83M354.51 180.83L354.51 180.98M354.51 180.98L354.51 181.28M354.51 181.28L354.51 181.43M354.51 181.43L354.51 181.43M354.51 181.43L354.51 181.58M354.51 181.58L354.51 181.88M354.51 181.88L354.51 182.18M354.51 182.18L354.51 182.18M354.51 182.18L354.51 182.48M354.51 182.48L354.51 183.08M354.51 183.08L354.51 184.27M354.51 184.27L354.51 184.87M354.51 184.87L354.51 185.02M354.51 185.02L354.51 185.02M354.51 185.02L354.51 185.17M354.51 185.17L354.51 185.47M354.51 185.47L354.51 186.67M354.51 186.67L354.51 189.07M354.51 189.07L354.51 191.46M354.51 191.46L354.51 195.05M354.51 195.05L354.51 198.65M354.51 198.65L354.51 202.24M354.51 202.24L354.51 204.04M354.51 204.04L354.51 204.94M354.51 204.94L354.51 205.39M354.51 205.39L354.51 205.61M354.51 205.61L354.51 205.72M354.51 205.72L354.51 205.72M354.51 205.72L354.51 205.84"
fill="none" stroke="black" stroke-width="0.5"/>
<path d="M429.83 131.96L448.81 131.96M448.81 131.96L467.79 131.96M467.79 131.96L468.65 131.96M468.65 131.96L469.52 131.96M469.52 131.96L469.95 131.96M469.95 131.96L470.16 131.96M470.16 131.96L470.38 131.96M470.38 131.96L470.81 131.96M470.81 131.96L471.24 131.96M471.24 131.96L471.24 131.96M471.24 131.96L472.1 131.96M472.1 131.96L472.32 131.96M472.32 131.96L472.54 131.96M472.54 131.96L472.54 131.96M472.54 131.96L472.97 131.96M472.97 131.96L472.97 131.96M472.97 131.96L473.83 131.96M473.83 131.96L473.83 131.96M473.83 131.96L473.86 131.96M473.86 131.96L473.86 131.96M473.86 131.96L473.89 131.95M473.89 131.95L473.89 131.95M473.89 131.95L473.95 131.95M473.95 131.95L473.95 131.95M473.95 131.95L474.14 131.91M474.14 131.91L474.14 131.91M474.14 131.91L474.46 131.73M474.46 131.73L474.46 131.73M474.46 131.73L474.7 131.44M474.7 131.44L474.7 131.44M474.7 131.44L474.81 131.15M474.81 131.15L474.81 131.15M474.81 131.15L474.82 131.09M474.82 131.09L474.82 131.09M474.82 131.09L474.82 131.02M474.82 131.02L474.82 131.02M474.82 131.02L474.82 130.96M474.82 130.96L474.82 130.96M474.82 130.96L474.82 130.38M474.82 130.38L474.82 130.38M474.82 130.38L474.82 129.79M474.82 129.79L474.82 129.79M474.82 129.79L474.82 129.5M474.82 129.5L474.82 129.21M474.82 129.21L474.82 128.91M474.82 128.91L474.82 128.62M474.82 128.62L474.82 128.62M474.82 128.62L474.82 127.16M474.82 127.16L474.82 127.16M474.82 127.16L474.82 125.7M474.82 125.7L474.82 125.7M474.82 125.7L474.82 125.61M474.82 125.61L474.82 125.52M474.82 125.52L474.82 125.33M474.82 125.33L474.82 124.97M474.82 124.97L474.82 124.24M474.82 124.24L474.82 122.77M474.82 122.77L474.82 116.92M474.82 116.92L474.82 115.46M474.82 115.46L474.82 115.1M474.82 115.1L474.82 115.1M474.82 115.1L474.82 114.91M474.82 114.91L474.82 114.73M474.82 114.73L474.82 114M474.82 114L474.82 112.54M474.82 112.54L474.82 112.17M474.82 112.17L474.82 112.17M474.82 112.17L474.82 111.99M474.82 111.99L474.82 111.81M474.82 111.81L474.82 111.08M474.82 111.08L474.82 109.61M474.82 109.61L474.82 109.25M474.82 109.25L474.82 109.25M474.82 109.25L474.82 109.06M474.82 109.06L474.82 108.88M474.82 108.88L474.82 108.15M474.82 108.15L474.82 105.23M474.82 105.23L474.82 104.64M474.82 104.64L474.82 104.06M474.82 104.06L474.82 103.76M474.82 103.76L474.82 103.47M474.82 103.47L474.82 103.18M474.82 103.18L474.82 102.89M474.82 102.89L474.82 102.59M474.82 102.59L474.82 102.59M474.82 102.59L474.82 102.3M474.82 102.3L474.82 102.3M474.82 102.3L474.82 101.72M474.82 101.72L474.82 101.72M474.82 101.72L474.82 101.13M474.82 101.13L474.82 101.13M474.82 101.13L474.82 101.07M474.82 101.07L474.82 101.07M474.82 101.07L474.82 101.01M474.82 101.01L474.82 101.01M474.82 101.01L474.78 100.82M474.78 100.82L474.78 100.82M474.78 100.82L474.6 100.5M474.6 100.5L474.6 100.5M474.6 100.5L474.31 100.26M474.31 100.26L474.31 100.26M474.31 100.26L474.02 100.16M474.02 100.16L474.02 100.16M474.02 100.16L473.95 100.15M473.95 100.15L473.95 100.15M473.95 100.15L473.89 100.14M473.89 100.14L473.89 100.14M473.89 100.14L473.83 100.14M473.83 100.14L473.83 100.14M473.83 100.14L472.97 100.14M472.97 100.14L472.97 100.14M472.97 100.14L472.1 100.14M472.1 100.14L472.1 100.14M472.1 100.14L471.24 100.14M471.24 100.14L471.03 100.14M471.03 100.14L470.81 100.14M470.81 100.14L470.38 100.14M470.38 100.14L469.08 100.14M469.08 100.14L467.79 100.14M467.79 100.14L466.5 100.14M466.5 100.14L465.2 100.14M465.2 100.14L460.78 100.14M460.78 100.14L456.36 100.14M456.36 100.14L451.94 100.14M451.94 100.14L447.52 100.14M447.52 100.14L438.67 100.14M438.67 100.14L434.25 100.14M434.25 100.14L429.83 100.14M429.83 100.14L370.17 100.14M370.17 100.14L351.19 100.14M351.19 100.14L332.21 100.14M332.21 100.14L331.35 100.14M331.35 100.14L330.48 100.14M330.48 100.14L330.05 100.14M330.05 100.14L329.62 100.14M329.62 100.14L329.19 100.14M329.19 100.14L328.97 100.14M328.97 100.14L328.76 100.14M328.76 100.14L328.76 100.14M328.76 100.14L327.9 100.14M327.9 100.14L327.9 100.14M327.9 100.14L327.03 100.14M327.03 100.14L327.03 100.14M327.03 100.14L326.17 100.14M326.17 100.14L326.17 100.14M326.17 100.14L326.11 100.14M326.11 100.14L326.11 100.14M326.11 100.14L326.05 100.15M326.05 100.15L326.05 100.15M326.05 100.15L325.86 100.19M325.86 100.19L325.86 100.19M325.86 100.19L325.54 100.37M325.54 100.37L325.54 100.37M325.54 100.37L325.3 100.65M325.3 100.65L325.3 100.65M325.3 100.65L325.19 100.95M325.19 100.95L325.19 100.95M325.19 100.95L325.18 101.01M325.18 101.01L325.18 101.01M325.18 101.01L325.18 101.07M325.18 101.07L325.18 101.07M325.18 101.07L325.18 101.13M325.18 101.13L325.18 101.13M325.18 101.13L325.18 101.72M325.18 101.72L325.18 101.72M325.18 101.72L325.18 102.3M325.18 102.3L325.18 102.3M325.18 102.3L325.18 102.59M325.18 102.59L325.18 102.89M325.18 102.89L325.18 102.89M325.18 102.89L325.18 103.18M325.18 103.18L325.18 103.47M325.18 103.47L325.18 103.47M325.18 103.47L325.18 104.93M325.18 104.93L325.18 104.93M325.18 104.93L325.18 106.4M325.18 106.4L325.18 106.4M325.18 106.4L325.18 106.49M325.18 106.49L325.18 106.58M325.18 106.58L325.18 106.76M325.18 106.76L325.18 107.13M325.18 107.13L325.18 107.86M325.18 107.86L325.18 109.32M325.18 109.32L325.18 115.17M325.18 115.17L325.18 116.63M325.18 116.63L325.18 117M325.18 117L325.18 117M325.18 117L325.18 117.18M325.18 117.18L325.18 117.36M325.18 117.36L325.18 118.09M325.18 118.09L325.18 119.56M325.18 119.56L325.18 119.92M325.18 119.92L325.18 119.92M325.18 119.92L325.18 120.1M325.18 120.1L325.18 120.29M325.18 120.29L325.18 121.02M325.18 121.02L325.18 122.48M325.18 122.48L325.18 122.85M325.18 122.85L325.18 122.85M325.18 122.85L325.18 123.03M325.18 123.03L325.18 123.21M325.18 123.21L325.18 123.94M325.18 123.94L325.18 126.87M325.18 126.87L325.18 127.45M325.18 127.45L325.18 128.04M325.18 128.04L325.18 128.33M325.18 128.33L325.18 128.62M325.18 128.62L325.18 128.91M325.18 128.91L325.18 129.21M325.18 129.21L325.18 129.5M325.18 129.5L325.18 129.5M325.18 129.5L325.18 129.79M325.18 129.79L325.18 129.79M325.18 129.79L325.18 130.38M325.18 130.38L325.18 130.38M325.18 130.38L325.18 130.96M325.18 130.96L325.18 130.99M325.18 130.99L325.18 130.99M325.18 130.99L325.18 131.02M325.18 131.02L325.18 131.02M325.18 131.02L325.18 131.09M325.18 131.09L325.18 131.09M325.18 131.09L325.22 131.27M325.22 131.27L325.22 131.27M325.22 131.27L325.4 131.6M325.4 131.6L325.4 131.6M325.4 131.6L325.69 131.83M325.69 131.83L325.69 131.83M325.69 131.83L325.98 131.94M325.98 131.94L325.98 131.94M325.98 131.94L326.05 131.95M326.05 131.95L326.05 131.95M326.05 131.95L326.11 131.95M326.11 131.95L326.11 131.95M326.11 131.95L326.14 131.96M326.14 131.96L326.14 131.96M326.14 131.96L326.17 131.96M326.17 131.96L326.17 131.96M326.17 131.96L327.03 131.96M327.03 131.96L327.03 131.96M327.03 131.96L327.46 131.96M327.46 131.96L327.68 131.96M327.68 131.96L327.9 131.96M327.9 131.96L328.11 131.96M328.11 131.96L328.33 131.96M328.33 131.96L328.76 131.96M328.76 131.96L328.76 131.96M328.76 131.96L329.62 131.96M329.62 131.96L330.92 131.96M330.92 131.96L332.21 131.96M332.21 131.96L334.8 131.96M334.8 131.96L339.22 131.96M339.22 131.96L343.64 131.96M343.64 131.96L348.06 131.96M348.06 131.96L352.48 131.96M352.48 131.96L361.33 131.96M361.33 131.96L365.75 131.96M365.75 131.96L370.17 131.96M370.17 131.96L429.83 131.96"
fill="none" stroke="black" stroke-width="0.5"/>
<path d="M354.51 40.97L354.51 60.86M354.51 60.86L354.51 62.54M354.51 62.54L354.51 64.22M354.51 64.22L354.51 64.29M354.51 64.29L354.51 64.37M354.51 64.37L354.51 64.4M354.51 64.4L354.51 64.44M354.51 64.44L354.51 64.48M354.51 64.48L354.51 64.52M354.51 64.52L354.51 64.52M354.51 64.52L354.51 64.59M354.51 64.59L354.51 64.59M354.51 64.59L354.51 64.67M354.51 64.67L354.51 64.67M354.51 64.67L354.52 64.74M354.52 64.74L354.52 64.74M354.52 64.74L354.6 65.11M354.6 65.11L354.6 65.11M354.6 65.11L354.87 65.56M354.87 65.56L354.87 65.56M354.87 65.56L355.28 65.89M355.28 65.89L355.28 65.89M355.28 65.89L355.77 66.06M355.77 66.06L355.77 66.06M355.77 66.06L355.85 66.07M355.85 66.07L355.85 66.07M355.85 66.07L355.92 66.08M355.92 66.08L355.92 66.08M355.92 66.08L356 66.08M356 66.08L356 66.08M356 66.08L356.28 66.08M356.28 66.08L356.42 66.08M356.42 66.08L356.56 66.08M356.56 66.08L356.56 66.08M356.56 66.08L356.83 66.08M356.83 66.08L357.49 66.08M357.49 66.08L358.15 66.08M358.15 66.08L358.81 66.08M358.81 66.08L359.47 66.08M359.47 66.08L360.13 66.08M360.13 66.08L360.79 66.08M360.79 66.08L362.11 66.08M362.11 66.08L363.12 66.08M363.12 66.08L364.13 66.08M364.13 66.08L365.14 66.08M365.14 66.08L366.14 66.08M366.14 66.08L368.16 66.08M368.16 66.08L370.17 66.08M370.17 66.08L429.83 66.08M429.83 66.08L436.08 66.08M436.08 66.08L442.33 66.08M442.33 66.08L442.61 66.08M442.61 66.08L442.89 66.08M442.89 66.08L443.03 66.08M443.03 66.08L443.17 66.08M443.17 66.08L443.3 66.08M443.3 66.08L443.44 66.08M443.44 66.08L443.58 66.08M443.58 66.08L443.58 66.08M443.58 66.08L443.72 66.08M443.72 66.08L443.72 66.08M443.72 66.08L444 66.08M444 66.08L444 66.08M444 66.08L444.08 66.08M444.08 66.08L444.08 66.08M444.08 66.08L444.15 66.07M444.15 66.07L444.15 66.07M444.15 66.07L444.45 66.01M444.45 66.01L444.45 66.01M444.45 66.01L444.91 65.77M444.91 65.77L444.91 65.77M444.91 65.77L445.27 65.38M445.27 65.38L445.27 65.38M445.27 65.38L445.44 64.96M445.44 64.96L445.44 64.96M445.44 64.96L445.48 64.74M445.48 64.74L445.48 64.74M445.48 64.74L445.49 64.67M445.49 64.67L445.49 64.67M445.49 64.67L445.49 64.59M445.49 64.59L445.49 64.59M445.49 64.59L445.49 64.52M445.49 64.52L445.49 64.48M445.49 64.48L445.49 64.44M445.49 64.44L445.49 64.44M445.49 64.44L445.49 63.55M445.49 63.55L445.49 62.65M445.49 62.65L445.49 62.43M445.49 62.43L445.49 62.43M445.49 62.43L445.49 62.32M445.49 62.32L445.49 62.2M445.49 62.2L445.49 61.98M445.49 61.98L445.49 61.98M445.49 61.98L445.49 61.87M445.49 61.87L445.49 61.76M445.49 61.76L445.49 61.53M445.49 61.53L445.49 61.53M445.49 61.53L445.49 61.42M445.49 61.42L445.49 61.31M445.49 61.31L445.49 60.86M445.49 60.86L445.49 40.97M445.49 40.97L445.49 39.3M445.49 39.3L445.49 37.62M445.49 37.62L445.49 37.54M445.49 37.54L445.49 37.47M445.49 37.47L445.49 37.43M445.49 37.43L445.49 37.39M445.49 37.39L445.49 37.36M445.49 37.36L445.49 37.32M445.49 37.32L445.49 37.32M445.49 37.32L445.49 37.24M445.49 37.24L445.49 37.24M445.49 37.24L445.49 37.17M445.49 37.17L445.49 37.17M445.49 37.17L445.48 37.09M445.48 37.09L445.48 37.09M445.48 37.09L445.4 36.73M445.4 36.73L445.4 36.73M445.4 36.73L445.13 36.27M445.13 36.27L445.13 36.27M445.13 36.27L444.72 35.94M444.72 35.94L444.72 35.94M444.72 35.94L444.23 35.77M444.23 35.77L444.23 35.77M444.23 35.77L444.15 35.76M444.15 35.76L444.15 35.76M444.15 35.76L444.08 35.76M444.08 35.76L444.08 35.76M444.08 35.76L444 35.75M444 35.75L444 35.75M444 35.75L443.72 35.75M443.72 35.75L443.72 35.75M443.72 35.75L443.58 35.75M443.58 35.75L443.44 35.75M443.44 35.75L443.3 35.75M443.3 35.75L443.17 35.75M443.17 35.75L442.51 35.75M442.51 35.75L441.85 35.75M441.85 35.75L441.19 35.75M441.19 35.75L440.53 35.75M440.53 35.75L439.21 35.75M439.21 35.75L437.89 35.75M437.89 35.75L435.87 35.75M435.87 35.75L433.86 35.75M433.86 35.75L431.84 35.75M431.84 35.75L429.83 35.75M429.83 35.75L370.17 35.75M370.17 35.75L363.92 35.75M363.92 35.75L357.67 35.75M357.67 35.75L357.39 35.75M357.39 35.75L357.11 35.75M357.11 35.75L356.97 35.75M356.97 35.75L356.97 35.75M356.97 35.75L356.83 35.75M356.83 35.75L356.7 35.75M356.7 35.75L356.56 35.75M356.56 35.75L356.56 35.75M356.56 35.75L356.28 35.75M356.28 35.75L356.28 35.75M356.28 35.75L356 35.75M356 35.75L356 35.75M356 35.75L355.92 35.76M355.92 35.76L355.92 35.76M355.92 35.76L355.85 35.76M355.85 35.76L355.85 35.76M355.85 35.76L355.55 35.82M355.55 35.82L355.55 35.82M355.55 35.82L355.09 36.07M355.09 36.07L355.09 36.07M355.09 36.07L354.73 36.46M354.73 36.46L354.73 36.46M354.73 36.46L354.56 36.87M354.56 36.87L354.56 36.87M354.56 36.87L354.52 37.09M354.52 37.09L354.52 37.09M354.52 37.09L354.51 37.17M354.51 37.17L354.51 37.17M354.51 37.17L354.51 37.24M354.51 37.24L354.51 37.24M354.51 37.24L354.51 37.32M354.51 37.32L354.51 37.36M354.51 37.36L354.51 37.39M354.51 37.39L354.51 37.39M354.51 37.39L354.51 38.29M354.51 38.29L354.51 39.18M354.51 39.18L354.51 39.41M354.51 39.41L354.51 39.41M354.51 39.41L354.51 39.52M354.51 39.52L354.51 39.63M354.51 39.63L354.51 39.86M354.51 39.86L354.51 39.86M354.51 39.86L354.51 39.97M354.51 39.97L354.51 40.08M354.51 40.08L354.51 40.3M354.51 40.3L354.51 40.3M354.51 40.3L354.51 40.41M354.51 40.41L354.51 40.53M354.51 40.53L354.51 40.97"
fill="none" stroke="black" stroke-width="0.5"/>
<path d="M456.43 60.86L456.43 67.33M456.43 67.33L456.43 73.8M456.43 73.8L456.43 74.09M456.43 74.09L456.43 74.38M456.43 74.38L456.43 74.52M456.43 74.52L456.43 74.66M456.43 74.66L456.43 74.81M456.43 74.81L456.43 74.81M456.43 74.81L456.43 74.95M456.43 74.95L456.43 75.1M456.43 75.1L456.43 75.1M456.43 75.1L456.43 75.24M456.43 75.24L456.43 75.24M456.43 75.24L456.43 75.53M456.43 75.53L456.43 75.53M456.43 75.53L456.43 75.6M456.43 75.6L456.43 75.6M456.43 75.6L456.42 75.68M456.42 75.68L456.42 75.68M456.42 75.68L456.36 75.97M456.36 75.97L456.36 75.97M456.36 75.97L456.12 76.44M456.12 76.44L456.12 76.44M456.12 76.44L455.73 76.79M455.73 76.79L455.73 76.79M455.73 76.79L455.31 76.97M455.31 76.97L455.31 76.97M455.31 76.97L455.16 77M455.16 77L455.16 77M455.16 77L455.09 77.01M455.09 77.01L455.09 77.01M455.09 77.01L455.01 77.02M455.01 77.02L455.01 77.02M455.01 77.02L454.94 77.02M454.94 77.02L454.94 77.02M454.94 77.02L454.44 77.02M454.44 77.02L454.44 77.02M454.44 77.02L453.95 77.02M453.95 77.02L453.83 77.02M453.83 77.02L453.71 77.02M453.71 77.02L453.46 77.02M453.46 77.02L453.21 77.02M453.21 77.02L452.97 77.02M452.97 77.02L450.08 77.02M450.08 77.02L447.18 77.02M447.18 77.02L444.29 77.02M444.29 77.02L441.4 77.02M441.4 77.02L435.61 77.02M435.61 77.02L432.72 77.02M432.72 77.02L429.83 77.02M429.83 77.02L370.17 77.02M370.17 77.02L359.34 77.02M359.34 77.02L348.51 77.02M348.51 77.02L347.77 77.02M347.77 77.02L347.03 77.02M347.03 77.02L346.79 77.02M346.79 77.02L346.54 77.02M346.54 77.02L346.54 77.02M346.54 77.02L346.05 77.02M346.05 77.02L345.92 77.02M345.92 77.02L345.8 77.02M345.8 77.02L345.8 77.02M345.8 77.02L345.55 77.02M345.55 77.02L345.55 77.02M345.55 77.02L345.06 77.02M345.06 77.02L345.06 77.02M345.06 77.02L344.99 77.02M344.99 77.02L344.99 77.02M344.99 77.02L344.91 77.01M344.91 77.01L344.91 77.01M344.91 77.01L344.62 76.95M344.62 76.95L344.62 76.95M344.62 76.95L344.15 76.71M344.15 76.71L344.15 76.71M344.15 76.71L343.8 76.32M343.8 76.32L343.8 76.32M343.8 76.32L343.62 75.9M343.62 75.9L343.62 75.9M343.62 75.9L343.59 75.75M343.59 75.75L343.59 75.75M343.59 75.75L343.58 75.68M343.58 75.68L343.58 75.68M343.58 75.68L343.57 75.6M343.57 75.6L343.57 75.6M343.57 75.6L343.57 75.53M343.57 75.53L343.57 75.53M343.57 75.53L343.57 75.24M343.57 75.24L343.57 75.24M343.57 75.24L343.57 75.1M343.57 75.1L343.57 74.95M343.57 74.95L343.57 74.95M343.57 74.95L343.57 74.81M343.57 74.81L343.57 74.66M343.57 74.66L343.57 73.8M343.57 73.8L343.57 72.94M343.57 72.94L343.57 71.21M343.57 71.21L343.57 71.21M343.57 71.21L343.57 71.11M343.57 71.11L343.57 71M343.57 71L343.57 70.78M343.57 70.78L343.57 70.35M343.57 70.35L343.57 69.49M343.57 69.49L343.57 68.63M343.57 68.63L343.57 68.41M343.57 68.41L343.57 68.41M343.57 68.41L343.57 68.19M343.57 68.19L343.57 67.76M343.57 67.76L343.57 66.9M343.57 66.9L343.57 66.68M343.57 66.68L343.57 66.68M343.57 66.68L343.57 66.47M343.57 66.47L343.57 66.04M343.57 66.04L343.57 65.17M343.57 65.17L343.57 64.96M343.57 64.96L343.57 64.96M343.57 64.96L343.57 64.74M343.57 64.74L343.57 64.31M343.57 64.31L343.57 62.59M343.57 62.59L343.57 62.59M343.57 62.59L343.57 62.48M343.57 62.48L343.57 62.37M343.57 62.37L343.57 62.15M343.57 62.15L343.57 61.72M343.57 61.72L343.57 60.86M343.57 60.86L343.57 40.97M343.57 40.97L343.57 34.5M343.57 34.5L343.57 28.03M343.57 28.03L343.57 27.75M343.57 27.75L343.57 27.46M343.57 27.46L343.57 27.31M343.57 27.31L343.57 27.17M343.57 27.17L343.57 27.03M343.57 27.03L343.57 26.88M343.57 26.88L343.57 26.88M343.57 26.88L343.57 26.6M343.57 26.6L343.57 26.6M343.57 26.6L343.57 26.31M343.57 26.31L343.57 26.31M343.57 26.31L343.57 26.23M343.57 26.23L343.57 26.23M343.57 26.23L343.58 26.16M343.58 26.16L343.58 26.16M343.58 26.16L343.64 25.86M343.64 25.86L343.64 25.86M343.64 25.86L343.88 25.39M343.88 25.39L343.88 25.39M343.88 25.39L344.27 25.04M344.27 25.04L344.27 25.04M344.27 25.04L344.69 24.86M344.69 24.86L344.69 24.86M344.69 24.86L344.84 24.83M344.84 24.83L344.84 24.83M344.84 24.83L344.91 24.82M344.91 24.82L344.91 24.82M344.91 24.82L344.99 24.82M344.99 24.82L344.99 24.82M344.99 24.82L345.06 24.82M345.06 24.82L345.06 24.82M345.06 24.82L345.55 24.82M345.55 24.82L345.55 24.82M345.55 24.82L346.05 24.82M346.05 24.82L346.29 24.82M346.29 24.82L346.54 24.82M346.54 24.82L346.66 24.82M346.66 24.82L346.79 24.82M346.79 24.82L347.03 24.82M347.03 24.82L349.92 24.82M349.92 24.82L352.82 24.82M352.82 24.82L355.71 24.82M355.71 24.82L358.6 24.82M358.6 24.82L364.39 24.82M364.39 24.82L370.17 24.82M370.17 24.82L429.83 24.82M429.83 24.82L440.66 24.82M440.66 24.82L451.49 24.82M451.49 24.82L452.23 24.82M452.23 24.82L452.6 24.82M452.6 24.82L452.97 24.82M452.97 24.82L453.21 24.82M453.21 24.82L453.46 24.82M453.46 24.82L453.71 24.82M453.71 24.82L453.83 24.82M453.83 24.82L453.95 24.82M453.95 24.82L453.95 24.82M453.95 24.82L454.44 24.82M454.44 24.82L454.44 24.82M454.44 24.82L454.94 24.82M454.94 24.82L454.94 24.82M454.94 24.82L455.01 24.82M455.01 24.82L455.01 24.82M455.01 24.82L455.09 24.82M455.09 24.82L455.09 24.82M455.09 24.82L455.38 24.88M455.38 24.88L455.38 24.88M455.38 24.88L455.85 25.13M455.85 25.13L455.85 25.13M455.85 25.13L456.2 25.52M456.2 25.52L456.2 25.52M456.2 25.52L456.38 25.93M456.38 25.93L456.38 25.93M456.38 25.93L456.41 26.08M456.41 26.08L456.41 26.08M456.41 26.08L456.42 26.16M456.42 26.16L456.42 26.16M456.42 26.16L456.43 26.23M456.43 26.23L456.43 26.23M456.43 26.23L456.43 26.31M456.43 26.31L456.43 26.31M456.43 26.31L456.43 26.6M456.43 26.6L456.43 26.6M456.43 26.6L456.43 26.74M456.43 26.74L456.43 26.88M456.43 26.88L456.43 27.03M456.43 27.03L456.43 27.17M456.43 27.17L456.43 27.3M456.43 27.3L456.43 27.3M456.43 27.3L456.43 27.42M456.43 27.42L456.43 27.67M456.43 27.67L456.43 28.18M456.43 28.18L456.43 29.18M456.43 29.18L456.43 31.2M456.43 31.2L456.43 31.5M456.43 31.5L456.43 31.58M456.43 31.58L456.43 31.58M456.43 31.58L456.43 31.65M456.43 31.65L456.43 31.81M456.43 31.81L456.43 32.42M456.43 32.42L456.43 32.72M456.43 32.72L456.43 32.8M456.43 32.8L456.43 32.8M456.43 32.8L456.43 32.88M456.43 32.88L456.43 33.03M456.43 33.03L456.43 33.64M456.43 33.64L456.43 34.86M456.43 34.86L456.43 35.17M456.43 35.17L456.43 35.24M456.43 35.24L456.43 35.24M456.43 35.24L456.43 35.32M456.43 35.32L456.43 35.47M456.43 35.47L456.43 36.09M456.43 36.09L456.43 38.53M456.43 38.53L456.43 38.53M456.43 38.53L456.43 38.68M456.43 38.68L456.43 38.84M456.43 38.84L456.43 39.14M456.43 39.14L456.43 39.75M456.43 39.75L456.43 40.97M456.43 40.97L456.43 60.86"
fill="none" stroke="black" stroke-width="0.5"/>
<path d="M462.39 60.86L462.39 40.97M462.39 40.97L462.39 18.85M462.39 18.85L429.83 18.85M429.83 18.85L370.17 18.85M370.17 18.85L337.61 18.85M337.61 18.85L337.61 40.97M337.61 40.97L337.61 60.86M337.61 60.86L337.61 82.98M337.61 82.98L370.17 82.98M370.17 82.98L429.83 82.98M429.83 82.98L462.39 82.98M462.39 82.98L462.39 60.86"
fill="none" stroke="black" stroke-width="0.5"/>
<path d="M429.83 155.07L440.66 155.07M440.66 155.07L451.49 155.07M451.49 155.07L452.23 155.07M452.23 155.07L452.97 155.07M452.97 155.07L453.21 155.07M453.21 155.07L453.46 155.07M453.46 155.07L453.71 155.07M453.71 155.07L453.83 155.07M453.83 155.07L453.95 155.07M453.95 155.07L453.95 155.07M453.95 155.07L454.44 155.07M454.44 155.07L454.44 155.07M454.44 155.07L454.94 155.07M454.94 155.07L454.94 155.07M454.94 155.07L455.01 155.08M455.01 155.08L455.01 155.08M455.01 155.08L455.09 155.08M455.09 155.08L455.09 155.08M455.09 155.08L455.38 155.14M455.38 155.14L455.38 155.14M455.38 155.14L455.85 155.39M455.85 155.39L455.85 155.39M455.85 155.39L456.2 155.78M456.2 155.78L456.2 155.78M456.2 155.78L456.38 156.19M456.38 156.19L456.38 156.19M456.38 156.19L456.41 156.34M456.41 156.34L456.41 156.34M456.41 156.34L456.42 156.42M456.42 156.42L456.42 156.42M456.42 156.42L456.43 156.49M456.43 156.49L456.43 156.49M456.43 156.49L456.43 156.57M456.43 156.57L456.43 156.57M456.43 156.57L456.44 159.07M456.44 159.07L456.44 159.07M456.44 159.07L456.43 161.57M456.43 161.57L456.43 161.57M456.43 161.57L456.43 166.58M456.43 166.58L456.43 166.89M456.43 166.89L456.43 167.2M456.43 167.2L456.43 167.83M456.43 167.83L456.43 167.83M456.43 167.83L456.43 167.91M456.43 167.91L456.43 167.99M456.43 167.99L456.43 168.14M456.43 168.14L456.43 168.46M456.43 168.46L456.43 168.77M456.43 168.77L456.43 168.92M456.43 168.92L456.43 168.92M456.43 168.92L456.43 169.08M456.43 169.08L456.43 170.33M456.43 170.33L456.43 170.49M456.43 170.49L456.43 170.49M456.43 170.49L456.43 170.65M456.43 170.65L456.43 170.96M456.43 170.96L456.43 171.11M456.43 171.11L456.43 171.11M456.43 171.11L456.43 171.27M456.43 171.27L456.43 171.58M456.43 171.58L456.43 171.9M456.43 171.9L456.43 171.97M456.43 171.97L456.43 171.97M456.43 171.97L456.43 172.05M456.43 172.05L456.43 172.21M456.43 172.21L456.43 172.84M456.43 172.84L456.43 174.09M456.43 174.09L456.43 174.71M456.43 174.71L456.43 174.87M456.43 174.87L456.43 174.87M456.43 174.87L456.43 175.03M456.43 175.03L456.43 175.34M456.43 175.34L456.43 176.59M456.43 176.59L456.43 179.09M456.43 179.09L456.43 181.6M456.43 181.6L456.43 185.35M456.43 185.35L456.43 189.1M456.43 189.1L456.43 192.86M456.43 192.86L456.43 194.74M456.43 194.74L456.43 195.67M456.43 195.67L456.43 196.14M456.43 196.14L456.43 196.38M456.43 196.38L456.43 196.5M456.43 196.5L456.43 196.5M456.43 196.5L456.43 196.61M456.43 196.61L456.43 222.46M456.43 222.46L456.43 248.31M456.43 248.31L456.43 248.31M456.43 248.31L456.43 248.41M456.43 248.41L456.43 248.51M456.43 248.51L456.43 248.71M456.43 248.71L456.43 249.11M456.43 249.11L456.43 249.92M456.43 249.92L456.43 251.54M456.43 251.54L456.43 254.77M456.43 254.77L456.43 261.23M456.43 261.23L456.43 274.15M456.43 274.15L456.43 280.61M456.43 280.61L456.43 282.23M456.43 282.23L456.43 282.63M456.43 282.63L456.43 282.74M456.43 282.74L456.43 282.74M456.43 282.74L456.43 282.84M456.43 282.84L456.43 283.04M456.43 283.04L456.43 283.85M456.43 283.85L456.43 287.08M456.43 287.08L456.43 300M456.43 300L456.43 312.92M456.43 312.92L456.43 316.15M456.43 316.15L456.43 316.96M456.43 316.96L456.43 317.16M456.43 317.16L456.43 317.16M456.43 317.16L456.43 317.26M456.43 317.26L456.43 317.37M456.43 317.37L456.43 317.77M456.43 317.77L456.43 319.39M456.43 319.39L456.43 325.85M456.43 325.85L456.43 338.77M456.43 338.77L456.43 342M456.43 342L456.43 342.81M456.43 342.81L456.43 343.01M456.43 343.01L456.43 343.01M456.43 343.01L456.43 343.11M456.43 343.11L456.43 343.21M456.43 343.21L456.43 343.62M456.43 343.62L456.43 345.23M456.43 345.23L456.43 351.69M456.43 351.69L456.43 364.62M456.43 364.62L456.43 367.85M456.43 367.85L456.43 368.66M456.43 368.66L456.43 368.86M456.43 368.86L456.43 368.86M456.43 368.86L456.43 368.96M456.43 368.96L456.43 369.06M456.43 369.06L456.43 369.46M456.43 369.46L456.43 371.08M456.43 371.08L456.43 377.54M456.43 377.54L456.43 403.39M456.43 403.39L456.43 408.39M456.43 408.39L456.43 413.4M456.43 413.4L456.43 415.9M456.43 415.9L456.43 418.4M456.43 418.4L456.43 420.91M456.43 420.91L456.43 423.41M456.43 423.41L456.43 424.66M456.43 424.66L456.43 424.97M456.43 424.97L456.43 424.97M456.43 424.97L456.43 425.13M456.43 425.13L456.43 425.29M456.43 425.29L456.43 425.91M456.43 425.91L456.43 427.16M456.43 427.16L456.43 427.79M456.43 427.79L456.43 427.95M456.43 427.95L456.43 427.95M456.43 427.95L456.43 428.03M456.43 428.03L456.43 428.1M456.43 428.1L456.43 428.42M456.43 428.42L456.43 428.73M456.43 428.73L456.43 428.73M456.43 428.73L456.43 428.89M456.43 428.89L456.43 429.04M456.43 429.04L456.43 429.35M456.43 429.35L456.43 429.35M456.43 429.35L456.43 429.51M456.43 429.51L456.43 429.67M456.43 429.67L456.43 430.92M456.43 430.92L456.43 430.92M456.43 430.92L456.43 431.08M456.43 431.08L456.43 431.23M456.43 431.23L456.43 431.54M456.43 431.54L456.43 431.86M456.43 431.86L456.43 432.01M456.43 432.01L456.43 432.09M456.43 432.09L456.43 432.09M456.43 432.09L456.43 432.17M456.43 432.17L456.43 432.8M456.43 432.8L456.43 433.11M456.43 433.11L456.43 433.42M456.43 433.42L456.43 433.42M456.43 433.42L456.43 438.43M456.43 438.43L456.43 438.43M456.43 438.43L456.44 440.93M456.44 440.93L456.44 440.93M456.44 440.93L456.43 443.43M456.43 443.43L456.43 443.43M456.43 443.43L456.43 443.51M456.43 443.51L456.43 443.51M456.43 443.51L456.42 443.58M456.42 443.58L456.42 443.58M456.42 443.58L456.38 443.81M456.38 443.81L456.38 443.81M456.38 443.81L456.16 444.29M456.16 444.29L456.16 444.29M456.16 444.29L455.85 444.61M455.85 444.61L455.85 444.61M455.85 444.61L455.46 444.83M455.46 444.83L455.46 444.83M455.46 444.83L455.16 444.91M455.16 444.91L455.16 444.91M455.16 444.91L455.09 444.92M455.09 444.92L455.09 444.92M455.09 444.92L455.01 444.92M455.01 444.92L455.01 444.92M455.01 444.92L454.94 444.93M454.94 444.93L454.94 444.93M454.94 444.93L454.44 444.93M454.44 444.93L454.44 444.93M454.44 444.93L454.2 444.92M454.2 444.92L454.14 444.92M454.14 444.92L454.14 444.92M454.14 444.92L454.08 444.93M454.08 444.93L453.95 444.93M453.95 444.93L453.95 444.93M453.95 444.93L453.71 444.93M453.71 444.93L453.46 444.93M453.46 444.93L453.21 444.93M453.21 444.93L452.97 444.93M452.97 444.93L452.61 444.93M452.61 444.93L452.52 444.93M452.52 444.93L452.52 444.93M452.52 444.93L452.43 444.93M452.43 444.93L452.25 444.93M452.25 444.93L451.52 444.93M451.52 444.93L451.16 444.93M451.16 444.93L451.07 444.93M451.07 444.93L451.07 444.93M451.07 444.93L450.98 444.93M450.98 444.93L450.8 444.93M450.8 444.93L450.08 444.93M450.08 444.93L448.63 444.93M448.63 444.93L447.91 444.93M447.91 444.93L447.91 444.93M447.91 444.93L447.18 444.93M447.18 444.93L447.18 444.93M447.18 444.93L447.09 444.93M447.09 444.93L447 444.93M447 444.93L446.82 444.93M446.82 444.93L446.46 444.93M446.46 444.93L445.74 444.93M445.74 444.93L444.29 444.93M444.29 444.93L443.57 444.93M443.57 444.93L443.39 444.93M443.39 444.93L443.39 444.93M443.39 444.93L443.21 444.93M443.21 444.93L442.85 444.93M442.85 444.93L441.4 444.93M441.4 444.93L438.51 444.93M438.51 444.93L437.78 444.93M437.78 444.93L437.6 444.93M437.6 444.93L437.6 444.93M437.6 444.93L437.51 444.93M437.51 444.93L437.51 444.93M437.51 444.93L437.42 444.93M437.42 444.93L437.06 444.93M437.06 444.93L435.61 444.93M435.61 444.93L434.17 444.93M434.17 444.93L433.81 444.93M433.81 444.93L433.81 444.93M433.81 444.93L433.63 444.93M433.63 444.93L433.45 444.93M433.45 444.93L432.72 444.93M432.72 444.93L429.83 444.93M429.83 444.93L370.17 444.93M370.17 444.93L359.34 444.93M359.34 444.93L348.51 444.93M348.51 444.93L348.32 444.93M348.32 444.93L348.32 444.93M348.32 444.93L348.23 444.93M348.23 444.93L348.14 444.93M348.14 444.93L347.77 444.93M347.77 444.93L347.4 444.93M347.4 444.93L347.4 444.93M347.4 444.93L347.22 444.93M347.22 444.93L347.03 444.93M347.03 444.93L346.79 444.93M346.79 444.93L346.54 444.93M346.54 444.93L346.29 444.93M346.29 444.93L346.29 444.93M346.29 444.93L346.05 444.93M346.05 444.93L345.92 444.93M345.92 444.93L345.92 444.93M345.92 444.93L345.86 444.92M345.86 444.92L345.8 444.92M345.8 444.92L345.8 444.92M345.8 444.92L345.55 444.93M345.55 444.93L345.55 444.93M345.55 444.93L345.06 444.93M345.06 444.93L345.06 444.93M345.06 444.93L344.99 444.92M344.99 444.92L344.99 444.92M344.99 444.92L344.91 444.92M344.91 444.92L344.91 444.92M344.91 444.92L344.62 444.86M344.62 444.86L344.62 444.86M344.62 444.86L344.15 444.61M344.15 444.61L344.15 444.61M344.15 444.61L343.8 444.22M343.8 444.22L343.8 444.22M343.8 444.22L343.62 443.81M343.62 443.81L343.62 443.81M343.62 443.81L343.59 443.66M343.59 443.66L343.59 443.66M343.59 443.66L343.58 443.58M343.58 443.58L343.58 443.58M343.58 443.58L343.57 443.51M343.57 443.51L343.57 443.51M343.57 443.51L343.57 443.43M343.57 443.43L343.57 443.43M343.57 443.43L343.56 440.93M343.56 440.93L343.56 440.93M343.56 440.93L343.57 438.43M343.57 438.43L343.57 438.43M343.57 438.43L343.57 433.42M343.57 433.42L343.57 433.11M343.57 433.11L343.57 432.8M343.57 432.8L343.57 432.17M343.57 432.17L343.57 432.17M343.57 432.17L343.57 432.09M343.57 432.09L343.57 432.01M343.57 432.01L343.57 431.86M343.57 431.86L343.57 431.54M343.57 431.54L343.57 431.23M343.57 431.23L343.57 431.08M343.57 431.08L343.57 431.08M343.57 431.08L343.57 430.92M343.57 430.92L343.57 429.67M343.57 429.67L343.57 429.51M343.57 429.51L343.57 429.51M343.57 429.51L343.57 429.35M343.57 429.35L343.57 429.04M343.57 429.04L343.57 428.89M343.57 428.89L343.57 428.89M343.57 428.89L343.57 428.73M343.57 428.73L343.57 428.42M343.57 428.42L343.57 428.1M343.57 428.1L343.57 428.03M343.57 428.03L343.57 428.03M343.57 428.03L343.57 427.95M343.57 427.95L343.57 427.79M343.57 427.79L343.57 427.16M343.57 427.16L343.57 425.91M343.57 425.91L343.57 425.29M343.57 425.29L343.57 425.13M343.57 425.13L343.57 425.13M343.57 425.13L343.57 424.97M343.57 424.97L343.57 424.66M343.57 424.66L343.57 423.41M343.57 423.41L343.57 420.91M343.57 420.91L343.57 418.4M343.57 418.4L343.57 414.65M343.57 414.65L343.57 410.9M343.57 410.9L343.57 407.14M343.57 407.14L343.57 405.26M343.57 405.26L343.57 404.33M343.57 404.33L343.57 403.86M343.57 403.86L343.57 403.62M343.57 403.62L343.57 403.5M343.57 403.5L343.57 403.5M343.57 403.5L343.57 403.39M343.57 403.39L343.57 377.54M343.57 377.54L343.57 351.69M343.57 351.69L343.57 351.69M343.57 351.69L343.57 351.59M343.57 351.59L343.57 351.49M343.57 351.49L343.57 351.29M343.57 351.29L343.57 350.89M343.57 350.89L343.57 350.08M343.57 350.08L343.57 348.46M343.57 348.46L343.57 345.23M343.57 345.23L343.57 338.77M343.57 338.77L343.57 325.85M343.57 325.85L343.57 319.39M343.57 319.39L343.57 317.77M343.57 317.77L343.57 317.37M343.57 317.37L343.57 317.26M343.57 317.26L343.57 317.26M343.57 317.26L343.57 317.16M343.57 317.16L343.57 316.96M343.57 316.96L343.57 316.15M343.57 316.15L343.57 312.92M343.57 312.92L343.57 300M343.57 300L343.57 287.08M343.57 287.08L343.57 283.85M343.57 283.85L343.57 283.04M343.57 283.04L343.57 282.84M343.57 282.84L343.57 282.84M343.57 282.84L343.57 282.74M343.57 282.74L343.57 282.63M343.57 282.63L343.57 282.23M343.57 282.23L343.57 280.61M343.57 280.61L343.57 274.15M343.57 274.15L343.57 261.23M343.57 261.23L343.57 258M343.57 258L343.57 257.19M343.57 257.19L343.57 256.99M343.57 256.99L343.57 256.99M343.57 256.99L343.57 256.89M343.57 256.89L343.57 256.79M343.57 256.79L343.57 256.38M343.57 256.38L343.57 254.77M343.57 254.77L343.57 248.31M343.57 248.31L343.57 196.61M343.57 196.61L343.57 191.61M343.57 191.61L343.57 186.6M343.57 186.6L343.57 184.1M343.57 184.1L343.57 181.6M343.57 181.6L343.57 181.6M343.57 181.6L343.57 181.52M343.57 181.52L343.57 181.44M343.57 181.44L343.57 181.28M343.57 181.28L343.57 180.97M343.57 180.97L343.57 180.34M343.57 180.34L343.57 179.09M343.57 179.09L343.57 177.84M343.57 177.84L343.57 177.22M343.57 177.22L343.57 176.9M343.57 176.9L343.57 176.75M343.57 176.75L343.57 176.67M343.57 176.67L343.57 176.67M343.57 176.67L343.57 176.59M343.57 176.59L343.57 176.59M343.57 176.59L343.57 176.51M343.57 176.51L343.57 176.43M343.57 176.43L343.57 176.28M343.57 176.28L343.57 175.96M343.57 175.96L343.57 175.34M343.57 175.34L343.57 174.09M343.57 174.09L343.57 172.84M343.57 172.84L343.57 172.21M343.57 172.21L343.57 171.9M343.57 171.9L343.57 171.74M343.57 171.74L343.57 171.66M343.57 171.66L343.57 171.66M343.57 171.66L343.57 171.58M343.57 171.58L343.57 170.33M343.57 170.33L343.57 170.02M343.57 170.02L343.57 170.02M343.57 170.02L343.57 169.86M343.57 169.86L343.57 169.71M343.57 169.71L343.57 169.08M343.57 169.08L343.57 168.77M343.57 168.77L343.57 168.77M343.57 168.77L343.57 168.61M343.57 168.61L343.57 168.46M343.57 168.46L343.57 168.14M343.57 168.14L343.57 167.99M343.57 167.99L343.57 167.91M343.57 167.91L343.57 167.91M343.57 167.91L343.57 167.83M343.57 167.83L343.57 167.83M343.57 167.83L343.57 167.2M343.57 167.2L343.57 167.2M343.57 167.2L343.57 166.58M343.57 166.58L343.57 166.58M343.57 166.58L343.57 161.57M343.57 161.57L343.57 161.57M343.57 161.57L343.57 160.32M343.57 160.32L343.57 160.32M343.57 160.32L343.56 159.07M343.56 159.07L343.56 159.07M343.56 159.07L343.57 156.57M343.57 156.57L343.57 156.57M343.57 156.57L343.57 156.49M343.57 156.49L343.57 156.49M343.57 156.49L343.58 156.42M343.58 156.42L343.58 156.42M343.58 156.42L343.62 156.19M343.62 156.19L343.62 156.19M343.62 156.19L343.84 155.71M343.84 155.71L343.84 155.71M343.84 155.71L344.15 155.39M344.15 155.39L344.15 155.39M344.15 155.39L344.54 155.17M344.54 155.17L344.54 155.17M344.54 155.17L344.84 155.09M344.84 155.09L344.84 155.09M344.84 155.09L344.91 155.08M344.91 155.08L344.91 155.08M344.91 155.08L344.99 155.08M344.99 155.08L344.99 155.08M344.99 155.08L345.06 155.07M345.06 155.07L345.06 155.07M345.06 155.07L345.55 155.07M345.55 155.07L345.55 155.07M345.55 155.07L346.05 155.07M346.05 155.07L346.17 155.07M346.17 155.07L346.29 155.07M346.29 155.07L346.54 155.07M346.54 155.07L346.79 155.07M346.79 155.07L347.03 155.07M347.03 155.07L349.92 155.07M349.92 155.07L352.82 155.07M352.82 155.07L355.71 155.07M355.71 155.07L358.6 155.07M358.6 155.07L364.39 155.07M364.39 155.07L370.17 155.07M370.17 155.07L429.83 155.07"
fill="none" stroke="black" stroke-width="0.5"/>
<path d="M429.83 149.11L370.17 149.11M370.17 149.11L337.61 149.11M337.61 149.11L337.61 450.89M337.61 450.89L370.17 450.89M370.17 450.89L429.83 450.89M429.83 450.89L462.39 450.89M462.39 450.89L462.39 149.11M462.39 149.11L429.83 149.11"
fill="none" stroke="black" stroke-width="0.5"/>
<path d="M429.83 133.45L370.17 133.45M370.17 133.45L350.55 133.45M350.55 133.45L330.92 133.45M330.92 133.45L330.03 133.45M330.03 133.45L329.14 133.45M329.14 133.45L328.69 133.45M328.69 133.45L328.47 133.45M328.47 133.45L328.25 133.45M328.25 133.45L327.8 133.45M327.8 133.45L327.35 133.45M327.35 133.45L326.91 133.45M326.91 133.45L326.69 133.45M326.69 133.45L326.46 133.45M326.46 133.45L326.46 133.45M326.46 133.45L326.24 133.45M326.24 133.45L326.02 133.45M326.02 133.45L326.02 133.45M326.02 133.45L325.57 133.45M325.57 133.45L325.57 133.45M325.57 133.45L324.68 133.45M324.68 133.45L324.68 133.45M324.68 133.45L324.62 133.45M324.62 133.45L324.62 133.45M324.62 133.45L324.55 133.44M324.55 133.44L324.55 133.44M324.55 133.44L324.37 133.4M324.37 133.4L324.37 133.4M324.37 133.4L324.05 133.22M324.05 133.22L324.05 133.22M324.05 133.22L323.81 132.93M323.81 132.93L323.81 132.93M323.81 132.93L323.7 132.64M323.7 132.64L323.7 132.64M323.7 132.64L323.69 132.58M323.69 132.58L323.69 132.58M323.69 132.58L323.69 132.52M323.69 132.52L323.69 132.52M323.69 132.52L323.69 132.48M323.69 132.48L323.68 132.45M323.68 132.45L323.68 132.45M323.68 132.45L323.68 131.81M323.68 131.81L323.68 131.81M323.68 131.81L323.68 131.17M323.68 131.17L323.68 131.17M323.68 131.17L323.68 130.84M323.68 130.84L323.68 130.52M323.68 130.52L323.68 130.52M323.68 130.52L323.68 130.2M323.68 130.2L323.68 129.88M323.68 129.88L323.68 129.88M323.68 129.88L323.68 128.35M323.68 128.35L323.68 128.35M323.68 128.35L323.68 126.82M323.68 126.82L323.68 126.82M323.68 126.82L323.68 126.73M323.68 126.73L323.68 126.63M323.68 126.63L323.68 126.44M323.68 126.44L323.68 126.06M323.68 126.06L323.68 125.3M323.68 125.3L323.68 123.77M323.68 123.77L323.68 120.71M323.68 120.71L323.68 119.18M323.68 119.18L323.68 118.42M323.68 118.42L323.68 118.04M323.68 118.04L323.68 117.85M323.68 117.85L323.68 117.85M323.68 117.85L323.68 117.66M323.68 117.66L323.68 111.54M323.68 111.54L323.68 108.49M323.68 108.49L323.68 108.49M323.68 108.49L323.68 108.39M323.68 108.39L323.68 108.3M323.68 108.3L323.68 108.1M323.68 108.1L323.68 107.72M323.68 107.72L323.68 106.96M323.68 106.96L323.68 105.43M323.68 105.43L323.68 104.79M323.68 104.79L323.68 104.47M323.68 104.47L323.68 104.3M323.68 104.3L323.68 104.22M323.68 104.22L323.68 104.22M323.68 104.22L323.68 104.14M323.68 104.14L323.68 104.14M323.68 104.14L323.68 104.06M323.68 104.06L323.68 103.98M323.68 103.98L323.68 103.82M323.68 103.82L323.68 103.5M323.68 103.5L323.68 102.86M323.68 102.86L323.68 102.54M323.68 102.54L323.68 102.21M323.68 102.21L323.68 101.89M323.68 101.89L323.68 101.57M323.68 101.57L323.68 101.25M323.68 101.25L323.68 101.25M323.68 101.25L323.68 100.93M323.68 100.93L323.68 100.93M323.68 100.93L323.68 100.28M323.68 100.28L323.68 100.28M323.68 100.28L323.68 99.64M323.68 99.64L323.68 99.64M323.68 99.64L323.69 99.58M323.69 99.58L323.69 99.58M323.69 99.58L323.69 99.52M323.69 99.52L323.69 99.52M323.69 99.52L323.75 99.27M323.75 99.27L323.75 99.27M323.75 99.27L323.95 98.96M323.95 98.96L323.95 98.96M323.95 98.96L324.26 98.74M324.26 98.74L324.26 98.74M324.26 98.74L324.49 98.66M324.49 98.66L324.49 98.66M324.49 98.66L324.55 98.65M324.55 98.65L324.55 98.65M324.55 98.65L324.62 98.65M324.62 98.65L324.62 98.65M324.62 98.65L324.68 98.65M324.68 98.65L324.68 98.65M324.68 98.65L325.57 98.65M325.57 98.65L325.57 98.65M325.57 98.65L326.46 98.65M326.46 98.65L326.91 98.65M326.91 98.65L327.35 98.65M327.35 98.65L327.35 98.65M327.35 98.65L328.25 98.65M328.25 98.65L330.48 98.65M330.48 98.65L331.59 98.65M331.59 98.65L332.71 98.65M332.71 98.65L337.39 98.65M337.39 98.65L342.07 98.65M342.07 98.65L346.76 98.65M346.76 98.65L351.44 98.65M351.44 98.65L360.8 98.65M360.8 98.65L365.49 98.65M365.49 98.65L370.17 98.65M370.17 98.65L429.83 98.65M429.83 98.65L449.45 98.65M449.45 98.65L469.08 98.65M469.08 98.65L469.97 98.65M469.97 98.65L470.86 98.65M470.86 98.65L471.31 98.65M471.31 98.65L471.75 98.65M471.75 98.65L472.2 98.65M472.2 98.65L472.42 98.65M472.42 98.65L472.65 98.65M472.65 98.65L472.65 98.65M472.65 98.65L473.54 98.65M473.54 98.65L473.54 98.65M473.54 98.65L474.43 98.65M474.43 98.65L474.43 98.65M474.43 98.65L475.32 98.65M475.32 98.65L475.32 98.65M475.32 98.65L475.38 98.65M475.38 98.65L475.38 98.65M475.38 98.65L475.45 98.65M475.45 98.65L475.45 98.65M475.45 98.65L475.63 98.69M475.63 98.69L475.63 98.69M475.63 98.69L475.96 98.87M475.96 98.87L475.96 98.87M475.96 98.87L476.19 99.16M476.19 99.16L476.19 99.16M476.19 99.16L476.3 99.45M476.3 99.45L476.3 99.45M476.3 99.45L476.31 99.52M476.31 99.52L476.31 99.52M476.31 99.52L476.31 99.58M476.31 99.58L476.31 99.58M476.31 99.58L476.32 99.64M476.32 99.64L476.32 99.64M476.32 99.64L476.32 100.28M476.32 100.28L476.32 100.28M476.32 100.28L476.32 100.93M476.32 100.93L476.32 100.93M476.32 100.93L476.32 101.25M476.32 101.25L476.32 101.57M476.32 101.57L476.32 101.89M476.32 101.89L476.32 102.21M476.32 102.21L476.32 103.74M476.32 103.74L476.32 105.27M476.32 105.27L476.32 108.33M476.32 108.33L476.32 108.33M476.32 108.33L476.32 108.42M476.32 108.42L476.32 108.52M476.32 108.52L476.32 108.71M476.32 108.71L476.32 109.09M476.32 109.09L476.32 109.85M476.32 109.85L476.32 111.38M476.32 111.38L476.32 112.15M476.32 112.15L476.32 112.34M476.32 112.34L476.32 112.34M476.32 112.34L476.32 112.53M476.32 112.53L476.32 112.91M476.32 112.91L476.32 114.44M476.32 114.44L476.32 115.97M476.32 115.97L476.32 116.35M476.32 116.35L476.32 116.35M476.32 116.35L476.32 116.54M476.32 116.54L476.32 116.73M476.32 116.73L476.32 117.49M476.32 117.49L476.32 119.02M476.32 119.02L476.32 119.4M476.32 119.4L476.32 119.4M476.32 119.4L476.32 119.6M476.32 119.6L476.32 119.79M476.32 119.79L476.32 120.55M476.32 120.55L476.32 122.08M476.32 122.08L476.32 122.46M476.32 122.46L476.32 122.46M476.32 122.46L476.32 122.65M476.32 122.65L476.32 122.84M476.32 122.84L476.32 123.61M476.32 123.61L476.32 126.66M476.32 126.66L476.32 127.95M476.32 127.95L476.32 129.24M476.32 129.24L476.32 129.56M476.32 129.56L476.32 129.88M476.32 129.88L476.32 130.2M476.32 130.2L476.32 130.52M476.32 130.52L476.32 130.84M476.32 130.84L476.32 130.84M476.32 130.84L476.32 131.17M476.32 131.17L476.32 131.17M476.32 131.17L476.32 131.81M476.32 131.81L476.32 131.81M476.32 131.81L476.32 132.45M476.32 132.45L476.32 132.45M476.32 132.45L476.31 132.52M476.31 132.52L476.31 132.52M476.31 132.52L476.31 132.58M476.31 132.58L476.31 132.58M476.31 132.58L476.27 132.76M476.27 132.76L476.27 132.76M476.27 132.76L476.09 133.09M476.09 133.09L476.09 133.09M476.09 133.09L475.8 133.32M475.8 133.32L475.8 133.32M475.8 133.32L475.51 133.43M475.51 133.43L475.51 133.43M475.51 133.43L475.45 133.44M475.45 133.44L475.45 133.44M475.45 133.44L475.38 133.45M475.38 133.45L475.38 133.45M475.38 133.45L475.32 133.45M475.32 133.45L475.32 133.45M475.32 133.45L474.43 133.45M474.43 133.45L474.43 133.45M474.43 133.45L473.54 133.45M473.54 133.45L473.54 133.45M473.54 133.45L472.65 133.45M472.65 133.45L472.2 133.45M472.2 133.45L471.75 133.45M471.75 133.45L470.64 133.45M470.64 133.45L469.52 133.45M469.52 133.45L468.41 133.45M468.41 133.45L467.29 133.45M467.29 133.45L462.61 133.45M462.61 133.45L457.93 133.45M457.93 133.45L453.24 133.45M453.24 133.45L448.56 133.45M448.56 133.45L439.2 133.45M439.2 133.45L434.51 133.45M434.51 133.45L429.83 133.45"
fill="none" stroke="black" stroke-width="0.5"/>
<path d="M476.32 40.97L476.32 60.86M476.32 60.86L476.32 96.91M476.32 96.91L429.83 96.91M429.83 96.91L370.17 96.91M370.17 96.91L323.68 96.91M323.68 96.91L323.68 60.86M323.68 60.86L323.68 40.97M323.68 40.97L323.68 4.93M323.68 4.93L370.17 4.93M370.17 4.93L429.83 4.93M429.83 4.93L476.32 4.93M476.32 4.93L476.32 40.97"
fill="none" stroke="black" stroke-width="0.5"/>
<path d="M429.83 466.55L449.45 466.55M449.45 466.55L469.08 466.55M469.08 466.55L469.97 466.55M469.97 466.55L470.86 466.55M470.86 466.55L471.31 466.55M471.31 466.55L471.75 466.55M471.75 466.55L472.2 466.55M472.2 466.55L472.65 466.55M472.65 466.55L472.65 466.55M472.65 466.55L473.54 466.55M473.54 466.55L473.54 466.55M473.54 466.55L474.43 466.55M474.43 466.55L474.43 466.55M474.43 466.55L475.32 466.55M475.32 466.55L475.32 466.55M475.32 466.55L475.38 466.55M475.38 466.55L475.38 466.55M475.38 466.55L475.45 466.56M475.45 466.56L475.45 466.56M475.45 466.56L475.63 466.6M475.63 466.6L475.63 466.6M475.63 466.6L475.96 466.78M475.96 466.78L475.96 466.78M475.96 466.78L476.19 467.07M476.19 467.07L476.19 467.07M476.19 467.07L476.3 467.36M476.3 467.36L476.3 467.36M476.3 467.36L476.31 467.42M476.31 467.42L476.31 467.42M476.31 467.42L476.31 467.48M476.31 467.48L476.31 467.48M476.31 467.48L476.32 467.55M476.32 467.55L476.32 467.55M476.32 467.55L476.32 468.19M476.32 468.19L476.32 468.19M476.32 468.19L476.32 468.83M476.32 468.83L476.32 468.83M476.32 468.83L476.32 469.15M476.32 469.15L476.32 469.48M476.32 469.48L476.32 469.8M476.32 469.8L476.32 470.12M476.32 470.12L476.32 471.65M476.32 471.65L476.32 473.18M476.32 473.18L476.32 476.23M476.32 476.23L476.32 476.23M476.32 476.23L476.32 476.33M476.32 476.33L476.32 476.42M476.32 476.42L476.32 476.61M476.32 476.61L476.32 477M476.32 477L476.32 477.76M476.32 477.76L476.32 479.29M476.32 479.29L476.32 480.05M476.32 480.05L476.32 480.24M476.32 480.24L476.32 480.24M476.32 480.24L476.32 480.43M476.32 480.43L476.32 480.82M476.32 480.82L476.32 482.34M476.32 482.34L476.32 483.87M476.32 483.87L476.32 484.25M476.32 484.25L476.32 484.25M476.32 484.25L476.32 484.45M476.32 484.45L476.32 484.64M476.32 484.64L476.32 485.4M476.32 485.4L476.32 486.93M476.32 486.93L476.32 487.31M476.32 487.31L476.32 487.31M476.32 487.31L476.32 487.5M476.32 487.5L476.32 487.69M476.32 487.69L476.32 488.46M476.32 488.46L476.32 489.98M476.32 489.98L476.32 490.37M476.32 490.37L476.32 490.37M476.32 490.37L476.32 490.56M476.32 490.56L476.32 490.75M476.32 490.75L476.32 491.51M476.32 491.51L476.32 494.57M476.32 494.57L476.32 495.86M476.32 495.86L476.32 497.14M476.32 497.14L476.32 497.46M476.32 497.46L476.32 497.79M476.32 497.79L476.32 498.11M476.32 498.11L476.32 498.43M476.32 498.43L476.32 498.75M476.32 498.75L476.32 498.75M476.32 498.75L476.32 499.07M476.32 499.07L476.32 499.07M476.32 499.07L476.32 499.72M476.32 499.72L476.32 499.72M476.32 499.72L476.32 500.36M476.32 500.36L476.32 500.36M476.32 500.36L476.31 500.42M476.31 500.42L476.31 500.42M476.31 500.42L476.31 500.48M476.31 500.48L476.31 500.48M476.31 500.48L476.27 500.67M476.27 500.67L476.27 500.67M476.27 500.67L476.09 500.99M476.09 500.99L476.09 500.99M476.09 500.99L475.8 501.23M475.8 501.23L475.8 501.23M475.8 501.23L475.51 501.34M475.51 501.34L475.51 501.34M475.51 501.34L475.45 501.35M475.45 501.35L475.45 501.35M475.45 501.35L475.38 501.35M475.38 501.35L475.38 501.35M475.38 501.35L475.35 501.35M475.35 501.35L475.32 501.35M475.32 501.35L475.32 501.35M475.32 501.35L474.43 501.35M474.43 501.35L474.43 501.35M474.43 501.35L473.54 501.35M473.54 501.35L473.54 501.35M473.54 501.35L473.09 501.35M473.09 501.35L472.65 501.35M472.65 501.35L472.65 501.35M472.65 501.35L472.2 501.35M472.2 501.35L471.75 501.35M471.75 501.35L470.64 501.35M470.64 501.35L469.52 501.35M469.52 501.35L468.41 501.35M468.41 501.35L468.13 501.35M468.13 501.35L468.13 501.35M468.13 501.35L467.85 501.35M467.85 501.35L467.29 501.35M467.29 501.35L466.71 501.35M466.71 501.35L466.56 501.35M466.56 501.35L466.56 501.35M466.56 501.35L466.42 501.35M466.42 501.35L466.12 501.35M466.12 501.35L464.95 501.35M464.95 501.35L464.95 501.35M464.95 501.35L462.61 501.35M462.61 501.35L462.61 501.35M462.61 501.35L457.93 501.35M457.93 501.35L457.93 501.35M457.93 501.35L457.78 501.35M457.78 501.35L457.63 501.35M457.63 501.35L457.34 501.35M457.34 501.35L456.76 501.35M456.76 501.35L455.59 501.35M455.59 501.35L453.24 501.35M453.24 501.35L452.07 501.35M452.07 501.35L451.78 501.35M451.78 501.35L451.78 501.35M451.78 501.35L451.49 501.35M451.49 501.35L450.9 501.35M450.9 501.35L448.56 501.35M448.56 501.35L446.22 501.35M446.22 501.35L445.63 501.35M445.63 501.35L445.63 501.35M445.63 501.35L445.34 501.35M445.34 501.35L445.05 501.35M445.05 501.35L443.88 501.35M443.88 501.35L441.54 501.35M441.54 501.35L440.95 501.35M440.95 501.35L440.95 501.35M440.95 501.35L440.66 501.35M440.66 501.35L440.37 501.35M440.37 501.35L439.19 501.35M439.19 501.35L436.85 501.35M436.85 501.35L436.27 501.35M436.27 501.35L436.27 501.35M436.27 501.35L435.98 501.35M435.98 501.35L435.68 501.35M435.68 501.35L434.51 501.35M434.51 501.35L429.83 501.35M429.83 501.35L370.17 501.35M370.17 501.35L350.55 501.35M350.55 501.35L340.73 501.35M340.73 501.35L330.92 501.35M330.92 501.35L330.03 501.35M330.03 501.35L329.14 501.35M329.14 501.35L328.69 501.35M328.69 501.35L328.25 501.35M328.25 501.35L328.25 501.35M328.25 501.35L327.35 501.35M327.35 501.35L326.91 501.35M326.91 501.35L326.91 501.35M326.91 501.35L326.46 501.35M326.46 501.35L326.46 501.35M326.46 501.35L325.57 501.35M325.57 501.35L325.57 501.35M325.57 501.35L324.68 501.35M324.68 501.35L324.65 501.35M324.65 501.35L324.65 501.35M324.65 501.35L324.62 501.35M324.62 501.35L324.62 501.35M324.62 501.35L324.55 501.35M324.55 501.35L324.55 501.35M324.55 501.35L324.37 501.31M324.37 501.31L324.37 501.31M324.37 501.31L324.05 501.13M324.05 501.13L324.05 501.13M324.05 501.13L323.81 500.84M323.81 500.84L323.81 500.84M323.81 500.84L323.7 500.55M323.7 500.55L323.7 500.55M323.7 500.55L323.69 500.48M323.69 500.48L323.69 500.48M323.69 500.48L323.69 500.42M323.69 500.42L323.69 500.42M323.69 500.42L323.68 500.36M323.68 500.36L323.68 500.36M323.68 500.36L323.68 499.72M323.68 499.72L323.68 499.72M323.68 499.72L323.68 499.07M323.68 499.07L323.68 499.07M323.68 499.07L323.68 498.99M323.68 498.99L323.68 498.99M323.68 498.99L323.68 498.91M323.68 498.91L323.68 498.75M323.68 498.75L323.68 498.67M323.68 498.67L323.68 498.67M323.68 498.67L323.68 498.59M323.68 498.59L323.68 498.43M323.68 498.43L323.68 498.11M323.68 498.11L323.68 497.79M323.68 497.79L323.68 497.44M323.68 497.44L323.68 497.36M323.68 497.36L323.68 497.36M323.68 497.36L323.68 497.27M323.68 497.27L323.68 497.1M323.68 497.1L323.68 496.42M323.68 496.42L323.68 496.08M323.68 496.08L323.68 495.99M323.68 495.99L323.68 495.99M323.68 495.99L323.68 495.91M323.68 495.91L323.68 495.74M323.68 495.74L323.68 495.05M323.68 495.05L323.68 493.68M323.68 493.68L323.68 493M323.68 493L323.68 492.66M323.68 492.66L323.68 492.49M323.68 492.49L323.68 492.49M323.68 492.49L323.68 492.32M323.68 492.32L323.68 489.58M323.68 489.58L323.68 488.9M323.68 488.9L323.68 488.73M323.68 488.73L323.68 488.73M323.68 488.73L323.68 488.56M323.68 488.56L323.68 488.22M323.68 488.22L323.68 486.85M323.68 486.85L323.68 485.88M323.68 485.88L323.68 485.64M323.68 485.64L323.68 485.64M323.68 485.64L323.68 485.4M323.68 485.4L323.68 484.92M323.68 484.92L323.68 482.99M323.68 482.99L323.68 481.06M323.68 481.06L323.68 480.09M323.68 480.09L323.68 479.61M323.68 479.61L323.68 479.37M323.68 479.37L323.68 479.25M323.68 479.25L323.68 479.25M323.68 479.25L323.68 479.13M323.68 479.13L323.68 475.27M323.68 475.27L323.68 475.27M323.68 475.27L323.68 475.03M323.68 475.03L323.68 474.78M323.68 474.78L323.68 474.3M323.68 474.3L323.68 473.34M323.68 473.34L323.68 471.41M323.68 471.41L323.68 470.76M323.68 470.76L323.68 470.12M323.68 470.12L323.68 469.8M323.68 469.8L323.68 469.48M323.68 469.48L323.68 469.15M323.68 469.15L323.68 469.15M323.68 469.15L323.68 468.83M323.68 468.83L323.68 468.83M323.68 468.83L323.68 468.19M323.68 468.19L323.68 468.19M323.68 468.19L323.68 467.55M323.68 467.55L323.69 467.52M323.69 467.52L323.69 467.52M323.69 467.52L323.69 467.48M323.69 467.48L323.69 467.48M323.69 467.48L323.69 467.42M323.69 467.42L323.69 467.42M323.69 467.42L323.73 467.24M323.73 467.24L323.73 467.24M323.73 467.24L323.91 466.91M323.91 466.91L323.91 466.91M323.91 466.91L324.2 466.67M324.2 466.67L324.2 466.67M324.2 466.67L324.49 466.57M324.49 466.57L324.49 466.57M324.49 466.57L324.55 466.56M324.55 466.56L324.55 466.56M324.55 466.56L324.62 466.55M324.62 466.55L324.62 466.55M324.62 466.55L324.68 466.55M324.68 466.55L324.68 466.55M324.68 466.55L325.57 466.55M325.57 466.55L325.57 466.55M325.57 466.55L326.46 466.55M326.46 466.55L326.46 466.55M326.46 466.55L327.35 466.55M327.35 466.55L327.8 466.55M327.8 466.55L328.25 466.55M328.25 466.55L328.58 466.55M328.58 466.55L328.66 466.55M328.66 466.55L328.66 466.55M328.66 466.55L328.75 466.55M328.75 466.55L328.92 466.55M328.92 466.55L329.58 466.55M329.58 466.55L330.92 466.55M330.92 466.55L331.59 466.55M331.59 466.55L331.76 466.55M331.76 466.55L331.76 466.55M331.76 466.55L331.84 466.55M331.84 466.55L331.93 466.55M331.93 466.55L332.26 466.55M332.26 466.55L333.6 466.55M333.6 466.55L335.88 466.55M335.88 466.55L338.17 466.55M338.17 466.55L338.17 466.55M338.17 466.55L338.31 466.55M338.31 466.55L338.46 466.55M338.46 466.55L338.74 466.55M338.74 466.55L339.31 466.55M339.31 466.55L340.46 466.55M340.46 466.55L342.74 466.55M342.74 466.55L351.88 466.55M351.88 466.55L354.17 466.55M354.17 466.55L354.74 466.55M354.74 466.55L354.74 466.55M354.74 466.55L355.03 466.55M355.03 466.55L355.31 466.55M355.31 466.55L356.46 466.55M356.46 466.55L358.74 466.55M358.74 466.55L359.31 466.55M359.31 466.55L359.31 466.55M359.31 466.55L359.6 466.55M359.6 466.55L359.88 466.55M359.88 466.55L361.03 466.55M361.03 466.55L363.31 466.55M363.31 466.55L363.88 466.55M363.88 466.55L363.88 466.55M363.88 466.55L364.17 466.55M364.17 466.55L364.46 466.55M364.46 466.55L365.6 466.55M365.6 466.55L370.17 466.55M370.17 466.55L429.83 466.55"
fill="none" stroke="black" stroke-width="0.5"/>
<path d="M429.83 595.07L370.17 595.07M370.17 595.07L323.68 595.07M323.68 595.07L323.68 559.03M323.68 559.03L323.68 539.14M323.68 539.14L323.68 503.09M323.68 503.09L370.17 503.09M370.17 503.09L429.83 503.09M429.83 503.09L476.32 503.09M476.32 503.09L476.32 539.14M476.32 539.14L476.32 559.03M476.32 559.03L476.32 595.07M476.32 595.07L429.83 595.07"
fill="none" stroke="black" stroke-width="0.5"/>
<path d="M478.06 40.97L478.06 25.32M478.06 25.32L478.06 9.66M478.06 9.66L478.06 8.95M478.06 8.95L478.06 8.24M478.06 8.24L478.06 7.88M478.06 7.88L478.06 7.53M478.06 7.53L478.06 7.17M478.06 7.17L478.06 6.82M478.06 6.82L478.06 6.46M478.06 6.46L478.06 6.46M478.06 6.46L478.06 6.1M478.06 6.1L478.06 6.1M478.06 6.1L478.06 5.39M478.06 5.39L478.06 5.39M478.06 5.39L478.06 4.68M478.06 4.68L478.06 4.68M478.06 4.68L478.05 4.61M478.05 4.61L478.05 4.61M478.05 4.61L478.05 4.53M478.05 4.53L478.05 4.53M478.05 4.53L477.99 4.23M477.99 4.23L477.99 4.23M477.99 4.23L477.74 3.77M477.74 3.77L477.74 3.77M477.74 3.77L477.35 3.42M477.35 3.42L477.35 3.42M477.35 3.42L476.94 3.24M476.94 3.24L476.94 3.24M476.94 3.24L476.79 3.21M476.79 3.21L476.79 3.21M476.79 3.21L476.72 3.2M476.72 3.2L476.72 3.2M476.72 3.2L476.64 3.19M476.64 3.19L476.64 3.19M476.64 3.19L476.56 3.19M476.56 3.19L476.56 3.19M476.56 3.19L475.65 3.19M475.65 3.19L475.65 3.19M475.65 3.19L475.19 3.19M475.19 3.19L474.96 3.19M474.96 3.19L474.73 3.19M474.73 3.19L474.5 3.19M474.5 3.19L474.27 3.19M474.27 3.19L473.82 3.19M473.82 3.19L473.36 3.19M473.36 3.19L472.9 3.19M472.9 3.19L471.3 3.19M471.3 3.19L469.69 3.19M469.69 3.19L468.09 3.19M468.09 3.19L466.48 3.19M466.48 3.19L460.07 3.19M460.07 3.19L456.29 3.19M456.29 3.19L452.51 3.19M452.51 3.19L448.73 3.19M448.73 3.19L444.95 3.19M444.95 3.19L437.39 3.19M437.39 3.19L429.83 3.19M429.83 3.19L370.17 3.19M370.17 3.19L350.01 3.19M350.01 3.19L329.85 3.19M329.85 3.19L328.93 3.19M328.93 3.19L328.02 3.19M328.02 3.19L327.56 3.19M327.56 3.19L327.1 3.19M327.1 3.19L326.64 3.19M326.64 3.19L326.18 3.19M326.18 3.19L325.96 3.19M325.96 3.19L325.73 3.19M325.73 3.19L325.5 3.19M325.5 3.19L325.27 3.19M325.27 3.19L325.04 3.19M325.04 3.19L324.81 3.19M324.81 3.19L324.81 3.19M324.81 3.19L324.35 3.19M324.35 3.19L324.35 3.19M324.35 3.19L323.44 3.19M323.44 3.19L323.44 3.19M323.44 3.19L323.36 3.19M323.36 3.19L323.36 3.19M323.36 3.19L323.28 3.2M323.28 3.2L323.28 3.2M323.28 3.2L322.99 3.26M322.99 3.26L322.99 3.26M322.99 3.26L322.52 3.5M322.52 3.5L322.52 3.5M322.52 3.5L322.17 3.89M322.17 3.89L322.17 3.89M322.17 3.89L321.99 4.31M321.99 4.31L321.99 4.31M321.99 4.31L321.96 4.45M321.96 4.45L321.96 4.45M321.96 4.45L321.95 4.53M321.95 4.53L321.95 4.53M321.95 4.53L321.95 4.61M321.95 4.61L321.95 4.61M321.95 4.61L321.94 4.68M321.94 4.68L321.94 4.68M321.94 4.68L321.94 5.39M321.94 5.39L321.94 5.39M321.94 5.39L321.94 6.1M321.94 6.1L321.94 6.1M321.94 6.1L321.94 6.46M321.94 6.46L321.94 6.82M321.94 6.82L321.94 7.17M321.94 7.17L321.94 7.53M321.94 7.53L321.94 9.62M321.94 9.62L321.94 11.71M321.94 11.71L321.94 15.89M321.94 15.89L321.94 15.89M321.94 15.89L321.94 16.02M321.94 16.02L321.94 16.15M321.94 16.15L321.94 16.41M321.94 16.41L321.94 16.93M321.94 16.93L321.94 17.98M321.94 17.98L321.94 20.07M321.94 20.07L321.94 21.11M321.94 21.11L321.94 21.38M321.94 21.38L321.94 21.38M321.94 21.38L321.94 21.64M321.94 21.64L321.94 22.16M321.94 22.16L321.94 24.25M321.94 24.25L321.94 26.34M321.94 26.34L321.94 26.86M321.94 26.86L321.94 26.86M321.94 26.86L321.94 27.12M321.94 27.12L321.94 27.39M321.94 27.39L321.94 28.43M321.94 28.43L321.94 30.52M321.94 30.52L321.94 31.04M321.94 31.04L321.94 31.04M321.94 31.04L321.94 31.31M321.94 31.31L321.94 31.57M321.94 31.57L321.94 32.61M321.94 32.61L321.94 34.7M321.94 34.7L321.94 35.23M321.94 35.23L321.94 35.23M321.94 35.23L321.94 35.49M321.94 35.49L321.94 35.75M321.94 35.75L321.94 36.79M321.94 36.79L321.94 40.97M321.94 40.97L321.94 60.86M321.94 60.86L321.94 539.14M321.94 539.14L321.94 559.03M321.94 559.03L321.94 574.68M321.94 574.68L321.94 590.34M321.94 590.34L321.94 591.05M321.94 591.05L321.94 591.76M321.94 591.76L321.94 592.12M321.94 592.12L321.94 592.47M321.94 592.47L321.94 592.83M321.94 592.83L321.94 593.18M321.94 593.18L321.94 593.54M321.94 593.54L321.94 593.54M321.94 593.54L321.94 593.9M321.94 593.9L321.94 593.9M321.94 593.9L321.94 594.61M321.94 594.61L321.94 594.61M321.94 594.61L321.94 595.32M321.94 595.32L321.94 595.32M321.94 595.32L321.95 595.39M321.95 595.39L321.95 595.39M321.95 595.39L321.95 595.47M321.95 595.47L321.95 595.47M321.95 595.47L322.01 595.77M322.01 595.77L322.01 595.77M322.01 595.77L322.26 596.23M322.26 596.23L322.26 596.23M322.26 596.23L322.65 596.58M322.65 596.58L322.65 596.58M322.65 596.58L323.06 596.76M323.06 596.76L323.06 596.76M323.06 596.76L323.21 596.79M323.21 596.79L323.21 596.79M323.21 596.79L323.28 596.8M323.28 596.8L323.28 596.8M323.28 596.8L323.36 596.81M323.36 596.81L323.36 596.81M323.36 596.81L323.44 596.81M323.44 596.81L323.44 596.81M323.44 596.81L324.35 596.81M324.35 596.81L324.35 596.81M324.35 596.81L324.81 596.81M324.81 596.81L325.04 596.81M325.04 596.81L325.04 596.81M325.04 596.81L325.15 596.81M325.15 596.81L325.27 596.81M325.27 596.81L325.5 596.81M325.5 596.81L325.73 596.81M325.73 596.81L326.18 596.81M326.18 596.81L326.41 596.81M326.41 596.81L326.64 596.81M326.64 596.81L327.1 596.81M327.1 596.81L327.5 596.81M327.5 596.81L327.6 596.81M327.6 596.81L327.6 596.81M327.6 596.81L327.7 596.81M327.7 596.81L327.9 596.81M327.9 596.81L328.7 596.81M328.7 596.81L330.31 596.81M330.31 596.81L333.52 596.81M333.52 596.81L339.93 596.81M339.93 596.81L340.88 596.81M340.88 596.81L341.11 596.81M341.11 596.81L341.11 596.81M341.11 596.81L341.35 596.81M341.35 596.81L341.82 596.81M341.82 596.81L343.71 596.81M343.71 596.81L347.49 596.81M347.49 596.81L351.27 596.81M351.27 596.81L352.22 596.81M352.22 596.81L352.45 596.81M352.45 596.81L352.45 596.81M352.45 596.81L352.69 596.81M352.69 596.81L353.16 596.81M353.16 596.81L355.05 596.81M355.05 596.81L362.61 596.81M362.61 596.81L362.61 596.81M362.61 596.81L362.85 596.81M362.85 596.81L363.08 596.81M363.08 596.81L363.55 596.81M363.55 596.81L364.5 596.81M364.5 596.81L366.39 596.81M366.39 596.81L370.17 596.81M370.17 596.81L429.83 596.81M429.83 596.81L449.99 596.81M449.99 596.81L460.07 596.81M460.07 596.81L470.15 596.81M470.15 596.81L471.07 596.81M471.07 596.81L471.98 596.81M471.98 596.81L472.44 596.81M472.44 596.81L472.9 596.81M472.9 596.81L473.36 596.81M473.36 596.81L473.59 596.81M473.59 596.81L473.82 596.81M473.82 596.81L474.27 596.81M474.27 596.81L474.5 596.81M474.5 596.81L474.73 596.81M474.73 596.81L474.73 596.81M474.73 596.81L475.65 596.81M475.65 596.81L475.65 596.81M475.65 596.81L476.56 596.81M476.56 596.81L476.56 596.81M476.56 596.81L476.64 596.81M476.64 596.81L476.64 596.81M476.64 596.81L476.72 596.8M476.72 596.8L476.72 596.8M476.72 596.8L477.01 596.74M477.01 596.74L477.01 596.74M477.01 596.74L477.48 596.5M477.48 596.5L477.48 596.5M477.48 596.5L477.83 596.11M477.83 596.11L477.83 596.11M477.83 596.11L478.01 595.69M478.01 595.69L478.01 595.69M478.01 595.69L478.04 595.54M478.04 595.54L478.04 595.54M478.04 595.54L478.05 595.47M478.05 595.47L478.05 595.47M478.05 595.47L478.05 595.39M478.05 595.39L478.05 595.39M478.05 595.39L478.06 595.32M478.06 595.32L478.06 595.32M478.06 595.32L478.06 594.61M478.06 594.61L478.06 594.61M478.06 594.61L478.06 593.9M478.06 593.9L478.06 593.9M478.06 593.9L478.06 593.54M478.06 593.54L478.06 593.18M478.06 593.18L478.06 592.83M478.06 592.83L478.06 592.47M478.06 592.47L478.06 590.38M478.06 590.38L478.06 588.29M478.06 588.29L478.06 584.11M478.06 584.11L478.06 584.11M478.06 584.11L478.06 583.98M478.06 583.98L478.06 583.85M478.06 583.85L478.06 583.59M478.06 583.59L478.06 583.07M478.06 583.07L478.06 582.02M478.06 582.02L478.06 579.93M478.06 579.93L478.06 578.88M478.06 578.88L478.06 578.62M478.06 578.62L478.06 578.62M478.06 578.62L478.06 578.36M478.06 578.36L478.06 577.84M478.06 577.84L478.06 575.75M478.06 575.75L478.06 573.66M478.06 573.66L478.06 573.14M478.06 573.14L478.06 573.14M478.06 573.14L478.06 572.87M478.06 572.87L478.06 572.61M478.06 572.61L478.06 571.57M478.06 571.57L478.06 569.48M478.06 569.48L478.06 568.96M478.06 568.96L478.06 568.96M478.06 568.96L478.06 568.69M478.06 568.69L478.06 568.43M478.06 568.43L478.06 567.39M478.06 567.39L478.06 565.3M478.06 565.3L478.06 564.77M478.06 564.77L478.06 564.77M478.06 564.77L478.06 564.51M478.06 564.51L478.06 564.25M478.06 564.25L478.06 563.21M478.06 563.21L478.06 559.03M478.06 559.03L478.06 539.14M478.06 539.14L478.06 60.86M478.06 60.86L478.06 40.97"
fill="none" stroke="black" stroke-width="0.5"/>
<path d="M476.32 135.19L476.32 464.81M476.32 464.81L429.83 464.81M429.83 464.81L370.17 464.81M370.17 464.81L323.68 464.81M323.68 464.81L323.68 135.19M323.68 135.19L370.17 135.19M370.17 135.19L429.83 135.19M429.83 135.19L476.32 135.19"
fill="none" stroke="black" stroke-width="0.5"/>
<path d="M343.57 559.03L343.57 539.14M343.57 539.14L343.57 532.67M343.57 532.67L343.57 526.2M343.57 526.2L343.57 525.91M343.57 525.91L343.57 525.62M343.57 525.62L343.57 525.48M343.57 525.48L343.57 525.34M343.57 525.34L343.57 525.19M343.57 525.19L343.57 525.05M343.57 525.05L343.57 525.05M343.57 525.05L343.57 524.76M343.57 524.76L343.57 524.76M343.57 524.76L343.57 524.47M343.57 524.47L343.57 524.47M343.57 524.47L343.57 524.4M343.57 524.4L343.57 524.4M343.57 524.4L343.58 524.32M343.58 524.32L343.58 524.32M343.58 524.32L343.64 524.03M343.64 524.03L343.64 524.03M343.64 524.03L343.88 523.56M343.88 523.56L343.88 523.56M343.88 523.56L344.27 523.21M344.27 523.21L344.27 523.21M344.27 523.21L344.69 523.03M344.69 523.03L344.69 523.03M344.69 523.03L344.84 523M344.84 523L344.84 523M344.84 523L344.91 522.99M344.91 522.99L344.91 522.99M344.91 522.99L344.99 522.98M344.99 522.98L344.99 522.98M344.99 522.98L345.06 522.98M345.06 522.98L345.06 522.98M345.06 522.98L345.55 522.98M345.55 522.98L345.55 522.98M345.55 522.98L345.8 522.98M345.8 522.98L345.86 522.98M345.86 522.98L345.86 522.98M345.86 522.98L345.92 522.98M345.92 522.98L346.05 522.98M346.05 522.98L346.05 522.98M346.05 522.98L346.29 522.98M346.29 522.98L346.54 522.98M346.54 522.98L346.79 522.98M346.79 522.98L347.03 522.98M347.03 522.98L347.03 522.98M347.03 522.98L347.75 522.98M347.75 522.98L347.75 522.98M347.75 522.98L348.48 522.98M348.48 522.98L348.48 522.98M348.48 522.98L349.92 522.98M349.92 522.98L349.92 522.98M349.92 522.98L352.82 522.98M352.82 522.98L352.82 522.98M352.82 522.98L352.91 522.98M352.91 522.98L353 522.98M353 522.98L353.18 522.98M353.18 522.98L353.54 522.98M353.54 522.98L354.26 522.98M354.26 522.98L355.71 522.98M355.71 522.98L356.43 522.98M356.43 522.98L356.61 522.98M356.61 522.98L356.61 522.98M356.61 522.98L356.79 522.98M356.79 522.98L357.15 522.98M357.15 522.98L358.6 522.98M358.6 522.98L361.49 522.98M361.49 522.98L362.22 522.98M362.22 522.98L362.4 522.98M362.4 522.98L362.4 522.98M362.4 522.98L362.49 522.98M362.49 522.98L362.49 522.98M362.49 522.98L362.58 522.98M362.58 522.98L362.94 522.98M362.94 522.98L364.39 522.98M364.39 522.98L365.83 522.98M365.83 522.98L366.19 522.98M366.19 522.98L366.19 522.98M366.19 522.98L366.37 522.98M366.37 522.98L366.55 522.98M366.55 522.98L367.28 522.98M367.28 522.98L370.17 522.98M370.17 522.98L429.83 522.98M429.83 522.98L440.66 522.98M440.66 522.98L451.49 522.98M451.49 522.98L452.23 522.98M452.23 522.98L452.6 522.98M452.6 522.98L452.97 522.98M452.97 522.98L453.21 522.98M453.21 522.98L453.46 522.98M453.46 522.98L453.71 522.98M453.71 522.98L453.71 522.98M453.71 522.98L453.95 522.98M453.95 522.98L454.08 522.98M454.08 522.98L454.08 522.98M454.08 522.98L454.14 522.98M454.14 522.98L454.2 522.98M454.2 522.98L454.2 522.98M454.2 522.98L454.44 522.98M454.44 522.98L454.44 522.98M454.44 522.98L454.94 522.98M454.94 522.98L454.94 522.98M454.94 522.98L455.01 522.98M455.01 522.98L455.01 522.98M455.01 522.98L455.09 522.99M455.09 522.99L455.09 522.99M455.09 522.99L455.38 523.05M455.38 523.05L455.38 523.05M455.38 523.05L455.85 523.29M455.85 523.29L455.85 523.29M455.85 523.29L456.2 523.68M456.2 523.68L456.2 523.68M456.2 523.68L456.38 524.1M456.38 524.1L456.38 524.1M456.38 524.1L456.41 524.25M456.41 524.25L456.41 524.25M456.41 524.25L456.42 524.32M456.42 524.32L456.42 524.32M456.42 524.32L456.43 524.4M456.43 524.4L456.43 524.4M456.43 524.4L456.43 524.47M456.43 524.47L456.43 524.47M456.43 524.47L456.43 524.76M456.43 524.76L456.43 524.76M456.43 524.76L456.43 525.05M456.43 525.05L456.43 525.19M456.43 525.19L456.43 525.34M456.43 525.34L456.43 525.45M456.43 525.45L456.43 525.45M456.43 525.45L456.43 525.57M456.43 525.57L456.43 525.8M456.43 525.8L456.43 526.27M456.43 526.27L456.43 527.2M456.43 527.2L456.43 529.07M456.43 529.07L456.43 529.39M456.43 529.39L456.43 529.47M456.43 529.47L456.43 529.47M456.43 529.47L456.43 529.55M456.43 529.55L456.43 529.7M456.43 529.7L456.43 530.33M456.43 530.33L456.43 530.65M456.43 530.65L456.43 530.73M456.43 530.73L456.43 530.73M456.43 530.73L456.43 530.8M456.43 530.8L456.43 530.96M456.43 530.96L456.43 531.59M456.43 531.59L456.43 532.85M456.43 532.85L456.43 533.16M456.43 533.16L456.43 533.24M456.43 533.24L456.43 533.24M456.43 533.24L456.43 533.32M456.43 533.32L456.43 533.48M456.43 533.48L456.43 534.11M456.43 534.11L456.43 536.62M456.43 536.62L456.43 536.62M456.43 536.62L456.43 536.78M456.43 536.78L456.43 536.94M456.43 536.94L456.43 537.25M456.43 537.25L456.43 537.88M456.43 537.88L456.43 539.14M456.43 539.14L456.43 559.03M456.43 559.03L456.43 565.5M456.43 565.5L456.43 571.97M456.43 571.97L456.43 572.25M456.43 572.25L456.43 572.54M456.43 572.54L456.43 572.69M456.43 572.69L456.43 572.83M456.43 572.83L456.43 572.97M456.43 572.97L456.43 573.12M456.43 573.12L456.43 573.12M456.43 573.12L456.43 573.4M456.43 573.4L456.43 573.4M456.43 573.4L456.43 573.69M456.43 573.69L456.43 573.69M456.43 573.69L456.43 573.77M456.43 573.77L456.43 573.77M456.43 573.77L456.42 573.84M456.42 573.84L456.42 573.84M456.42 573.84L456.36 574.14M456.36 574.14L456.36 574.14M456.36 574.14L456.12 574.61M456.12 574.61L456.12 574.61M456.12 574.61L455.73 574.96M455.73 574.96L455.73 574.96M455.73 574.96L455.31 575.14M455.31 575.14L455.31 575.14M455.31 575.14L455.16 575.17M455.16 575.17L455.16 575.17M455.16 575.17L455.09 575.18M455.09 575.18L455.09 575.18M455.09 575.18L455.01 575.18M455.01 575.18L455.01 575.18M455.01 575.18L454.94 575.18M454.94 575.18L454.94 575.18M454.94 575.18L454.44 575.18M454.44 575.18L454.44 575.18M454.44 575.18L453.95 575.18M453.95 575.18L453.71 575.18M453.71 575.18L453.46 575.18M453.46 575.18L453.21 575.18M453.21 575.18L452.97 575.18M452.97 575.18L450.08 575.18M450.08 575.18L450.08 575.18M450.08 575.18L449.99 575.18M449.99 575.18L449.89 575.18M449.89 575.18L449.71 575.18M449.71 575.18L449.35 575.18M449.35 575.18L448.63 575.18M448.63 575.18L447.18 575.18M447.18 575.18L441.4 575.18M441.4 575.18L435.61 575.18M435.61 575.18L435.61 575.18M435.61 575.18L435.43 575.18M435.43 575.18L435.25 575.18M435.25 575.18L434.89 575.18M434.89 575.18L434.17 575.18M434.17 575.18L432.72 575.18M432.72 575.18L429.83 575.18M429.83 575.18L370.17 575.18M370.17 575.18L359.34 575.18M359.34 575.18L348.51 575.18M348.51 575.18L347.77 575.18M347.77 575.18L347.03 575.18M347.03 575.18L346.79 575.18M346.79 575.18L346.54 575.18M346.54 575.18L346.29 575.18M346.29 575.18L346.29 575.18M346.29 575.18L346.05 575.18M346.05 575.18L346.05 575.18M346.05 575.18L345.56 575.18M345.56 575.18L345.56 575.18M345.56 575.18L345.06 575.18M345.06 575.18L345.06 575.18M345.06 575.18L344.99 575.18M344.99 575.18L344.99 575.18M344.99 575.18L344.91 575.18M344.91 575.18L344.91 575.18M344.91 575.18L344.62 575.12M344.62 575.12L344.62 575.12M344.62 575.12L344.15 574.87M344.15 574.87L344.15 574.87M344.15 574.87L343.8 574.48M343.8 574.48L343.8 574.48M343.8 574.48L343.62 574.07M343.62 574.07L343.62 574.07M343.62 574.07L343.59 573.92M343.59 573.92L343.59 573.92M343.59 573.92L343.58 573.84M343.58 573.84L343.58 573.84M343.58 573.84L343.57 573.77M343.57 573.77L343.57 573.77M343.57 573.77L343.57 573.69M343.57 573.69L343.57 573.69M343.57 573.69L343.57 573.4M343.57 573.4L343.57 573.4M343.57 573.4L343.57 573.12M343.57 573.12L343.57 573.12M343.57 573.12L343.57 572.83M343.57 572.83L343.57 572.6M343.57 572.6L343.57 572.6M343.57 572.6L343.57 572.36M343.57 572.36L343.57 571.89M343.57 571.89L343.57 571.43M343.57 571.43L343.57 571.19M343.57 571.19L343.57 571.19M343.57 571.19L343.57 570.96M343.57 570.96L343.57 570.03M343.57 570.03L343.57 569.09M343.57 569.09L343.57 568.78M343.57 568.78L343.57 568.7M343.57 568.7L343.57 568.7M343.57 568.7L343.57 568.62M343.57 568.62L343.57 568.46M343.57 568.46L343.57 567.83M343.57 567.83L343.57 566.57M343.57 566.57L343.57 564.06M343.57 564.06L343.57 561.54M343.57 561.54L343.57 561.54M343.57 561.54L343.57 561.38M343.57 561.38L343.57 561.23M343.57 561.23L343.57 560.91M343.57 560.91L343.57 560.28M343.57 560.28L343.57 559.03"
fill="none" stroke="black" stroke-width="0.5"/>
<path d="M337.61 559.03L337.61 581.15M337.61 581.15L370.17 581.15M370.17 581.15L429.83 581.15M429.83 581.15L462.39 581.15M462.39 581.15L462.39 559.03M462.39 559.03L462.39 539.14M462.39 539.14L462.39 517.01M462.39 517.01L429.83 517.01M429.83 517.01L370.17 517.01M370.17 517.01L337.61 517.01M337.61 517.01L337.61 539.14M337.61 539.14L337.61 559.03"
fill="none" stroke="black" stroke-width="0.5"/>
<path d="M476.56 1.7L323.44 1.7M323.44 1.7L323.44 1.7M323.44 1.7L322.51 1.84M322.51 1.84L321.68 2.27M321.68 2.27L321.02 2.93M321.02 2.93L320.6 3.76M320.6 3.76L320.45 4.68M320.45 4.68L320.45 595.32M320.45 595.32L320.45 595.32M320.45 595.32L320.6 596.24M320.6 596.24L321.02 597.07M321.02 597.07L321.68 597.73M321.68 597.73L322.51 598.16M322.51 598.16L323.44 598.3M323.44 598.3L476.56 598.3M476.56 598.3L476.56 598.3M476.56 598.3L477.49 598.16M477.49 598.16L478.32 597.73M478.32 597.73L478.98 597.07M478.98 597.07L479.4 596.24M479.4 596.24L479.55 595.32M479.55 595.32L479.55 4.68M479.55 4.68L479.55 4.68M479.55 4.68L479.4 3.76M479.4 3.76L478.98 2.93M478.98 2.93L478.32 2.27M478.32 2.27L477.49 1.84M477.49 1.84L476.56 1.7"
fill="none" stroke="black" stroke-width="0.5"/>
</svg>
