<?xml version="1.0" encoding="UTF-8"?>
<svg xmlns="http://www.w3.org/2000/svg" width="800.000" height="600.000" viewBox="0.0 0.0 800.000 600.000" version="1.1">
  <title>Produce by Acme CAD Converter</title>
  <desc>Produce by Acme CAD Converter</desc>
<path d="M369.42 559.03L369.42 560.7M369.42 560.7L369.42 562.38M369.42 562.38L369.42 562.46M369.42 562.46L369.42 562.53M369.42 562.53L369.42 562.57M369.42 562.57L369.42 562.61M369.42 562.61L369.42 562.64M369.42 562.64L369.42 562.68M369.42 562.68L369.42 562.68M369.42 562.68L369.42 562.76M369.42 562.76L369.42 562.76M369.42 562.76L369.43 562.83M369.43 562.83L369.43 562.83M369.43 562.83L369.43 562.91M369.43 562.91L369.43 562.91M369.43 562.91L369.52 563.27M369.52 563.27L369.52 563.27M369.52 563.27L369.78 563.73M369.78 563.73L369.78 563.73M369.78 563.73L370.19 564.06M370.19 564.06L370.19 564.06M370.19 564.06L370.69 564.23M370.69 564.23L370.69 564.23M370.69 564.23L370.76 564.24M370.76 564.24L370.76 564.24M370.76 564.24L370.84 564.24M370.84 564.24L370.84 564.24M370.84 564.24L370.92 564.25M370.92 564.25L370.92 564.25M370.92 564.25L371.19 564.25M371.19 564.25L371.19 564.25M371.19 564.25L371.47 564.25M371.47 564.25L371.61 564.25M371.61 564.25L371.75 564.25M371.75 564.25L371.91 564.25M371.91 564.25L371.91 564.25M371.91 564.25L372.08 564.25M372.08 564.25L372.41 564.25M372.41 564.25L372.57 564.25M372.57 564.25L372.57 564.25M372.57 564.25L372.74 564.25M372.74 564.25L373.07 564.25M373.07 564.25L373.73 564.25M373.73 564.25L374.06 564.25M374.06 564.25L374.22 564.25M374.22 564.25L374.22 564.25M374.22 564.25L374.39 564.25M374.39 564.25L375.71 564.25M375.71 564.25L376.04 564.25M376.04 564.25L376.12 564.25M376.12 564.25L376.12 564.25M376.12 564.25L376.2 564.25M376.2 564.25L376.37 564.25M376.37 564.25L377.03 564.25M377.03 564.25L377.53 564.25M377.53 564.25L377.66 564.25M377.66 564.25L377.66 564.25M377.66 564.25L377.78 564.25M377.78 564.25L378.04 564.25M378.04 564.25L379.04 564.25M379.04 564.25L380.05 564.25M380.05 564.25L380.55 564.25M380.55 564.25L380.81 564.25M380.81 564.25L380.93 564.25M380.93 564.25L380.93 564.25M380.93 564.25L381.06 564.25M381.06 564.25L383.07 564.25M383.07 564.25L383.07 564.25M383.07 564.25L383.32 564.25M383.32 564.25L383.58 564.25M383.58 564.25L384.08 564.25M384.08 564.25L385.09 564.25M385.09 564.25L414.91 564.25M414.91 564.25L421.17 564.25M421.17 564.25L427.42 564.25M427.42 564.25L427.7 564.25M427.7 564.25L427.97 564.25M427.97 564.25L428.11 564.25M428.11 564.25L428.25 564.25M428.25 564.25L428.39 564.25M428.39 564.25L428.53 564.25M428.53 564.25L428.67 564.25M428.67 564.25L428.67 564.25M428.67 564.25L428.81 564.25M428.81 564.25L428.81 564.25M428.81 564.25L429.08 564.25M429.08 564.25L429.08 564.25M429.08 564.25L429.16 564.24M429.16 564.24L429.16 564.24M429.16 564.24L429.24 564.24M429.24 564.24L429.24 564.24M429.24 564.24L429.53 564.18M429.53 564.18L429.53 564.18M429.53 564.18L430 563.93M430 563.93L430 563.93M430 563.93L430.35 563.54M430.35 563.54L430.35 563.54M430.35 563.54L430.53 563.13M430.53 563.13L430.53 563.13M430.53 563.13L430.57 562.91M430.57 562.91L430.57 562.91M430.57 562.91L430.57 562.83M430.57 562.83L430.57 562.83M430.57 562.83L430.58 562.76M430.58 562.76L430.58 562.76M430.58 562.76L430.58 562.68M430.58 562.68L430.58 562.64M430.58 562.64L430.58 562.61M430.58 562.61L430.58 562.61M430.58 562.61L430.58 561.71M430.58 561.71L430.58 560.82M430.58 560.82L430.58 560.59M430.58 560.59L430.58 560.59M430.58 560.59L430.58 560.48M430.58 560.48L430.58 560.37M430.58 560.37L430.58 560.14M430.58 560.14L430.58 560.14M430.58 560.14L430.58 560.03M430.58 560.03L430.58 559.92M430.58 559.92L430.58 559.7M430.58 559.7L430.58 559.7M430.58 559.7L430.58 559.59M430.58 559.59L430.58 559.47M430.58 559.47L430.58 559.03M430.58 559.03L430.58 539.14M430.58 539.14L430.58 537.46M430.58 537.46L430.58 535.78M430.58 535.78L430.58 535.71M430.58 535.71L430.58 535.63M430.58 535.63L430.58 535.6M430.58 535.6L430.58 535.56M430.58 535.56L430.58 535.52M430.58 535.52L430.58 535.48M430.58 535.48L430.58 535.48M430.58 535.48L430.58 535.41M430.58 535.41L430.58 535.41M430.58 535.41L430.57 535.33M430.57 535.33L430.57 535.33M430.57 535.33L430.57 535.26M430.57 535.26L430.57 535.26M430.57 535.26L430.48 534.89M430.48 534.89L430.48 534.89M430.48 534.89L430.22 534.44M430.22 534.44L430.22 534.44M430.22 534.44L429.81 534.11M429.81 534.11L429.81 534.11M429.81 534.11L429.31 533.94M429.31 533.94L429.31 533.94M429.31 533.94L429.24 533.93M429.24 533.93L429.24 533.93M429.24 533.93L429.16 533.92M429.16 533.92L429.16 533.92M429.16 533.92L429.08 533.92M429.08 533.92L429.08 533.92M429.08 533.92L428.81 533.92M428.81 533.92L428.81 533.92M428.81 533.92L428.67 533.92M428.67 533.92L428.53 533.92M428.53 533.92L428.39 533.92M428.39 533.92L428.25 533.92M428.25 533.92L428.09 533.92M428.09 533.92L428.09 533.92M428.09 533.92L427.92 533.92M427.92 533.92L427.59 533.92M427.59 533.92L427.43 533.92M427.43 533.92L427.43 533.92M427.43 533.92L427.26 533.92M427.26 533.92L426.93 533.92M426.93 533.92L426.27 533.92M426.27 533.92L426.11 533.92M426.11 533.92L426.11 533.92M426.11 533.92L425.94 533.92M425.94 533.92L425.61 533.92M425.61 533.92L424.95 533.92M424.95 533.92L424.79 533.92M424.79 533.92L424.79 533.92M424.79 533.92L424.62 533.92M424.62 533.92L424.29 533.92M424.29 533.92L424.13 533.92M424.13 533.92L424.13 533.92M424.13 533.92L423.96 533.92M423.96 533.92L423.63 533.92M423.63 533.92L423.47 533.92M423.47 533.92L423.47 533.92M423.47 533.92L423.3 533.92M423.3 533.92L422.97 533.92M422.97 533.92L422.47 533.92M422.47 533.92L422.34 533.92M422.34 533.92L422.34 533.92M422.34 533.92L422.22 533.92M422.22 533.92L421.96 533.92M421.96 533.92L420.96 533.92M420.96 533.92L420.45 533.92M420.45 533.92L420.33 533.92M420.33 533.92L420.33 533.92M420.33 533.92L420.2 533.92M420.2 533.92L419.95 533.92M419.95 533.92L418.94 533.92M418.94 533.92L416.93 533.92M416.93 533.92L416.93 533.92M416.93 533.92L416.68 533.92M416.68 533.92L416.42 533.92M416.42 533.92L415.92 533.92M415.92 533.92L414.91 533.92M414.91 533.92L385.09 533.92M385.09 533.92L378.83 533.92M378.83 533.92L372.58 533.92M372.58 533.92L372.3 533.92M372.3 533.92L372.03 533.92M372.03 533.92L371.89 533.92M371.89 533.92L371.75 533.92M371.75 533.92L371.61 533.92M371.61 533.92L371.61 533.92M371.61 533.92L371.47 533.92M371.47 533.92L371.33 533.92M371.33 533.92L371.33 533.92M371.33 533.92L371.19 533.92M371.19 533.92L371.19 533.92M371.19 533.92L370.92 533.92M370.92 533.92L370.92 533.92M370.92 533.92L370.84 533.92M370.84 533.92L370.84 533.92M370.84 533.92L370.76 533.93M370.76 533.93L370.76 533.93M370.76 533.93L370.47 533.99M370.47 533.99L370.47 533.99M370.47 533.99L370 534.23M370 534.23L370 534.23M370 534.23L369.65 534.62M369.65 534.62L369.65 534.62M369.65 534.62L369.47 535.04M369.47 535.04L369.47 535.04M369.47 535.04L369.43 535.26M369.43 535.26L369.43 535.26M369.43 535.26L369.43 535.33M369.43 535.33L369.43 535.33M369.43 535.33L369.42 535.41M369.42 535.41L369.42 535.41M369.42 535.41L369.42 535.48M369.42 535.48L369.42 535.52M369.42 535.52L369.42 535.56M369.42 535.56L369.42 535.56M369.42 535.56L369.42 536.45M369.42 536.45L369.42 537.35M369.42 537.35L369.42 537.57M369.42 537.57L369.42 537.57M369.42 537.57L369.42 537.68M369.42 537.68L369.42 537.8M369.42 537.8L369.42 538.02M369.42 538.02L369.42 538.02M369.42 538.02L369.42 538.13M369.42 538.13L369.42 538.24M369.42 538.24L369.42 538.47M369.42 538.47L369.42 538.47M369.42 538.47L369.42 538.58M369.42 538.58L369.42 538.69M369.42 538.69L369.42 539.14M369.42 539.14L369.42 559.03"
fill="none" stroke="black" stroke-width="0.5"/>
<path d="M385.09 468.04L366.11 468.04M366.11 468.04L347.12 468.04M347.12 468.04L346.26 468.04M346.26 468.04L345.4 468.04M345.4 468.04L344.97 468.04M344.97 468.04L344.54 468.04M344.54 468.04L344.11 468.04M344.11 468.04L343.67 468.04M343.67 468.04L343.67 468.04M343.67 468.04L342.81 468.04M342.81 468.04L342.81 468.04M342.81 468.04L341.95 468.04M341.95 468.04L341.95 468.04M341.95 468.04L341.09 468.04M341.09 468.04L341.09 468.04M341.09 468.04L341.02 468.05M341.02 468.05L341.02 468.05M341.02 468.05L340.96 468.05M340.96 468.05L340.96 468.05M340.96 468.05L340.78 468.09M340.78 468.09L340.78 468.09M340.78 468.09L340.45 468.27M340.45 468.27L340.45 468.27M340.45 468.27L340.21 468.56M340.21 468.56L340.21 468.56M340.21 468.56L340.11 468.85M340.11 468.85L340.11 468.85M340.11 468.85L340.1 468.91M340.1 468.91L340.1 468.91M340.1 468.91L340.09 468.98M340.09 468.98L340.09 468.98M340.09 468.98L340.09 469.01M340.09 469.01L340.09 469.04M340.09 469.04L340.09 469.04M340.09 469.04L340.09 469.62M340.09 469.62L340.09 469.62M340.09 469.62L340.09 470.21M340.09 470.21L340.09 470.21M340.09 470.21L340.09 470.5M340.09 470.5L340.09 470.79M340.09 470.79L340.09 470.79M340.09 470.79L340.09 471.09M340.09 471.09L340.09 471.38M340.09 471.38L340.09 471.38M340.09 471.38L340.09 472.84M340.09 472.84L340.09 472.84M340.09 472.84L340.09 474.3M340.09 474.3L340.09 474.3M340.09 474.3L340.09 474.39M340.09 474.39L340.09 474.48M340.09 474.48L340.09 474.67M340.09 474.67L340.09 475.03M340.09 475.03L340.09 475.76M340.09 475.76L340.09 477.23M340.09 477.23L340.09 483.08M340.09 483.08L340.09 484.54M340.09 484.54L340.09 484.9M340.09 484.9L340.09 484.9M340.09 484.9L340.09 485.09M340.09 485.09L340.09 485.27M340.09 485.27L340.09 486M340.09 486L340.09 487.46M340.09 487.46L340.09 487.83M340.09 487.83L340.09 487.83M340.09 487.83L340.09 488.01M340.09 488.01L340.09 488.19M340.09 488.19L340.09 488.92M340.09 488.92L340.09 490.39M340.09 490.39L340.09 490.75M340.09 490.75L340.09 490.75M340.09 490.75L340.09 490.94M340.09 490.94L340.09 491.12M340.09 491.12L340.09 491.85M340.09 491.85L340.09 494.77M340.09 494.77L340.09 495.36M340.09 495.36L340.09 495.94M340.09 495.94L340.09 496.24M340.09 496.24L340.09 496.53M340.09 496.53L340.09 496.82M340.09 496.82L340.09 497.11M340.09 497.11L340.09 497.41M340.09 497.41L340.09 497.41M340.09 497.41L340.09 497.7M340.09 497.7L340.09 497.7M340.09 497.7L340.09 498.28M340.09 498.28L340.09 498.28M340.09 498.28L340.09 498.87M340.09 498.87L340.09 498.87M340.09 498.87L340.09 498.93M340.09 498.93L340.09 498.93M340.09 498.93L340.1 498.99M340.1 498.99L340.1 498.99M340.1 498.99L340.14 499.18M340.14 499.18L340.14 499.18M340.14 499.18L340.32 499.5M340.32 499.5L340.32 499.5M340.32 499.5L340.61 499.74M340.61 499.74L340.61 499.74M340.61 499.74L340.9 499.84M340.9 499.84L340.9 499.84M340.9 499.84L340.96 499.85M340.96 499.85L340.96 499.85M340.96 499.85L341.02 499.86M341.02 499.86L341.02 499.86M341.02 499.86L341.09 499.86M341.09 499.86L341.09 499.86M341.09 499.86L341.95 499.86M341.95 499.86L341.95 499.86M341.95 499.86L342.81 499.86M342.81 499.86L342.81 499.86M342.81 499.86L343.24 499.86M343.24 499.86L343.67 499.86M343.67 499.86L343.67 499.86M343.67 499.86L344.1 499.86M344.1 499.86L344.54 499.86M344.54 499.86L345.83 499.86M345.83 499.86L347.12 499.86M347.12 499.86L348.42 499.86M348.42 499.86L348.74 499.86M348.74 499.86L348.82 499.86M348.82 499.86L348.82 499.86M348.82 499.86L348.9 499.86M348.9 499.86L349.07 499.86M349.07 499.86L349.71 499.86M349.71 499.86L350.27 499.86M350.27 499.86L350.4 499.86M350.4 499.86L350.4 499.86M350.4 499.86L350.54 499.86M350.54 499.86L350.82 499.86M350.82 499.86L351.92 499.86M351.92 499.86L351.92 499.86M351.92 499.86L354.13 499.86M354.13 499.86L354.13 499.86M354.13 499.86L358.56 499.86M358.56 499.86L358.56 499.86M358.56 499.86L358.69 499.86M358.69 499.86L358.83 499.86M358.83 499.86L359.11 499.86M359.11 499.86L359.66 499.86M359.66 499.86L360.77 499.86M360.77 499.86L362.98 499.86M362.98 499.86L364.08 499.86M364.08 499.86L364.36 499.86M364.36 499.86L364.36 499.86M364.36 499.86L364.64 499.86M364.64 499.86L365.19 499.86M365.19 499.86L367.4 499.86M367.4 499.86L369.61 499.86M369.61 499.86L370.16 499.86M370.16 499.86L370.16 499.86M370.16 499.86L370.44 499.86M370.44 499.86L370.72 499.86M370.72 499.86L371.82 499.86M371.82 499.86L374.03 499.86M374.03 499.86L374.59 499.86M374.59 499.86L374.59 499.86M374.59 499.86L374.86 499.86M374.86 499.86L375.14 499.86M375.14 499.86L376.24 499.86M376.24 499.86L378.45 499.86M378.45 499.86L379.01 499.86M379.01 499.86L379.01 499.86M379.01 499.86L379.28 499.86M379.28 499.86L379.56 499.86M379.56 499.86L380.66 499.86M380.66 499.86L385.09 499.86M385.09 499.86L414.91 499.86M414.91 499.86L433.89 499.86M433.89 499.86L443.38 499.86M443.38 499.86L452.88 499.86M452.88 499.86L453.74 499.86M453.74 499.86L454.6 499.86M454.6 499.86L455.03 499.86M455.03 499.86L455.46 499.86M455.46 499.86L455.89 499.86M455.89 499.86L455.89 499.86M455.89 499.86L456.33 499.86M456.33 499.86L456.76 499.86M456.76 499.86L456.76 499.86M456.76 499.86L457.19 499.86M457.19 499.86L457.19 499.86M457.19 499.86L458.05 499.86M458.05 499.86L458.05 499.86M458.05 499.86L458.91 499.86M458.91 499.86L458.95 499.86M458.95 499.86L458.95 499.86M458.95 499.86L458.98 499.86M458.98 499.86L458.98 499.86M458.98 499.86L459.04 499.85M459.04 499.85L459.04 499.85M459.04 499.85L459.22 499.81M459.22 499.81L459.22 499.81M459.22 499.81L459.55 499.63M459.55 499.63L459.55 499.63M459.55 499.63L459.79 499.35M459.79 499.35L459.79 499.35M459.79 499.35L459.89 499.05M459.89 499.05L459.89 499.05M459.89 499.05L459.9 498.99M459.9 498.99L459.9 498.99M459.9 498.99L459.91 498.93M459.91 498.93L459.91 498.93M459.91 498.93L459.91 498.87M459.91 498.87L459.91 498.87M459.91 498.87L459.91 498.28M459.91 498.28L459.91 498.28M459.91 498.28L459.91 497.7M459.91 497.7L459.91 497.7M459.91 497.7L459.91 497.41M459.91 497.41L459.91 497.41M459.91 497.41L459.91 497.26M459.91 497.26L459.91 497.11M459.91 497.11L459.91 496.82M459.91 496.82L459.91 496.53M459.91 496.53L459.91 496.53M459.91 496.53L459.91 495.07M459.91 495.07L459.91 495.07M459.91 495.07L459.91 493.6M459.91 493.6L459.91 493.6M459.91 493.6L459.91 493.51M459.91 493.51L459.91 493.42M459.91 493.42L459.91 493.24M459.91 493.24L459.91 492.87M459.91 492.87L459.91 492.14M459.91 492.14L459.91 490.68M459.91 490.68L459.91 484.83M459.91 484.83L459.91 483.37M459.91 483.37L459.91 483M459.91 483L459.91 483M459.91 483L459.91 482.82M459.91 482.82L459.91 482.64M459.91 482.64L459.91 481.91M459.91 481.91L459.91 480.44M459.91 480.44L459.91 480.08M459.91 480.08L459.91 480.08M459.91 480.08L459.91 479.9M459.91 479.9L459.91 479.71M459.91 479.71L459.91 478.98M459.91 478.98L459.91 477.52M459.91 477.52L459.91 477.15M459.91 477.15L459.91 477.15M459.91 477.15L459.91 476.97M459.91 476.97L459.91 476.79M459.91 476.79L459.91 476.06M459.91 476.06L459.91 473.13M459.91 473.13L459.91 472.55M459.91 472.55L459.91 471.96M459.91 471.96L459.91 471.67M459.91 471.67L459.91 471.38M459.91 471.38L459.91 471.09M459.91 471.09L459.91 470.79M459.91 470.79L459.91 470.5M459.91 470.5L459.91 470.5M459.91 470.5L459.91 470.21M459.91 470.21L459.91 470.21M459.91 470.21L459.91 469.62M459.91 469.62L459.91 469.62M459.91 469.62L459.91 469.04M459.91 469.04L459.91 469.04M459.91 469.04L459.91 468.98M459.91 468.98L459.91 468.98M459.91 468.98L459.9 468.91M459.9 468.91L459.9 468.91M459.9 468.91L459.86 468.73M459.86 468.73L459.86 468.73M459.86 468.73L459.68 468.4M459.68 468.4L459.68 468.4M459.68 468.4L459.39 468.17M459.39 468.17L459.39 468.17M459.39 468.17L459.1 468.06M459.1 468.06L459.1 468.06M459.1 468.06L459.04 468.05M459.04 468.05L459.04 468.05M459.04 468.05L458.98 468.05M458.98 468.05L458.98 468.05M458.98 468.05L458.91 468.04M458.91 468.04L458.91 468.04M458.91 468.04L458.05 468.04M458.05 468.04L458.05 468.04M458.05 468.04L457.19 468.04M457.19 468.04L457.19 468.04M457.19 468.04L456.33 468.04M456.33 468.04L455.89 468.04M455.89 468.04L455.46 468.04M455.46 468.04L455.14 468.04M455.14 468.04L455.06 468.04M455.06 468.04L455.06 468.04M455.06 468.04L454.98 468.04M454.98 468.04L454.82 468.04M454.82 468.04L454.17 468.04M454.17 468.04L453.52 468.04M453.52 468.04L453.2 468.04M453.2 468.04L453.04 468.04M453.04 468.04L453.04 468.04M453.04 468.04L452.88 468.04M452.88 468.04L450.29 468.04M450.29 468.04L449.73 468.04M449.73 468.04L449.6 468.04M449.6 468.04L449.6 468.04M449.6 468.04L449.46 468.04M449.46 468.04L449.18 468.04M449.18 468.04L448.08 468.04M448.08 468.04L447.52 468.04M447.52 468.04L447.39 468.04M447.39 468.04L447.39 468.04M447.39 468.04L447.25 468.04M447.25 468.04L446.97 468.04M446.97 468.04L445.87 468.04M445.87 468.04L443.65 468.04M443.65 468.04L442.55 468.04M442.55 468.04L442 468.04M442 468.04L441.72 468.04M441.72 468.04L441.58 468.04M441.58 468.04L441.58 468.04M441.58 468.04L441.44 468.04M441.44 468.04L441.44 468.04M441.44 468.04L441.31 468.04M441.31 468.04L441.17 468.04M441.17 468.04L440.89 468.04M440.89 468.04L440.34 468.04M440.34 468.04L439.23 468.04M439.23 468.04L437.02 468.04M437.02 468.04L435.92 468.04M435.92 468.04L435.64 468.04M435.64 468.04L435.64 468.04M435.64 468.04L435.36 468.04M435.36 468.04L434.81 468.04M434.81 468.04L432.6 468.04M432.6 468.04L430.39 468.04M430.39 468.04L429.84 468.04M429.84 468.04L429.84 468.04M429.84 468.04L429.56 468.04M429.56 468.04L429.28 468.04M429.28 468.04L428.18 468.04M428.18 468.04L425.97 468.04M425.97 468.04L425.41 468.04M425.41 468.04L425.41 468.04M425.41 468.04L425.14 468.04M425.14 468.04L424.86 468.04M424.86 468.04L423.76 468.04M423.76 468.04L421.55 468.04M421.55 468.04L420.99 468.04M420.99 468.04L420.99 468.04M420.99 468.04L420.72 468.04M420.72 468.04L420.44 468.04M420.44 468.04L419.34 468.04M419.34 468.04L414.91 468.04M414.91 468.04L385.09 468.04"
fill="none" stroke="black" stroke-width="0.5"/>
<path d="M369.42 205.84L369.42 229.38M369.42 229.38L369.42 252.92M369.42 252.92L369.42 252.92M369.42 252.92L369.42 253.01M369.42 253.01L369.42 253.1M369.42 253.1L369.42 253.29M369.42 253.29L369.42 253.65M369.42 253.65L369.42 254.39M369.42 254.39L369.42 255.86M369.42 255.86L369.42 258.8M369.42 258.8L369.42 264.69M369.42 264.69L369.42 276.46M369.42 276.46L369.42 282.34M369.42 282.34L369.42 283.82M369.42 283.82L369.42 284.18M369.42 284.18L369.42 284.28M369.42 284.28L369.42 284.28M369.42 284.28L369.42 284.37M369.42 284.37L369.42 284.55M369.42 284.55L369.42 285.29M369.42 285.29L369.42 288.23M369.42 288.23L369.42 300M369.42 300L369.42 311.77M369.42 311.77L369.42 314.71M369.42 314.71L369.42 315.45M369.42 315.45L369.42 315.63M369.42 315.63L369.42 315.63M369.42 315.63L369.42 315.72M369.42 315.72L369.42 315.82M369.42 315.82L369.42 316.18M369.42 316.18L369.42 317.66M369.42 317.66L369.42 323.54M369.42 323.54L369.42 335.31M369.42 335.31L369.42 338.25M369.42 338.25L369.42 338.99M369.42 338.99L369.42 339.17M369.42 339.17L369.42 339.17M369.42 339.17L369.42 339.27M369.42 339.27L369.42 339.36M369.42 339.36L369.42 339.73M369.42 339.73L369.42 341.2M369.42 341.2L369.42 347.08M369.42 347.08L369.42 358.85M369.42 358.85L369.42 361.8M369.42 361.8L369.42 362.53M369.42 362.53L369.42 362.72M369.42 362.72L369.42 362.72M369.42 362.72L369.42 362.81M369.42 362.81L369.42 362.9M369.42 362.9L369.42 363.27M369.42 363.27L369.42 364.74M369.42 364.74L369.42 370.62M369.42 370.62L369.42 394.16M369.42 394.16L369.42 398.96M369.42 398.96L369.42 403.75M369.42 403.75L369.42 406.14M369.42 406.14L369.42 408.54M369.42 408.54L369.42 410.93M369.42 410.93L369.42 413.33M369.42 413.33L369.42 414.53M369.42 414.53L369.42 414.83M369.42 414.83L369.42 414.83M369.42 414.83L369.42 414.98M369.42 414.98L369.42 415.13M369.42 415.13L369.42 415.73M369.42 415.73L369.42 416.92M369.42 416.92L369.42 417.52M369.42 417.52L369.42 417.52M369.42 417.52L369.42 417.82M369.42 417.82L369.42 418.12M369.42 418.12L369.42 418.42M369.42 418.42L369.42 418.42M369.42 418.42L369.42 418.57M369.42 418.57L369.42 418.72M369.42 418.72L369.42 419.02M369.42 419.02L369.42 419.02M369.42 419.02L369.42 419.17M369.42 419.17L369.42 419.32M369.42 419.32L369.42 420.52M369.42 420.52L369.42 420.52M369.42 420.52L369.42 420.82M369.42 420.82L369.42 421.12M369.42 421.12L369.42 421.42M369.42 421.42L369.42 421.57M369.42 421.57L369.42 421.57M369.42 421.57L369.42 421.72M369.42 421.72L369.42 422.31M369.42 422.31L369.42 422.61M369.42 422.61L369.42 422.91M369.42 422.91L369.42 422.91M369.42 422.91L369.42 427.7M369.42 427.7L369.42 427.7M369.42 427.7L369.41 430.1M369.41 430.1L369.41 430.1M369.41 430.1L369.42 432.5M369.42 432.5L369.42 432.5M369.42 432.5L369.43 432.57M369.43 432.57L369.43 432.57M369.43 432.57L369.43 432.65M369.43 432.65L369.43 432.65M369.43 432.65L369.47 432.87M369.47 432.87L369.47 432.87M369.47 432.87L369.69 433.35M369.69 433.35L369.69 433.35M369.69 433.35L370 433.68M370 433.68L370 433.68M370 433.68L370.4 433.89M370.4 433.89L370.4 433.89M370.4 433.89L370.69 433.97M370.69 433.97L370.69 433.97M370.69 433.97L370.76 433.98M370.76 433.98L370.76 433.98M370.76 433.98L370.84 433.99M370.84 433.99L370.84 433.99M370.84 433.99L370.92 433.99M370.92 433.99L370.92 433.99M370.92 433.99L371.19 433.99M371.19 433.99L371.19 433.99M371.19 433.99L371.33 433.99M371.33 433.99L371.47 433.99M371.47 433.99L371.61 433.99M371.61 433.99L371.75 433.99M371.75 433.99L371.91 433.99M371.91 433.99L371.91 433.99M371.91 433.99L372.08 433.99M372.08 433.99L372.41 433.99M372.41 433.99L372.57 433.99M372.57 433.99L372.57 433.99M372.57 433.99L372.74 433.99M372.74 433.99L373.07 433.99M373.07 433.99L373.73 433.99M373.73 433.99L374.06 433.99M374.06 433.99L374.22 433.99M374.22 433.99L374.22 433.99M374.22 433.99L374.39 433.99M374.39 433.99L375.71 433.99M375.71 433.99L376.04 433.99M376.04 433.99L376.12 433.99M376.12 433.99L376.12 433.99M376.12 433.99L376.2 433.99M376.2 433.99L376.37 433.99M376.37 433.99L377.03 433.99M377.03 433.99L377.28 433.99M377.28 433.99L377.28 433.99M377.28 433.99L377.53 433.99M377.53 433.99L378.04 433.99M378.04 433.99L379.04 433.99M379.04 433.99L380.05 433.99M380.05 433.99L380.55 433.99M380.55 433.99L380.81 433.99M380.81 433.99L380.93 433.99M380.93 433.99L380.93 433.99M380.93 433.99L381.06 433.99M381.06 433.99L383.07 433.99M383.07 433.99L383.07 433.99M383.07 433.99L383.32 433.99M383.32 433.99L383.58 433.99M383.58 433.99L384.08 433.99M384.08 433.99L385.09 433.99M385.09 433.99L414.91 433.99M414.91 433.99L421.17 433.99M421.17 433.99L427.42 433.99M427.42 433.99L427.7 433.99M427.7 433.99L427.97 433.99M427.97 433.99L428.11 433.99M428.11 433.99L428.25 433.99M428.25 433.99L428.39 433.99M428.39 433.99L428.39 433.99M428.39 433.99L428.53 433.99M428.53 433.99L428.67 433.99M428.67 433.99L428.67 433.99M428.67 433.99L428.81 433.99M428.81 433.99L428.81 433.99M428.81 433.99L429.08 433.99M429.08 433.99L429.08 433.99M429.08 433.99L429.16 433.99M429.16 433.99L429.16 433.99M429.16 433.99L429.24 433.98M429.24 433.98L429.24 433.98M429.24 433.98L429.53 433.92M429.53 433.92L429.53 433.92M429.53 433.92L430 433.68M430 433.68L430 433.68M430 433.68L430.35 433.28M430.35 433.28L430.35 433.28M430.35 433.28L430.53 432.87M430.53 432.87L430.53 432.87M430.53 432.87L430.56 432.72M430.56 432.72L430.56 432.72M430.56 432.72L430.57 432.65M430.57 432.65L430.57 432.65M430.57 432.65L430.57 432.57M430.57 432.57L430.57 432.57M430.57 432.57L430.58 432.5M430.58 432.5L430.58 432.5M430.58 432.5L430.59 430.1M430.59 430.1L430.59 430.1M430.59 430.1L430.58 427.7M430.58 427.7L430.58 427.7M430.58 427.7L430.58 422.91M430.58 422.91L430.58 422.91M430.58 422.91L430.58 422.61M430.58 422.61L430.58 422.61M430.58 422.61L430.58 422.31M430.58 422.31L430.58 422.31M430.58 422.31L430.58 421.72M430.58 421.72L430.58 421.57M430.58 421.57L430.58 421.42M430.58 421.42L430.58 421.12M430.58 421.12L430.58 420.52M430.58 420.52L430.58 419.92M430.58 419.92L430.58 419.77M430.58 419.77L430.58 419.77M430.58 419.77L430.58 419.62M430.58 419.62L430.58 419.32M430.58 419.32L430.58 419.17M430.58 419.17L430.58 419.17M430.58 419.17L430.58 419.02M430.58 419.02L430.58 418.72M430.58 418.72L430.58 418.57M430.58 418.57L430.58 418.57M430.58 418.57L430.58 418.42M430.58 418.42L430.58 418.12M430.58 418.12L430.58 417.82M430.58 417.82L430.58 417.82M430.58 417.82L430.58 417.52M430.58 417.52L430.58 416.92M430.58 416.92L430.58 415.73M430.58 415.73L430.58 415.13M430.58 415.13L430.58 414.98M430.58 414.98L430.58 414.98M430.58 414.98L430.58 414.83M430.58 414.83L430.58 414.53M430.58 414.53L430.58 413.33M430.58 413.33L430.58 410.93M430.58 410.93L430.58 408.54M430.58 408.54L430.58 404.95M430.58 404.95L430.58 401.35M430.58 401.35L430.58 394.16M430.58 394.16L430.58 382.39M430.58 382.39L430.58 370.62M430.58 370.62L430.58 370.62M430.58 370.62L430.58 370.53M430.58 370.53L430.58 370.44M430.58 370.44L430.58 370.26M430.58 370.26L430.58 369.89M430.58 369.89L430.58 369.15M430.58 369.15L430.58 367.68M430.58 367.68L430.58 364.74M430.58 364.74L430.58 358.85M430.58 358.85L430.58 347.08M430.58 347.08L430.58 300M430.58 300L430.58 288.23M430.58 288.23L430.58 285.29M430.58 285.29L430.58 284.55M430.58 284.55L430.58 284.37M430.58 284.37L430.58 284.37M430.58 284.37L430.58 284.28M430.58 284.28L430.58 284.18M430.58 284.18L430.58 283.82M430.58 283.82L430.58 282.34M430.58 282.34L430.58 276.46M430.58 276.46L430.58 264.69M430.58 264.69L430.58 261.75M430.58 261.75L430.58 261.01M430.58 261.01L430.58 260.83M430.58 260.83L430.58 260.83M430.58 260.83L430.58 260.73M430.58 260.73L430.58 260.64M430.58 260.64L430.58 260.27M430.58 260.27L430.58 258.8M430.58 258.8L430.58 252.92M430.58 252.92L430.58 241.15M430.58 241.15L430.58 238.2M430.58 238.2L430.58 237.47M430.58 237.47L430.58 237.28M430.58 237.28L430.58 237.28M430.58 237.28L430.58 237.19M430.58 237.19L430.58 237.1M430.58 237.1L430.58 236.73M430.58 236.73L430.58 235.26M430.58 235.26L430.58 229.38M430.58 229.38L430.58 205.84M430.58 205.84L430.58 201.04M430.58 201.04L430.58 196.25M430.58 196.25L430.58 193.86M430.58 193.86L430.58 191.46M430.58 191.46L430.58 189.07M430.58 189.07L430.58 186.67M430.58 186.67L430.58 185.47M430.58 185.47L430.58 185.17M430.58 185.17L430.58 185.17M430.58 185.17L430.58 185.02M430.58 185.02L430.58 184.87M430.58 184.87L430.58 184.27M430.58 184.27L430.58 183.08M430.58 183.08L430.58 182.48M430.58 182.48L430.58 182.48M430.58 182.48L430.58 182.18M430.58 182.18L430.58 181.88M430.58 181.88L430.58 181.58M430.58 181.58L430.58 181.58M430.58 181.58L430.58 181.43M430.58 181.43L430.58 181.28M430.58 181.28L430.58 180.98M430.58 180.98L430.58 180.98M430.58 180.98L430.58 180.83M430.58 180.83L430.58 180.68M430.58 180.68L430.58 179.48M430.58 179.48L430.58 179.48M430.58 179.48L430.58 179.18M430.58 179.18L430.58 178.88M430.58 178.88L430.58 178.58M430.58 178.58L430.58 178.43M430.58 178.43L430.58 178.43M430.58 178.43L430.58 178.28M430.58 178.28L430.58 177.69M430.58 177.69L430.58 177.39M430.58 177.39L430.58 177.09M430.58 177.09L430.58 177.09M430.58 177.09L430.58 172.3M430.58 172.3L430.58 172.3M430.58 172.3L430.59 169.9M430.59 169.9L430.59 169.9M430.59 169.9L430.58 167.5M430.58 167.5L430.58 167.5M430.58 167.5L430.57 167.43M430.57 167.43L430.57 167.43M430.57 167.43L430.57 167.35M430.57 167.35L430.57 167.35M430.57 167.35L430.53 167.13M430.53 167.13L430.53 167.13M430.53 167.13L430.31 166.65M430.31 166.65L430.31 166.65M430.31 166.65L430 166.32M430 166.32L430 166.32M430 166.32L429.6 166.11M429.6 166.11L429.6 166.11M429.6 166.11L429.31 166.03M429.31 166.03L429.31 166.03M429.31 166.03L429.24 166.02M429.24 166.02L429.24 166.02M429.24 166.02L429.16 166.01M429.16 166.01L429.16 166.01M429.16 166.01L429.08 166.01M429.08 166.01L429.08 166.01M429.08 166.01L428.81 166.01M428.81 166.01L428.81 166.01M428.81 166.01L428.53 166.01M428.53 166.01L428.53 166.01M428.53 166.01L428.39 166.01M428.39 166.01L428.25 166.01M428.25 166.01L427.59 166.01M427.59 166.01L426.93 166.01M426.93 166.01L426.27 166.01M426.27 166.01L425.61 166.01M425.61 166.01L424.29 166.01M424.29 166.01L422.97 166.01M422.97 166.01L421.96 166.01M421.96 166.01L420.96 166.01M420.96 166.01L418.94 166.01M418.94 166.01L416.93 166.01M416.93 166.01L414.91 166.01M414.91 166.01L385.09 166.01M385.09 166.01L378.83 166.01M378.83 166.01L375.71 166.01M375.71 166.01L372.58 166.01M372.58 166.01L372.3 166.01M372.3 166.01L372.03 166.01M372.03 166.01L371.89 166.01M371.89 166.01L371.75 166.01M371.75 166.01L371.61 166.01M371.61 166.01L371.61 166.01M371.61 166.01L371.47 166.01M371.47 166.01L371.47 166.01M371.47 166.01L371.19 166.01M371.19 166.01L371.19 166.01M371.19 166.01L370.92 166.01M370.92 166.01L370.92 166.01M370.92 166.01L370.84 166.01M370.84 166.01L370.84 166.01M370.84 166.01L370.76 166.02M370.76 166.02L370.76 166.02M370.76 166.02L370.47 166.08M370.47 166.08L370.47 166.08M370.47 166.08L370 166.32M370 166.32L370 166.32M370 166.32L369.65 166.72M369.65 166.72L369.65 166.72M369.65 166.72L369.47 167.13M369.47 167.13L369.47 167.13M369.47 167.13L369.44 167.28M369.44 167.28L369.44 167.28M369.44 167.28L369.43 167.35M369.43 167.35L369.43 167.35M369.43 167.35L369.43 167.43M369.43 167.43L369.43 167.43M369.43 167.43L369.42 167.5M369.42 167.5L369.42 167.5M369.42 167.5L369.41 169.9M369.41 169.9L369.41 169.9M369.41 169.9L369.42 172.29M369.42 172.29L369.42 172.29M369.42 172.29L369.42 177.09M369.42 177.09L369.42 177.39M369.42 177.39L369.42 177.69M369.42 177.69L369.42 178.28M369.42 178.28L369.42 178.28M369.42 178.28L369.42 178.43M369.42 178.43L369.42 178.58M369.42 178.58L369.42 178.88M369.42 178.88L369.42 179.18M369.42 179.18L369.42 179.18M369.42 179.18L369.42 179.48M369.42 179.48L369.42 180.68M369.42 180.68L369.42 180.83M369.42 180.83L369.42 180.83M369.42 180.83L369.42 180.98M369.42 180.98L369.42 181.28M369.42 181.28L369.42 181.43M369.42 181.43L369.42 181.43M369.42 181.43L369.42 181.58M369.42 181.58L369.42 181.88M369.42 181.88L369.42 182.18M369.42 182.18L369.42 182.18M369.42 182.18L369.42 182.48M369.42 182.48L369.42 183.08M369.42 183.08L369.42 184.27M369.42 184.27L369.42 184.87M369.42 184.87L369.42 185.02M369.42 185.02L369.42 185.02M369.42 185.02L369.42 185.17M369.42 185.17L369.42 185.47M369.42 185.47L369.42 186.67M369.42 186.67L369.42 189.07M369.42 189.07L369.42 191.46M369.42 191.46L369.42 195.05M369.42 195.05L369.42 198.65M369.42 198.65L369.42 202.24M369.42 202.24L369.42 204.04M369.42 204.04L369.42 204.94M369.42 204.94L369.42 205.39M369.42 205.39L369.42 205.61M369.42 205.61L369.42 205.72M369.42 205.72L369.42 205.72M369.42 205.72L369.42 205.84"
fill="none" stroke="black" stroke-width="0.5"/>
<path d="M414.91 131.96L433.89 131.96M433.89 131.96L452.88 131.96M452.88 131.96L453.74 131.96M453.74 131.96L454.6 131.96M454.6 131.96L455.03 131.96M455.03 131.96L455.25 131.96M455.25 131.96L455.46 131.96M455.46 131.96L455.89 131.96M455.89 131.96L456.33 131.96M456.33 131.96L456.33 131.96M456.33 131.96L457.19 131.96M457.19 131.96L457.4 131.96M457.4 131.96L457.62 131.96M457.62 131.96L457.62 131.96M457.62 131.96L458.05 131.96M458.05 131.96L458.05 131.96M458.05 131.96L458.91 131.96M458.91 131.96L458.91 131.96M458.91 131.96L458.95 131.96M458.95 131.96L458.95 131.96M458.95 131.96L458.98 131.95M458.98 131.95L458.98 131.95M458.98 131.95L459.04 131.95M459.04 131.95L459.04 131.95M459.04 131.95L459.22 131.91M459.22 131.91L459.22 131.91M459.22 131.91L459.55 131.73M459.55 131.73L459.55 131.73M459.55 131.73L459.79 131.44M459.79 131.44L459.79 131.44M459.79 131.44L459.89 131.15M459.89 131.15L459.89 131.15M459.89 131.15L459.9 131.09M459.9 131.09L459.9 131.09M459.9 131.09L459.91 131.02M459.91 131.02L459.91 131.02M459.91 131.02L459.91 130.96M459.91 130.96L459.91 130.96M459.91 130.96L459.91 130.38M459.91 130.38L459.91 130.38M459.91 130.38L459.91 129.79M459.91 129.79L459.91 129.79M459.91 129.79L459.91 129.5M459.91 129.5L459.91 129.21M459.91 129.21L459.91 128.91M459.91 128.91L459.91 128.62M459.91 128.62L459.91 128.62M459.91 128.62L459.91 127.16M459.91 127.16L459.91 127.16M459.91 127.16L459.91 125.7M459.91 125.7L459.91 125.7M459.91 125.7L459.91 125.61M459.91 125.61L459.91 125.52M459.91 125.52L459.91 125.33M459.91 125.33L459.91 124.97M459.91 124.97L459.91 124.24M459.91 124.24L459.91 122.77M459.91 122.77L459.91 116.92M459.91 116.92L459.91 115.46M459.91 115.46L459.91 115.1M459.91 115.1L459.91 115.1M459.91 115.1L459.91 114.91M459.91 114.91L459.91 114.73M459.91 114.73L459.91 114M459.91 114L459.91 112.54M459.91 112.54L459.91 112.17M459.91 112.17L459.91 112.17M459.91 112.17L459.91 111.99M459.91 111.99L459.91 111.81M459.91 111.81L459.91 111.08M459.91 111.08L459.91 109.61M459.91 109.61L459.91 109.25M459.91 109.25L459.91 109.25M459.91 109.25L459.91 109.06M459.91 109.06L459.91 108.88M459.91 108.88L459.91 108.15M459.91 108.15L459.91 105.23M459.91 105.23L459.91 104.64M459.91 104.64L459.91 104.06M459.91 104.06L459.91 103.76M459.91 103.76L459.91 103.47M459.91 103.47L459.91 103.18M459.91 103.18L459.91 102.89M459.91 102.89L459.91 102.59M459.91 102.59L459.91 102.59M459.91 102.59L459.91 102.3M459.91 102.3L459.91 102.3M459.91 102.3L459.91 101.72M459.91 101.72L459.91 101.72M459.91 101.72L459.91 101.13M459.91 101.13L459.91 101.13M459.91 101.13L459.91 101.07M459.91 101.07L459.91 101.07M459.91 101.07L459.9 101.01M459.9 101.01L459.9 101.01M459.9 101.01L459.86 100.82M459.86 100.82L459.86 100.82M459.86 100.82L459.68 100.5M459.68 100.5L459.68 100.5M459.68 100.5L459.39 100.26M459.39 100.26L459.39 100.26M459.39 100.26L459.1 100.16M459.1 100.16L459.1 100.16M459.1 100.16L459.04 100.15M459.04 100.15L459.04 100.15M459.04 100.15L458.98 100.14M458.98 100.14L458.98 100.14M458.98 100.14L458.91 100.14M458.91 100.14L458.91 100.14M458.91 100.14L458.05 100.14M458.05 100.14L458.05 100.14M458.05 100.14L457.19 100.14M457.19 100.14L457.19 100.14M457.19 100.14L456.33 100.14M456.33 100.14L456.11 100.14M456.11 100.14L455.9 100.14M455.9 100.14L455.46 100.14M455.46 100.14L454.17 100.14M454.17 100.14L452.88 100.14M452.88 100.14L451.58 100.14M451.58 100.14L450.29 100.14M450.29 100.14L445.87 100.14M445.87 100.14L441.44 100.14M441.44 100.14L437.02 100.14M437.02 100.14L432.6 100.14M432.6 100.14L423.76 100.14M423.76 100.14L419.34 100.14M419.34 100.14L414.91 100.14M414.91 100.14L385.09 100.14M385.09 100.14L366.11 100.14M366.11 100.14L347.12 100.14M347.12 100.14L346.26 100.14M346.26 100.14L345.4 100.14M345.4 100.14L344.97 100.14M344.97 100.14L344.54 100.14M344.54 100.14L344.11 100.14M344.11 100.14L343.89 100.14M343.89 100.14L343.67 100.14M343.67 100.14L343.67 100.14M343.67 100.14L342.81 100.14M342.81 100.14L342.81 100.14M342.81 100.14L341.95 100.14M341.95 100.14L341.95 100.14M341.95 100.14L341.09 100.14M341.09 100.14L341.09 100.14M341.09 100.14L341.02 100.14M341.02 100.14L341.02 100.14M341.02 100.14L340.96 100.15M340.96 100.15L340.96 100.15M340.96 100.15L340.78 100.19M340.78 100.19L340.78 100.19M340.78 100.19L340.45 100.37M340.45 100.37L340.45 100.37M340.45 100.37L340.21 100.65M340.21 100.65L340.21 100.65M340.21 100.65L340.11 100.95M340.11 100.95L340.11 100.95M340.11 100.95L340.1 101.01M340.1 101.01L340.1 101.01M340.1 101.01L340.09 101.07M340.09 101.07L340.09 101.07M340.09 101.07L340.09 101.13M340.09 101.13L340.09 101.13M340.09 101.13L340.09 101.72M340.09 101.72L340.09 101.72M340.09 101.72L340.09 102.3M340.09 102.3L340.09 102.3M340.09 102.3L340.09 102.59M340.09 102.59L340.09 102.89M340.09 102.89L340.09 102.89M340.09 102.89L340.09 103.18M340.09 103.18L340.09 103.47M340.09 103.47L340.09 103.47M340.09 103.47L340.09 104.93M340.09 104.93L340.09 104.93M340.09 104.93L340.09 106.4M340.09 106.4L340.09 106.4M340.09 106.4L340.09 106.49M340.09 106.49L340.09 106.58M340.09 106.58L340.09 106.76M340.09 106.76L340.09 107.13M340.09 107.13L340.09 107.86M340.09 107.86L340.09 109.32M340.09 109.32L340.09 115.17M340.09 115.17L340.09 116.63M340.09 116.63L340.09 117M340.09 117L340.09 117M340.09 117L340.09 117.18M340.09 117.18L340.09 117.36M340.09 117.36L340.09 118.09M340.09 118.09L340.09 119.56M340.09 119.56L340.09 119.92M340.09 119.92L340.09 119.92M340.09 119.92L340.09 120.1M340.09 120.1L340.09 120.29M340.09 120.29L340.09 121.02M340.09 121.02L340.09 122.48M340.09 122.48L340.09 122.85M340.09 122.85L340.09 122.85M340.09 122.85L340.09 123.03M340.09 123.03L340.09 123.21M340.09 123.21L340.09 123.94M340.09 123.94L340.09 126.87M340.09 126.87L340.09 127.45M340.09 127.45L340.09 128.04M340.09 128.04L340.09 128.33M340.09 128.33L340.09 128.62M340.09 128.62L340.09 128.91M340.09 128.91L340.09 129.21M340.09 129.21L340.09 129.5M340.09 129.5L340.09 129.5M340.09 129.5L340.09 129.79M340.09 129.79L340.09 129.79M340.09 129.79L340.09 130.38M340.09 130.38L340.09 130.38M340.09 130.38L340.09 130.96M340.09 130.96L340.09 130.99M340.09 130.99L340.09 130.99M340.09 130.99L340.09 131.02M340.09 131.02L340.09 131.02M340.09 131.02L340.1 131.09M340.1 131.09L340.1 131.09M340.1 131.09L340.14 131.27M340.14 131.27L340.14 131.27M340.14 131.27L340.32 131.6M340.32 131.6L340.32 131.6M340.32 131.6L340.61 131.83M340.61 131.83L340.61 131.83M340.61 131.83L340.9 131.94M340.9 131.94L340.9 131.94M340.9 131.94L340.96 131.95M340.96 131.95L340.96 131.95M340.96 131.95L341.02 131.95M341.02 131.95L341.02 131.95M341.02 131.95L341.05 131.96M341.05 131.96L341.05 131.96M341.05 131.96L341.09 131.96M341.09 131.96L341.09 131.96M341.09 131.96L341.95 131.96M341.95 131.96L341.95 131.96M341.95 131.96L342.38 131.96M342.38 131.96L342.59 131.96M342.59 131.96L342.81 131.96M342.81 131.96L343.03 131.96M343.03 131.96L343.24 131.96M343.24 131.96L343.67 131.96M343.67 131.96L343.67 131.96M343.67 131.96L344.54 131.96M344.54 131.96L345.83 131.96M345.83 131.96L347.12 131.96M347.12 131.96L349.71 131.96M349.71 131.96L354.13 131.96M354.13 131.96L358.56 131.96M358.56 131.96L362.98 131.96M362.98 131.96L367.4 131.96M367.4 131.96L376.24 131.96M376.24 131.96L380.66 131.96M380.66 131.96L385.09 131.96M385.09 131.96L414.91 131.96"
fill="none" stroke="black" stroke-width="0.5"/>
<path d="M369.42 40.97L369.42 60.86M369.42 60.86L369.42 62.54M369.42 62.54L369.42 64.22M369.42 64.22L369.42 64.29M369.42 64.29L369.42 64.37M369.42 64.37L369.42 64.4M369.42 64.4L369.42 64.44M369.42 64.44L369.42 64.48M369.42 64.48L369.42 64.52M369.42 64.52L369.42 64.52M369.42 64.52L369.42 64.59M369.42 64.59L369.42 64.59M369.42 64.59L369.43 64.67M369.43 64.67L369.43 64.67M369.43 64.67L369.43 64.74M369.43 64.74L369.43 64.74M369.43 64.74L369.52 65.11M369.52 65.11L369.52 65.11M369.52 65.11L369.78 65.56M369.78 65.56L369.78 65.56M369.78 65.56L370.19 65.89M370.19 65.89L370.19 65.89M370.19 65.89L370.69 66.06M370.69 66.06L370.69 66.06M370.69 66.06L370.76 66.07M370.76 66.07L370.76 66.07M370.76 66.07L370.84 66.08M370.84 66.08L370.84 66.08M370.84 66.08L370.92 66.08M370.92 66.08L370.92 66.08M370.92 66.08L371.19 66.08M371.19 66.08L371.33 66.08M371.33 66.08L371.47 66.08M371.47 66.08L371.47 66.08M371.47 66.08L371.75 66.08M371.75 66.08L372.41 66.08M372.41 66.08L373.07 66.08M373.07 66.08L373.73 66.08M373.73 66.08L374.39 66.08M374.39 66.08L375.05 66.08M375.05 66.08L375.71 66.08M375.71 66.08L377.03 66.08M377.03 66.08L378.04 66.08M378.04 66.08L379.04 66.08M379.04 66.08L380.05 66.08M380.05 66.08L381.06 66.08M381.06 66.08L383.07 66.08M383.07 66.08L385.09 66.08M385.09 66.08L414.91 66.08M414.91 66.08L421.17 66.08M421.17 66.08L427.42 66.08M427.42 66.08L427.7 66.08M427.7 66.08L427.97 66.08M427.97 66.08L428.11 66.08M428.11 66.08L428.25 66.08M428.25 66.08L428.39 66.08M428.39 66.08L428.53 66.08M428.53 66.08L428.67 66.08M428.67 66.08L428.67 66.08M428.67 66.08L428.81 66.08M428.81 66.08L428.81 66.08M428.81 66.08L429.08 66.08M429.08 66.08L429.08 66.08M429.08 66.08L429.16 66.08M429.16 66.08L429.16 66.08M429.16 66.08L429.24 66.07M429.24 66.07L429.24 66.07M429.24 66.07L429.53 66.01M429.53 66.01L429.53 66.01M429.53 66.01L430 65.77M430 65.77L430 65.77M430 65.77L430.35 65.38M430.35 65.38L430.35 65.38M430.35 65.38L430.53 64.96M430.53 64.96L430.53 64.96M430.53 64.96L430.57 64.74M430.57 64.74L430.57 64.74M430.57 64.74L430.57 64.67M430.57 64.67L430.57 64.67M430.57 64.67L430.58 64.59M430.58 64.59L430.58 64.59M430.58 64.59L430.58 64.52M430.58 64.52L430.58 64.48M430.58 64.48L430.58 64.44M430.58 64.44L430.58 64.44M430.58 64.44L430.58 63.55M430.58 63.55L430.58 62.65M430.58 62.65L430.58 62.43M430.58 62.43L430.58 62.43M430.58 62.43L430.58 62.32M430.58 62.32L430.58 62.2M430.58 62.2L430.58 61.98M430.58 61.98L430.58 61.98M430.58 61.98L430.58 61.87M430.58 61.87L430.58 61.76M430.58 61.76L430.58 61.53M430.58 61.53L430.58 61.53M430.58 61.53L430.58 61.42M430.58 61.42L430.58 61.31M430.58 61.31L430.58 60.86M430.58 60.86L430.58 40.97M430.58 40.97L430.58 39.3M430.58 39.3L430.58 37.62M430.58 37.62L430.58 37.54M430.58 37.54L430.58 37.47M430.58 37.47L430.58 37.43M430.58 37.43L430.58 37.39M430.58 37.39L430.58 37.36M430.58 37.36L430.58 37.32M430.58 37.32L430.58 37.32M430.58 37.32L430.58 37.24M430.58 37.24L430.58 37.24M430.58 37.24L430.57 37.17M430.57 37.17L430.57 37.17M430.57 37.17L430.57 37.09M430.57 37.09L430.57 37.09M430.57 37.09L430.48 36.73M430.48 36.73L430.48 36.73M430.48 36.73L430.22 36.27M430.22 36.27L430.22 36.27M430.22 36.27L429.81 35.94M429.81 35.94L429.81 35.94M429.81 35.94L429.31 35.77M429.31 35.77L429.31 35.77M429.31 35.77L429.24 35.76M429.24 35.76L429.24 35.76M429.24 35.76L429.16 35.76M429.16 35.76L429.16 35.76M429.16 35.76L429.08 35.75M429.08 35.75L429.08 35.75M429.08 35.75L428.81 35.75M428.81 35.75L428.81 35.75M428.81 35.75L428.67 35.75M428.67 35.75L428.53 35.75M428.53 35.75L428.39 35.75M428.39 35.75L428.25 35.75M428.25 35.75L427.59 35.75M427.59 35.75L426.93 35.75M426.93 35.75L426.27 35.75M426.27 35.75L425.61 35.75M425.61 35.75L424.29 35.75M424.29 35.75L422.97 35.75M422.97 35.75L420.96 35.75M420.96 35.75L418.94 35.75M418.94 35.75L416.93 35.75M416.93 35.75L414.91 35.75M414.91 35.75L385.09 35.75M385.09 35.75L378.83 35.75M378.83 35.75L372.58 35.75M372.58 35.75L372.3 35.75M372.3 35.75L372.03 35.75M372.03 35.75L371.89 35.75M371.89 35.75L371.89 35.75M371.89 35.75L371.75 35.75M371.75 35.75L371.61 35.75M371.61 35.75L371.47 35.75M371.47 35.75L371.47 35.75M371.47 35.75L371.19 35.75M371.19 35.75L371.19 35.75M371.19 35.75L370.92 35.75M370.92 35.75L370.92 35.75M370.92 35.75L370.84 35.76M370.84 35.76L370.84 35.76M370.84 35.76L370.76 35.76M370.76 35.76L370.76 35.76M370.76 35.76L370.47 35.82M370.47 35.82L370.47 35.82M370.47 35.82L370 36.07M370 36.07L370 36.07M370 36.07L369.65 36.46M369.65 36.46L369.65 36.46M369.65 36.46L369.47 36.87M369.47 36.87L369.47 36.87M369.47 36.87L369.43 37.09M369.43 37.09L369.43 37.09M369.43 37.09L369.43 37.17M369.43 37.17L369.43 37.17M369.43 37.17L369.42 37.24M369.42 37.24L369.42 37.24M369.42 37.24L369.42 37.32M369.42 37.32L369.42 37.36M369.42 37.36L369.42 37.39M369.42 37.39L369.42 37.39M369.42 37.39L369.42 38.29M369.42 38.29L369.42 39.18M369.42 39.18L369.42 39.41M369.42 39.41L369.42 39.41M369.42 39.41L369.42 39.52M369.42 39.52L369.42 39.63M369.42 39.63L369.42 39.86M369.42 39.86L369.42 39.86M369.42 39.86L369.42 39.97M369.42 39.97L369.42 40.08M369.42 40.08L369.42 40.3M369.42 40.3L369.42 40.3M369.42 40.3L369.42 40.41M369.42 40.41L369.42 40.53M369.42 40.53L369.42 40.97"
fill="none" stroke="black" stroke-width="0.5"/>
<path d="M441.51 60.86L441.51 67.33M441.51 67.33L441.51 73.8M441.51 73.8L441.51 74.09M441.51 74.09L441.51 74.38M441.51 74.38L441.51 74.52M441.51 74.52L441.51 74.66M441.51 74.66L441.51 74.81M441.51 74.81L441.51 74.81M441.51 74.81L441.51 74.95M441.51 74.95L441.51 75.1M441.51 75.1L441.51 75.1M441.51 75.1L441.51 75.24M441.51 75.24L441.51 75.24M441.51 75.24L441.51 75.53M441.51 75.53L441.51 75.53M441.51 75.53L441.51 75.6M441.51 75.6L441.51 75.6M441.51 75.6L441.51 75.68M441.51 75.68L441.51 75.68M441.51 75.68L441.45 75.97M441.45 75.97L441.45 75.97M441.45 75.97L441.2 76.44M441.2 76.44L441.2 76.44M441.2 76.44L440.81 76.79M440.81 76.79L440.81 76.79M440.81 76.79L440.4 76.97M440.4 76.97L440.4 76.97M440.4 76.97L440.25 77M440.25 77L440.25 77M440.25 77L440.17 77.01M440.17 77.01L440.17 77.01M440.17 77.01L440.1 77.02M440.1 77.02L440.1 77.02M440.1 77.02L440.02 77.02M440.02 77.02L440.02 77.02M440.02 77.02L439.53 77.02M439.53 77.02L439.53 77.02M439.53 77.02L439.04 77.02M439.04 77.02L438.91 77.02M438.91 77.02L438.79 77.02M438.79 77.02L438.55 77.02M438.55 77.02L438.3 77.02M438.3 77.02L438.05 77.02M438.05 77.02L435.16 77.02M435.16 77.02L432.27 77.02M432.27 77.02L429.38 77.02M429.38 77.02L426.48 77.02M426.48 77.02L420.7 77.02M420.7 77.02L417.81 77.02M417.81 77.02L414.91 77.02M414.91 77.02L385.08 77.02M385.08 77.02L374.25 77.02M374.25 77.02L363.42 77.02M363.42 77.02L362.69 77.02M362.69 77.02L361.95 77.02M361.95 77.02L361.7 77.02M361.7 77.02L361.45 77.02M361.45 77.02L361.45 77.02M361.45 77.02L360.96 77.02M360.96 77.02L360.84 77.02M360.84 77.02L360.72 77.02M360.72 77.02L360.72 77.02M360.72 77.02L360.47 77.02M360.47 77.02L360.47 77.02M360.47 77.02L359.98 77.02M359.98 77.02L359.98 77.02M359.98 77.02L359.9 77.02M359.9 77.02L359.9 77.02M359.9 77.02L359.83 77.01M359.83 77.01L359.83 77.01M359.83 77.01L359.53 76.95M359.53 76.95L359.53 76.95M359.53 76.95L359.06 76.71M359.06 76.71L359.06 76.71M359.06 76.71L358.71 76.32M358.71 76.32L358.71 76.32M358.71 76.32L358.53 75.9M358.53 75.9L358.53 75.9M358.53 75.9L358.5 75.75M358.5 75.75L358.5 75.75M358.5 75.75L358.49 75.68M358.49 75.68L358.49 75.68M358.49 75.68L358.49 75.6M358.49 75.6L358.49 75.6M358.49 75.6L358.49 75.53M358.49 75.53L358.49 75.53M358.49 75.53L358.49 75.24M358.49 75.24L358.49 75.24M358.49 75.24L358.49 75.1M358.49 75.1L358.49 74.95M358.49 74.95L358.49 74.95M358.49 74.95L358.49 74.81M358.49 74.81L358.49 74.66M358.49 74.66L358.49 73.8M358.49 73.8L358.49 72.94M358.49 72.94L358.49 71.21M358.49 71.21L358.49 71.21M358.49 71.21L358.49 71.11M358.49 71.11L358.49 71M358.49 71L358.49 70.78M358.49 70.78L358.49 70.35M358.49 70.35L358.49 69.49M358.49 69.49L358.49 68.63M358.49 68.63L358.49 68.41M358.49 68.41L358.49 68.41M358.49 68.41L358.49 68.19M358.49 68.19L358.49 67.76M358.49 67.76L358.49 66.9M358.49 66.9L358.49 66.68M358.49 66.68L358.49 66.68M358.49 66.68L358.49 66.47M358.49 66.47L358.49 66.04M358.49 66.04L358.49 65.17M358.49 65.17L358.49 64.96M358.49 64.96L358.49 64.96M358.49 64.96L358.49 64.74M358.49 64.74L358.49 64.31M358.49 64.31L358.49 62.59M358.49 62.59L358.49 62.59M358.49 62.59L358.49 62.48M358.49 62.48L358.49 62.37M358.49 62.37L358.49 62.15M358.49 62.15L358.49 61.72M358.49 61.72L358.49 60.86M358.49 60.86L358.49 40.97M358.49 40.97L358.49 34.5M358.49 34.5L358.49 28.03M358.49 28.03L358.49 27.75M358.49 27.75L358.49 27.46M358.49 27.46L358.49 27.31M358.49 27.31L358.49 27.17M358.49 27.17L358.49 27.03M358.49 27.03L358.49 26.88M358.49 26.88L358.49 26.88M358.49 26.88L358.49 26.6M358.49 26.6L358.49 26.6M358.49 26.6L358.49 26.31M358.49 26.31L358.49 26.31M358.49 26.31L358.49 26.23M358.49 26.23L358.49 26.23M358.49 26.23L358.49 26.16M358.49 26.16L358.49 26.16M358.49 26.16L358.55 25.86M358.55 25.86L358.55 25.86M358.55 25.86L358.8 25.39M358.8 25.39L358.8 25.39M358.8 25.39L359.19 25.04M359.19 25.04L359.19 25.04M359.19 25.04L359.6 24.86M359.6 24.86L359.6 24.86M359.6 24.86L359.75 24.83M359.75 24.83L359.75 24.83M359.75 24.83L359.83 24.82M359.83 24.82L359.83 24.82M359.83 24.82L359.9 24.82M359.9 24.82L359.9 24.82M359.9 24.82L359.98 24.82M359.98 24.82L359.98 24.82M359.98 24.82L360.47 24.82M360.47 24.82L360.47 24.82M360.47 24.82L360.96 24.82M360.96 24.82L361.21 24.82M361.21 24.82L361.45 24.82M361.45 24.82L361.58 24.82M361.58 24.82L361.7 24.82M361.7 24.82L361.95 24.82M361.95 24.82L364.84 24.82M364.84 24.82L367.73 24.82M367.73 24.82L370.62 24.82M370.62 24.82L373.52 24.82M373.52 24.82L379.3 24.82M379.3 24.82L385.09 24.82M385.09 24.82L414.91 24.82M414.91 24.82L425.74 24.82M425.74 24.82L436.58 24.82M436.58 24.82L437.31 24.82M437.31 24.82L437.68 24.82M437.68 24.82L438.05 24.82M438.05 24.82L438.3 24.82M438.3 24.82L438.55 24.82M438.55 24.82L438.79 24.82M438.79 24.82L438.91 24.82M438.91 24.82L439.04 24.82M439.04 24.82L439.04 24.82M439.04 24.82L439.53 24.82M439.53 24.82L439.53 24.82M439.53 24.82L440.02 24.82M440.02 24.82L440.02 24.82M440.02 24.82L440.1 24.82M440.1 24.82L440.1 24.82M440.1 24.82L440.17 24.82M440.17 24.82L440.17 24.82M440.17 24.82L440.47 24.88M440.47 24.88L440.47 24.88M440.47 24.88L440.94 25.13M440.94 25.13L440.94 25.13M440.94 25.13L441.29 25.52M441.29 25.52L441.29 25.52M441.29 25.52L441.47 25.93M441.47 25.93L441.47 25.93M441.47 25.93L441.5 26.08M441.5 26.08L441.5 26.08M441.5 26.08L441.51 26.16M441.51 26.16L441.51 26.16M441.51 26.16L441.51 26.23M441.51 26.23L441.51 26.23M441.51 26.23L441.51 26.31M441.51 26.31L441.51 26.31M441.51 26.31L441.51 26.6M441.51 26.6L441.51 26.6M441.51 26.6L441.51 26.74M441.51 26.74L441.51 26.88M441.51 26.88L441.51 27.03M441.51 27.03L441.51 27.17M441.51 27.17L441.51 27.3M441.51 27.3L441.51 27.3M441.51 27.3L441.51 27.42M441.51 27.42L441.51 27.67M441.51 27.67L441.51 28.18M441.51 28.18L441.51 29.18M441.51 29.18L441.51 31.2M441.51 31.2L441.51 31.5M441.51 31.5L441.51 31.58M441.51 31.58L441.51 31.58M441.51 31.58L441.51 31.65M441.51 31.65L441.51 31.81M441.51 31.81L441.51 32.42M441.51 32.42L441.51 32.72M441.51 32.72L441.51 32.8M441.51 32.8L441.51 32.8M441.51 32.8L441.51 32.88M441.51 32.88L441.51 33.03M441.51 33.03L441.51 33.64M441.51 33.64L441.51 34.86M441.51 34.86L441.51 35.17M441.51 35.17L441.51 35.24M441.51 35.24L441.51 35.24M441.51 35.24L441.51 35.32M441.51 35.32L441.51 35.47M441.51 35.47L441.51 36.09M441.51 36.09L441.51 38.53M441.51 38.53L441.51 38.53M441.51 38.53L441.51 38.68M441.51 38.68L441.51 38.84M441.51 38.84L441.51 39.14M441.51 39.14L441.51 39.75M441.51 39.75L441.51 40.97M441.51 40.97L441.51 60.86"
fill="none" stroke="black" stroke-width="0.5"/>
<path d="M447.48 60.86L447.48 40.97M447.48 40.97L447.48 18.85M447.48 18.85L414.91 18.85M414.91 18.85L385.09 18.85M385.09 18.85L352.52 18.85M352.52 18.85L352.52 40.97M352.52 40.97L352.52 60.86M352.52 60.86L352.52 82.98M352.52 82.98L385.08 82.98M385.08 82.98L414.91 82.98M414.91 82.98L447.48 82.98M447.48 82.98L447.48 60.86"
fill="none" stroke="black" stroke-width="0.5"/>
<path d="M414.92 155.07L425.75 155.07M425.75 155.07L436.58 155.07M436.58 155.07L437.31 155.07M437.31 155.07L438.05 155.07M438.05 155.07L438.3 155.07M438.3 155.07L438.55 155.07M438.55 155.07L438.79 155.07M438.79 155.07L438.91 155.07M438.91 155.07L439.04 155.07M439.04 155.07L439.04 155.07M439.04 155.07L439.53 155.07M439.53 155.07L439.53 155.07M439.53 155.07L440.02 155.07M440.02 155.07L440.02 155.07M440.02 155.07L440.1 155.08M440.1 155.08L440.1 155.08M440.1 155.08L440.17 155.08M440.17 155.08L440.17 155.08M440.17 155.08L440.47 155.14M440.47 155.14L440.47 155.14M440.47 155.14L440.94 155.39M440.94 155.39L440.94 155.39M440.94 155.39L441.29 155.78M441.29 155.78L441.29 155.78M441.29 155.78L441.47 156.19M441.47 156.19L441.47 156.19M441.47 156.19L441.5 156.34M441.5 156.34L441.5 156.34M441.5 156.34L441.51 156.42M441.51 156.42L441.51 156.42M441.51 156.42L441.51 156.49M441.51 156.49L441.51 156.49M441.51 156.49L441.51 156.57M441.51 156.57L441.51 156.57M441.51 156.57L441.53 159.07M441.53 159.07L441.53 159.07M441.53 159.07L441.51 161.57M441.51 161.57L441.51 161.57M441.51 161.57L441.51 166.58M441.51 166.58L441.51 166.89M441.51 166.89L441.51 167.2M441.51 167.2L441.51 167.83M441.51 167.83L441.51 167.83M441.51 167.83L441.51 167.91M441.51 167.91L441.51 167.99M441.51 167.99L441.51 168.14M441.51 168.14L441.51 168.46M441.51 168.46L441.51 168.77M441.51 168.77L441.51 168.92M441.51 168.92L441.51 168.92M441.51 168.92L441.51 169.08M441.51 169.08L441.51 170.33M441.51 170.33L441.51 170.49M441.51 170.49L441.51 170.49M441.51 170.49L441.51 170.65M441.51 170.65L441.51 170.96M441.51 170.96L441.51 171.11M441.51 171.11L441.51 171.11M441.51 171.11L441.51 171.27M441.51 171.27L441.51 171.58M441.51 171.58L441.51 171.9M441.51 171.9L441.51 171.97M441.51 171.97L441.51 171.97M441.51 171.97L441.51 172.05M441.51 172.05L441.51 172.21M441.51 172.21L441.51 172.84M441.51 172.84L441.51 174.09M441.51 174.09L441.51 174.71M441.51 174.71L441.51 174.87M441.51 174.87L441.51 174.87M441.51 174.87L441.51 175.03M441.51 175.03L441.51 175.34M441.51 175.34L441.51 176.59M441.51 176.59L441.51 179.09M441.51 179.09L441.51 181.6M441.51 181.6L441.51 185.35M441.51 185.35L441.51 189.1M441.51 189.1L441.51 192.86M441.51 192.86L441.51 194.74M441.51 194.74L441.51 195.67M441.51 195.67L441.51 196.14M441.51 196.14L441.51 196.38M441.51 196.38L441.51 196.5M441.51 196.5L441.51 196.5M441.51 196.5L441.51 196.61M441.51 196.61L441.51 222.46M441.51 222.46L441.51 248.31M441.51 248.31L441.51 248.31M441.51 248.31L441.51 248.41M441.51 248.41L441.51 248.51M441.51 248.51L441.51 248.71M441.51 248.71L441.51 249.11M441.51 249.11L441.51 249.92M441.51 249.92L441.51 251.54M441.51 251.54L441.51 254.77M441.51 254.77L441.51 261.23M441.51 261.23L441.51 274.15M441.51 274.15L441.51 280.61M441.51 280.61L441.51 282.23M441.51 282.23L441.51 282.63M441.51 282.63L441.51 282.74M441.51 282.74L441.51 282.74M441.51 282.74L441.51 282.84M441.51 282.84L441.51 283.04M441.51 283.04L441.51 283.85M441.51 283.85L441.51 287.08M441.51 287.08L441.51 300M441.51 300L441.51 312.92M441.51 312.92L441.51 316.15M441.51 316.15L441.51 316.96M441.51 316.96L441.51 317.16M441.51 317.16L441.51 317.16M441.51 317.16L441.51 317.26M441.51 317.26L441.51 317.37M441.51 317.37L441.51 317.77M441.51 317.77L441.51 319.39M441.51 319.39L441.51 325.85M441.51 325.85L441.51 338.77M441.51 338.77L441.51 342M441.51 342L441.51 342.81M441.51 342.81L441.51 343.01M441.51 343.01L441.51 343.01M441.51 343.01L441.51 343.11M441.51 343.11L441.51 343.21M441.51 343.21L441.51 343.62M441.51 343.62L441.51 345.23M441.51 345.23L441.51 351.69M441.51 351.69L441.51 364.62M441.51 364.62L441.51 367.85M441.51 367.85L441.51 368.66M441.51 368.66L441.51 368.86M441.51 368.86L441.51 368.86M441.51 368.86L441.51 368.96M441.51 368.96L441.51 369.06M441.51 369.06L441.51 369.46M441.51 369.46L441.51 371.08M441.51 371.08L441.51 377.54M441.51 377.54L441.51 403.39M441.51 403.39L441.51 408.39M441.51 408.39L441.51 413.4M441.51 413.4L441.51 415.9M441.51 415.9L441.51 418.4M441.51 418.4L441.51 420.91M441.51 420.91L441.51 423.41M441.51 423.41L441.51 424.66M441.51 424.66L441.51 424.97M441.51 424.97L441.51 424.97M441.51 424.97L441.51 425.13M441.51 425.13L441.51 425.29M441.51 425.29L441.51 425.91M441.51 425.91L441.51 427.16M441.51 427.16L441.51 427.79M441.51 427.79L441.51 427.95M441.51 427.95L441.51 427.95M441.51 427.95L441.51 428.03M441.51 428.03L441.51 428.1M441.51 428.1L441.51 428.42M441.51 428.42L441.51 428.73M441.51 428.73L441.51 428.73M441.51 428.73L441.51 428.89M441.51 428.89L441.51 429.04M441.51 429.04L441.51 429.35M441.51 429.35L441.51 429.35M441.51 429.35L441.51 429.51M441.51 429.51L441.51 429.67M441.51 429.67L441.51 430.92M441.51 430.92L441.51 430.92M441.51 430.92L441.51 431.08M441.51 431.08L441.51 431.23M441.51 431.23L441.51 431.54M441.51 431.54L441.51 431.86M441.51 431.86L441.51 432.01M441.51 432.01L441.51 432.09M441.51 432.09L441.51 432.09M441.51 432.09L441.51 432.17M441.51 432.17L441.51 432.8M441.51 432.8L441.51 433.11M441.51 433.11L441.51 433.42M441.51 433.42L441.51 433.42M441.51 433.42L441.51 438.43M441.51 438.43L441.51 438.43M441.51 438.43L441.53 440.93M441.53 440.93L441.53 440.93M441.53 440.93L441.51 443.43M441.51 443.43L441.51 443.43M441.51 443.43L441.51 443.51M441.51 443.51L441.51 443.51M441.51 443.51L441.51 443.58M441.51 443.58L441.51 443.58M441.51 443.58L441.47 443.81M441.47 443.81L441.47 443.81M441.47 443.81L441.25 444.29M441.25 444.29L441.25 444.29M441.25 444.29L440.94 444.61M440.94 444.61L440.94 444.61M440.94 444.61L440.54 444.83M440.54 444.83L440.54 444.83M440.54 444.83L440.25 444.91M440.25 444.91L440.25 444.91M440.25 444.91L440.17 444.92M440.17 444.92L440.17 444.92M440.17 444.92L440.1 444.92M440.1 444.92L440.1 444.92M440.1 444.92L440.02 444.93M440.02 444.93L440.02 444.93M440.02 444.93L439.53 444.93M439.53 444.93L439.53 444.93M439.53 444.93L439.28 444.92M439.28 444.92L439.22 444.92M439.22 444.92L439.22 444.92M439.22 444.92L439.16 444.93M439.16 444.93L439.04 444.93M439.04 444.93L439.04 444.93M439.04 444.93L438.79 444.93M438.79 444.93L438.55 444.93M438.55 444.93L438.3 444.93M438.3 444.93L438.05 444.93M438.05 444.93L437.69 444.93M437.69 444.93L437.6 444.93M437.6 444.93L437.6 444.93M437.6 444.93L437.51 444.93M437.51 444.93L437.33 444.93M437.33 444.93L436.61 444.93M436.61 444.93L436.25 444.93M436.25 444.93L436.16 444.93M436.16 444.93L436.16 444.93M436.16 444.93L436.06 444.93M436.06 444.93L435.88 444.93M435.88 444.93L435.16 444.93M435.16 444.93L433.71 444.93M433.71 444.93L432.99 444.93M432.99 444.93L432.99 444.93M432.99 444.93L432.27 444.93M432.27 444.93L432.27 444.93M432.27 444.93L432.18 444.93M432.18 444.93L432.09 444.93M432.09 444.93L431.91 444.93M431.91 444.93L431.55 444.93M431.55 444.93L430.82 444.93M430.82 444.93L429.38 444.93M429.38 444.93L428.65 444.93M428.65 444.93L428.47 444.93M428.47 444.93L428.47 444.93M428.47 444.93L428.29 444.93M428.29 444.93L427.93 444.93M427.93 444.93L426.48 444.93M426.48 444.93L423.59 444.93M423.59 444.93L422.87 444.93M422.87 444.93L422.69 444.93M422.69 444.93L422.69 444.93M422.69 444.93L422.6 444.93M422.6 444.93L422.6 444.93M422.6 444.93L422.51 444.93M422.51 444.93L422.15 444.93M422.15 444.93L420.7 444.93M420.7 444.93L419.25 444.93M419.25 444.93L418.89 444.93M418.89 444.93L418.89 444.93M418.89 444.93L418.71 444.93M418.71 444.93L418.53 444.93M418.53 444.93L417.81 444.93M417.81 444.93L414.92 444.93M414.92 444.93L385.08 444.93M385.08 444.93L374.25 444.93M374.25 444.93L363.42 444.93M363.42 444.93L363.24 444.93M363.24 444.93L363.24 444.93M363.24 444.93L363.15 444.93M363.15 444.93L363.05 444.93M363.05 444.93L362.69 444.93M362.69 444.93L362.32 444.93M362.32 444.93L362.32 444.93M362.32 444.93L362.13 444.93M362.13 444.93L361.95 444.93M361.95 444.93L361.7 444.93M361.7 444.93L361.45 444.93M361.45 444.93L361.21 444.93M361.21 444.93L361.21 444.93M361.21 444.93L360.96 444.93M360.96 444.93L360.84 444.93M360.84 444.93L360.84 444.93M360.84 444.93L360.78 444.92M360.78 444.92L360.72 444.92M360.72 444.92L360.72 444.92M360.72 444.92L360.47 444.93M360.47 444.93L360.47 444.93M360.47 444.93L359.98 444.93M359.98 444.93L359.98 444.93M359.98 444.93L359.9 444.92M359.9 444.92L359.9 444.92M359.9 444.92L359.83 444.92M359.83 444.92L359.83 444.92M359.83 444.92L359.53 444.86M359.53 444.86L359.53 444.86M359.53 444.86L359.06 444.61M359.06 444.61L359.06 444.61M359.06 444.61L358.71 444.22M358.71 444.22L358.71 444.22M358.71 444.22L358.53 443.81M358.53 443.81L358.53 443.81M358.53 443.81L358.5 443.66M358.5 443.66L358.5 443.66M358.5 443.66L358.49 443.58M358.49 443.58L358.49 443.58M358.49 443.58L358.49 443.51M358.49 443.51L358.49 443.51M358.49 443.51L358.49 443.43M358.49 443.43L358.49 443.43M358.49 443.43L358.47 440.93M358.47 440.93L358.47 440.93M358.47 440.93L358.49 438.43M358.49 438.43L358.49 438.43M358.49 438.43L358.49 433.42M358.49 433.42L358.49 433.11M358.49 433.11L358.49 432.8M358.49 432.8L358.49 432.17M358.49 432.17L358.49 432.17M358.49 432.17L358.49 432.09M358.49 432.09L358.49 432.01M358.49 432.01L358.49 431.86M358.49 431.86L358.49 431.54M358.49 431.54L358.49 431.23M358.49 431.23L358.49 431.08M358.49 431.08L358.49 431.08M358.49 431.08L358.49 430.92M358.49 430.92L358.49 429.67M358.49 429.67L358.49 429.51M358.49 429.51L358.49 429.51M358.49 429.51L358.49 429.35M358.49 429.35L358.49 429.04M358.49 429.04L358.49 428.89M358.49 428.89L358.49 428.89M358.49 428.89L358.49 428.73M358.49 428.73L358.49 428.42M358.49 428.42L358.49 428.1M358.49 428.1L358.49 428.03M358.49 428.03L358.49 428.03M358.49 428.03L358.49 427.95M358.49 427.95L358.49 427.79M358.49 427.79L358.49 427.16M358.49 427.16L358.49 425.91M358.49 425.91L358.49 425.29M358.49 425.29L358.49 425.13M358.49 425.13L358.49 425.13M358.49 425.13L358.49 424.97M358.49 424.97L358.49 424.66M358.49 424.66L358.49 423.41M358.49 423.41L358.49 420.91M358.49 420.91L358.49 418.4M358.49 418.4L358.49 414.65M358.49 414.65L358.49 410.9M358.49 410.9L358.49 407.14M358.49 407.14L358.49 405.26M358.49 405.26L358.49 404.33M358.49 404.33L358.49 403.86M358.49 403.86L358.49 403.62M358.49 403.62L358.49 403.5M358.49 403.5L358.49 403.5M358.49 403.5L358.49 403.39M358.49 403.39L358.49 377.54M358.49 377.54L358.49 351.69M358.49 351.69L358.49 351.69M358.49 351.69L358.49 351.59M358.49 351.59L358.49 351.49M358.49 351.49L358.49 351.29M358.49 351.29L358.49 350.89M358.49 350.89L358.49 350.08M358.49 350.08L358.49 348.46M358.49 348.46L358.49 345.23M358.49 345.23L358.49 338.77M358.49 338.77L358.49 325.85M358.49 325.85L358.49 319.39M358.49 319.39L358.49 317.77M358.49 317.77L358.49 317.37M358.49 317.37L358.49 317.26M358.49 317.26L358.49 317.26M358.49 317.26L358.49 317.16M358.49 317.16L358.49 316.96M358.49 316.96L358.49 316.15M358.49 316.15L358.49 312.92M358.49 312.92L358.49 300M358.49 300L358.49 287.08M358.49 287.08L358.49 283.85M358.49 283.85L358.49 283.04M358.49 283.04L358.49 282.84M358.49 282.84L358.49 282.84M358.49 282.84L358.49 282.74M358.49 282.74L358.49 282.63M358.49 282.63L358.49 282.23M358.49 282.23L358.49 280.61M358.49 280.61L358.49 274.15M358.49 274.15L358.49 261.23M358.49 261.23L358.49 258M358.49 258L358.49 257.19M358.49 257.19L358.49 256.99M358.49 256.99L358.49 256.99M358.49 256.99L358.49 256.89M358.49 256.89L358.49 256.79M358.49 256.79L358.49 256.38M358.49 256.38L358.49 254.77M358.49 254.77L358.49 248.31M358.49 248.31L358.49 196.61M358.49 196.61L358.49 191.61M358.49 191.61L358.49 186.6M358.49 186.6L358.49 184.1M358.49 184.1L358.49 181.6M358.49 181.6L358.49 181.6M358.49 181.6L358.49 181.52M358.49 181.52L358.49 181.44M358.49 181.44L358.49 181.28M358.49 181.28L358.49 180.97M358.49 180.97L358.49 180.34M358.49 180.34L358.49 179.09M358.49 179.09L358.49 177.84M358.49 177.84L358.49 177.22M358.49 177.22L358.49 176.9M358.49 176.9L358.49 176.75M358.49 176.75L358.49 176.67M358.49 176.67L358.49 176.67M358.49 176.67L358.49 176.59M358.49 176.59L358.49 176.59M358.49 176.59L358.49 176.51M358.49 176.51L358.49 176.43M358.49 176.43L358.49 176.28M358.49 176.28L358.49 175.96M358.49 175.96L358.49 175.34M358.49 175.34L358.49 174.09M358.49 174.09L358.49 172.84M358.49 172.84L358.49 172.21M358.49 172.21L358.49 171.9M358.49 171.9L358.49 171.74M358.49 171.74L358.49 171.66M358.49 171.66L358.49 171.66M358.49 171.66L358.49 171.58M358.49 171.58L358.49 170.33M358.49 170.33L358.49 170.02M358.49 170.02L358.49 170.02M358.49 170.02L358.49 169.86M358.49 169.86L358.49 169.71M358.49 169.71L358.49 169.08M358.49 169.08L358.49 168.77M358.49 168.77L358.49 168.77M358.49 168.77L358.49 168.61M358.49 168.61L358.49 168.46M358.49 168.46L358.49 168.14M358.49 168.14L358.49 167.99M358.49 167.99L358.49 167.91M358.49 167.91L358.49 167.91M358.49 167.91L358.49 167.83M358.49 167.83L358.49 167.83M358.49 167.83L358.49 167.2M358.49 167.2L358.49 167.2M358.49 167.2L358.49 166.58M358.49 166.58L358.49 166.58M358.49 166.58L358.49 161.57M358.49 161.57L358.49 161.57M358.49 161.57L358.48 160.32M358.48 160.32L358.48 160.32M358.48 160.32L358.48 159.07M358.48 159.07L358.48 159.07M358.48 159.07L358.49 156.57M358.49 156.57L358.49 156.57M358.49 156.57L358.49 156.49M358.49 156.49L358.49 156.49M358.49 156.49L358.49 156.42M358.49 156.42L358.49 156.42M358.49 156.42L358.53 156.19M358.53 156.19L358.53 156.19M358.53 156.19L358.75 155.71M358.75 155.71L358.75 155.71M358.75 155.71L359.06 155.39M359.06 155.39L359.06 155.39M359.06 155.39L359.46 155.17M359.46 155.17L359.46 155.17M359.46 155.17L359.75 155.09M359.75 155.09L359.75 155.09M359.75 155.09L359.83 155.08M359.83 155.08L359.83 155.08M359.83 155.08L359.9 155.08M359.9 155.08L359.9 155.08M359.9 155.08L359.98 155.07M359.98 155.07L359.98 155.07M359.98 155.07L360.47 155.07M360.47 155.07L360.47 155.07M360.47 155.07L360.96 155.07M360.96 155.07L361.09 155.07M361.09 155.07L361.21 155.07M361.21 155.07L361.45 155.07M361.45 155.07L361.7 155.07M361.7 155.07L361.95 155.07M361.95 155.07L364.84 155.07M364.84 155.07L367.73 155.07M367.73 155.07L370.62 155.07M370.62 155.07L373.52 155.07M373.52 155.07L379.3 155.07M379.3 155.07L385.08 155.07M385.08 155.07L414.92 155.07"
fill="none" stroke="black" stroke-width="0.5"/>
<path d="M414.92 149.11L385.08 149.11M385.08 149.11L352.52 149.11M352.52 149.11L352.52 450.89M352.52 450.89L385.08 450.89M385.08 450.89L414.92 450.89M414.92 450.89L447.48 450.89M447.48 450.89L447.48 149.11M447.48 149.11L414.92 149.11"
fill="none" stroke="black" stroke-width="0.5"/>
<path d="M414.92 133.45L385.08 133.45M385.08 133.45L365.46 133.45M365.46 133.45L345.84 133.45M345.84 133.45L344.95 133.45M344.95 133.45L344.05 133.45M344.05 133.45L343.61 133.45M343.61 133.45L343.38 133.45M343.38 133.45L343.16 133.45M343.16 133.45L342.72 133.45M342.72 133.45L342.27 133.45M342.27 133.45L341.82 133.45M341.82 133.45L341.6 133.45M341.6 133.45L341.38 133.45M341.38 133.45L341.38 133.45M341.38 133.45L341.15 133.45M341.15 133.45L340.93 133.45M340.93 133.45L340.93 133.45M340.93 133.45L340.49 133.45M340.49 133.45L340.49 133.45M340.49 133.45L339.59 133.45M339.59 133.45L339.59 133.45M339.59 133.45L339.53 133.45M339.53 133.45L339.53 133.45M339.53 133.45L339.47 133.44M339.47 133.44L339.47 133.44M339.47 133.44L339.29 133.4M339.29 133.4L339.29 133.4M339.29 133.4L338.96 133.22M338.96 133.22L338.96 133.22M338.96 133.22L338.72 132.93M338.72 132.93L338.72 132.93M338.72 132.93L338.62 132.64M338.62 132.64L338.62 132.64M338.62 132.64L338.61 132.58M338.61 132.58L338.61 132.58M338.61 132.58L338.6 132.52M338.6 132.52L338.6 132.52M338.6 132.52L338.6 132.48M338.6 132.48L338.6 132.45M338.6 132.45L338.6 132.45M338.6 132.45L338.6 131.81M338.6 131.81L338.6 131.81M338.6 131.81L338.6 131.17M338.6 131.17L338.6 131.17M338.6 131.17L338.6 130.84M338.6 130.84L338.6 130.52M338.6 130.52L338.6 130.52M338.6 130.52L338.6 130.2M338.6 130.2L338.6 129.88M338.6 129.88L338.6 129.88M338.6 129.88L338.6 128.35M338.6 128.35L338.6 128.35M338.6 128.35L338.6 126.82M338.6 126.82L338.6 126.82M338.6 126.82L338.6 126.73M338.6 126.73L338.6 126.63M338.6 126.63L338.6 126.44M338.6 126.44L338.6 126.06M338.6 126.06L338.6 125.3M338.6 125.3L338.6 123.77M338.6 123.77L338.6 120.71M338.6 120.71L338.6 119.18M338.6 119.18L338.6 118.42M338.6 118.42L338.6 118.04M338.6 118.04L338.6 117.85M338.6 117.85L338.6 117.85M338.6 117.85L338.6 117.66M338.6 117.66L338.6 111.54M338.6 111.54L338.6 108.49M338.6 108.49L338.6 108.49M338.6 108.49L338.6 108.39M338.6 108.39L338.6 108.3M338.6 108.3L338.6 108.1M338.6 108.1L338.6 107.72M338.6 107.72L338.6 106.96M338.6 106.96L338.6 105.43M338.6 105.43L338.6 104.79M338.6 104.79L338.6 104.47M338.6 104.47L338.6 104.3M338.6 104.3L338.6 104.22M338.6 104.22L338.6 104.22M338.6 104.22L338.6 104.14M338.6 104.14L338.6 104.14M338.6 104.14L338.6 104.06M338.6 104.06L338.6 103.98M338.6 103.98L338.6 103.82M338.6 103.82L338.6 103.5M338.6 103.5L338.6 102.86M338.6 102.86L338.6 102.54M338.6 102.54L338.6 102.21M338.6 102.21L338.6 101.89M338.6 101.89L338.6 101.57M338.6 101.57L338.6 101.25M338.6 101.25L338.6 101.25M338.6 101.25L338.6 100.93M338.6 100.93L338.6 100.93M338.6 100.93L338.6 100.28M338.6 100.28L338.6 100.28M338.6 100.28L338.6 99.64M338.6 99.64L338.6 99.64M338.6 99.64L338.6 99.58M338.6 99.58L338.6 99.58M338.6 99.58L338.61 99.52M338.61 99.52L338.61 99.52M338.61 99.52L338.67 99.27M338.67 99.27L338.67 99.27M338.67 99.27L338.87 98.96M338.87 98.96L338.87 98.96M338.87 98.96L339.17 98.74M339.17 98.74L339.17 98.74M339.17 98.74L339.41 98.66M339.41 98.66L339.41 98.66M339.41 98.66L339.47 98.65M339.47 98.65L339.47 98.65M339.47 98.65L339.53 98.65M339.53 98.65L339.53 98.65M339.53 98.65L339.59 98.65M339.59 98.65L339.59 98.65M339.59 98.65L340.49 98.65M340.49 98.65L340.49 98.65M340.49 98.65L341.38 98.65M341.38 98.65L341.82 98.65M341.82 98.65L342.27 98.65M342.27 98.65L342.27 98.65M342.27 98.65L343.16 98.65M343.16 98.65L345.39 98.65M345.39 98.65L346.51 98.65M346.51 98.65L347.62 98.65M347.62 98.65L352.3 98.65M352.3 98.65L356.99 98.65M356.99 98.65L361.67 98.65M361.67 98.65L366.35 98.65M366.35 98.65L375.72 98.65M375.72 98.65L380.4 98.65M380.4 98.65L385.08 98.65M385.08 98.65L414.91 98.65M414.91 98.65L434.54 98.65M434.54 98.65L454.16 98.65M454.16 98.65L455.05 98.65M455.05 98.65L455.95 98.65M455.95 98.65L456.39 98.65M456.39 98.65L456.84 98.65M456.84 98.65L457.28 98.65M457.28 98.65L457.51 98.65M457.51 98.65L457.73 98.65M457.73 98.65L457.73 98.65M457.73 98.65L458.62 98.65M458.62 98.65L458.62 98.65M458.62 98.65L459.51 98.65M459.51 98.65L459.51 98.65M459.51 98.65L460.41 98.65M460.41 98.65L460.41 98.65M460.41 98.65L460.47 98.65M460.47 98.65L460.47 98.65M460.47 98.65L460.53 98.65M460.53 98.65L460.53 98.65M460.53 98.65L460.71 98.69M460.71 98.69L460.71 98.69M460.71 98.69L461.04 98.87M461.04 98.87L461.04 98.87M461.04 98.87L461.28 99.16M461.28 99.16L461.28 99.16M461.28 99.16L461.38 99.45M461.38 99.45L461.38 99.45M461.38 99.45L461.39 99.52M461.39 99.52L461.39 99.52M461.39 99.52L461.4 99.58M461.4 99.58L461.4 99.58M461.4 99.58L461.4 99.64M461.4 99.64L461.4 99.64M461.4 99.64L461.4 100.28M461.4 100.28L461.4 100.28M461.4 100.28L461.4 100.93M461.4 100.93L461.4 100.93M461.4 100.93L461.4 101.25M461.4 101.25L461.4 101.57M461.4 101.57L461.4 101.89M461.4 101.89L461.4 102.21M461.4 102.21L461.4 103.74M461.4 103.74L461.4 105.27M461.4 105.27L461.4 108.33M461.4 108.33L461.4 108.33M461.4 108.33L461.4 108.42M461.4 108.42L461.4 108.52M461.4 108.52L461.4 108.71M461.4 108.71L461.4 109.09M461.4 109.09L461.4 109.85M461.4 109.85L461.4 111.38M461.4 111.38L461.4 112.15M461.4 112.15L461.4 112.34M461.4 112.34L461.4 112.34M461.4 112.34L461.4 112.53M461.4 112.53L461.4 112.91M461.4 112.91L461.4 114.44M461.4 114.44L461.4 115.97M461.4 115.97L461.4 116.35M461.4 116.35L461.4 116.35M461.4 116.35L461.4 116.54M461.4 116.54L461.4 116.73M461.4 116.73L461.4 117.49M461.4 117.49L461.4 119.02M461.4 119.02L461.4 119.4M461.4 119.4L461.4 119.4M461.4 119.4L461.4 119.6M461.4 119.6L461.4 119.79M461.4 119.79L461.4 120.55M461.4 120.55L461.4 122.08M461.4 122.08L461.4 122.46M461.4 122.46L461.4 122.46M461.4 122.46L461.4 122.65M461.4 122.65L461.4 122.84M461.4 122.84L461.4 123.61M461.4 123.61L461.4 126.66M461.4 126.66L461.4 127.95M461.4 127.95L461.4 129.24M461.4 129.24L461.4 129.56M461.4 129.56L461.4 129.88M461.4 129.88L461.4 130.2M461.4 130.2L461.4 130.52M461.4 130.52L461.4 130.84M461.4 130.84L461.4 130.84M461.4 130.84L461.4 131.17M461.4 131.17L461.4 131.17M461.4 131.17L461.4 131.81M461.4 131.81L461.4 131.81M461.4 131.81L461.4 132.45M461.4 132.45L461.4 132.45M461.4 132.45L461.4 132.52M461.4 132.52L461.4 132.52M461.4 132.52L461.39 132.58M461.39 132.58L461.39 132.58M461.39 132.58L461.35 132.76M461.35 132.76L461.35 132.76M461.35 132.76L461.17 133.09M461.17 133.09L461.17 133.09M461.17 133.09L460.89 133.32M460.89 133.32L460.89 133.32M460.89 133.32L460.59 133.43M460.59 133.43L460.59 133.43M460.59 133.43L460.53 133.44M460.53 133.44L460.53 133.44M460.53 133.44L460.47 133.45M460.47 133.45L460.47 133.45M460.47 133.45L460.41 133.45M460.41 133.45L460.41 133.45M460.41 133.45L459.51 133.45M459.51 133.45L459.51 133.45M459.51 133.45L458.62 133.45M458.62 133.45L458.62 133.45M458.62 133.45L457.73 133.45M457.73 133.45L457.28 133.45M457.28 133.45L456.84 133.45M456.84 133.45L455.72 133.45M455.72 133.45L454.61 133.45M454.61 133.45L453.49 133.45M453.49 133.45L452.38 133.45M452.38 133.45L447.7 133.45M447.7 133.45L443.01 133.45M443.01 133.45L438.33 133.45M438.33 133.45L433.65 133.45M433.65 133.45L424.28 133.45M424.28 133.45L419.6 133.45M419.6 133.45L414.92 133.45"
fill="none" stroke="black" stroke-width="0.5"/>
<path d="M461.4 40.97L461.4 60.86M461.4 60.86L461.4 96.91M461.4 96.91L414.91 96.91M414.91 96.91L385.08 96.91M385.08 96.91L338.6 96.91M338.6 96.91L338.6 60.86M338.6 60.86L338.6 40.97M338.6 40.97L338.6 4.93M338.6 4.93L385.08 4.93M385.08 4.93L414.91 4.93M414.91 4.93L461.4 4.93M461.4 4.93L461.4 40.97"
fill="none" stroke="black" stroke-width="0.5"/>
<path d="M414.92 466.55L434.54 466.55M434.54 466.55L454.16 466.55M454.16 466.55L455.05 466.55M455.05 466.55L455.95 466.55M455.95 466.55L456.39 466.55M456.39 466.55L456.84 466.55M456.84 466.55L457.28 466.55M457.28 466.55L457.73 466.55M457.73 466.55L457.73 466.55M457.73 466.55L458.62 466.55M458.62 466.55L458.62 466.55M458.62 466.55L459.51 466.55M459.51 466.55L459.51 466.55M459.51 466.55L460.41 466.55M460.41 466.55L460.41 466.55M460.41 466.55L460.47 466.55M460.47 466.55L460.47 466.55M460.47 466.55L460.53 466.56M460.53 466.56L460.53 466.56M460.53 466.56L460.71 466.6M460.71 466.6L460.71 466.6M460.71 466.6L461.04 466.78M461.04 466.78L461.04 466.78M461.04 466.78L461.28 467.07M461.28 467.07L461.28 467.07M461.28 467.07L461.38 467.36M461.38 467.36L461.38 467.36M461.38 467.36L461.39 467.42M461.39 467.42L461.39 467.42M461.39 467.42L461.4 467.48M461.4 467.48L461.4 467.48M461.4 467.48L461.4 467.55M461.4 467.55L461.4 467.55M461.4 467.55L461.4 468.19M461.4 468.19L461.4 468.19M461.4 468.19L461.4 468.83M461.4 468.83L461.4 468.83M461.4 468.83L461.4 469.15M461.4 469.15L461.4 469.48M461.4 469.48L461.4 469.8M461.4 469.8L461.4 470.12M461.4 470.12L461.4 471.65M461.4 471.65L461.4 473.18M461.4 473.18L461.4 476.23M461.4 476.23L461.4 476.23M461.4 476.23L461.4 476.33M461.4 476.33L461.4 476.42M461.4 476.42L461.4 476.61M461.4 476.61L461.4 477M461.4 477L461.4 477.76M461.4 477.76L461.4 479.29M461.4 479.29L461.4 480.05M461.4 480.05L461.4 480.24M461.4 480.24L461.4 480.24M461.4 480.24L461.4 480.43M461.4 480.43L461.4 480.82M461.4 480.82L461.4 482.34M461.4 482.34L461.4 483.87M461.4 483.87L461.4 484.25M461.4 484.25L461.4 484.25M461.4 484.25L461.4 484.45M461.4 484.45L461.4 484.64M461.4 484.64L461.4 485.4M461.4 485.4L461.4 486.93M461.4 486.93L461.4 487.31M461.4 487.31L461.4 487.31M461.4 487.31L461.4 487.5M461.4 487.5L461.4 487.69M461.4 487.69L461.4 488.46M461.4 488.46L461.4 489.98M461.4 489.98L461.4 490.37M461.4 490.37L461.4 490.37M461.4 490.37L461.4 490.56M461.4 490.56L461.4 490.75M461.4 490.75L461.4 491.51M461.4 491.51L461.4 494.57M461.4 494.57L461.4 495.86M461.4 495.86L461.4 497.14M461.4 497.14L461.4 497.46M461.4 497.46L461.4 497.79M461.4 497.79L461.4 498.11M461.4 498.11L461.4 498.43M461.4 498.43L461.4 498.75M461.4 498.75L461.4 498.75M461.4 498.75L461.4 499.07M461.4 499.07L461.4 499.07M461.4 499.07L461.4 499.72M461.4 499.72L461.4 499.72M461.4 499.72L461.4 500.36M461.4 500.36L461.4 500.36M461.4 500.36L461.4 500.42M461.4 500.42L461.4 500.42M461.4 500.42L461.39 500.48M461.39 500.48L461.39 500.48M461.39 500.48L461.35 500.67M461.35 500.67L461.35 500.67M461.35 500.67L461.17 500.99M461.17 500.99L461.17 500.99M461.17 500.99L460.89 501.23M460.89 501.23L460.89 501.23M460.89 501.23L460.59 501.34M460.59 501.34L460.59 501.34M460.59 501.34L460.53 501.35M460.53 501.35L460.53 501.35M460.53 501.35L460.47 501.35M460.47 501.35L460.47 501.35M460.47 501.35L460.44 501.35M460.44 501.35L460.41 501.35M460.41 501.35L460.41 501.35M460.41 501.35L459.51 501.35M459.51 501.35L459.51 501.35M459.51 501.35L458.62 501.35M458.62 501.35L458.62 501.35M458.62 501.35L458.18 501.35M458.18 501.35L457.73 501.35M457.73 501.35L457.73 501.35M457.73 501.35L457.28 501.35M457.28 501.35L456.84 501.35M456.84 501.35L455.72 501.35M455.72 501.35L454.61 501.35M454.61 501.35L453.49 501.35M453.49 501.35L453.21 501.35M453.21 501.35L453.21 501.35M453.21 501.35L452.94 501.35M452.94 501.35L452.38 501.35M452.38 501.35L451.79 501.35M451.79 501.35L451.65 501.35M451.65 501.35L451.65 501.35M451.65 501.35L451.5 501.35M451.5 501.35L451.21 501.35M451.21 501.35L450.04 501.35M450.04 501.35L450.04 501.35M450.04 501.35L447.7 501.35M447.7 501.35L447.7 501.35M447.7 501.35L443.01 501.35M443.01 501.35L443.01 501.35M443.01 501.35L442.87 501.35M442.87 501.35L442.72 501.35M442.72 501.35L442.43 501.35M442.43 501.35L441.84 501.35M441.84 501.35L440.67 501.35M440.67 501.35L438.33 501.35M438.33 501.35L437.16 501.35M437.16 501.35L436.87 501.35M436.87 501.35L436.87 501.35M436.87 501.35L436.57 501.35M436.57 501.35L435.99 501.35M435.99 501.35L433.65 501.35M433.65 501.35L431.3 501.35M431.3 501.35L430.72 501.35M430.72 501.35L430.72 501.35M430.72 501.35L430.43 501.35M430.43 501.35L430.13 501.35M430.13 501.35L428.96 501.35M428.96 501.35L426.62 501.35M426.62 501.35L426.04 501.35M426.04 501.35L426.04 501.35M426.04 501.35L425.74 501.35M425.74 501.35L425.45 501.35M425.45 501.35L424.28 501.35M424.28 501.35L421.94 501.35M421.94 501.35L421.35 501.35M421.35 501.35L421.35 501.35M421.35 501.35L421.06 501.35M421.06 501.35L420.77 501.35M420.77 501.35L419.6 501.35M419.6 501.35L414.91 501.35M414.91 501.35L385.09 501.35M385.09 501.35L365.46 501.35M365.46 501.35L355.65 501.35M355.65 501.35L345.84 501.35M345.84 501.35L344.95 501.35M344.95 501.35L344.05 501.35M344.05 501.35L343.61 501.35M343.61 501.35L343.16 501.35M343.16 501.35L343.16 501.35M343.16 501.35L342.27 501.35M342.27 501.35L341.82 501.35M341.82 501.35L341.82 501.35M341.82 501.35L341.38 501.35M341.38 501.35L341.38 501.35M341.38 501.35L340.49 501.35M340.49 501.35L340.49 501.35M340.49 501.35L339.59 501.35M339.59 501.35L339.56 501.35M339.56 501.35L339.56 501.35M339.56 501.35L339.53 501.35M339.53 501.35L339.53 501.35M339.53 501.35L339.47 501.35M339.47 501.35L339.47 501.35M339.47 501.35L339.29 501.31M339.29 501.31L339.29 501.31M339.29 501.31L338.96 501.13M338.96 501.13L338.96 501.13M338.96 501.13L338.72 500.84M338.72 500.84L338.72 500.84M338.72 500.84L338.62 500.55M338.62 500.55L338.62 500.55M338.62 500.55L338.61 500.48M338.61 500.48L338.61 500.48M338.61 500.48L338.6 500.42M338.6 500.42L338.6 500.42M338.6 500.42L338.6 500.36M338.6 500.36L338.6 500.36M338.6 500.36L338.6 499.72M338.6 499.72L338.6 499.72M338.6 499.72L338.6 499.07M338.6 499.07L338.6 499.07M338.6 499.07L338.6 498.99M338.6 498.99L338.6 498.99M338.6 498.99L338.6 498.91M338.6 498.91L338.6 498.75M338.6 498.75L338.6 498.67M338.6 498.67L338.6 498.67M338.6 498.67L338.6 498.59M338.6 498.59L338.6 498.43M338.6 498.43L338.6 498.11M338.6 498.11L338.6 497.79M338.6 497.79L338.6 497.44M338.6 497.44L338.6 497.36M338.6 497.36L338.6 497.36M338.6 497.36L338.6 497.27M338.6 497.27L338.6 497.1M338.6 497.1L338.6 496.42M338.6 496.42L338.6 496.08M338.6 496.08L338.6 495.99M338.6 495.99L338.6 495.99M338.6 495.99L338.6 495.91M338.6 495.91L338.6 495.74M338.6 495.74L338.6 495.05M338.6 495.05L338.6 493.68M338.6 493.68L338.6 493M338.6 493L338.6 492.66M338.6 492.66L338.6 492.49M338.6 492.49L338.6 492.49M338.6 492.49L338.6 492.32M338.6 492.32L338.6 489.58M338.6 489.58L338.6 488.9M338.6 488.9L338.6 488.73M338.6 488.73L338.6 488.73M338.6 488.73L338.6 488.56M338.6 488.56L338.6 488.22M338.6 488.22L338.6 486.85M338.6 486.85L338.6 485.88M338.6 485.88L338.6 485.64M338.6 485.64L338.6 485.64M338.6 485.64L338.6 485.4M338.6 485.4L338.6 484.92M338.6 484.92L338.6 482.99M338.6 482.99L338.6 481.06M338.6 481.06L338.6 480.09M338.6 480.09L338.6 479.61M338.6 479.61L338.6 479.37M338.6 479.37L338.6 479.25M338.6 479.25L338.6 479.25M338.6 479.25L338.6 479.13M338.6 479.13L338.6 475.27M338.6 475.27L338.6 475.27M338.6 475.27L338.6 475.03M338.6 475.03L338.6 474.78M338.6 474.78L338.6 474.3M338.6 474.3L338.6 473.34M338.6 473.34L338.6 471.41M338.6 471.41L338.6 470.76M338.6 470.76L338.6 470.12M338.6 470.12L338.6 469.8M338.6 469.8L338.6 469.48M338.6 469.48L338.6 469.15M338.6 469.15L338.6 469.15M338.6 469.15L338.6 468.83M338.6 468.83L338.6 468.83M338.6 468.83L338.6 468.19M338.6 468.19L338.6 468.19M338.6 468.19L338.6 467.55M338.6 467.55L338.6 467.52M338.6 467.52L338.6 467.52M338.6 467.52L338.6 467.48M338.6 467.48L338.6 467.48M338.6 467.48L338.61 467.42M338.61 467.42L338.61 467.42M338.61 467.42L338.65 467.24M338.65 467.24L338.65 467.24M338.65 467.24L338.83 466.91M338.83 466.91L338.83 466.91M338.83 466.91L339.11 466.67M339.11 466.67L339.11 466.67M339.11 466.67L339.41 466.57M339.41 466.57L339.41 466.57M339.41 466.57L339.47 466.56M339.47 466.56L339.47 466.56M339.47 466.56L339.53 466.55M339.53 466.55L339.53 466.55M339.53 466.55L339.59 466.55M339.59 466.55L339.59 466.55M339.59 466.55L340.49 466.55M340.49 466.55L340.49 466.55M340.49 466.55L341.38 466.55M341.38 466.55L341.38 466.55M341.38 466.55L342.27 466.55M342.27 466.55L342.72 466.55M342.72 466.55L343.16 466.55M343.16 466.55L343.5 466.55M343.5 466.55L343.58 466.55M343.58 466.55L343.58 466.55M343.58 466.55L343.66 466.55M343.66 466.55L343.83 466.55M343.83 466.55L344.5 466.55M344.5 466.55L345.84 466.55M345.84 466.55L346.51 466.55M346.51 466.55L346.67 466.55M346.67 466.55L346.67 466.55M346.67 466.55L346.76 466.55M346.76 466.55L346.84 466.55M346.84 466.55L347.18 466.55M347.18 466.55L348.51 466.55M348.51 466.55L350.8 466.55M350.8 466.55L353.09 466.55M353.09 466.55L353.09 466.55M353.09 466.55L353.23 466.55M353.23 466.55L353.37 466.55M353.37 466.55L353.66 466.55M353.66 466.55L354.23 466.55M354.23 466.55L355.37 466.55M355.37 466.55L357.66 466.55M357.66 466.55L366.8 466.55M366.8 466.55L369.08 466.55M369.08 466.55L369.66 466.55M369.66 466.55L369.66 466.55M369.66 466.55L369.94 466.55M369.94 466.55L370.23 466.55M370.23 466.55L371.37 466.55M371.37 466.55L373.66 466.55M373.66 466.55L374.23 466.55M374.23 466.55L374.23 466.55M374.23 466.55L374.51 466.55M374.51 466.55L374.8 466.55M374.8 466.55L375.94 466.55M375.94 466.55L378.23 466.55M378.23 466.55L378.8 466.55M378.8 466.55L378.8 466.55M378.8 466.55L379.08 466.55M379.08 466.55L379.37 466.55M379.37 466.55L380.51 466.55M380.51 466.55L385.08 466.55M385.08 466.55L414.92 466.55"
fill="none" stroke="black" stroke-width="0.5"/>
<path d="M414.92 595.07L385.08 595.07M385.08 595.07L338.6 595.07M338.6 595.07L338.6 559.03M338.6 559.03L338.6 539.14M338.6 539.14L338.6 503.09M338.6 503.09L385.09 503.09M385.09 503.09L414.91 503.09M414.91 503.09L461.4 503.09M461.4 503.09L461.4 539.14M461.4 539.14L461.4 559.03M461.4 559.03L461.4 595.07M461.4 595.07L414.92 595.07"
fill="none" stroke="black" stroke-width="0.5"/>
<path d="M463.14 40.97L463.14 25.32M463.14 25.32L463.14 9.66M463.14 9.66L463.14 8.95M463.14 8.95L463.14 8.24M463.14 8.24L463.14 7.88M463.14 7.88L463.14 7.53M463.14 7.53L463.14 7.17M463.14 7.17L463.14 6.82M463.14 6.82L463.14 6.46M463.14 6.46L463.14 6.46M463.14 6.46L463.14 6.1M463.14 6.1L463.14 6.1M463.14 6.1L463.14 5.39M463.14 5.39L463.14 5.39M463.14 5.39L463.14 4.68M463.14 4.68L463.14 4.68M463.14 4.68L463.14 4.61M463.14 4.61L463.14 4.61M463.14 4.61L463.13 4.53M463.13 4.53L463.13 4.53M463.13 4.53L463.07 4.23M463.07 4.23L463.07 4.23M463.07 4.23L462.83 3.77M462.83 3.77L462.83 3.77M462.83 3.77L462.44 3.42M462.44 3.42L462.44 3.42M462.44 3.42L462.02 3.24M462.02 3.24L462.02 3.24M462.02 3.24L461.88 3.21M461.88 3.21L461.88 3.21M461.88 3.21L461.8 3.2M461.8 3.2L461.8 3.2M461.8 3.2L461.72 3.19M461.72 3.19L461.72 3.19M461.72 3.19L461.65 3.19M461.65 3.19L461.65 3.19M461.65 3.19L460.73 3.19M460.73 3.19L460.73 3.19M460.73 3.19L460.27 3.19M460.27 3.19L460.05 3.19M460.05 3.19L459.82 3.19M459.82 3.19L459.59 3.19M459.59 3.19L459.36 3.19M459.36 3.19L458.9 3.19M458.9 3.19L458.44 3.19M458.44 3.19L457.98 3.19M457.98 3.19L456.38 3.19M456.38 3.19L454.78 3.19M454.78 3.19L453.17 3.19M453.17 3.19L451.57 3.19M451.57 3.19L445.15 3.19M445.15 3.19L441.37 3.19M441.37 3.19L437.59 3.19M437.59 3.19L433.81 3.19M433.81 3.19L430.03 3.19M430.03 3.19L422.47 3.19M422.47 3.19L414.91 3.19M414.91 3.19L385.08 3.19M385.08 3.19L364.93 3.19M364.93 3.19L344.77 3.19M344.77 3.19L343.85 3.19M343.85 3.19L342.93 3.19M342.93 3.19L342.47 3.19M342.47 3.19L342.02 3.19M342.02 3.19L341.56 3.19M341.56 3.19L341.1 3.19M341.1 3.19L340.87 3.19M340.87 3.19L340.64 3.19M340.64 3.19L340.41 3.19M340.41 3.19L340.18 3.19M340.18 3.19L339.95 3.19M339.95 3.19L339.73 3.19M339.73 3.19L339.73 3.19M339.73 3.19L339.27 3.19M339.27 3.19L339.27 3.19M339.27 3.19L338.35 3.19M338.35 3.19L338.35 3.19M338.35 3.19L338.28 3.19M338.28 3.19L338.28 3.19M338.28 3.19L338.2 3.2M338.2 3.2L338.2 3.2M338.2 3.2L337.9 3.26M337.9 3.26L337.9 3.26M337.9 3.26L337.44 3.5M337.44 3.5L337.44 3.5M337.44 3.5L337.09 3.89M337.09 3.89L337.09 3.89M337.09 3.89L336.91 4.31M336.91 4.31L336.91 4.31M336.91 4.31L336.88 4.45M336.88 4.45L336.88 4.45M336.88 4.45L336.87 4.53M336.87 4.53L336.87 4.53M336.87 4.53L336.86 4.61M336.86 4.61L336.86 4.61M336.86 4.61L336.86 4.68M336.86 4.68L336.86 4.68M336.86 4.68L336.86 5.39M336.86 5.39L336.86 5.39M336.86 5.39L336.86 6.1M336.86 6.1L336.86 6.1M336.86 6.1L336.86 6.46M336.86 6.46L336.86 6.82M336.86 6.82L336.86 7.17M336.86 7.17L336.86 7.53M336.86 7.53L336.86 9.62M336.86 9.62L336.86 11.71M336.86 11.71L336.86 15.89M336.86 15.89L336.86 15.89M336.86 15.89L336.86 16.02M336.86 16.02L336.86 16.15M336.86 16.15L336.86 16.41M336.86 16.41L336.86 16.93M336.86 16.93L336.86 17.98M336.86 17.98L336.86 20.07M336.86 20.07L336.86 21.11M336.86 21.11L336.86 21.38M336.86 21.38L336.86 21.38M336.86 21.38L336.86 21.64M336.86 21.64L336.86 22.16M336.86 22.16L336.86 24.25M336.86 24.25L336.86 26.34M336.86 26.34L336.86 26.86M336.86 26.86L336.86 26.86M336.86 26.86L336.86 27.12M336.86 27.12L336.86 27.39M336.86 27.39L336.86 28.43M336.86 28.43L336.86 30.52M336.86 30.52L336.86 31.04M336.86 31.04L336.86 31.04M336.86 31.04L336.86 31.31M336.86 31.31L336.86 31.57M336.86 31.57L336.86 32.61M336.86 32.61L336.86 34.7M336.86 34.7L336.86 35.23M336.86 35.23L336.86 35.23M336.86 35.23L336.86 35.49M336.86 35.49L336.86 35.75M336.86 35.75L336.86 36.79M336.86 36.79L336.86 40.97M336.86 40.97L336.86 60.86M336.86 60.86L336.86 539.14M336.86 539.14L336.86 559.03M336.86 559.03L336.86 574.68M336.86 574.68L336.86 590.34M336.86 590.34L336.86 591.05M336.86 591.05L336.86 591.76M336.86 591.76L336.86 592.12M336.86 592.12L336.86 592.47M336.86 592.47L336.86 592.83M336.86 592.83L336.86 593.18M336.86 593.18L336.86 593.54M336.86 593.54L336.86 593.54M336.86 593.54L336.86 593.9M336.86 593.9L336.86 593.9M336.86 593.9L336.86 594.61M336.86 594.61L336.86 594.61M336.86 594.61L336.86 595.32M336.86 595.32L336.86 595.32M336.86 595.32L336.86 595.39M336.86 595.39L336.86 595.39M336.86 595.39L336.87 595.47M336.87 595.47L336.87 595.47M336.87 595.47L336.93 595.77M336.93 595.77L336.93 595.77M336.93 595.77L337.17 596.23M337.17 596.23L337.17 596.23M337.17 596.23L337.56 596.58M337.56 596.58L337.56 596.58M337.56 596.58L337.98 596.76M337.98 596.76L337.98 596.76M337.98 596.76L338.13 596.79M338.13 596.79L338.13 596.79M338.13 596.79L338.2 596.8M338.2 596.8L338.2 596.8M338.2 596.8L338.28 596.81M338.28 596.81L338.28 596.81M338.28 596.81L338.35 596.81M338.35 596.81L338.35 596.81M338.35 596.81L339.27 596.81M339.27 596.81L339.27 596.81M339.27 596.81L339.73 596.81M339.73 596.81L339.95 596.81M339.95 596.81L339.95 596.81M339.95 596.81L340.07 596.81M340.07 596.81L340.18 596.81M340.18 596.81L340.41 596.81M340.41 596.81L340.64 596.81M340.64 596.81L341.1 596.81M341.1 596.81L341.33 596.81M341.33 596.81L341.56 596.81M341.56 596.81L342.02 596.81M342.02 596.81L342.42 596.81M342.42 596.81L342.52 596.81M342.52 596.81L342.52 596.81M342.52 596.81L342.62 596.81M342.62 596.81L342.82 596.81M342.82 596.81L343.62 596.81M343.62 596.81L345.22 596.81M345.22 596.81L348.43 596.81M348.43 596.81L354.85 596.81M354.85 596.81L355.79 596.81M355.79 596.81L356.03 596.81M356.03 596.81L356.03 596.81M356.03 596.81L356.26 596.81M356.26 596.81L356.74 596.81M356.74 596.81L358.63 596.81M358.63 596.81L362.41 596.81M362.41 596.81L366.19 596.81M366.19 596.81L367.13 596.81M367.13 596.81L367.37 596.81M367.37 596.81L367.37 596.81M367.37 596.81L367.6 596.81M367.6 596.81L368.08 596.81M368.08 596.81L369.97 596.81M369.97 596.81L377.52 596.81M377.52 596.81L377.52 596.81M377.52 596.81L377.76 596.81M377.76 596.81L378 596.81M378 596.81L378.47 596.81M378.47 596.81L379.41 596.81M379.41 596.81L381.3 596.81M381.3 596.81L385.08 596.81M385.08 596.81L414.92 596.81M414.92 596.81L435.07 596.81M435.07 596.81L445.15 596.81M445.15 596.81L455.23 596.81M455.23 596.81L456.15 596.81M456.15 596.81L457.07 596.81M457.07 596.81L457.53 596.81M457.53 596.81L457.98 596.81M457.98 596.81L458.44 596.81M458.44 596.81L458.67 596.81M458.67 596.81L458.9 596.81M458.9 596.81L459.36 596.81M459.36 596.81L459.59 596.81M459.59 596.81L459.82 596.81M459.82 596.81L459.82 596.81M459.82 596.81L460.73 596.81M460.73 596.81L460.73 596.81M460.73 596.81L461.65 596.81M461.65 596.81L461.65 596.81M461.65 596.81L461.72 596.81M461.72 596.81L461.72 596.81M461.72 596.81L461.8 596.8M461.8 596.8L461.8 596.8M461.8 596.8L462.1 596.74M462.1 596.74L462.1 596.74M462.1 596.74L462.56 596.5M462.56 596.5L462.56 596.5M462.56 596.5L462.91 596.11M462.91 596.11L462.91 596.11M462.91 596.11L463.09 595.69M463.09 595.69L463.09 595.69M463.09 595.69L463.12 595.54M463.12 595.54L463.12 595.54M463.12 595.54L463.13 595.47M463.13 595.47L463.13 595.47M463.13 595.47L463.14 595.39M463.14 595.39L463.14 595.39M463.14 595.39L463.14 595.32M463.14 595.32L463.14 595.32M463.14 595.32L463.14 594.61M463.14 594.61L463.14 594.61M463.14 594.61L463.14 593.9M463.14 593.9L463.14 593.9M463.14 593.9L463.14 593.54M463.14 593.54L463.14 593.18M463.14 593.18L463.14 592.83M463.14 592.83L463.14 592.47M463.14 592.47L463.14 590.38M463.14 590.38L463.14 588.29M463.14 588.29L463.14 584.11M463.14 584.11L463.14 584.11M463.14 584.11L463.14 583.98M463.14 583.98L463.14 583.85M463.14 583.85L463.14 583.59M463.14 583.59L463.14 583.07M463.14 583.07L463.14 582.02M463.14 582.02L463.14 579.93M463.14 579.93L463.14 578.88M463.14 578.88L463.14 578.62M463.14 578.62L463.14 578.62M463.14 578.62L463.14 578.36M463.14 578.36L463.14 577.84M463.14 577.84L463.14 575.75M463.14 575.75L463.14 573.66M463.14 573.66L463.14 573.14M463.14 573.14L463.14 573.14M463.14 573.14L463.14 572.87M463.14 572.87L463.14 572.61M463.14 572.61L463.14 571.57M463.14 571.57L463.14 569.48M463.14 569.48L463.14 568.96M463.14 568.96L463.14 568.96M463.14 568.96L463.14 568.69M463.14 568.69L463.14 568.43M463.14 568.43L463.14 567.39M463.14 567.39L463.14 565.3M463.14 565.3L463.14 564.77M463.14 564.77L463.14 564.77M463.14 564.77L463.14 564.51M463.14 564.51L463.14 564.25M463.14 564.25L463.14 563.21M463.14 563.21L463.14 559.03M463.14 559.03L463.14 539.14M463.14 539.14L463.14 60.86M463.14 60.86L463.14 40.97"
fill="none" stroke="black" stroke-width="0.5"/>
<path d="M461.4 135.19L461.4 464.81M461.4 464.81L414.92 464.81M414.92 464.81L385.08 464.81M385.08 464.81L338.6 464.81M338.6 464.81L338.6 135.19M338.6 135.19L385.08 135.19M385.08 135.19L414.92 135.19M414.92 135.19L461.4 135.19"
fill="none" stroke="black" stroke-width="0.5"/>
<path d="M358.49 559.03L358.49 539.14M358.49 539.14L358.49 532.67M358.49 532.67L358.49 526.2M358.49 526.2L358.49 525.91M358.49 525.91L358.49 525.62M358.49 525.62L358.49 525.48M358.49 525.48L358.49 525.34M358.49 525.34L358.49 525.19M358.49 525.19L358.49 525.05M358.49 525.05L358.49 525.05M358.49 525.05L358.49 524.76M358.49 524.76L358.49 524.76M358.49 524.76L358.49 524.47M358.49 524.47L358.49 524.47M358.49 524.47L358.49 524.4M358.49 524.4L358.49 524.4M358.49 524.4L358.49 524.32M358.49 524.32L358.49 524.32M358.49 524.32L358.55 524.03M358.55 524.03L358.55 524.03M358.55 524.03L358.8 523.56M358.8 523.56L358.8 523.56M358.8 523.56L359.19 523.21M359.19 523.21L359.19 523.21M359.19 523.21L359.6 523.03M359.6 523.03L359.6 523.03M359.6 523.03L359.75 523M359.75 523L359.75 523M359.75 523L359.83 522.99M359.83 522.99L359.83 522.99M359.83 522.99L359.9 522.98M359.9 522.98L359.9 522.98M359.9 522.98L359.98 522.98M359.98 522.98L359.98 522.98M359.98 522.98L360.47 522.98M360.47 522.98L360.47 522.98M360.47 522.98L360.72 522.98M360.72 522.98L360.78 522.98M360.78 522.98L360.78 522.98M360.78 522.98L360.84 522.98M360.84 522.98L360.96 522.98M360.96 522.98L360.96 522.98M360.96 522.98L361.21 522.98M361.21 522.98L361.45 522.98M361.45 522.98L361.7 522.98M361.7 522.98L361.95 522.98M361.95 522.98L361.95 522.98M361.95 522.98L362.67 522.98M362.67 522.98L362.67 522.98M362.67 522.98L363.39 522.98M363.39 522.98L363.39 522.98M363.39 522.98L364.84 522.98M364.84 522.98L364.84 522.98M364.84 522.98L367.73 522.98M367.73 522.98L367.73 522.98M367.73 522.98L367.82 522.98M367.82 522.98L367.91 522.98M367.91 522.98L368.09 522.98M368.09 522.98L368.45 522.98M368.45 522.98L369.18 522.98M369.18 522.98L370.62 522.98M370.62 522.98L371.35 522.98M371.35 522.98L371.53 522.98M371.53 522.98L371.53 522.98M371.53 522.98L371.71 522.98M371.71 522.98L372.07 522.98M372.07 522.98L373.52 522.98M373.52 522.98L376.41 522.98M376.41 522.98L377.13 522.98M377.13 522.98L377.31 522.98M377.31 522.98L377.31 522.98M377.31 522.98L377.4 522.98M377.4 522.98L377.4 522.98M377.4 522.98L377.49 522.98M377.49 522.98L377.85 522.98M377.85 522.98L379.3 522.98M379.3 522.98L380.75 522.98M380.75 522.98L381.11 522.98M381.11 522.98L381.11 522.98M381.11 522.98L381.29 522.98M381.29 522.98L381.47 522.98M381.47 522.98L382.19 522.98M382.19 522.98L385.08 522.98M385.08 522.98L414.91 522.98M414.91 522.98L425.74 522.98M425.74 522.98L436.58 522.98M436.58 522.98L437.31 522.98M437.31 522.98L437.68 522.98M437.68 522.98L438.05 522.98M438.05 522.98L438.3 522.98M438.3 522.98L438.55 522.98M438.55 522.98L438.79 522.98M438.79 522.98L438.79 522.98M438.79 522.98L439.04 522.98M439.04 522.98L439.16 522.98M439.16 522.98L439.16 522.98M439.16 522.98L439.22 522.98M439.22 522.98L439.28 522.98M439.28 522.98L439.28 522.98M439.28 522.98L439.53 522.98M439.53 522.98L439.53 522.98M439.53 522.98L440.02 522.98M440.02 522.98L440.02 522.98M440.02 522.98L440.1 522.98M440.1 522.98L440.1 522.98M440.1 522.98L440.17 522.99M440.17 522.99L440.17 522.99M440.17 522.99L440.47 523.05M440.47 523.05L440.47 523.05M440.47 523.05L440.94 523.29M440.94 523.29L440.94 523.29M440.94 523.29L441.29 523.68M441.29 523.68L441.29 523.68M441.29 523.68L441.47 524.1M441.47 524.1L441.47 524.1M441.47 524.1L441.5 524.25M441.5 524.25L441.5 524.25M441.5 524.25L441.51 524.32M441.51 524.32L441.51 524.32M441.51 524.32L441.51 524.4M441.51 524.4L441.51 524.4M441.51 524.4L441.51 524.47M441.51 524.47L441.51 524.47M441.51 524.47L441.51 524.76M441.51 524.76L441.51 524.76M441.51 524.76L441.51 525.05M441.51 525.05L441.51 525.19M441.51 525.19L441.51 525.34M441.51 525.34L441.51 525.45M441.51 525.45L441.51 525.45M441.51 525.45L441.51 525.57M441.51 525.57L441.51 525.8M441.51 525.8L441.51 526.27M441.51 526.27L441.51 527.2M441.51 527.2L441.51 529.07M441.51 529.07L441.51 529.39M441.51 529.39L441.51 529.47M441.51 529.47L441.51 529.47M441.51 529.47L441.51 529.55M441.51 529.55L441.51 529.7M441.51 529.7L441.51 530.33M441.51 530.33L441.51 530.65M441.51 530.65L441.51 530.73M441.51 530.73L441.51 530.73M441.51 530.73L441.51 530.8M441.51 530.8L441.51 530.96M441.51 530.96L441.51 531.59M441.51 531.59L441.51 532.85M441.51 532.85L441.51 533.16M441.51 533.16L441.51 533.24M441.51 533.24L441.51 533.24M441.51 533.24L441.51 533.32M441.51 533.32L441.51 533.48M441.51 533.48L441.51 534.11M441.51 534.11L441.51 536.62M441.51 536.62L441.51 536.62M441.51 536.62L441.51 536.78M441.51 536.78L441.51 536.94M441.51 536.94L441.51 537.25M441.51 537.25L441.51 537.88M441.51 537.88L441.51 539.14M441.51 539.14L441.51 559.03M441.51 559.03L441.51 565.5M441.51 565.5L441.51 571.97M441.51 571.97L441.51 572.25M441.51 572.25L441.51 572.54M441.51 572.54L441.51 572.69M441.51 572.69L441.51 572.83M441.51 572.83L441.51 572.97M441.51 572.97L441.51 573.12M441.51 573.12L441.51 573.12M441.51 573.12L441.51 573.4M441.51 573.4L441.51 573.4M441.51 573.4L441.51 573.69M441.51 573.69L441.51 573.69M441.51 573.69L441.51 573.77M441.51 573.77L441.51 573.77M441.51 573.77L441.51 573.84M441.51 573.84L441.51 573.84M441.51 573.84L441.45 574.14M441.45 574.14L441.45 574.14M441.45 574.14L441.2 574.61M441.2 574.61L441.2 574.61M441.2 574.61L440.81 574.96M440.81 574.96L440.81 574.96M440.81 574.96L440.4 575.14M440.4 575.14L440.4 575.14M440.4 575.14L440.25 575.17M440.25 575.17L440.25 575.17M440.25 575.17L440.17 575.18M440.17 575.18L440.17 575.18M440.17 575.18L440.1 575.18M440.1 575.18L440.1 575.18M440.1 575.18L440.02 575.18M440.02 575.18L440.02 575.18M440.02 575.18L439.53 575.18M439.53 575.18L439.53 575.18M439.53 575.18L439.04 575.18M439.04 575.18L438.79 575.18M438.79 575.18L438.55 575.18M438.55 575.18L438.3 575.18M438.3 575.18L438.05 575.18M438.05 575.18L435.16 575.18M435.16 575.18L435.16 575.18M435.16 575.18L435.07 575.18M435.07 575.18L434.98 575.18M434.98 575.18L434.8 575.18M434.8 575.18L434.44 575.18M434.44 575.18L433.71 575.18M433.71 575.18L432.27 575.18M432.27 575.18L426.48 575.18M426.48 575.18L420.7 575.18M420.7 575.18L420.7 575.18M420.7 575.18L420.52 575.18M420.52 575.18L420.34 575.18M420.34 575.18L419.98 575.18M419.98 575.18L419.25 575.18M419.25 575.18L417.81 575.18M417.81 575.18L414.91 575.18M414.91 575.18L385.09 575.18M385.09 575.18L374.26 575.18M374.26 575.18L363.42 575.18M363.42 575.18L362.69 575.18M362.69 575.18L361.95 575.18M361.95 575.18L361.7 575.18M361.7 575.18L361.45 575.18M361.45 575.18L361.21 575.18M361.21 575.18L361.21 575.18M361.21 575.18L360.96 575.18M360.96 575.18L360.96 575.18M360.96 575.18L360.47 575.18M360.47 575.18L360.47 575.18M360.47 575.18L359.98 575.18M359.98 575.18L359.98 575.18M359.98 575.18L359.9 575.18M359.9 575.18L359.9 575.18M359.9 575.18L359.83 575.18M359.83 575.18L359.83 575.18M359.83 575.18L359.53 575.12M359.53 575.12L359.53 575.12M359.53 575.12L359.06 574.87M359.06 574.87L359.06 574.87M359.06 574.87L358.71 574.48M358.71 574.48L358.71 574.48M358.71 574.48L358.53 574.07M358.53 574.07L358.53 574.07M358.53 574.07L358.5 573.92M358.5 573.92L358.5 573.92M358.5 573.92L358.49 573.84M358.49 573.84L358.49 573.84M358.49 573.84L358.49 573.77M358.49 573.77L358.49 573.77M358.49 573.77L358.49 573.69M358.49 573.69L358.49 573.69M358.49 573.69L358.49 573.4M358.49 573.4L358.49 573.4M358.49 573.4L358.49 573.12M358.49 573.12L358.49 573.12M358.49 573.12L358.49 572.83M358.49 572.83L358.49 572.6M358.49 572.6L358.49 572.6M358.49 572.6L358.49 572.36M358.49 572.36L358.49 571.89M358.49 571.89L358.49 571.43M358.49 571.43L358.49 571.19M358.49 571.19L358.49 571.19M358.49 571.19L358.49 570.96M358.49 570.96L358.49 570.03M358.49 570.03L358.49 569.09M358.49 569.09L358.49 568.78M358.49 568.78L358.49 568.7M358.49 568.7L358.49 568.7M358.49 568.7L358.49 568.62M358.49 568.62L358.49 568.46M358.49 568.46L358.49 567.83M358.49 567.83L358.49 566.57M358.49 566.57L358.49 564.06M358.49 564.06L358.49 561.54M358.49 561.54L358.49 561.54M358.49 561.54L358.49 561.38M358.49 561.38L358.49 561.23M358.49 561.23L358.49 560.91M358.49 560.91L358.49 560.28M358.49 560.28L358.49 559.03"
fill="none" stroke="black" stroke-width="0.5"/>
<path d="M352.52 559.03L352.52 581.15M352.52 581.15L385.09 581.15M385.09 581.15L414.91 581.15M414.91 581.15L447.48 581.15M447.48 581.15L447.48 559.03M447.48 559.03L447.48 539.14M447.48 539.14L447.48 517.01M447.48 517.01L414.91 517.01M414.91 517.01L385.08 517.01M385.08 517.01L352.52 517.01M352.52 517.01L352.52 539.14M352.52 539.14L352.52 559.03"
fill="none" stroke="black" stroke-width="0.5"/>
<path d="M461.65 1.7L338.35 1.7M338.35 1.7L338.35 1.7M338.35 1.7L337.43 1.84M337.43 1.84L336.6 2.27M336.6 2.27L335.94 2.93M335.94 2.93L335.51 3.76M335.51 3.76L335.37 4.68M335.37 4.68L335.37 595.32M335.37 595.32L335.37 595.32M335.37 595.32L335.51 596.24M335.51 596.24L335.94 597.07M335.94 597.07L336.6 597.73M336.6 597.73L337.43 598.16M337.43 598.16L338.35 598.3M338.35 598.3L461.65 598.3M461.65 598.3L461.65 598.3M461.65 598.3L462.57 598.16M462.57 598.16L463.4 597.73M463.4 597.73L464.06 597.07M464.06 597.07L464.49 596.24M464.49 596.24L464.63 595.32M464.63 595.32L464.63 4.68M464.63 4.68L464.63 4.68M464.63 4.68L464.49 3.76M464.49 3.76L464.06 2.93M464.06 2.93L463.4 2.27M463.4 2.27L462.57 1.84M462.57 1.84L461.65 1.7"
fill="none" stroke="black" stroke-width="0.5"/>
</svg>
