<?xml version="1.0" encoding="UTF-8"?>
<svg xmlns="http://www.w3.org/2000/svg" width="800.000" height="600.000" viewBox="0.0 0.0 800.000 600.000" version="1.1">
  <title>Produce by Acme CAD Converter</title>
  <desc>Produce by Acme CAD Converter</desc>
<path d="M458.97 432.25L341.03 432.25M341.03 432.25L341.03 432.25M341.03 432.25L340.6 432.37M340.6 432.37L340.28 432.68M340.28 432.68L340.17 433.12M340.17 433.12L340.17 565.89M340.17 565.89L340.17 565.89M340.17 565.89L340.28 566.32M340.28 566.32L340.6 566.63M340.6 566.63L341.03 566.75M341.03 566.75L458.97 566.75M458.97 566.75L458.97 566.75M458.97 566.75L459.4 566.63M459.4 566.63L459.72 566.32M459.72 566.32L459.83 565.89M459.83 565.89L459.83 433.12M459.83 433.12L459.83 433.12M459.83 433.12L459.72 432.68M459.72 432.68L459.4 432.37M459.4 432.37L458.97 432.25"
fill="none" stroke="black" stroke-width="0.5"/>
<path d="M327.06 420.18L327.2 419.67M327.2 419.67L327.58 419.29M327.58 419.29L328.1 419.15M328.1 419.15L471.9 419.15M471.9 419.15L471.9 419.15M471.9 419.15L472.42 419.29M472.42 419.29L472.8 419.67M472.8 419.67L472.94 420.18M472.94 420.18L472.94 578.82M472.94 578.82L472.94 578.82M472.94 578.82L472.8 579.33M472.8 579.33L472.42 579.71M472.42 579.71L471.9 579.85M471.9 579.85L328.1 579.85M328.1 579.85L328.1 579.85M328.1 579.85L327.58 579.71M327.58 579.71L327.2 579.33M327.2 579.33L327.06 578.82M327.06 578.82L327.06 420.18"
fill="none" stroke="black" stroke-width="0.5"/>
<path d="M336.72 429.84L336.86 429.32M336.86 429.32L337.24 428.94M337.24 428.94L337.75 428.8M337.75 428.8L462.25 428.8M462.25 428.8L462.25 428.8M462.25 428.8L462.76 428.94M462.76 428.94L463.14 429.32M463.14 429.32L463.28 429.84M463.28 429.84L463.28 569.16M463.28 569.16L463.28 569.16M463.28 569.16L463.14 569.68M463.14 569.68L462.76 570.06M462.76 570.06L462.25 570.2M462.25 570.2L337.75 570.2M337.75 570.2L337.75 570.2M337.75 570.2L337.24 570.06M337.24 570.06L336.86 569.68M336.86 569.68L336.72 569.16M336.72 569.16L336.72 429.84"
fill="none" stroke="black" stroke-width="0.5"/>
<path d="M486.39 401.39L486.25 401.91M486.25 401.91L485.87 402.28M485.87 402.28L485.35 402.42M485.35 402.42L314.65 402.42M314.65 402.42L314.65 402.42M314.65 402.42L314.13 402.28M314.13 402.28L313.75 401.91M313.75 401.91L313.61 401.39M313.61 401.39L313.61 371.04M313.61 371.04L313.61 371.04M313.61 371.04L313.75 370.52M313.75 370.52L314.13 370.14M314.13 370.14L314.65 370.01M314.65 370.01L485.35 370.01M485.35 370.01L485.35 370.01M485.35 370.01L485.87 370.14M485.87 370.14L486.25 370.52M486.25 370.52L486.39 371.04M486.39 371.04L486.39 401.39"
fill="none" stroke="black" stroke-width="0.5"/>
<path d="M313.61 368.97L313.1 369.11M313.1 369.11L312.72 369.49M312.72 369.49L312.58 370.01M312.58 370.01L312.58 402.42M312.58 402.42L312.58 402.42M312.58 402.42L312.72 402.94M312.72 402.94L313.1 403.32M313.1 403.32L313.61 403.46M313.61 403.46L486.39 403.46M486.39 403.46L486.39 403.46M486.39 403.46L486.9 403.32M486.9 403.32L487.28 402.94M487.28 402.94L487.42 402.42M487.42 402.42L487.42 370.01M487.42 370.01L487.42 370.01M487.42 370.01L487.28 369.49M487.28 369.49L486.9 369.11M486.9 369.11L486.39 368.97M486.39 368.97L313.61 368.97"
fill="none" stroke="black" stroke-width="0.5"/>
<path d="M322.92 583.99L322.92 415.01M322.92 415.01L477.08 415.01M477.08 415.01L477.08 583.99M477.08 583.99L322.92 583.99"
fill="none" stroke="black" stroke-width="0.5"/>
<path d="M317.75 589.16L317.75 409.84M317.75 409.84L482.25 409.84M482.25 409.84L482.25 589.16M482.25 589.16L317.75 589.16"
fill="none" stroke="black" stroke-width="0.5"/>
<path d="M316.72 590.2L316.72 408.8M316.72 408.8L483.28 408.8M483.28 408.8L483.28 590.2M483.28 590.2L316.72 590.2"
fill="none" stroke="black" stroke-width="0.5"/>
<path d="M312.58 594.34L487.42 594.34M487.42 594.34L487.42 404.66M487.42 404.66L312.58 404.66M312.58 404.66L312.58 594.34"
fill="none" stroke="black" stroke-width="0.5"/>
<path d="M458.45 564.51L458.45 434.49M458.45 434.49L458.45 434.49M458.45 434.49L458.34 434.06M458.34 434.06L458.02 433.75M458.02 433.75L457.59 433.63M457.59 433.63L342.41 433.63M342.41 433.63L342.41 433.63M342.41 433.63L341.98 433.75M341.98 433.75L341.66 434.06M341.66 434.06L341.55 434.49M341.55 434.49L341.55 564.51M341.55 564.51L341.55 564.51M341.55 564.51L341.66 564.94M341.66 564.94L341.98 565.25M341.98 565.25L342.41 565.37M342.41 565.37L457.59 565.37M457.59 565.37L457.59 565.37M457.59 565.37L458.02 565.25M458.02 565.25L458.34 564.94M458.34 564.94L458.45 564.51"
fill="none" stroke="black" stroke-width="0.5"/>
<path d="M458.45 35.49L458.45 337.93M458.45 337.93L458.45 337.93M458.45 337.93L458.34 338.37M458.34 338.37L458.02 338.68M458.02 338.68L457.59 338.8M457.59 338.8L342.41 338.8M342.41 338.8L342.41 338.8M342.41 338.8L341.98 338.68M341.98 338.68L341.66 338.37M341.66 338.37L341.55 337.93M341.55 337.93L341.55 35.49M341.55 35.49L341.55 35.49M341.55 35.49L341.66 35.06M341.66 35.06L341.98 34.75M341.98 34.75L342.41 34.63M342.41 34.63L457.59 34.63M457.59 34.63L457.59 34.63M457.59 34.63L458.02 34.75M458.02 34.75L458.34 35.06M458.34 35.06L458.45 35.49"
fill="none" stroke="black" stroke-width="0.5"/>
<path d="M458.97 340.18L341.03 340.18M341.03 340.18L341.03 340.18M341.03 340.18L340.6 340.06M340.6 340.06L340.28 339.74M340.28 339.74L340.17 339.31M340.17 339.31L340.17 34.11M340.17 34.11L340.17 34.11M340.17 34.11L340.28 33.68M340.28 33.68L340.6 33.37M340.6 33.37L341.03 33.25M341.03 33.25L458.97 33.25M458.97 33.25L458.97 33.25M458.97 33.25L459.4 33.37M459.4 33.37L459.72 33.68M459.72 33.68L459.83 34.11M459.83 34.11L459.83 339.31M459.83 339.31L459.83 339.31M459.83 339.31L459.72 339.75M459.72 339.75L459.4 340.06M459.4 340.06L458.97 340.18"
fill="none" stroke="black" stroke-width="0.5"/>
<path d="M460.87 33.25L460.87 340.18M460.87 340.18L460.87 340.18M460.87 340.18L460.73 340.69M460.73 340.69L460.35 341.07M460.35 341.07L459.83 341.21M459.83 341.21L340.17 341.21M340.17 341.21L340.17 341.21M340.17 341.21L339.65 341.07M339.65 341.07L339.27 340.69M339.27 340.69L339.13 340.18M339.13 340.18L339.13 33.25M339.13 33.25L339.13 33.25M339.13 33.25L339.27 32.74M339.27 32.74L339.65 32.36M339.65 32.36L340.17 32.22M340.17 32.22L459.83 32.22M459.83 32.22L459.83 32.22M459.83 32.22L460.35 32.36M460.35 32.36L460.73 32.74M460.73 32.74L460.87 33.25"
fill="none" stroke="black" stroke-width="0.5"/>
<path d="M471.9 20.15L472.42 20.29M472.42 20.29L472.8 20.67M472.8 20.67L472.94 21.18M472.94 21.18L472.94 352.25M472.94 352.25L472.94 352.25M472.94 352.25L472.8 352.76M472.8 352.76L472.42 353.14M472.42 353.14L471.9 353.28M471.9 353.28L328.1 353.28M328.1 353.28L328.1 353.28M328.1 353.28L327.58 353.14M327.58 353.14L327.2 352.76M327.2 352.76L327.06 352.25M327.06 352.25L327.06 21.18M327.06 21.18L327.06 21.18M327.06 21.18L327.2 20.67M327.2 20.67L327.58 20.29M327.58 20.29L328.1 20.15M328.1 20.15L471.9 20.15"
fill="none" stroke="black" stroke-width="0.5"/>
<path d="M462.25 29.8L462.76 29.94M462.76 29.94L463.14 30.32M463.14 30.32L463.28 30.84M463.28 30.84L463.28 342.59M463.28 342.59L463.28 342.59M463.28 342.59L463.14 343.11M463.14 343.11L462.76 343.49M462.76 343.49L462.25 343.62M462.25 343.62L337.75 343.62M337.75 343.62L337.75 343.62M337.75 343.62L337.24 343.49M337.24 343.49L336.86 343.11M336.86 343.11L336.72 342.59M336.72 342.59L336.72 30.84M336.72 30.84L336.72 30.84M336.72 30.84L336.86 30.32M336.86 30.32L337.24 29.94M337.24 29.94L337.75 29.8M337.75 29.8L462.25 29.8"
fill="none" stroke="black" stroke-width="0.5"/>
<path d="M322.92 16.01L322.92 357.42M322.92 357.42L477.08 357.42M477.08 357.42L477.08 16.01M477.08 16.01L322.92 16.01"
fill="none" stroke="black" stroke-width="0.5"/>
<path d="M317.75 10.84L317.75 362.59M317.75 362.59L482.25 362.59M482.25 362.59L482.25 10.84M482.25 10.84L317.75 10.84"
fill="none" stroke="black" stroke-width="0.5"/>
<path d="M316.72 9.8L316.72 363.63M316.72 363.63L483.28 363.63M483.28 363.63L483.28 9.8M483.28 9.8L316.72 9.8"
fill="none" stroke="black" stroke-width="0.5"/>
<path d="M312.58 5.66L487.42 5.66M487.42 5.66L487.42 367.76M487.42 367.76L312.58 367.76M312.58 367.76L312.58 5.66"
fill="none" stroke="black" stroke-width="0.5"/>
<path d="M491.39 1.7L308.61 1.7M308.61 1.7L308.61 598.3M308.61 598.3L491.39 598.3M491.39 598.3L491.39 1.7"
fill="none" stroke="black" stroke-width="0.5"/>
<path d="M488.63 5.49L488.63 594.51M488.63 594.51L488.63 594.51M488.63 594.51L488.49 595.03M488.49 595.03L488.11 595.4M488.11 595.4L487.59 595.54M487.59 595.54L312.41 595.54M312.41 595.54L312.41 595.54M312.41 595.54L311.89 595.4M311.89 595.4L311.51 595.03M311.51 595.03L311.37 594.51M311.37 594.51L311.37 5.49M311.37 5.49L311.37 5.49M311.37 5.49L311.51 4.97M311.51 4.97L311.89 4.6M311.89 4.6L312.41 4.46M312.41 4.46L487.59 4.46M487.59 4.46L487.59 4.46M487.59 4.46L488.11 4.6M488.11 4.6L488.49 4.97M488.49 4.97L488.63 5.49"
fill="none" stroke="black" stroke-width="0.5"/>
<path d="M487.59 3.42L312.41 3.42M312.41 3.42L312.41 3.42M312.41 3.42L311.61 3.58M311.61 3.58L310.94 4.03M310.94 4.03L310.49 4.7M310.49 4.7L310.34 5.49M310.34 5.49L310.34 594.51M310.34 594.51L310.34 594.51M310.34 594.51L310.49 595.3M310.49 595.3L310.94 595.97M310.94 595.97L311.61 596.42M311.61 596.42L312.41 596.58M312.41 596.58L487.59 596.58M487.59 596.58L487.59 596.58M487.59 596.58L488.39 596.42M488.39 596.42L489.06 595.97M489.06 595.97L489.51 595.3M489.51 595.3L489.66 594.51M489.66 594.51L489.66 5.49M489.66 5.49L489.66 5.49M489.66 5.49L489.51 4.7M489.51 4.7L489.06 4.03M489.06 4.03L488.39 3.58M488.39 3.58L487.59 3.42"
fill="none" stroke="black" stroke-width="0.5"/>
<path d="M343.44 35.67L456.56 35.67M456.56 35.67L456.56 35.67M456.56 35.67L456.99 35.78M456.99 35.78L457.3 36.1M457.3 36.1L457.42 36.53M457.42 36.53L457.42 336.9M457.42 336.9L457.42 336.9M457.42 336.9L457.3 337.33M457.3 337.33L456.99 337.65M456.99 337.65L456.56 337.76M456.56 337.76L343.44 337.76M343.44 337.76L343.44 337.76M343.44 337.76L343.01 337.65M343.01 337.65L342.7 337.33M342.7 337.33L342.58 336.9M342.58 336.9L342.58 36.53M342.58 36.53L342.58 36.53M342.58 36.53L342.7 36.1M342.7 36.1L343.01 35.78M343.01 35.78L343.44 35.67"
fill="none" stroke="black" stroke-width="0.5"/>
<path d="M343.44 564.33L456.56 564.33M456.56 564.33L456.56 564.33M456.56 564.33L456.99 564.22M456.99 564.22L457.3 563.9M457.3 563.9L457.42 563.47M457.42 563.47L457.42 435.53M457.42 435.53L457.42 435.53M457.42 435.53L457.3 435.1M457.3 435.1L456.99 434.78M456.99 434.78L456.56 434.67M456.56 434.67L343.44 434.67M343.44 434.67L343.44 434.67M343.44 434.67L343.01 434.78M343.01 434.78L342.7 435.1M342.7 435.1L342.58 435.53M342.58 435.53L342.58 563.47M342.58 563.47L342.58 563.47M342.58 563.47L342.7 563.9M342.7 563.9L343.01 564.22M343.01 564.22L343.44 564.33"
fill="none" stroke="black" stroke-width="0.5"/>
<path d="M337.75 30.84L337.75 342.59M337.75 342.59L462.25 342.59M462.25 342.59L462.25 30.84M462.25 30.84L337.75 30.84"
fill="none" stroke="black" stroke-width="0.5"/>
<path d="M337.75 569.16L462.25 569.16M462.25 569.16L462.25 429.84M462.25 429.84L337.75 429.84M337.75 429.84L337.75 569.16"
fill="none" stroke="black" stroke-width="0.5"/>
</svg>
