<?xml version="1.0" encoding="UTF-8"?>
<svg xmlns="http://www.w3.org/2000/svg" width="800.000" height="600.000" viewBox="0.0 0.0 800.000 600.000" version="1.1">
  <title>Produce by Acme CAD Converter</title>
  <desc>Produce by Acme CAD Converter</desc>
<path d="M468.63 3.42L331.37 3.42M331.37 3.42L331.37 3.42M331.37 3.42L330.58 3.58M330.58 3.58L329.91 4.03M329.91 4.03L329.46 4.7M329.46 4.7L329.3 5.49M329.3 5.49L329.3 594.51M329.3 594.51L329.3 594.51M329.3 594.51L329.46 595.3M329.46 595.3L329.91 595.97M329.91 595.97L330.58 596.42M330.58 596.42L331.37 596.58M331.37 596.58L468.63 596.58M468.63 596.58L468.63 596.58M468.63 596.58L469.42 596.42M469.42 596.42L470.09 595.97M470.09 595.97L470.54 595.3M470.54 595.3L470.7 594.51M470.7 594.51L470.7 5.49M470.7 5.49L470.7 5.49M470.7 5.49L470.54 4.7M470.54 4.7L470.09 4.03M470.09 4.03L469.42 3.58M469.42 3.58L468.63 3.42"
fill="none" stroke="black" stroke-width="0.5"/>
<path d="M469.66 5.49L469.66 594.51M469.66 594.51L469.66 594.51M469.66 594.51L469.52 595.03M469.52 595.03L469.14 595.4M469.14 595.4L468.63 595.54M468.63 595.54L331.37 595.54M331.37 595.54L331.37 595.54M331.37 595.54L330.86 595.4M330.86 595.4L330.48 595.03M330.48 595.03L330.34 594.51M330.34 594.51L330.34 5.49M330.34 5.49L330.34 5.49M330.34 5.49L330.48 4.97M330.48 4.97L330.86 4.6M330.86 4.6L331.37 4.46M331.37 4.46L468.63 4.46M468.63 4.46L468.63 4.46M468.63 4.46L469.14 4.6M469.14 4.6L469.52 4.97M469.52 4.97L469.66 5.49"
fill="none" stroke="black" stroke-width="0.5"/>
<path d="M331.55 418.62L331.55 181.38M331.55 181.38L331.55 181.38M331.55 181.38L338.24 182.99M338.24 182.99L344.83 184.97M344.83 184.97L351.3 187.33M351.3 187.33L357.63 190.05M357.63 190.05L363.79 193.12M363.79 193.12L369.77 196.54M369.77 196.54L375.54 200.3M375.54 200.3L381.09 204.37M381.09 204.37L386.4 208.76M386.4 208.76L391.45 213.43M391.45 213.43L396.23 218.39M396.23 218.39L400.72 223.61M400.72 223.61L404.9 229.08M404.9 229.08L408.77 234.78M408.77 234.78L412.31 240.69M412.31 240.69L415.51 246.78M415.51 246.78L418.36 253.05M418.36 253.05L420.84 259.48M420.84 259.48L422.96 266.03M422.96 266.03L424.7 272.69M424.7 272.69L426.06 279.44M426.06 279.44L427.03 286.26M427.03 286.26L427.62 293.12M427.62 293.12L427.82 300M427.82 300L427.62 306.88M427.62 306.88L427.03 313.74M427.03 313.74L426.06 320.56M426.06 320.56L424.7 327.31M424.7 327.31L422.96 333.97M422.96 333.97L420.84 340.52M420.84 340.52L418.36 346.95M418.36 346.95L415.51 353.22M415.51 353.22L412.31 359.31M412.31 359.31L408.77 365.22M408.77 365.22L404.91 370.92M404.91 370.92L400.72 376.39M400.72 376.39L396.23 381.61M396.23 381.61L391.45 386.56M391.45 386.56L386.4 391.24M386.4 391.24L381.09 395.63M381.09 395.63L375.54 399.7M375.54 399.7L369.77 403.46M369.77 403.46L363.79 406.88M363.79 406.88L357.63 409.95M357.63 409.95L351.3 412.67M351.3 412.67L344.83 415.03M344.83 415.03L338.24 417.01M338.24 417.01L331.55 418.62"
fill="none" stroke="black" stroke-width="0.5"/>
<path d="M452.18 274.65L468.45 274.65M468.45 274.65L468.45 96.02M468.45 96.02L331.55 96.02M331.55 96.02L331.55 154.35M331.55 154.35L331.55 154.35M331.55 154.35L338.97 155.82M338.97 155.82L346.3 157.66M346.3 157.66L353.54 159.88M353.54 159.88L360.64 162.47M360.64 162.47L367.61 165.41M367.61 165.41L374.42 168.71M374.42 168.71L381.05 172.35M381.05 172.35L387.48 176.33M387.48 176.33L393.71 180.63M393.71 180.63L399.7 185.25M399.7 185.25L405.45 190.16M405.45 190.16L410.94 195.37M410.94 195.37L416.16 200.84M416.16 200.84L421.09 206.58M421.09 206.58L425.72 212.56M425.72 212.56L430.04 218.77M430.04 218.77L434.04 225.2M434.04 225.2L437.7 231.82M437.7 231.82L441.02 238.62M441.02 238.62L443.98 245.58M443.98 245.58L446.59 252.68M446.59 252.68L448.83 259.9M448.83 259.9L450.69 267.24M450.69 267.24L452.18 274.65"
fill="none" stroke="black" stroke-width="0.5"/>
<path d="M468.45 594.34L331.55 594.34M331.55 594.34L331.55 530.54M331.55 530.54L468.45 530.54M468.45 530.54L468.45 594.34"
fill="none" stroke="black" stroke-width="0.5"/>
<path d="M452.18 325.35L468.45 325.35M468.45 325.35L468.45 503.98M468.45 503.98L331.55 503.98M331.55 503.98L331.55 445.65M331.55 445.65L331.55 445.65M331.55 445.65L338.97 444.18M338.97 444.18L346.3 442.34M346.3 442.34L353.54 440.12M353.54 440.12L360.64 437.53M360.64 437.53L367.61 434.59M367.61 434.59L374.42 431.29M374.42 431.29L381.05 427.65M381.05 427.65L387.48 423.67M387.48 423.67L393.71 419.37M393.71 419.37L399.7 414.75M399.7 414.75L405.45 409.84M405.45 409.84L410.94 404.63M410.94 404.63L416.16 399.16M416.16 399.16L421.09 393.42M421.09 393.42L425.72 387.44M425.72 387.44L430.04 381.23M430.04 381.23L434.04 374.8M434.04 374.8L437.7 368.18M437.7 368.18L441.02 361.38M441.02 361.38L443.98 354.42M443.98 354.42L446.59 347.32M446.59 347.32L448.83 340.1M448.83 340.1L450.69 332.76M450.69 332.76L452.18 325.35"
fill="none" stroke="black" stroke-width="0.5"/>
<path d="M447.07 228.94L443.43 222.15M443.43 222.15L439.46 215.55M439.46 215.55L435.17 209.15M435.17 209.15L430.57 202.97M430.57 202.97L425.67 197.02M425.67 197.02L420.49 191.32M420.49 191.32L415.04 185.88M415.04 185.88L409.33 180.71M409.33 180.71L403.37 175.83M403.37 175.83L397.18 171.24M397.18 171.24L390.78 166.97M390.78 166.97L384.17 163.01M384.17 163.01L377.37 159.38M377.37 159.38L370.41 156.09M370.41 156.09L363.29 153.14M363.29 153.14L356.04 150.54M356.04 150.54L348.67 148.3M348.67 148.3L341.2 146.42M341.2 146.42L341.2 105.67M341.2 105.67L458.8 105.67M458.8 105.67L458.8 228.94"
fill="none" stroke="black" stroke-width="0.5"/>
<path d="M458.8 371.06L458.8 494.33M458.8 494.33L341.2 494.33M341.2 494.33L341.2 453.58M341.2 453.58L341.2 453.58M341.2 453.58L348.67 451.7M348.67 451.7L356.04 449.46M356.04 449.46L363.29 446.86M363.29 446.86L370.41 443.91M370.41 443.91L377.37 440.62M377.37 440.62L384.17 436.99M384.17 436.99L390.78 433.03M390.78 433.03L397.18 428.76M397.18 428.76L403.37 424.17M403.37 424.17L409.33 419.29M409.33 419.29L415.04 414.12M415.04 414.12L420.49 408.68M420.49 408.68L425.67 402.98M425.67 402.98L430.57 397.03M430.57 397.03L435.17 390.85M435.17 390.85L439.46 384.45M439.46 384.45L443.43 377.85M443.43 377.85L447.07 371.06"
fill="none" stroke="black" stroke-width="0.5"/>
<path d="M341.2 406.06L341.2 193.94M341.2 193.94L341.2 193.94M341.2 193.94L347.48 196.2M347.48 196.2L353.61 198.83M353.61 198.83L359.57 201.81M359.57 201.81L365.34 205.15M365.34 205.15L370.9 208.83M370.9 208.83L376.23 212.84M376.23 212.84L381.31 217.15M381.31 217.15L386.13 221.77M386.13 221.77L390.66 226.66M390.66 226.66L394.89 231.81M394.89 231.81L398.81 237.21M398.81 237.21L402.4 242.83M402.4 242.83L405.64 248.66M405.64 248.66L408.53 254.67M408.53 254.67L411.06 260.84M411.06 260.84L413.21 267.15M413.21 267.15L414.99 273.58M414.99 273.58L416.37 280.1M416.37 280.1L417.36 286.69M417.36 286.69L417.96 293.33M417.96 293.33L418.16 300M418.16 300L417.96 306.67M417.96 306.67L417.36 313.31M417.36 313.31L416.37 319.9M416.37 319.9L414.98 326.42M414.98 326.42L413.21 332.85M413.21 332.85L411.06 339.16M411.06 339.16L408.53 345.33M408.53 345.33L405.64 351.34M405.64 351.34L402.4 357.17M402.4 357.17L398.81 362.79M398.81 362.79L394.89 368.19M394.89 368.19L390.66 373.34M390.66 373.34L386.13 378.23M386.13 378.23L381.31 382.85M381.31 382.85L376.23 387.16M376.23 387.16L370.9 391.17M370.9 391.17L365.34 394.85M365.34 394.85L359.57 398.19M359.57 398.19L353.61 401.17M353.61 401.17L347.48 403.8M347.48 403.8L341.2 406.06"
fill="none" stroke="black" stroke-width="0.5"/>
<path d="M458.8 584.68L341.2 584.68M341.2 584.68L341.2 540.19M341.2 540.19L458.8 540.19M458.8 540.19L458.8 584.68"
fill="none" stroke="black" stroke-width="0.5"/>
<path d="M451.7 228.94L448.1 222.02M448.1 222.02L444.18 215.29M444.18 215.29L439.93 208.75M439.93 208.75L435.38 202.43M435.38 202.43L430.52 196.34M430.52 196.34L425.38 190.48M425.38 190.48L419.96 184.88M419.96 184.88L414.28 179.55M414.28 179.55L408.35 174.5M408.35 174.5L402.18 169.74M402.18 169.74L395.79 165.28M395.79 165.28L389.19 161.14M389.19 161.14L382.39 157.32M382.39 157.32L375.43 153.83M375.43 153.83L368.3 150.68M368.3 150.68L361.03 147.88M361.03 147.88L353.63 145.43M353.63 145.43L346.12 143.34M346.12 143.34L346.12 143.34M346.12 143.34L345.72 143.14M345.72 143.14L345.44 142.78M345.44 142.78L345.34 142.34M345.34 142.34L345.34 110.85M345.34 110.85L345.34 110.85M345.34 110.85L345.48 110.33M345.48 110.33L345.86 109.95M345.86 109.95L346.37 109.81M346.37 109.81L453.63 109.81M453.63 109.81L453.63 109.81M453.63 109.81L454.14 109.95M454.14 109.95L454.52 110.33M454.52 110.33L454.66 110.85M454.66 110.85L454.66 228.94"
fill="none" stroke="black" stroke-width="0.5"/>
<path d="M454.66 381.79L454.66 489.15M454.66 489.15L454.66 489.15M454.66 489.15L454.52 489.67M454.52 489.67L454.14 490.05M454.14 490.05L453.63 490.19M453.63 490.19L346.37 490.19M346.37 490.19L346.37 490.19M346.37 490.19L345.86 490.05M345.86 490.05L345.48 489.67M345.48 489.67L345.34 489.15M345.34 489.15L345.34 457.66M345.34 457.66L345.34 457.66M345.34 457.66L345.44 457.22M345.44 457.22L345.72 456.86M345.72 456.86L346.12 456.66M346.12 456.66L346.12 456.66M346.12 456.66L353.63 454.57M353.63 454.57L361.03 452.12M361.03 452.12L368.3 449.32M368.3 449.32L375.43 446.17M375.43 446.17L382.39 442.68M382.39 442.68L389.19 438.86M389.19 438.86L395.79 434.72M395.79 434.72L402.18 430.26M402.18 430.26L408.35 425.5M408.35 425.5L414.28 420.45M414.28 420.45L419.96 415.12M419.96 415.12L425.38 409.52M425.38 409.52L430.52 403.66M430.52 403.66L435.38 397.57M435.38 397.57L439.93 391.24M439.93 391.24L444.18 384.71M444.18 384.71L448.1 377.98M448.1 377.98L451.7 371.06"
fill="none" stroke="black" stroke-width="0.5"/>
<path d="M346.76 399.63L352.75 397M352.75 397L358.57 394.01M358.57 394.01L364.2 390.68M364.2 390.68L369.61 387M369.61 387L374.79 383.01M374.79 383.01L379.71 378.7M379.71 378.7L384.37 374.11M384.37 374.11L388.73 369.24M388.73 369.24L392.79 364.11M392.79 364.11L396.54 358.74M396.54 358.74L399.95 353.16M399.95 353.16L403.01 347.38M403.01 347.38L405.71 341.42M405.71 341.42L408.05 335.31M408.05 335.31L410.01 329.07M410.01 329.07L411.59 322.73M411.59 322.73L412.78 316.29M412.78 316.29L413.57 309.8M413.57 309.8L413.97 303.27M413.97 303.27L413.97 296.73M413.97 296.73L413.57 290.2M413.57 290.2L412.78 283.71M412.78 283.71L411.59 277.27M411.59 277.27L410.01 270.93M410.01 270.93L408.05 264.69M408.05 264.69L405.71 258.58M405.71 258.58L403.01 252.62M403.01 252.62L399.95 246.84M399.95 246.84L396.54 241.26M396.54 241.26L392.79 235.89M392.79 235.89L388.73 230.76M388.73 230.76L384.37 225.89M384.37 225.89L379.71 221.3M379.71 221.3L374.79 216.99M374.79 216.99L369.61 213M369.61 213L364.2 209.32M364.2 209.32L358.57 205.99M358.57 205.99L352.75 203M352.75 203L346.76 200.37M346.76 200.37L346.76 200.37M346.76 200.37L346.27 200.3M346.27 200.3L345.8 200.47M345.8 200.47L345.46 200.84M345.46 200.84L345.34 201.33M345.34 201.33L345.34 398.67M345.34 398.67L345.34 398.67M345.34 398.67L345.46 399.16M345.46 399.16L345.8 399.53M345.8 399.53L346.27 399.7M346.27 399.7L346.76 399.63"
fill="none" stroke="black" stroke-width="0.5"/>
<path d="M453.63 580.54L346.37 580.54M346.37 580.54L346.37 580.54M346.37 580.54L345.86 580.4M345.86 580.4L345.48 580.02M345.48 580.02L345.34 579.51M345.34 579.51L345.34 545.37M345.34 545.37L345.34 545.37M345.34 545.37L345.48 544.85M345.48 544.85L345.86 544.47M345.86 544.47L346.37 544.33M346.37 544.33L453.63 544.33M453.63 544.33L453.63 544.33M453.63 544.33L454.14 544.47M454.14 544.47L454.52 544.85M454.52 544.85L454.66 545.37M454.66 545.37L454.66 579.51M454.66 579.51L454.66 579.51M454.66 579.51L454.52 580.02M454.52 580.02L454.14 580.4M454.14 580.4L453.63 580.54"
fill="none" stroke="black" stroke-width="0.5"/>
<path d="M447.07 205.77L442.54 199.34M442.54 199.34L437.71 193.12M437.71 193.12L432.6 187.14M432.6 187.14L427.21 181.4M427.21 181.4L421.56 175.92M421.56 175.92L415.67 170.71M415.67 170.71L409.54 165.78M409.54 165.78L403.18 161.13M403.18 161.13L396.62 156.79M396.62 156.79L389.86 152.76M389.86 152.76L382.92 149.05M382.92 149.05L375.82 145.66M375.82 145.66L368.57 142.61M368.57 142.61L361.18 139.9M361.18 139.9L353.67 137.53M353.67 137.53L353.67 137.53M353.67 137.53L353.29 137.32M353.29 137.32L353.02 136.97M353.02 136.97L352.93 136.54M352.93 136.54L352.93 118.43M352.93 118.43L352.93 118.43M352.93 118.43L353.07 117.91M353.07 117.91L353.44 117.54M353.44 117.54L353.96 117.4M353.96 117.4L446.04 117.4M446.04 117.4L446.04 117.4M446.04 117.4L446.56 117.54M446.56 117.54L446.93 117.91M446.93 117.91L447.07 118.43M447.07 118.43L447.07 205.77"
fill="none" stroke="black" stroke-width="0.5"/>
<path d="M447.07 394.23L447.07 481.57M447.07 481.57L447.07 481.57M447.07 481.57L446.93 482.09M446.93 482.09L446.56 482.46M446.56 482.46L446.04 482.6M446.04 482.6L353.96 482.6M353.96 482.6L353.96 482.6M353.96 482.6L353.44 482.46M353.44 482.46L353.07 482.09M353.07 482.09L352.93 481.57M352.93 481.57L352.93 462.68M352.93 462.68L352.93 462.68M352.93 462.68L360.48 460.34M360.48 460.34L367.92 457.65M367.92 457.65L375.22 454.61M375.22 454.61L382.38 451.23M382.38 451.23L389.36 447.52M389.36 447.52L396.17 443.49M396.17 443.49L402.78 439.15M402.78 439.15L409.18 434.5M409.18 434.5L415.36 429.55M415.36 429.55L421.29 424.33M421.29 424.33L426.98 418.83M426.98 418.83L432.4 413.07M432.4 413.07L437.55 407.07M437.55 407.07L442.42 400.83M442.42 400.83L446.98 394.37M446.98 394.37L451.24 387.7M451.24 387.7L455.18 380.84M455.18 380.84L458.8 373.81"
fill="none" stroke="black" stroke-width="0.5"/>
<path d="M352.93 386.71L352.93 213.29M352.93 213.29L352.93 213.29M352.93 213.29L353.06 212.78M353.06 212.78L353.43 212.4M353.43 212.4L353.94 212.26M353.94 212.26L354.46 212.38M354.46 212.38L354.46 212.38M354.46 212.38L359.88 215.57M359.88 215.57L365.09 219.09M365.09 219.09L370.06 222.93M370.06 222.93L374.79 227.08M374.79 227.08L379.25 231.52M379.25 231.52L383.41 236.23M383.41 236.23L387.27 241.19M387.27 241.19L390.82 246.38M390.82 246.38L394.02 251.79M394.02 251.79L396.89 257.39M396.89 257.39L399.39 263.16M399.39 263.16L401.52 269.07M401.52 269.07L403.28 275.11M403.28 275.11L404.66 281.25M404.66 281.25L405.64 287.46M405.64 287.46L406.24 293.72M406.24 293.72L406.43 300M406.43 300L406.24 306.29M406.24 306.29L405.64 312.54M405.64 312.54L404.66 318.75M404.66 318.75L403.28 324.89M403.28 324.89L401.52 330.93M401.52 330.93L399.39 336.84M399.39 336.84L396.88 342.61M396.88 342.61L394.02 348.21M394.02 348.21L390.82 353.62M390.82 353.62L387.27 358.81M387.27 358.81L383.41 363.77M383.41 363.77L379.24 368.48M379.24 368.48L374.79 372.92M374.79 372.92L370.06 377.07M370.06 377.07L365.09 380.91M365.09 380.91L359.88 384.43M359.88 384.43L354.46 387.62M354.46 387.62L354.46 387.62M354.46 387.62L353.94 387.74M353.94 387.74L353.43 387.6M353.43 387.6L353.06 387.22M353.06 387.22L352.93 386.71"
fill="none" stroke="black" stroke-width="0.5"/>
<path d="M446.04 572.96L353.96 572.96M353.96 572.96L353.96 572.96M353.96 572.96L353.44 572.82M353.44 572.82L353.07 572.44M353.07 572.44L352.93 571.92M352.93 571.92L352.93 552.95M352.93 552.95L352.93 552.95M352.93 552.95L353.07 552.44M353.07 552.44L353.44 552.06M353.44 552.06L353.96 551.92M353.96 551.92L446.04 551.92M446.04 551.92L446.04 551.92M446.04 551.92L446.56 552.06M446.56 552.06L446.93 552.44M446.93 552.44L447.07 552.95M447.07 552.95L447.07 571.92M447.07 571.92L447.07 571.92M447.07 571.92L446.93 572.44M446.93 572.44L446.56 572.82M446.56 572.82L446.04 572.96"
fill="none" stroke="black" stroke-width="0.5"/>
<path d="M429.02 300L428.83 293.06M428.83 293.06L428.24 286.14M428.24 286.14L427.26 279.27M427.26 279.27L425.89 272.47M425.89 272.47L424.13 265.75M424.13 265.75L422 259.14M422 259.14L419.5 252.67M419.5 252.67L416.64 246.35M416.64 246.35L413.42 240.19M413.42 240.19L409.86 234.24M409.86 234.24L405.97 228.49M405.97 228.49L401.75 222.97M401.75 222.97L397.23 217.7M397.23 217.7L392.42 212.7M392.42 212.7L387.34 207.97M387.34 207.97L381.99 203.55M381.99 203.55L376.4 199.43M376.4 199.43L370.59 195.63M370.59 195.63L364.57 192.17M364.57 192.17L358.37 189.06M358.37 189.06L352 186.3M352 186.3L345.48 183.91M345.48 183.91L338.84 181.9M338.84 181.9L332.09 180.26M332.09 180.26L332.09 180.26M332.09 180.26L331.7 180.02M331.7 180.02L331.55 179.58M331.55 179.58L331.55 156.4M331.55 156.4L331.55 156.4M331.55 156.4L331.66 156.02M331.66 156.02L331.96 155.76M331.96 155.76L332.36 155.72M332.36 155.72L332.36 155.72M332.36 155.72L339.68 157.22M339.68 157.22L346.92 159.09M346.92 159.09L354.06 161.33M354.06 161.33L361.07 163.93M361.07 163.93L367.94 166.89M367.94 166.89L374.65 170.19M374.65 170.19L381.18 173.83M381.18 173.83L387.52 177.8M387.52 177.8L393.65 182.09M393.65 182.09L399.55 186.68M399.55 186.68L405.21 191.57M405.21 191.57L410.61 196.74M410.61 196.74L415.74 202.18M415.74 202.18L420.59 207.87M420.59 207.87L425.14 213.81M425.14 213.81L429.38 219.97M429.38 219.97L433.3 226.33M433.3 226.33L436.9 232.89M436.9 232.89L440.15 239.63M440.15 239.63L443.06 246.52M443.06 246.52L445.61 253.55M445.61 253.55L447.79 260.7M447.79 260.7L449.62 267.95M449.62 267.95L451.06 275.29M451.06 275.29L451.06 275.29M451.06 275.29L451.3 275.7M451.3 275.7L451.74 275.86M451.74 275.86L467.76 275.86M467.76 275.86L467.76 275.86M467.76 275.86L468.11 275.95M468.11 275.95L468.36 276.2M468.36 276.2L468.45 276.55M468.45 276.55L468.45 300M468.45 300L468.45 323.45M468.45 323.45L468.45 323.45M468.45 323.45L468.36 323.8M468.36 323.8L468.11 324.05M468.11 324.05L467.76 324.14M467.76 324.14L451.74 324.14M451.74 324.14L451.74 324.14M451.74 324.14L451.3 324.3M451.3 324.3L451.06 324.71M451.06 324.71L451.06 324.71M451.06 324.71L449.62 332.05M449.62 332.05L447.79 339.3M447.79 339.3L445.61 346.45M445.61 346.45L443.06 353.48M443.06 353.48L440.15 360.37M440.15 360.37L436.9 367.11M436.9 367.11L433.3 373.67M433.3 373.67L429.38 380.03M429.38 380.03L425.14 386.19M425.14 386.19L420.59 392.13M420.59 392.13L415.74 397.82M415.74 397.82L410.61 403.26M410.61 403.26L405.21 408.43M405.21 408.43L399.55 413.32M399.55 413.32L393.65 417.91M393.65 417.91L387.52 422.2M387.52 422.2L381.18 426.17M381.18 426.17L374.65 429.81M374.65 429.81L367.94 433.11M367.94 433.11L361.07 436.07M361.07 436.07L354.06 438.67M354.06 438.67L346.92 440.91M346.92 440.91L339.68 442.78M339.68 442.78L332.36 444.28M332.36 444.28L332.36 444.28M332.36 444.28L331.96 444.24M331.96 444.24L331.66 443.98M331.66 443.98L331.55 443.6M331.55 443.6L331.55 420.42M331.55 420.42L331.55 420.42M331.55 420.42L331.7 419.98M331.7 419.98L332.09 419.74M332.09 419.74L332.09 419.74M332.09 419.74L338.84 418.1M338.84 418.1L345.48 416.09M345.48 416.09L352 413.7M352 413.7L358.37 410.94M358.37 410.94L364.57 407.83M364.57 407.83L370.59 404.37M370.59 404.37L376.4 400.57M376.4 400.57L381.99 396.46M381.99 396.46L387.34 392.03M387.34 392.03L392.42 387.3M392.42 387.3L397.23 382.3M397.23 382.3L401.75 377.03M401.75 377.03L405.97 371.51M405.97 371.51L409.86 365.76M409.86 365.76L413.42 359.81M413.42 359.81L416.64 353.66M416.64 353.66L419.5 347.33M419.5 347.33L422 340.86M422 340.86L424.13 334.25M424.13 334.25L425.89 327.53M425.89 327.53L427.25 320.73M427.25 320.73L428.24 313.86M428.24 313.86L428.83 306.94M428.83 306.94L429.02 300"
fill="none" stroke="black" stroke-width="0.5"/>
<path d="M467.76 529.33L332.24 529.33M332.24 529.33L332.24 529.33M332.24 529.33L331.89 529.24M331.89 529.24L331.64 528.99M331.64 528.99L331.55 528.64M331.55 528.64L331.55 505.88M331.55 505.88L331.55 505.88M331.55 505.88L331.64 505.54M331.64 505.54L331.89 505.28M331.89 505.28L332.24 505.19M332.24 505.19L467.76 505.19M467.76 505.19L467.76 505.19M467.76 505.19L468.11 505.28M468.11 505.28L468.36 505.54M468.36 505.54L468.45 505.88M468.45 505.88L468.45 528.64M468.45 528.64L468.45 528.64M468.45 528.64L468.36 528.99M468.36 528.99L468.11 529.24M468.11 529.24L467.76 529.33"
fill="none" stroke="black" stroke-width="0.5"/>
<path d="M430.06 300L429.86 293.04M429.86 293.04L429.27 286.1M429.27 286.1L428.29 279.2M428.29 279.2L426.93 272.37M426.93 272.37L425.18 265.63M425.18 265.63L423.05 258.99M423.05 258.99L420.55 252.49M420.55 252.49L417.69 246.14M417.69 246.14L414.48 239.96M414.48 239.96L410.92 233.97M410.92 233.97L407.03 228.19M407.03 228.19L402.82 222.65M402.82 222.65L398.3 217.34M398.3 217.34L393.49 212.3M393.49 212.3L388.41 207.54M388.41 207.54L383.07 203.07M383.07 203.07L377.48 198.91M377.48 198.91L371.66 195.08M371.66 195.08L365.64 191.58M365.64 191.58L359.43 188.42M359.43 188.42L353.06 185.62M353.06 185.62L346.53 183.18M346.53 183.18L339.88 181.11M339.88 181.11L333.12 179.42M333.12 179.42L333.12 179.42M333.12 179.42L332.73 179.18M332.73 179.18L332.58 178.75M332.58 178.75L332.58 157.64M332.58 157.64L332.58 157.64M332.58 157.64L332.69 157.26M332.69 157.26L333 157M333 157L333.4 156.96M333.4 156.96L333.4 156.96M333.4 156.96L340.64 158.51M340.64 158.51L347.8 160.42M347.8 160.42L354.85 162.7M354.85 162.7L361.78 165.34M361.78 165.34L368.56 168.32M368.56 168.32L375.18 171.64M375.18 171.64L381.63 175.3M381.63 175.3L387.88 179.28M387.88 179.28L393.92 183.58M393.92 183.58L399.73 188.17M399.73 188.17L405.3 193.06M405.3 193.06L410.62 198.22M410.62 198.22L415.66 203.65M415.66 203.65L420.42 209.32M420.42 209.32L424.89 215.23M424.89 215.23L429.05 221.36M429.05 221.36L432.9 227.7M432.9 227.7L436.41 234.22M436.41 234.22L439.59 240.91M439.59 240.91L442.43 247.76M442.43 247.76L444.91 254.74M444.91 254.74L447.04 261.84M447.04 261.84L448.8 269.04M448.8 269.04L450.19 276.32M450.19 276.32L450.19 276.32M450.19 276.32L450.42 276.73M450.42 276.73L450.87 276.89M450.87 276.89L466.73 276.89M466.73 276.89L466.73 276.89M466.73 276.89L467.07 276.99M467.07 276.99L467.33 277.24M467.33 277.24L467.42 277.58M467.42 277.58L467.42 322.42M467.42 322.42L467.42 322.42M467.42 322.42L467.33 322.76M467.33 322.76L467.07 323.01M467.07 323.01L466.73 323.11M466.73 323.11L450.87 323.1M450.87 323.1L450.87 323.1M450.87 323.1L450.42 323.27M450.42 323.27L450.19 323.68M450.19 323.68L450.19 323.68M450.19 323.68L448.8 330.96M448.8 330.96L447.04 338.16M447.04 338.16L444.91 345.26M444.91 345.26L442.43 352.24M442.43 352.24L439.59 359.08M439.59 359.08L436.41 365.78M436.41 365.78L432.9 372.3M432.9 372.3L429.05 378.63M429.05 378.63L424.89 384.77M424.89 384.77L420.43 390.68M420.43 390.68L415.66 396.35M415.66 396.35L410.62 401.78M410.62 401.78L405.3 406.94M405.3 406.94L399.73 411.83M399.73 411.83L393.92 416.42M393.92 416.42L387.88 420.72M387.88 420.72L381.63 424.7M381.63 424.7L375.18 428.35M375.18 428.35L368.56 431.68M368.56 431.68L361.78 434.66M361.78 434.66L354.85 437.3M354.85 437.3L347.8 439.58M347.8 439.58L340.64 441.49M340.64 441.49L333.4 443.04M333.4 443.04L333.4 443.04M333.4 443.04L333 443M333 443L332.7 442.74M332.7 442.74L332.58 442.36M332.58 442.36L332.58 421.25M332.58 421.25L332.58 421.25M332.58 421.25L332.73 420.82M332.73 420.82L333.12 420.58M333.12 420.58L333.12 420.58M333.12 420.58L339.88 418.89M339.88 418.89L346.53 416.82M346.53 416.82L353.06 414.38M353.06 414.38L359.43 411.58M359.43 411.58L365.64 408.42M365.64 408.42L371.66 404.92M371.66 404.92L377.48 401.09M377.48 401.09L383.07 396.93M383.07 396.93L388.41 392.46M388.41 392.46L393.49 387.7M393.49 387.7L398.3 382.66M398.3 382.66L402.82 377.35M402.82 377.35L407.03 371.8M407.03 371.8L410.92 366.03M410.92 366.03L414.48 360.04M414.48 360.04L417.69 353.86M417.69 353.86L420.55 347.51M420.55 347.51L423.05 341M423.05 341L425.18 334.37M425.18 334.37L426.93 327.63M426.93 327.63L428.29 320.8M428.29 320.8L429.27 313.9M429.27 313.9L429.86 306.96M429.86 306.96L430.06 300"
fill="none" stroke="black" stroke-width="0.5"/>
<path d="M466.73 528.3L333.27 528.3M333.27 528.3L333.27 528.3M333.27 528.3L332.93 528.2M332.93 528.2L332.67 527.95M332.67 527.95L332.58 527.61M332.58 527.61L332.58 506.91M332.58 506.91L332.58 506.91M332.58 506.91L332.67 506.57M332.67 506.57L332.93 506.32M332.93 506.32L333.27 506.23M333.27 506.23L466.73 506.23M466.73 506.23L466.73 506.23M466.73 506.23L467.07 506.32M467.07 506.32L467.33 506.57M467.33 506.57L467.42 506.91M467.42 506.91L467.42 527.61M467.42 527.61L467.42 527.61M467.42 527.61L467.33 527.95M467.33 527.95L467.07 528.2M467.07 528.2L466.73 528.3"
fill="none" stroke="black" stroke-width="0.5"/>
<path d="M468.45 5.66L331.55 5.66M331.55 5.66L331.55 69.46M331.55 69.46L468.45 69.46M468.45 69.46L468.45 5.66"
fill="none" stroke="black" stroke-width="0.5"/>
<path d="M458.8 15.32L458.8 59.81M458.8 59.81L341.2 59.81M341.2 59.81L341.2 15.32M341.2 15.32L458.8 15.32"
fill="none" stroke="black" stroke-width="0.5"/>
<path d="M454.66 20.49L454.66 54.63M454.66 54.63L454.66 54.63M454.66 54.63L454.52 55.15M454.52 55.15L454.14 55.53M454.14 55.53L453.63 55.67M453.63 55.67L346.37 55.67M346.37 55.67L346.37 55.67M346.37 55.67L345.86 55.53M345.86 55.53L345.48 55.15M345.48 55.15L345.34 54.63M345.34 54.63L345.34 20.49M345.34 20.49L345.34 20.49M345.34 20.49L345.48 19.98M345.48 19.98L345.86 19.6M345.86 19.6L346.37 19.46M346.37 19.46L453.63 19.46M453.63 19.46L453.63 19.46M453.63 19.46L454.14 19.6M454.14 19.6L454.52 19.98M454.52 19.98L454.66 20.49"
fill="none" stroke="black" stroke-width="0.5"/>
<path d="M447.07 28.08L447.07 47.05M447.07 47.05L447.07 47.05M447.07 47.05L446.93 47.56M446.93 47.56L446.56 47.94M446.56 47.94L446.04 48.08M446.04 48.08L353.96 48.08M353.96 48.08L353.96 48.08M353.96 48.08L353.44 47.94M353.44 47.94L353.07 47.56M353.07 47.56L352.93 47.05M352.93 47.05L352.93 28.08M352.93 28.08L352.93 28.08M352.93 28.08L353.07 27.56M353.07 27.56L353.44 27.18M353.44 27.18L353.96 27.04M353.96 27.04L446.04 27.04M446.04 27.04L446.04 27.04M446.04 27.04L446.56 27.18M446.56 27.18L446.93 27.56M446.93 27.56L447.07 28.08"
fill="none" stroke="black" stroke-width="0.5"/>
<path d="M467.76 70.67L332.24 70.67M332.24 70.67L332.24 70.67M332.24 70.67L331.89 70.76M331.89 70.76L331.64 71.01M331.64 71.01L331.55 71.36M331.55 71.36L331.55 94.12M331.55 94.12L331.55 94.12M331.55 94.12L331.64 94.46M331.64 94.46L331.89 94.72M331.89 94.72L332.24 94.81M332.24 94.81L467.76 94.81M467.76 94.81L467.76 94.81M467.76 94.81L468.11 94.72M468.11 94.72L468.36 94.46M468.36 94.46L468.45 94.12M468.45 94.12L468.45 71.36M468.45 71.36L468.45 71.36M468.45 71.36L468.36 71.01M468.36 71.01L468.11 70.76M468.11 70.76L467.76 70.67"
fill="none" stroke="black" stroke-width="0.5"/>
<path d="M467.42 72.39L467.42 93.09M467.42 93.09L467.42 93.09M467.42 93.09L467.33 93.43M467.33 93.43L467.07 93.68M467.07 93.68L466.73 93.77M466.73 93.77L333.27 93.77M333.27 93.77L333.27 93.77M333.27 93.77L332.93 93.68M332.93 93.68L332.67 93.43M332.67 93.43L332.58 93.09M332.58 93.09L332.58 72.39M332.58 72.39L332.58 72.39M332.58 72.39L332.67 72.05M332.67 72.05L332.93 71.8M332.93 71.8L333.27 71.7M333.27 71.7L466.73 71.7M466.73 71.7L466.73 71.7M466.73 71.7L467.07 71.8M467.07 71.8L467.33 72.05M467.33 72.05L467.42 72.39"
fill="none" stroke="black" stroke-width="0.5"/>
<path d="M472.42 1.7L472.42 598.3M472.42 598.3L327.58 598.3M327.58 598.3L327.58 1.7M327.58 1.7L472.42 1.7"
fill="none" stroke="black" stroke-width="0.5"/>
<path d="M447.07 371.06L458.8 371.06"
fill="none" stroke="black" stroke-width="0.5"/>
<path d="M447.07 228.94L458.8 228.94"
fill="none" stroke="black" stroke-width="0.5"/>
</svg>
