<?xml version="1.0" encoding="UTF-8"?>
<svg xmlns="http://www.w3.org/2000/svg" width="800.000" height="600.000" viewBox="0.0 0.0 800.000 600.000" version="1.1">
  <title>Produce by Acme CAD Converter</title>
  <desc>Produce by Acme CAD Converter</desc>
<path d="M487.59 3.42L312.41 3.42M312.41 3.42L312.41 3.42M312.41 3.42L311.61 3.58M311.61 3.58L310.94 4.03M310.94 4.03L310.49 4.7M310.49 4.7L310.34 5.49M310.34 5.49L310.34 594.51M310.34 594.51L310.34 594.51M310.34 594.51L310.49 595.3M310.49 595.3L310.94 595.97M310.94 595.97L311.61 596.42M311.61 596.42L312.41 596.58M312.41 596.58L487.59 596.58M487.59 596.58L487.59 596.58M487.59 596.58L488.39 596.42M488.39 596.42L489.06 595.97M489.06 595.97L489.51 595.3M489.51 595.3L489.66 594.51M489.66 594.51L489.66 5.49M489.66 5.49L489.66 5.49M489.66 5.49L489.51 4.7M489.51 4.7L489.06 4.03M489.06 4.03L488.39 3.58M488.39 3.58L487.59 3.42"
fill="none" stroke="black" stroke-width="0.5"/>
<path d="M488.63 5.49L488.63 594.51M488.63 594.51L488.63 594.51M488.63 594.51L488.49 595.03M488.49 595.03L488.11 595.4M488.11 595.4L487.59 595.54M487.59 595.54L312.41 595.54M312.41 595.54L312.41 595.54M312.41 595.54L311.89 595.4M311.89 595.4L311.51 595.03M311.51 595.03L311.37 594.51M311.37 594.51L311.37 5.49M311.37 5.49L311.37 5.49M311.37 5.49L311.51 4.97M311.51 4.97L311.89 4.6M311.89 4.6L312.41 4.46M312.41 4.46L487.59 4.46M487.59 4.46L487.59 4.46M487.59 4.46L488.11 4.6M488.11 4.6L488.49 4.97M488.49 4.97L488.63 5.49"
fill="none" stroke="black" stroke-width="0.5"/>
<path d="M312.58 418.62L312.58 181.38M312.58 181.38L312.58 181.38M312.58 181.38L319.27 182.99M319.27 182.99L325.87 184.97M325.87 184.97L332.34 187.33M332.34 187.33L338.66 190.05M338.66 190.05L344.82 193.12M344.82 193.12L350.8 196.54M350.8 196.54L356.57 200.3M356.57 200.3L362.12 204.37M362.12 204.37L367.43 208.76M367.43 208.76L372.48 213.43M372.48 213.43L377.26 218.39M377.26 218.39L381.75 223.61M381.75 223.61L385.94 229.08M385.94 229.08L389.81 234.78M389.81 234.78L393.34 240.69M393.34 240.69L396.54 246.78M396.54 246.78L399.39 253.05M399.39 253.05L401.87 259.48M401.87 259.48L403.99 266.03M403.99 266.03L405.73 272.69M405.73 272.69L407.09 279.44M407.09 279.44L408.07 286.26M408.07 286.26L408.65 293.12M408.65 293.12L408.85 300M408.85 300L408.65 306.88M408.65 306.88L408.07 313.74M408.07 313.74L407.09 320.56M407.09 320.56L405.73 327.31M405.73 327.31L403.99 333.97M403.99 333.97L401.87 340.52M401.87 340.52L399.39 346.95M399.39 346.95L396.54 353.22M396.54 353.22L393.34 359.31M393.34 359.31L389.81 365.22M389.81 365.22L385.94 370.92M385.94 370.92L381.75 376.39M381.75 376.39L377.26 381.61M377.26 381.61L372.48 386.56M372.48 386.56L367.43 391.24M367.43 391.24L362.12 395.63M362.12 395.63L356.57 399.7M356.57 399.7L350.8 403.46M350.8 403.46L344.82 406.88M344.82 406.88L338.66 409.95M338.66 409.95L332.34 412.67M332.34 412.67L325.87 415.03M325.87 415.03L319.27 417.01M319.27 417.01L312.58 418.62"
fill="none" stroke="black" stroke-width="0.5"/>
<path d="M433.21 274.65L487.42 274.65M487.42 274.65L487.42 96.02M487.42 96.02L312.58 96.02M312.58 96.02L312.58 154.35M312.58 154.35L312.58 154.35M312.58 154.35L320 155.82M320 155.82L327.34 157.66M327.34 157.66L334.57 159.88M334.57 159.88L341.68 162.47M341.68 162.47L348.64 165.41M348.64 165.41L355.45 168.71M355.45 168.71L362.08 172.35M362.08 172.35L368.52 176.33M368.52 176.33L374.74 180.63M374.74 180.63L380.74 185.25M380.74 185.25L386.49 190.16M386.49 190.16L391.98 195.37M391.98 195.37L397.2 200.84M397.2 200.84L402.13 206.58M402.13 206.58L406.76 212.56M406.76 212.56L411.08 218.77M411.08 218.77L415.07 225.2M415.07 225.2L418.73 231.82M418.73 231.82L422.05 238.62M422.05 238.62L425.02 245.58M425.02 245.58L427.62 252.68M427.62 252.68L429.86 259.9M429.86 259.9L431.72 267.24M431.72 267.24L433.21 274.65"
fill="none" stroke="black" stroke-width="0.5"/>
<path d="M487.42 594.34L312.58 594.34M312.58 594.34L312.58 530.54M312.58 530.54L487.42 530.54M487.42 530.54L487.42 594.34"
fill="none" stroke="black" stroke-width="0.5"/>
<path d="M433.21 325.35L487.42 325.35M487.42 325.35L487.42 503.98M487.42 503.98L312.58 503.98M312.58 503.98L312.58 445.65M312.58 445.65L312.58 445.65M312.58 445.65L320 444.18M320 444.18L327.34 442.34M327.34 442.34L334.57 440.12M334.57 440.12L341.68 437.53M341.68 437.53L348.64 434.59M348.64 434.59L355.45 431.29M355.45 431.29L362.08 427.65M362.08 427.65L368.52 423.67M368.52 423.67L374.74 419.37M374.74 419.37L380.74 414.75M380.74 414.75L386.49 409.84M386.49 409.84L391.98 404.63M391.98 404.63L397.2 399.16M397.2 399.16L402.13 393.42M402.13 393.42L406.76 387.44M406.76 387.44L411.08 381.23M411.08 381.23L415.07 374.8M415.07 374.8L418.73 368.18M418.73 368.18L422.05 361.38M422.05 361.38L425.02 354.42M425.02 354.42L427.62 347.32M427.62 347.32L429.86 340.1M429.86 340.1L431.72 332.76M431.72 332.76L433.21 325.35"
fill="none" stroke="black" stroke-width="0.5"/>
<path d="M441.12 265L439.22 257.53M439.22 257.53L436.97 250.17M436.97 250.17L434.35 242.93M434.35 242.93L431.38 235.83M431.38 235.83L428.08 228.87M428.08 228.87L424.43 222.09M424.43 222.09L420.46 215.5M420.46 215.5L416.17 209.1M416.17 209.1L411.57 202.93M411.57 202.93L406.68 196.99M406.68 196.99L401.5 191.29M401.5 191.29L396.04 185.85M396.04 185.85L390.33 180.69M390.33 180.69L384.38 175.81M384.38 175.81L378.19 171.23M378.19 171.23L371.79 166.95M371.79 166.95L365.18 163M365.18 163L358.39 159.37M358.39 159.37L351.43 156.08M351.43 156.08L344.32 153.13M344.32 153.13L337.07 150.54M337.07 150.54L329.7 148.3M329.7 148.3L322.23 146.42M322.23 146.42L322.23 105.67M322.23 105.67L477.77 105.67M477.77 105.67L477.77 265M477.77 265L441.12 265"
fill="none" stroke="black" stroke-width="0.5"/>
<path d="M441.12 335L477.77 335M477.77 335L477.77 494.33M477.77 494.33L322.23 494.33M322.23 494.33L322.23 453.58M322.23 453.58L322.23 453.58M322.23 453.58L329.7 451.7M329.7 451.7L337.07 449.46M337.07 449.46L344.32 446.87M344.32 446.87L351.43 443.92M351.43 443.92L358.39 440.63M358.39 440.63L365.18 437M365.18 437L371.79 433.05M371.79 433.05L378.19 428.77M378.19 428.77L384.38 424.19M384.38 424.19L390.33 419.31M390.33 419.31L396.04 414.15M396.04 414.15L401.5 408.71M401.5 408.71L406.67 403.01M406.67 403.01L411.57 397.07M411.57 397.07L416.17 390.89M416.17 390.89L420.46 384.5M420.46 384.5L424.43 377.91M424.43 377.91L428.08 371.13M428.08 371.13L431.38 364.17M431.38 364.17L434.35 357.07M434.35 357.07L436.96 349.83M436.96 349.83L439.22 342.47M439.22 342.47L441.12 335"
fill="none" stroke="black" stroke-width="0.5"/>
<path d="M322.23 406.06L322.23 193.94M322.23 193.94L322.23 193.94M322.23 193.94L328.51 196.2M328.51 196.2L334.64 198.83M334.64 198.83L340.6 201.81M340.6 201.81L346.37 205.15M346.37 205.15L351.93 208.83M351.93 208.83L357.26 212.84M357.26 212.84L362.35 217.15M362.35 217.15L367.16 221.77M367.16 221.77L371.7 226.66M371.7 226.66L375.93 231.81M375.93 231.81L379.84 237.21M379.84 237.21L383.43 242.83M383.43 242.83L386.68 248.66M386.68 248.66L389.57 254.67M389.57 254.67L392.09 260.84M392.09 260.84L394.25 267.15M394.25 267.15L396.02 273.58M396.02 273.58L397.4 280.1M397.4 280.1L398.4 286.69M398.4 286.69L398.99 293.33M398.99 293.33L399.19 300M399.19 300L398.99 306.67M398.99 306.67L398.4 313.31M398.4 313.31L397.4 319.9M397.4 319.9L396.02 326.42M396.02 326.42L394.25 332.85M394.25 332.85L392.09 339.16M392.09 339.16L389.57 345.33M389.57 345.33L386.67 351.34M386.67 351.34L383.43 357.17M383.43 357.17L379.84 362.79M379.84 362.79L375.93 368.19M375.93 368.19L371.7 373.34M371.7 373.34L367.16 378.23M367.16 378.23L362.35 382.85M362.35 382.85L357.26 387.16M357.26 387.16L351.93 391.17M351.93 391.17L346.37 394.85M346.37 394.85L340.6 398.19M340.6 398.19L334.64 401.17M334.64 401.17L328.51 403.8M328.51 403.8L322.23 406.06"
fill="none" stroke="black" stroke-width="0.5"/>
<path d="M477.77 584.68L322.23 584.68M322.23 584.68L322.23 540.19M322.23 540.19L477.77 540.19M477.77 540.19L477.77 584.68"
fill="none" stroke="black" stroke-width="0.5"/>
<path d="M444.19 260.08L442.05 252.49M442.05 252.49L439.55 245.01M439.55 245.01L436.69 237.66M436.69 237.66L433.47 230.46M433.47 230.46L429.9 223.43M429.9 223.43L425.99 216.58M425.99 216.58L421.76 209.92M421.76 209.92L417.2 203.49M417.2 203.49L412.34 197.28M412.34 197.28L407.18 191.32M407.18 191.32L401.73 185.61M401.73 185.61L396.01 180.18M396.01 180.18L390.04 175.03M390.04 175.03L383.82 170.19M383.82 170.19L377.37 165.65M377.37 165.65L370.7 161.43M370.7 161.43L363.84 157.54M363.84 157.54L356.8 153.99M356.8 153.99L349.59 150.79M349.59 150.79L342.24 147.94M342.24 147.94L334.75 145.46M334.75 145.46L327.16 143.34M327.16 143.34L327.16 143.34M327.16 143.34L326.75 143.14M326.75 143.14L326.47 142.78M326.47 142.78L326.37 142.34M326.37 142.34L326.37 110.85M326.37 110.85L326.37 110.85M326.37 110.85L326.51 110.33M326.51 110.33L326.89 109.95M326.89 109.95L327.41 109.81M327.41 109.81L472.59 109.81M472.59 109.81L472.59 109.81M472.59 109.81L473.11 109.95M473.11 109.95L473.49 110.33M473.49 110.33L473.63 110.85M473.63 110.85L473.63 259.82M473.63 259.82L473.63 259.82M473.63 259.82L473.49 260.34M473.49 260.34L473.11 260.72M473.11 260.72L472.59 260.86M472.59 260.86L445.19 260.86M445.19 260.86L445.19 260.86M445.19 260.86L444.75 260.76M444.75 260.76L444.39 260.48M444.39 260.48L444.19 260.08"
fill="none" stroke="black" stroke-width="0.5"/>
<path d="M445.19 339.14L472.59 339.14M472.59 339.14L472.59 339.14M472.59 339.14L473.11 339.28M473.11 339.28L473.49 339.66M473.49 339.66L473.63 340.18M473.63 340.18L473.63 489.15M473.63 489.15L473.63 489.15M473.63 489.15L473.49 489.67M473.49 489.67L473.11 490.05M473.11 490.05L472.59 490.19M472.59 490.19L327.41 490.19M327.41 490.19L327.41 490.19M327.41 490.19L326.89 490.05M326.89 490.05L326.51 489.67M326.51 489.67L326.37 489.15M326.37 489.15L326.37 457.66M326.37 457.66L326.37 457.66M326.37 457.66L326.47 457.22M326.47 457.22L326.75 456.86M326.75 456.86L327.15 456.66M327.15 456.66L327.15 456.66M327.15 456.66L334.75 454.54M334.75 454.54L342.24 452.06M342.24 452.06L349.59 449.21M349.59 449.21L356.8 446.01M356.8 446.01L363.84 442.46M363.84 442.46L370.7 438.57M370.7 438.57L377.37 434.35M377.37 434.35L383.82 429.81M383.82 429.81L390.04 424.97M390.04 424.97L396.01 419.82M396.01 419.82L401.73 414.39M401.73 414.39L407.18 408.68M407.18 408.68L412.34 402.72M412.34 402.72L417.2 396.51M417.2 396.51L421.76 390.08M421.76 390.08L425.99 383.42M425.99 383.42L429.9 376.57M429.9 376.57L433.47 369.54M433.47 369.54L436.69 362.34M436.69 362.34L439.55 354.99M439.55 354.99L442.05 347.51M442.05 347.51L444.19 339.92M444.19 339.92L444.19 339.92M444.19 339.92L444.39 339.52M444.39 339.52L444.75 339.24M444.75 339.24L445.19 339.14"
fill="none" stroke="black" stroke-width="0.5"/>
<path d="M327.79 399.63L333.78 397M333.78 397L339.6 394.01M339.6 394.01L345.23 390.68M345.23 390.68L350.64 387M350.64 387L355.82 383.01M355.82 383.01L360.74 378.7M360.74 378.7L365.4 374.11M365.4 374.11L369.77 369.24M369.77 369.24L373.83 364.11M373.83 364.11L377.57 358.74M377.57 358.74L380.98 353.16M380.98 353.16L384.04 347.38M384.04 347.38L386.75 341.42M386.75 341.42L389.08 335.31M389.08 335.31L391.04 329.07M391.04 329.07L392.62 322.73M392.62 322.73L393.81 316.29M393.81 316.29L394.61 309.8M394.61 309.8L395 303.27M395 303.27L395 296.73M395 296.73L394.61 290.2M394.61 290.2L393.81 283.71M393.81 283.71L392.62 277.27M392.62 277.27L391.04 270.93M391.04 270.93L389.08 264.69M389.08 264.69L386.75 258.58M386.75 258.58L384.04 252.62M384.04 252.62L380.98 246.84M380.98 246.84L377.57 241.26M377.57 241.26L373.83 235.89M373.83 235.89L369.77 230.76M369.77 230.76L365.4 225.89M365.4 225.89L360.74 221.3M360.74 221.3L355.82 216.99M355.82 216.99L350.64 213M350.64 213L345.23 209.32M345.23 209.32L339.6 205.99M339.6 205.99L333.78 203M333.78 203L327.79 200.37M327.79 200.37L327.79 200.37M327.79 200.37L327.3 200.3M327.3 200.3L326.83 200.47M326.83 200.47L326.49 200.84M326.49 200.84L326.37 201.33M326.37 201.33L326.37 398.67M326.37 398.67L326.37 398.67M326.37 398.67L326.49 399.16M326.49 399.16L326.83 399.53M326.83 399.53L327.3 399.7M327.3 399.7L327.79 399.63"
fill="none" stroke="black" stroke-width="0.5"/>
<path d="M472.59 580.54L327.41 580.54M327.41 580.54L327.41 580.54M327.41 580.54L326.89 580.4M326.89 580.4L326.51 580.02M326.51 580.02L326.37 579.51M326.37 579.51L326.37 545.37M326.37 545.37L326.37 545.37M326.37 545.37L326.51 544.85M326.51 544.85L326.89 544.47M326.89 544.47L327.41 544.33M327.41 544.33L472.59 544.33M472.59 544.33L472.59 544.33M472.59 544.33L473.11 544.47M473.11 544.47L473.49 544.85M473.49 544.85L473.63 545.37M473.63 545.37L473.63 579.51M473.63 579.51L473.63 579.51M473.63 579.51L473.49 580.02M473.49 580.02L473.11 580.4M473.11 580.4L472.59 580.54"
fill="none" stroke="black" stroke-width="0.5"/>
<path d="M449.99 252.53L447.53 244.82M447.53 244.82L444.71 237.24M444.71 237.24L441.53 229.8M441.53 229.8L438 222.53M438 222.53L434.12 215.43M434.12 215.43L429.91 208.52M429.91 208.52L425.38 201.82M425.38 201.82L420.53 195.35M420.53 195.35L415.37 189.12M415.37 189.12L409.92 183.14M409.92 183.14L404.2 177.42M404.2 177.42L398.2 171.99M398.2 171.99L391.96 166.85M391.96 166.85L385.47 162.02M385.47 162.02L378.76 157.5M378.76 157.5L371.85 153.3M371.85 153.3L364.74 149.44M364.74 149.44L357.45 145.93M357.45 145.93L350.01 142.77M350.01 142.77L342.42 139.97M342.42 139.97L334.71 137.53M334.71 137.53L334.71 137.53M334.71 137.53L334.32 137.32M334.32 137.32L334.05 136.97M334.05 136.97L333.96 136.54M333.96 136.54L333.96 118.43M333.96 118.43L333.96 118.43M333.96 118.43L334.1 117.91M334.1 117.91L334.48 117.54M334.48 117.54L334.99 117.4M334.99 117.4L465.01 117.4M465.01 117.4L465.01 117.4M465.01 117.4L465.52 117.54M465.52 117.54L465.9 117.91M465.9 117.91L466.04 118.43M466.04 118.43L466.04 252.24M466.04 252.24L466.04 252.24M466.04 252.24L465.9 252.75M465.9 252.75L465.52 253.13M465.52 253.13L465.01 253.27M465.01 253.27L450.98 253.27M450.98 253.27L450.98 253.27M450.98 253.27L450.55 253.18M450.55 253.18L450.2 252.91M450.2 252.91L449.99 252.53"
fill="none" stroke="black" stroke-width="0.5"/>
<path d="M450.98 346.73L465.01 346.73M465.01 346.73L465.01 346.73M465.01 346.73L465.52 346.87M465.52 346.87L465.9 347.25M465.9 347.25L466.04 347.76M466.04 347.76L466.04 481.57M466.04 481.57L466.04 481.57M466.04 481.57L465.9 482.09M465.9 482.09L465.52 482.46M465.52 482.46L465.01 482.6M465.01 482.6L334.99 482.6M334.99 482.6L334.99 482.6M334.99 482.6L334.48 482.46M334.48 482.46L334.1 482.09M334.1 482.09L333.96 481.57M333.96 481.57L333.96 462.68M333.96 462.68L333.96 462.68M333.96 462.68L341.72 460.27M341.72 460.27L349.35 457.49M349.35 457.49L356.85 454.34M356.85 454.34L364.18 450.84M364.18 450.84L371.33 446.99M371.33 446.99L378.3 442.8M378.3 442.8L385.05 438.28M385.05 438.28L391.58 433.45M391.58 433.45L397.87 428.3M397.87 428.3L403.9 422.86M403.9 422.86L409.67 417.13M409.67 417.13L415.15 411.14M415.15 411.14L420.34 404.88M420.34 404.88L425.23 398.39M425.23 398.39L429.79 391.67M429.79 391.67L434.03 384.73M434.03 384.73L437.93 377.61M437.93 377.61L441.48 370.3M441.48 370.3L444.68 362.83M444.68 362.83L447.52 355.21M447.52 355.21L449.99 347.47M449.99 347.47L449.99 347.47M449.99 347.47L450.2 347.09M450.2 347.09L450.55 346.82M450.55 346.82L450.98 346.73"
fill="none" stroke="black" stroke-width="0.5"/>
<path d="M333.96 386.71L333.96 213.29M333.96 213.29L333.96 213.29M333.96 213.29L334.1 212.78M334.1 212.78L334.47 212.4M334.47 212.4L334.98 212.26M334.98 212.26L335.49 212.38M335.49 212.38L335.49 212.38M335.49 212.38L340.91 215.57M340.91 215.57L346.12 219.09M346.12 219.09L351.1 222.93M351.1 222.93L355.82 227.08M355.82 227.08L360.28 231.52M360.28 231.52L364.44 236.23M364.44 236.23L368.31 241.19M368.31 241.19L371.85 246.38M371.85 246.38L375.06 251.79M375.06 251.79L377.92 257.39M377.92 257.39L380.42 263.16M380.42 263.16L382.56 269.07M382.56 269.07L384.31 275.11M384.31 275.11L385.69 281.25M385.69 281.25L386.68 287.46M386.68 287.46L387.27 293.72M387.27 293.72L387.47 300M387.47 300L387.27 306.29M387.27 306.29L386.68 312.54M386.68 312.54L385.69 318.75M385.69 318.75L384.31 324.89M384.31 324.89L382.56 330.93M382.56 330.93L380.42 336.84M380.42 336.84L377.92 342.61M377.92 342.61L375.06 348.21M375.06 348.21L371.85 353.62M371.85 353.62L368.31 358.81M368.31 358.81L364.44 363.77M364.44 363.77L360.28 368.48M360.28 368.48L355.82 372.92M355.82 372.92L351.1 377.07M351.1 377.07L346.12 380.91M346.12 380.91L340.91 384.43M340.91 384.43L335.49 387.62M335.49 387.62L335.49 387.62M335.49 387.62L334.98 387.74M334.98 387.74L334.47 387.6M334.47 387.6L334.1 387.22M334.1 387.22L333.96 386.71"
fill="none" stroke="black" stroke-width="0.5"/>
<path d="M465.01 572.96L334.99 572.96M334.99 572.96L334.99 572.96M334.99 572.96L334.48 572.82M334.48 572.82L334.1 572.44M334.1 572.44L333.96 571.92M333.96 571.92L333.96 552.95M333.96 552.95L333.96 552.95M333.96 552.95L334.1 552.44M334.1 552.44L334.48 552.06M334.48 552.06L334.99 551.92M334.99 551.92L465.01 551.92M465.01 551.92L465.01 551.92M465.01 551.92L465.52 552.06M465.52 552.06L465.9 552.44M465.9 552.44L466.04 552.95M466.04 552.95L466.04 571.92M466.04 571.92L466.04 571.92M466.04 571.92L465.9 572.44M465.9 572.44L465.52 572.82M465.52 572.82L465.01 572.96"
fill="none" stroke="black" stroke-width="0.5"/>
<path d="M410.06 300L409.86 293.06M409.86 293.06L409.27 286.14M409.27 286.14L408.29 279.27M408.29 279.27L406.92 272.47M406.92 272.47L405.17 265.75M405.17 265.75L403.04 259.14M403.04 259.14L400.54 252.67M400.54 252.67L397.67 246.35M397.67 246.35L394.45 240.19M394.45 240.19L390.89 234.24M390.89 234.24L387 228.49M387 228.49L382.79 222.97M382.79 222.97L378.27 217.7M378.27 217.7L373.46 212.7M373.46 212.7L368.37 207.97M368.37 207.97L363.02 203.55M363.02 203.55L357.44 199.43M357.44 199.43L351.62 195.63M351.62 195.63L345.61 192.17M345.61 192.17L339.4 189.06M339.4 189.06L333.03 186.3M333.03 186.3L326.51 183.91M326.51 183.91L319.87 181.9M319.87 181.9L313.12 180.26M313.12 180.26L313.12 180.26M313.12 180.26L312.73 180.02M312.73 180.02L312.58 179.58M312.58 179.58L312.58 156.4M312.58 156.4L312.58 156.4M312.58 156.4L312.69 156.02M312.69 156.02L313 155.76M313 155.76L313.39 155.72M313.39 155.72L313.39 155.72M313.39 155.72L320.72 157.22M320.72 157.22L327.96 159.09M327.96 159.09L335.09 161.33M335.09 161.33L342.1 163.93M342.1 163.93L348.97 166.89M348.97 166.89L355.68 170.19M355.68 170.19L362.21 173.83M362.21 173.83L368.55 177.8M368.55 177.8L374.68 182.09M374.68 182.09L380.58 186.68M380.58 186.68L386.24 191.57M386.24 191.57L391.64 196.74M391.64 196.74L396.77 202.18M396.77 202.18L401.62 207.87M401.62 207.87L406.17 213.81M406.17 213.81L410.41 219.97M410.41 219.97L414.34 226.33M414.34 226.33L417.93 232.89M417.93 232.89L421.18 239.63M421.18 239.63L424.09 246.52M424.09 246.52L426.64 253.55M426.64 253.55L428.83 260.7M428.83 260.7L430.65 267.95M430.65 267.95L432.1 275.29M432.1 275.29L432.1 275.29M432.1 275.29L432.33 275.7M432.33 275.7L432.78 275.86M432.78 275.86L486.73 275.86M486.73 275.86L486.73 275.86M486.73 275.86L487.08 275.95M487.08 275.95L487.33 276.2M487.33 276.2L487.42 276.55M487.42 276.55L487.42 300M487.42 300L487.42 323.45M487.42 323.45L487.42 323.45M487.42 323.45L487.33 323.8M487.33 323.8L487.08 324.05M487.08 324.05L486.73 324.14M486.73 324.14L432.78 324.14M432.78 324.14L432.78 324.14M432.78 324.14L432.33 324.3M432.33 324.3L432.1 324.71M432.1 324.71L432.1 324.71M432.1 324.71L430.65 332.05M430.65 332.05L428.83 339.3M428.83 339.3L426.64 346.45M426.64 346.45L424.09 353.48M424.09 353.48L421.18 360.37M421.18 360.37L417.93 367.11M417.93 367.11L414.34 373.67M414.34 373.67L410.41 380.03M410.41 380.03L406.17 386.19M406.17 386.19L401.62 392.13M401.62 392.13L396.77 397.82M396.77 397.82L391.64 403.26M391.64 403.26L386.24 408.43M386.24 408.43L380.58 413.32M380.58 413.32L374.68 417.91M374.68 417.91L368.55 422.2M368.55 422.2L362.21 426.17M362.21 426.17L355.68 429.81M355.68 429.81L348.97 433.11M348.97 433.11L342.1 436.07M342.1 436.07L335.09 438.67M335.09 438.67L327.96 440.91M327.96 440.91L320.72 442.78M320.72 442.78L313.39 444.28M313.39 444.28L313.39 444.28M313.39 444.28L313 444.24M313 444.24L312.69 443.98M312.69 443.98L312.58 443.6M312.58 443.6L312.58 420.42M312.58 420.42L312.58 420.42M312.58 420.42L312.73 419.98M312.73 419.98L313.12 419.74M313.12 419.74L313.12 419.74M313.12 419.74L319.87 418.1M319.87 418.1L326.51 416.09M326.51 416.09L333.03 413.7M333.03 413.7L339.4 410.94M339.4 410.94L345.6 407.83M345.6 407.83L351.62 404.37M351.62 404.37L357.44 400.57M357.44 400.57L363.02 396.46M363.02 396.46L368.37 392.03M368.37 392.03L373.46 387.3M373.46 387.3L378.27 382.3M378.27 382.3L382.79 377.03M382.79 377.03L387 371.51M387 371.51L390.89 365.76M390.89 365.76L394.45 359.81M394.45 359.81L397.67 353.66M397.67 353.66L400.54 347.33M400.54 347.33L403.04 340.86M403.04 340.86L405.17 334.25M405.17 334.25L406.92 327.53M406.92 327.53L408.29 320.73M408.29 320.73L409.27 313.86M409.27 313.86L409.86 306.94M409.86 306.94L410.06 300"
fill="none" stroke="black" stroke-width="0.5"/>
<path d="M486.73 529.33L313.27 529.33M313.27 529.33L313.27 529.33M313.27 529.33L312.92 529.24M312.92 529.24L312.67 528.99M312.67 528.99L312.58 528.64M312.58 528.64L312.58 505.88M312.58 505.88L312.58 505.88M312.58 505.88L312.67 505.54M312.67 505.54L312.92 505.28M312.92 505.28L313.27 505.19M313.27 505.19L486.73 505.19M486.73 505.19L486.73 505.19M486.73 505.19L487.08 505.28M487.08 505.28L487.33 505.54M487.33 505.54L487.42 505.88M487.42 505.88L487.42 528.64M487.42 528.64L487.42 528.64M487.42 528.64L487.33 528.99M487.33 528.99L487.08 529.24M487.08 529.24L486.73 529.33"
fill="none" stroke="black" stroke-width="0.5"/>
<path d="M411.09 300L410.89 293.04M410.89 293.04L410.3 286.1M410.3 286.1L409.33 279.2M409.33 279.2L407.96 272.37M407.96 272.37L406.21 265.63M406.21 265.63L404.08 258.99M404.08 258.99L401.58 252.49M401.58 252.49L398.72 246.14M398.72 246.14L395.51 239.96M395.51 239.96L391.95 233.97M391.95 233.97L388.06 228.19M388.06 228.19L383.85 222.65M383.85 222.65L379.34 217.34M379.34 217.34L374.53 212.3M374.53 212.3L369.44 207.54M369.44 207.54L364.1 203.07M364.1 203.07L358.51 198.91M358.51 198.91L352.7 195.08M352.7 195.08L346.68 191.58M346.68 191.58L340.47 188.42M340.47 188.42L334.09 185.62M334.09 185.62L327.56 183.18M327.56 183.18L320.91 181.11M320.91 181.11L314.15 179.42M314.15 179.42L314.15 179.42M314.15 179.42L313.77 179.18M313.77 179.18L313.61 178.75M313.61 178.75L313.61 157.64M313.61 157.64L313.61 157.64M313.61 157.64L313.73 157.26M313.73 157.26L314.03 157M314.03 157L314.43 156.96M314.43 156.96L314.43 156.96M314.43 156.96L321.68 158.51M321.68 158.51L328.83 160.42M328.83 160.42L335.88 162.7M335.88 162.7L342.81 165.34M342.81 165.34L349.59 168.32M349.59 168.32L356.22 171.64M356.22 171.64L362.66 175.3M362.66 175.3L368.91 179.28M368.91 179.28L374.95 183.58M374.95 183.58L380.76 188.17M380.76 188.17L386.33 193.06M386.33 193.06L391.65 198.22M391.65 198.22L396.69 203.65M396.69 203.65L401.46 209.32M401.46 209.32L405.93 215.23M405.93 215.23L410.09 221.36M410.09 221.36L413.93 227.7M413.93 227.7L417.45 234.22M417.45 234.22L420.63 240.91M420.63 240.91L423.46 247.76M423.46 247.76L425.94 254.74M425.94 254.74L428.07 261.84M428.07 261.84L429.83 269.04M429.83 269.04L431.22 276.32M431.22 276.32L431.22 276.32M431.22 276.32L431.45 276.73M431.45 276.73L431.9 276.89M431.9 276.89L485.7 276.89M485.7 276.89L485.7 276.89M485.7 276.89L486.04 276.99M486.04 276.99L486.29 277.24M486.29 277.24L486.39 277.58M486.39 277.58L486.39 322.42M486.39 322.42L486.39 322.42M486.39 322.42L486.29 322.76M486.29 322.76L486.04 323.01M486.04 323.01L485.7 323.11M485.7 323.11L431.9 323.1M431.9 323.1L431.9 323.1M431.9 323.1L431.46 323.27M431.46 323.27L431.22 323.68M431.22 323.68L431.22 323.68M431.22 323.68L429.83 330.96M429.83 330.96L428.07 338.16M428.07 338.16L425.95 345.26M425.95 345.26L423.46 352.24M423.46 352.24L420.63 359.08M420.63 359.08L417.45 365.78M417.45 365.78L413.93 372.3M413.93 372.3L410.09 378.63M410.09 378.63L405.93 384.77M405.93 384.77L401.46 390.68M401.46 390.68L396.7 396.35M396.7 396.35L391.65 401.78M391.65 401.78L386.33 406.94M386.33 406.94L380.76 411.83M380.76 411.83L374.95 416.42M374.95 416.42L368.91 420.72M368.91 420.72L362.66 424.7M362.66 424.7L356.22 428.35M356.22 428.35L349.59 431.68M349.59 431.68L342.81 434.66M342.81 434.66L335.89 437.3M335.89 437.3L328.83 439.58M328.83 439.58L321.68 441.49M321.68 441.49L314.43 443.04M314.43 443.04L314.43 443.04M314.43 443.04L314.04 443M314.04 443L313.73 442.74M313.73 442.74L313.61 442.36M313.61 442.36L313.61 421.25M313.61 421.25L313.61 421.25M313.61 421.25L313.77 420.82M313.77 420.82L314.15 420.58M314.15 420.58L314.15 420.58M314.15 420.58L320.91 418.89M320.91 418.89L327.56 416.82M327.56 416.82L334.09 414.38M334.09 414.38L340.47 411.58M340.47 411.58L346.68 408.42M346.68 408.42L352.7 404.92M352.7 404.92L358.51 401.09M358.51 401.09L364.1 396.93M364.1 396.93L369.44 392.46M369.44 392.46L374.53 387.7M374.53 387.7L379.34 382.66M379.34 382.66L383.85 377.35M383.85 377.35L388.06 371.8M388.06 371.8L391.95 366.03M391.95 366.03L395.51 360.04M395.51 360.04L398.72 353.86M398.72 353.86L401.58 347.51M401.58 347.51L404.08 341M404.08 341L406.21 334.37M406.21 334.37L407.96 327.63M407.96 327.63L409.33 320.8M409.33 320.8L410.3 313.9M410.3 313.9L410.89 306.96M410.89 306.96L411.09 300"
fill="none" stroke="black" stroke-width="0.5"/>
<path d="M485.7 528.3L314.3 528.3M314.3 528.3L314.3 528.3M314.3 528.3L313.96 528.2M313.96 528.2L313.71 527.95M313.71 527.95L313.61 527.61M313.61 527.61L313.61 506.91M313.61 506.91L313.61 506.91M313.61 506.91L313.71 506.57M313.71 506.57L313.96 506.32M313.96 506.32L314.3 506.23M314.3 506.23L485.7 506.23M485.7 506.23L485.7 506.23M485.7 506.23L486.04 506.32M486.04 506.32L486.29 506.57M486.29 506.57L486.39 506.91M486.39 506.91L486.39 527.61M486.39 527.61L486.39 527.61M486.39 527.61L486.29 527.95M486.29 527.95L486.04 528.2M486.04 528.2L485.7 528.3"
fill="none" stroke="black" stroke-width="0.5"/>
<path d="M487.42 5.66L312.58 5.66M312.58 5.66L312.58 69.46M312.58 69.46L487.42 69.46M487.42 69.46L487.42 5.66"
fill="none" stroke="black" stroke-width="0.5"/>
<path d="M477.77 15.32L477.77 59.81M477.77 59.81L322.23 59.81M322.23 59.81L322.23 15.32M322.23 15.32L477.77 15.32"
fill="none" stroke="black" stroke-width="0.5"/>
<path d="M473.63 20.49L473.63 54.63M473.63 54.63L473.63 54.63M473.63 54.63L473.49 55.15M473.49 55.15L473.11 55.53M473.11 55.53L472.59 55.67M472.59 55.67L327.41 55.67M327.41 55.67L327.41 55.67M327.41 55.67L326.89 55.53M326.89 55.53L326.51 55.15M326.51 55.15L326.37 54.63M326.37 54.63L326.37 20.49M326.37 20.49L326.37 20.49M326.37 20.49L326.51 19.98M326.51 19.98L326.89 19.6M326.89 19.6L327.41 19.46M327.41 19.46L472.59 19.46M472.59 19.46L472.59 19.46M472.59 19.46L473.11 19.6M473.11 19.6L473.49 19.98M473.49 19.98L473.63 20.49"
fill="none" stroke="black" stroke-width="0.5"/>
<path d="M466.04 28.08L466.04 47.05M466.04 47.05L466.04 47.05M466.04 47.05L465.9 47.56M465.9 47.56L465.52 47.94M465.52 47.94L465.01 48.08M465.01 48.08L334.99 48.08M334.99 48.08L334.99 48.08M334.99 48.08L334.48 47.94M334.48 47.94L334.1 47.56M334.1 47.56L333.96 47.05M333.96 47.05L333.96 28.08M333.96 28.08L333.96 28.08M333.96 28.08L334.1 27.56M334.1 27.56L334.48 27.18M334.48 27.18L334.99 27.04M334.99 27.04L465.01 27.04M465.01 27.04L465.01 27.04M465.01 27.04L465.52 27.18M465.52 27.18L465.9 27.56M465.9 27.56L466.04 28.08"
fill="none" stroke="black" stroke-width="0.5"/>
<path d="M486.73 70.67L313.27 70.67M313.27 70.67L313.27 70.67M313.27 70.67L312.92 70.76M312.92 70.76L312.67 71.01M312.67 71.01L312.58 71.36M312.58 71.36L312.58 94.12M312.58 94.12L312.58 94.12M312.58 94.12L312.67 94.46M312.67 94.46L312.92 94.72M312.92 94.72L313.27 94.81M313.27 94.81L486.73 94.81M486.73 94.81L486.73 94.81M486.73 94.81L487.08 94.72M487.08 94.72L487.33 94.46M487.33 94.46L487.42 94.12M487.42 94.12L487.42 71.36M487.42 71.36L487.42 71.36M487.42 71.36L487.33 71.01M487.33 71.01L487.08 70.76M487.08 70.76L486.73 70.67"
fill="none" stroke="black" stroke-width="0.5"/>
<path d="M486.39 72.39L486.39 93.09M486.39 93.09L486.39 93.09M486.39 93.09L486.29 93.43M486.29 93.43L486.04 93.68M486.04 93.68L485.7 93.77M485.7 93.77L314.3 93.77M314.3 93.77L314.3 93.77M314.3 93.77L313.96 93.68M313.96 93.68L313.71 93.43M313.71 93.43L313.61 93.09M313.61 93.09L313.61 72.39M313.61 72.39L313.61 72.39M313.61 72.39L313.71 72.05M313.71 72.05L313.96 71.8M313.96 71.8L314.3 71.7M314.3 71.7L485.7 71.7M485.7 71.7L485.7 71.7M485.7 71.7L486.04 71.8M486.04 71.8L486.29 72.05M486.29 72.05L486.39 72.39"
fill="none" stroke="black" stroke-width="0.5"/>
<path d="M491.39 1.7L491.39 598.3M491.39 598.3L308.61 598.3M308.61 598.3L308.61 1.7M308.61 1.7L491.39 1.7"
fill="none" stroke="black" stroke-width="0.5"/>
</svg>
