<?xml version="1.0" encoding="UTF-8"?>
<svg xmlns="http://www.w3.org/2000/svg" width="800.000" height="600.000" viewBox="0.0 0.0 800.000 600.000" version="1.1">
  <title>Produce by Acme CAD Converter</title>
  <desc>Produce by Acme CAD Converter</desc>
<path d="M471.72 20.25L471.72 579.75"
fill="none" stroke="black" stroke-width="0.5"/>
<path d="M471.5 20.47L471.72 20.25"
fill="none" stroke="black" stroke-width="0.5"/>
<path d="M328.28 20.25L471.72 20.25"
fill="none" stroke="black" stroke-width="0.5"/>
<path d="M328.5 20.47L328.28 20.25"
fill="none" stroke="black" stroke-width="0.5"/>
<path d="M328.28 579.75L328.28 20.25"
fill="none" stroke="black" stroke-width="0.5"/>
<path d="M471.72 579.75L471.5 579.53"
fill="none" stroke="black" stroke-width="0.5"/>
<path d="M328.28 579.75L328.5 579.53"
fill="none" stroke="black" stroke-width="0.5"/>
<path d="M471.72 579.75L328.28 579.75"
fill="none" stroke="black" stroke-width="0.5"/>
<path d="M477.53 14.44L322.47 14.44"
fill="none" stroke="black" stroke-width="0.5"/>
<path d="M322.47 14.44L322.24 14.21"
fill="none" stroke="black" stroke-width="0.5"/>
<path d="M322.47 14.44L322.47 585.56"
fill="none" stroke="black" stroke-width="0.5"/>
<path d="M477.76 14.21L477.53 14.44"
fill="none" stroke="black" stroke-width="0.5"/>
<path d="M477.53 585.56L477.53 14.44"
fill="none" stroke="black" stroke-width="0.5"/>
<path d="M477.76 585.79L477.53 585.56"
fill="none" stroke="black" stroke-width="0.5"/>
<path d="M322.47 585.56L477.53 585.56"
fill="none" stroke="black" stroke-width="0.5"/>
<path d="M322.47 585.56L322.24 585.79"
fill="none" stroke="black" stroke-width="0.5"/>
<path d="M328.5 579.53L471.5 579.53"
fill="none" stroke="black" stroke-width="0.5"/>
<path d="M471.5 579.53L470.78 578.81"
fill="none" stroke="black" stroke-width="0.5"/>
<path d="M471.5 579.53L471.5 20.47"
fill="none" stroke="black" stroke-width="0.5"/>
<path d="M471.5 20.47L470.78 21.19"
fill="none" stroke="black" stroke-width="0.5"/>
<path d="M471.5 20.47L328.5 20.47"
fill="none" stroke="black" stroke-width="0.5"/>
<path d="M328.5 20.47L329.22 21.19"
fill="none" stroke="black" stroke-width="0.5"/>
<path d="M328.5 20.47L328.5 579.53"
fill="none" stroke="black" stroke-width="0.5"/>
<path d="M328.5 579.53L329.22 578.81"
fill="none" stroke="black" stroke-width="0.5"/>
<path d="M470.78 578.81L329.22 578.81"
fill="none" stroke="black" stroke-width="0.5"/>
<path d="M329.34 578.69L329.22 578.81"
fill="none" stroke="black" stroke-width="0.5"/>
<path d="M329.22 578.81L329.22 21.19"
fill="none" stroke="black" stroke-width="0.5"/>
<path d="M329.22 21.19L329.34 21.31"
fill="none" stroke="black" stroke-width="0.5"/>
<path d="M329.22 21.19L470.78 21.19"
fill="none" stroke="black" stroke-width="0.5"/>
<path d="M470.78 21.19L470.66 21.31"
fill="none" stroke="black" stroke-width="0.5"/>
<path d="M470.66 578.69L470.78 578.81"
fill="none" stroke="black" stroke-width="0.5"/>
<path d="M470.78 21.19L470.78 578.81"
fill="none" stroke="black" stroke-width="0.5"/>
<path d="M477.76 14.21L477.76 585.79"
fill="none" stroke="black" stroke-width="0.5"/>
<path d="M483.89 591.92L477.76 585.79"
fill="none" stroke="black" stroke-width="0.5"/>
<path d="M477.76 585.79L322.24 585.79"
fill="none" stroke="black" stroke-width="0.5"/>
<path d="M316.11 591.92L322.24 585.79"
fill="none" stroke="black" stroke-width="0.5"/>
<path d="M322.24 585.79L322.24 14.21"
fill="none" stroke="black" stroke-width="0.5"/>
<path d="M483.89 8.08L477.76 14.21"
fill="none" stroke="black" stroke-width="0.5"/>
<path d="M316.11 8.08L322.24 14.21"
fill="none" stroke="black" stroke-width="0.5"/>
<path d="M322.24 14.21L477.76 14.21"
fill="none" stroke="black" stroke-width="0.5"/>
<path d="M483.89 591.92L483.89 8.08"
fill="none" stroke="black" stroke-width="0.5"/>
<path d="M483.89 8.08L316.11 8.08"
fill="none" stroke="black" stroke-width="0.5"/>
<path d="M483.89 8.08L483.93 8.04"
fill="none" stroke="black" stroke-width="0.5"/>
<path d="M483.93 8.04L484.2 7.77"
fill="none" stroke="black" stroke-width="0.5"/>
<path d="M483.89 591.92L483.93 591.96"
fill="none" stroke="black" stroke-width="0.5"/>
<path d="M316.11 591.92L483.89 591.92"
fill="none" stroke="black" stroke-width="0.5"/>
<path d="M483.93 591.96L484.2 592.23"
fill="none" stroke="black" stroke-width="0.5"/>
<path d="M316.07 591.96L316.11 591.92"
fill="none" stroke="black" stroke-width="0.5"/>
<path d="M316.11 8.08L316.11 591.92"
fill="none" stroke="black" stroke-width="0.5"/>
<path d="M316.07 8.04L316.11 8.08"
fill="none" stroke="black" stroke-width="0.5"/>
<path d="M315.8 7.77L316.07 8.04"
fill="none" stroke="black" stroke-width="0.5"/>
<path d="M315.8 592.23L316.07 591.96"
fill="none" stroke="black" stroke-width="0.5"/>
<path d="M488.8 596.83L488.8 3.17"
fill="none" stroke="black" stroke-width="0.5"/>
<path d="M489.03 597.06L488.8 596.83"
fill="none" stroke="black" stroke-width="0.5"/>
<path d="M311.2 596.83L488.8 596.83"
fill="none" stroke="black" stroke-width="0.5"/>
<path d="M488.8 3.17L489.03 2.94"
fill="none" stroke="black" stroke-width="0.5"/>
<path d="M488.8 3.17L311.2 3.17"
fill="none" stroke="black" stroke-width="0.5"/>
<path d="M310.97 597.06L311.2 596.83"
fill="none" stroke="black" stroke-width="0.5"/>
<path d="M311.2 3.17L311.2 596.83"
fill="none" stroke="black" stroke-width="0.5"/>
<path d="M311.2 3.17L310.97 2.94"
fill="none" stroke="black" stroke-width="0.5"/>
<path d="M488.56 596.58L311.44 596.58"
fill="none" stroke="black" stroke-width="0.5"/>
<path d="M311.69 596.34L311.44 596.58"
fill="none" stroke="black" stroke-width="0.5"/>
<path d="M311.44 596.58L311.44 3.42"
fill="none" stroke="black" stroke-width="0.5"/>
<path d="M488.31 596.34L488.56 596.58"
fill="none" stroke="black" stroke-width="0.5"/>
<path d="M488.56 3.42L488.56 596.58"
fill="none" stroke="black" stroke-width="0.5"/>
<path d="M311.44 3.42L311.69 3.66"
fill="none" stroke="black" stroke-width="0.5"/>
<path d="M488.56 3.42L488.31 3.66"
fill="none" stroke="black" stroke-width="0.5"/>
<path d="M311.44 3.42L488.56 3.42"
fill="none" stroke="black" stroke-width="0.5"/>
<path d="M489.03 597.06L310.97 597.06"
fill="none" stroke="black" stroke-width="0.5"/>
<path d="M490.05 598.08L489.03 597.06"
fill="none" stroke="black" stroke-width="0.5"/>
<path d="M489.03 2.94L489.03 597.06"
fill="none" stroke="black" stroke-width="0.5"/>
<path d="M490.05 1.92L489.03 2.94"
fill="none" stroke="black" stroke-width="0.5"/>
<path d="M310.97 2.94L489.03 2.94"
fill="none" stroke="black" stroke-width="0.5"/>
<path d="M309.95 1.92L310.97 2.94"
fill="none" stroke="black" stroke-width="0.5"/>
<path d="M309.95 598.08L310.97 597.06"
fill="none" stroke="black" stroke-width="0.5"/>
<path d="M310.97 597.06L310.97 2.94"
fill="none" stroke="black" stroke-width="0.5"/>
<path d="M470.66 578.69L470.66 21.31"
fill="none" stroke="black" stroke-width="0.5"/>
<path d="M329.34 578.69L470.66 578.69"
fill="none" stroke="black" stroke-width="0.5"/>
<path d="M470.66 578.69L458.47 566.5"
fill="none" stroke="black" stroke-width="0.5"/>
<path d="M470.66 21.31L458.47 33.5"
fill="none" stroke="black" stroke-width="0.5"/>
<path d="M470.66 21.31L329.34 21.31"
fill="none" stroke="black" stroke-width="0.5"/>
<path d="M329.34 21.31L341.53 33.5"
fill="none" stroke="black" stroke-width="0.5"/>
<path d="M329.34 21.31L329.34 578.69"
fill="none" stroke="black" stroke-width="0.5"/>
<path d="M329.34 578.69L341.53 566.5"
fill="none" stroke="black" stroke-width="0.5"/>
<path d="M341.53 33.5L458.47 33.5"
fill="none" stroke="black" stroke-width="0.5"/>
<path d="M309.95 598.08L490.05 598.08"
fill="none" stroke="black" stroke-width="0.5"/>
<path d="M458.37 33.6L341.63 33.6"
fill="none" stroke="black" stroke-width="0.5"/>
<path d="M309.73 598.3L309.95 598.08"
fill="none" stroke="black" stroke-width="0.5"/>
<path d="M309.95 1.92L309.95 598.08"
fill="none" stroke="black" stroke-width="0.5"/>
<path d="M309.73 1.7L309.95 1.92"
fill="none" stroke="black" stroke-width="0.5"/>
<path d="M490.05 1.92L309.95 1.92"
fill="none" stroke="black" stroke-width="0.5"/>
<path d="M458.37 33.6L458.47 33.5"
fill="none" stroke="black" stroke-width="0.5"/>
<path d="M458.37 566.4L458.37 33.6"
fill="none" stroke="black" stroke-width="0.5"/>
<path d="M458.47 33.5L458.47 566.5"
fill="none" stroke="black" stroke-width="0.5"/>
<path d="M490.05 598.08L490.27 598.3"
fill="none" stroke="black" stroke-width="0.5"/>
<path d="M490.05 1.92L490.27 1.7"
fill="none" stroke="black" stroke-width="0.5"/>
<path d="M490.05 598.08L490.05 1.92"
fill="none" stroke="black" stroke-width="0.5"/>
<path d="M341.63 33.6L341.63 566.4"
fill="none" stroke="black" stroke-width="0.5"/>
<path d="M341.63 33.6L341.53 33.5"
fill="none" stroke="black" stroke-width="0.5"/>
<path d="M341.53 566.5L341.53 33.5"
fill="none" stroke="black" stroke-width="0.5"/>
<path d="M458.47 566.5L458.37 566.4"
fill="none" stroke="black" stroke-width="0.5"/>
<path d="M341.63 566.4L458.37 566.4"
fill="none" stroke="black" stroke-width="0.5"/>
<path d="M341.53 566.5L341.63 566.4"
fill="none" stroke="black" stroke-width="0.5"/>
<path d="M458.47 566.5L341.53 566.5"
fill="none" stroke="black" stroke-width="0.5"/>
<path d="M309.73 598.3L309.73 1.7"
fill="none" stroke="black" stroke-width="0.5"/>
<path d="M309.73 1.7L490.27 1.7"
fill="none" stroke="black" stroke-width="0.5"/>
<path d="M490.27 1.7L490.27 598.3"
fill="none" stroke="black" stroke-width="0.5"/>
<path d="M490.27 598.3L309.73 598.3"
fill="none" stroke="black" stroke-width="0.5"/>
<path d="M488.31 596.34L488.31 3.66"
fill="none" stroke="black" stroke-width="0.5"/>
<path d="M484.2 7.77L484.2 592.23"
fill="none" stroke="black" stroke-width="0.5"/>
<path d="M311.69 596.34L488.31 596.34"
fill="none" stroke="black" stroke-width="0.5"/>
<path d="M488.31 596.34L488.07 596.1M488.07 596.1L487.95 595.98M487.95 595.98L487.89 595.92M487.89 595.92L487.83 595.86M487.83 595.86L487.77 595.8M487.77 595.8L487.71 595.74M487.71 595.74L487.64 595.67M487.64 595.67L487.58 595.6M487.58 595.6L487.51 595.54M487.51 595.54L487.44 595.47M487.44 595.47L487.37 595.4M487.37 595.4L487.3 595.33M487.3 595.33L487.15 595.18M487.15 595.18L487.01 595.04M487.01 595.04L486.86 594.89M486.86 594.89L486.72 594.74M486.72 594.74L486.57 594.6M486.57 594.6L486.42 594.45M486.42 594.45L486.35 594.37M486.35 594.37L486.27 594.3M486.27 594.3L486.2 594.23M486.2 594.23L486.13 594.15M486.13 594.15L486.05 594.08M486.05 594.08L485.98 594.01M485.98 594.01L485.91 593.94M485.91 593.94L485.84 593.87M485.84 593.87L485.77 593.8M485.77 593.8L485.7 593.73M485.7 593.73L485.63 593.66M485.63 593.66L485.57 593.6M485.57 593.6L485.5 593.53M485.5 593.53L485.44 593.46M485.44 593.46L485.37 593.4M485.37 593.4L485.31 593.34M485.31 593.34L485.25 593.28M485.25 593.28L485.23 593.25M485.23 593.25L485.2 593.23M485.2 593.23L485.09 593.11M485.09 593.11L484.2 592.23"
fill="none" stroke="black" stroke-width="0.5"/>
<path d="M484.2 592.23L315.8 592.23"
fill="none" stroke="black" stroke-width="0.5"/>
<path d="M488.31 3.66L488.07 3.9M488.07 3.9L487.95 4.02M487.95 4.02L487.89 4.08M487.89 4.08L487.83 4.14M487.83 4.14L487.77 4.2M487.77 4.2L487.71 4.26M487.71 4.26L487.64 4.33M487.64 4.33L487.58 4.4M487.58 4.4L487.51 4.46M487.51 4.46L487.44 4.53M487.44 4.53L487.37 4.6M487.37 4.6L487.3 4.67M487.3 4.67L487.15 4.82M487.15 4.82L487.01 4.96M487.01 4.96L486.86 5.11M486.86 5.11L486.72 5.26M486.72 5.26L486.57 5.4M486.57 5.4L486.42 5.55M486.42 5.55L486.35 5.63M486.35 5.63L486.27 5.7M486.27 5.7L486.2 5.77M486.2 5.77L486.13 5.85M486.13 5.85L486.05 5.92M486.05 5.92L485.98 5.99M485.98 5.99L485.91 6.06M485.91 6.06L485.84 6.13M485.84 6.13L485.77 6.2M485.77 6.2L485.7 6.27M485.7 6.27L485.63 6.34M485.63 6.34L485.57 6.4M485.57 6.4L485.5 6.47M485.5 6.47L485.44 6.54M485.44 6.54L485.37 6.6M485.37 6.6L485.31 6.66M485.31 6.66L485.25 6.72M485.25 6.72L485.23 6.75M485.23 6.75L485.2 6.77M485.2 6.77L485.09 6.89M485.09 6.89L484.2 7.77"
fill="none" stroke="black" stroke-width="0.5"/>
<path d="M488.31 3.66L311.69 3.66"
fill="none" stroke="black" stroke-width="0.5"/>
<path d="M315.8 7.77L484.2 7.77"
fill="none" stroke="black" stroke-width="0.5"/>
<path d="M311.69 3.66L311.93 3.9M311.93 3.9L312.05 4.02M312.05 4.02L312.11 4.08M312.11 4.08L312.17 4.14M312.17 4.14L312.23 4.2M312.23 4.2L312.29 4.26M312.29 4.26L312.36 4.33M312.36 4.33L312.42 4.4M312.42 4.4L312.49 4.46M312.49 4.46L312.56 4.53M312.56 4.53L312.63 4.6M312.63 4.6L312.7 4.67M312.7 4.67L312.85 4.82M312.85 4.82L312.99 4.96M312.99 4.96L313.14 5.11M313.14 5.11L313.28 5.26M313.28 5.26L313.43 5.4M313.43 5.4L313.58 5.55M313.58 5.55L313.65 5.63M313.65 5.63L313.73 5.7M313.73 5.7L313.8 5.77M313.8 5.77L313.87 5.85M313.87 5.85L313.95 5.92M313.95 5.92L314.02 5.99M314.02 5.99L314.09 6.06M314.09 6.06L314.16 6.13M314.16 6.13L314.23 6.2M314.23 6.2L314.3 6.27M314.3 6.27L314.37 6.34M314.37 6.34L314.43 6.4M314.43 6.4L314.5 6.47M314.5 6.47L314.56 6.54M314.56 6.54L314.63 6.6M314.63 6.6L314.69 6.66M314.69 6.66L314.75 6.72M314.75 6.72L314.77 6.75M314.77 6.75L314.8 6.77M314.8 6.77L314.91 6.89M314.91 6.89L315.8 7.77"
fill="none" stroke="black" stroke-width="0.5"/>
<path d="M311.69 3.66L311.69 596.34"
fill="none" stroke="black" stroke-width="0.5"/>
<path d="M311.69 596.34L311.93 596.1M311.93 596.1L312.05 595.98M312.05 595.98L312.11 595.92M312.11 595.92L312.17 595.86M312.17 595.86L312.23 595.8M312.23 595.8L312.29 595.74M312.29 595.74L312.36 595.67M312.36 595.67L312.42 595.6M312.42 595.6L312.49 595.54M312.49 595.54L312.56 595.47M312.56 595.47L312.63 595.4M312.63 595.4L312.7 595.33M312.7 595.33L312.85 595.18M312.85 595.18L312.99 595.04M312.99 595.04L313.14 594.89M313.14 594.89L313.28 594.74M313.28 594.74L313.43 594.6M313.43 594.6L313.58 594.45M313.58 594.45L313.65 594.37M313.65 594.37L313.73 594.3M313.73 594.3L313.8 594.23M313.8 594.23L313.87 594.15M313.87 594.15L313.95 594.08M313.95 594.08L314.02 594.01M314.02 594.01L314.09 593.94M314.09 593.94L314.16 593.87M314.16 593.87L314.23 593.8M314.23 593.8L314.3 593.73M314.3 593.73L314.37 593.66M314.37 593.66L314.43 593.6M314.43 593.6L314.5 593.53M314.5 593.53L314.56 593.46M314.56 593.46L314.63 593.4M314.63 593.4L314.69 593.34M314.69 593.34L314.75 593.28M314.75 593.28L314.77 593.25M314.77 593.25L314.8 593.23M314.8 593.23L314.91 593.11M314.91 593.11L315.8 592.23"
fill="none" stroke="black" stroke-width="0.5"/>
<path d="M315.8 592.23L315.8 7.77"
fill="none" stroke="black" stroke-width="0.5"/>
</svg>
