<?xml version="1.0" encoding="UTF-8"?>
<svg xmlns="http://www.w3.org/2000/svg" width="800.000" height="600.000" viewBox="0.0 0.0 800.000 600.000" version="1.1">
  <title>Produce by Acme CAD Converter</title>
  <desc>Produce by Acme CAD Converter</desc>
<path d="M444.83 596.58L444.83 3.42M444.83 3.42L355.17 3.42M355.17 3.42L355.17 596.58M355.17 596.58L444.83 596.58"
fill="none" stroke="black" stroke-width="0.5"/>
<path d="M388.27 35.67L411.73 35.67M411.73 35.67L411.73 35.67M411.73 35.67L412.16 35.78M412.16 35.78L412.47 36.1M412.47 36.1L412.59 36.53M412.59 36.53L412.59 336.9M412.59 336.9L412.59 336.9M412.59 336.9L412.47 337.33M412.47 337.33L412.16 337.65M412.16 337.65L411.73 337.76M411.73 337.76L388.27 337.76M388.27 337.76L388.27 337.76M388.27 337.76L387.84 337.65M387.84 337.65L387.53 337.33M387.53 337.33L387.41 336.9M387.41 336.9L387.41 36.53M387.41 36.53L387.41 36.53M387.41 36.53L387.53 36.1M387.53 36.1L387.84 35.78M387.84 35.78L388.27 35.67"
fill="none" stroke="black" stroke-width="0.5"/>
<path d="M388.27 564.33L411.73 564.33M411.73 564.33L411.73 564.33M411.73 564.33L412.16 564.22M412.16 564.22L412.47 563.9M412.47 563.9L412.59 563.47M412.59 563.47L412.59 435.53M412.59 435.53L412.59 435.53M412.59 435.53L412.47 435.1M412.47 435.1L412.16 434.78M412.16 434.78L411.73 434.67M411.73 434.67L388.27 434.67M388.27 434.67L388.27 434.67M388.27 434.67L387.84 434.78M387.84 434.78L387.53 435.1M387.53 435.1L387.41 435.53M387.41 435.53L387.41 563.47M387.41 563.47L387.41 563.47M387.41 563.47L387.53 563.9M387.53 563.9L387.84 564.22M387.84 564.22L388.27 564.33"
fill="none" stroke="black" stroke-width="0.5"/>
<path d="M414.14 432.25L385.86 432.25M385.86 432.25L385.86 432.25M385.86 432.25L385.43 432.37M385.43 432.37L385.11 432.68M385.11 432.68L385 433.12M385 433.12L385 565.89M385 565.89L385 565.89M385 565.89L385.11 566.32M385.11 566.32L385.43 566.63M385.43 566.63L385.86 566.75M385.86 566.75L414.14 566.75M414.14 566.75L414.14 566.75M414.14 566.75L414.57 566.63M414.57 566.63L414.89 566.32M414.89 566.32L415 565.89M415 565.89L415 433.12M415 433.12L415 433.12M415 433.12L414.89 432.68M414.89 432.68L414.57 432.37M414.57 432.37L414.14 432.25"
fill="none" stroke="black" stroke-width="0.5"/>
<path d="M371.89 420.18L372.03 419.67M372.03 419.67L372.41 419.29M372.41 419.29L372.93 419.15M372.93 419.15L427.07 419.15M427.07 419.15L427.07 419.15M427.07 419.15L427.59 419.29M427.59 419.29L427.97 419.67M427.97 419.67L428.11 420.18M428.11 420.18L428.11 578.82M428.11 578.82L428.11 578.82M428.11 578.82L427.97 579.33M427.97 579.33L427.59 579.71M427.59 579.71L427.07 579.85M427.07 579.85L372.93 579.85M372.93 579.85L372.93 579.85M372.93 579.85L372.41 579.71M372.41 579.71L372.03 579.34M372.03 579.34L371.89 578.82M371.89 578.82L371.89 420.18"
fill="none" stroke="black" stroke-width="0.5"/>
<path d="M381.55 429.84L381.69 429.32M381.69 429.32L382.07 428.94M382.07 428.94L382.58 428.8M382.58 428.8L417.42 428.8M417.42 428.8L417.42 428.8M417.42 428.8L417.93 428.94M417.93 428.94L418.31 429.32M418.31 429.32L418.45 429.84M418.45 429.84L418.45 569.16M418.45 569.16L418.45 569.16M418.45 569.16L418.31 569.68M418.31 569.68L417.93 570.06M417.93 570.06L417.42 570.2M417.42 570.2L382.58 570.2M382.58 570.2L382.58 570.2M382.58 570.2L382.07 570.06M382.07 570.06L381.69 569.68M381.69 569.68L381.55 569.16M381.55 569.16L381.55 429.84"
fill="none" stroke="black" stroke-width="0.5"/>
<path d="M441.56 401.39L441.42 401.91M441.42 401.91L441.04 402.28M441.04 402.28L440.52 402.42M440.52 402.42L359.48 402.42M359.48 402.42L359.48 402.42M359.48 402.42L358.96 402.28M358.96 402.28L358.58 401.91M358.58 401.91L358.44 401.39M358.44 401.39L358.44 371.04M358.44 371.04L358.44 371.04M358.44 371.04L358.58 370.52M358.58 370.52L358.96 370.14M358.96 370.14L359.48 370.01M359.48 370.01L440.52 370.01M440.52 370.01L440.52 370.01M440.52 370.01L441.04 370.14M441.04 370.14L441.42 370.52M441.42 370.52L441.56 371.04M441.56 371.04L441.56 401.39"
fill="none" stroke="black" stroke-width="0.5"/>
<path d="M358.44 368.97L357.93 369.11M357.93 369.11L357.55 369.49M357.55 369.49L357.41 370.01M357.41 370.01L357.41 402.42M357.41 402.42L357.41 402.42M357.41 402.42L357.55 402.94M357.55 402.94L357.93 403.32M357.93 403.32L358.44 403.46M358.44 403.46L441.56 403.46M441.56 403.46L441.56 403.46M441.56 403.46L442.07 403.32M442.07 403.32L442.45 402.94M442.45 402.94L442.59 402.42M442.59 402.42L442.59 370.01M442.59 370.01L442.59 370.01M442.59 370.01L442.45 369.49M442.45 369.49L442.07 369.11M442.07 369.11L441.56 368.97M441.56 368.97L358.44 368.97"
fill="none" stroke="black" stroke-width="0.5"/>
<path d="M367.76 583.99L367.76 415.01M367.76 415.01L432.24 415.01M432.24 415.01L432.24 583.99M432.24 583.99L367.76 583.99"
fill="none" stroke="black" stroke-width="0.5"/>
<path d="M362.58 589.16L362.58 409.84M362.58 409.84L437.42 409.84M437.42 409.84L437.42 589.16M437.42 589.16L362.58 589.16"
fill="none" stroke="black" stroke-width="0.5"/>
<path d="M361.55 590.2L361.55 408.8M361.55 408.8L438.45 408.8M438.45 408.8L438.45 590.2M438.45 590.2L361.55 590.2"
fill="none" stroke="black" stroke-width="0.5"/>
<path d="M357.41 594.34L442.59 594.34M442.59 594.34L442.59 404.66M442.59 404.66L357.41 404.66M357.41 404.66L357.41 594.34"
fill="none" stroke="black" stroke-width="0.5"/>
<path d="M413.62 564.51L413.62 434.49M413.62 434.49L413.62 434.49M413.62 434.49L413.51 434.06M413.51 434.06L413.19 433.75M413.19 433.75L412.76 433.63M412.76 433.63L387.24 433.63M387.24 433.63L387.24 433.63M387.24 433.63L386.81 433.75M386.81 433.75L386.49 434.06M386.49 434.06L386.38 434.49M386.38 434.49L386.38 564.51M386.38 564.51L386.38 564.51M386.38 564.51L386.49 564.94M386.49 564.94L386.81 565.25M386.81 565.25L387.24 565.37M387.24 565.37L412.76 565.37M412.76 565.37L412.76 565.37M412.76 565.37L413.19 565.25M413.19 565.25L413.51 564.94M413.51 564.94L413.62 564.51"
fill="none" stroke="black" stroke-width="0.5"/>
<path d="M413.62 35.49L413.62 337.93M413.62 337.93L413.62 337.93M413.62 337.93L413.51 338.37M413.51 338.37L413.19 338.68M413.19 338.68L412.76 338.8M412.76 338.8L387.24 338.8M387.24 338.8L387.24 338.8M387.24 338.8L386.81 338.68M386.81 338.68L386.49 338.37M386.49 338.37L386.38 337.93M386.38 337.93L386.38 35.49M386.38 35.49L386.38 35.49M386.38 35.49L386.49 35.06M386.49 35.06L386.81 34.75M386.81 34.75L387.24 34.63M387.24 34.63L412.76 34.63M412.76 34.63L412.76 34.63M412.76 34.63L413.19 34.75M413.19 34.75L413.51 35.06M413.51 35.06L413.62 35.49"
fill="none" stroke="black" stroke-width="0.5"/>
<path d="M414.14 340.18L385.86 340.18M385.86 340.18L385.86 340.18M385.86 340.18L385.43 340.06M385.43 340.06L385.11 339.74M385.11 339.74L385 339.31M385 339.31L385 34.11M385 34.11L385 34.11M385 34.11L385.11 33.68M385.11 33.68L385.43 33.37M385.43 33.37L385.86 33.25M385.86 33.25L414.14 33.25M414.14 33.25L414.14 33.25M414.14 33.25L414.57 33.37M414.57 33.37L414.89 33.68M414.89 33.68L415 34.11M415 34.11L415 339.31M415 339.31L415 339.31M415 339.31L414.89 339.74M414.89 339.74L414.57 340.06M414.57 340.06L414.14 340.18"
fill="none" stroke="black" stroke-width="0.5"/>
<path d="M416.04 33.25L416.04 340.18M416.04 340.18L416.04 340.18M416.04 340.18L415.9 340.69M415.9 340.69L415.52 341.07M415.52 341.07L415 341.21M415 341.21L385 341.21M385 341.21L385 341.21M385 341.21L384.48 341.07M384.48 341.07L384.1 340.69M384.1 340.69L383.96 340.18M383.96 340.18L383.96 33.25M383.96 33.25L383.96 33.25M383.96 33.25L384.1 32.74M384.1 32.74L384.48 32.36M384.48 32.36L385 32.22M385 32.22L415 32.22M415 32.22L415 32.22M415 32.22L415.52 32.36M415.52 32.36L415.9 32.73M415.9 32.73L416.04 33.25"
fill="none" stroke="black" stroke-width="0.5"/>
<path d="M427.07 20.15L427.59 20.29M427.59 20.29L427.97 20.66M427.97 20.66L428.11 21.18M428.11 21.18L428.11 352.25M428.11 352.25L428.11 352.25M428.11 352.25L427.97 352.76M427.97 352.76L427.59 353.14M427.59 353.14L427.07 353.28M427.07 353.28L372.93 353.28M372.93 353.28L372.93 353.28M372.93 353.28L372.41 353.14M372.41 353.14L372.03 352.76M372.03 352.76L371.89 352.25M371.89 352.25L371.89 21.18M371.89 21.18L371.89 21.18M371.89 21.18L372.03 20.67M372.03 20.67L372.41 20.29M372.41 20.29L372.93 20.15M372.93 20.15L427.07 20.15"
fill="none" stroke="black" stroke-width="0.5"/>
<path d="M417.42 29.8L417.93 29.94M417.93 29.94L418.31 30.32M418.31 30.32L418.45 30.84M418.45 30.84L418.45 342.59M418.45 342.59L418.45 342.59M418.45 342.59L418.31 343.11M418.31 343.11L417.93 343.49M417.93 343.49L417.42 343.62M417.42 343.62L382.58 343.62M382.58 343.62L382.58 343.62M382.58 343.62L382.07 343.49M382.07 343.49L381.69 343.11M381.69 343.11L381.55 342.59M381.55 342.59L381.55 30.84M381.55 30.84L381.55 30.84M381.55 30.84L381.69 30.32M381.69 30.32L382.07 29.94M382.07 29.94L382.58 29.8M382.58 29.8L417.42 29.8"
fill="none" stroke="black" stroke-width="0.5"/>
<path d="M367.76 16.01L367.76 357.42M367.76 357.42L432.24 357.42M432.24 357.42L432.24 16.01M432.24 16.01L367.76 16.01"
fill="none" stroke="black" stroke-width="0.5"/>
<path d="M362.58 10.84L362.58 362.59M362.58 362.59L437.42 362.59M437.42 362.59L437.42 10.84M437.42 10.84L362.58 10.84"
fill="none" stroke="black" stroke-width="0.5"/>
<path d="M361.55 9.8L361.55 363.63M361.55 363.63L438.45 363.63M438.45 363.63L438.45 9.8M438.45 9.8L361.55 9.8"
fill="none" stroke="black" stroke-width="0.5"/>
<path d="M357.41 5.66L442.59 5.66M442.59 5.66L442.59 367.76M442.59 367.76L357.41 367.76M357.41 367.76L357.41 5.66"
fill="none" stroke="black" stroke-width="0.5"/>
<path d="M446.56 1.7L353.44 1.7M353.44 1.7L353.44 598.3M353.44 598.3L446.56 598.3M446.56 598.3L446.56 1.7"
fill="none" stroke="black" stroke-width="0.5"/>
<path d="M443.8 5.49L443.8 594.51M443.8 594.51L443.8 594.51M443.8 594.51L443.66 595.03M443.66 595.03L443.28 595.4M443.28 595.4L442.76 595.54M442.76 595.54L357.24 595.54M357.24 595.54L357.24 595.54M357.24 595.54L356.72 595.4M356.72 595.4L356.34 595.03M356.34 595.03L356.2 594.51M356.2 594.51L356.2 5.49M356.2 5.49L356.2 5.49M356.2 5.49L356.34 4.97M356.34 4.97L356.72 4.6M356.72 4.6L357.24 4.46M357.24 4.46L442.76 4.46M442.76 4.46L442.76 4.46M442.76 4.46L443.28 4.6M443.28 4.6L443.66 4.97M443.66 4.97L443.8 5.49"
fill="none" stroke="black" stroke-width="0.5"/>
<path d="M442.76 3.42L357.24 3.42M357.24 3.42L357.24 3.42M357.24 3.42L356.45 3.58M356.45 3.58L355.77 4.03M355.77 4.03L355.33 4.7M355.33 4.7L355.17 5.49M355.17 5.49L355.17 594.51M355.17 594.51L355.17 594.51M355.17 594.51L355.33 595.3M355.33 595.3L355.77 595.97M355.77 595.97L356.45 596.42M356.45 596.42L357.24 596.58M357.24 596.58L442.76 596.58M442.76 596.58L442.76 596.58M442.76 596.58L443.55 596.42M443.55 596.42L444.23 595.97M444.23 595.97L444.67 595.3M444.67 595.3L444.83 594.51M444.83 594.51L444.83 5.49M444.83 5.49L444.83 5.49M444.83 5.49L444.67 4.7M444.67 4.7L444.23 4.03M444.23 4.03L443.55 3.58M443.55 3.58L442.76 3.42"
fill="none" stroke="black" stroke-width="0.5"/>
</svg>
