<?xml version="1.0" encoding="UTF-8"?>
<svg xmlns="http://www.w3.org/2000/svg" width="800.000" height="600.000" viewBox="0.0 0.0 800.000 600.000" version="1.1">
  <title>Produce by Acme CAD Converter</title>
  <desc>Produce by Acme CAD Converter</desc>
<path d="M308.61 1.7L491.39 1.7M491.39 1.7L491.39 598.3M491.39 598.3L308.61 598.3M308.61 598.3L308.61 1.7"
fill="none" stroke="black" stroke-width="0.5"/>
<path d="M354.88 18.82L350 21.94M350 21.94L344.94 24.73M344.94 24.73L339.7 27.19M339.7 27.19L334.3 29.29M334.3 29.29L328.79 31.03M328.79 31.03L323.17 32.41M323.17 32.41L317.47 33.41M317.47 33.41L311.72 34.03M311.72 34.03L311.72 355M311.72 355L311.72 355M311.72 355L317.39 355.62M317.39 355.62L323.01 356.61M323.01 356.61L328.55 357.97M328.55 357.97L334 359.69M334 359.69L339.31 361.77M339.31 361.77L344.48 364.19M344.48 364.19L349.48 366.95M349.48 366.95L354.29 370.03M354.29 370.03L354.29 370.03M354.29 370.03L358.84 372.93M358.84 372.93L363.57 375.53M363.57 375.53L368.46 377.81M368.46 377.81L373.5 379.75M373.5 379.75L378.66 381.35M378.66 381.35L383.91 382.61M383.91 382.61L389.23 383.51M389.23 383.51L394.6 384.05M394.6 384.05L400 384.23M400 384.23L405.4 384.05M405.4 384.05L410.77 383.51M410.77 383.51L416.09 382.61M416.09 382.61L421.34 381.35M421.34 381.35L426.5 379.75M426.5 379.75L431.53 377.81M431.53 377.81L436.43 375.53M436.43 375.53L441.16 372.94M441.16 372.94L445.71 370.03M445.71 370.03L445.71 370.03M445.71 370.03L450.52 366.95M450.52 366.95L455.52 364.19M455.52 364.19L460.69 361.77M460.69 361.77L466 359.69M466 359.69L471.44 357.97M471.44 357.97L476.99 356.61M476.99 356.61L482.61 355.62M482.61 355.62L488.28 355M488.28 355L488.28 34.03M488.28 34.03L488.28 34.03M488.28 34.03L482.53 33.41M482.53 33.41L476.83 32.41M476.83 32.41L471.21 31.03M471.21 31.03L465.7 29.29M465.7 29.29L460.3 27.19M460.3 27.19L455.06 24.73M455.06 24.73L450 21.94M450 21.94L445.13 18.82M445.13 18.82L445.13 18.82M445.13 18.82L440.37 15.79M440.37 15.79L435.4 13.1M435.4 13.1L430.26 10.78M430.26 10.78L424.97 8.82M424.97 8.82L419.55 7.24M419.55 7.24L414.04 6.05M414.04 6.05L408.45 5.25M408.45 5.25L402.82 4.85M402.82 4.85L397.18 4.85M397.18 4.85L391.55 5.25M391.55 5.25L385.96 6.05M385.96 6.05L380.45 7.24M380.45 7.24L375.03 8.82M375.03 8.82L369.74 10.78M369.74 10.78L364.6 13.1M364.6 13.1L359.63 15.79M359.63 15.79L354.87 18.82"
fill="none" stroke="black" stroke-width="0.5"/>
<path d="M441.61 23.94L437.22 21.14M437.22 21.14L432.64 18.66M432.64 18.66L427.9 16.52M427.9 16.52L423.02 14.71M423.02 14.71L418.03 13.26M418.03 13.26L412.94 12.16M412.94 12.16L407.79 11.42M407.79 11.42L402.6 11.05M402.6 11.05L397.4 11.05M397.4 11.05L392.21 11.42M392.21 11.42L387.06 12.16M387.06 12.16L381.97 13.26M381.97 13.26L376.98 14.71M376.98 14.71L372.1 16.52M372.1 16.52L367.36 18.66M367.36 18.66L362.78 21.14M362.78 21.14L358.39 23.93M358.39 23.93L358.39 23.93M358.39 23.93L353.8 26.9M353.8 26.9L349.03 29.6M349.03 29.6L344.12 32.02M344.12 32.02L339.08 34.14M339.08 34.14L333.92 35.97M333.92 35.97L328.66 37.49M328.66 37.49L323.32 38.71M323.32 38.71L317.92 39.61M317.92 39.61L317.92 349.42M317.92 349.42L317.92 349.42M317.92 349.42L323.24 350.32M323.24 350.32L328.5 351.53M328.5 351.53L333.68 353.04M333.68 353.04L338.77 354.84M338.77 354.84L343.74 356.94M343.74 356.94L348.58 359.32M348.58 359.32L353.27 361.98M353.27 361.98L357.81 364.91M357.81 364.91L357.81 364.91M357.81 364.91L362.26 367.75M362.26 367.75L366.9 370.26M366.9 370.26L371.7 372.43M371.7 372.43L376.65 374.26M376.65 374.26L381.72 375.74M381.72 375.74L386.87 376.85M386.87 376.85L392.1 377.6M392.1 377.6L397.36 377.97M397.36 377.97L402.64 377.97M402.64 377.97L407.9 377.6M407.9 377.6L413.12 376.85M413.12 376.85L418.28 375.74M418.28 375.74L423.35 374.27M423.35 374.27L428.3 372.43M428.3 372.43L433.1 370.26M433.1 370.26L437.74 367.75M437.74 367.75L442.19 364.91M442.19 364.91L442.19 364.91M442.19 364.91L446.73 361.98M446.73 361.98L451.42 359.32M451.42 359.32L456.26 356.94M456.26 356.94L461.23 354.84M461.23 354.84L466.32 353.04M466.32 353.04L471.5 351.53M471.5 351.53L476.76 350.32M476.76 350.32L482.08 349.42M482.08 349.42L482.08 39.61M482.08 39.61L482.08 39.61M482.08 39.61L476.68 38.71M476.68 38.71L471.34 37.5M471.34 37.5L466.09 35.97M466.09 35.97L460.93 34.14M460.93 34.14L455.88 32.02M455.88 32.02L450.97 29.6M450.97 29.6L446.21 26.91M446.21 26.91L441.61 23.94"
fill="none" stroke="black" stroke-width="0.5"/>
<path d="M363.67 31.61L358.88 34.71M358.88 34.71L353.92 37.55M353.92 37.55L348.82 40.1M348.82 40.1L343.58 42.37M343.58 42.37L338.23 44.35M338.23 44.35L332.77 46.03M332.77 46.03L327.24 47.41M327.24 47.41L327.24 341.65M327.24 341.65L327.24 341.65M327.24 341.65L332.69 343.01M332.69 343.01L338.05 344.67M338.05 344.67L343.32 346.63M343.32 346.63L348.47 348.87M348.47 348.87L353.49 351.39M353.49 351.39L358.37 354.18M358.37 354.18L363.08 357.24M363.08 357.24L363.08 357.24M363.08 357.24L367.23 359.86M367.23 359.86L371.55 362.17M371.55 362.17L376.04 364.14M376.04 364.14L380.67 365.78M380.67 365.78L385.41 367.05M385.41 367.05L390.22 367.97M390.22 367.97L395.1 368.52M395.1 368.52L400 368.71M400 368.71L404.9 368.52M404.9 368.52L409.77 367.97M409.77 367.97L414.59 367.05M414.59 367.05L419.33 365.78M419.33 365.78L423.95 364.15M423.95 364.15L428.44 362.17M428.44 362.17L432.77 359.87M432.77 359.87L436.92 357.24M436.92 357.24L436.92 357.24M436.92 357.24L441.63 354.19M441.63 354.19L446.51 351.39M446.51 351.39L451.53 348.87M451.53 348.87L456.68 346.63M456.68 346.63L461.95 344.68M461.95 344.68L467.31 343.01M467.31 343.01L472.77 341.65M472.77 341.65L472.77 47.41M472.77 47.41L472.77 47.41M472.77 47.41L467.23 46.03M467.23 46.03L461.77 44.35M461.77 44.35L456.42 42.37M456.42 42.37L451.18 40.1M451.18 40.1L446.08 37.55M446.08 37.55L441.12 34.71M441.12 34.71L436.33 31.61M436.33 31.61L436.33 31.61M436.33 31.61L432.25 29.02M432.25 29.02L427.99 26.75M427.99 26.75L423.58 24.81M423.58 24.81L419.02 23.21M419.02 23.21L414.36 21.95M414.36 21.95L409.62 21.05M409.62 21.05L404.82 20.5M404.82 20.5L400 20.32M400 20.32L395.18 20.5M395.18 20.5L390.38 21.05M390.38 21.05L385.64 21.95M385.64 21.95L380.98 23.21M380.98 23.21L376.43 24.81M376.43 24.81L372.01 26.75M372.01 26.75L367.75 29.02M367.75 29.02L363.67 31.61"
fill="none" stroke="black" stroke-width="0.5"/>
<path d="M326.89 47.13L326.89 341.92M326.89 341.92L326.89 341.92M326.89 341.92L332.36 343.28M332.36 343.28L337.75 344.94M337.75 344.94L343.04 346.89M343.04 346.89L348.22 349.13M348.22 349.13L353.26 351.66M353.26 351.66L358.15 354.46M358.15 354.46L362.89 357.52M362.89 357.52L362.89 357.52M362.89 357.52L367.05 360.16M367.05 360.16L371.4 362.48M371.4 362.48L375.92 364.47M375.92 364.47L380.57 366.1M380.57 366.1L385.33 367.39M385.33 367.39L390.17 368.31M390.17 368.31L395.07 368.87M395.07 368.87L400 369.05M400 369.05L404.93 368.87M404.93 368.87L409.83 368.31M409.83 368.31L414.67 367.39M414.67 367.39L419.43 366.11M419.43 366.11L424.08 364.47M424.08 364.47L428.59 362.48M428.59 362.48L432.95 360.16M432.95 360.16L437.11 357.53M437.11 357.53L437.11 357.53M437.11 357.53L441.84 354.46M441.84 354.46L446.74 351.66M446.74 351.66L451.78 349.13M451.78 349.13L456.96 346.89M456.96 346.89L462.25 344.94M462.25 344.94L467.64 343.28M467.64 343.28L473.11 341.92M473.11 341.92L473.11 47.13M473.11 47.13L473.11 47.13M473.11 47.13L467.55 45.76M467.55 45.76L462.07 44.09M462.07 44.09L456.69 42.11M456.69 42.11L451.43 39.84M451.43 39.84L446.31 37.28M446.31 37.28L441.34 34.44M441.34 34.44L436.53 31.32M436.53 31.32L436.53 31.32M436.53 31.32L432.43 28.73M432.43 28.73L428.14 26.44M428.14 26.44L423.7 24.49M423.7 24.49L419.12 22.88M419.12 22.88L414.44 21.61M414.44 21.61L409.67 20.71M409.67 20.71L404.85 20.16M404.85 20.16L400 19.98M400 19.98L395.15 20.16M395.15 20.16L390.33 20.71M390.33 20.71L385.56 21.61M385.56 21.61L380.87 22.88M380.87 22.88L376.3 24.49M376.3 24.49L371.85 26.44M371.85 26.44L367.57 28.73M367.57 28.73L363.47 31.32M363.47 31.32L363.47 31.32M363.47 31.32L358.66 34.44M358.66 34.44L353.69 37.28M353.69 37.28L348.57 39.84M348.57 39.84L343.31 42.11M343.31 42.11L337.93 44.09M337.93 44.09L332.45 45.76M332.45 45.76L326.89 47.13"
fill="none" stroke="black" stroke-width="0.5"/>
<path d="M312.06 34.35L312.06 354.68M312.06 354.68L312.06 354.68M312.06 354.68L317.72 355.32M317.72 355.32L323.32 356.32M323.32 356.32L328.84 357.69M328.84 357.69L334.26 359.42M334.26 359.42L339.56 361.5M339.56 361.5L344.71 363.92M344.71 363.92L349.69 366.67M349.69 366.67L354.48 369.74M354.48 369.74L354.48 369.74M354.48 369.74L359.01 372.64M359.01 372.64L363.72 375.22M363.72 375.22L368.6 377.49M368.6 377.49L373.62 379.43M373.62 379.43L378.75 381.02M378.75 381.02L383.98 382.27M383.98 382.27L389.28 383.16M389.28 383.16L394.63 383.7M394.63 383.7L400 383.88M400 383.88L405.37 383.7M405.37 383.7L410.72 383.16M410.72 383.16L416.02 382.27M416.02 382.27L421.25 381.02M421.25 381.02L426.38 379.43M426.38 379.43L431.4 377.49M431.4 377.49L436.27 375.23M436.27 375.23L440.99 372.64M440.99 372.64L445.52 369.74M445.52 369.74L445.52 369.74M445.52 369.74L450.31 366.67M450.31 366.67L455.29 363.92M455.29 363.92L460.44 361.5M460.44 361.5L465.74 359.42M465.74 359.42L471.16 357.69M471.16 357.69L476.68 356.32M476.68 356.32L482.28 355.32M482.28 355.32L487.94 354.68M487.94 354.68L487.94 34.35M487.94 34.35L487.94 34.35M487.94 34.35L482.21 33.71M482.21 33.71L476.53 32.7M476.53 32.7L470.93 31.31M470.93 31.31L465.43 29.56M465.43 29.56L460.06 27.46M460.06 27.46L454.84 25.01M454.84 25.01L449.79 22.22M449.79 22.22L444.93 19.1M444.93 19.1L444.93 19.1M444.93 19.1L440.19 16.09M440.19 16.09L435.25 13.41M435.25 13.41L430.13 11.09M430.13 11.09L424.86 9.14M424.86 9.14L419.47 7.57M419.47 7.57L413.98 6.39M413.98 6.39L408.41 5.59M408.41 5.59L402.81 5.2M402.81 5.2L397.19 5.2M397.19 5.2L391.59 5.59M391.59 5.59L386.03 6.39M386.03 6.39L380.53 7.57M380.53 7.57L375.14 9.14M375.14 9.14L369.87 11.09M369.87 11.09L364.75 13.41M364.75 13.41L359.81 16.09M359.81 16.09L355.07 19.1M355.07 19.1L355.07 19.1M355.07 19.1L350.21 22.22M350.21 22.22L345.16 25M345.16 25L339.94 27.46M339.94 27.46L334.57 29.56M334.57 29.56L329.07 31.31M329.07 31.31L323.47 32.7M323.47 32.7L317.8 33.71M317.8 33.71L312.06 34.35"
fill="none" stroke="black" stroke-width="0.5"/>
<path d="M401.18 290.29L402.2 290.06M402.2 290.06L402.2 290.06M402.2 290.06L402.34 290.02M402.34 290.02L402.34 290.02M402.34 290.02L402.49 289.98M402.49 289.98L402.49 289.98M402.49 289.98L402.63 289.93M402.63 289.93L402.63 289.93M402.63 289.93L402.78 289.88M402.78 289.88L402.78 289.88M402.78 289.88L402.93 289.83M402.93 289.83L402.93 289.83M402.93 289.83L403.37 289.65M403.37 289.65L403.37 289.65M403.37 289.65L403.51 289.59M403.51 289.59L403.51 289.59M403.51 289.59L403.66 289.53M403.66 289.53L403.66 289.53M403.66 289.53L403.8 289.46M403.8 289.46L403.8 289.46M403.8 289.46L403.96 289.38M403.96 289.38L403.96 289.38M403.96 289.38L404.12 289.3M404.12 289.3L404.12 289.3M404.12 289.3L404.6 289.06M404.6 289.06L404.6 289.06M404.6 289.06L404.75 288.97M404.75 288.97L404.75 288.97M404.75 288.97L404.91 288.88M404.91 288.88L404.91 288.88M404.91 288.88L405.06 288.79M405.06 288.79L405.06 288.79M405.06 288.79L405.23 288.69M405.23 288.69L405.23 288.69M405.23 288.69L405.4 288.58M405.4 288.58L405.4 288.58M405.4 288.58L405.89 288.26M405.89 288.26L405.89 288.26M405.89 288.26L406.05 288.15M406.05 288.15L406.05 288.15M406.05 288.15L406.21 288.03M406.21 288.03L406.21 288.03M406.21 288.03L406.37 287.92M406.37 287.92L406.37 287.92M406.37 287.92L406.55 287.79M406.55 287.79L406.55 287.79M406.55 287.79L406.73 287.65M406.73 287.65L406.73 287.65M406.73 287.65L407.24 287.25M407.24 287.25L407.24 287.25M407.24 287.25L407.41 287.11M407.41 287.11L407.41 287.11M407.41 287.11L407.58 286.97M407.58 286.97L407.58 286.97M407.58 286.97L407.75 286.82M407.75 286.82L407.75 286.82M407.75 286.82L407.93 286.66M407.93 286.66L407.93 286.66M407.93 286.66L408.12 286.5M408.12 286.5L408.12 286.5M408.12 286.5L408.67 285.99M408.67 285.99L408.67 285.99M408.67 285.99L408.85 285.82M408.85 285.82L408.85 285.82M408.85 285.82L409.02 285.65M409.02 285.65L409.02 285.65M409.02 285.65L409.2 285.47M409.2 285.47L409.2 285.47M409.2 285.47L409.4 285.27M409.4 285.27L409.4 285.27M409.4 285.27L409.59 285.07M409.59 285.07L409.59 285.07M409.59 285.07L410.17 284.46M410.17 284.46L410.17 284.46M410.17 284.46L410.35 284.26M410.35 284.26L410.35 284.26M410.35 284.26L410.54 284.05M410.54 284.05L410.54 284.05M410.54 284.05L410.72 283.84M410.72 283.84L410.72 283.84M410.72 283.84L410.92 283.61M410.92 283.61L410.92 283.61M410.92 283.61L411.11 283.39M411.11 283.39L411.11 283.39M411.11 283.39L411.86 282.48M411.86 282.48L411.86 282.48M411.86 282.48L412.04 282.24M412.04 282.24L412.04 282.24M412.04 282.24L412.22 282.01M412.22 282.01L412.22 282.01M412.22 282.01L412.4 281.78M412.4 281.78L412.4 281.78M412.4 281.78L412.61 281.5M412.61 281.5L412.61 281.5M412.61 281.5L412.81 281.23M412.81 281.23L412.81 281.23M412.81 281.23L413.61 280.12M413.61 280.12L413.61 280.12M413.61 280.12L413.8 279.84M413.8 279.84L413.8 279.84M413.8 279.84L414 279.55M414 279.55L414 279.55M414 279.55L414.19 279.27M414.19 279.27L414.19 279.27M414.19 279.27L414.4 278.94M414.4 278.94L414.4 278.94M414.4 278.94L414.62 278.61M414.62 278.61L414.62 278.61M414.62 278.61L415.25 277.62M415.25 277.62L415.25 277.62M415.25 277.62L415.45 277.28M415.45 277.28L415.45 277.28M415.45 277.28L415.66 276.95M415.66 276.95L415.66 276.95M415.66 276.95L415.86 276.61M415.86 276.61L415.86 276.61M415.86 276.61L416.06 276.27M416.06 276.27L416.06 276.27M416.06 276.27L417.03 274.55M417.03 274.55L417.03 274.55M417.03 274.55L417.41 273.85M417.41 273.85L417.41 273.85M417.41 273.85L417.6 273.5M417.6 273.5L417.6 273.5M417.6 273.5L417.78 273.15M417.78 273.15L417.78 273.15M417.78 273.15L417.98 272.76M417.98 272.76L417.98 272.76M417.98 272.76L418.18 272.38M418.18 272.38L418.18 272.38M418.18 272.38L418.95 270.82M418.95 270.82L418.95 270.82M418.95 270.82L419.13 270.42M419.13 270.42L419.13 270.42M419.13 270.42L419.32 270.03M419.32 270.03L419.32 270.03M419.32 270.03L419.5 269.63M419.5 269.63L419.5 269.63M419.5 269.63L419.7 269.2M419.7 269.2L419.7 269.2M419.7 269.2L420.84 266.6M420.84 266.6L420.84 266.6M420.84 266.6L421.2 265.72M421.2 265.72L421.2 265.72M421.2 265.72L421.38 265.28M421.38 265.28L421.38 265.28M421.38 265.28L421.56 264.85M421.56 264.85L421.56 264.85M421.56 264.85L421.76 264.33M421.76 264.33L421.76 264.33M421.76 264.33L421.96 263.82M421.96 263.82L421.96 263.82M421.96 263.82L422.93 261.23M422.93 261.23L422.93 261.23M422.93 261.23L423.12 260.71M423.12 260.71L423.12 260.71M423.12 260.71L423.31 260.19M423.31 260.19L423.31 260.19M423.31 260.19L423.49 259.67M423.49 259.67L423.49 259.67M423.49 259.67L423.67 259.14M423.67 259.14L423.67 259.14M423.67 259.14L423.85 258.62M423.85 258.62L423.85 258.62M423.85 258.62L424.87 255.45M424.87 255.45L424.87 255.45M424.87 255.45L425.03 254.92M425.03 254.92L425.03 254.92M425.03 254.92L425.19 254.39M425.19 254.39L425.19 254.39M425.19 254.39L425.35 253.86M425.35 253.86L425.35 253.86M425.35 253.86L425.52 253.28M425.52 253.28L425.52 253.28M425.52 253.28L425.69 252.7M425.69 252.7L425.69 252.7M425.69 252.7L426.66 249.19M426.66 249.19L426.66 249.19M426.66 249.19L426.81 248.61M426.81 248.61L426.81 248.61M426.81 248.61L426.96 248.02M426.96 248.02L426.96 248.02M426.96 248.02L427.11 247.43M427.11 247.43L427.11 247.43M427.11 247.43L427.27 246.76M427.27 246.76L427.27 246.76M427.27 246.76L427.44 246.1M427.44 246.1L427.44 246.1M427.44 246.1L428.36 242.08M428.36 242.08L428.36 242.08M428.36 242.08L428.5 241.41M428.5 241.41L428.5 241.41M428.5 241.41L428.65 240.73M428.65 240.73L428.65 240.73M428.65 240.73L428.79 240.06M428.79 240.06L428.79 240.06M428.79 240.06L428.93 239.35M428.93 239.35L428.93 239.35M428.93 239.35L429.07 238.65M429.07 238.65L429.07 238.65M429.07 238.65L429.98 233.7M429.98 233.7L429.98 233.7M429.98 233.7L430.1 232.99M430.1 232.99L430.1 232.99M430.1 232.99L430.22 232.28M430.22 232.28L430.22 232.28M430.22 232.28L430.34 231.57M430.34 231.57L430.34 231.57M430.34 231.57L430.45 230.85M430.45 230.85L430.45 230.85M430.45 230.85L430.56 230.12M430.56 230.12L430.56 230.12M430.56 230.12L431.37 224.31M431.37 224.31L431.37 224.31M431.37 224.31L431.46 223.59M431.46 223.59L431.46 223.59M431.46 223.59L431.55 222.86M431.55 222.86L431.55 222.86M431.55 222.86L431.63 222.13M431.63 222.13L431.63 222.13M431.63 222.13L431.72 221.37M431.72 221.37L431.72 221.37M431.72 221.37L432.04 218.31M432.04 218.31L432.04 218.31M432.04 218.31L432.56 212.19M432.56 212.19L432.56 212.19M432.56 212.19L432.62 211.43M432.62 211.43L432.62 211.43M432.62 211.43L432.67 210.66M432.67 210.66L432.67 210.66M432.67 210.66L432.72 209.9M432.72 209.9L432.72 209.9M432.72 209.9L432.77 209.11M432.77 209.11L432.77 209.11M432.77 209.11L432.9 206.75M432.9 206.75L432.9 206.75M432.9 206.75L433.18 197.3M433.18 197.3L433.18 197.3M433.18 197.3L433.19 196.52M433.19 196.52L433.19 196.52M433.19 196.52L433.19 195.73M433.19 195.73L433.19 195.73M433.19 195.73L433.2 194.94M433.2 194.94L433.2 194.94M433.2 194.94L433.2 193.71M433.2 193.71L433.2 193.71M433.2 193.71L433.07 186.53M433.07 186.53L432.73 179.35M432.73 179.35L432.73 179.35M432.73 179.35L432.68 178.55M432.68 178.55L432.68 178.55M432.68 178.55L432.63 177.75M432.63 177.75L432.63 177.75M432.63 177.75L432.57 176.96M432.57 176.96L432.57 176.96M432.57 176.96L432.52 176.2M432.52 176.2L432.52 176.2M432.52 176.2L431.98 170.14M431.98 170.14L431.98 170.14M431.98 170.14L431.74 167.88M431.74 167.88L431.74 167.88M431.74 167.88L431.66 167.12M431.66 167.12L431.66 167.12M431.66 167.12L431.57 166.37M431.57 166.37L431.57 166.37M431.57 166.37L431.48 165.61M431.48 165.61L431.48 165.61M431.48 165.61L431.39 164.89M431.39 164.89L431.39 164.89M431.39 164.89L431.11 162.72M431.11 162.72L431.11 162.72M431.11 162.72L430.48 158.39M430.48 158.39L430.48 158.39M430.48 158.39L430.37 157.67M430.37 157.67L430.37 157.67M430.37 157.67L430.25 156.95M430.25 156.95L430.25 156.95M430.25 156.95L430.14 156.24M430.14 156.24L430.14 156.24M430.14 156.24L430.02 155.53M430.02 155.53L430.02 155.53M430.02 155.53L429.64 153.4M429.64 153.4L429.64 153.4M429.64 153.4L428.97 149.87M428.97 149.87L428.97 149.87M428.97 149.87L428.83 149.17M428.83 149.17L428.83 149.17M428.83 149.17L428.68 148.47M428.68 148.47L428.68 148.47M428.68 148.47L428.53 147.76M428.53 147.76L428.53 147.76M428.53 147.76L428.39 147.11M428.39 147.11L428.39 147.11M428.39 147.11L428.25 146.46M428.25 146.46L428.25 146.46M428.25 146.46L427.35 142.57M427.35 142.57L427.35 142.57M427.35 142.57L427.19 141.92M427.19 141.92L427.19 141.92M427.19 141.92L427.03 141.27M427.03 141.27L427.03 141.27M427.03 141.27L426.86 140.63M426.86 140.63L426.86 140.63M426.86 140.63L426.71 140.03M426.71 140.03L426.71 140.03M426.71 140.03L426.23 138.26M426.23 138.26L426.23 138.26M426.23 138.26L425.56 135.9M425.56 135.9L425.56 135.9M425.56 135.9L425.39 135.31M425.39 135.31L425.39 135.31M425.39 135.31L425.22 134.72M425.22 134.72L425.22 134.72M425.22 134.72L425.04 134.14M425.04 134.14L425.04 134.14M425.04 134.14L424.86 133.57M424.86 133.57L424.86 133.57M424.86 133.57L424.69 133M424.69 133L424.69 133M424.69 133L423.76 130.17M423.76 130.17L423.76 130.17M423.76 130.17L423.57 129.6M423.57 129.6L423.57 129.6M423.57 129.6L423.38 129.04M423.38 129.04L423.38 129.04M423.38 129.04L423.18 128.48M423.18 128.48L423.18 128.48M423.18 128.48L423 127.97M423 127.97L423 127.97M423 127.97L422.44 126.44M422.44 126.44L422.44 126.44M422.44 126.44L421.85 124.93M421.85 124.93L421.85 124.93M421.85 124.93L421.66 124.42M421.66 124.42L421.66 124.42M421.66 124.42L421.45 123.92M421.45 123.92L421.45 123.92M421.45 123.92L421.25 123.42M421.25 123.42L421.25 123.42M421.25 123.42L421.07 122.97M421.07 122.97L421.07 122.97M421.07 122.97L420.5 121.64M420.5 121.64L420.5 121.64M420.5 121.64L419.92 120.31M419.92 120.31L419.92 120.31M419.92 120.31L419.72 119.87M419.72 119.87L419.72 119.87M419.72 119.87L419.52 119.44M419.52 119.44L419.52 119.44M419.52 119.44L419.32 119M419.32 119L419.32 119M419.32 119L419.11 118.57M419.11 118.57L419.11 118.57M419.11 118.57L418.91 118.14M418.91 118.14L418.91 118.14M418.91 118.14L418.06 116.43M418.06 116.43L418.06 116.43M418.06 116.43L417.85 116.01M417.85 116.01L417.85 116.01M417.85 116.01L417.63 115.59M417.63 115.59L417.63 115.59M417.63 115.59L417.4 115.17M417.4 115.17L417.4 115.17M417.4 115.17L417.21 114.8M417.21 114.8L417.21 114.8M417.21 114.8L417.01 114.43M417.01 114.43L417.01 114.43M417.01 114.43L416.19 112.98M416.19 112.98L416.19 112.98M416.19 112.98L415.98 112.62M415.98 112.62L415.98 112.62M415.98 112.62L415.76 112.26M415.76 112.26L415.76 112.26M415.76 112.26L415.55 111.9M415.55 111.9L415.55 111.9M415.55 111.9L415.36 111.59M415.36 111.59L415.36 111.59M415.36 111.59L415.16 111.27M415.16 111.27L415.16 111.27M415.16 111.27L414.37 110.04M414.37 110.04L414.37 110.04M414.37 110.04L414.17 109.73M414.17 109.73L414.17 109.73M414.17 109.73L413.96 109.43M413.96 109.43L413.96 109.43M413.96 109.43L413.76 109.13M413.76 109.13L413.76 109.13M413.76 109.13L413.57 108.85M413.57 108.85L413.57 108.85M413.57 108.85L412.99 108.05M412.99 108.05L412.99 108.05M412.99 108.05L412.6 107.51M412.6 107.51L412.6 107.51M412.6 107.51L412.4 107.25M412.4 107.25L412.4 107.25M412.4 107.25L412.2 106.99M412.2 106.99L412.2 106.99M412.2 106.99L411.99 106.73M411.99 106.73L411.99 106.73M411.99 106.73L411.8 106.48M411.8 106.48L411.8 106.48M411.8 106.48L411.59 106.23M411.59 106.23L411.59 106.23M411.59 106.23L410.98 105.49M410.98 105.49L410.98 105.49M410.98 105.49L410.77 105.24M410.77 105.24L410.77 105.24M410.77 105.24L410.56 105M410.56 105L410.56 105M410.56 105L410.35 104.76M410.35 104.76L410.35 104.76M410.35 104.76L410.15 104.55M410.15 104.55L410.15 104.55M410.15 104.55L409.96 104.34M409.96 104.34L409.96 104.34M409.96 104.34L409.36 103.72M409.36 103.72L409.36 103.72M409.36 103.72L409.16 103.52M409.16 103.52L409.16 103.52M409.16 103.52L408.96 103.32M408.96 103.32L408.96 103.32M408.96 103.32L408.75 103.12M408.75 103.12L408.75 103.12M408.75 103.12L408.57 102.94M408.57 102.94L408.57 102.94M408.57 102.94L408.38 102.77M408.38 102.77L408.38 102.77M408.38 102.77L407.82 102.26M407.82 102.26L407.82 102.26M407.82 102.26L407.62 102.1M407.62 102.1L407.62 102.1M407.62 102.1L407.43 101.94M407.43 101.94L407.43 101.94M407.43 101.94L407.23 101.77M407.23 101.77L407.23 101.77M407.23 101.77L407.06 101.64M407.06 101.64L407.06 101.64M407.06 101.64L406.89 101.5M406.89 101.5L406.89 101.5M406.89 101.5L406.36 101.1M406.36 101.1L406.36 101.1M406.36 101.1L406.18 100.97M406.18 100.97L406.18 100.97M406.18 100.97L406 100.84M406 100.84L406 100.84M406 100.84L405.81 100.72M405.81 100.72L405.81 100.72M405.81 100.72L405.66 100.61M405.66 100.61L405.66 100.61M405.66 100.61L405.49 100.51M405.49 100.51L405.49 100.51M405.49 100.51L405 100.21M405 100.21L405 100.21M405 100.21L404.84 100.11M404.84 100.11L404.84 100.11M404.84 100.11L404.67 100.01M404.67 100.01L404.67 100.01M404.67 100.01L404.5 99.92M404.5 99.92L404.5 99.92M404.5 99.92L404.35 99.84M404.35 99.84L404.35 99.84M404.35 99.84L404.2 99.76M404.2 99.76L404.2 99.76M404.2 99.76L403.73 99.53M403.73 99.53L403.73 99.53M403.73 99.53L403.57 99.46M403.57 99.46L403.57 99.46M403.57 99.46L403.41 99.4M403.41 99.4L403.41 99.4M403.41 99.4L403.25 99.33M403.25 99.33L403.25 99.33M403.25 99.33L403.11 99.27M403.11 99.27L403.11 99.27M403.11 99.27L402.96 99.22M402.96 99.22L402.96 99.22M402.96 99.22L402.53 99.07M402.53 99.07L402.53 99.07M402.53 99.07L402.38 99.02M402.38 99.02L402.38 99.02M402.38 99.02L402.23 98.98M402.23 98.98L402.23 98.98M402.23 98.98L402.08 98.93M402.08 98.93L402.08 98.93M402.08 98.93L401.95 98.9M401.95 98.9L401.95 98.9M401.95 98.9L401.81 98.87M401.81 98.87L401.81 98.87M401.81 98.87L400.97 98.71M400.97 98.71L400.97 98.71M400.97 98.71L399.89 98.65M399.89 98.65L398.82 98.74M398.82 98.74L398.82 98.74M398.82 98.74L397.8 98.97M397.8 98.97L397.8 98.97M397.8 98.97L397.66 99.01M397.66 99.01L397.66 99.01M397.66 99.01L397.51 99.05M397.51 99.05L397.51 99.05M397.51 99.05L397.37 99.1M397.37 99.1L397.37 99.1M397.37 99.1L397.22 99.15M397.22 99.15L397.22 99.15M397.22 99.15L397.07 99.2M397.07 99.2L397.07 99.2M397.07 99.2L396.63 99.38M396.63 99.38L396.63 99.38M396.63 99.38L396.49 99.44M396.49 99.44L396.49 99.44M396.49 99.44L396.34 99.5M396.34 99.5L396.34 99.5M396.34 99.5L396.2 99.57M396.2 99.57L396.2 99.57M396.2 99.57L396.04 99.65M396.04 99.65L396.04 99.65M396.04 99.65L395.88 99.73M395.88 99.73L395.88 99.73M395.88 99.73L395.4 99.97M395.4 99.97L395.4 99.97M395.4 99.97L395.25 100.06M395.25 100.06L395.25 100.06M395.25 100.06L395.09 100.15M395.09 100.15L395.09 100.15M395.09 100.15L394.94 100.24M394.94 100.24L394.94 100.24M394.94 100.24L394.77 100.34M394.77 100.34L394.77 100.34M394.77 100.34L394.6 100.45M394.6 100.45L394.6 100.45M394.6 100.45L394.11 100.77M394.11 100.77L394.11 100.77M394.11 100.77L393.95 100.88M393.95 100.88L393.95 100.88M393.95 100.88L393.78 101M393.78 101L393.78 101M393.78 101L393.63 101.11M393.63 101.11L393.63 101.11M393.63 101.11L393.45 101.24M393.45 101.24L393.45 101.24M393.45 101.24L393.27 101.38M393.27 101.38L393.27 101.38M393.27 101.38L392.76 101.78M392.76 101.78L392.76 101.78M392.76 101.78L392.59 101.92M392.59 101.92L392.59 101.92M392.59 101.92L392.42 102.06M392.42 102.06L392.42 102.06M392.42 102.06L392.25 102.2M392.25 102.2L392.25 102.2M392.25 102.2L392.07 102.37M392.07 102.37L392.07 102.37M392.07 102.37L391.88 102.53M391.88 102.53L391.88 102.53M391.88 102.53L391.33 103.04M391.33 103.04L391.33 103.04M391.33 103.04L391.15 103.21M391.15 103.21L391.15 103.21M391.15 103.21L390.98 103.38M390.98 103.38L390.98 103.38M390.98 103.38L390.8 103.56M390.8 103.56L390.8 103.56M390.8 103.56L390.6 103.75M390.6 103.75L390.6 103.75M390.6 103.75L390.41 103.96M390.41 103.96L390.41 103.96M390.41 103.96L389.83 104.57M389.83 104.57L389.83 104.57M389.83 104.57L389.65 104.77M389.65 104.77L389.65 104.77M389.65 104.77L389.46 104.98M389.46 104.98L389.46 104.98M389.46 104.98L389.28 105.19M389.28 105.19L389.28 105.19M389.28 105.19L389.08 105.42M389.08 105.42L389.08 105.42M389.08 105.42L388.89 105.64M388.89 105.64L388.89 105.64M388.89 105.64L388.14 106.55M388.14 106.55L388.14 106.55M388.14 106.55L387.96 106.78M387.96 106.78L387.96 106.78M387.96 106.78L387.78 107.02M387.78 107.02L387.78 107.02M387.78 107.02L387.6 107.25M387.6 107.25L387.6 107.25M387.6 107.25L387.39 107.52M387.39 107.52L387.39 107.52M387.39 107.52L387.19 107.8M387.19 107.8L387.19 107.8M387.19 107.8L386.39 108.91M386.39 108.91L386.39 108.91M386.39 108.91L386.2 109.19M386.2 109.19L386.2 109.19M386.2 109.19L386.01 109.47M386.01 109.47L386.01 109.47M386.01 109.47L385.82 109.76M385.82 109.76L385.82 109.76M385.82 109.76L385.6 110.08M385.6 110.08L385.6 110.08M385.6 110.08L385.38 110.41M385.38 110.41L385.38 110.41M385.38 110.41L384.75 111.41M384.75 111.41L384.75 111.41M384.75 111.41L384.55 111.74M384.55 111.74L384.55 111.74M384.55 111.74L384.34 112.08M384.34 112.08L384.34 112.08M384.34 112.08L384.14 112.42M384.14 112.42L384.14 112.42M384.14 112.42L383.94 112.76M383.94 112.76L383.94 112.76M383.94 112.76L382.97 114.48M382.97 114.48L382.97 114.48M382.97 114.48L382.59 115.18M382.59 115.18L382.59 115.18M382.59 115.18L382.41 115.53M382.41 115.53L382.41 115.53M382.41 115.53L382.22 115.88M382.22 115.88L382.22 115.88M382.22 115.88L382.02 116.27M382.02 116.27L382.02 116.27M382.02 116.27L381.83 116.65M381.83 116.65L381.83 116.65M381.83 116.65L381.05 118.21M381.05 118.21L381.05 118.21M381.05 118.21L380.87 118.61M380.87 118.61L380.87 118.61M380.87 118.61L380.68 119M380.68 119L380.68 119M380.68 119L380.5 119.4M380.5 119.4L380.5 119.4M380.5 119.4L380.3 119.83M380.3 119.83L380.3 119.83M380.3 119.83L379.16 122.43M379.16 122.43L379.16 122.43M379.16 122.43L378.8 123.31M378.8 123.31L378.8 123.31M378.8 123.31L378.62 123.74M378.62 123.74L378.62 123.74M378.62 123.74L378.44 124.18M378.44 124.18L378.44 124.18M378.44 124.18L378.24 124.7M378.24 124.7L378.24 124.7M378.24 124.7L378.04 125.21M378.04 125.21L378.04 125.21M378.04 125.21L377.07 127.8M377.07 127.8L377.07 127.8M377.07 127.8L376.88 128.32M376.88 128.32L376.88 128.32M376.88 128.32L376.69 128.84M376.69 128.84L376.69 128.84M376.69 128.84L376.51 129.36M376.51 129.36L376.51 129.36M376.51 129.36L376.33 129.89M376.33 129.89L376.33 129.89M376.33 129.89L376.15 130.41M376.15 130.41L376.15 130.41M376.15 130.41L375.13 133.58M375.13 133.58L375.13 133.58M375.13 133.58L374.97 134.1M374.97 134.1L374.97 134.1M374.97 134.1L374.81 134.63M374.81 134.63L374.81 134.63M374.81 134.63L374.65 135.17M374.65 135.17L374.65 135.17M374.65 135.17L374.48 135.75M374.48 135.75L374.48 135.75M374.48 135.75L374.31 136.33M374.31 136.33L374.31 136.33M374.31 136.33L373.34 139.84M373.34 139.84L373.34 139.84M373.34 139.84L373.19 140.42M373.19 140.42L373.19 140.42M373.19 140.42L373.04 141.01M373.04 141.01L373.04 141.01M373.04 141.01L372.89 141.6M372.89 141.6L372.89 141.6M372.89 141.6L372.73 142.27M372.73 142.27L372.73 142.27M372.73 142.27L372.56 142.93M372.56 142.93L372.56 142.93M372.56 142.93L371.64 146.95M371.64 146.95L371.64 146.95M371.64 146.95L371.5 147.62M371.5 147.62L371.5 147.62M371.5 147.62L371.35 148.3M371.35 148.3L371.35 148.3M371.35 148.3L371.21 148.97M371.21 148.97L371.21 148.97M371.21 148.97L371.07 149.67M371.07 149.67L371.07 149.67M371.07 149.67L370.93 150.38M370.93 150.38L370.93 150.38M370.93 150.38L370.02 155.33M370.02 155.33L370.02 155.33M370.02 155.33L369.9 156.04M369.9 156.04L369.9 156.04M369.9 156.04L369.78 156.75M369.78 156.75L369.78 156.75M369.78 156.75L369.67 157.46M369.67 157.46L369.67 157.46M369.67 157.46L369.55 158.18M369.55 158.18L369.55 158.18M369.55 158.18L369.44 158.91M369.44 158.91L369.44 158.91M369.44 158.91L368.63 164.71M368.63 164.71L368.63 164.71M368.63 164.71L368.54 165.44M368.54 165.44L368.54 165.44M368.54 165.44L368.45 166.17M368.45 166.17L368.45 166.17M368.45 166.17L368.37 166.9M368.37 166.9L368.37 166.9M368.37 166.9L368.28 167.66M368.28 167.66L368.28 167.66M368.28 167.66L367.96 170.72M367.96 170.72L367.96 170.72M367.96 170.72L367.44 176.83M367.44 176.83L367.44 176.83M367.44 176.83L367.38 177.6M367.38 177.6L367.38 177.6M367.38 177.6L367.33 178.37M367.33 178.37L367.33 178.37M367.33 178.37L367.28 179.13M367.28 179.13L367.28 179.13M367.28 179.13L367.23 179.93M367.23 179.93L367.23 179.93M367.23 179.93L367.1 182.31M367.1 182.31L367.1 182.31M367.1 182.31L366.83 191.07M366.83 191.07L366.83 191.07M366.83 191.07L366.82 191.87M366.82 191.87L366.82 191.87M366.82 191.87L366.81 192.66M366.81 192.66L366.81 192.66M366.81 192.66L366.8 193.46M366.8 193.46L366.8 193.46M366.8 193.46L366.8 194.25M366.8 194.25L366.8 194.25M366.8 194.25L366.88 200.6M366.88 200.6L366.88 200.6M366.88 200.6L367.16 207.73M367.16 207.73L367.16 207.73M367.16 207.73L367.25 209.31M367.25 209.31L367.25 209.31M367.25 209.31L367.29 210.1M367.29 210.1L367.29 210.1M367.29 210.1L367.35 210.89M367.35 210.89L367.35 210.89M367.35 210.89L367.4 211.68M367.4 211.68L367.4 211.68M367.4 211.68L367.78 216.39M367.78 216.39L367.78 216.39M367.78 216.39L368.08 219.53M368.08 219.53L368.08 219.53M368.08 219.53L368.16 220.31M368.16 220.31L368.16 220.31M368.16 220.31L368.25 221.09M368.25 221.09L368.25 221.09M368.25 221.09L368.34 221.88M368.34 221.88L368.34 221.88M368.34 221.88L368.42 222.63M368.42 222.63L368.42 222.63M368.42 222.63L368.9 226.38M368.9 226.38L368.9 226.38M368.9 226.38L369.33 229.38M369.33 229.38L369.33 229.38M369.33 229.38L369.44 230.13M369.44 230.13L369.44 230.13M369.44 230.13L369.56 230.88M369.56 230.88L369.56 230.88M369.56 230.88L369.67 231.63M369.67 231.63L369.67 231.63M369.67 231.63L369.79 232.34M369.79 232.34L369.79 232.34M369.79 232.34L370.15 234.48M370.15 234.48L370.15 234.48M370.15 234.48L370.81 238.03M370.81 238.03L370.81 238.03M370.81 238.03L370.95 238.74M370.95 238.74L370.95 238.74M370.95 238.74L371.09 239.44M371.09 239.44L371.09 239.44M371.09 239.44L371.23 240.15M371.23 240.15L371.23 240.15M371.23 240.15L371.37 240.83M371.37 240.83L371.37 240.83M371.37 240.83L371.52 241.51M371.52 241.51L371.52 241.51M371.52 241.51L372.44 245.57M372.44 245.57L372.44 245.57M372.44 245.57L372.6 246.24M372.6 246.24L372.6 246.24M372.6 246.24L372.76 246.92M372.76 246.92L372.76 246.92M372.76 246.92L372.93 247.59M372.93 247.59L372.93 247.59M372.93 247.59L373.09 248.19M373.09 248.19L373.09 248.19M373.09 248.19L373.56 249.99M373.56 249.99L373.56 249.99M373.56 249.99L374.22 252.38M374.22 252.38L374.22 252.38M374.22 252.38L374.39 252.98M374.39 252.98L374.39 252.98M374.39 252.98L374.56 253.57M374.56 253.57L374.56 253.57M374.56 253.57L374.74 254.17M374.74 254.17L374.74 254.17M374.74 254.17L374.9 254.71M374.9 254.71L374.9 254.71M374.9 254.71L375.4 256.32M375.4 256.32L375.4 256.32M375.4 256.32L376.11 258.47M376.11 258.47L376.11 258.47M376.11 258.47L376.29 259M376.29 259L376.29 259M376.29 259L376.47 259.54M376.47 259.54L376.47 259.54M376.47 259.54L376.65 260.07M376.65 260.07L376.65 260.07M376.65 260.07L376.83 260.59M376.83 260.59L376.83 260.59M376.83 260.59L377.02 261.1M377.02 261.1L377.02 261.1M377.02 261.1L377.97 263.64M377.97 263.64L377.97 263.64M377.97 263.64L378.17 264.15M378.17 264.15L378.17 264.15M378.17 264.15L378.37 264.66M378.37 264.66L378.37 264.66M378.37 264.66L378.57 265.16M378.57 265.16L378.57 265.16M378.57 265.16L378.75 265.61M378.75 265.61L378.75 265.61M378.75 265.61L379.31 266.96M379.31 266.96L379.31 266.96M379.31 266.96L379.89 268.3M379.89 268.3L379.89 268.3M379.89 268.3L380.09 268.74M380.09 268.74L380.09 268.74M380.09 268.74L380.29 269.18M380.29 269.18L380.29 269.18M380.29 269.18L380.49 269.62M380.49 269.62L380.49 269.62M380.49 269.62L380.7 270.06M380.7 270.06L380.7 270.06M380.7 270.06L380.9 270.49M380.9 270.49L380.9 270.49M380.9 270.49L381.74 272.21M381.74 272.21L381.74 272.21M381.74 272.21L381.96 272.64M381.96 272.64L381.96 272.64M381.96 272.64L382.18 273.07M382.18 273.07L382.18 273.07M382.18 273.07L382.4 273.49M382.4 273.49L382.4 273.49M382.4 273.49L382.6 273.86M382.6 273.86L382.6 273.86M382.6 273.86L382.8 274.24M382.8 274.24L382.8 274.24M382.8 274.24L383.62 275.71M383.62 275.71L383.62 275.71M383.62 275.71L383.83 276.07M383.83 276.07L383.83 276.07M383.83 276.07L384.04 276.44M384.04 276.44L384.04 276.44M384.04 276.44L384.25 276.8M384.25 276.8L384.25 276.8M384.25 276.8L384.45 277.12M384.45 277.12L384.45 277.12M384.45 277.12L384.64 277.43M384.64 277.43L384.64 277.43M384.64 277.43L385.43 278.69M385.43 278.69L385.43 278.69M385.43 278.69L385.63 279M385.63 279L385.63 279M385.63 279L385.84 279.3M385.84 279.3L385.84 279.3M385.84 279.3L386.04 279.61M386.04 279.61L386.04 279.61M386.04 279.61L386.23 279.89M386.23 279.89L386.23 279.89M386.23 279.89L386.81 280.71M386.81 280.71L386.81 280.71M386.81 280.71L387.21 281.26M387.21 281.26L387.21 281.26M387.21 281.26L387.41 281.53M387.41 281.53L387.41 281.53M387.41 281.53L387.61 281.8M387.61 281.8L387.61 281.8M387.61 281.8L387.82 282.06M387.82 282.06L387.82 282.06M387.82 282.06L388.02 282.32M388.02 282.32L388.02 282.32M388.02 282.32L388.22 282.57M388.22 282.57L388.22 282.57M388.22 282.57L388.83 283.32M388.83 283.32L388.83 283.32M388.83 283.32L389.04 283.56M389.04 283.56L389.04 283.56M389.04 283.56L389.25 283.81M389.25 283.81L389.25 283.81M389.25 283.81L389.46 284.05M389.46 284.05L389.46 284.05M389.46 284.05L389.66 284.27M389.66 284.27L389.66 284.27M389.66 284.27L389.85 284.48M389.85 284.48L389.85 284.48M389.85 284.48L390.45 285.12M390.45 285.12L390.45 285.12M390.45 285.12L390.65 285.32M390.65 285.32L390.65 285.32M390.65 285.32L390.86 285.53M390.86 285.53L390.86 285.53M390.86 285.53L391.07 285.73M391.07 285.73L391.07 285.73M391.07 285.73L391.25 285.91M391.25 285.91L391.25 285.91M391.25 285.91L391.44 286.09M391.44 286.09L391.44 286.09M391.44 286.09L392.01 286.61M392.01 286.61L392.01 286.61M392.01 286.61L392.2 286.78M392.2 286.78L392.2 286.78M392.2 286.78L392.4 286.95M392.4 286.95L392.4 286.95M392.4 286.95L392.59 287.11M392.59 287.11L392.59 287.11M392.59 287.11L392.77 287.25M392.77 287.25L392.77 287.25M392.77 287.25L392.94 287.4M392.94 287.4L392.94 287.4M392.94 287.4L393.48 287.81M393.48 287.81L393.48 287.81M393.48 287.81L393.66 287.94M393.66 287.94L393.66 287.94M393.66 287.94L393.84 288.07M393.84 288.07L393.84 288.07M393.84 288.07L394.02 288.2M394.02 288.2L394.02 288.2M394.02 288.2L394.19 288.31M394.19 288.31L394.19 288.31M394.19 288.31L394.35 288.42M394.35 288.42L394.35 288.42M394.35 288.42L394.84 288.73M394.84 288.73L394.84 288.73M394.84 288.73L395.01 288.83M395.01 288.83L395.01 288.83M395.01 288.83L395.18 288.93M395.18 288.93L395.18 288.93M395.18 288.93L395.35 289.03M395.35 289.03L395.35 289.03M395.35 289.03L395.5 289.11M395.5 289.11L395.5 289.11M395.5 289.11L395.66 289.19M395.66 289.19L395.66 289.19M395.66 289.19L396.14 289.43M396.14 289.43L396.14 289.43M396.14 289.43L396.3 289.5M396.3 289.5L396.3 289.5M396.3 289.5L396.46 289.58M396.46 289.58L396.46 289.58M396.46 289.58L396.62 289.65M396.62 289.65L396.62 289.65M396.62 289.65L396.76 289.71M396.76 289.71L396.76 289.71M396.76 289.71L396.91 289.76M396.91 289.76L396.91 289.76M396.91 289.76L397.35 289.92M397.35 289.92L397.35 289.92M397.35 289.92L397.5 289.97M397.5 289.97L397.5 289.97M397.5 289.97L397.65 290.02M397.65 290.02L397.65 290.02M397.65 290.02L397.8 290.06M397.8 290.06L397.8 290.06M397.8 290.06L397.94 290.1M397.94 290.1L397.94 290.1M397.94 290.1L398.08 290.14M398.08 290.14L398.08 290.14M398.08 290.14L398.92 290.3M398.92 290.3L398.92 290.3M398.92 290.3L400.05 290.38M400.05 290.38L401.18 290.29"
fill="none" stroke="black" stroke-width="0.5"/>
<path d="M402.53 86.74L400.67 86.59M400.67 86.59L398.79 86.62M398.79 86.62L396.93 86.82M396.93 86.82L396.93 86.82M396.93 86.82L394.63 87.32M394.63 87.32L394.63 87.32M394.63 87.32L394.18 87.45M394.18 87.45L394.18 87.45M394.18 87.45L393.72 87.59M393.72 87.59L393.72 87.59M393.72 87.59L392.16 88.17M392.16 88.17L392.16 88.17M392.16 88.17L391.72 88.35M391.72 88.35L391.72 88.35M391.72 88.35L391.27 88.55M391.27 88.55L391.27 88.55M391.27 88.55L389.71 89.33M389.71 89.33L389.71 89.33M389.71 89.33L389.27 89.57M389.27 89.57L389.27 89.57M389.27 89.57L389.06 89.7M389.06 89.7L389.06 89.7M389.06 89.7L387.32 90.79M387.32 90.79L387.32 90.79M387.32 90.79L387.11 90.94M387.11 90.94L387.11 90.94M387.11 90.94L386.65 91.26M386.65 91.26L386.65 91.26M386.65 91.26L385.45 92.17M385.45 92.17L385.45 92.17M385.45 92.17L384.99 92.54M384.99 92.54L384.99 92.54M384.99 92.54L384.51 92.94M384.51 92.94L384.51 92.94M384.51 92.94L383.33 93.99M383.33 93.99L383.33 93.99M383.33 93.99L382.87 94.43M382.87 94.43L382.87 94.43M382.87 94.43L382.4 94.88M382.4 94.88L382.4 94.88M382.4 94.88L381.24 96.08M381.24 96.08L381.24 96.08M381.24 96.08L380.79 96.58M380.79 96.58L380.79 96.58M380.79 96.58L380.34 97.08M380.34 97.08L380.34 97.08M380.34 97.08L379.03 98.63M379.03 98.63L379.03 98.63M379.03 98.63L378.61 99.15M378.61 99.15L378.61 99.15M378.61 99.15L378.16 99.72M378.16 99.72L378.16 99.72M378.16 99.72L376.81 101.55M376.81 101.55L376.81 101.55M376.81 101.55L376.38 102.17M376.38 102.17L376.38 102.17M376.38 102.17L375.94 102.82M375.94 102.82L375.94 102.82M375.94 102.82L374.63 104.84M374.63 104.84L374.63 104.84M374.63 104.84L374.21 105.52M374.21 105.52L374.21 105.52M374.21 105.52L374 105.86M374 105.86L374 105.86M374 105.86L373.76 106.27M373.76 106.27L373.76 106.27M373.76 106.27L372.36 108.72M372.36 108.72L372.36 108.72M372.36 108.72L372.14 109.13M372.14 109.13L372.14 109.13M372.14 109.13L371.68 109.99M371.68 109.99L371.68 109.99M371.68 109.99L370.34 112.64M370.34 112.64L370.34 112.64M370.34 112.64L369.91 113.54M369.91 113.54L369.91 113.54M369.91 113.54L369.7 113.99M369.7 113.99L369.7 113.99M369.7 113.99L369.05 115.41M369.05 115.41L369.05 115.41M369.05 115.41L368.01 117.8M368.01 117.8L368.01 117.8M368.01 117.8L367.81 118.28M367.81 118.28L367.81 118.28M367.81 118.28L367.41 119.26M367.41 119.26L367.41 119.26M367.41 119.26L366.03 122.83M366.03 122.83L366.03 122.83M366.03 122.83L365.66 123.85M365.66 123.85L365.66 123.85M365.66 123.85L365.28 124.93M365.28 124.93L365.28 124.93M365.28 124.93L363.96 128.88M363.96 128.88L363.96 128.88M363.96 128.88L363.6 130.01M363.6 130.01L363.6 130.01M363.6 130.01L363.24 131.2M363.24 131.2L363.24 131.2M363.24 131.2L362 135.53M362 135.53L362 135.53M362 135.53L361.67 136.77M361.67 136.77L361.67 136.77M361.67 136.77L361.35 138.03M361.35 138.03L361.35 138.03M361.35 138.03L360.12 143.15M360.12 143.15L360.12 143.15M360.12 143.15L359.84 144.43M359.84 144.43L359.84 144.43M359.84 144.43L359.54 145.81M359.54 145.81L359.54 145.81M359.54 145.81L358.4 151.69M358.4 151.69L358.4 151.69M358.4 151.69L358.14 153.17M358.14 153.17L358.14 153.17M358.14 153.17L357.89 154.64M357.89 154.64L357.89 154.64M357.89 154.64L356.81 161.95M356.81 161.95L356.81 161.95M356.81 161.95L356.63 163.42M356.63 163.42L356.63 163.42M356.63 163.42L356.44 164.96M356.44 164.96L356.44 164.96M356.44 164.96L355.56 173.87M355.56 173.87L355.56 173.87M355.56 173.87L355.43 175.49M355.43 175.49L355.43 175.49M355.43 175.49L355.37 176.3M355.37 176.3L355.37 176.3M355.37 176.3L354.99 182.96M354.99 182.96L354.78 189.64M354.78 189.64L354.78 189.64M354.78 189.64L354.76 190.47M354.76 190.47L354.76 190.47M354.76 190.47L354.75 191.31M354.75 191.31L354.75 191.31M354.75 191.31L354.74 192.14M354.74 192.14L354.74 192.14M354.74 192.14L354.74 192.99M354.74 192.99L354.74 192.99M354.74 192.99L354.74 196.36M354.74 196.36L354.74 196.36M354.74 196.36L355.01 206.49M355.01 206.49L355.01 206.49M355.01 206.49L355.09 208.18M355.09 208.18L355.09 208.18M355.09 208.18L355.14 209.02M355.14 209.02L355.14 209.02M355.14 209.02L355.18 209.8M355.18 209.8L355.18 209.8M355.18 209.8L355.53 214.85M355.53 214.85L355.99 219.89M355.99 219.89L355.99 219.89M355.99 219.89L356.15 221.44M356.15 221.44L356.15 221.44M356.15 221.44L356.23 222.2M356.23 222.2L356.23 222.2M356.23 222.2L357.29 230.52M357.29 230.52L357.29 230.52M357.29 230.52L357.4 231.28M357.4 231.28L357.4 231.28M357.4 231.28L357.63 232.74M357.63 232.74L357.63 232.74M357.63 232.74L358.73 239.12M358.73 239.12L358.73 239.12M358.73 239.12L359 240.53M359 240.53L359 240.53M359 240.53L359.27 241.91M359.27 241.91L359.27 241.91M359.27 241.91L360.44 247.29M360.44 247.29L360.44 247.29M360.44 247.29L360.76 248.63M360.76 248.63L360.76 248.63M360.76 248.63L361.08 249.96M361.08 249.96L361.08 249.96M361.08 249.96L362.29 254.54M362.29 254.54L362.29 254.54M362.29 254.54L362.66 255.84M362.66 255.84L362.66 255.84M362.66 255.84L363.02 257.09M363.02 257.09L363.02 257.09M363.02 257.09L364.32 261.29M364.32 261.29L364.32 261.29M364.32 261.29L364.72 262.48M364.72 262.48L364.72 262.48M364.72 262.48L365.1 263.6M365.1 263.6L365.1 263.6M365.1 263.6L366.42 267.23M366.42 267.23L366.42 267.23M366.42 267.23L366.81 268.26M366.81 268.26L366.81 268.26M366.81 268.26L367.22 269.29M367.22 269.29L367.22 269.29M367.22 269.29L368.5 272.36M368.5 272.36L368.5 272.36M368.5 272.36L368.94 273.38M368.94 273.38L368.94 273.38M368.94 273.38L369.38 274.34M369.38 274.34L369.38 274.34M369.38 274.34L370.67 277.06M370.67 277.06L370.67 277.06M370.67 277.06L371.12 277.96M371.12 277.96L371.12 277.96M371.12 277.96L371.56 278.8M371.56 278.8L371.56 278.8M371.56 278.8L372.85 281.19M372.85 281.19L372.85 281.19M372.85 281.19L373.3 281.98M373.3 281.98L373.3 281.98M373.3 281.98L373.73 282.72M373.73 282.72L373.73 282.72M373.73 282.72L375.01 284.8M375.01 284.8L375.01 284.8M375.01 284.8L375.45 285.48M375.45 285.48L375.45 285.48M375.45 285.48L375.67 285.82M375.67 285.82L375.67 285.82M375.67 285.82L375.89 286.14M375.89 286.14L375.89 286.14M375.89 286.14L377.21 288.03M377.21 288.03L377.21 288.03M377.21 288.03L377.66 288.65M377.66 288.65L377.66 288.65M377.66 288.65L378.13 289.26M378.13 289.26L378.13 289.26M378.13 289.26L379.31 290.75M379.31 290.75L379.31 290.75M379.31 290.75L379.8 291.33M379.8 291.33L379.8 291.33M379.8 291.33L380.26 291.86M380.26 291.86L380.26 291.86M380.26 291.86L381.57 293.3M381.57 293.3L381.57 293.3M381.57 293.3L382.02 293.76M382.02 293.76L382.02 293.76M382.02 293.76L382.47 294.21M382.47 294.21L382.47 294.21M382.47 294.21L383.8 295.46M383.8 295.46L383.8 295.46M383.8 295.46L384.26 295.87M384.26 295.87L384.26 295.87M384.26 295.87L384.71 296.25M384.71 296.25L384.71 296.25M384.71 296.25L386.06 297.33M386.06 297.33L386.06 297.33M386.06 297.33L386.53 297.68M386.53 297.68L386.53 297.68M386.53 297.68L386.98 298.01M386.98 298.01L386.98 298.01M386.98 298.01L388.35 298.91M388.35 298.91L388.35 298.91M388.35 298.91L388.82 299.19M388.82 299.19L388.82 299.19M388.82 299.19L389.27 299.46M389.27 299.46L389.27 299.46M389.27 299.46L390.82 300.27M390.82 300.27L390.82 300.27M390.82 300.27L391.27 300.48M391.27 300.48L391.27 300.48M391.27 300.48L391.71 300.68M391.71 300.68L391.71 300.68M391.71 300.68L393.43 301.34M393.43 301.34L393.43 301.34M393.43 301.34L393.87 301.48M393.87 301.48L393.87 301.48M393.87 301.48L394.31 301.62M394.31 301.62L394.31 301.62M394.31 301.62L395.74 301.98M395.74 301.98L397.2 302.25M397.2 302.25L397.2 302.25M397.2 302.25L399.15 302.43M399.15 302.43L401.12 302.42M401.12 302.42L403.07 302.21M403.07 302.21L403.07 302.21M403.07 302.21L405.37 301.71M405.37 301.71L405.37 301.71M405.37 301.71L405.82 301.58M405.82 301.58L405.82 301.58M405.82 301.58L406.28 301.44M406.28 301.44L406.28 301.44M406.28 301.44L407.84 300.86M407.84 300.86L407.84 300.86M407.84 300.86L408.28 300.68M408.28 300.68L408.28 300.68M408.28 300.68L408.73 300.48M408.73 300.48L408.73 300.48M408.73 300.48L410.29 299.7M410.29 299.7L410.29 299.7M410.29 299.7L410.73 299.46M410.73 299.46L410.73 299.46M410.73 299.46L410.94 299.33M410.94 299.33L410.94 299.33M410.94 299.33L412.68 298.24M412.68 298.24L412.68 298.24M412.68 298.24L412.89 298.09M412.89 298.09L412.89 298.09M412.89 298.09L413.35 297.77M413.35 297.77L413.35 297.77M413.35 297.77L414.55 296.86M414.55 296.86L414.55 296.86M414.55 296.86L415.01 296.48M415.01 296.48L415.01 296.48M415.01 296.48L415.49 296.09M415.49 296.09L415.49 296.09M415.49 296.09L416.67 295.03M416.67 295.03L416.67 295.03M416.67 295.03L417.13 294.6M417.13 294.6L417.13 294.6M417.13 294.6L417.6 294.14M417.6 294.14L417.6 294.14M417.6 294.14L418.76 292.94M418.76 292.94L418.76 292.94M418.76 292.94L419.21 292.45M419.21 292.45L419.21 292.45M419.21 292.45L419.66 291.95M419.66 291.95L419.66 291.95M419.66 291.95L420.97 290.4M420.97 290.4L420.97 290.4M420.97 290.4L421.39 289.88M421.39 289.88L421.39 289.88M421.39 289.88L421.84 289.31M421.84 289.31L421.84 289.31M421.84 289.31L423.19 287.48M423.19 287.48L423.19 287.48M423.19 287.48L423.62 286.86M423.62 286.86L423.62 286.86M423.62 286.86L424.06 286.21M424.06 286.21L424.06 286.21M424.06 286.21L425.37 284.19M425.37 284.19L425.37 284.19M425.37 284.19L425.79 283.51M425.79 283.51L425.79 283.51M425.79 283.51L426 283.16M426 283.16L426 283.16M426 283.16L426.24 282.76M426.24 282.76L426.24 282.76M426.24 282.76L427.64 280.31M427.64 280.31L427.64 280.31M427.64 280.31L427.86 279.89M427.86 279.89L427.86 279.89M427.86 279.89L428.32 279.04M428.32 279.04L428.32 279.04M428.32 279.04L429.66 276.39M429.66 276.39L429.66 276.39M429.66 276.39L430.09 275.49M430.09 275.49L430.09 275.49M430.09 275.49L430.3 275.04M430.3 275.04L430.3 275.04M430.3 275.04L430.95 273.62M430.95 273.62L430.95 273.62M430.95 273.62L431.99 271.23M431.99 271.23L431.99 271.23M431.99 271.23L432.19 270.75M432.19 270.75L432.19 270.75M432.19 270.75L432.59 269.76M432.59 269.76L432.59 269.76M432.59 269.76L433.97 266.2M433.97 266.2L433.97 266.2M433.97 266.2L434.34 265.18M434.34 265.18L434.34 265.18M434.34 265.18L434.72 264.1M434.72 264.1L434.72 264.1M434.72 264.1L436.04 260.15M436.04 260.15L436.04 260.15M436.04 260.15L436.4 259.02M436.4 259.02L436.4 259.02M436.4 259.02L436.76 257.83M436.76 257.83L436.76 257.83M436.76 257.83L438 253.5M438 253.5L438 253.5M438 253.5L438.33 252.26M438.33 252.26L438.33 252.26M438.33 252.26L438.65 251M438.65 251L438.65 251M438.65 251L439.88 245.88M439.88 245.88L439.88 245.88M439.88 245.88L440.16 244.6M440.16 244.6L440.16 244.6M440.16 244.6L440.46 243.22M440.46 243.22L440.46 243.22M440.46 243.22L441.6 237.34M441.6 237.34L441.6 237.34M441.6 237.34L441.86 235.86M441.86 235.86L441.86 235.86M441.86 235.86L442.11 234.39M442.11 234.39L442.11 234.39M442.11 234.39L443.19 227.08M443.19 227.08L443.19 227.08M443.19 227.08L443.37 225.61M443.37 225.61L443.37 225.61M443.37 225.61L443.56 224.07M443.56 224.07L443.56 224.07M443.56 224.07L444.44 215.16M444.44 215.16L444.44 215.16M444.44 215.16L444.57 213.54M444.57 213.54L444.57 213.54M444.57 213.54L444.63 212.73M444.63 212.73L444.63 212.73M444.63 212.73L445.01 206.06M445.01 206.06L445.22 199.39M445.22 199.39L445.22 199.39M445.22 199.39L445.24 198.56M445.24 198.56L445.24 198.56M445.24 198.56L445.25 197.72M445.25 197.72L445.25 197.72M445.25 197.72L445.26 196.89M445.26 196.89L445.26 196.89M445.26 196.89L445.26 196.29M445.26 196.29L445.26 196.29M445.26 196.29L445.27 194.48M445.27 194.48L445.27 194.48M445.27 194.48L445.17 187.45M445.17 187.45L444.89 180.43M444.89 180.43L444.89 180.43M444.89 180.43L444.79 178.77M444.79 178.77L444.79 178.77M444.79 178.77L444.74 177.99M444.74 177.99L444.74 177.99M444.74 177.99L444.37 172.94M444.37 172.94L443.89 167.89M443.89 167.89L443.89 167.89M443.89 167.89L443.72 166.34M443.72 166.34L443.72 166.34M443.72 166.34L443.63 165.58M443.63 165.58L443.63 165.58M443.63 165.58L442.64 158.02M442.64 158.02L442.64 158.02M442.64 158.02L442.41 156.51M442.41 156.51L442.41 156.51M442.41 156.51L442.17 155.05M442.17 155.05L442.17 155.05M442.17 155.05L441.04 148.69M441.04 148.69L441.04 148.69M441.04 148.69L440.76 147.28M440.76 147.28L440.76 147.28M440.76 147.28L440.47 145.87M440.47 145.87L440.47 145.87M440.47 145.87L439.37 140.95M439.37 140.95L439.37 140.95M439.37 140.95L439.03 139.55M439.03 139.55L439.03 139.55M439.03 139.55L438.7 138.2M438.7 138.2L438.7 138.2M438.7 138.2L437.47 133.64M437.47 133.64L437.47 133.64M437.47 133.64L437.1 132.34M437.1 132.34L437.1 132.34M437.1 132.34L436.74 131.12M436.74 131.12L436.74 131.12M436.74 131.12L435.47 127.12M435.47 127.12L435.47 127.12M435.47 127.12L435.09 125.99M435.09 125.99L435.09 125.99M435.09 125.99L434.72 124.9M434.72 124.9L434.72 124.9M434.72 124.9L433.39 121.29M433.39 121.29L433.39 121.29M433.39 121.29L432.99 120.26M432.99 120.26L432.99 120.26M432.99 120.26L432.58 119.24M432.58 119.24L432.58 119.24M432.58 119.24L431.3 116.19M431.3 116.19L431.3 116.19M431.3 116.19L430.85 115.18M430.85 115.18L430.85 115.18M430.85 115.18L430.41 114.23M430.41 114.23L430.41 114.23M430.41 114.23L429.11 111.53M429.11 111.53L429.11 111.53M429.11 111.53L428.66 110.64M428.66 110.64L428.66 110.64M428.66 110.64L428.22 109.79M428.22 109.79L428.22 109.79M428.22 109.79L426.92 107.43M426.92 107.43L426.92 107.43M426.92 107.43L426.47 106.65M426.47 106.65L426.47 106.65M426.47 106.65L426.03 105.91M426.03 105.91L426.03 105.91M426.03 105.91L424.75 103.85M424.75 103.85L424.75 103.85M424.75 103.85L424.31 103.18M424.31 103.18L424.31 103.18M424.31 103.18L424.08 102.84M424.08 102.84L424.08 102.84M424.08 102.84L423.87 102.53M423.87 102.53L423.87 102.53M423.87 102.53L422.54 100.66M422.54 100.66L422.54 100.66M422.54 100.66L422.09 100.05M422.09 100.05L422.09 100.05M422.09 100.05L421.65 99.48M421.65 99.48L421.65 99.48M421.65 99.48L420.36 97.89M420.36 97.89L420.36 97.89M420.36 97.89L419.92 97.37M419.92 97.37L419.92 97.37M419.92 97.37L419.48 96.87M419.48 96.87L419.48 96.87M419.48 96.87L418.17 95.46M418.17 95.46L418.17 95.46M418.17 95.46L417.72 95M417.72 95L417.72 95M417.72 95L417.27 94.57M417.27 94.57L417.27 94.57M417.27 94.57L415.93 93.33M415.93 93.33L415.93 93.33M415.93 93.33L415.48 92.93M415.48 92.93L415.48 92.93M415.48 92.93L415.02 92.55M415.02 92.55L415.02 92.55M415.02 92.55L413.67 91.49M413.67 91.49L413.67 91.49M413.67 91.49L413.2 91.16M413.2 91.16L413.2 91.16M413.2 91.16L412.75 90.84M412.75 90.84L412.75 90.84M412.75 90.84L411.38 89.95M411.38 89.95L411.38 89.95M411.38 89.95L410.91 89.68M410.91 89.68L410.91 89.68M410.91 89.68L410.46 89.42M410.46 89.42L410.46 89.42M410.46 89.42L408.91 88.63M408.91 88.63L408.91 88.63M408.91 88.63L408.45 88.43M408.45 88.43L408.45 88.43M408.45 88.43L408.01 88.24M408.01 88.24L408.01 88.24M408.01 88.24L406.3 87.6M406.3 87.6L406.3 87.6M406.3 87.6L405.86 87.46M405.86 87.46L405.86 87.46M405.86 87.46L405.42 87.33M405.42 87.33L405.42 87.33M405.42 87.33L403.99 86.99M403.99 86.99L402.53 86.74"
fill="none" stroke="black" stroke-width="0.5"/>
<path d="M372.27 44.11L366.65 47.74M366.65 47.74L360.84 51.06M360.84 51.06L354.85 54.03M354.85 54.03L348.7 56.67M348.7 56.67L342.41 58.95M342.41 58.95L342.41 330.13M342.41 330.13L342.41 330.13M342.41 330.13L348.57 332.39M348.57 332.39L354.6 334.99M354.6 334.99L360.47 337.92M360.47 337.92L366.17 341.17M366.17 341.17L371.68 344.74M371.68 344.74L371.68 344.74M371.68 344.74L375.33 347.02M375.33 347.02L379.15 348.98M379.15 348.98L383.14 350.6M383.14 350.6L387.24 351.88M387.24 351.88L391.44 352.8M391.44 352.8L395.71 353.35M395.71 353.35L400 353.53M400 353.53L404.3 353.35M404.3 353.35L408.56 352.8M408.56 352.8L412.76 351.88M412.76 351.88L416.87 350.6M416.87 350.6L420.85 348.98M420.85 348.98L424.68 347.02M424.68 347.02L428.32 344.74M428.32 344.74L428.32 344.74M428.32 344.74L433.83 341.17M433.83 341.17L439.53 337.92M439.53 337.92L445.4 334.99M445.4 334.99L451.43 332.39M451.43 332.39L457.59 330.13M457.59 330.13L457.59 58.95M457.59 58.95L457.59 58.95M457.59 58.95L451.3 56.67M451.3 56.67L445.15 54.03M445.15 54.03L439.16 51.06M439.16 51.06L433.35 47.74M433.35 47.74L427.73 44.11M427.73 44.11L427.73 44.11M427.73 44.11L424.16 41.87M424.16 41.87L420.41 39.95M420.41 39.95L416.52 38.36M416.52 38.36L412.5 37.12M412.5 37.12L408.38 36.22M408.38 36.22L404.21 35.67M404.21 35.67L400 35.49M400 35.49L395.79 35.68M395.79 35.68L391.62 36.22M391.62 36.22L387.5 37.12M387.5 37.12L383.48 38.37M383.48 38.37L379.58 39.96M379.58 39.96L375.84 41.87M375.84 41.87L372.27 44.11"
fill="none" stroke="black" stroke-width="0.5"/>
<path d="M426.75 45.53L423.31 43.37M423.31 43.37L419.7 41.52M419.7 41.52L415.93 39.99M415.93 39.99L412.05 38.78M412.05 38.78L408.09 37.92M408.09 37.92L404.06 37.39M404.06 37.39L400 37.22M400 37.22L395.94 37.39M395.94 37.39L391.91 37.92M391.91 37.92L387.94 38.78M387.94 38.78L384.06 39.99M384.06 39.99L380.3 41.52M380.3 41.52L376.69 43.37M376.69 43.37L373.24 45.53M373.24 45.53L373.24 45.53M373.24 45.53L367.76 49.09M367.76 49.09L362.09 52.34M362.09 52.34L356.25 55.28M356.25 55.28L350.26 57.9M350.26 57.9L344.13 60.19M344.13 60.19L344.13 328.9M344.13 328.9L344.13 328.9M344.13 328.9L350.13 331.16M350.13 331.16L356 333.74M356 333.74L361.72 336.63M361.72 336.63L367.28 339.83M367.28 339.83L372.66 343.32M372.66 343.32L372.66 343.32M372.66 343.32L376.18 345.52M376.18 345.52L379.87 347.41M379.87 347.41L383.72 348.98M383.72 348.98L387.68 350.21M387.68 350.21L391.74 351.1M391.74 351.1L395.85 351.63M395.85 351.63L400 351.81M400 351.81L404.15 351.63M404.15 351.63L408.27 351.1M408.27 351.1L412.32 350.21M412.32 350.21L416.29 348.98M416.29 348.98L420.13 347.41M420.13 347.41L423.82 345.52M423.82 345.52L427.34 343.32M427.34 343.32L427.34 343.32M427.34 343.32L432.72 339.83M432.72 339.83L438.28 336.63M438.28 336.63L444 333.74M444 333.74L449.87 331.16M449.87 331.16L455.87 328.9M455.87 328.9L455.87 60.19M455.87 60.19L455.87 60.19M455.87 60.19L449.74 57.9M449.74 57.9L443.75 55.28M443.75 55.28L437.91 52.34M437.91 52.34L432.24 49.09M432.24 49.09L426.75 45.53"
fill="none" stroke="black" stroke-width="0.5"/>
<path d="M455.18 60.68L449.12 58.39M449.12 58.39L443.19 55.78M443.19 55.78L437.41 52.86M437.41 52.86L431.8 49.62M431.8 49.62L426.36 46.1M426.36 46.1L426.36 46.1M426.36 46.1L422.7 43.82M422.7 43.82L418.85 41.9M418.85 41.9L414.83 40.33M414.83 40.33L410.68 39.15M410.68 39.15L406.45 38.36M406.45 38.36L402.15 37.96M402.15 37.96L397.84 37.96M397.84 37.96L393.55 38.36M393.55 38.36L389.32 39.15M389.32 39.15L385.17 40.33M385.17 40.33L381.15 41.9M381.15 41.9L377.3 43.82M377.3 43.82L373.64 46.1M373.64 46.1L373.64 46.1M373.64 46.1L368.2 49.63M368.2 49.63L362.59 52.86M362.59 52.86L356.81 55.78M356.81 55.78L350.88 58.39M350.88 58.39L344.82 60.68M344.82 60.68L344.82 328.41M344.82 328.41L344.82 328.41M344.82 328.41L350.76 330.67M350.76 330.67L356.56 333.24M356.56 333.24L362.22 336.12M362.22 336.12L367.72 339.29M367.72 339.29L373.05 342.75M373.05 342.75L373.05 342.75M373.05 342.75L376.52 344.92M376.52 344.92L380.16 346.79M380.16 346.79L383.95 348.33M383.95 348.33L387.86 349.54M387.86 349.54L391.86 350.42M391.86 350.42L395.91 350.94M395.91 350.94L400 351.12M400 351.12L404.09 350.94M404.09 350.94L408.15 350.42M408.15 350.42L412.14 349.54M412.14 349.54L416.05 348.33M416.05 348.33L419.84 346.79M419.84 346.79L423.48 344.92M423.48 344.92L426.95 342.75M426.95 342.75L426.95 342.75M426.95 342.75L432.28 339.29M432.28 339.29L437.78 336.12M437.78 336.12L443.44 333.24M443.44 333.24L449.24 330.67M449.24 330.67L455.18 328.41M455.18 328.41L455.18 60.68"
fill="none" stroke="black" stroke-width="0.5"/>
<path d="M487.71 33.3L482.08 32.65M482.08 32.65L476.51 31.63M476.51 31.63L471.02 30.26M471.02 30.26L465.63 28.53M465.63 28.53L460.36 26.46M460.36 26.46L455.24 24.05M455.24 24.05L450.28 21.31M450.28 21.31L445.52 18.25M445.52 18.25L445.52 18.25M445.52 18.25L440.99 15.36M440.99 15.36L436.28 12.77M436.28 12.77L431.4 10.5M431.4 10.5L426.39 8.57M426.39 8.57L421.25 6.97M421.25 6.97L416.02 5.73M416.02 5.73L410.72 4.83M410.72 4.83L405.37 4.29M405.37 4.29L400 4.11M400 4.11L394.63 4.29M394.63 4.29L389.28 4.83M389.28 4.83L383.98 5.73M383.98 5.73L378.75 6.97M378.75 6.97L373.62 8.57M373.62 8.57L368.6 10.5M368.6 10.5L363.73 12.77M363.73 12.77L359.01 15.36M359.01 15.36L354.48 18.25M354.48 18.25L354.48 18.25M354.48 18.25L349.72 21.31M349.72 21.31L344.76 24.05M344.76 24.05L339.64 26.46M339.64 26.46L334.37 28.53M334.37 28.53L328.98 30.26M328.98 30.26L323.49 31.63M323.49 31.63L317.92 32.65M317.92 32.65L312.29 33.3M312.29 33.3L312.29 33.3M312.29 33.3L311.65 33.52M311.65 33.52L311.19 34.02M311.19 34.02L311.03 34.67M311.03 34.67L311.03 594.51M311.03 594.51L311.03 594.51M311.03 594.51L311.21 595.2M311.21 595.2L311.72 595.7M311.72 595.7L312.41 595.89M312.41 595.89L487.59 595.89M487.59 595.89L487.59 595.89M487.59 595.89L488.28 595.7M488.28 595.7L488.79 595.2M488.79 595.2L488.97 594.51M488.97 594.51L488.97 34.67M488.97 34.67L488.97 34.67M488.97 34.67L488.81 34.02M488.81 34.02L488.35 33.52M488.35 33.52L487.71 33.3"
fill="none" stroke="black" stroke-width="0.5"/>
<path d="M354.09 17.68L349.36 20.72M349.36 20.72L344.45 23.43M344.45 23.43L339.37 25.83M339.37 25.83L334.14 27.88M334.14 27.88L328.79 29.6M328.79 29.6L323.34 30.96M323.34 30.96L317.82 31.97M317.82 31.97L312.24 32.61M312.24 32.61L312.24 32.61M312.24 32.61L311.5 32.81M311.5 32.81L310.88 33.27M310.88 33.27L310.48 33.92M310.48 33.92L310.34 34.67M310.34 34.67L310.34 594.51M310.34 594.51L310.34 594.51M310.34 594.51L310.49 595.3M310.49 595.3L310.94 595.97M310.94 595.97L311.61 596.42M311.61 596.42L312.41 596.58M312.41 596.58L487.59 596.58M487.59 596.58L487.59 596.58M487.59 596.58L488.39 596.42M488.39 596.42L489.06 595.97M489.06 595.97L489.51 595.3M489.51 595.3L489.66 594.51M489.66 594.51L489.66 34.67M489.66 34.67L489.66 34.67M489.66 34.67L489.52 33.92M489.52 33.92L489.12 33.27M489.12 33.27L488.5 32.81M488.5 32.81L487.76 32.61M487.76 32.61L487.76 32.61M487.76 32.61L482.18 31.97M482.18 31.97L476.66 30.96M476.66 30.96L471.21 29.6M471.21 29.6L465.86 27.88M465.86 27.88L460.63 25.83M460.63 25.83L455.55 23.43M455.55 23.43L450.64 20.72M450.64 20.72L445.91 17.68M445.91 17.68L445.91 17.68M445.91 17.68L441.34 14.76M441.34 14.76L436.59 12.15M436.59 12.15L431.67 9.87M431.67 9.87L426.61 7.92M426.61 7.92L421.43 6.31M421.43 6.31L416.16 5.05M416.16 5.05L410.81 4.15M410.81 4.15L405.42 3.6M405.42 3.6L400 3.42M400 3.42L394.58 3.6M394.58 3.6L389.19 4.15M389.19 4.15L383.84 5.05M383.84 5.05L378.57 6.31M378.57 6.31L373.39 7.92M373.39 7.92L368.33 9.87M368.33 9.87L363.41 12.15M363.41 12.15L358.66 14.76M358.66 14.76L354.09 17.68"
fill="none" stroke="black" stroke-width="0.5"/>
<path d="M330.83 404.12L327.8 402.21M327.8 402.21L324.62 400.54M324.62 400.54L321.32 399.12M321.32 399.12L317.92 397.97M317.92 397.97L317.92 588.99M317.92 588.99L482.08 588.99M482.08 588.99L482.08 397.97M482.08 397.97L482.08 397.97M482.08 397.97L478.68 399.12M478.68 399.12L475.38 400.53M475.38 400.53L472.2 402.2M472.2 402.2L469.17 404.12M469.17 404.12L469.17 404.12M469.17 404.12L463.56 407.76M463.56 407.76L457.76 411.08M457.76 411.08L451.79 414.08M451.79 414.08L445.66 416.75M445.66 416.75L439.39 419.08M439.39 419.08L433.01 421.06M433.01 421.06L426.53 422.69M426.53 422.69L419.97 423.97M419.97 423.97L413.35 424.88M413.35 424.88L406.68 425.43M406.68 425.43L400 425.61M400 425.61L393.32 425.43M393.32 425.43L386.66 424.88M386.66 424.88L380.04 423.97M380.04 423.97L373.48 422.69M373.48 422.69L366.99 421.06M366.99 421.06L360.61 419.08M360.61 419.08L354.35 416.75M354.35 416.75L348.22 414.08M348.22 414.08L342.24 411.08M342.24 411.08L336.44 407.76M336.44 407.76L330.84 404.12"
fill="none" stroke="black" stroke-width="0.5"/>
<path d="M472.76 412.93L466.83 416.65M466.83 416.65L460.7 420.06M460.7 420.06L454.4 423.13M454.4 423.13L447.94 425.86M447.94 425.86L441.35 428.24M441.35 428.24L434.64 430.27M434.64 430.27L427.83 431.94M427.83 431.94L420.94 433.24M420.94 433.24L413.99 434.17M413.99 434.17L407.01 434.73M407.01 434.73L400 434.92M400 434.92L392.99 434.73M392.99 434.73L386 434.17M386 434.17L379.06 433.24M379.06 433.24L372.17 431.94M372.17 431.94L365.36 430.27M365.36 430.27L358.65 428.24M358.65 428.24L352.06 425.86M352.06 425.86L345.6 423.13M345.6 423.13L339.3 420.06M339.3 420.06L333.17 416.65M333.17 416.65L327.23 412.93M327.23 412.93L327.23 579.68M327.23 579.68L472.77 579.68M472.77 579.68L472.77 412.93"
fill="none" stroke="black" stroke-width="0.5"/>
<path d="M312.06 390.74L312.06 594.85M312.06 594.85L487.94 594.85M487.94 594.85L487.94 390.74M487.94 390.74L487.94 390.74M487.94 390.74L484.02 391.43M484.02 391.43L480.16 392.43M480.16 392.43L476.39 393.72M476.39 393.72L472.73 395.3M472.73 395.3L469.21 397.16M469.21 397.16L465.84 399.29M465.84 399.29L465.84 399.29M465.84 399.29L460.24 402.91M460.24 402.91L454.45 406.2M454.45 406.2L448.47 409.16M448.47 409.16L442.33 411.76M442.33 411.76L436.06 414.01M436.06 414.01L429.67 415.9M429.67 415.9L423.18 417.41M423.18 417.41L416.61 418.56M416.61 418.56L409.99 419.32M409.99 419.32L403.33 419.7M403.33 419.7L396.67 419.7M396.67 419.7L390.01 419.32M390.01 419.32L383.39 418.55M383.39 418.55L376.82 417.41M376.82 417.41L370.33 415.9M370.33 415.9L363.94 414.01M363.94 414.01L357.66 411.76M357.66 411.76L351.53 409.15M351.53 409.15L345.55 406.2M345.55 406.2L339.75 402.91M339.75 402.91L334.16 399.29M334.16 399.29L334.16 399.29M334.16 399.29L330.79 397.16M330.79 397.16L327.27 395.3M327.27 395.3L323.61 393.72M323.61 393.72L319.84 392.43M319.84 392.43L315.98 391.43M315.98 391.43L312.06 390.74"
fill="none" stroke="black" stroke-width="0.5"/>
<path d="M326.89 412.28L326.89 580.02M326.89 580.02L473.11 580.02M473.11 580.02L473.11 412.28M473.11 412.28L473.11 412.28M473.11 412.28L467.15 416.06M467.15 416.06L461 419.51M461 419.51L454.68 422.62M454.68 422.62L448.2 425.39M448.2 425.39L441.57 427.81M441.57 427.81L434.83 429.86M434.83 429.86L427.98 431.55M427.98 431.55L421.06 432.87M421.06 432.87L414.07 433.82M414.07 433.82L407.05 434.39M407.05 434.39L400 434.58M400 434.58L392.95 434.39M392.95 434.39L385.92 433.82M385.92 433.82L378.94 432.87M378.94 432.87L372.01 431.55M372.01 431.55L365.17 429.86M365.17 429.86L358.42 427.8M358.42 427.8L351.8 425.39M351.8 425.39L345.32 422.62M345.32 422.62L338.99 419.51M338.99 419.51L332.84 416.06M332.84 416.06L326.89 412.28"
fill="none" stroke="black" stroke-width="0.5"/>
<path d="M457.59 438.3L450.72 441.04M450.72 441.04L443.71 443.42M443.71 443.42L436.6 445.45M436.6 445.45L429.39 447.12M429.39 447.12L422.11 448.42M422.11 448.42L414.77 449.35M414.77 449.35L407.39 449.91M407.39 449.91L400 450.1M400 450.1L392.6 449.91M392.6 449.91L385.23 449.35M385.23 449.35L377.89 448.42M377.89 448.42L370.61 447.12M370.61 447.12L363.4 445.45M363.4 445.45L356.29 443.42M356.29 443.42L349.28 441.04M349.28 441.04L342.41 438.3M342.41 438.3L342.41 564.51M342.41 564.51L457.59 564.51M457.59 564.51L457.59 438.3"
fill="none" stroke="black" stroke-width="0.5"/>
<path d="M455.87 562.78L455.87 440.89M455.87 440.89L455.87 440.89M455.87 440.89L448.72 443.58M448.72 443.58L441.45 445.91M441.45 445.91L434.06 447.85M434.06 447.85L426.59 449.42M426.59 449.42L419.04 450.59M419.04 450.59L411.45 451.38M411.45 451.38L403.82 451.77M403.82 451.77L396.18 451.77M396.18 451.77L388.56 451.38M388.56 451.38L380.96 450.59M380.96 450.59L373.41 449.42M373.41 449.42L365.94 447.85M365.94 447.85L358.55 445.91M358.55 445.91L351.28 443.59M351.28 443.59L344.13 440.89M344.13 440.89L344.13 562.78M344.13 562.78L455.87 562.78"
fill="none" stroke="black" stroke-width="0.5"/>
<path d="M344.82 562.09L455.18 562.09M455.18 562.09L455.18 441.91M455.18 441.91L455.18 441.91M455.18 441.91L448.11 444.53M448.11 444.53L440.92 446.78M440.92 446.78L433.62 448.67M433.62 448.67L426.24 450.18M426.24 450.18L418.79 451.32M418.79 451.32L411.29 452.08M411.29 452.08L403.77 452.46M403.77 452.46L396.23 452.46M396.23 452.46L388.71 452.08M388.71 452.08L381.21 451.32M381.21 451.32L373.76 450.18M373.76 450.18L366.38 448.66M366.38 448.66L359.08 446.78M359.08 446.78L351.89 444.53M351.89 444.53L344.82 441.91M344.82 441.91L344.82 562.09"
fill="none" stroke="black" stroke-width="0.5"/>
<path d="M445.91 370.31L441.34 373.23M441.34 373.23L436.59 375.84M436.59 375.84L431.67 378.13M431.67 378.13L426.61 380.08M426.61 380.08L421.43 381.69M421.43 381.69L416.16 382.94M416.16 382.94L410.81 383.85M410.81 383.85L405.42 384.39M405.42 384.39L400 384.57M400 384.57L394.58 384.39M394.58 384.39L389.19 383.85M389.19 383.85L383.84 382.94M383.84 382.94L378.57 381.69M378.57 381.69L373.39 380.08M373.39 380.08L368.33 378.13M368.33 378.13L363.41 375.84M363.41 375.84L358.66 373.23M358.66 373.23L354.09 370.31M354.09 370.31L354.09 370.31M354.09 370.31L349.47 367.34M349.47 367.34L344.66 364.67M344.66 364.67L339.7 362.31M339.7 362.31L334.59 360.27M334.59 360.27L329.37 358.56M329.37 358.56L324.05 357.19M324.05 357.19L318.65 356.16M318.65 356.16L313.19 355.47M313.19 355.47L313.19 355.47M313.19 355.47L312.64 355.57M312.64 355.57L312.22 355.95M312.22 355.95L312.06 356.5M312.06 356.5L312.06 389.15M312.06 389.15L312.06 389.15M312.06 389.15L312.17 389.62M312.17 389.62L312.49 389.99M312.49 389.99L312.94 390.17M312.94 390.17L312.94 390.17M312.94 390.17L316.78 390.9M316.78 390.9L320.55 391.92M320.55 391.92L324.23 393.22M324.23 393.22L327.8 394.79M327.8 394.79L331.25 396.63M331.25 396.63L334.55 398.72M334.55 398.72L334.55 398.72M334.55 398.72L340.11 402.32M340.11 402.32L345.87 405.59M345.87 405.59L351.81 408.53M351.81 408.53L357.91 411.12M357.91 411.12L364.15 413.35M364.15 413.35L370.51 415.23M370.51 415.23L376.96 416.74M376.96 416.74L383.49 417.87M383.49 417.87L390.07 418.63M390.07 418.63L396.68 419.01M396.68 419.01L403.31 419.01M403.31 419.01L409.93 418.63M409.93 418.63L416.51 417.87M416.51 417.87L423.04 416.74M423.04 416.74L429.49 415.23M429.49 415.23L435.85 413.35M435.85 413.35L442.08 411.12M442.08 411.12L448.18 408.53M448.18 408.53L454.12 405.59M454.12 405.59L459.89 402.32M459.89 402.32L465.45 398.72M465.45 398.72L465.45 398.72M465.45 398.72L468.75 396.63M468.75 396.63L472.2 394.79M472.2 394.79L475.77 393.22M475.77 393.22L479.45 391.92M479.45 391.92L483.22 390.9M483.22 390.9L487.06 390.17M487.06 390.17L487.06 390.17M487.06 390.17L487.51 389.99M487.51 389.99L487.83 389.62M487.83 389.62L487.94 389.15M487.94 389.15L487.94 356.5M487.94 356.5L487.94 356.5M487.94 356.5L487.78 355.95M487.78 355.95L487.37 355.57M487.37 355.57L486.81 355.47M486.81 355.47L486.81 355.47M486.81 355.47L481.35 356.16M481.35 356.16L475.96 357.19M475.96 357.19L470.63 358.56M470.63 358.56L465.41 360.27M465.41 360.27L460.3 362.31M460.3 362.31L455.34 364.67M455.34 364.67L450.53 367.34M450.53 367.34L445.91 370.31"
fill="none" stroke="black" stroke-width="0.5"/>
</svg>
