<?xml version="1.0" encoding="UTF-8"?>
<svg xmlns="http://www.w3.org/2000/svg" width="800.000" height="600.000" viewBox="0.0 0.0 800.000 600.000" version="1.1">
  <title>Produce by Acme CAD Converter</title>
  <desc>Produce by Acme CAD Converter</desc>
<path d="M312.42 38.8L311.85 38.26M311.85 38.26L311.56 37.99M311.56 37.99L311.42 37.86M311.42 37.86L311.35 37.79M311.35 37.79L311.28 37.72M311.28 37.72L311.24 37.69M311.24 37.69L311.2 37.65M311.2 37.65L311.17 37.62M311.17 37.62L311.13 37.58M311.13 37.58L311.09 37.54M311.09 37.54L311.05 37.5M311.05 37.5L311.01 37.46M311.01 37.46L310.96 37.43M310.96 37.43L310.92 37.39M310.92 37.39L310.88 37.34M310.88 37.34L310.84 37.3M310.84 37.3L310.79 37.26M310.79 37.26L310.71 37.18M310.71 37.18L310.62 37.09M310.62 37.09L310.52 37M310.52 37L310.43 36.92M310.43 36.92L310.34 36.83M310.34 36.83L310.25 36.74M310.25 36.74L310.15 36.65M310.15 36.65L310.06 36.56M310.06 36.56L309.87 36.38"
fill="none" stroke="black" stroke-width="0.5"/>
<path d="M308.08 357.23L308.6 356.72M308.6 356.72L308.66 356.65M308.66 356.65L308.73 356.58M308.73 356.58L308.8 356.51M308.8 356.51L308.87 356.44M308.87 356.44L308.94 356.37M308.94 356.37L309.02 356.3M309.02 356.3L309.09 356.22M309.09 356.22L309.16 356.15M309.16 356.15L309.24 356.07M309.24 356.07L309.32 356M309.32 356L309.47 355.84M309.47 355.84L309.62 355.69M309.62 355.69L309.78 355.54M309.78 355.54L309.93 355.38M309.93 355.38L310.09 355.22M310.09 355.22L310.17 355.14M310.17 355.14L310.25 355.07M310.25 355.07L310.32 354.99M310.32 354.99L310.4 354.91M310.4 354.91L310.48 354.84M310.48 354.84L310.55 354.76M310.55 354.76L310.62 354.69M310.62 354.69L310.7 354.62M310.7 354.62L310.77 354.54M310.77 354.54L310.84 354.47M310.84 354.47L310.92 354.4M310.92 354.4L310.99 354.33M310.99 354.33L311.05 354.26M311.05 354.26L311.09 354.23M311.09 354.23L311.12 354.19M311.12 354.19L311.15 354.16M311.15 354.16L311.18 354.13M311.18 354.13L311.22 354.1M311.22 354.1L311.25 354.07M311.25 354.07L311.28 354.04M311.28 354.04L311.31 354.01M311.31 354.01L311.36 353.95M311.36 353.95L311.48 353.83M311.48 353.83L312.42 352.9"
fill="none" stroke="black" stroke-width="0.5"/>
<path d="M308.08 34.63L308.48 35.02M308.48 35.02L308.58 35.12M308.58 35.12L308.63 35.17M308.63 35.17L308.68 35.22M308.68 35.22L308.73 35.27M308.73 35.27L308.79 35.33M308.79 35.33L308.84 35.38M308.84 35.38L308.9 35.43M308.9 35.43L308.95 35.49M308.95 35.49L309.01 35.54M309.01 35.54L309.07 35.6M309.07 35.6L309.13 35.66M309.13 35.66L309.19 35.72M309.19 35.72L309.25 35.77M309.25 35.77L309.37 35.89M309.37 35.89L309.5 36.01M309.5 36.01L309.62 36.13M309.62 36.13L309.74 36.25M309.74 36.25L309.87 36.38"
fill="none" stroke="black" stroke-width="0.5"/>
<path d="M491.92 357.23L491.4 356.72M491.4 356.72L491.34 356.65M491.34 356.65L491.27 356.58M491.27 356.58L491.2 356.51M491.2 356.51L491.13 356.44M491.13 356.44L491.06 356.37M491.06 356.37L490.98 356.3M490.98 356.3L490.91 356.22M490.91 356.22L490.84 356.15M490.84 356.15L490.76 356.07M490.76 356.07L490.68 356M490.68 356L490.53 355.84M490.53 355.84L490.38 355.69M490.38 355.69L490.22 355.54M490.22 355.54L490.07 355.38M490.07 355.38L489.91 355.22M489.91 355.22L489.83 355.14M489.83 355.14L489.75 355.07M489.75 355.07L489.68 354.99M489.68 354.99L489.6 354.91M489.6 354.91L489.52 354.84M489.52 354.84L489.45 354.76M489.45 354.76L489.38 354.69M489.38 354.69L489.3 354.62M489.3 354.62L489.23 354.54M489.23 354.54L489.16 354.47M489.16 354.47L489.08 354.4M489.08 354.4L489.01 354.33M489.01 354.33L488.95 354.26M488.95 354.26L488.91 354.23M488.91 354.23L488.88 354.19M488.88 354.19L488.85 354.16M488.85 354.16L488.82 354.13M488.82 354.13L488.78 354.1M488.78 354.1L488.75 354.07M488.75 354.07L488.72 354.04M488.72 354.04L488.69 354.01M488.69 354.01L488.64 353.95M488.64 353.95L488.52 353.83M488.52 353.83L487.58 352.9"
fill="none" stroke="black" stroke-width="0.5"/>
<path d="M487.58 38.8L488.15 38.26M488.15 38.26L488.44 37.99M488.44 37.99L488.58 37.86M488.58 37.86L488.65 37.79M488.65 37.79L488.72 37.72M488.72 37.72L488.76 37.69M488.76 37.69L488.8 37.65M488.8 37.65L488.83 37.62M488.83 37.62L488.87 37.58M488.87 37.58L488.91 37.54M488.91 37.54L488.95 37.5M488.95 37.5L488.99 37.46M488.99 37.46L489.04 37.43M489.04 37.43L489.08 37.39M489.08 37.39L489.12 37.34M489.12 37.34L489.16 37.3M489.16 37.3L489.21 37.26M489.21 37.26L489.29 37.18M489.29 37.18L489.38 37.09M489.38 37.09L489.48 37M489.48 37L489.57 36.92M489.57 36.92L489.66 36.83M489.66 36.83L489.75 36.74M489.75 36.74L489.85 36.65M489.85 36.65L489.94 36.56M489.94 36.56L490.13 36.38"
fill="none" stroke="black" stroke-width="0.5"/>
<path d="M491.92 34.63L491.52 35.02M491.52 35.02L491.42 35.12M491.42 35.12L491.37 35.17M491.37 35.17L491.32 35.22M491.32 35.22L491.27 35.27M491.27 35.27L491.21 35.33M491.21 35.33L491.16 35.38M491.16 35.38L491.1 35.43M491.1 35.43L491.05 35.49M491.05 35.49L490.99 35.54M490.99 35.54L490.93 35.6M490.93 35.6L490.87 35.66M490.87 35.66L490.81 35.72M490.81 35.72L490.75 35.77M490.75 35.77L490.63 35.89M490.63 35.89L490.5 36.01M490.5 36.01L490.38 36.13M490.38 36.13L490.26 36.25M490.26 36.25L490.13 36.38"
fill="none" stroke="black" stroke-width="0.5"/>
<path d="M312.42 38.8L313.26 38.74M313.26 38.74L314.09 38.68M314.09 38.68L314.93 38.61M314.93 38.61L315.75 38.53M315.75 38.53L316.58 38.44M316.58 38.44L317.4 38.34M317.4 38.34L318.21 38.24M318.21 38.24L319.03 38.13M319.03 38.13L319.83 38.01M319.83 38.01L320.64 37.88M320.64 37.88L321.44 37.74M321.44 37.74L322.24 37.6M322.24 37.6L323.03 37.45M323.03 37.45L323.82 37.29M323.82 37.29L324.6 37.12M324.6 37.12L325.38 36.94M325.38 36.94L326.16 36.75M326.16 36.75L326.94 36.56M326.94 36.56L327.71 36.36M327.71 36.36L328.47 36.15M328.47 36.15L329.24 35.93M329.24 35.93L330 35.7M330 35.7L330.75 35.47M330.75 35.47L331.51 35.22M331.51 35.22L332.26 34.97M332.26 34.97L333 34.71M333 34.71L333.74 34.44M333.74 34.44L334.48 34.16M334.48 34.16L335.22 33.87M335.22 33.87L335.95 33.58M335.95 33.58L336.68 33.28M336.68 33.28L337.4 32.96M337.4 32.96L338.12 32.64M338.12 32.64L338.84 32.31M338.84 32.31L339.56 31.97M339.56 31.97L340.27 31.63M340.27 31.63L340.98 31.27M340.98 31.27L341.68 30.91M341.68 30.91L342.38 30.54M342.38 30.54L343.08 30.16M343.08 30.16L343.77 29.77M343.77 29.77L344.45 29.38M344.45 29.38L345.13 28.98M345.13 28.98L345.8 28.58M345.8 28.58L346.47 28.18M346.47 28.18L347.13 27.77M347.13 27.77L347.78 27.36M347.78 27.36L348.43 26.95M348.43 26.95L349.08 26.54M349.08 26.54L349.72 26.12M349.72 26.12L350.36 25.71M350.36 25.71L350.99 25.3M350.99 25.3L351.62 24.88M351.62 24.88L352.25 24.47M352.25 24.47L352.87 24.06M352.87 24.06L353.49 23.65M353.49 23.65L354.1 23.25M354.1 23.25L354.72 22.85M354.72 22.85L355.33 22.45M355.33 22.45L355.94 22.05M355.94 22.05L356.54 21.66M356.54 21.66L357.15 21.28M357.15 21.28L357.75 20.9M357.75 20.9L358.36 20.52M358.36 20.52L358.96 20.14M358.96 20.14L359.57 19.77M359.57 19.77L360.18 19.41M360.18 19.41L360.79 19.05M360.79 19.05L361.39 18.69M361.39 18.69L362 18.34M362 18.34L362.61 17.99M362.61 17.99L363.22 17.64M363.22 17.64L363.83 17.31M363.83 17.31L364.44 16.97M364.44 16.97L365.06 16.64M365.06 16.64L365.67 16.32M365.67 16.32L366.28 16M366.28 16L366.9 15.69M366.9 15.69L367.51 15.38M367.51 15.38L368.13 15.08M368.13 15.08L368.74 14.79M368.74 14.79L369.36 14.5M369.36 14.5L369.98 14.22M369.98 14.22L370.6 13.94M370.6 13.94L371.22 13.67M371.22 13.67L371.85 13.41M371.85 13.41L372.47 13.15M372.47 13.15L373.1 12.89M373.1 12.89L373.73 12.65M373.73 12.65L374.37 12.41M374.37 12.41L375 12.17M375 12.17L375.64 11.94M375.64 11.94L376.28 11.72M376.28 11.72L376.92 11.5M376.92 11.5L377.56 11.29M377.56 11.29L378.2 11.08M378.2 11.08L378.85 10.88M378.85 10.88L379.5 10.69M379.5 10.69L380.15 10.5M380.15 10.5L380.8 10.32M380.8 10.32L381.46 10.14M381.46 10.14L382.12 9.97M382.12 9.97L382.78 9.81M382.78 9.81L383.44 9.65M383.44 9.65L384.1 9.5M384.1 9.5L384.77 9.35M384.77 9.35L385.43 9.21M385.43 9.21L386.11 9.08M386.11 9.08L386.78 8.96M386.78 8.96L387.45 8.84M387.45 8.84L388.13 8.72M388.13 8.72L388.81 8.61M388.81 8.61L389.49 8.51M389.49 8.51L390.17 8.42M390.17 8.42L390.86 8.33M390.86 8.33L391.55 8.25M391.55 8.25L392.24 8.17M392.24 8.17L392.93 8.1M392.93 8.1L393.63 8.04M393.63 8.04L394.33 7.98M394.33 7.98L395.03 7.93M395.03 7.93L395.73 7.89M395.73 7.89L396.44 7.85M396.44 7.85L397.14 7.82M397.14 7.82L397.85 7.8M397.85 7.8L398.57 7.78M398.57 7.78L399.28 7.77M399.28 7.77L400 7.77M400 7.77L400.72 7.77M400.72 7.77L401.43 7.78M401.43 7.78L402.15 7.8M402.15 7.8L402.86 7.82M402.86 7.82L403.56 7.85M403.56 7.85L404.27 7.89M404.27 7.89L404.97 7.93M404.97 7.93L405.67 7.98M405.67 7.98L406.37 8.04M406.37 8.04L407.07 8.1M407.07 8.1L407.76 8.17M407.76 8.17L408.45 8.25M408.45 8.25L409.14 8.33M409.14 8.33L409.82 8.42M409.82 8.42L410.51 8.51M410.51 8.51L411.19 8.61M411.19 8.61L411.87 8.72M411.87 8.72L412.55 8.83M412.55 8.83L413.22 8.96M413.22 8.96L413.89 9.08M413.89 9.08L414.56 9.21M414.56 9.21L415.23 9.35M415.23 9.35L415.9 9.5M415.9 9.5L416.56 9.65M416.56 9.65L417.22 9.81M417.22 9.81L417.88 9.97M417.88 9.97L418.54 10.14M418.54 10.14L419.2 10.32M419.2 10.32L419.85 10.5M419.85 10.5L420.5 10.69M420.5 10.69L421.15 10.88M421.15 10.88L421.8 11.08M421.8 11.08L422.44 11.29M422.44 11.29L423.08 11.5M423.08 11.5L423.72 11.72M423.72 11.72L424.36 11.94M424.36 11.94L425 12.17M425 12.17L425.63 12.41M425.63 12.41L426.27 12.65M426.27 12.65L426.9 12.89M426.9 12.89L427.53 13.15M427.53 13.15L428.15 13.41M428.15 13.41L428.78 13.67M428.78 13.67L429.4 13.94M429.4 13.94L430.02 14.22M430.02 14.22L430.64 14.5M430.64 14.5L431.26 14.79M431.26 14.79L431.87 15.08M431.87 15.08L432.49 15.38M432.49 15.38L433.1 15.69M433.1 15.69L433.72 16M433.72 16L434.33 16.32M434.33 16.32L434.94 16.64M434.94 16.64L435.56 16.97M435.56 16.97L436.17 17.31M436.17 17.31L436.78 17.64M436.78 17.64L437.39 17.99M437.39 17.99L438 18.34M438 18.34L438.61 18.69M438.61 18.69L439.21 19.05M439.21 19.05L439.82 19.41M439.82 19.41L440.43 19.77M440.43 19.77L441.04 20.14M441.04 20.14L441.64 20.52M441.64 20.52L442.25 20.9M442.25 20.9L442.85 21.28M442.85 21.28L443.46 21.66M443.46 21.66L444.06 22.05M444.06 22.05L444.67 22.45M444.67 22.45L445.28 22.85M445.28 22.85L445.9 23.25M445.9 23.25L446.51 23.65M446.51 23.65L447.13 24.06M447.13 24.06L447.75 24.47M447.75 24.47L448.38 24.88M448.38 24.88L449.01 25.3M449.01 25.3L449.64 25.71M449.64 25.71L450.28 26.12M450.28 26.12L450.92 26.54M450.92 26.54L451.56 26.95M451.56 26.95L452.22 27.36M452.22 27.36L452.87 27.77M452.87 27.77L453.53 28.18M453.53 28.18L454.2 28.58M454.2 28.58L454.87 28.98M454.87 28.98L455.55 29.38M455.55 29.38L456.23 29.77M456.23 29.77L456.92 30.16M456.92 30.16L457.62 30.54M457.62 30.54L458.32 30.91M458.32 30.91L459.02 31.27M459.02 31.27L459.73 31.63M459.73 31.63L460.44 31.97M460.44 31.97L461.16 32.31M461.16 32.31L461.88 32.64M461.88 32.64L462.6 32.96M462.6 32.96L463.32 33.28M463.32 33.28L464.05 33.58M464.05 33.58L464.78 33.87M464.78 33.87L465.52 34.16M465.52 34.16L466.26 34.44M466.26 34.44L467 34.71M467 34.71L467.74 34.97M467.74 34.97L468.49 35.22M468.49 35.22L469.25 35.47M469.25 35.47L470 35.7M470 35.7L470.76 35.93M470.76 35.93L471.53 36.15M471.53 36.15L472.29 36.36M472.29 36.36L473.06 36.56M473.06 36.56L473.84 36.75M473.84 36.75L474.62 36.94M474.62 36.94L475.4 37.12M475.4 37.12L476.18 37.29M476.18 37.29L476.97 37.45M476.97 37.45L477.76 37.6M477.76 37.6L478.56 37.74M478.56 37.74L479.36 37.88M479.36 37.88L480.17 38.01M480.17 38.01L480.97 38.13M480.97 38.13L481.79 38.24M481.79 38.24L482.6 38.34M482.6 38.34L483.42 38.44M483.42 38.44L484.25 38.53M484.25 38.53L485.07 38.61M485.07 38.61L485.91 38.68M485.91 38.68L486.74 38.74M486.74 38.74L487.58 38.8"
fill="none" stroke="black" stroke-width="0.5"/>
<path d="M308.08 34.63L308.94 34.62M308.94 34.62L309.79 34.59M309.79 34.59L310.63 34.55M310.63 34.55L311.47 34.51M311.47 34.51L312.31 34.46M312.31 34.46L313.14 34.4M313.14 34.4L313.96 34.34M313.96 34.34L314.78 34.26M314.78 34.26L315.6 34.18M315.6 34.18L316.41 34.09M316.41 34.09L317.21 34M317.21 34L318.01 33.89M318.01 33.89L318.81 33.78M318.81 33.78L319.6 33.65M319.6 33.65L320.38 33.52M320.38 33.52L321.17 33.39M321.17 33.39L321.94 33.24M321.94 33.24L322.72 33.09M322.72 33.09L323.48 32.92M323.48 32.92L324.25 32.75M324.25 32.75L325.01 32.57M325.01 32.57L325.76 32.39M325.76 32.39L326.52 32.19M326.52 32.19L327.26 31.98M327.26 31.98L328.01 31.77M328.01 31.77L328.75 31.55M328.75 31.55L329.48 31.32M329.48 31.32L330.22 31.08M330.22 31.08L330.94 30.84M330.94 30.84L331.67 30.58M331.67 30.58L332.39 30.32M332.39 30.32L333.11 30.04M333.11 30.04L333.82 29.76M333.82 29.76L334.53 29.47M334.53 29.47L335.24 29.18M335.24 29.18L335.94 28.87M335.94 28.87L336.64 28.55M336.64 28.55L337.34 28.23M337.34 28.23L338.03 27.9M338.03 27.9L338.72 27.55M338.72 27.55L339.41 27.2M339.41 27.2L340.1 26.84M340.1 26.84L340.78 26.48M340.78 26.48L341.46 26.1M341.46 26.1L342.13 25.72M342.13 25.72L342.8 25.33M342.8 25.33L343.47 24.93M343.47 24.93L344.13 24.53M344.13 24.53L344.79 24.12M344.79 24.12L345.45 23.71M345.45 23.71L346.11 23.29M346.11 23.29L346.76 22.88M346.76 22.88L348.06 22.03M348.06 22.03L349.36 21.18M349.36 21.18L350.65 20.33M350.65 20.33L351.94 19.48M351.94 19.48L353.23 18.64M353.23 18.64L354.52 17.81M354.52 17.81L355.16 17.4M355.16 17.4L355.81 17M355.81 17L356.46 16.59M356.46 16.59L357.11 16.2M357.11 16.2L357.76 15.8M357.76 15.8L358.41 15.41M358.41 15.41L359.07 15.03M359.07 15.03L359.72 14.64M359.72 14.64L360.38 14.27M360.38 14.27L361.04 13.9M361.04 13.9L361.7 13.53M361.7 13.53L362.36 13.17M362.36 13.17L363.03 12.81M363.03 12.81L363.69 12.46M363.69 12.46L364.36 12.12M364.36 12.12L365.03 11.78M365.03 11.78L365.7 11.44M365.7 11.44L366.38 11.12M366.38 11.12L367.05 10.79M367.05 10.79L367.73 10.48M367.73 10.48L368.41 10.17M368.41 10.17L369.09 9.87M369.09 9.87L369.78 9.57M369.78 9.57L370.46 9.29M370.46 9.29L371.15 9M371.15 9L371.85 8.73M371.85 8.73L372.54 8.46M372.54 8.46L373.24 8.2M373.24 8.2L373.94 7.94M373.94 7.94L374.64 7.69M374.64 7.69L375.34 7.45M375.34 7.45L376.05 7.22M376.05 7.22L376.76 6.99M376.76 6.99L377.47 6.77M377.47 6.77L378.19 6.55M378.19 6.55L378.9 6.35M378.9 6.35L379.62 6.14M379.62 6.14L380.35 5.95M380.35 5.95L381.07 5.76M381.07 5.76L381.8 5.58M381.8 5.58L382.53 5.41M382.53 5.41L383.26 5.24M383.26 5.24L383.99 5.09M383.99 5.09L384.73 4.93M384.73 4.93L385.47 4.79M385.47 4.79L386.21 4.65M386.21 4.65L386.95 4.52M386.95 4.52L387.7 4.4M387.7 4.4L388.45 4.28M388.45 4.28L389.2 4.17M389.2 4.17L389.96 4.07M389.96 4.07L390.71 3.98M390.71 3.98L391.47 3.89M391.47 3.89L392.24 3.81M392.24 3.81L393 3.74M393 3.74L393.77 3.68M393.77 3.68L394.54 3.62M394.54 3.62L395.31 3.57M395.31 3.57L396.09 3.53M396.09 3.53L396.86 3.49M396.86 3.49L397.64 3.47M397.64 3.47L398.43 3.45M398.43 3.45L399.21 3.44M399.21 3.44L400 3.43M400 3.43L400.79 3.44M400.79 3.44L401.57 3.45M401.57 3.45L402.36 3.47M402.36 3.47L403.14 3.49M403.14 3.49L403.91 3.53M403.91 3.53L404.69 3.57M404.69 3.57L405.46 3.62M405.46 3.62L406.23 3.68M406.23 3.68L407 3.74M407 3.74L407.76 3.81M407.76 3.81L408.53 3.89M408.53 3.89L409.29 3.98M409.29 3.98L410.04 4.07M410.04 4.07L410.8 4.17M410.8 4.17L411.55 4.28M411.55 4.28L412.3 4.4M412.3 4.4L413.05 4.52M413.05 4.52L413.79 4.65M413.79 4.65L414.53 4.79M414.53 4.79L415.27 4.93M415.27 4.93L416.01 5.09M416.01 5.09L416.74 5.24M416.74 5.24L417.47 5.41M417.47 5.41L418.2 5.58M418.2 5.58L418.93 5.76M418.93 5.76L419.65 5.95M419.65 5.95L420.38 6.14M420.38 6.14L421.1 6.35M421.1 6.35L421.81 6.55M421.81 6.55L422.53 6.77M422.53 6.77L423.24 6.99M423.24 6.99L423.95 7.22M423.95 7.22L424.66 7.45M424.66 7.45L425.36 7.69M425.36 7.69L426.06 7.94M426.06 7.94L426.76 8.2M426.76 8.2L427.46 8.46M427.46 8.46L428.15 8.73M428.15 8.73L428.85 9M428.85 9L429.54 9.29M429.54 9.29L430.22 9.57M430.22 9.57L430.91 9.87M430.91 9.87L431.59 10.17M431.59 10.17L432.27 10.48M432.27 10.48L432.95 10.79M432.95 10.79L433.62 11.11M433.62 11.11L434.3 11.44M434.3 11.44L434.97 11.78M434.97 11.78L435.64 12.12M435.64 12.12L436.31 12.46M436.31 12.46L436.97 12.81M436.97 12.81L437.64 13.17M437.64 13.17L438.3 13.53M438.3 13.53L438.96 13.9M438.96 13.9L439.62 14.27M439.62 14.27L440.28 14.64M440.28 14.64L440.93 15.03M440.93 15.03L441.59 15.41M441.59 15.41L442.24 15.8M442.24 15.8L442.89 16.2M442.89 16.2L443.54 16.59M443.54 16.59L444.19 17M444.19 17L444.84 17.4M444.84 17.4L445.48 17.81M445.48 17.81L446.77 18.64M446.77 18.64L448.06 19.48M448.06 19.48L449.35 20.33M449.35 20.33L450.64 21.18M450.64 21.18L451.94 22.03M451.94 22.03L453.24 22.88M453.24 22.88L453.89 23.29M453.89 23.29L454.55 23.71M454.55 23.71L455.21 24.12M455.21 24.12L455.87 24.53M455.87 24.53L456.53 24.93M456.53 24.93L457.2 25.32M457.2 25.32L457.87 25.72M457.87 25.72L458.54 26.1M458.54 26.1L459.22 26.47M459.22 26.47L459.9 26.84M459.9 26.84L460.59 27.2M460.59 27.2L461.28 27.55M461.28 27.55L461.97 27.9M461.97 27.9L462.66 28.23M462.66 28.23L463.36 28.55M463.36 28.55L464.06 28.87M464.06 28.87L464.76 29.18M464.76 29.18L465.47 29.47M465.47 29.47L466.18 29.76M466.18 29.76L466.89 30.04M466.89 30.04L467.61 30.32M467.61 30.32L468.33 30.58M468.33 30.58L469.06 30.84M469.06 30.84L469.78 31.08M469.78 31.08L470.52 31.32M470.52 31.32L471.25 31.55M471.25 31.55L471.99 31.77M471.99 31.77L472.74 31.98M472.74 31.98L473.48 32.19M473.48 32.19L474.24 32.39M474.24 32.39L474.99 32.57M474.99 32.57L475.75 32.75M475.75 32.75L476.52 32.92M476.52 32.92L477.28 33.09M477.28 33.09L478.06 33.24M478.06 33.24L478.83 33.39M478.83 33.39L479.62 33.52M479.62 33.52L480.4 33.65M480.4 33.65L481.19 33.78M481.19 33.78L481.99 33.89M481.99 33.89L482.79 34M482.79 34L483.59 34.09M483.59 34.09L484.4 34.18M484.4 34.18L485.22 34.26M485.22 34.26L486.04 34.34M486.04 34.34L486.86 34.4M486.86 34.4L487.69 34.46M487.69 34.46L488.53 34.51M488.53 34.51L489.37 34.55M489.37 34.55L490.21 34.59M490.21 34.59L491.06 34.62M491.06 34.62L491.92 34.63"
fill="none" stroke="black" stroke-width="0.5"/>
<path d="M338.08 60.07L337.69 59.78M337.69 59.78L337.3 59.49M337.3 59.49L336.91 59.2M336.91 59.2L336.52 58.91M336.52 58.91L336.13 58.62M336.13 58.62L335.74 58.33M335.74 58.33L335.35 58.04M335.35 58.04L334.96 57.74M334.96 57.74L334.57 57.45M334.57 57.45L334.19 57.15M334.19 57.15L333.8 56.86M333.8 56.86L333.41 56.56M333.41 56.56L333.02 56.27M333.02 56.27L332.64 55.97M332.64 55.97L332.25 55.67M332.25 55.67L331.87 55.38M331.87 55.38L331.48 55.08M331.48 55.08L331.1 54.78M331.1 54.78L330.72 54.48M330.72 54.48L330.33 54.18M330.33 54.18L329.95 53.88M329.95 53.88L329.57 53.57M329.57 53.57L329.18 53.27M329.18 53.27L328.8 52.97M328.8 52.97L328.42 52.66M328.42 52.66L328.04 52.36M328.04 52.36L327.66 52.05M327.66 52.05L327.28 51.75M327.28 51.75L326.9 51.44M326.9 51.44L326.53 51.13M326.53 51.13L326.15 50.82M326.15 50.82L325.77 50.52"
fill="none" stroke="black" stroke-width="0.5"/>
<path d="M338.08 60.07L338.94 59.8M338.94 59.8L339.79 59.52M339.79 59.52L340.64 59.23M340.64 59.23L341.49 58.93M341.49 58.93L342.33 58.63M342.33 58.63L343.17 58.32M343.17 58.32L344.01 58M344.01 58L344.84 57.67M344.84 57.67L345.68 57.33M345.68 57.33L346.5 56.99M346.5 56.99L347.33 56.64M347.33 56.64L348.15 56.28M348.15 56.28L348.97 55.91M348.97 55.91L349.78 55.53M349.78 55.53L350.59 55.15M350.59 55.15L351.4 54.76M351.4 54.76L352.2 54.36M352.2 54.36L353 53.95M353 53.95L353.79 53.54M353.79 53.54L354.58 53.12M354.58 53.12L354.98 52.91M354.98 52.91L355.37 52.69M355.37 52.69L355.75 52.48M355.75 52.48L356.13 52.27M356.13 52.27L356.51 52.06M356.51 52.06L356.88 51.84M356.88 51.84L357.25 51.63M357.25 51.63L357.61 51.42M357.61 51.42L357.97 51.21M357.97 51.21L358.33 51M358.33 51L358.68 50.79M358.68 50.79L359.02 50.59M359.02 50.59L359.37 50.38M359.37 50.38L359.71 50.17M359.71 50.17L360.04 49.97M360.04 49.97L360.38 49.76M360.38 49.76L360.7 49.56M360.7 49.56L361.03 49.36M361.03 49.36L361.35 49.15M361.35 49.15L361.67 48.95M361.67 48.95L361.98 48.76M361.98 48.76L362.29 48.56M362.29 48.56L362.6 48.36M362.6 48.36L362.9 48.17M362.9 48.17L363.2 47.97M363.2 47.97L363.5 47.78M363.5 47.78L363.79 47.59M363.79 47.59L364.08 47.4M364.08 47.4L364.37 47.22M364.37 47.22L364.65 47.03M364.65 47.03L364.93 46.85M364.93 46.85L365.21 46.67M365.21 46.67L365.48 46.49M365.48 46.49L365.76 46.31M365.76 46.31L366.02 46.13M366.02 46.13L366.29 45.96M366.29 45.96L366.55 45.79M366.55 45.79L366.81 45.62M366.81 45.62L367.06 45.45M367.06 45.45L367.31 45.28M367.31 45.28L367.56 45.12M367.56 45.12L367.81 44.96M367.81 44.96L368.05 44.8M368.05 44.8L368.29 44.64M368.29 44.64L368.53 44.49M368.53 44.49L368.76 44.33M368.76 44.33L368.99 44.18M368.99 44.18L369.22 44.03M369.22 44.03L369.44 43.89M369.44 43.89L369.67 43.74M369.67 43.74L369.88 43.6M369.88 43.6L370.1 43.46M370.1 43.46L370.52 43.19M370.52 43.19L370.94 42.92M370.94 42.92L371.36 42.66M371.36 42.66L371.77 42.4M371.77 42.4L372.18 42.15M372.18 42.15L372.59 41.9M372.59 41.9L373 41.65M373 41.65L373.4 41.41M373.4 41.41L373.8 41.17M373.8 41.17L374.19 40.94M374.19 40.94L374.58 40.71M374.58 40.71L374.97 40.49M374.97 40.49L375.36 40.27M375.36 40.27L375.74 40.06M375.74 40.06L376.12 39.85M376.12 39.85L376.49 39.64M376.49 39.64L376.87 39.44M376.87 39.44L377.24 39.24M377.24 39.24L377.6 39.05M377.6 39.05L377.96 38.86M377.96 38.86L378.32 38.68M378.32 38.68L378.68 38.5M378.68 38.5L379.03 38.32M379.03 38.32L379.38 38.15M379.38 38.15L379.73 37.99M379.73 37.99L380.07 37.83M380.07 37.83L380.41 37.67M380.41 37.67L380.74 37.52M380.74 37.52L381.08 37.37M381.08 37.37L381.42 37.23M381.42 37.23L381.76 37.08M381.76 37.08L382.1 36.94M382.1 36.94L382.44 36.8M382.44 36.8L382.78 36.67M382.78 36.67L383.12 36.54M383.12 36.54L383.46 36.41M383.46 36.41L383.8 36.28M383.8 36.28L384.14 36.16M384.14 36.16L384.48 36.04M384.48 36.04L384.82 35.92M384.82 35.92L385.16 35.8M385.16 35.8L385.5 35.69M385.5 35.69L385.85 35.58M385.85 35.58L386.19 35.48M386.19 35.48L386.53 35.37M386.53 35.37L386.88 35.27M386.88 35.27L387.22 35.17M387.22 35.17L387.57 35.08M387.57 35.08L387.92 34.98M387.92 34.98L388.26 34.89M388.26 34.89L388.61 34.8M388.61 34.8L388.96 34.72M388.96 34.72L389.31 34.64M389.31 34.64L389.66 34.56M389.66 34.56L390.01 34.48M390.01 34.48L390.36 34.41M390.36 34.41L390.72 34.33M390.72 34.33L391.07 34.26M391.07 34.26L391.43 34.2M391.43 34.2L391.78 34.13M391.78 34.13L392.14 34.07M392.14 34.07L392.5 34.01M392.5 34.01L392.86 33.96M392.86 33.96L393.22 33.91M393.22 33.91L393.58 33.86M393.58 33.86L393.95 33.81M393.95 33.81L394.31 33.76M394.31 33.76L394.68 33.72M394.68 33.72L395.05 33.68M395.05 33.68L395.42 33.65M395.42 33.65L395.79 33.61M395.79 33.61L396.17 33.58M396.17 33.58L396.54 33.55M396.54 33.55L396.92 33.53M396.92 33.53L397.3 33.51M397.3 33.51L397.68 33.49M397.68 33.49L398.06 33.47M398.06 33.47L398.44 33.46M398.44 33.46L398.83 33.45M398.83 33.45L399.22 33.44M399.22 33.44L399.61 33.44M399.61 33.44L400 33.44M400 33.44L400.39 33.44M400.39 33.44L400.78 33.44M400.78 33.44L401.17 33.45M401.17 33.45L401.56 33.46M401.56 33.46L401.94 33.47M401.94 33.47L402.32 33.49M402.32 33.49L402.7 33.51M402.7 33.51L403.08 33.53M403.08 33.53L403.46 33.55M403.46 33.55L403.83 33.58M403.83 33.58L404.21 33.61M404.21 33.61L404.58 33.65M404.58 33.65L404.95 33.68M404.95 33.68L405.32 33.72M405.32 33.72L405.69 33.76M405.69 33.76L406.05 33.81M406.05 33.81L406.42 33.86M406.42 33.86L406.78 33.91M406.78 33.91L407.14 33.96M407.14 33.96L407.5 34.01M407.5 34.01L407.86 34.07M407.86 34.07L408.22 34.13M408.22 34.13L408.57 34.2M408.57 34.2L408.93 34.26M408.93 34.26L409.28 34.33M409.28 34.33L409.64 34.41M409.64 34.41L409.99 34.48M409.99 34.48L410.34 34.56M410.34 34.56L410.69 34.64M410.69 34.64L411.04 34.72M411.04 34.72L411.39 34.8M411.39 34.8L411.74 34.89M411.74 34.89L412.08 34.98M412.08 34.98L412.43 35.08M412.43 35.08L412.78 35.17M412.78 35.17L413.12 35.27M413.12 35.27L413.46 35.37M413.46 35.37L413.81 35.48M413.81 35.48L414.15 35.58M414.15 35.58L414.49 35.69M414.49 35.69L414.84 35.8M414.84 35.8L415.18 35.92M415.18 35.92L415.52 36.04M415.52 36.04L415.86 36.16M415.86 36.16L416.2 36.28M416.2 36.28L416.54 36.41M416.54 36.41L416.88 36.54M416.88 36.54L417.22 36.67M417.22 36.67L417.56 36.8M417.56 36.8L417.9 36.94M417.9 36.94L418.24 37.08M418.24 37.08L418.58 37.23M418.58 37.23L418.92 37.37M418.92 37.37L419.25 37.52M419.25 37.52L419.59 37.67M419.59 37.67L419.93 37.83M419.93 37.83L420.27 37.99M420.27 37.99L420.62 38.15M420.62 38.15L420.97 38.32M420.97 38.32L421.32 38.5M421.32 38.5L421.68 38.68M421.68 38.68L422.04 38.86M422.04 38.86L422.4 39.05M422.4 39.05L422.76 39.24M422.76 39.24L423.13 39.44M423.13 39.44L423.51 39.64M423.51 39.64L423.88 39.85M423.88 39.85L424.26 40.06M424.26 40.06L424.64 40.27M424.64 40.27L425.03 40.49M425.03 40.49L425.42 40.71M425.42 40.71L425.81 40.94M425.81 40.94L426.2 41.17M426.2 41.17L426.6 41.41M426.6 41.41L427 41.65M427 41.65L427.41 41.9M427.41 41.9L427.82 42.15M427.82 42.15L428.23 42.4M428.23 42.4L428.64 42.66M428.64 42.66L429.06 42.92M429.06 42.92L429.48 43.19M429.48 43.19L429.9 43.46M429.9 43.46L430.12 43.6M430.12 43.6L430.33 43.74M430.33 43.74L430.56 43.89M430.56 43.89L430.78 44.03M430.78 44.03L431.01 44.18M431.01 44.18L431.24 44.33M431.24 44.33L431.47 44.48M431.47 44.48L431.71 44.64M431.71 44.64L431.95 44.8M431.95 44.8L432.19 44.96M432.19 44.96L432.44 45.12M432.44 45.12L432.69 45.28M432.69 45.28L432.94 45.45M432.94 45.45L433.19 45.62M433.19 45.62L433.45 45.79M433.45 45.79L433.71 45.96M433.71 45.96L433.98 46.13M433.98 46.13L434.24 46.31M434.24 46.31L434.51 46.49M434.51 46.49L434.79 46.67M434.79 46.67L435.07 46.85M435.07 46.85L435.35 47.03M435.35 47.03L435.63 47.22M435.63 47.22L435.92 47.4M435.92 47.4L436.21 47.59M436.21 47.59L436.5 47.78M436.5 47.78L436.8 47.97M436.8 47.97L437.1 48.17M437.1 48.17L437.4 48.36M437.4 48.36L437.71 48.56M437.71 48.56L438.02 48.75M438.02 48.75L438.33 48.95M438.33 48.95L438.65 49.15M438.65 49.15L438.97 49.36M438.97 49.36L439.3 49.56M439.3 49.56L439.62 49.76M439.62 49.76L439.96 49.97M439.96 49.97L440.29 50.17M440.29 50.17L440.63 50.38M440.63 50.38L440.98 50.59M440.98 50.59L441.32 50.79M441.32 50.79L441.67 51M441.67 51L442.03 51.21M442.03 51.21L442.39 51.42M442.39 51.42L442.75 51.63M442.75 51.63L443.12 51.84M443.12 51.84L443.49 52.06M443.49 52.06L443.87 52.27M443.87 52.27L444.25 52.48M444.25 52.48L444.63 52.69M444.63 52.69L445.02 52.91M445.02 52.91L445.42 53.12M445.42 53.12L446.21 53.54M446.21 53.54L447 53.95M447 53.95L447.8 54.36M447.8 54.36L448.6 54.76M448.6 54.76L449.41 55.15M449.41 55.15L450.22 55.53M450.22 55.53L451.03 55.91M451.03 55.91L451.85 56.28M451.85 56.28L452.67 56.64M452.67 56.64L453.5 56.99M453.5 56.99L454.32 57.33M454.32 57.33L455.16 57.67M455.16 57.67L455.99 58M455.99 58L456.83 58.32M456.83 58.32L457.67 58.63M457.67 58.63L458.51 58.93M458.51 58.93L459.36 59.23M459.36 59.23L460.21 59.52M460.21 59.52L461.06 59.8M461.06 59.8L461.92 60.07"
fill="none" stroke="black" stroke-width="0.5"/>
<path d="M325.77 50.52L326.61 50.34M326.61 50.34L327.44 50.17M327.44 50.17L328.27 49.98M328.27 49.98L329.1 49.78M329.1 49.78L329.93 49.58M329.93 49.58L330.75 49.37M330.75 49.37L331.57 49.15M331.57 49.15L332.39 48.92M332.39 48.92L333.21 48.68M333.21 48.68L334.02 48.44M334.02 48.44L334.83 48.18M334.83 48.18L335.64 47.92M335.64 47.92L336.44 47.65M336.44 47.65L337.24 47.37M337.24 47.37L338.04 47.09M338.04 47.09L338.84 46.79M338.84 46.79L339.63 46.49M339.63 46.49L340.42 46.18M340.42 46.18L341.2 45.86M341.2 45.86L341.98 45.53M341.98 45.53L342.76 45.19M342.76 45.19L343.54 44.85M343.54 44.85L344.31 44.5M344.31 44.5L345.08 44.14M345.08 44.14L345.84 43.77M345.84 43.77L346.6 43.39M346.6 43.39L347.36 43.01M347.36 43.01L348.11 42.62M348.11 42.62L348.86 42.22M348.86 42.22L349.23 42.01M349.23 42.01L349.6 41.81M349.6 41.81L349.97 41.61M349.97 41.61L350.33 41.4M350.33 41.4L350.69 41.2M350.69 41.2L351.04 41M351.04 41L351.4 40.79M351.4 40.79L351.75 40.59M351.75 40.59L352.09 40.38M352.09 40.38L352.44 40.18M352.44 40.18L353.11 39.77M353.11 39.77L353.78 39.36M353.78 39.36L354.43 38.96M354.43 38.96L355.08 38.55M355.08 38.55L355.71 38.15M355.71 38.15L356.33 37.75M356.33 37.75L356.95 37.36M356.95 37.36L357.55 36.96M357.55 36.96L358.14 36.58M358.14 36.58L358.73 36.19M358.73 36.19L359.3 35.82M359.3 35.82L359.87 35.44M359.87 35.44L360.42 35.08M360.42 35.08L360.97 34.72M360.97 34.72L361.51 34.36M361.51 34.36L362.04 34.01M362.04 34.01L362.56 33.67M362.56 33.67L363.08 33.34M363.08 33.34L363.58 33.01M363.58 33.01L364.08 32.69M364.08 32.69L364.58 32.38M364.58 32.38L365.07 32.07M365.07 32.07L365.57 31.76M365.57 31.76L366.06 31.46M366.06 31.46L366.55 31.16M366.55 31.16L367.04 30.87M367.04 30.87L367.53 30.58M367.53 30.58L368.01 30.29M368.01 30.29L368.5 30.01M368.5 30.01L368.98 29.73M368.98 29.73L369.46 29.46M369.46 29.46L369.94 29.19M369.94 29.19L370.41 28.93M370.41 28.93L370.89 28.67M370.89 28.67L371.36 28.42M371.36 28.42L371.83 28.17M371.83 28.17L372.3 27.92M372.3 27.92L372.77 27.69M372.77 27.69L373.24 27.45M373.24 27.45L373.7 27.22M373.7 27.22L374.16 27M374.16 27L374.62 26.78M374.62 26.78L375.08 26.57M375.08 26.57L375.54 26.36M375.54 26.36L376 26.16M376 26.16L376.46 25.96M376.46 25.96L376.92 25.76M376.92 25.76L377.38 25.57M377.38 25.57L377.85 25.38M377.85 25.38L378.31 25.2M378.31 25.2L378.77 25.02M378.77 25.02L379.24 24.84M379.24 24.84L379.7 24.67M379.7 24.67L380.17 24.5M380.17 24.5L380.64 24.34M380.64 24.34L381.11 24.18M381.11 24.18L381.58 24.02M381.58 24.02L382.05 23.87M382.05 23.87L382.52 23.72M382.52 23.72L383 23.58M383 23.58L383.47 23.44M383.47 23.44L383.95 23.3M383.95 23.3L384.43 23.17M384.43 23.17L384.9 23.04M384.9 23.04L385.38 22.92M385.38 22.92L385.86 22.8M385.86 22.8L386.35 22.68M386.35 22.68L386.83 22.57M386.83 22.57L387.32 22.46M387.32 22.46L387.8 22.36M387.8 22.36L388.29 22.26M388.29 22.26L388.78 22.17M388.78 22.17L389.27 22.07M389.27 22.07L389.76 21.99M389.76 21.99L390.26 21.9M390.26 21.9L390.75 21.82M390.75 21.82L391.25 21.75M391.25 21.75L391.75 21.68M391.75 21.68L392.25 21.61M392.25 21.61L392.76 21.55M392.76 21.55L393.26 21.49M393.26 21.49L393.77 21.44M393.77 21.44L394.27 21.39M394.27 21.39L394.78 21.34M394.78 21.34L395.3 21.3M395.3 21.3L395.81 21.26M395.81 21.26L396.33 21.23M396.33 21.23L396.85 21.2M396.85 21.2L397.37 21.18M397.37 21.18L397.89 21.16M397.89 21.16L398.41 21.14M398.41 21.14L398.94 21.13M398.94 21.13L399.47 21.12M399.47 21.12L400 21.12M400 21.12L400.53 21.12M400.53 21.12L401.06 21.13M401.06 21.13L401.59 21.14M401.59 21.14L402.11 21.16M402.11 21.16L402.63 21.18M402.63 21.18L403.15 21.2M403.15 21.2L403.67 21.23M403.67 21.23L404.19 21.26M404.19 21.26L404.7 21.3M404.7 21.3L405.21 21.34M405.21 21.34L405.72 21.39M405.72 21.39L406.23 21.44M406.23 21.44L406.74 21.49M406.74 21.49L407.24 21.55M407.24 21.55L407.75 21.61M407.75 21.61L408.25 21.68M408.25 21.68L408.75 21.75M408.75 21.75L409.24 21.82M409.24 21.82L409.74 21.9M409.74 21.9L410.24 21.99M410.24 21.99L410.73 22.07M410.73 22.07L411.22 22.17M411.22 22.17L411.71 22.26M411.71 22.26L412.2 22.36M412.2 22.36L412.68 22.46M412.68 22.46L413.17 22.57M413.17 22.57L413.65 22.68M413.65 22.68L414.13 22.8M414.13 22.8L414.62 22.92M414.62 22.92L415.1 23.04M415.1 23.04L415.57 23.17M415.57 23.17L416.05 23.3M416.05 23.3L416.53 23.44M416.53 23.44L417 23.58M417 23.58L417.48 23.72M417.48 23.72L417.95 23.87M417.95 23.87L418.42 24.02M418.42 24.02L418.89 24.18M418.89 24.18L419.36 24.34M419.36 24.34L419.83 24.5M419.83 24.5L420.3 24.67M420.3 24.67L420.76 24.84M420.76 24.84L421.23 25.02M421.23 25.02L421.69 25.2M421.69 25.2L422.15 25.38M422.15 25.38L422.62 25.57M422.62 25.57L423.08 25.76M423.08 25.76L423.54 25.96M423.54 25.96L424 26.16M424 26.16L424.46 26.36M424.46 26.36L424.92 26.57M424.92 26.57L425.37 26.78M425.37 26.78L425.84 27M425.84 27L426.3 27.22M426.3 27.22L426.76 27.45M426.76 27.45L427.23 27.69M427.23 27.69L427.7 27.92M427.7 27.92L428.17 28.17M428.17 28.17L428.64 28.42M428.64 28.42L429.11 28.67M429.11 28.67L429.59 28.93M429.59 28.93L430.06 29.19M430.06 29.19L430.54 29.46M430.54 29.46L431.02 29.73M431.02 29.73L431.5 30.01M431.5 30.01L431.99 30.29M431.99 30.29L432.47 30.58M432.47 30.58L432.96 30.87M432.96 30.87L433.45 31.16M433.45 31.16L433.94 31.46M433.94 31.46L434.43 31.76M434.43 31.76L434.93 32.07M434.93 32.07L435.42 32.38M435.42 32.38L435.92 32.69M435.92 32.69L436.42 33.01M436.42 33.01L436.92 33.34M436.92 33.34L437.44 33.67M437.44 33.67L437.96 34.01M437.96 34.01L438.49 34.36M438.49 34.36L439.03 34.72M439.03 34.72L439.58 35.08M439.58 35.08L440.13 35.44M440.13 35.44L440.7 35.82M440.7 35.82L441.27 36.19M441.27 36.19L441.86 36.58M441.86 36.58L442.45 36.96M442.45 36.96L443.05 37.35M443.05 37.35L443.67 37.75M443.67 37.75L444.29 38.15M444.29 38.15L444.92 38.55M444.92 38.55L445.57 38.96M445.57 38.96L446.22 39.36M446.22 39.36L446.89 39.77M446.89 39.77L447.56 40.18M447.56 40.18L447.91 40.38M447.91 40.38L448.25 40.59M448.25 40.59L448.6 40.79M448.6 40.79L448.96 41M448.96 41L449.31 41.2M449.31 41.2L449.67 41.4M449.67 41.4L450.03 41.61M450.03 41.61L450.4 41.81M450.4 41.81L450.77 42.01M450.77 42.01L451.14 42.22M451.14 42.22L451.89 42.62M451.89 42.62L452.64 43.01M452.64 43.01L453.4 43.39M453.4 43.39L454.16 43.77M454.16 43.77L454.92 44.14M454.92 44.14L455.69 44.5M455.69 44.5L456.46 44.85M456.46 44.85L457.24 45.19M457.24 45.19L458.02 45.53M458.02 45.53L458.8 45.86M458.8 45.86L459.58 46.18M459.58 46.18L460.37 46.49M460.37 46.49L461.16 46.79M461.16 46.79L461.96 47.09M461.96 47.09L462.76 47.37M462.76 47.37L463.56 47.65M463.56 47.65L464.36 47.92M464.36 47.92L465.17 48.18M465.17 48.18L465.98 48.44M465.98 48.44L466.79 48.68M466.79 48.68L467.61 48.92M467.61 48.92L468.43 49.15M468.43 49.15L469.25 49.37M469.25 49.37L470.07 49.58M470.07 49.58L470.9 49.78M470.9 49.78L471.73 49.98M471.73 49.98L472.56 50.17M472.56 50.17L473.39 50.34M473.39 50.34L474.23 50.52"
fill="none" stroke="black" stroke-width="0.5"/>
<path d="M461.92 60.07L462.31 59.78M462.31 59.78L462.7 59.49M462.7 59.49L463.09 59.2M463.09 59.2L463.48 58.91M463.48 58.91L463.87 58.62M463.87 58.62L464.26 58.33M464.26 58.33L464.65 58.04M464.65 58.04L465.04 57.74M465.04 57.74L465.43 57.45M465.43 57.45L465.81 57.15M465.81 57.15L466.2 56.86M466.2 56.86L466.59 56.56M466.59 56.56L466.98 56.27M466.98 56.27L467.36 55.97M467.36 55.97L467.75 55.67M467.75 55.67L468.13 55.38M468.13 55.38L468.52 55.08M468.52 55.08L468.9 54.78M468.9 54.78L469.28 54.48M469.28 54.48L469.67 54.18M469.67 54.18L470.05 53.88M470.05 53.88L470.43 53.57M470.43 53.57L470.82 53.27M470.82 53.27L471.2 52.97M471.2 52.97L471.58 52.66M471.58 52.66L471.96 52.36M471.96 52.36L472.34 52.05M472.34 52.05L472.72 51.75M472.72 51.75L473.1 51.44M473.1 51.44L473.47 51.13M473.47 51.13L473.85 50.82M473.85 50.82L474.23 50.52"
fill="none" stroke="black" stroke-width="0.5"/>
<path d="M306.35 32.92L307.21 32.91M307.21 32.91L308.07 32.9M308.07 32.9L308.92 32.88M308.92 32.88L309.77 32.85M309.77 32.85L310.61 32.82M310.61 32.82L311.45 32.78M311.45 32.78L312.28 32.73M312.28 32.73L313.1 32.67M313.1 32.67L313.92 32.6M313.92 32.6L314.74 32.53M314.74 32.53L315.55 32.44M315.55 32.44L316.35 32.35M316.35 32.35L317.15 32.26M317.15 32.26L317.94 32.15M317.94 32.15L318.73 32.03M318.73 32.03L319.51 31.91M319.51 31.91L320.29 31.78M320.29 31.78L321.06 31.64M321.06 31.64L321.83 31.49M321.83 31.49L322.6 31.34M322.6 31.34L323.36 31.18M323.36 31.18L324.11 31M324.11 31L324.86 30.82M324.86 30.82L325.61 30.63M325.61 30.63L326.35 30.44M326.35 30.44L327.09 30.23M327.09 30.23L327.82 30.02M327.82 30.02L328.55 29.8M328.55 29.8L329.28 29.57M329.28 29.57L330 29.33M330 29.33L330.72 29.08M330.72 29.08L331.43 28.82M331.43 28.82L332.14 28.56M332.14 28.56L332.85 28.28M332.85 28.28L333.55 28M333.55 28L334.25 27.71M334.25 27.71L334.95 27.41M334.95 27.41L335.64 27.1M335.64 27.1L336.33 26.79M336.33 26.79L337.02 26.46M337.02 26.46L337.7 26.13M337.7 26.13L338.38 25.78M338.38 25.78L339.06 25.43M339.06 25.43L339.73 25.07M339.73 25.07L340.41 24.7M340.41 24.7L341.08 24.32M341.08 24.32L341.74 23.93M341.74 23.93L342.41 23.54M342.41 23.54L343.07 23.14M343.07 23.14L343.73 22.74M343.73 22.74L344.39 22.32M344.39 22.32L345.05 21.91M345.05 21.91L346.36 21.07M346.36 21.07L347.68 20.21M347.68 20.21L350.3 18.49M350.3 18.49L351.61 17.62M351.61 17.62L352.93 16.77M352.93 16.77L354.26 15.92M354.26 15.92L354.92 15.51M354.92 15.51L355.59 15.09M355.59 15.09L356.26 14.69M356.26 14.69L356.93 14.28M356.93 14.28L357.6 13.88M357.6 13.88L358.27 13.48M358.27 13.48L358.95 13.09M358.95 13.09L359.63 12.7M359.63 12.7L360.31 12.32M360.31 12.32L360.99 11.94M360.99 11.94L361.67 11.57M361.67 11.57L362.36 11.2M362.36 11.2L363.05 10.84M363.05 10.84L363.74 10.49M363.74 10.49L364.43 10.14M364.43 10.14L365.13 9.79M365.13 9.79L365.83 9.45M365.83 9.45L366.53 9.12M366.53 9.12L367.23 8.8M367.23 8.8L367.94 8.48M367.94 8.48L368.65 8.17M368.65 8.17L369.36 7.87M369.36 7.87L370.07 7.57M370.07 7.57L370.79 7.28M370.79 7.28L371.51 7M371.51 7L372.23 6.72M372.23 6.72L372.96 6.45M372.96 6.45L373.69 6.19M373.69 6.19L374.42 5.94M374.42 5.94L375.15 5.69M375.15 5.69L375.88 5.45M375.88 5.45L376.62 5.22M376.62 5.22L377.36 4.99M377.36 4.99L378.11 4.77M378.11 4.77L378.85 4.56M378.85 4.56L379.6 4.35M379.6 4.35L380.35 4.16M380.35 4.16L381.11 3.97M381.11 3.97L381.86 3.78M381.86 3.78L382.62 3.61M382.62 3.61L383.39 3.44M383.39 3.44L384.15 3.28M384.15 3.28L384.92 3.13M384.92 3.13L385.69 2.98M385.69 2.98L386.46 2.85M386.46 2.85L387.24 2.72M387.24 2.72L388.01 2.59M388.01 2.59L388.79 2.48M388.79 2.48L389.58 2.37M389.58 2.37L390.36 2.27M390.36 2.27L391.15 2.18M391.15 2.18L391.94 2.1M391.94 2.1L392.74 2.02M392.74 2.02L393.53 1.96M393.53 1.96L394.33 1.9M394.33 1.9L395.13 1.84M395.13 1.84L395.94 1.8M395.94 1.8L396.75 1.76M396.75 1.76L397.55 1.73M397.55 1.73L398.37 1.71M398.37 1.71L399.18 1.7M399.18 1.7L400 1.7M400 1.7L400.82 1.7M400.82 1.7L401.63 1.71M401.63 1.71L402.44 1.73M402.44 1.73L403.25 1.76M403.25 1.76L404.06 1.8M404.06 1.8L404.87 1.84M404.87 1.84L405.67 1.9M405.67 1.9L406.47 1.96M406.47 1.96L407.26 2.02M407.26 2.02L408.06 2.1M408.06 2.1L408.85 2.18M408.85 2.18L409.64 2.27M409.64 2.27L410.42 2.37M410.42 2.37L411.21 2.48M411.21 2.48L411.99 2.59M411.99 2.59L412.76 2.72M412.76 2.72L413.54 2.85M413.54 2.85L414.31 2.98M414.31 2.98L415.08 3.13M415.08 3.13L415.85 3.28M415.85 3.28L416.61 3.44M416.61 3.44L417.38 3.61M417.38 3.61L418.13 3.78M418.13 3.78L418.89 3.97M418.89 3.97L419.65 4.16M419.65 4.16L420.4 4.35M420.4 4.35L421.15 4.56M421.15 4.56L421.89 4.77M421.89 4.77L422.64 4.99M422.64 4.99L423.38 5.21M423.38 5.21L424.11 5.45M424.11 5.45L424.85 5.69M424.85 5.69L425.58 5.94M425.58 5.94L426.31 6.19M426.31 6.19L427.04 6.45M427.04 6.45L427.77 6.72M427.77 6.72L428.49 7M428.49 7L429.21 7.28M429.21 7.28L429.93 7.57M429.93 7.57L430.64 7.87M430.64 7.87L431.35 8.17M431.35 8.17L432.06 8.48M432.06 8.48L432.77 8.8M432.77 8.8L433.47 9.12M433.47 9.12L434.17 9.45M434.17 9.45L434.87 9.79M434.87 9.79L435.57 10.14M435.57 10.14L436.26 10.49M436.26 10.49L436.95 10.84M436.95 10.84L437.64 11.2M437.64 11.2L438.33 11.57M438.33 11.57L439.01 11.94M439.01 11.94L439.69 12.32M439.69 12.32L440.37 12.7M440.37 12.7L441.05 13.09M441.05 13.09L441.73 13.48M441.73 13.48L442.4 13.88M442.4 13.88L443.07 14.28M443.07 14.28L443.74 14.69M443.74 14.69L444.41 15.09M444.41 15.09L445.08 15.51M445.08 15.51L445.74 15.92M445.74 15.92L447.07 16.77M447.07 16.77L448.39 17.62M448.39 17.62L449.7 18.48M449.7 18.48L452.32 20.21M452.32 20.21L453.63 21.07M453.63 21.07L454.95 21.91M454.95 21.91L455.61 22.32M455.61 22.32L456.27 22.74M456.27 22.74L456.93 23.14M456.93 23.14L457.59 23.54M457.59 23.54L458.26 23.93M458.26 23.93L458.92 24.32M458.92 24.32L459.59 24.7M459.59 24.7L460.27 25.07M460.27 25.07L460.94 25.43M460.94 25.43L461.62 25.78M461.62 25.78L462.3 26.13M462.3 26.13L462.98 26.46M462.98 26.46L463.67 26.79M463.67 26.79L464.36 27.1M464.36 27.1L465.05 27.41M465.05 27.41L465.75 27.71M465.75 27.71L466.45 28M466.45 28L467.15 28.28M467.15 28.28L467.86 28.56M467.86 28.56L468.57 28.82M468.57 28.82L469.28 29.08M469.28 29.08L470 29.33M470 29.33L470.72 29.57M470.72 29.57L471.45 29.8M471.45 29.8L472.18 30.02M472.18 30.02L472.91 30.23M472.91 30.23L473.65 30.44M473.65 30.44L474.39 30.63M474.39 30.63L475.14 30.82M475.14 30.82L475.89 31M475.89 31L476.64 31.18M476.64 31.18L477.4 31.34M477.4 31.34L478.17 31.49M478.17 31.49L478.94 31.64M478.94 31.64L479.71 31.78M479.71 31.78L480.49 31.91M480.49 31.91L481.27 32.03M481.27 32.03L482.06 32.15M482.06 32.15L482.85 32.26M482.85 32.26L483.65 32.35M483.65 32.35L484.45 32.44M484.45 32.44L485.26 32.53M485.26 32.53L486.08 32.6M486.08 32.6L486.9 32.67M486.9 32.67L487.72 32.73M487.72 32.73L488.55 32.78M488.55 32.78L489.39 32.82M489.39 32.82L490.23 32.85M490.23 32.85L491.08 32.88M491.08 32.88L491.93 32.9M491.93 32.9L492.79 32.91M492.79 32.91L493.65 32.92"
fill="none" stroke="black" stroke-width="0.5"/>
<path d="M493.65 32.92L493.05 33.52M493.05 33.52L492.44 34.12"
fill="none" stroke="black" stroke-width="0.5"/>
<path d="M307.56 34.12L308.42 34.11M308.42 34.11L309.27 34.09M309.27 34.09L310.12 34.06M310.12 34.06L310.96 34.02M310.96 34.02L311.8 33.97M311.8 33.97L312.63 33.92M312.63 33.92L313.46 33.86M313.46 33.86L314.28 33.79M314.28 33.79L315.09 33.71M315.09 33.71L315.9 33.63M315.9 33.63L316.71 33.53M316.71 33.53L317.51 33.43M317.51 33.43L318.31 33.32M318.31 33.32L319.1 33.21M319.1 33.21L319.88 33.08M319.88 33.08L320.67 32.95M320.67 32.95L321.44 32.81M321.44 32.81L322.22 32.66M322.22 32.66L322.99 32.5M322.99 32.5L323.75 32.33M323.75 32.33L324.51 32.16M324.51 32.16L325.27 31.97M325.27 31.97L326.02 31.78M326.02 31.78L326.76 31.58M326.76 31.58L327.51 31.38M327.51 31.38L328.25 31.16M328.25 31.16L328.98 30.93M328.98 30.93L329.71 30.7M329.71 30.7L330.44 30.46M330.44 30.46L331.17 30.21M331.17 30.21L331.89 29.95M331.89 29.95L332.6 29.68M332.6 29.68L333.31 29.41M333.31 29.41L334.02 29.12M334.02 29.12L334.73 28.83M334.73 28.83L335.43 28.52M335.43 28.52L336.13 28.21M336.13 28.21L336.83 27.89M336.83 27.89L337.52 27.57M337.52 27.57L338.21 27.23M338.21 27.23L338.9 26.88M338.9 26.88L339.58 26.53M339.58 26.53L340.26 26.16M340.26 26.16L340.94 25.79M340.94 25.79L341.61 25.41M341.61 25.41L342.28 25.03M342.28 25.03L342.95 24.63M342.95 24.63L343.61 24.23M343.61 24.23L344.27 23.83M344.27 23.83L344.93 23.42M344.93 23.42L345.59 23M345.59 23L346.25 22.59M346.25 22.59L347.55 21.74M347.55 21.74L348.85 20.89M348.85 20.89L351.45 19.18M351.45 19.18L352.75 18.33M352.75 18.33L354.04 17.5M354.04 17.5L354.7 17.08M354.7 17.08L355.35 16.67M355.35 16.67L356 16.27M356 16.27L356.66 15.86M356.66 15.86L357.31 15.47M357.31 15.47L357.97 15.07M357.97 15.07L358.63 14.68M358.63 14.68L359.29 14.29M359.29 14.29L359.95 13.91M359.95 13.91L360.62 13.54M360.62 13.54L361.29 13.16M361.29 13.16L361.95 12.8M361.95 12.8L362.62 12.44M362.62 12.44L363.3 12.08M363.3 12.08L363.97 11.73M363.97 11.73L364.65 11.39M364.65 11.39L365.32 11.05M365.32 11.05L366.01 10.72M366.01 10.72L366.69 10.39M366.69 10.39L367.37 10.07M367.37 10.07L368.06 9.76M368.06 9.76L368.75 9.45M368.75 9.45L369.44 9.15M369.44 9.15L370.14 8.86M370.14 8.86L370.83 8.57M370.83 8.57L371.53 8.29M371.53 8.29L372.23 8.02M372.23 8.02L372.94 7.75M372.94 7.75L373.65 7.5M373.65 7.5L374.36 7.24M374.36 7.24L375.07 7M375.07 7L375.78 6.76M375.78 6.76L376.5 6.53M376.5 6.53L377.22 6.3M377.22 6.3L377.94 6.08M377.94 6.08L378.67 5.87M378.67 5.87L379.39 5.67M379.39 5.67L380.12 5.47M380.12 5.47L380.86 5.28M380.86 5.28L381.59 5.1M381.59 5.1L382.33 4.92M382.33 4.92L383.07 4.75M383.07 4.75L383.81 4.59M383.81 4.59L384.56 4.44M384.56 4.44L385.3 4.29M385.3 4.29L386.05 4.15M386.05 4.15L386.81 4.02M386.81 4.02L387.56 3.89M387.56 3.89L388.32 3.78M388.32 3.78L389.08 3.67M389.08 3.67L389.84 3.56M389.84 3.56L390.61 3.47M390.61 3.47L391.38 3.38M391.38 3.38L392.15 3.3M392.15 3.3L392.92 3.23M392.92 3.23L393.7 3.16M393.7 3.16L394.48 3.1M394.48 3.1L395.26 3.05M395.26 3.05L396.04 3.01M396.04 3.01L396.83 2.97M396.83 2.97L397.62 2.95M397.62 2.95L398.41 2.93M398.41 2.93L399.2 2.92M399.2 2.92L400 2.91M400 2.91L400.8 2.92M400.8 2.92L401.59 2.93M401.59 2.93L402.38 2.95M402.38 2.95L403.17 2.97M403.17 2.97L403.96 3.01M403.96 3.01L404.74 3.05M404.74 3.05L405.52 3.1M405.52 3.1L406.3 3.16M406.3 3.16L407.08 3.23M407.08 3.23L407.85 3.3M407.85 3.3L408.62 3.38M408.62 3.38L409.39 3.47M409.39 3.47L410.15 3.56M410.15 3.56L410.92 3.67M410.92 3.67L411.68 3.78M411.68 3.78L412.44 3.89M412.44 3.89L413.19 4.02M413.19 4.02L413.94 4.15M413.94 4.15L414.69 4.29M414.69 4.29L415.44 4.44M415.44 4.44L416.19 4.59M416.19 4.59L416.93 4.75M416.93 4.75L417.67 4.92M417.67 4.92L418.41 5.1M418.41 5.1L419.14 5.28M419.14 5.28L419.88 5.47M419.88 5.47L420.6 5.67M420.6 5.67L421.33 5.87M421.33 5.87L422.06 6.08M422.06 6.08L422.78 6.3M422.78 6.3L423.5 6.53M423.5 6.53L424.22 6.76M424.22 6.76L424.93 7M424.93 7L425.64 7.24M425.64 7.24L426.35 7.49M426.35 7.49L427.06 7.75M427.06 7.75L427.76 8.02M427.76 8.02L428.47 8.29M428.47 8.29L429.17 8.57M429.17 8.57L429.86 8.86M429.86 8.86L430.56 9.15M430.56 9.15L431.25 9.45M431.25 9.45L431.94 9.76M431.94 9.76L432.63 10.07M432.63 10.07L433.31 10.39M433.31 10.39L433.99 10.72M433.99 10.72L434.67 11.05M434.67 11.05L435.35 11.39M435.35 11.39L436.03 11.73M436.03 11.73L436.7 12.08M436.7 12.08L437.38 12.44M437.38 12.44L438.05 12.8M438.05 12.8L438.71 13.16M438.71 13.16L439.38 13.54M439.38 13.54L440.05 13.91M440.05 13.91L440.71 14.29M440.71 14.29L441.37 14.68M441.37 14.68L442.03 15.07M442.03 15.07L442.69 15.46M442.69 15.46L443.34 15.86M443.34 15.86L444 16.27M444 16.27L444.65 16.67M444.65 16.67L445.3 17.08M445.3 17.08L445.96 17.5M445.96 17.5L447.25 18.33M447.25 18.33L448.55 19.18M448.55 19.18L451.14 20.89M451.14 20.89L452.45 21.74M452.45 21.74L453.75 22.59M453.75 22.59L454.41 23M454.41 23L455.07 23.42M455.07 23.42L455.73 23.83M455.73 23.83L456.39 24.23M456.39 24.23L457.05 24.63M457.05 24.63L457.72 25.03M457.72 25.03L458.39 25.41M458.39 25.41L459.06 25.79M459.06 25.79L459.74 26.16M459.74 26.16L460.42 26.53M460.42 26.53L461.1 26.88M461.1 26.88L461.79 27.23M461.79 27.23L462.48 27.57M462.48 27.57L463.17 27.89M463.17 27.89L463.87 28.21M463.87 28.21L464.57 28.52M464.57 28.52L465.27 28.83M465.27 28.83L465.98 29.12M465.98 29.12L466.69 29.41M466.69 29.41L467.4 29.68M467.4 29.68L468.11 29.95M468.11 29.95L468.83 30.21M468.83 30.21L469.56 30.46M469.56 30.46L470.29 30.7M470.29 30.7L471.02 30.93M471.02 30.93L471.75 31.16M471.75 31.16L472.49 31.38M472.49 31.38L473.24 31.58M473.24 31.58L473.98 31.78M473.98 31.78L474.73 31.97M474.73 31.97L475.49 32.16M475.49 32.16L476.25 32.33M476.25 32.33L477.01 32.5M477.01 32.5L477.78 32.66M477.78 32.66L478.56 32.81M478.56 32.81L479.33 32.95M479.33 32.95L480.12 33.08M480.12 33.08L480.9 33.21M480.9 33.21L481.69 33.32M481.69 33.32L482.49 33.43M482.49 33.43L483.29 33.53M483.29 33.53L484.1 33.63M484.1 33.63L484.91 33.71M484.91 33.71L485.72 33.79M485.72 33.79L486.54 33.86M486.54 33.86L487.37 33.92M487.37 33.92L488.2 33.97M488.2 33.97L489.04 34.02M489.04 34.02L489.88 34.06M489.88 34.06L490.73 34.09M490.73 34.09L491.58 34.11M491.58 34.11L492.44 34.12"
fill="none" stroke="black" stroke-width="0.5"/>
<path d="M306.35 32.92L306.95 33.52M306.95 33.52L307.56 34.12"
fill="none" stroke="black" stroke-width="0.5"/>
<path d="M491.92 596.57L491.41 596.06M491.41 596.06L491.35 596M491.35 596L491.28 595.93M491.28 595.93L491.22 595.87M491.22 595.87L491.15 595.8M491.15 595.8L491.08 595.73M491.08 595.73L491 595.65M491 595.65L490.93 595.58M490.93 595.58L490.86 595.51M490.86 595.51L490.78 595.43M490.78 595.43L490.7 595.35M490.7 595.35L490.55 595.2M490.55 595.2L490.4 595.04M490.4 595.04L490.24 594.89M490.24 594.89L490.08 594.73M490.08 594.73L489.93 594.57M489.93 594.57L489.85 594.5M489.85 594.5L489.77 594.42M489.77 594.42L489.69 594.34M489.69 594.34L489.61 594.26M489.61 594.26L489.54 594.19M489.54 594.19L489.46 594.11M489.46 594.11L489.39 594.04M489.39 594.04L489.31 593.96M489.31 593.96L489.24 593.89M489.24 593.89L489.17 593.82M489.17 593.82L489.09 593.74M489.09 593.74L489.02 593.67M489.02 593.67L488.96 593.6M488.96 593.6L488.92 593.57M488.92 593.57L488.89 593.54M488.89 593.54L488.86 593.5M488.86 593.5L488.82 593.47M488.82 593.47L488.79 593.44M488.79 593.44L488.76 593.41M488.76 593.41L488.73 593.38M488.73 593.38L488.7 593.35M488.7 593.35L488.64 593.29M488.64 593.29L488.52 593.17M488.52 593.17L487.58 592.23"
fill="none" stroke="black" stroke-width="0.5"/>
<path d="M491.92 402.32L491.41 402.83M491.41 402.83L491.35 402.89M491.35 402.89L491.28 402.96M491.28 402.96L491.22 403.03M491.22 403.03L491.15 403.1M491.15 403.1L491.08 403.17M491.08 403.17L491 403.24M491 403.24L490.93 403.31M490.93 403.31L490.86 403.39M490.86 403.39L490.78 403.46M490.78 403.46L490.7 403.54M490.7 403.54L490.55 403.69M490.55 403.69L490.4 403.85M490.4 403.85L490.24 404M490.24 404L490.08 404.16M490.08 404.16L489.93 404.32M489.93 404.32L489.85 404.4M489.85 404.4L489.77 404.47M489.77 404.47L489.69 404.55M489.69 404.55L489.61 404.63M489.61 404.63L489.54 404.71M489.54 404.71L489.46 404.78M489.46 404.78L489.39 404.86M489.39 404.86L489.31 404.93M489.31 404.93L489.24 405M489.24 405L489.17 405.08M489.17 405.08L489.09 405.15M489.09 405.15L489.02 405.22M489.02 405.22L488.96 405.29M488.96 405.29L488.92 405.32M488.92 405.32L488.89 405.35M488.89 405.35L488.86 405.39M488.86 405.39L488.82 405.42M488.82 405.42L488.79 405.45M488.79 405.45L488.76 405.48M488.76 405.48L488.73 405.51M488.73 405.51L488.7 405.54M488.7 405.54L488.64 405.6M488.64 405.6L488.52 405.72M488.52 405.72L487.58 406.66"
fill="none" stroke="black" stroke-width="0.5"/>
<path d="M308.08 596.57L308.59 596.06M308.59 596.06L308.65 596M308.65 596L308.72 595.93M308.72 595.93L308.78 595.87M308.78 595.87L308.85 595.8M308.85 595.8L308.92 595.73M308.92 595.73L309 595.65M309 595.65L309.07 595.58M309.07 595.58L309.14 595.51M309.14 595.51L309.22 595.43M309.22 595.43L309.3 595.35M309.3 595.35L309.45 595.2M309.45 595.2L309.6 595.04M309.6 595.04L309.76 594.89M309.76 594.89L309.92 594.73M309.92 594.73L310.07 594.57M310.07 594.57L310.15 594.5M310.15 594.5L310.23 594.42M310.23 594.42L310.31 594.34M310.31 594.34L310.39 594.26M310.39 594.26L310.46 594.19M310.46 594.19L310.54 594.11M310.54 594.11L310.61 594.04M310.61 594.04L310.69 593.96M310.69 593.96L310.76 593.89M310.76 593.89L310.83 593.82M310.83 593.82L310.91 593.74M310.91 593.74L310.98 593.67M310.98 593.67L311.04 593.6M311.04 593.6L311.08 593.57M311.08 593.57L311.11 593.54M311.11 593.54L311.14 593.5M311.14 593.5L311.18 593.47M311.18 593.47L311.21 593.44M311.21 593.44L311.24 593.41M311.24 593.41L311.27 593.38M311.27 593.38L311.3 593.35M311.3 593.35L311.36 593.29M311.36 593.29L311.48 593.17M311.48 593.17L312.42 592.23"
fill="none" stroke="black" stroke-width="0.5"/>
<path d="M308.08 402.32L308.59 402.83M308.59 402.83L308.65 402.89M308.65 402.89L308.72 402.96M308.72 402.96L308.78 403.03M308.78 403.03L308.85 403.1M308.85 403.1L308.92 403.17M308.92 403.17L309 403.24M309 403.24L309.07 403.31M309.07 403.31L309.14 403.39M309.14 403.39L309.22 403.46M309.22 403.46L309.3 403.54M309.3 403.54L309.45 403.69M309.45 403.69L309.6 403.85M309.6 403.85L309.76 404M309.76 404L309.92 404.16M309.92 404.16L310.07 404.32M310.07 404.32L310.15 404.4M310.15 404.4L310.23 404.47M310.23 404.47L310.31 404.55M310.31 404.55L310.39 404.63M310.39 404.63L310.46 404.71M310.46 404.71L310.54 404.78M310.54 404.78L310.61 404.86M310.61 404.86L310.69 404.93M310.69 404.93L310.76 405M310.76 405L310.83 405.08M310.83 405.08L310.91 405.15M310.91 405.15L310.98 405.22M310.98 405.22L311.04 405.29M311.04 405.29L311.08 405.32M311.08 405.32L311.11 405.35M311.11 405.35L311.14 405.39M311.14 405.39L311.18 405.42M311.18 405.42L311.21 405.45M311.21 405.45L311.24 405.48M311.24 405.48L311.27 405.51M311.27 405.51L311.3 405.54M311.3 405.54L311.36 405.6M311.36 405.6L311.48 405.72M311.48 405.72L312.42 406.66"
fill="none" stroke="black" stroke-width="0.5"/>
<path d="M481.17 44.63L481.32 44.5M481.32 44.5L481.47 44.36M481.47 44.36L481.62 44.23M481.62 44.23L481.77 44.09M481.77 44.09L481.93 43.95M481.93 43.95L482.09 43.81M482.09 43.81L482.25 43.67M482.25 43.67L482.41 43.53M482.41 43.53L482.57 43.39M482.57 43.39L482.73 43.24M482.73 43.24L482.9 43.09M482.9 43.09L483.07 42.94M483.07 42.94L483.23 42.79M483.23 42.79L483.4 42.64M483.4 42.64L483.58 42.48M483.58 42.48L483.75 42.33M483.75 42.33L484.09 42.02M484.09 42.02L484.44 41.7M484.44 41.7L484.79 41.39M484.79 41.39L485.14 41.07M485.14 41.07L485.49 40.75M485.49 40.75L485.84 40.42M485.84 40.42L486.19 40.1M486.19 40.1L486.55 39.77"
fill="none" stroke="black" stroke-width="0.5"/>
<path d="M318.83 44.63L319.67 44.52M319.67 44.52L320.5 44.4M320.5 44.4L321.32 44.27M321.32 44.27L322.15 44.13M322.15 44.13L322.97 43.99M322.97 43.99L323.78 43.84M323.78 43.84L324.6 43.68M324.6 43.68L325.41 43.51M325.41 43.51L326.22 43.33M326.22 43.33L327.02 43.15M327.02 43.15L327.83 42.95M327.83 42.95L328.63 42.75M328.63 42.75L329.42 42.54M329.42 42.54L330.21 42.32M330.21 42.32L331 42.1M331 42.1L331.79 41.86M331.79 41.86L332.58 41.62M332.58 41.62L333.36 41.37M333.36 41.37L334.13 41.11M334.13 41.11L334.91 40.84M334.91 40.84L335.68 40.56M335.68 40.56L336.45 40.28M336.45 40.28L337.21 39.99M337.21 39.99L337.97 39.68M337.97 39.68L338.73 39.37M338.73 39.37L339.48 39.06M339.48 39.06L340.23 38.73M340.23 38.73L340.98 38.39M340.98 38.39L341.72 38.05M341.72 38.05L342.46 37.7M342.46 37.7L343.2 37.34M343.2 37.34L343.93 36.97M343.93 36.97L344.66 36.59M344.66 36.59L345.39 36.21M345.39 36.21L346.11 35.81M346.11 35.81L346.82 35.42M346.82 35.42L347.52 35.02M347.52 35.02L348.21 34.62M348.21 34.62L348.89 34.21M348.89 34.21L349.56 33.81M349.56 33.81L350.23 33.4M350.23 33.4L350.88 32.99M350.88 32.99L351.53 32.59M351.53 32.59L352.17 32.18M352.17 32.18L352.8 31.78M352.8 31.78L353.42 31.37M353.42 31.37L354.04 30.97M354.04 30.97L354.65 30.57M354.65 30.57L355.25 30.18M355.25 30.18L355.85 29.78M355.85 29.78L356.44 29.39M356.44 29.39L357.02 29.01M357.02 29.01L357.6 28.63M357.6 28.63L358.17 28.26M358.17 28.26L358.74 27.89M358.74 27.89L359.3 27.52M359.3 27.52L359.85 27.16M359.85 27.16L360.4 26.81M360.4 26.81L360.95 26.46M360.95 26.46L361.5 26.12M361.5 26.12L362.05 25.78M362.05 25.78L362.6 25.44M362.6 25.44L363.15 25.11M363.15 25.11L363.69 24.78M363.69 24.78L364.24 24.46M364.24 24.46L364.78 24.14M364.78 24.14L365.33 23.83M365.33 23.83L365.87 23.52M365.87 23.52L366.42 23.21M366.42 23.21L366.96 22.91M366.96 22.91L367.5 22.62M367.5 22.62L368.04 22.32M368.04 22.32L368.58 22.04M368.58 22.04L369.12 21.76M369.12 21.76L369.66 21.48M369.66 21.48L370.2 21.21M370.2 21.21L370.74 20.95M370.74 20.95L371.28 20.69M371.28 20.69L371.81 20.44M371.81 20.44L372.35 20.19M372.35 20.19L372.89 19.95M372.89 19.95L373.43 19.71M373.43 19.71L373.97 19.48M373.97 19.48L374.51 19.25M374.51 19.25L375.05 19.03M375.05 19.03L375.6 18.81M375.6 18.81L376.14 18.6M376.14 18.6L376.69 18.39M376.69 18.39L377.24 18.18M377.24 18.18L377.79 17.99M377.79 17.99L378.34 17.79M378.34 17.79L378.89 17.6M378.89 17.6L379.45 17.42M379.45 17.42L380.01 17.24M380.01 17.24L380.56 17.07M380.56 17.07L381.12 16.9M381.12 16.9L381.68 16.73M381.68 16.73L382.25 16.58M382.25 16.58L382.81 16.42M382.81 16.42L383.38 16.27M383.38 16.27L383.94 16.13M383.94 16.13L384.51 15.99M384.51 15.99L385.09 15.86M385.09 15.86L385.66 15.73M385.66 15.73L386.23 15.6M386.23 15.6L386.81 15.48M386.81 15.48L387.39 15.37M387.39 15.37L387.97 15.26M387.97 15.26L388.55 15.16M388.55 15.16L389.13 15.06M389.13 15.06L389.72 14.97M389.72 14.97L390.31 14.88M390.31 14.88L390.9 14.79M390.9 14.79L391.49 14.72M391.49 14.72L392.08 14.64M392.08 14.64L392.68 14.58M392.68 14.58L393.28 14.51M393.28 14.51L393.88 14.46M393.88 14.46L394.48 14.41M394.48 14.41L395.08 14.36M395.08 14.36L395.69 14.32M395.69 14.32L396.3 14.28M396.3 14.28L396.91 14.25M396.91 14.25L397.52 14.23M397.52 14.23L398.14 14.21M398.14 14.21L398.76 14.2M398.76 14.2L399.38 14.19M399.38 14.19L400 14.18M400 14.18L400.62 14.19M400.62 14.19L401.24 14.2M401.24 14.2L401.86 14.21M401.86 14.21L402.48 14.23M402.48 14.23L403.09 14.25M403.09 14.25L403.7 14.28M403.7 14.28L404.31 14.32M404.31 14.32L404.92 14.36M404.92 14.36L405.52 14.41M405.52 14.41L406.12 14.46M406.12 14.46L406.72 14.51M406.72 14.51L407.32 14.58M407.32 14.58L407.92 14.64M407.92 14.64L408.51 14.72M408.51 14.72L409.1 14.79M409.1 14.79L409.69 14.88M409.69 14.88L410.28 14.97M410.28 14.97L410.87 15.06M410.87 15.06L411.45 15.16M411.45 15.16L412.03 15.26M412.03 15.26L412.61 15.37M412.61 15.37L413.19 15.48M413.19 15.48L413.77 15.6M413.77 15.6L414.34 15.73M414.34 15.73L414.91 15.85M414.91 15.85L415.49 15.99M415.49 15.99L416.06 16.13M416.06 16.13L416.62 16.27M416.62 16.27L417.19 16.42M417.19 16.42L417.75 16.57M417.75 16.57L418.32 16.73M418.32 16.73L418.88 16.9M418.88 16.9L419.44 17.07M419.44 17.07L419.99 17.24M419.99 17.24L420.55 17.42M420.55 17.42L421.11 17.6M421.11 17.6L421.66 17.79M421.66 17.79L422.21 17.98M422.21 17.98L422.76 18.18M422.76 18.18L423.31 18.39M423.31 18.39L423.86 18.6M423.86 18.6L424.4 18.81M424.4 18.81L424.95 19.03M424.95 19.03L425.49 19.25M425.49 19.25L426.03 19.48M426.03 19.48L426.57 19.71M426.57 19.71L427.11 19.95M427.11 19.95L427.65 20.19M427.65 20.19L428.19 20.44M428.19 20.44L428.72 20.69M428.72 20.69L429.26 20.95M429.26 20.95L429.8 21.21M429.8 21.21L430.34 21.48M430.34 21.48L430.88 21.76M430.88 21.76L431.42 22.04M431.42 22.04L431.96 22.32M431.96 22.32L432.5 22.61M432.5 22.61L433.04 22.91M433.04 22.91L433.58 23.21M433.58 23.21L434.13 23.52M434.13 23.52L434.67 23.83M434.67 23.83L435.22 24.14M435.22 24.14L435.76 24.46M435.76 24.46L436.31 24.78M436.31 24.78L436.85 25.11M436.85 25.11L437.4 25.44M437.4 25.44L437.95 25.78M437.95 25.78L438.5 26.12M438.5 26.12L439.05 26.46M439.05 26.46L439.6 26.81M439.6 26.81L440.15 27.16M440.15 27.16L440.7 27.52M440.7 27.52L441.26 27.89M441.26 27.89L441.83 28.26M441.83 28.26L442.4 28.63M442.4 28.63L442.98 29.01M442.98 29.01L443.56 29.39M443.56 29.39L444.15 29.78M444.15 29.78L444.75 30.18M444.75 30.18L445.35 30.57M445.35 30.57L445.96 30.97M445.96 30.97L446.58 31.37M446.58 31.37L447.2 31.78M447.2 31.78L447.83 32.18M447.83 32.18L448.47 32.59M448.47 32.59L449.12 32.99M449.12 32.99L449.77 33.4M449.77 33.4L450.44 33.81M450.44 33.81L451.11 34.21M451.11 34.21L451.79 34.62M451.79 34.62L452.48 35.02M452.48 35.02L453.18 35.42M453.18 35.42L453.89 35.81M453.89 35.81L454.61 36.21M454.61 36.21L455.34 36.59M455.34 36.59L456.07 36.97M456.07 36.97L456.8 37.34M456.8 37.34L457.54 37.7M457.54 37.7L458.28 38.05M458.28 38.05L459.02 38.39M459.02 38.39L459.77 38.73M459.77 38.73L460.52 39.06M460.52 39.06L461.27 39.37M461.27 39.37L462.03 39.68M462.03 39.68L462.79 39.99M462.79 39.99L463.55 40.28M463.55 40.28L464.32 40.56M464.32 40.56L465.09 40.84M465.09 40.84L465.87 41.11M465.87 41.11L466.64 41.37M466.64 41.37L467.42 41.62M467.42 41.62L468.21 41.86M468.21 41.86L468.99 42.1M468.99 42.1L469.79 42.32M469.79 42.32L470.58 42.54M470.58 42.54L471.37 42.75M471.37 42.75L472.17 42.95M472.17 42.95L472.98 43.15M472.98 43.15L473.78 43.33M473.78 43.33L474.59 43.51M474.59 43.51L475.4 43.68M475.4 43.68L476.22 43.84M476.22 43.84L477.03 43.99M477.03 43.99L477.85 44.13M477.85 44.13L478.68 44.27M478.68 44.27L479.5 44.4M479.5 44.4L480.33 44.52M480.33 44.52L481.17 44.63"
fill="none" stroke="black" stroke-width="0.5"/>
<path d="M318.83 44.63L318.68 44.5M318.68 44.5L318.53 44.36M318.53 44.36L318.38 44.23M318.38 44.23L318.23 44.09M318.23 44.09L318.07 43.95M318.07 43.95L317.91 43.81M317.91 43.81L317.75 43.67M317.75 43.67L317.59 43.53M317.59 43.53L317.43 43.39M317.43 43.39L317.27 43.24M317.27 43.24L317.1 43.09M317.1 43.09L316.93 42.94M316.93 42.94L316.77 42.79M316.77 42.79L316.6 42.64M316.6 42.64L316.42 42.48M316.42 42.48L316.25 42.33M316.25 42.33L315.91 42.02M315.91 42.02L315.56 41.7M315.56 41.7L315.21 41.39M315.21 41.39L314.86 41.07M314.86 41.07L314.51 40.75M314.51 40.75L314.16 40.42M314.16 40.42L313.81 40.1M313.81 40.1L313.45 39.77"
fill="none" stroke="black" stroke-width="0.5"/>
<path d="M312.42 38.8L312.93 39.28M312.93 39.28L313.45 39.77"
fill="none" stroke="black" stroke-width="0.5"/>
<path d="M487.58 38.8L487.07 39.28M487.07 39.28L486.55 39.77"
fill="none" stroke="black" stroke-width="0.5"/>
<path d="M474.23 50.52L474.66 50.16M474.66 50.16L475.1 49.8"
fill="none" stroke="black" stroke-width="0.5"/>
<path d="M325.77 50.52L325.34 50.16M325.34 50.16L324.9 49.8"
fill="none" stroke="black" stroke-width="0.5"/>
<path d="M324.9 49.8L325.74 49.64M325.74 49.64L326.57 49.47M326.57 49.47L327.4 49.29M327.4 49.29L328.23 49.1M328.23 49.1L329.06 48.9M329.06 48.9L329.88 48.7M329.88 48.7L330.7 48.48M330.7 48.48L331.52 48.26M331.52 48.26L332.33 48.03M332.33 48.03L333.14 47.8M333.14 47.8L333.95 47.55M333.95 47.55L334.76 47.3M334.76 47.3L335.56 47.03M335.56 47.03L336.36 46.76M336.36 46.76L337.16 46.48M337.16 46.48L337.95 46.2M337.95 46.2L338.74 45.9M338.74 45.9L339.53 45.6M339.53 45.6L340.32 45.28M340.32 45.28L341.1 44.96M341.1 44.96L341.87 44.63M341.87 44.63L342.65 44.3M342.65 44.3L343.42 43.95M343.42 43.95L344.19 43.6M344.19 43.6L344.95 43.24M344.95 43.24L345.71 42.87M345.71 42.87L346.47 42.49M346.47 42.49L347.22 42.1M347.22 42.1L347.97 41.71M347.97 41.71L348.71 41.31M348.71 41.31L349.08 41.11M349.08 41.11L349.44 40.91M349.44 40.91L349.81 40.7M349.81 40.7L350.17 40.5M350.17 40.5L350.52 40.3M350.52 40.3L350.87 40.09M350.87 40.09L351.22 39.89M351.22 39.89L351.57 39.68M351.57 39.68L352.25 39.28M352.25 39.28L352.93 38.87M352.93 38.87L353.59 38.46M353.59 38.46L354.24 38.06M354.24 38.06L354.88 37.65M354.88 37.65L355.51 37.25M355.51 37.25L356.13 36.85M356.13 36.85L356.74 36.46M356.74 36.46L357.34 36.07M357.34 36.07L357.93 35.68M357.93 35.68L358.51 35.3M358.51 35.3L359.09 34.92M359.09 34.92L359.65 34.55M359.65 34.55L360.21 34.18M360.21 34.18L360.76 33.82M360.76 33.82L361.29 33.47M361.29 33.47L361.83 33.12M361.83 33.12L362.35 32.78M362.35 32.78L362.86 32.44M362.86 32.44L363.37 32.12M363.37 32.12L363.88 31.8M363.88 31.8L364.38 31.48M364.38 31.48L364.88 31.17M364.88 31.17L365.38 30.86M365.38 30.86L365.88 30.55M365.88 30.55L366.37 30.25M366.37 30.25L366.87 29.96M366.87 29.96L367.36 29.67M367.36 29.67L367.85 29.38M367.85 29.38L368.34 29.09M368.34 29.09L368.83 28.82M368.83 28.82L369.32 28.54M369.32 28.54L369.8 28.27M369.8 28.27L370.29 28.01M370.29 28.01L370.77 27.75M370.77 27.75L371.25 27.49M371.25 27.49L371.73 27.24M371.73 27.24L372.21 27M372.21 27L372.68 26.76M372.68 26.76L373.16 26.52M373.16 26.52L373.63 26.3M373.63 26.3L374.1 26.07M374.1 26.07L374.57 25.85M374.57 25.85L375.03 25.64M375.03 25.64L375.5 25.43M375.5 25.43L375.97 25.22M375.97 25.22L376.44 25.02M376.44 25.02L376.91 24.82M376.91 24.82L377.38 24.63M377.38 24.63L377.86 24.44M377.86 24.44L378.33 24.26M378.33 24.26L378.8 24.08M378.8 24.08L379.28 23.9M379.28 23.9L379.76 23.73M379.76 23.73L380.23 23.56M380.23 23.56L380.71 23.39M380.71 23.39L381.19 23.23M381.19 23.23L381.68 23.08M381.68 23.08L382.16 22.93M382.16 22.93L382.64 22.78M382.64 22.78L383.13 22.64M383.13 22.64L383.61 22.5M383.61 22.5L384.1 22.36M384.1 22.36L384.59 22.23M384.59 22.23L385.08 22.1M385.08 22.1L385.57 21.98M385.57 21.98L386.06 21.86M386.06 21.86L386.56 21.75M386.56 21.75L387.05 21.64M387.05 21.64L387.55 21.53M387.55 21.53L388.05 21.43M388.05 21.43L388.55 21.33M388.55 21.33L389.05 21.23M389.05 21.23L389.55 21.14M389.55 21.14L390.06 21.06M390.06 21.06L390.56 20.98M390.56 20.98L391.07 20.9M391.07 20.9L391.58 20.83M391.58 20.83L392.09 20.76M392.09 20.76L392.61 20.69M392.61 20.69L393.12 20.63M393.12 20.63L393.64 20.58M393.64 20.58L394.16 20.53M394.16 20.53L394.68 20.48M394.68 20.48L395.2 20.44M395.2 20.44L395.72 20.4M395.72 20.4L396.25 20.37M396.25 20.37L396.78 20.34M396.78 20.34L397.31 20.31M397.31 20.31L397.84 20.29M397.84 20.29L398.38 20.28M398.38 20.28L398.92 20.26M398.92 20.26L399.46 20.26M399.46 20.26L400 20.25M400 20.25L400.54 20.26M400.54 20.26L401.08 20.26M401.08 20.26L401.62 20.28M401.62 20.28L402.15 20.29M402.15 20.29L402.69 20.31M402.69 20.31L403.22 20.34M403.22 20.34L403.75 20.37M403.75 20.37L404.27 20.4M404.27 20.4L404.8 20.44M404.8 20.44L405.32 20.48M405.32 20.48L405.84 20.53M405.84 20.53L406.36 20.58M406.36 20.58L406.88 20.63M406.88 20.63L407.39 20.69M407.39 20.69L407.91 20.76M407.91 20.76L408.42 20.83M408.42 20.83L408.93 20.9M408.93 20.9L409.44 20.98M409.44 20.98L409.94 21.06M409.94 21.06L410.45 21.14M410.45 21.14L410.95 21.23M410.95 21.23L411.45 21.33M411.45 21.33L411.95 21.43M411.95 21.43L412.45 21.53M412.45 21.53L412.95 21.64M412.95 21.64L413.44 21.75M413.44 21.75L413.94 21.86M413.94 21.86L414.43 21.98M414.43 21.98L414.92 22.1M414.92 22.1L415.41 22.23M415.41 22.23L415.9 22.36M415.9 22.36L416.39 22.5M416.39 22.5L416.87 22.64M416.87 22.64L417.36 22.78M417.36 22.78L417.84 22.93M417.84 22.93L418.32 23.08M418.32 23.08L418.81 23.23M418.81 23.23L419.29 23.39M419.29 23.39L419.76 23.56M419.76 23.56L420.24 23.73M420.24 23.73L420.72 23.9M420.72 23.9L421.2 24.08M421.2 24.08L421.67 24.26M421.67 24.26L422.14 24.44M422.14 24.44L422.62 24.63M422.62 24.63L423.09 24.82M423.09 24.82L423.56 25.02M423.56 25.02L424.03 25.22M424.03 25.22L424.5 25.43M424.5 25.43L424.97 25.64M424.97 25.64L425.43 25.85M425.43 25.85L425.9 26.07M425.9 26.07L426.37 26.3M426.37 26.3L426.84 26.52M426.84 26.52L427.32 26.76M427.32 26.76L427.79 27M427.79 27L428.27 27.24M428.27 27.24L428.75 27.49M428.75 27.49L429.23 27.75M429.23 27.75L429.71 28.01M429.71 28.01L430.19 28.27M430.19 28.27L430.68 28.54M430.68 28.54L431.17 28.82M431.17 28.82L431.66 29.09M431.66 29.09L432.15 29.38M432.15 29.38L432.64 29.67M432.64 29.67L433.13 29.96M433.13 29.96L433.63 30.25M433.63 30.25L434.12 30.55M434.12 30.55L434.62 30.86M434.62 30.86L435.12 31.17M435.12 31.17L435.62 31.48M435.62 31.48L436.12 31.8M436.12 31.8L436.63 32.12M436.63 32.12L437.14 32.44M437.14 32.44L437.65 32.78M437.65 32.78L438.17 33.12M438.17 33.12L438.71 33.47M438.71 33.47L439.24 33.82M439.24 33.82L439.79 34.18M439.79 34.18L440.35 34.55M440.35 34.55L440.91 34.92M440.91 34.92L441.49 35.3M441.49 35.3L442.07 35.68M442.07 35.68L442.66 36.07M442.66 36.07L443.26 36.46M443.26 36.46L443.87 36.85M443.87 36.85L444.49 37.25M444.49 37.25L445.12 37.65M445.12 37.65L445.76 38.06M445.76 38.06L446.41 38.46M446.41 38.46L447.07 38.87M447.07 38.87L447.75 39.28M447.75 39.28L448.43 39.68M448.43 39.68L448.78 39.89M448.78 39.89L449.13 40.09M449.13 40.09L449.48 40.3M449.48 40.3L449.83 40.5M449.83 40.5L450.19 40.7M450.19 40.7L450.56 40.91M450.56 40.91L450.92 41.11M450.92 41.11L451.29 41.31M451.29 41.31L452.03 41.71M452.03 41.71L452.78 42.1M452.78 42.1L453.53 42.49M453.53 42.49L454.29 42.87M454.29 42.87L455.05 43.24M455.05 43.24L455.81 43.6M455.81 43.6L456.58 43.95M456.58 43.95L457.35 44.3M457.35 44.3L458.13 44.63M458.13 44.63L458.9 44.96M458.9 44.96L459.68 45.28M459.68 45.28L460.47 45.6M460.47 45.6L461.26 45.9M461.26 45.9L462.05 46.2M462.05 46.2L462.84 46.48M462.84 46.48L463.64 46.76M463.64 46.76L464.44 47.03M464.44 47.03L465.24 47.3M465.24 47.3L466.05 47.55M466.05 47.55L466.86 47.8M466.86 47.8L467.67 48.03M467.67 48.03L468.48 48.26M468.48 48.26L469.3 48.48M469.3 48.48L470.12 48.7M470.12 48.7L470.94 48.9M470.94 48.9L471.77 49.1M471.77 49.1L472.6 49.29M472.6 49.29L473.43 49.47M473.43 49.47L474.26 49.64M474.26 49.64L475.1 49.8"
fill="none" stroke="black" stroke-width="0.5"/>
<path d="M312.42 352.9L312.42 38.8"
fill="none" stroke="black" stroke-width="0.5"/>
<path d="M308.08 357.23L308.08 34.63"
fill="none" stroke="black" stroke-width="0.5"/>
<path d="M487.58 38.8L487.58 352.9"
fill="none" stroke="black" stroke-width="0.5"/>
<path d="M491.92 34.63L491.92 357.23"
fill="none" stroke="black" stroke-width="0.5"/>
<path d="M338.08 327.23L338.08 60.07"
fill="none" stroke="black" stroke-width="0.5"/>
<path d="M324.9 340.41L338.08 327.23"
fill="none" stroke="black" stroke-width="0.5"/>
<path d="M325.77 339.54L325.77 50.52"
fill="none" stroke="black" stroke-width="0.5"/>
<path d="M461.92 327.23L338.08 327.23"
fill="none" stroke="black" stroke-width="0.5"/>
<path d="M461.92 60.07L461.92 327.23"
fill="none" stroke="black" stroke-width="0.5"/>
<path d="M475.1 340.41L461.92 327.23"
fill="none" stroke="black" stroke-width="0.5"/>
<path d="M474.23 50.52L474.23 339.54"
fill="none" stroke="black" stroke-width="0.5"/>
<path d="M493.65 598.3L306.35 598.3"
fill="none" stroke="black" stroke-width="0.5"/>
<path d="M493.65 32.92L493.65 598.3"
fill="none" stroke="black" stroke-width="0.5"/>
<path d="M306.35 598.3L306.35 32.92"
fill="none" stroke="black" stroke-width="0.5"/>
<path d="M492.44 34.12L492.44 357.75"
fill="none" stroke="black" stroke-width="0.5"/>
<path d="M492.64 117.9L493.65 117.9"
fill="none" stroke="black" stroke-width="0.5"/>
<path d="M492.64 357.96L492.64 117.9"
fill="none" stroke="black" stroke-width="0.5"/>
<path d="M492.64 357.96L492.44 357.75"
fill="none" stroke="black" stroke-width="0.5"/>
<path d="M306.35 117.9L307.36 117.9"
fill="none" stroke="black" stroke-width="0.5"/>
<path d="M307.56 357.75L307.56 34.12"
fill="none" stroke="black" stroke-width="0.5"/>
<path d="M307.36 357.96L307.56 357.75"
fill="none" stroke="black" stroke-width="0.5"/>
<path d="M307.36 357.96L307.36 117.9"
fill="none" stroke="black" stroke-width="0.5"/>
<path d="M491.57 358.97L308.43 358.97"
fill="none" stroke="black" stroke-width="0.5"/>
<path d="M491.57 358.97L491.57 400.59"
fill="none" stroke="black" stroke-width="0.5"/>
<path d="M308.43 400.59L491.57 400.59"
fill="none" stroke="black" stroke-width="0.5"/>
<path d="M308.43 358.97L308.43 400.59"
fill="none" stroke="black" stroke-width="0.5"/>
<path d="M492.79 117.9L492.79 482.1"
fill="none" stroke="black" stroke-width="0.5"/>
<path d="M307.56 357.96L307.36 357.96"
fill="none" stroke="black" stroke-width="0.5"/>
<path d="M492.44 357.75L307.56 357.75"
fill="none" stroke="black" stroke-width="0.5"/>
<path d="M492.44 357.96L492.64 357.96"
fill="none" stroke="black" stroke-width="0.5"/>
<path d="M491.57 358.97L492.44 357.96"
fill="none" stroke="black" stroke-width="0.5"/>
<path d="M308.43 358.97L307.56 357.96"
fill="none" stroke="black" stroke-width="0.5"/>
<path d="M307.21 117.9L307.21 482.1"
fill="none" stroke="black" stroke-width="0.5"/>
<path d="M338.08 432.33L461.92 432.33"
fill="none" stroke="black" stroke-width="0.5"/>
<path d="M461.92 432.33L461.92 566.56"
fill="none" stroke="black" stroke-width="0.5"/>
<path d="M461.92 566.56L338.08 566.56"
fill="none" stroke="black" stroke-width="0.5"/>
<path d="M338.08 566.56L338.08 432.33"
fill="none" stroke="black" stroke-width="0.5"/>
<path d="M474.23 339.54L325.77 339.54"
fill="none" stroke="black" stroke-width="0.5"/>
<path d="M306.35 598.3L307.56 597.09"
fill="none" stroke="black" stroke-width="0.5"/>
<path d="M492.44 597.09L307.56 597.09"
fill="none" stroke="black" stroke-width="0.5"/>
<path d="M493.65 598.3L492.44 597.09"
fill="none" stroke="black" stroke-width="0.5"/>
<path d="M307.36 401.6L307.56 401.8"
fill="none" stroke="black" stroke-width="0.5"/>
<path d="M307.56 597.09L307.56 401.8"
fill="none" stroke="black" stroke-width="0.5"/>
<path d="M307.36 482.1L307.36 401.6"
fill="none" stroke="black" stroke-width="0.5"/>
<path d="M306.35 482.1L307.36 482.1"
fill="none" stroke="black" stroke-width="0.5"/>
<path d="M492.44 401.8L492.44 597.09"
fill="none" stroke="black" stroke-width="0.5"/>
<path d="M492.64 401.6L492.44 401.8"
fill="none" stroke="black" stroke-width="0.5"/>
<path d="M492.64 482.1L492.64 401.6"
fill="none" stroke="black" stroke-width="0.5"/>
<path d="M492.64 482.1L493.65 482.1"
fill="none" stroke="black" stroke-width="0.5"/>
<path d="M492.44 401.6L491.57 400.59"
fill="none" stroke="black" stroke-width="0.5"/>
<path d="M492.64 401.6L492.44 401.6"
fill="none" stroke="black" stroke-width="0.5"/>
<path d="M307.56 401.8L492.44 401.8"
fill="none" stroke="black" stroke-width="0.5"/>
<path d="M307.36 401.6L307.56 401.6"
fill="none" stroke="black" stroke-width="0.5"/>
<path d="M307.56 401.6L308.43 400.59"
fill="none" stroke="black" stroke-width="0.5"/>
<path d="M307.56 357.96L307.56 401.6"
fill="none" stroke="black" stroke-width="0.5"/>
<path d="M492.44 357.96L492.44 401.6"
fill="none" stroke="black" stroke-width="0.5"/>
<path d="M475.1 579.75L461.92 566.56"
fill="none" stroke="black" stroke-width="0.5"/>
<path d="M475.1 419.15L461.92 432.33"
fill="none" stroke="black" stroke-width="0.5"/>
<path d="M474.23 420.01L474.23 578.88"
fill="none" stroke="black" stroke-width="0.5"/>
<path d="M324.9 579.75L338.08 566.56"
fill="none" stroke="black" stroke-width="0.5"/>
<path d="M474.23 578.88L325.77 578.88"
fill="none" stroke="black" stroke-width="0.5"/>
<path d="M325.77 420.01L474.23 420.01"
fill="none" stroke="black" stroke-width="0.5"/>
<path d="M324.9 419.15L338.08 432.33"
fill="none" stroke="black" stroke-width="0.5"/>
<path d="M325.77 578.88L325.77 420.01"
fill="none" stroke="black" stroke-width="0.5"/>
<path d="M491.92 357.23L308.08 357.23"
fill="none" stroke="black" stroke-width="0.5"/>
<path d="M487.58 352.9L312.42 352.9"
fill="none" stroke="black" stroke-width="0.5"/>
<path d="M487.58 406.66L487.58 592.23"
fill="none" stroke="black" stroke-width="0.5"/>
<path d="M491.92 402.32L491.92 596.57"
fill="none" stroke="black" stroke-width="0.5"/>
<path d="M487.58 592.23L312.42 592.23"
fill="none" stroke="black" stroke-width="0.5"/>
<path d="M491.92 596.57L308.08 596.57"
fill="none" stroke="black" stroke-width="0.5"/>
<path d="M312.42 592.23L312.42 406.66"
fill="none" stroke="black" stroke-width="0.5"/>
<path d="M308.08 596.57L308.08 402.32"
fill="none" stroke="black" stroke-width="0.5"/>
<path d="M308.08 402.32L491.92 402.32"
fill="none" stroke="black" stroke-width="0.5"/>
<path d="M312.42 406.66L487.58 406.66"
fill="none" stroke="black" stroke-width="0.5"/>
<path d="M487.58 352.9L481.17 346.48"
fill="none" stroke="black" stroke-width="0.5"/>
<path d="M481.17 44.63L481.17 346.48"
fill="none" stroke="black" stroke-width="0.5"/>
<path d="M318.83 346.48L318.83 44.63"
fill="none" stroke="black" stroke-width="0.5"/>
<path d="M312.42 352.9L318.83 346.48"
fill="none" stroke="black" stroke-width="0.5"/>
<path d="M481.17 346.48L318.83 346.48"
fill="none" stroke="black" stroke-width="0.5"/>
<path d="M312.42 406.66L318.83 413.08"
fill="none" stroke="black" stroke-width="0.5"/>
<path d="M318.83 585.82L318.83 413.08"
fill="none" stroke="black" stroke-width="0.5"/>
<path d="M312.42 592.23L318.83 585.82"
fill="none" stroke="black" stroke-width="0.5"/>
<path d="M481.17 585.82L318.83 585.82"
fill="none" stroke="black" stroke-width="0.5"/>
<path d="M487.58 592.23L481.17 585.82"
fill="none" stroke="black" stroke-width="0.5"/>
<path d="M487.58 406.66L481.17 413.08"
fill="none" stroke="black" stroke-width="0.5"/>
<path d="M318.83 413.08L481.17 413.08"
fill="none" stroke="black" stroke-width="0.5"/>
<path d="M481.17 413.08L481.17 585.82"
fill="none" stroke="black" stroke-width="0.5"/>
<path d="M475.1 49.8L475.1 340.41"
fill="none" stroke="black" stroke-width="0.5"/>
<path d="M324.9 340.41L324.9 49.8"
fill="none" stroke="black" stroke-width="0.5"/>
<path d="M324.9 579.75L324.9 419.15"
fill="none" stroke="black" stroke-width="0.5"/>
<path d="M324.9 419.15L475.1 419.15"
fill="none" stroke="black" stroke-width="0.5"/>
<path d="M475.1 579.75L324.9 579.75"
fill="none" stroke="black" stroke-width="0.5"/>
<path d="M475.1 419.15L475.1 579.75"
fill="none" stroke="black" stroke-width="0.5"/>
<path d="M475.1 340.41L324.9 340.41"
fill="none" stroke="black" stroke-width="0.5"/>
</svg>
