  0
SECTION
  2
HEADER
  9
$ACADVER
  1
AC1021
  9
$ACADMAINTVER
 70
    50
  9
$DWGCODEPAGE
  3
ANSI_1258
  9
$LASTSAVEDBY
  1
KhunG LonG
  9
$INSBASE
 10
0.0
 20
0.0
 30
0.0
  9
$EXTMIN
 10
393.8797599730743
 20
15240.1757719218
 30
0.0
  9
$EXTMAX
 10
16797.05651653019
 20
17295.79478045601
 30
0.0
  9
$LIMMIN
 10
0.0
 20
0.0
  9
$LIMMAX
 10
420.0
 20
297.0
  9
$ORTHOMODE
 70
     0
  9
$REGENMODE
 70
     1
  9
$FILLMODE
 70
     1
  9
$QTEXTMODE
 70
     0
  9
$MIRRTEXT
 70
     0
  9
$LTSCALE
 40
1.0
  9
$ATTMODE
 70
     1
  9
$TEXTSIZE
 40
2.5
  9
$TRACEWID
 40
1.0
  9
$TEXTSTYLE
  7
Standard
  9
$CLAYER
  8
0
  9
$CELTYPE
  6
ByLayer
  9
$CECOLOR
 62
   256
  9
$CELTSCALE
 40
1.0
  9
$DISPSILH
 70
     0
  9
$DIMSCALE
 40
1.0
  9
$DIMASZ
 40
2.5
  9
$DIMEXO
 40
0.625
  9
$DIMDLI
 40
3.75
  9
$DIMRND
 40
0.0
  9
$DIMDLE
 40
0.0
  9
$DIMEXE
 40
1.25
  9
$DIMTP
 40
0.0
  9
$DIMTM
 40
0.0
  9
$DIMTXT
 40
2.5
  9
$DIMCEN
 40
2.5
  9
$DIMTSZ
 40
0.0
  9
$DIMTOL
 70
     0
  9
$DIMLIM
 70
     0
  9
$DIMTIH
 70
     0
  9
$DIMTOH
 70
     0
  9
$DIMSE1
 70
     0
  9
$DIMSE2
 70
     0
  9
$DIMTAD
 70
     1
  9
$DIMZIN
 70
     8
  9
$DIMBLK
  1

  9
$DIMASO
 70
     1
  9
$DIMSHO
 70
     1
  9
$DIMPOST
  1

  9
$DIMAPOST
  1

  9
$DIMALT
 70
     0
  9
$DIMALTD
 70
     3
  9
$DIMALTF
 40
0.03937007874016
  9
$DIMLFAC
 40
1.0
  9
$DIMTOFL
 70
     1
  9
$DIMTVP
 40
0.0
  9
$DIMTIX
 70
     0
  9
$DIMSOXD
 70
     0
  9
$DIMSAH
 70
     0
  9
$DIMBLK1
  1

  9
$DIMBLK2
  1

  9
$DIMSTYLE
  2
ISO-25
  9
$DIMCLRD
 70
     0
  9
$DIMCLRE
 70
     0
  9
$DIMCLRT
 70
     0
  9
$DIMTFAC
 40
1.0
  9
$DIMGAP
 40
0.625
  9
$DIMJUST
 70
     0
  9
$DIMSD1
 70
     0
  9
$DIMSD2
 70
     0
  9
$DIMTOLJ
 70
     0
  9
$DIMTZIN
 70
     8
  9
$DIMALTZ
 70
     0
  9
$DIMALTTZ
 70
     0
  9
$DIMUPT
 70
     0
  9
$DIMDEC
 70
     2
  9
$DIMTDEC
 70
     2
  9
$DIMALTU
 70
     2
  9
$DIMALTTD
 70
     3
  9
$DIMTXSTY
  7
Standard
  9
$DIMAUNIT
 70
     0
  9
$DIMADEC
 70
     0
  9
$DIMALTRND
 40
0.0
  9
$DIMAZIN
 70
     0
  9
$DIMDSEP
 70
    44
  9
$DIMATFIT
 70
     3
  9
$DIMFRAC
 70
     0
  9
$DIMLDRBLK
  1

  9
$DIMLUNIT
 70
     2
  9
$DIMLWD
 70
    -2
  9
$DIMLWE
 70
    -2
  9
$DIMTMOVE
 70
     0
  9
$DIMFXL
 40
1.0
  9
$DIMFXLON
 70
     0
  9
$DIMJOGANG
 40
0.7853981633974483
  9
$DIMTFILL
 70
     0
  9
$DIMTFILLCLR
 70
     0
  9
$DIMARCSYM
 70
     0
  9
$DIMLTYPE
  6

  9
$DIMLTEX1
  6

  9
$DIMLTEX2
  6

  9
$LUNITS
 70
     2
  9
$LUPREC
 70
     4
  9
$SKETCHINC
 40
1.0
  9
$FILLETRAD
 40
0.0
  9
$AUNITS
 70
     0
  9
$AUPREC
 70
     0
  9
$MENU
  1
.
  9
$ELEVATION
 40
0.0
  9
$PELEVATION
 40
0.0
  9
$THICKNESS
 40
0.0
  9
$LIMCHECK
 70
     0
  9
$CHAMFERA
 40
0.0
  9
$CHAMFERB
 40
0.0
  9
$CHAMFERC
 40
0.0
  9
$CHAMFERD
 40
0.0
  9
$SKPOLY
 70
     0
  9
$TDCREATE
 40
2461227.699179711
  9
$TDUCREATE
 40
2461227.407513044
  9
$TDUPDATE
 40
2461227.699746320
  9
$TDUUPDATE
 40
2461227.408079653
  9
$TDINDWG
 40
0.000568692
  9
$TDUSRTIMER
 40
0.000567326
  9
$USRTIMER
 70
     1
  9
$ANGBASE
 50
0.0
  9
$ANGDIR
 70
     0
  9
$PDMODE
 70
     0
  9
$PDSIZE
 40
0.0
  9
$PLINEWID
 40
0.0
  9
$SPLFRAME
 70
     0
  9
$SPLINETYPE
 70
     6
  9
$SPLINESEGS
 70
     8
  9
$HANDSEED
  5
80
  9
$SURFTAB1
 70
     6
  9
$SURFTAB2
 70
     6
  9
$SURFTYPE
 70
     6
  9
$SURFU
 70
     6
  9
$SURFV
 70
     6
  9
$UCSBASE
  2

  9
$UCSNAME
  2

  9
$UCSORG
 10
0.0
 20
0.0
 30
0.0
  9
$UCSXDIR
 10
1.0
 20
0.0
 30
0.0
  9
$UCSYDIR
 10
0.0
 20
1.0
 30
0.0
  9
$UCSORTHOREF
  2

  9
$UCSORTHOVIEW
 70
     0
  9
$UCSORGTOP
 10
0.0
 20
0.0
 30
0.0
  9
$UCSORGBOTTOM
 10
0.0
 20
0.0
 30
0.0
  9
$UCSORGLEFT
 10
0.0
 20
0.0
 30
0.0
  9
$UCSORGRIGHT
 10
0.0
 20
0.0
 30
0.0
  9
$UCSORGFRONT
 10
0.0
 20
0.0
 30
0.0
  9
$UCSORGBACK
 10
0.0
 20
0.0
 30
0.0
  9
$PUCSBASE
  2

  9
$PUCSNAME
  2

  9
$PUCSORG
 10
0.0
 20
0.0
 30
0.0
  9
$PUCSXDIR
 10
1.0
 20
0.0
 30
0.0
  9
$PUCSYDIR
 10
0.0
 20
1.0
 30
0.0
  9
$PUCSORTHOREF
  2

  9
$PUCSORTHOVIEW
 70
     0
  9
$PUCSORGTOP
 10
0.0
 20
0.0
 30
0.0
  9
$PUCSORGBOTTOM
 10
0.0
 20
0.0
 30
0.0
  9
$PUCSORGLEFT
 10
0.0
 20
0.0
 30
0.0
  9
$PUCSORGRIGHT
 10
0.0
 20
0.0
 30
0.0
  9
$PUCSORGFRONT
 10
0.0
 20
0.0
 30
0.0
  9
$PUCSORGBACK
 10
0.0
 20
0.0
 30
0.0
  9
$USERI1
 70
     0
  9
$USERI2
 70
     0
  9
$USERI3
 70
     0
  9
$USERI4
 70
     0
  9
$USERI5
 70
     0
  9
$USERR1
 40
0.0
  9
$USERR2
 40
0.0
  9
$USERR3
 40
0.0
  9
$USERR4
 40
0.0
  9
$USERR5
 40
0.0
  9
$WORLDVIEW
 70
     1
  9
$SHADEDGE
 70
     3
  9
$SHADEDIF
 70
    70
  9
$TILEMODE
 70
     1
  9
$MAXACTVP
 70
    64
  9
$PINSBASE
 10
0.0
 20
0.0
 30
0.0
  9
$PLIMCHECK
 70
     0
  9
$PEXTMIN
 10
0.0
 20
0.0
 30
0.0
  9
$PEXTMAX
 10
0.0
 20
0.0
 30
0.0
  9
$PLIMMIN
 10
0.0
 20
0.0
  9
$PLIMMAX
 10
12.0
 20
9.0
  9
$UNITMODE
 70
     0
  9
$VISRETAIN
 70
     1
  9
$PLINEGEN
 70
     0
  9
$PSLTSCALE
 70
     1
  9
$TREEDEPTH
 70
  3020
  9
$CMLSTYLE
  2
Standard
  9
$CMLJUST
 70
     0
  9
$CMLSCALE
 40
20.0
  9
$PROXYGRAPHICS
 70
     1
  9
$MEASUREMENT
 70
     1
  9
$CELWEIGHT
370
    -1
  9
$ENDCAPS
280
     0
  9
$JOINSTYLE
280
     0
  9
$LWDISPLAY
290
     0
  9
$INSUNITS
 70
     4
  9
$HYPERLINKBASE
  1

  9
$STYLESHEET
  1

  9
$XEDIT
290
     1
  9
$CEPSNTYPE
380
     0
  9
$PSTYLEMODE
290
     1
  9
$FINGERPRINTGUID
  2
{26876B86-9F40-47B5-915C-A9C8D2A01BDC}
  9
$VERSIONGUID
  2
{6BFD4DB0-CF82-46AE-A7AA-FA3FD96E589C}
  9
$EXTNAMES
290
     1
  9
$PSVPSCALE
 40
0.0
  9
$OLESTARTUP
290
     0
  9
$SORTENTS
280
   127
  9
$INDEXCTL
280
     0
  9
$HIDETEXT
280
     1
  9
$XCLIPFRAME
290
     1
  9
$HALOGAP
280
     0
  9
$OBSCOLOR
 70
   257
  9
$OBSLTYPE
280
     0
  9
$INTERSECTIONDISPLAY
280
     0
  9
$INTERSECTIONCOLOR
 70
   257
  9
$DIMASSOC
280
     2
  9
$PROJECTNAME
  1

  9
$CAMERADISPLAY
290
     0
  9
$LENSLENGTH
 40
50.0
  9
$CAMERAHEIGHT
 40
0.0
  9
$STEPSPERSEC
 40
2.0
  9
$STEPSIZE
 40
6.0
  9
$3DDWFPREC
 40
2.0
  9
$PSOLWIDTH
 40
0.25
  9
$PSOLHEIGHT
 40
4.0
  9
$LOFTANG1
 40
1.570796326794896
  9
$LOFTANG2
 40
1.570796326794896
  9
$LOFTMAG1
 40
0.0
  9
$LOFTMAG2
 40
0.0
  9
$LOFTPARAM
 70
     7
  9
$LOFTNORMALS
280
     1
  9
$LATITUDE
 40
37.795
  9
$LONGITUDE
 40
-122.394
  9
$NORTHDIRECTION
 40
0.0
  9
$TIMEZONE
 70
 -8000
  9
$LIGHTGLYPHDISPLAY
280
     1
  9
$TILEMODELIGHTSYNCH
280
     1
  9
$CMATERIAL
347
30
  9
$SOLIDHIST
280
     0
  9
$SHOWHIST
280
     1
  9
$DWFFRAME
280
     1
  9
$DGNFRAME
280
     1
  9
$REALWORLDSCALE
290
     1
  9
$INTERFERECOLOR
 62
   256
  9
$CSHADOW
280
     0
  9
$SHADOWPLANELOCATION
 40
0.0
  0
ENDSEC
  0
SECTION
  2
CLASSES
  0
CLASS
  1
ACDBDICTIONARYWDFLT
  2
AcDbDictionaryWithDefault
  3
ObjectDBX Classes
 90
    32768
 91
        1
280
     0
281
     0
  0
CLASS
  1
ACDBPLACEHOLDER
  2
AcDbPlaceHolder
  3
ObjectDBX Classes
 90
        0
 91
        0
280
     0
281
     0
  0
CLASS
  1
LAYOUT
  2
AcDbLayout
  3
ObjectDBX Classes
 90
        0
 91
        0
280
     0
281
     0
  0
CLASS
  1
DICTIONARYVAR
  2
AcDbDictionaryVar
  3
ObjectDBX Classes
 90
        0
 91
       29
280
     0
281
     0
  0
CLASS
  1
TABLESTYLE
  2
AcDbTableStyle
  3
ObjectDBX Classes
 90
     2047
 91
        1
280
     0
281
     0
  0
CLASS
  1
WIPEOUTVARIABLES
  2
AcDbWipeoutVariables
  3
WipeOut|AutoCAD Express Tool|expresstools@autodesk.com
 90
        0
 91
        0
280
     0
281
     0
  0
CLASS
  1
SCALE
  2
AcDbScale
  3
ObjectDBX Classes
 90
     1153
 91
       17
280
     0
281
     0
  0
CLASS
  1
MLEADERSTYLE
  2
AcDbMLeaderStyle
  3
ACDB_MLEADERSTYLE_CLASS
 90
     4095
 91
        0
280
     0
281
     0
  0
CLASS
  1
MATERIAL
  2
AcDbMaterial
  3
ObjectDBX Classes
 90
        0
 91
        3
280
     0
281
     0
  0
CLASS
  1
VISUALSTYLE
  2
AcDbVisualStyle
  3
ObjectDBX Classes
 90
     4095
 91
        1
280
     0
281
     0
  0
CLASS
  1
ACDBSECTIONVIEWSTYLE
  2
AcDbSectionViewStyle
  3
ObjectDBX Classes
 90
     4095
 91
        0
280
     0
281
     0
  0
CLASS
  1
ACDBDETAILVIEWSTYLE
  2
AcDbDetailViewStyle
  3
ObjectDBX Classes
 90
     4095
 91
        0
280
     0
281
     0
  0
CLASS
  1
CELLSTYLEMAP
  2
AcDbCellStyleMap
  3
ObjectDBX Classes
 90
     1152
 91
        1
280
     0
281
     0
  0
CLASS
  1
SORTENTSTABLE
  2
AcDbSortentsTable
  3
ObjectDBX Classes
 90
        0
 91
        0
280
     0
281
     0
  0
CLASS
  1
ACAD_EVALUATION_GRAPH
  2
AcDbEvalGraph
  3
ObjectDBX Classes
 90
     1153
 91
        0
280
     0
281
     0
  0
CLASS
  1
BLOCKLINEARPARAMETER
  2
AcDbBlockLinearParameter
  3
ObjectDBX Classes
 90
     1153
 91
        0
280
     0
281
     0
  0
CLASS
  1
BLOCKLINEARGRIP
  2
AcDbBlockLinearGrip
  3
ObjectDBX Classes
 90
     1153
 91
        0
280
     0
281
     0
  0
CLASS
  1
BLOCKGRIPLOCATIONCOMPONENT
  2
AcDbBlockGripExpr
  3
ObjectDBX Classes
 90
     1153
 91
        0
280
     0
281
     0
  0
CLASS
  1
BLOCKSTRETCHACTION
  2
AcDbBlockStretchAction
  3
ObjectDBX Classes
 90
     1153
 91
        0
280
     0
281
     0
  0
CLASS
  1
ACDB_DYNAMICBLOCKPURGEPREVENTER_VERSION
  2
AcDbDynamicBlockPurgePreventer
  3
ObjectDBX Classes
 90
     1153
 91
        0
280
     0
281
     0
  0
CLASS
  1
DIMASSOC
  2
AcDbDimAssoc
  3
ZcDbDimAssoc ObjectDBX Classes
 90
        0
 91
        0
280
     0
281
     0
  0
ENDSEC
  0
SECTION
  2
TABLES
  0
TABLE
  2
VPORT
  5
1D
330
0
100
AcDbSymbolTable
 70
     1
  0
VPORT
  5
1E
330
1D
100
AcDbSymbolTableRecord
100
AcDbViewportTableRecord
  2
*Active
 70
     0
 10
0.0
 20
0.0
 11
1.0
 21
1.0
 12
9388.697616021982
 22
16217.26293479467
 13
0.0
 23
0.0
 14
10.0
 24
10.0
 15
10.0
 25
10.0
 16
0.0
 26
0.0
 36
1.0
 17
0.0
 27
0.0
 37
0.0
 40
3156.551788304648
 41
2.570281124497991
 42
50.0
 43
0.0
 44
0.0
 50
0.0
 51
0.0
 71
    16
 72
  1000
 73
     1
 74
     3
 75
     0
 76
     1
 77
     0
 78
     0
281
     0
 65
     1
110
0.0
120
0.0
130
0.0
111
1.0
121
0.0
131
0.0
112
0.0
122
1.0
132
0.0
 79
     0
146
0.0
348
1F
 60
     3
 61
     5
292
     1
282
     1
141
0.0
142
0.0
 63
   250
1001
ACAD_NAV_VCDISPLAY
1070
     3
  0
ENDTAB
  0
TABLE
  2
LTYPE
  5
19
330
0
100
AcDbSymbolTable
 70
     1
  0
LTYPE
  5
1A
330
19
100
AcDbSymbolTableRecord
100
AcDbLinetypeTableRecord
  2
ByBlock
 70
     0
  3

 72
    65
 73
     0
 40
0.0
  0
LTYPE
  5
B
330
19
100
AcDbSymbolTableRecord
100
AcDbLinetypeTableRecord
  2
ByLayer
 70
     0
  3

 72
    65
 73
     0
 40
0.0
  0
LTYPE
  5
A
330
19
100
AcDbSymbolTableRecord
100
AcDbLinetypeTableRecord
  2
Continuous
 70
     0
  3
Solid line
 72
    65
 73
     0
 40
0.0
  0
ENDTAB
  0
TABLE
  2
LAYER
  5
15
102
{ACAD_XDICTIONARY
360
16
102
}
330
0
100
AcDbSymbolTable
 70
     1
  0
LAYER
  5
4
330
15
100
AcDbSymbolTableRecord
100
AcDbLayerTableRecord
  2
0
 70
     0
 62
     7
  6
Continuous
370
    -3
390
5
347
8
  0
ENDTAB
  0
TABLE
  2
STYLE
  5
18
330
0
100
AcDbSymbolTable
 70
     1
  0
STYLE
  5
26
330
18
100
AcDbSymbolTableRecord
100
AcDbTextStyleTableRecord
  2
Standard
 70
     0
 40
0.0
 41
1.0
 50
0.0
 71
     0
 42
2.5
  3
arial.ttf
  4

1001
ACAD
1000
Arial
1071
       34
  0
ENDTAB
  0
TABLE
  2
VIEW
  5
1B
330
0
100
AcDbSymbolTable
 70
     0
  0
ENDTAB
  0
TABLE
  2
UCS
  5
1C
330
0
100
AcDbSymbolTable
 70
     0
  0
ENDTAB
  0
TABLE
  2
APPID
  5
22
330
0
100
AcDbSymbolTable
 70
     7
  0
APPID
  5
23
330
22
100
AcDbSymbolTableRecord
100
AcDbRegAppTableRecord
  2
ACAD
 70
     0
  0
APPID
  5
F
330
22
100
AcDbSymbolTableRecord
100
AcDbRegAppTableRecord
  2
ACAD_PSEXT
 70
     0
  0
APPID
  5
21
330
22
100
AcDbSymbolTableRecord
100
AcDbRegAppTableRecord
  2
ACAD_NAV_VCDISPLAY
 70
     0
  0
APPID
  5
29
330
22
100
AcDbSymbolTableRecord
100
AcDbRegAppTableRecord
  2
AcadAnnotative
 70
     0
  0
APPID
  5
2A
330
22
100
AcDbSymbolTableRecord
100
AcDbRegAppTableRecord
  2
ACAD_DSTYLE_DIMJAG
 70
     0
  0
APPID
  5
28
330
22
100
AcDbSymbolTableRecord
100
AcDbRegAppTableRecord
  2
ACAD_DSTYLE_DIMBREAK
 70
     0
  0
APPID
  5
2B
330
22
100
AcDbSymbolTableRecord
100
AcDbRegAppTableRecord
  2
ACAD_DSTYLE_DIMTALN
 70
     0
  0
ENDTAB
  0
TABLE
  2
DIMSTYLE
  5
24
330
0
100
AcDbSymbolTable
 70
     2
100
AcDbDimStyleTable
 71
     2
340
25
340
27
  0
DIMSTYLE
105
25
330
24
100
AcDbSymbolTableRecord
100
AcDbDimStyleTableRecord
  2
ISO-25
 70
     0
 41
2.5
 42
0.625
 43
3.75
 44
1.25
 73
     0
 74
     0
 77
     1
 78
     8
140
2.5
141
2.5
143
0.03937007874016
147
0.625
171
     3
172
     1
271
     2
272
     2
274
     3
278
    44
283
     0
284
     8
340
26
  0
DIMSTYLE
105
27
330
24
100
AcDbSymbolTableRecord
100
AcDbDimStyleTableRecord
  2
Annotative
 70
     0
 41
2.5
 42
0.625
 43
3.75
 44
1.25
 73
     0
 74
     0
 77
     1
 78
     8
140
2.5
141
2.5
143
0.03937007874016
147
0.625
171
     3
172
     1
271
     2
272
     2
274
     3
278
    44
283
     0
284
     8
340
26
1001
ACAD_DSTYLE_DIMBREAK
1070
   391
1040
3.75
1001
AcadAnnotative
1000
AnnotativeData
1002
{
1070
     1
1070
     1
1002
}
1001
ACAD_DSTYLE_DIMJAG
1070
   388
1040
1.5
1001
ACAD_DSTYLE_DIMTALN
1070
   392
1070
     0
  0
ENDTAB
  0
TABLE
  2
BLOCK_RECORD
  5
1
330
0
100
AcDbSymbolTable
 70
     0
  0
BLOCK_RECORD
  5
2
330
1
100
AcDbSymbolTableRecord
100
AcDbBlockTableRecord
  2
*MODEL_SPACE
340
D
 70
     0
280
     1
281
     0
  0
BLOCK_RECORD
  5
10
330
1
100
AcDbSymbolTableRecord
100
AcDbBlockTableRecord
  2
*PAPER_SPACE
340
13
 70
     0
280
     1
281
     0
  0
ENDTAB
  0
ENDSEC
  0
SECTION
  2
BLOCKS
  0
BLOCK
  5
3
330
2
100
AcDbEntity
  8
0
100
AcDbBlockBegin
  2
*MODEL_SPACE
 70
     0
 10
0.0
 20
0.0
 30
0.0
  3
*MODEL_SPACE
  1

  0
ENDBLK
  5
C
330
2
100
AcDbEntity
  8
0
100
AcDbBlockEnd
  0
BLOCK
  5
11
330
10
100
AcDbEntity
 67
     1
  8
0
100
AcDbBlockBegin
  2
*PAPER_SPACE
 70
     0
 10
0.0
 20
0.0
 30
0.0
  3
*PAPER_SPACE
  1

  0
ENDBLK
  5
12
330
10
100
AcDbEntity
 67
     1
  8
0
100
AcDbBlockEnd
  0
ENDSEC
  0
SECTION
  2
ENTITIES
  0
LWPOLYLINE
  5
67
330
2
100
AcDbEntity
  8
0
 62
     0
100
AcDbPolyline
 90
        5
 70
     0
 43
0.0
 10
11743.611073683
 20
16990.10815636608
 10
11483.61009668301
 20
16990.10815636608
 10
11483.60997468301
 20
15260.10815636608
 10
11743.611012683
 20
15260.10815636608
 10
11743.611073683
 20
16990.10815636608
  0
LWPOLYLINE
  5
68
330
2
100
AcDbEntity
  8
0
 62
     0
100
AcDbPolyline
 90
        5
 70
     0
 43
0.0
 10
11738.61107368312
 20
16985.10815636608
 10
11488.61009668301
 20
16985.10815636608
 10
11488.60997468301
 20
15265.10815636608
 10
11738.61101268306
 20
15265.10815636608
 10
11738.61107368312
 20
16985.10815636608
  0
LWPOLYLINE
  5
69
330
2
100
AcDbEntity
  8
0
 62
     0
100
AcDbPolyline
 90
      178
 70
     0
 43
0.0
 10
11557.110462683
 20
15344.10815636607
 10
11557.110462683
 20
15340.73315636608
 10
11557.110462683
 20
15337.35815636608
 10
11557.110462683
 20
15337.20825336608
 10
11557.110462683
 20
15337.05835136608
 10
11557.110462683
 20
15336.98315636608
 10
11557.110462683
 20
15336.90844936607
 10
11557.110462683
 20
15336.83325336608
 10
11557.110462683
 20
15336.75805836607
 42
0.000405
 10
11557.110584683
 20
15336.60717936608
 42
0.011731
 10
11557.114368683
 20
15336.45630036608
 42
0.014516
 10
11557.12608768306
 20
15336.30493336607
 42
0.062959
 10
11557.29747468301
 20
15335.56616436607
 42
0.088899
 10
11557.83409568305
 20
15334.65405436607
 42
0.088357
 10
11558.65440868305
 20
15333.98510936608
 42
0.088709
 10
11559.65636168296
 20
15333.64282436607
 42
0.014584
 10
11559.80675168305
 20
15333.62378136608
 42
0.014179
 10
11559.958607683
 20
15333.61206236608
 42
0.008051
 10
11560.110462683
 20
15333.60815636608
 42
0.001311
 10
11560.66954468305
 20
15333.60815636608
 42
-0.001311
 10
11561.228138683
 20
15333.60815636608
 10
11561.50767968314
 20
15333.60815636608
 10
11561.78722068299
 20
15333.60815636608
 10
11562.11905368317
 20
15333.60815636608
 42
-0.000736
 10
11562.450886683
 20
15333.60864436609
 10
11563.11455268306
 20
15333.60864436609
 10
11563.44638468306
 20
15333.60864436609
 42
-0.000736
 10
11563.778217683
 20
15333.60913236607
 10
11564.44188368301
 20
15333.60913236607
 10
11565.76921568309
 20
15333.60913236607
 10
11566.43288068297
 20
15333.60913236607
 10
11566.76469868309
 20
15333.60913236607
 42
-0.000736
 10
11567.09654668298
 20
15333.60888836608
 10
11569.751209683
 20
15333.60815636608
 10
11570.41487568307
 20
15333.60815636608
 10
11570.58079968304
 20
15333.60815636608
 42
0.001472
 10
11570.74670868313
 20
15333.60766736608
 10
11571.07854168307
 20
15333.60766736608
 10
11572.40587268297
 20
15333.60766736608
 10
11573.41890368306
 20
15333.60766736608
 10
11573.67216968308
 20
15333.60766736608
 42
0.000972
 10
11573.92541968314
 20
15333.60717936608
 10
11574.43191968305
 20
15333.60717936608
 10
11576.45790568301
 20
15333.60717936608
 10
11578.48387568308
 20
15333.60717936608
 10
11579.49684568301
 20
15333.60717936608
 10
11580.00334668309
 20
15333.60717936608
 10
11580.25658068304
 20
15333.60717936608
 42
-0.000457
 10
11580.50981568305
 20
15333.60742336607
 10
11584.56155868304
 20
15333.60791236607
 42
-0.000482
 10
11585.06810468306
 20
15333.60815636608
 10
11585.57457468314
 20
15333.60815636608
 10
11586.58751368306
 20
15333.60815636608
 10
11588.61339268314
 20
15333.60815636608
 10
11648.60753368305
 20
15333.60815636608
 10
11651.18247668297
 20
15333.60815636608
 10
11663.75700868309
 20
15333.60815636608
 10
11664.31609068297
 20
15333.60815636608
 10
11664.87517268296
 20
15333.60815636608
 10
11665.15446968299
 20
15333.60815636608
 10
11665.43376568307
 20
15333.60815636608
 10
11665.71330668304
 20
15333.60815636608
 10
11665.99284768301
 20
15333.60815636608
 10
11666.27213768304
 20
15333.60815636608
 42
-0.001311
 10
11666.55144568304
 20
15333.60815636608
 42
0.00131
 10
11667.110523683
 20
15333.60815636608
 42
0.00805
 10
11667.26237968307
 20
15333.61206236608
 42
0.014183
 10
11667.41423468308
 20
15333.62378136608
 42
0.050468
 10
11668.00846968304
 20
15333.74585136608
 42
0.089154
 10
11668.94647268309
 20
15334.23608536606
 42
0.089104
 10
11669.65642268285
 20
15335.02124236608
 42
0.076035
 10
11670.01482868309
 20
15335.85620336607
 42
0.036878
 10
11670.094898683
 20
15336.30493336607
 42
0.014616
 10
11670.10661368309
 20
15336.45630036608
 42
0.011681
 10
11670.110401683
 20
15336.60717936608
 42
0.00043
 10
11670.110523683
 20
15336.75805836607
 10
11670.110523683
 20
15336.83325336608
 10
11670.110523683
 20
15336.90796036606
 10
11670.111088683
 20
15337.35815636608
 10
11670.11150468296
 20
15337.80810736608
 10
11670.11196568304
 20
15338.70825336608
 10
11670.11202668304
 20
15339.60840036606
 10
11670.11180568304
 20
15340.50830236608
 10
11670.11100468306
 20
15342.30835136608
 10
11670.11066468309
 20
15343.20825336608
 10
11670.110523683
 20
15344.10815636607
 10
11670.110523683
 20
15384.10815636607
 10
11670.110523683
 20
15387.48315636608
 10
11670.110523683
 20
15390.85815636608
 10
11670.110523683
 20
15391.00830236608
 10
11670.110523683
 20
15391.15844936607
 10
11670.110523683
 20
15391.23315636608
 10
11670.110523683
 20
15391.30835136608
 10
11670.110523683
 20
15391.38330236608
 10
11670.110523683
 20
15391.45825336608
 42
0.000416
 10
11670.11040968301
 20
15391.60913236608
 42
0.011833
 10
11670.10661768306
 20
15391.76001136608
 42
0.014168
 10
11670.094898683
 20
15391.91186736608
 42
0.062962
 10
11669.923512683
 20
15392.65014836608
 42
0.088918
 10
11669.38687968299
 20
15393.56225736607
 42
0.088597
 10
11668.56657868296
 20
15394.23120336608
 42
0.08934
 10
11667.56462568305
 20
15394.57348836607
 42
0.011373
 10
11667.41423468308
 20
15394.59301936609
 42
0.011022
 10
11667.26237968307
 20
15394.60425036608
 42
0.00805
 10
11667.11050868306
 20
15394.60815636608
 42
0.00131
 10
11666.55145668301
 20
15394.60815636608
 42
-0.001311
 10
11666.27214468304
 20
15394.60815636608
 10
11665.99284768301
 20
15394.60815636608
 10
11665.71330668304
 20
15394.60815636608
 10
11665.43376568307
 20
15394.60815636608
 10
11665.10195568307
 20
15394.60815636608
 42
-0.000736
 10
11664.77010068301
 20
15394.60766736608
 10
11664.10643468301
 20
15394.60766736608
 10
11663.77462468306
 20
15394.60766736608
 42
-0.000736
 10
11663.442768683
 20
15394.60717936608
 10
11662.77910268305
 20
15394.60717936608
 10
11661.45177168298
 20
15394.60717936608
 10
11661.11993068315
 20
15394.60717936608
 42
0.000736
 10
11660.78810568309
 20
15394.60766736608
 10
11660.12443968309
 20
15394.60766736608
 10
11658.79710868296
 20
15394.60766736608
 10
11658.46526768307
 20
15394.60766736608
 42
0.000736
 10
11658.13344268301
 20
15394.60815636608
 10
11657.469776683
 20
15394.60815636608
 10
11657.13793668301
 20
15394.60815636608
 42
0.000736
 10
11656.806110683
 20
15394.60864436609
 10
11656.142445683
 20
15394.60864436609
 10
11655.81060468305
 20
15394.60864436609
 42
0.000736
 10
11655.47877968305
 20
15394.60913236607
 10
11654.81511368304
 20
15394.60913236607
 10
11653.80208268306
 20
15394.60913236607
 10
11653.54882468322
 20
15394.60913236607
 42
0.000964
 10
11653.29558268304
 20
15394.60962136607
 10
11652.78907468308
 20
15394.60962136607
 10
11650.76307368306
 20
15394.60962136607
 10
11649.75008068296
 20
15394.60962136607
 10
11649.49684568307
 20
15394.60962136607
 42
-0.000964
 10
11649.243588683
 20
15394.60913236607
 10
11648.73710368298
 20
15394.60913236607
 10
11646.71116368296
 20
15394.60913236607
 10
11652.65939068298
 20
15394.60840036607
 42
-0.000482
 10
11652.15286668301
 20
15394.60815636608
 10
11651.64638168305
 20
15394.60815636608
 10
11650.63343468307
 20
15394.60815636608
 10
11648.60753368305
 20
15394.60815636608
 10
11588.61339268314
 20
15394.60815636608
 10
11576.03850268297
 20
15394.60815636608
 10
11563.46397868298
 20
15394.60815636608
 10
11562.90471368305
 20
15394.60815636608
 10
11562.34581468305
 20
15394.60815636608
 10
11562.06651768296
 20
15394.60815636608
 10
11561.78722068299
 20
15394.60815636608
 10
11561.50767968314
 20
15394.60815636608
 42
0.001315
 10
11561.228138683
 20
15394.60815636608
 10
11560.94885668285
 20
15394.60815636608
 42
-0.001311
 10
11560.66952968306
 20
15394.60815636608
 42
0.001311
 10
11560.110462683
 20
15394.60815636608
 42
0.008051
 10
11559.958607683
 20
15394.60425036608
 42
0.014179
 10
11559.80675168305
 20
15394.59253136608
 42
0.050467
 10
11559.21251368306
 20
15394.47046036607
 42
0.088847
 10
11558.27405268301
 20
15393.98022636607
 42
0.088893
 10
11557.56456468299
 20
15393.19507036608
 42
0.076058
 10
11557.20616568309
 20
15392.36010936607
 42
0.038399
 10
11557.12608768306
 20
15391.91186736608
 42
0.014268
 10
11557.114368683
 20
15391.76001136608
 42
0.011731
 10
11557.110584683
 20
15391.60913236608
 42
0.000406
 10
11557.110462683
 20
15391.45825336608
 10
11557.110462683
 20
15391.38330236608
 10
11557.110462683
 20
15391.30835136608
 10
11557.10991368301
 20
15390.85815636608
 10
11557.10948668308
 20
15390.40820536607
 10
11557.10902868309
 20
15389.50805836607
 10
11557.10896768309
 20
15388.60791236607
 10
11557.10918068296
 20
15387.70800936607
 10
11557.10997468307
 20
15385.90796036607
 10
11557.11031068301
 20
15385.00805836607
 10
11557.110462683
 20
15384.10815636607
 10
11557.110462683
 20
15344.10815636607
  0
LWPOLYLINE
  5
6A
330
2
100
AcDbEntity
  8
0
 62
     0
100
AcDbPolyline
 90
      222
 70
     0
 43
0.0
 10
11588.61345368296
 20
15527.10815636608
 10
11550.43571968299
 20
15527.10815636608
 10
11512.25798468296
 20
15527.10815636608
 10
11510.52263368298
 20
15527.10815636608
 10
11508.78728168305
 20
15527.10815636608
 10
11507.91960568305
 20
15527.10815636608
 10
11507.05193068301
 20
15527.10815636608
 10
11506.18425468301
 20
15527.10815636608
 10
11505.31651768308
 20
15527.10815636608
 42
0.000422
 10
11503.58144068309
 20
15527.10815636608
 42
-0.000422
 10
11501.84581468305
 20
15527.10815636608
 42
0.002532
 10
11500.110523683
 20
15527.10815636608
 42
0.009746
 10
11499.98503568307
 20
15527.10425036607
 42
0.017053
 10
11499.85954768308
 20
15527.09253136608
 42
0.04559
 10
11499.49235968296
 20
15527.01050036608
 42
0.094034
 10
11498.83562168309
 20
15526.64917136608
 42
0.094308
 10
11498.35806768304
 20
15526.07153536607
 42
0.078373
 10
11498.14568068301
 20
15525.48315636608
 42
0.014215
 10
11498.126148683
 20
15525.35864436608
 42
0.017578
 10
11498.11443068301
 20
15525.23364436608
 42
0.009728
 10
11498.110523683
 20
15525.10815636608
 42
0.002491
 10
11498.110523683
 20
15523.93188636608
 42
-0.000623
 10
11498.110523683
 20
15522.75512836608
 10
11498.11031068301
 20
15522.46118336607
 10
11498.11034068306
 20
15522.16699436608
 10
11498.110523683
 20
15521.57885936608
 10
11498.110523683
 20
15520.99072436607
 10
11498.110523683
 20
15520.40210136608
 10
11498.10997468301
 20
15517.46118336607
 10
11498.10954768314
 20
15514.51977736607
 10
11498.10908968297
 20
15508.63745336608
 10
11498.10902868285
 20
15502.75537336609
 10
11498.10924268297
 20
15496.87304836607
 10
11498.11003568301
 20
15485.10840036607
 10
11498.11037168307
 20
15479.22583236607
 10
11498.110523683
 20
15473.34350736608
 10
11498.110523683
 20
15472.16723836607
 10
11498.110523683
 20
15470.99048036606
 10
11498.110523683
 20
15470.40234536607
 10
11498.110523683
 20
15469.81421036608
 10
11498.110523683
 20
15469.22607636608
 10
11498.110523683
 20
15468.63794136609
 10
11498.11034068306
 20
15468.04931836608
 10
11498.11031068301
 20
15467.75512836608
 10
11498.110523683
 20
15467.46118336607
 42
-0.000623
 10
11498.110523683
 20
15466.28491436608
 42
0.00249
 10
11498.110523683
 20
15465.10815636608
 42
0.009728
 10
11498.11443068301
 20
15464.98266736608
 42
0.011719
 10
11498.126148683
 20
15464.85766736608
 42
0.045547
 10
11498.20814968306
 20
15464.49048036607
 42
0.094665
 10
11498.56952368286
 20
15463.83374236608
 42
0.094547
 10
11499.14714468298
 20
15463.35571436608
 42
0.079117
 10
11499.735523683
 20
15463.14380036608
 42
0.015241
 10
11499.86003568301
 20
15463.12426936608
 42
0.015671
 10
11499.98503568307
 20
15463.11206236608
 42
0.003941
 10
11500.11050868301
 20
15463.10815636608
 42
0.00211
 10
11501.84590568305
 20
15463.10815636608
 42
-0.000844
 10
11503.58121168297
 20
15463.10815636608
 42
0.000422
 10
11504.44890268285
 20
15463.10815636608
 10
11505.31642568308
 20
15463.10815636608
 42
-0.000422
 10
11506.18443768301
 20
15463.10815636608
 10
11507.05193068301
 20
15463.10815636608
 10
11509.65495768298
 20
15463.10815636608
 10
11512.25798468296
 20
15463.10815636608
 10
11514.86101268306
 20
15463.10815636608
 10
11515.51176868284
 20
15463.10815636608
 10
11515.67445868304
 20
15463.10815636608
 42
-0.001501
 10
11515.83714768301
 20
15463.10864436609
 10
11516.16252568298
 20
15463.10864436609
 10
11517.46403968309
 20
15463.10864436609
 10
11518.57573368306
 20
15463.10864436609
 10
11518.85365768305
 20
15463.10864436609
 42
-0.000885
 10
11519.13159668281
 20
15463.10913236607
 10
11519.68744368297
 20
15463.10913236607
 10
11521.91055768307
 20
15463.10913236607
 42
-0.00093
 10
11526.35768568305
 20
15463.10962136607
 42
0.000851
 10
11535.251347683
 20
15463.10986536608
 42
-0.000439
 10
11535.52927068305
 20
15463.11010936608
 10
11535.80719468304
 20
15463.11010936608
 10
11536.36305668308
 20
15463.11010936608
 10
11537.47476668305
 20
15463.11010936608
 10
11539.69818568315
 20
15463.11010936608
 10
11544.14503968302
 20
15463.11010936608
 10
11546.368458683
 20
15463.11010936608
 10
11546.92432068304
 20
15463.11010936608
 42
0.000443
 10
11547.48018368297
 20
15463.10962136607
 10
11548.59189268305
 20
15463.10962136607
 10
11553.03874668297
 20
15463.10962136607
 10
11557.48560068307
 20
15463.10962136607
 10
11558.59724868308
 20
15463.10962136607
 42
-0.00044
 10
11559.15317268301
 20
15463.10913236607
 10
11559.70903468305
 20
15463.10913236607
 10
11561.93245368304
 20
15463.10913236607
 10
11566.37930768307
 20
15463.10913236607
 10
11567.49095568304
 20
15463.10913236607
 42
-0.00044
 10
11568.04687968308
 20
15463.10864436609
 10
11568.602726683
 20
15463.10864436609
 10
11570.82614568317
 20
15463.10864436609
 10
11575.27298468297
 20
15463.10864436609
 10
11576.38463268322
 20
15463.10864436609
 42
-0.00044
 10
11576.94055668304
 20
15463.10815636608
 10
11577.49640368296
 20
15463.10815636608
 10
11579.71982268301
 20
15463.10815636608
 10
11588.61345368296
 20
15463.10815636608
 10
11648.60759468305
 20
15463.10815636608
 10
11676.78532868296
 20
15463.10815636608
 10
11695.87424168309
 20
15463.10815636608
 10
11714.96306268305
 20
15463.10815636608
 10
11716.69841468309
 20
15463.10815636608
 10
11718.43376568307
 20
15463.10815636608
 10
11719.30144168301
 20
15463.10815636608
 10
11720.16911768312
 20
15463.10815636608
 10
11721.03691668306
 20
15463.10815636608
 42
-0.000422
 10
11721.90446968305
 20
15463.10815636608
 10
11722.77228068314
 20
15463.10815636608
 42
0.000422
 10
11723.63985168309
 20
15463.10815636608
 42
-0.000844
 10
11725.37515968304
 20
15463.10815636608
 42
0.00211
 10
11727.110523683
 20
15463.10815636608
 10
11727.17345168306
 20
15463.10962136607
 42
0.007843
 10
11727.236012683
 20
15463.11206236608
 42
0.015682
 10
11727.361012683
 20
15463.12426936608
 42
0.047609
 10
11727.72868868305
 20
15463.20630036608
 42
0.094298
 10
11728.38543868308
 20
15463.56714036607
 42
0.094576
 10
11728.86345368308
 20
15464.14477736607
 42
0.078044
 10
11729.07536968296
 20
15464.73364436608
 42
0.013748
 10
11729.09489868312
 20
15464.85766736608
 42
0.017612
 10
11729.10662168309
 20
15464.98266736608
 42
0.009746
 10
11729.110523683
 20
15465.10815636608
 42
0.002491
 10
11729.110523683
 20
15466.28491436608
 42
-0.000623
 10
11729.110523683
 20
15467.46118336607
 10
11729.110729683
 20
15467.75512836608
 10
11729.110706683
 20
15468.04931836608
 10
11729.110523683
 20
15468.63794136609
 10
11729.110523683
 20
15469.22607636608
 10
11729.110523683
 20
15469.81421036608
 10
11729.11108668304
 20
15472.75512836608
 10
11729.11150568297
 20
15475.69653536607
 10
11729.11196568304
 20
15481.57885936608
 10
11729.11202568309
 20
15487.46118336607
 10
11729.11180568299
 20
15493.34350736607
 10
11729.11100468306
 20
15505.10815636608
 10
11729.11066368308
 20
15510.99048036606
 10
11729.110523683
 20
15516.87280436608
 10
11729.110523683
 20
15518.04956236608
 10
11729.110523683
 20
15519.22583236607
 10
11729.110523683
 20
15519.81396636608
 10
11729.110523683
 20
15520.40258936608
 10
11729.110523683
 20
15520.99072436607
 10
11729.110523683
 20
15521.57885936608
 10
11729.110706683
 20
15522.16699436608
 10
11729.110729683
 20
15522.46118336607
 10
11729.110523683
 20
15522.75512836608
 42
-0.000623
 10
11729.110523683
 20
15523.93188636608
 42
0.002491
 10
11729.110523683
 20
15525.10815636608
 42
0.009747
 10
11729.10662568307
 20
15525.23364436608
 42
0.017055
 10
11729.09489868312
 20
15525.35913236607
 42
0.045582
 10
11729.01288568297
 20
15525.72632036608
 42
0.094041
 10
11728.65153668313
 20
15526.38305836607
 42
0.093702
 10
11728.07389868305
 20
15526.86108536607
 42
0.077963
 10
11727.485523683
 20
15527.07300036608
 42
0.013452
 10
11727.36101168299
 20
15527.09253136608
 42
0.017607
 10
11727.23601168305
 20
15527.10425036607
 42
0.009745
 10
11727.11046168305
 20
15527.10815636608
 42
0.002532
 10
11725.37538568307
 20
15527.10815636608
 42
-0.000422
 10
11723.63976468313
 20
15527.10815636608
 42
0.000422
 10
11721.90446968305
 20
15527.10815636608
 10
11721.03679368306
 20
15527.10815636608
 10
11720.16911768312
 20
15527.10815636608
 10
11719.51836068298
 20
15527.10815636608
 10
11719.355661683
 20
15527.10815636608
 42
0.001501
 10
11719.192982683
 20
15527.10864436608
 10
11718.86760368301
 20
15527.10864436608
 10
11717.56609068314
 20
15527.10864436608
 10
11716.26457668298
 20
15527.10864436608
 10
11715.61381968301
 20
15527.10864436608
 10
11715.28844668301
 20
15527.10864436608
 42
0.00075
 10
11714.96306268305
 20
15527.10840036607
 10
11709.75700868309
 20
15527.10766736608
 10
11708.64530668301
 20
15527.10766736608
 10
11708.36739268298
 20
15527.10766736608
 42
-0.000878
 10
11708.08945568306
 20
15527.10717936608
 10
11707.53360468305
 20
15527.10717936608
 10
11705.31019468301
 20
15527.10717936608
 10
11704.19849068309
 20
15527.10717936608
 10
11703.92057668306
 20
15527.10717936608
 42
-0.000878
 10
11703.64263568305
 20
15527.10669136609
 10
11703.08678468298
 20
15527.10669136609
 10
11700.86337168315
 20
15527.10669136609
 10
11696.416540683
 20
15527.10669136609
 10
11694.19311968305
 20
15527.10669136609
 10
11693.08140968297
 20
15527.10669136609
 10
11692.52555568305
 20
15527.10669136609
 10
11692.24758268315
 20
15527.10669136609
 42
0.000439
 10
11691.96972368312
 20
15527.10644736607
 42
-0.000439
 10
11691.69176968308
 20
15527.10620336608
 10
11691.41384568314
 20
15527.10620336608
 10
11690.85799068304
 20
15527.10620336608
 10
11689.74628168308
 20
15527.10620336608
 10
11687.52285468309
 20
15527.10620336608
 10
11683.07600868317
 20
15527.10620336608
 10
11680.852581683
 20
15527.10620336608
 10
11680.29661268297
 20
15527.10620336608
 42
0.00044
 10
11679.74086868307
 20
15527.10669136609
 10
11678.62915468308
 20
15527.10669136609
 10
11674.18230168304
 20
15527.10669136609
 10
11669.73544768306
 20
15527.10669136609
 10
11668.62376068304
 20
15527.10669136609
 42
-0.000439
 10
11668.067875683
 20
15527.10717936608
 10
11667.51202068313
 20
15527.10717936608
 10
11665.28859368297
 20
15527.10717936608
 10
11660.84174068305
 20
15527.10717936608
 10
11659.73006168309
 20
15527.10717936608
 42
-0.00044
 10
11659.17418368304
 20
15527.10766736608
 10
11658.61832068306
 20
15527.10766736608
 10
11656.39490168301
 20
15527.10766736608
 10
11651.94806368304
 20
15527.10766736608
 10
11650.83638468302
 20
15527.10766736608
 42
-0.00044
 10
11650.28049168309
 20
15527.10815636608
 10
11649.72464468299
 20
15527.10815636608
 10
11647.50122568301
 20
15527.10815636608
 10
11648.60759468305
 20
15527.10815636608
 10
11588.61345368296
 20
15527.10815636608
  0
LWPOLYLINE
  5
6B
330
2
100
AcDbEntity
  8
0
 62
     0
100
AcDbPolyline
 90
      215
 70
     0
 43
0.0
 10
11557.11052368306
 20
16090.10815636608
 10
11557.11052368306
 20
15882.90698436607
 10
11557.11052368306
 20
15675.70630036608
 10
11557.11052368306
 20
15666.06884936608
 10
11557.11052368306
 20
15656.43139836608
 10
11557.11052368306
 20
15651.61279436608
 10
11557.11052368306
 20
15646.79419136608
 10
11557.11052368306
 20
15641.97558736609
 10
11557.11052368306
 20
15637.15698436608
 10
11557.11066168306
 20
15634.74780436608
 10
11557.11088968305
 20
15632.33838036608
 10
11557.11093568305
 20
15629.92895736607
 10
11557.11079868306
 20
15628.72436736607
 10
11557.11052368306
 20
15627.51977736607
 10
11557.10963868307
 20
15625.11059736608
 10
11557.10919668297
 20
15623.90576336608
 10
11557.10887568307
 20
15622.70117336607
 10
11557.10875368314
 20
15621.49658436607
 10
11557.10893668314
 20
15620.29175036608
 10
11557.10950168308
 20
15619.08716036607
 10
11557.11034068301
 20
15617.88403536607
 42
-0.000532
 10
11557.11043268301
 20
15608.24560736608
 42
-0.000382
 10
11557.08856668304
 20
15603.42675936607
 42
0.004934
 10
11557.11052368306
 20
15598.60815636608
 42
0.003216
 10
11557.11443068307
 20
15598.45630036608
 42
0.01447
 10
11557.126148683
 20
15598.30444536608
 42
0.037037
 10
11557.20622668315
 20
15597.85620336608
 42
0.088886
 10
11557.64812168309
 20
15596.89428936608
 42
0.075884
 10
11558.27409768301
 20
15596.23559736608
 42
0.075602
 10
11559.06853168305
 20
15595.79467936608
 42
0.050924
 10
11559.65642268308
 20
15595.64282436607
 42
0.011366
 10
11559.80681268299
 20
15595.62329236608
 42
0.011019
 10
11559.95866868306
 20
15595.61206236608
 42
0.008051
 10
11560.110523683
 20
15595.60815636608
 42
0.001311
 10
11560.66960568305
 20
15595.60815636608
 42
-0.001316
 10
11560.94890268308
 20
15595.60815636608
 10
11561.22819968306
 20
15595.60815636608
 10
11561.50774068296
 20
15595.60815636608
 10
11561.78728168305
 20
15595.60815636608
 10
11562.11911468299
 20
15595.60815636608
 42
-0.000736
 10
11562.45094768306
 20
15595.60864436607
 10
11563.11461368312
 20
15595.60864436607
 10
11563.446445683
 20
15595.60864436607
 42
-0.000736
 10
11563.77827868306
 20
15595.60913236607
 10
11564.44194468301
 20
15595.60913236607
 10
11565.76927668314
 20
15595.60913236607
 10
11566.43294168309
 20
15595.60913236607
 10
11566.76475968297
 20
15595.60913236607
 42
-0.000736
 10
11567.09660768309
 20
15595.60888836608
 10
11569.751270683
 20
15595.60815636608
 10
11570.41493668307
 20
15595.60815636608
 10
11570.58086068297
 20
15595.60815636608
 42
0.001472
 10
11570.74676968301
 20
15595.60766736608
 10
11571.07860268313
 20
15595.60766736608
 10
11572.40593368308
 20
15595.60766736608
 10
11572.91244968305
 20
15595.60766736608
 42
0.000486
 10
11573.41896468306
 20
15595.60717936607
 10
11574.43198068304
 20
15595.60717936607
 10
11576.45796668307
 20
15595.60717936607
 10
11578.48393668297
 20
15595.60717936607
 10
11579.49690668301
 20
15595.60717936607
 10
11580.00340768309
 20
15595.60717936607
 10
11580.25664168315
 20
15595.60717936607
 42
-0.000457
 10
11580.50987668305
 20
15595.60742336607
 10
11584.56161968298
 20
15595.60791236607
 42
-0.000482
 10
11585.06816568305
 20
15595.60815636608
 10
11585.57463568308
 20
15595.60815636608
 10
11586.58757468306
 20
15595.60815636608
 10
11588.61345368296
 20
15595.60815636608
 10
11648.60759468305
 20
15595.60815636608
 10
11651.18248468298
 20
15595.60815636608
 10
11663.75700868309
 20
15595.60815636608
 10
11664.31609068297
 20
15595.60815636608
 10
11664.87517268296
 20
15595.60815636608
 10
11665.15446968299
 20
15595.60815636608
 10
11665.43376568307
 20
15595.60815636608
 10
11665.71331068307
 20
15595.60815636608
 42
0.00131
 10
11665.99284768301
 20
15595.60815636608
 10
11666.27219468313
 20
15595.60815636608
 42
-0.001309
 10
11666.55193068301
 20
15595.60815636608
 42
0.001311
 10
11667.110523683
 20
15595.60815636608
 42
0.00805
 10
11667.26237968307
 20
15595.61206236608
 42
0.011021
 10
11667.41423468308
 20
15595.62329236608
 42
0.049864
 10
11668.00847268307
 20
15595.74585136608
 42
0.088516
 10
11668.946949683
 20
15596.23559736608
 42
0.088645
 10
11669.65642268285
 20
15597.02124236607
 42
0.076035
 10
11670.01482068309
 20
15597.85620336608
 42
0.025512
 10
11670.07585168308
 20
15598.15405436607
 42
0.014559
 10
11670.094898683
 20
15598.30444536608
 42
0.014167
 10
11670.10661768306
 20
15598.45630036608
 42
0.003265
 10
11670.110523683
 20
15598.60815636608
 42
0.004881
 10
11670.13242068309
 20
15603.42675936607
 42
-0.000362
 10
11670.110584683
 20
15608.24536336607
 42
-0.000532
 10
11670.110523683
 20
15617.88257036608
 10
11670.11154668305
 20
15619.08716036607
 10
11670.11210368304
 20
15620.29175036608
 10
11670.11228668304
 20
15621.49658436607
 10
11670.1121716831
 20
15622.70117336607
 10
11670.11141668299
 20
15625.11059736608
 10
11670.110523683
 20
15627.51977736607
 10
11670.11004368313
 20
15629.92895736607
 10
11670.10997468307
 20
15632.33838036608
 10
11670.11018068301
 20
15634.74780436608
 10
11670.110523683
 20
15637.15698436608
 10
11670.110523683
 20
15641.97558736609
 10
11670.110523683
 20
15646.79419136608
 10
11670.11031768301
 20
15654.02221836607
 10
11670.11034068301
 20
15661.25024636607
 10
11670.110523683
 20
15675.70630036608
 10
11670.111088683
 20
15701.60620336607
 10
11670.11150468296
 20
15727.50659336608
 10
11670.11196568304
 20
15779.30664236607
 10
11670.11202668304
 20
15831.10669136608
 10
11670.11180568304
 20
15882.90698436607
 10
11670.11100468306
 20
15986.50757036608
 10
11670.11066468309
 20
16038.30786336607
 10
11670.110523683
 20
16090.10815636608
 10
11670.110523683
 20
16160.10815636608
 10
11670.110531683
 20
16367.30908436607
 10
11670.110584683
 20
16574.51001136608
 10
11670.110584683
 20
16584.14721836607
 10
11670.110584683
 20
16593.78442536608
 10
11670.110584683
 20
16598.60302936608
 10
11670.110584683
 20
16603.42163236607
 10
11670.110584683
 20
16608.24048036607
 10
11670.110584683
 20
16613.05883936608
 10
11670.11044768301
 20
16615.46838536606
 10
11670.11021868307
 20
16617.87768736607
 10
11670.11017268301
 20
16620.28698936608
 10
11670.11030268306
 20
16621.49170136608
 10
11670.110584683
 20
16622.69653536607
 10
11670.11147768305
 20
16625.10583636608
 10
11670.11223268309
 20
16627.51513836608
 10
11670.11234768298
 20
16628.71972836608
 10
11670.11216468304
 20
16629.92444036608
 10
11670.11160768299
 20
16631.12915236607
 10
11670.110584683
 20
16632.33374236607
 42
-0.000532
 10
11670.11054668306
 20
16641.97107136607
 42
-0.000379
 10
11670.13253468314
 20
16646.78955236608
 42
0.004941
 10
11670.110584683
 20
16651.60815636608
 42
0.003217
 10
11670.10667468315
 20
16651.76001136608
 42
0.014567
 10
11670.094959683
 20
16651.91137836608
 42
0.036895
 10
11670.01486668298
 20
16652.36010936608
 42
0.088642
 10
11669.57299068307
 20
16653.32202336608
 42
0.075932
 10
11668.94701068305
 20
16653.98022636608
 42
0.075769
 10
11668.15257668301
 20
16654.42114436608
 42
0.05077
 10
11667.56468668305
 20
16654.57348836607
 42
0.014582
 10
11667.41429568307
 20
16654.59253136608
 42
0.014179
 10
11667.26244068301
 20
16654.60425036608
 42
0.00805
 10
11667.11056968312
 20
16654.60815636608
 42
0.00131
 10
11666.55152168304
 20
16654.60815636608
 42
-0.001311
 10
11665.99290968301
 20
16654.60815636608
 10
11665.71336768304
 20
16654.60815636608
 10
11665.43382668307
 20
16654.60815636608
 10
11664.10649568306
 20
16654.60754536609
 10
11662.77916368305
 20
16654.60730136607
 10
11661.45183268304
 20
16654.60717936607
 10
11660.12450068308
 20
16654.60742336607
 10
11657.46983768306
 20
16654.60815636608
 10
11654.81517468304
 20
16654.60864436608
 10
11652.78913568296
 20
16654.60888836608
 10
11650.76313468306
 20
16654.60901036607
 10
11646.71123168302
 20
16654.60876636608
 10
11652.65942068297
 20
16654.60840036607
 10
11648.60765568305
 20
16654.60815636608
 10
11588.61351468308
 20
16654.60815636608
 10
11576.03862468297
 20
16654.60815636608
 10
11563.46410068298
 20
16654.60815636608
 10
11562.90501868304
 20
16654.60815636608
 10
11562.34593668305
 20
16654.60815636608
 10
11562.06663968308
 20
16654.60815636608
 10
11561.78734268305
 20
16654.60815636608
 10
11561.50780168308
 20
16654.60815636608
 10
11561.22827568305
 20
16654.60815636608
 42
-0.001312
 10
11560.66965168305
 20
16654.60815636608
 42
0.001311
 10
11560.110584683
 20
16654.60815636608
 42
0.008051
 10
11559.95872968305
 20
16654.60425036608
 42
0.014174
 10
11559.80687368299
 20
16654.59253136608
 42
0.050467
 10
11559.21263568305
 20
16654.47046036606
 42
0.088847
 10
11558.27415968307
 20
16653.98022636608
 42
0.088932
 10
11557.56468668305
 20
16653.19507036608
 42
0.075588
 10
11557.20628768309
 20
16652.36010936608
 42
0.025513
 10
11557.14525268301
 20
16652.06225736608
 42
0.014767
 10
11557.126209683
 20
16651.91137836608
 42
0.014516
 10
11557.11449168301
 20
16651.76001136608
 42
0.003216
 10
11557.110584683
 20
16651.60815636608
 42
0.004915
 10
11557.08847468304
 20
16646.79077336608
 42
-0.000323
 10
11557.11034068301
 20
16641.97241436608
 42
-0.000532
 10
11557.110584683
 20
16632.33374236607
 10
11557.10956268308
 20
16631.12915236607
 10
11557.10899768296
 20
16629.92444036608
 10
11557.10881468297
 20
16628.71972836608
 10
11557.10893668314
 20
16627.51513836608
 10
11557.10925768285
 20
16626.31054836607
 10
11557.10969968313
 20
16625.10583636608
 10
11557.110584683
 20
16622.69653536607
 10
11557.110859683
 20
16621.49170136608
 10
11557.11099668305
 20
16620.28698936608
 10
11557.11095068305
 20
16617.87768736607
 10
11557.11072268312
 20
16615.46838536606
 10
11557.110584683
 20
16613.05883936608
 10
11557.110584683
 20
16608.24048036607
 10
11557.110584683
 20
16603.42163236607
 10
11557.11079868306
 20
16596.19372736608
 10
11557.110767683
 20
16588.96582236607
 10
11557.110584683
 20
16574.51001136608
 10
11557.10994368307
 20
16548.60986536608
 10
11557.10945568308
 20
16522.70984036607
 10
11557.10893668314
 20
16470.90966936608
 10
11557.10887568307
 20
16419.10937636607
 10
11557.10911968308
 20
16367.30908436607
 10
11557.11003568301
 20
16263.70849836608
 10
11557.11043268301
 20
16211.90832736607
 10
11557.110584683
 20
16160.10815636608
 10
11557.11052368306
 20
16090.10815636608
  0
LWPOLYLINE
  5
6C
330
2
100
AcDbEntity
  8
0
 62
     0
100
AcDbPolyline
 90
      158
 70
     0
 43
0.0
 10
11648.60765568305
 20
16723.10815636608
 10
11676.78520668285
 20
16723.10815636608
 10
11714.96312368304
 20
16723.10815636608
 10
11716.69847568309
 20
16723.10815636608
 10
11718.43382668301
 20
16723.10815636608
 10
11719.30150268301
 20
16723.10815636608
 10
11720.16917868306
 20
16723.10815636608
 10
11721.03685468306
 20
16723.10840036607
 10
11721.47064668317
 20
16723.10840036607
 10
11721.90453068299
 20
16723.10815636608
 10
11722.77220568304
 20
16723.10791236607
 10
11723.20599768315
 20
16723.10791236607
 10
11723.63957868305
 20
16723.10815636608
 42
-0.000422
 10
11725.37522068304
 20
16723.10815636608
 42
0.00211
 10
11727.110584683
 20
16723.10815636608
 42
-0.000959
 10
11727.17334668307
 20
16723.10949936608
 42
0.008957
 10
11727.23607368306
 20
16723.11206236607
 42
0.015676
 10
11727.361073683
 20
16723.12426936609
 42
0.047618
 10
11727.72874968305
 20
16723.20630036608
 42
0.09433
 10
11728.38548868305
 20
16723.56714036608
 42
0.094309
 10
11728.86302668314
 20
16724.14477736607
 42
0.07907
 10
11729.07493768305
 20
16724.73364436609
 42
0.015666
 10
11729.09495968306
 20
16724.85766736608
 42
0.017612
 10
11729.10667768305
 20
16724.98266736608
 42
0.009743
 10
11729.11058368305
 20
16725.10815636608
 42
0.002494
 10
11729.11058568301
 20
16726.28442536608
 42
-0.000623
 10
11729.110584683
 20
16727.46118336607
 10
11729.110790683
 20
16727.75525136607
 10
11729.110767683
 20
16728.04931836608
 10
11729.110584683
 20
16728.63745336608
 10
11729.110584683
 20
16729.22583236608
 10
11729.110584683
 20
16729.81421036608
 10
11729.11114768304
 20
16732.75537336607
 10
11729.11156668309
 20
16735.69653536607
 10
11729.11202668304
 20
16741.57885936608
 10
11729.11208668315
 20
16747.46118336607
 10
11729.11186668304
 20
16753.34350736608
 10
11729.11106568305
 20
16765.10815636608
 10
11729.11072468296
 20
16770.99048036606
 10
11729.110584683
 20
16776.87280436607
 10
11729.110584683
 20
16778.04956236608
 10
11729.110584683
 20
16779.22583236607
 10
11729.110584683
 20
16779.81396636607
 10
11729.110584683
 20
16780.40258936608
 10
11729.110584683
 20
16780.99072436608
 10
11729.110584683
 20
16781.57885936608
 10
11729.110767683
 20
16782.16699436608
 10
11729.110790683
 20
16782.46106136607
 10
11729.110584683
 20
16782.75512836608
 42
-0.000622
 10
11729.11058568301
 20
16783.93188636608
 42
0.002491
 10
11729.110584683
 20
16785.10815636608
 42
0.009747
 10
11729.10667568304
 20
16785.23364436608
 42
0.017613
 10
11729.09495968306
 20
16785.35864436608
 42
0.045691
 10
11729.01294668308
 20
16785.72632036608
 42
0.094041
 10
11728.65158968301
 20
16786.38305836607
 42
0.094303
 10
11728.07396368308
 20
16786.86059736608
 42
0.079123
 10
11727.48558368299
 20
16787.07251136608
 42
0.013322
 10
11727.361073683
 20
16787.09253136608
 42
0.017614
 10
11727.23607268305
 20
16787.10425036608
 42
0.008958
 10
11727.17334668307
 20
16787.10681336608
 42
-0.000959
 10
11727.11057968307
 20
16787.10815636608
 42
0.00211
 10
11725.37544668307
 20
16787.10815636608
 42
-0.000422
 10
11723.63988168315
 20
16787.10815636608
 10
11723.20599768315
 20
16787.10840036608
 10
11722.77220568304
 20
16787.10840036608
 10
11721.90453068299
 20
16787.10815636608
 10
11721.47064668317
 20
16787.10791236607
 10
11721.03685468306
 20
16787.10791236607
 10
11720.16917868306
 20
16787.10815636608
 10
11717.56615168314
 20
16787.10840036608
 10
11714.96312368304
 20
16787.10827836608
 10
11709.75706968315
 20
16787.10766736608
 10
11700.86343268297
 20
16787.10669136608
 10
11691.96976168301
 20
16787.10644736607
 10
11683.07606968305
 20
16787.10644736607
 10
11674.18236268304
 20
16787.10681336608
 10
11656.39496268301
 20
16787.10766736608
 10
11647.50128668301
 20
16787.10803436608
 10
11648.60765568305
 20
16787.10815636608
 10
11588.61351468308
 20
16787.10815636608
 10
11550.43596368305
 20
16787.10815636608
 10
11512.25804568307
 20
16787.10815636608
 10
11510.52269468309
 20
16787.10815636608
 10
11508.78734268305
 20
16787.10815636608
 10
11507.91966668305
 20
16787.10815636608
 10
11507.05199168301
 20
16787.10815636608
 10
11506.18431568307
 20
16787.10791236607
 10
11505.75052368308
 20
16787.10791236607
 10
11505.31663968308
 20
16787.10815636608
 10
11504.44896368296
 20
16787.10840036608
 10
11504.01517168297
 20
16787.10840036608
 10
11503.58150168297
 20
16787.10815636608
 42
-0.000422
 10
11501.84593668299
 20
16787.10815636608
 42
0.00211
 10
11500.110584683
 20
16787.10815636608
 42
0.009746
 10
11499.98509668301
 20
16787.10425036608
 42
0.017616
 10
11499.86009668307
 20
16787.09253136608
 42
0.046321
 10
11499.49242068302
 20
16787.01001136609
 42
0.094792
 10
11498.83618568313
 20
16786.64917136607
 42
0.094521
 10
11498.35814368304
 20
16786.07153536607
 42
0.079035
 10
11498.14622968305
 20
16785.48266736608
 42
0.016484
 10
11498.126209683
 20
16785.35864436608
 42
0.01172
 10
11498.11449168301
 20
16785.23364436608
 42
0.009728
 10
11498.11058468306
 20
16785.10815636608
 42
0.002491
 10
11498.11058468306
 20
16783.93200836608
 42
-0.000622
 10
11498.11058468306
 20
16782.75512836608
 10
11498.11037168307
 20
16782.46106136607
 10
11498.11040168306
 20
16782.16699436608
 10
11498.11058468306
 20
16781.57885936608
 10
11498.11058468306
 20
16780.99048036607
 10
11498.11058468306
 20
16780.40210136608
 10
11498.11003568301
 20
16777.46093936608
 10
11498.10960868296
 20
16774.51977736607
 10
11498.10915068308
 20
16768.63745336608
 10
11498.10908968297
 20
16762.75512836608
 10
11498.10930368308
 20
16756.87280436608
 10
11498.11009668301
 20
16745.10815636608
 10
11498.11043268307
 20
16739.22583236607
 10
11498.11058468306
 20
16733.34350736607
 10
11498.11058468306
 20
16732.16699436608
 10
11498.11058468306
 20
16730.99048036607
 10
11498.11058468306
 20
16730.40234536607
 10
11498.11058468306
 20
16729.81421036608
 10
11498.11058468306
 20
16729.22583236608
 10
11498.11058468306
 20
16728.63745336608
 10
11498.11040168306
 20
16728.04931836608
 10
11498.11037168307
 20
16727.75525136607
 10
11498.11058468306
 20
16727.46130536608
 42
-0.000623
 10
11498.11058468306
 20
16726.28491436608
 42
0.00249
 10
11498.11058468306
 20
16725.10815636608
 42
-0.000493
 10
11498.11198868304
 20
16725.04541236607
 42
0.009241
 10
11498.11449168301
 20
16724.98266736608
 42
0.01172
 10
11498.126209683
 20
16724.85766736608
 42
0.045733
 10
11498.20822568306
 20
16724.48999236608
 42
0.094053
 10
11498.56958468298
 20
16723.83325336608
 42
0.094284
 10
11499.14720568298
 20
16723.35571436608
 42
0.079117
 10
11499.73558468306
 20
16723.14380036608
 42
0.015241
 10
11499.86009668307
 20
16723.12426936609
 42
0.015665
 10
11499.98509668301
 20
16723.11206236607
 42
0.008968
 10
11500.04782568301
 20
16723.10949936608
 42
-0.001035
 10
11500.11056968306
 20
16723.10815636608
 42
0.00211
 10
11501.84563168305
 20
16723.10815636608
 42
-0.000422
 10
11503.58128768297
 20
16723.10815636608
 10
11504.01517168297
 20
16723.10791236607
 10
11504.44896368296
 20
16723.10791236607
 10
11505.31663968308
 20
16723.10815636608
 10
11506.18431568307
 20
16723.10815636608
 10
11507.05199168301
 20
16723.10815636608
 10
11509.65501868304
 20
16723.10791236607
 10
11512.25804568307
 20
16723.10803436608
 10
11517.46410068315
 20
16723.10864436608
 10
11526.35773168305
 20
16723.10962136607
 10
11535.251408683
 20
16723.10986536608
 10
11544.14510068307
 20
16723.10986536608
 10
11553.03880768297
 20
16723.10949936608
 10
11570.82620668305
 20
16723.10864436608
 10
11579.71988368306
 20
16723.10827836606
 10
11588.61351468308
 20
16723.10815636608
 10
11648.60765568305
 20
16723.10815636608
  0
LWPOLYLINE
  5
6D
330
2
100
AcDbEntity
  8
0
 62
     0
100
AcDbPolyline
 90
      134
 70
     0
 43
0.0
 10
11557.110584683
 20
16906.10815636608
 10
11557.110584683
 20
16866.10815636608
 10
11557.110584683
 20
16862.73315636608
 10
11557.110584683
 20
16859.35815636608
 10
11557.110584683
 20
16859.20825336608
 10
11557.110584683
 20
16859.05835136608
 10
11557.110584683
 20
16858.98315636608
 10
11557.110584683
 20
16858.90844936607
 10
11557.110584683
 20
16858.83300936607
 10
11557.110584683
 20
16858.75805836607
 42
0.000405
 10
11557.11070668312
 20
16858.60717936607
 42
0.011731
 10
11557.11449168301
 20
16858.45630036608
 42
0.014516
 10
11557.126209683
 20
16858.30493336607
 42
0.062707
 10
11557.29710868296
 20
16857.56665236607
 42
0.088583
 10
11557.83421768305
 20
16856.65405436608
 42
0.088357
 10
11558.65453068305
 20
16855.98510936608
 42
0.088724
 10
11559.65648368296
 20
16855.64282436607
 42
0.014584
 10
11559.80687368299
 20
16855.62378136608
 42
0.014174
 10
11559.95872968305
 20
16855.61206236608
 42
0.008051
 10
11560.110584683
 20
16855.60815636608
 42
0.001311
 10
11560.66966668305
 20
16855.60815636608
 42
-0.001311
 10
11561.22826068305
 20
16855.60815636608
 10
11561.50780168308
 20
16855.60815636608
 10
11561.78734268305
 20
16855.60815636608
 10
11563.11467468306
 20
16855.60876636608
 10
11564.44200568301
 20
16855.60901036608
 10
11565.76933768314
 20
16855.60913236607
 10
11567.09666868298
 20
16855.60888836608
 10
11569.751331683
 20
16855.60815636608
 10
11572.40599468296
 20
16855.60766736608
 10
11574.43204168304
 20
16855.60742336607
 10
11576.45802768301
 20
16855.60730136607
 10
11580.50993768305
 20
16855.60754536608
 10
11584.56175668297
 20
16855.60791236607
 10
11588.61351468308
 20
16855.60815636608
 10
11648.60765568305
 20
16855.60815636608
 10
11651.18254568304
 20
16855.60815636608
 10
11663.75706968315
 20
16855.60815636608
 10
11664.31615168297
 20
16855.60815636608
 10
11664.87523368284
 20
16855.60815636608
 10
11665.15453068299
 20
16855.60815636608
 10
11665.43382668307
 20
16855.60815636608
 10
11665.71336768304
 20
16855.60815636608
 10
11665.99290968301
 20
16855.60815636608
 10
11666.27217968313
 20
16855.60840036608
 42
-0.000438
 10
11666.55150668304
 20
16855.60815636608
 42
0.00131
 10
11667.11058468306
 20
16855.60815636608
 42
0.00805
 10
11667.26244068301
 20
16855.61206236608
 42
0.014179
 10
11667.41429568307
 20
16855.62378136608
 42
0.050468
 10
11668.00853468301
 20
16855.74585136608
 42
0.08885
 10
11668.94701868306
 20
16856.23608536608
 42
0.088926
 10
11669.65648368296
 20
16857.02124236608
 42
0.07561
 10
11670.01488968309
 20
16857.85620336607
 42
0.038476
 10
11670.094959683
 20
16858.30493336607
 42
0.014566
 10
11670.10668268315
 20
16858.45630036608
 42
0.011731
 10
11670.110462683
 20
16858.60717936607
 42
0.00043
 10
11670.110584683
 20
16858.75805836607
 10
11670.110584683
 20
16858.83325336608
 10
11670.110584683
 20
16858.90796036607
 10
11670.11114968306
 20
16859.35803436608
 10
11670.11156568308
 20
16859.80810736608
 10
11670.11202668304
 20
16860.70825336608
 10
11670.11208768304
 20
16861.60815636608
 10
11670.11186668304
 20
16862.50830236608
 10
11670.11106568305
 20
16864.30822936608
 10
11670.11072568308
 20
16865.20825336608
 10
11670.110584683
 20
16866.10815636608
 10
11670.110584683
 20
16906.10815636608
 10
11670.110584683
 20
16909.48315636608
 10
11670.110584683
 20
16912.85815636608
 10
11670.110584683
 20
16913.00805836607
 10
11670.110584683
 20
16913.15796036607
 10
11670.110584683
 20
16913.23315636608
 10
11670.110584683
 20
16913.30835136608
 10
11670.110584683
 20
16913.38305836607
 10
11670.110584683
 20
16913.45825336608
 42
0.000442
 10
11670.110462683
 20
16913.60913236608
 42
0.011732
 10
11670.10667868312
 20
16913.76001136608
 42
0.014168
 10
11670.094959683
 20
16913.91186736608
 42
0.062637
 10
11669.92406168305
 20
16914.65014836608
 42
0.088474
 10
11669.38695168301
 20
16915.56225736607
 42
0.088358
 10
11668.56663968296
 20
16916.23120336609
 42
0.088819
 10
11667.56468668305
 20
16916.57348836607
 42
0.011378
 10
11667.41429568307
 20
16916.59301936608
 42
0.011017
 10
11667.26244068301
 20
16916.60425036608
 42
0.00805
 10
11667.11056968312
 20
16916.60815636608
 42
0.00131
 10
11666.55152968304
 20
16916.60815636608
 42
-0.000438
 10
11666.27220568304
 20
16916.60791236607
 10
11665.99290968301
 20
16916.60815636608
 10
11665.71336768304
 20
16916.60815636608
 10
11665.43382668307
 20
16916.60815636608
 10
11664.10649568306
 20
16916.60754536608
 10
11662.77916368305
 20
16916.60730136607
 10
11661.45183268304
 20
16916.60717936608
 10
11660.12450068308
 20
16916.60742336607
 10
11657.46983768306
 20
16916.60815636608
 10
11654.81517468304
 20
16916.60864436608
 10
11652.78913568296
 20
16916.60888836608
 10
11650.76313468306
 20
16916.60901036608
 10
11646.71123168302
 20
16916.60876636608
 10
11652.65942068297
 20
16916.60840036608
 10
11648.60765568305
 20
16916.60815636608
 10
11588.61351468308
 20
16916.60815636608
 10
11576.03862468297
 20
16916.60815636608
 10
11563.46410068298
 20
16916.60815636608
 10
11562.90501868304
 20
16916.60815636608
 10
11562.34593668305
 20
16916.60815636608
 10
11562.06663968308
 20
16916.60815636608
 10
11561.78734268305
 20
16916.60815636608
 10
11561.50780168308
 20
16916.60840036608
 42
0.000437
 10
11561.22826068305
 20
16916.60815636608
 10
11560.94897868308
 20
16916.60791236607
 42
-0.000451
 10
11560.66965168305
 20
16916.60815636608
 42
0.001311
 10
11560.110584683
 20
16916.60815636608
 42
0.008051
 10
11559.95872968305
 20
16916.60425036608
 42
0.011017
 10
11559.80687368299
 20
16916.59301936608
 42
0.049863
 10
11559.21263568305
 20
16916.47046036608
 42
0.088523
 10
11558.27415968307
 20
16915.98071436608
 42
0.08864
 10
11557.56468668305
 20
16915.19507036608
 42
0.076058
 10
11557.20628768309
 20
16914.36010936608
 42
0.038399
 10
11557.126209683
 20
16913.91186736608
 42
0.01447
 10
11557.11449168301
 20
16913.76001136608
 42
0.011731
 10
11557.11070668312
 20
16913.60913236608
 42
0.000406
 10
11557.110584683
 20
16913.45825336608
 10
11557.110584683
 20
16913.38330236608
 10
11557.110584683
 20
16913.30835136608
 10
11557.11003568301
 20
16912.85840036608
 10
11557.10960868314
 20
16912.40844936607
 10
11557.10915068297
 20
16911.50830236608
 10
11557.10908968285
 20
16910.60840036608
 10
11557.10930368308
 20
16909.70825336608
 10
11557.11009668301
 20
16907.90820536608
 10
11557.11043268301
 20
16907.00805836607
 10
11557.110584683
 20
16906.10815636608
  0
LWPOLYLINE
  5
6E
330
2
100
AcDbEntity
  8
0
 62
     0
100
AcDbPolyline
 90
      148
 70
     0
 43
0.0
 10
11692.110584683
 20
16866.10815636608
 10
11692.110584683
 20
16853.09350736607
 10
11692.110584683
 20
16840.07885936608
 10
11692.110584683
 20
16839.50024636608
 10
11692.110584683
 20
16838.92212136607
 10
11692.110584683
 20
16838.63281436608
 10
11692.110584683
 20
16838.34350736607
 10
11692.110584683
 20
16838.05420136608
 10
11692.110584683
 20
16837.76489436609
 10
11692.110401683
 20
16837.47607636608
 42
0.000633
 10
11692.110584683
 20
16837.18676936607
 42
-0.00127
 10
11692.110584683
 20
16836.60815636608
 42
-0.008038
 10
11692.10667468297
 20
16836.45630036608
 42
-0.014566
 10
11692.09496368297
 20
16836.30493336607
 42
-0.050557
 10
11691.97290868305
 20
16835.71020736606
 42
-0.089173
 10
11691.48264368302
 20
16834.77221836608
 42
-0.088504
 10
11690.69749868304
 20
16834.06225736607
 42
-0.076041
 10
11689.86253768309
 20
16833.70385936608
 42
-0.025522
 10
11689.56468668299
 20
16833.64282436607
 42
-0.014581
 10
11689.41429568307
 20
16833.62378136608
 42
-0.014179
 10
11689.26244068307
 20
16833.61206236608
 42
-0.00805
 10
11689.11063468309
 20
16833.60815636608
 42
-0.001479
 10
11688.12024368315
 20
16833.60815636608
 42
0.00074
 10
11687.13011668301
 20
16833.60815636608
 10
11686.88255768308
 20
16833.60791236607
 10
11686.63499868304
 20
16833.60791236607
 10
11686.13988168309
 20
16833.60815636608
 10
11685.64476468313
 20
16833.60815636608
 10
11685.14964768301
 20
16833.60815636608
 10
11679.33183768314
 20
16833.60742336607
 10
11673.51403468304
 20
16833.60705736608
 10
11667.69624068301
 20
16833.60693536609
 10
11661.87846868309
 20
16833.60717936607
 10
11650.24299268301
 20
16833.60791236607
 10
11648.60765568305
 20
16833.60815636608
 10
11588.610584683
 20
16833.60815636608
 10
11566.82616068305
 20
16833.60815636608
 10
11545.04173768304
 20
16833.60815636608
 10
11543.55681268305
 20
16833.60815636608
 10
11542.07152268301
 20
16833.60815636608
 10
11541.57640568305
 20
16833.60815636608
 10
11541.08128768309
 20
16833.60815636608
 10
11540.58617068302
 20
16833.60791236607
 10
11540.33861268298
 20
16833.60791236607
 10
11540.09094668306
 20
16833.60815636608
 42
0.00074
 10
11539.10086468309
 20
16833.60815636608
 42
-0.001479
 10
11538.110584683
 20
16833.60815636608
 42
-0.008051
 10
11537.95872968305
 20
16833.61206236608
 42
-0.014174
 10
11537.80687368304
 20
16833.62378136608
 42
-0.049342
 10
11537.21263568305
 20
16833.74585136608
 42
-0.088847
 10
11536.27414368301
 20
16834.23608536607
 42
-0.088932
 10
11535.56468668305
 20
16835.02124236608
 42
-0.075587
 10
11535.20628768309
 20
16835.85620336608
 42
-0.025512
 10
11535.14525268301
 20
16836.15405436607
 42
-0.014767
 10
11535.12620968306
 20
16836.30493336607
 42
-0.014516
 10
11535.11449168301
 20
16836.45630036608
 42
-0.003216
 10
11535.11058468306
 20
16836.60815636608
 42
-0.001899
 10
11535.11003568301
 20
16836.89746236608
 10
11535.11037168301
 20
16837.04211636608
 10
11535.11058468306
 20
16837.18676936607
 42
0.001271
 10
11535.11058468306
 20
16837.76489436609
 42
-0.000425
 10
11535.111073683
 20
16838.34350736607
 10
11535.11179068299
 20
16840.07885936608
 10
11535.11230968304
 20
16841.81408836607
 10
11535.11265968314
 20
16843.54931836608
 10
11535.11284368315
 20
16845.28466936608
 10
11535.11284368315
 20
16848.75525136607
 10
11535.11247668315
 20
16852.22583236608
 10
11535.11128668305
 20
16859.16699436607
 10
11535.110798683
 20
16862.63757536608
 10
11535.11058468306
 20
16866.10815636608
 10
11535.11058468306
 20
16906.10815636608
 10
11535.11058468306
 20
16919.12280436608
 10
11535.11058468306
 20
16932.13745336609
 10
11535.11058468306
 20
16932.71606636609
 10
11535.11058468306
 20
16933.29467936608
 10
11535.11058468306
 20
16933.58374236608
 10
11535.11058468306
 20
16933.87280436608
 10
11535.11058468306
 20
16934.16211136607
 10
11535.11058468306
 20
16934.45141736608
 10
11535.110767683
 20
16934.74072436608
 42
0.000636
 10
11535.11058468306
 20
16935.02954236608
 42
-0.001266
 10
11535.11058468306
 20
16935.60815636608
 42
-0.008039
 10
11535.11449168301
 20
16935.76001136609
 42
-0.01447
 10
11535.12620968306
 20
16935.91186736608
 42
-0.050483
 10
11535.24828068305
 20
16936.50610536607
 42
-0.088843
 10
11535.73851468296
 20
16937.44458236607
 42
-0.088919
 10
11536.52367068302
 20
16938.15405436608
 42
-0.076041
 10
11537.35863168309
 20
16938.51245336607
 42
-0.025522
 10
11537.65648368308
 20
16938.57348836608
 42
-0.011369
 10
11537.80687368304
 20
16938.59301936607
 42
-0.011017
 10
11537.95872968305
 20
16938.60425036608
 42
-0.008051
 10
11538.11052368306
 20
16938.60815636608
 42
-0.001479
 10
11539.10081968309
 20
16938.60815636608
 42
0.00074
 10
11540.09105368312
 20
16938.60815636608
 10
11540.33861268298
 20
16938.60840036607
 10
11540.58617068302
 20
16938.60840036607
 10
11541.08128768309
 20
16938.60815636608
 10
11541.57640568305
 20
16938.60815636608
 10
11542.07152268301
 20
16938.60864436608
 10
11547.88933268304
 20
16938.60937636607
 10
11553.70714268296
 20
16938.60962136606
 10
11559.52492168317
 20
16938.60962136606
 10
11565.34270168304
 20
16938.60937636607
 10
11576.97816968306
 20
16938.60864436608
 10
11582.7958726828
 20
16938.60827836608
 10
11588.61351468308
 20
16938.60815636608
 10
11648.60765568305
 20
16938.60815636608
 10
11660.39311668304
 20
16938.60815636608
 10
11682.17894468315
 20
16938.60815636608
 10
11683.66429568307
 20
16938.60840036607
 10
11684.40697168307
 20
16938.60840036607
 10
11685.14964768301
 20
16938.60815636608
 10
11685.64476468313
 20
16938.60815636608
 10
11686.13988168309
 20
16938.60815636608
 10
11686.63499868304
 20
16938.60840036607
 10
11686.88255768308
 20
16938.60840036607
 10
11687.13011268298
 20
16938.60815636608
 42
0.00074
 10
11688.12028568312
 20
16938.60815636608
 42
-0.001479
 10
11689.110584683
 20
16938.60815636608
 42
-0.00805
 10
11689.26244068307
 20
16938.60425036608
 42
-0.011017
 10
11689.41429568307
 20
16938.59301936607
 42
-0.049864
 10
11690.00853468313
 20
16938.47046036607
 42
-0.088517
 10
11690.94701068305
 20
16937.98071436608
 42
-0.088646
 10
11691.65648368308
 20
16937.19507036608
 42
-0.076035
 10
11692.01488168315
 20
16936.36010936608
 42
-0.025513
 10
11692.07592068314
 20
16936.06225736608
 42
-0.014867
 10
11692.094959683
 20
16935.91137836608
 42
-0.014567
 10
11692.10667468297
 20
16935.76001136609
 42
-0.008039
 10
11692.110584683
 20
16935.60815636608
 42
-0.00127
 10
11692.110584683
 20
16935.02954236608
 42
0.000634
 10
11692.110401683
 20
16934.74048036607
 10
11692.110584683
 20
16934.45141736608
 10
11692.110584683
 20
16934.16211136607
 10
11692.110584683
 20
16933.87280436608
 10
11692.11016568313
 20
16932.86059736608
 10
11692.10997468301
 20
16931.84839036608
 10
11692.10996668301
 20
16930.83618336607
 10
11692.11009668307
 20
16929.82397636608
 10
11692.111073683
 20
16925.77466036607
 10
11692.11161468304
 20
16923.31640836608
 10
11692.11182068297
 20
16920.85815636608
 10
11692.11177468304
 20
16918.39990436608
 10
11692.11156168305
 20
16915.94165236607
 10
11692.11093568305
 20
16911.02490436608
 10
11692.11068368306
 20
16908.56653036607
 10
11692.110584683
 20
16906.10815636608
 10
11692.110584683
 20
16866.10815636608
  0
LWPOLYLINE
  5
6F
330
2
100
AcDbEntity
  8
0
 62
     0
100
AcDbPolyline
 90
       13
 70
     0
 43
0.0
 10
11704.11058468306
 20
16866.10815636608
 10
11704.11058468306
 20
16906.10815636608
 10
11704.11058468306
 20
16950.60815636608
 10
11648.60765568305
 20
16950.60815636608
 10
11588.61351468308
 20
16950.60815636608
 10
11523.110584683
 20
16950.60815636608
 10
11523.110584683
 20
16906.10815636608
 10
11523.110584683
 20
16866.10815636608
 10
11523.110584683
 20
16821.60815636608
 10
11588.610584683
 20
16821.60815636608
 10
11648.60765568305
 20
16821.60815636608
 10
11704.11058468306
 20
16821.60815636608
 10
11704.11058468306
 20
16866.10815636608
  0
LWPOLYLINE
  5
70
330
2
100
AcDbEntity
  8
0
 62
     0
100
AcDbPolyline
 90
      230
 70
     0
 43
0.0
 10
11648.61058468306
 20
16676.60815636608
 10
11660.39500868307
 20
16676.60815636608
 10
11682.17943268297
 20
16676.60815636608
 10
11683.66435668313
 20
16676.60815636608
 10
11685.14964768301
 20
16676.60815636608
 10
11685.64476468313
 20
16676.60815636608
 10
11686.13988168309
 20
16676.60815636608
 10
11686.63499868304
 20
16676.60840036608
 10
11686.88255768308
 20
16676.60840036608
 10
11687.13011268298
 20
16676.60815636608
 42
0.00074
 10
11688.12028568312
 20
16676.60815636608
 42
-0.001479
 10
11689.110584683
 20
16676.60815636608
 42
-0.00805
 10
11689.26244068307
 20
16676.60425036608
 42
-0.014179
 10
11689.41429568307
 20
16676.59253136608
 42
-0.049471
 10
11690.00853468313
 20
16676.47046036608
 42
-0.088851
 10
11690.94701868306
 20
16675.98022636608
 42
-0.088927
 10
11691.65648368308
 20
16675.19507036608
 42
-0.075612
 10
11692.01488168315
 20
16674.36010936608
 42
-0.025513
 10
11692.07592068314
 20
16674.06225736607
 42
-0.014867
 10
11692.094959683
 20
16673.91137836608
 42
-0.014567
 10
11692.10667468297
 20
16673.76001136608
 42
-0.008039
 10
11692.11057768301
 20
16673.60815636608
 42
-0.00493
 10
11692.13356068298
 20
16668.57373236608
 42
0.00038
 10
11692.110584683
 20
16663.53930836607
 42
0.000509
 10
11692.110584683
 20
16653.47094936607
 10
11692.11160768305
 20
16652.21228236609
 10
11692.11216468304
 20
16650.95361536608
 10
11692.11234768304
 20
16649.69507036608
 10
11692.11223268309
 20
16648.43652536607
 10
11692.11147768305
 20
16645.91943536608
 10
11692.110584683
 20
16643.40210136608
 10
11692.11030268301
 20
16642.14355636607
 10
11692.11017268312
 20
16640.88501136608
 10
11692.11021868301
 20
16638.36792136607
 10
11692.11044768306
 20
16635.85083236608
 10
11692.110584683
 20
16633.33374236608
 10
11692.110584683
 20
16628.29931836608
 10
11692.110584683
 20
16623.26489436608
 10
11692.11037868306
 20
16615.71362536608
 10
11692.110401683
 20
16608.16211136607
 10
11692.110584683
 20
16593.05883936608
 10
11692.11121868306
 20
16565.99951336608
 10
11692.11168368305
 20
16538.93994336608
 10
11692.11219468304
 20
16484.82116836607
 10
11692.11225568309
 20
16430.70239436609
 10
11692.11199668281
 20
16376.58349836608
 10
11692.111073683
 20
16268.34582736608
 10
11692.11068368306
 20
16214.22705236608
 10
11692.11052368306
 20
16160.10815636608
 10
11692.11052368306
 20
16090.10815636608
 10
11692.11052368306
 20
15873.63281436607
 10
11692.11052368306
 20
15657.15698436608
 10
11692.11052368306
 20
15647.08838036608
 10
11692.11052368306
 20
15637.01977736607
 10
11692.11052368306
 20
15631.98559736608
 10
11692.11052368306
 20
15626.95141736608
 10
11692.11052368306
 20
15621.91699436608
 10
11692.11052368306
 20
15616.88257036608
 10
11692.11018068313
 20
15614.36548036607
 10
11692.10997468301
 20
15611.84839036608
 10
11692.11004368307
 20
15609.33130036608
 10
11692.11052368306
 20
15606.81421036608
 10
11692.11141668305
 20
15604.29687636607
 10
11692.1121716831
 20
15601.77978736607
 10
11692.11228668304
 20
15600.52124236608
 10
11692.11210368299
 20
15599.26269736608
 10
11692.11154668305
 20
15598.00415236607
 10
11692.110584683
 20
15596.74560736608
 42
0.000509
 10
11692.11045868297
 20
15586.67627136608
 42
0.00038
 10
11692.13339268298
 20
15581.64233536607
 42
-0.004928
 10
11692.11052368306
 20
15576.60815636607
 42
-0.003265
 10
11692.10661768306
 20
15576.45630036608
 42
-0.014167
 10
11692.094898683
 20
15576.30444536608
 42
-0.036817
 10
11692.01482068309
 20
15575.85620336607
 42
-0.088872
 10
11691.57293768301
 20
15574.89428936607
 42
-0.075471
 10
11690.94695368297
 20
15574.23559736608
 42
-0.075607
 10
11690.15251568307
 20
15573.79467936608
 42
-0.050928
 10
11689.56462568299
 20
15573.64282436607
 42
-0.011371
 10
11689.41423468296
 20
15573.62329236608
 42
-0.011021
 10
11689.26237968301
 20
15573.61206236608
 42
-0.00805
 10
11689.11054268309
 20
15573.60815636608
 42
-0.002219
 10
11688.12019768315
 20
15573.60815636608
 42
0.000493
 10
11687.62517268308
 20
15573.60864436609
 10
11687.50139668297
 20
15573.60864436609
 42
-0.000986
 10
11687.37761368304
 20
15573.60815636608
 10
11687.13008568306
 20
15573.60815636608
 42
-0.00074
 10
11686.63493768305
 20
15573.60815636608
 10
11686.13982068309
 20
15573.60815636608
 10
11685.64470368308
 20
15573.60815636608
 10
11685.14958668301
 20
15573.60815636608
 10
11684.42242868301
 20
15573.60815636608
 10
11684.24064668307
 20
15573.60815636608
 42
-0.001343
 10
11684.05884968301
 20
15573.60766736608
 10
11683.69527168308
 20
15573.60766736608
 10
11682.24095268301
 20
15573.60766736608
 10
11681.51379068299
 20
15573.60766736608
 10
11681.33200868305
 20
15573.60766736608
 42
-0.001343
 10
11681.15021168305
 20
15573.60717936607
 10
11680.78662968315
 20
15573.60717936607
 10
11679.33230268302
 20
15573.60717936607
 10
11676.42364968305
 20
15573.60717936607
 10
11674.96925768313
 20
15573.60717936607
 42
0.001253
 10
11673.51499668315
 20
15573.60693536608
 42
-0.000671
 10
11673.33318768306
 20
15573.60669136608
 10
11673.15139468315
 20
15573.60669136608
 10
11672.78781168301
 20
15573.60669136608
 10
11672.06064268305
 20
15573.60669136608
 10
11670.60630468301
 20
15573.60669136608
 10
11667.69762068304
 20
15573.60669136608
 10
11666.24328268306
 20
15573.60669136608
 10
11665.87968868301
 20
15573.60669136608
 42
0.000672
 10
11665.51610968301
 20
15573.60717936607
 10
11664.78893768308
 20
15573.60717936607
 10
11661.88023868306
 20
15573.60717936607
 10
11656.06283268308
 20
15573.60717936607
 10
11654.60847968304
 20
15573.60717936607
 10
11654.24484668304
 20
15573.60717936607
 42
0.000336
 10
11654.06309968307
 20
15573.60742336607
 42
0.000677
 10
11653.88129868304
 20
15573.60766736608
 10
11653.15411868306
 20
15573.60766736608
 10
11650.24540368309
 20
15573.60766736608
 10
11647.33668968307
 20
15573.60766736608
 10
11646.60952468296
 20
15573.60766736608
 42
-0.000671
 10
11646.24591468314
 20
15573.60815636608
 10
11645.88232868309
 20
15573.60815636608
 10
11644.42796768305
 20
15573.60815636608
 10
11648.61052368306
 20
15573.60815636608
 10
11588.610523683
 20
15573.60815636608
 10
11566.82616068305
 20
15573.60815636608
 10
11545.04216468309
 20
15573.60815636608
 10
11544.67082668304
 20
15573.60815636608
 42
0.001315
 10
11544.48515768301
 20
15573.60766736608
 10
11544.29948868304
 20
15573.60766736608
 10
11543.55681268305
 20
15573.60766736608
 10
11542.814152683
 20
15573.60766736608
 42
-0.000657
 10
11542.442799683
 20
15573.60815636608
 10
11542.07146168306
 20
15573.60815636608
 10
11541.57634468299
 20
15573.60815636608
 10
11541.08122668309
 20
15573.60815636608
 10
11540.58614068314
 20
15573.60815636608
 42
-0.00074
 10
11540.09099268306
 20
15573.60815636608
 10
11539.84343368308
 20
15573.60815636608
 42
-0.000986
 10
11539.71965468306
 20
15573.60864436609
 10
11539.59587568305
 20
15573.60864436609
 42
0.000493
 10
11539.10080368309
 20
15573.60815636608
 42
-0.001479
 10
11538.11052368306
 20
15573.60815636608
 42
-0.008051
 10
11537.95866868306
 20
15573.61206236608
 42
-0.011019
 10
11537.80681268305
 20
15573.62329236608
 42
-0.049743
 10
11537.21257468306
 20
15573.74585136607
 42
-0.088523
 10
11536.27409768313
 20
15574.23559736608
 42
-0.08864
 10
11535.56462568305
 20
15575.02124236608
 42
-0.076058
 10
11535.20622668297
 20
15575.85620336607
 42
-0.02535
 10
11535.14519168301
 20
15576.15356636609
 42
-0.01416
 10
11535.126148683
 20
15576.30444536608
 42
-0.01447
 10
11535.11443068307
 20
15576.45630036608
 42
-0.003216
 10
11535.110523683
 20
15576.60815636607
 42
-0.004922
 10
11535.08758968305
 20
15581.64306836608
 42
0.000388
 10
11535.11034068306
 20
15586.67798036607
 42
0.000509
 10
11535.110523683
 20
15596.74536336607
 10
11535.10950168308
 20
15598.00415236607
 10
11535.10893668297
 20
15599.26269736608
 10
11535.10875368297
 20
15600.52124236608
 10
11535.10887568285
 20
15601.77978736607
 10
11535.10919668308
 20
15603.03833236607
 10
11535.10963868307
 20
15604.29663236607
 10
11535.110523683
 20
15606.81372236608
 10
11535.110798683
 20
15608.07251136608
 10
11535.110935683
 20
15609.33105636607
 10
11535.11088968317
 20
15611.84814636608
 10
11535.11066168301
 20
15614.36523636607
 10
11535.110523683
 20
15616.88257036608
 10
11535.110523683
 20
15621.91699436608
 10
11535.110523683
 20
15626.95141736608
 10
11535.110737683
 20
15634.50268736608
 10
11535.110706683
 20
15642.05420136608
 10
11535.110523683
 20
15657.15698436608
 10
11535.10988268301
 20
15684.21631036608
 10
11535.10939468314
 20
15711.27563636608
 10
11535.10887568285
 20
15765.39477736607
 10
11535.10881468309
 20
15819.51342936607
 10
11535.10905868307
 20
15873.63257036607
 10
11535.10997468301
 20
15981.87036336607
 10
11535.11037168301
 20
16035.98950336608
 10
11535.110523683
 20
16090.10815636608
 10
11535.11058468306
 20
16160.10815636608
 10
11535.11058468306
 20
16376.58349836608
 10
11535.11058468306
 20
16593.05932836608
 10
11535.11058468306
 20
16603.12793136608
 10
11535.11058468306
 20
16613.19653536607
 10
11535.11058468306
 20
16618.23071436608
 10
11535.11058468306
 20
16623.26489436608
 10
11535.11058468306
 20
16628.29931836608
 10
11535.11058468306
 20
16633.33374236608
 10
11535.110920683
 20
16635.85083236608
 10
11535.111134683
 20
16638.36792136607
 10
11535.111073683
 20
16640.88501136608
 10
11535.11058468306
 20
16643.40210136608
 10
11535.10997468301
 20
16645.91943536608
 10
11535.10930368314
 20
16648.43652536607
 10
11535.10916568308
 20
16649.69507036608
 10
11535.10927268308
 20
16650.95361536608
 10
11535.10973068296
 20
16652.21228236609
 10
11535.11034068306
 20
16653.47241436608
 42
0.000509
 10
11535.110615683
 20
16663.53967436608
 42
0.000346
 10
11535.09099268306
 20
16668.57373236608
 42
-0.004237
 10
11535.11058468306
 20
16673.60815636608
 42
-0.003216
 10
11535.11449168301
 20
16673.76001136608
 42
-0.014516
 10
11535.12620968306
 20
16673.91137836608
 42
-0.036928
 10
11535.20628768309
 20
16674.36010936608
 42
-0.088992
 10
11535.64867068302
 20
16675.32202336608
 42
-0.076126
 10
11536.27415968301
 20
16675.98022636608
 42
-0.075773
 10
11537.06859268305
 20
16676.42114436608
 42
-0.050762
 10
11537.65648368308
 20
16676.57348836607
 42
-0.014584
 10
11537.80687368304
 20
16676.59253136608
 42
-0.014174
 10
11537.95872968305
 20
16676.60425036608
 42
-0.008051
 10
11538.11052368306
 20
16676.60815636608
 42
-0.001479
 10
11539.10081968309
 20
16676.60815636608
 42
0.00074
 10
11540.09105368312
 20
16676.60815636608
 10
11540.33861268298
 20
16676.60840036608
 10
11540.58617068302
 20
16676.60840036608
 10
11541.08128768309
 20
16676.60815636608
 10
11541.57640568305
 20
16676.60815636608
 10
11542.07152268301
 20
16676.60815636608
 10
11547.88879868305
 20
16676.60888836608
 10
11553.70613568309
 20
16676.60925436607
 10
11559.52348768296
 20
16676.60937636607
 10
11565.34087068306
 20
16676.60913236607
 10
11576.97569768298
 20
16676.60840036608
 10
11588.610584683
 20
16676.60815636608
 10
11648.61058468306
 20
16676.60815636608
  0
LWPOLYLINE
  5
71
330
2
100
AcDbEntity
  8
0
 62
     0
100
AcDbPolyline
 90
       13
 70
     0
 43
0.0
 10
11648.61058468306
 20
16688.60815636608
 10
11588.610584683
 20
16688.60815636608
 10
11523.110584683
 20
16688.60815636608
 10
11523.110584683
 20
16160.10815636608
 10
11523.11052368306
 20
16090.10815636608
 10
11523.11052368306
 20
15561.60815636608
 10
11588.610523683
 20
15561.60815636608
 10
11648.61052368306
 20
15561.60815636608
 10
11704.110523683
 20
15561.60815636608
 10
11704.110523683
 20
16090.10815636608
 10
11704.110523683
 20
16160.10815636608
 10
11704.11058468306
 20
16688.60815636608
 10
11648.61058468306
 20
16688.60815636608
  0
LWPOLYLINE
  5
72
330
2
100
AcDbEntity
  8
0
 62
     0
100
AcDbPolyline
 90
      156
 70
     0
 43
0.0
 10
11648.61058468306
 20
16720.10815636608
 10
11588.610584683
 20
16720.10815636608
 10
11549.14012568309
 20
16720.10815636608
 10
11509.66966668305
 20
16720.10815636608
 10
11507.87547768302
 20
16720.10815636608
 10
11506.08128768309
 20
16720.10815636608
 10
11505.18449868307
 20
16720.10815636608
 10
11504.28734268305
 20
16720.10815636608
 10
11503.39018668308
 20
16720.10840036608
 10
11502.94173168296
 20
16720.10840036608
 10
11502.49339768306
 20
16720.10815636608
 10
11501.59618068304
 20
16720.10791236607
 10
11501.14757268304
 20
16720.10791236607
 10
11500.69879568314
 20
16720.10815636608
 42
0.000409
 10
11498.90506468304
 20
16720.10815636608
 42
-0.002041
 10
11497.110584683
 20
16720.10815636608
 42
-0.009676
 10
11496.98509668301
 20
16720.11206236608
 42
-0.019301
 10
11496.86009668301
 20
16720.12426936607
 42
-0.047521
 10
11496.49290968307
 20
16720.20630036608
 42
-0.094969
 10
11495.83618568301
 20
16720.56714036608
 42
-0.094521
 10
11495.35814368304
 20
16721.14477736607
 42
-0.079035
 10
11495.146229683
 20
16721.73364436609
 42
-0.016483
 10
11495.12620968306
 20
16721.85766736608
 42
-0.017578
 10
11495.11449168306
 20
16721.98266736608
 42
-0.009728
 10
11495.110584683
 20
16722.10815636608
 42
-0.002263
 10
11495.110584683
 20
16723.40271136608
 42
0.000569
 10
11495.110584683
 20
16724.69653536607
 10
11495.11037168307
 20
16725.02002136607
 10
11495.110401683
 20
16725.34350736607
 10
11495.110584683
 20
16725.99048036607
 10
11495.110584683
 20
16726.63769736607
 10
11495.110584683
 20
16727.28442536608
 10
11495.10994368301
 20
16730.35803436608
 10
11495.10945568296
 20
16733.43164236607
 10
11495.10893668297
 20
16739.57885936608
 10
11495.10887568297
 20
16745.72583236607
 10
11495.10911968308
 20
16751.87304836607
 10
11495.11003568301
 20
16764.16711636608
 10
11495.11043268307
 20
16770.31421036607
 10
11495.110584683
 20
16776.46118336607
 10
11495.110584683
 20
16779.04931836608
 10
11495.110584683
 20
16781.63745336608
 10
11495.110584683
 20
16782.28466936608
 10
11495.110584683
 20
16782.93188636608
 10
11495.110584683
 20
16783.57861536608
 10
11495.110584683
 20
16784.22583236607
 10
11495.110401683
 20
16784.87280436607
 10
11495.11037168307
 20
16785.19629136608
 10
11495.110584683
 20
16785.51989936607
 42
0.000569
 10
11495.110584683
 20
16786.81372236608
 42
-0.002263
 10
11495.110584683
 20
16788.10815636608
 42
-0.003891
 10
11495.11449168306
 20
16788.23364436608
 42
-0.013915
 10
11495.126698683
 20
16788.35864436607
 42
-0.06275
 10
11495.251209683
 20
16788.84448436608
 42
-0.094035
 10
11495.65306568301
 20
16789.47729636608
 42
-0.094451
 10
11496.25902268306
 20
16789.91772636607
 42
-0.063116
 10
11496.736073683
 20
16790.07251136608
 42
-0.014085
 10
11496.86009668301
 20
16790.09253136608
 42
-0.017371
 10
11496.98509668301
 20
16790.10425036608
 42
-0.009683
 10
11497.11101268306
 20
16790.10815636608
 42
-0.002041
 10
11498.90509468304
 20
16790.10815636608
 42
0.000408
 10
11500.69875068315
 20
16790.10815636608
 42
-0.000409
 10
11502.49339768306
 20
16790.10815636608
 10
11503.39018668308
 20
16790.10815636608
 10
11504.28734268305
 20
16790.10815636608
 10
11506.53001868304
 20
16790.10840036607
 10
11508.77269468286
 20
16790.10827836608
 10
11513.25804568307
 20
16790.10766736608
 10
11522.677006683
 20
16790.10669136609
 10
11532.09602768304
 20
16790.10644736608
 10
11541.51506468285
 20
16790.10644736608
 10
11550.93413268313
 20
16790.10681336608
 10
11569.77232768315
 20
16790.10766736608
 10
11579.19145668308
 20
16790.10803436608
 10
11588.610584683
 20
16790.10815636608
 10
11648.60765568305
 20
16790.10815636608
 10
11678.079395683
 20
16790.10815636608
 10
11717.55150268301
 20
16790.10815636608
 10
11719.34569268305
 20
16790.10815636608
 10
11721.13988168315
 20
16790.10815636608
 10
11722.03703768305
 20
16790.10815636608
 10
11722.93382668301
 20
16790.10815636608
 10
11723.83104368309
 20
16790.10791236607
 10
11724.27965268305
 20
16790.10791236607
 10
11724.72826068305
 20
16790.10815636608
 10
11725.62523368296
 20
16790.10840036607
 10
11726.07367368309
 20
16790.10840036607
 10
11726.52223268301
 20
16790.10815636608
 42
0.000816
 10
11728.31657568305
 20
16790.10815636608
 42
-0.002041
 10
11730.11058468306
 20
16790.10815636608
 10
11730.14207868305
 20
16790.10742336607
 10
11730.17357268305
 20
16790.10669136609
 42
-0.007744
 10
11730.23656168299
 20
16790.10425036608
 42
-0.014935
 10
11730.36156068304
 20
16790.09204236608
 42
-0.047515
 10
11730.72874968305
 20
16790.01001136608
 42
-0.09433
 10
11731.38548868305
 20
16789.64917136607
 42
-0.09431
 10
11731.86302568284
 20
16789.07153536607
 42
-0.07907
 10
11732.07494068301
 20
16788.48266736608
 42
-0.014095
 10
11732.094959683
 20
16788.35864436607
 42
-0.011811
 10
11732.10667768305
 20
16788.23364436608
 42
-0.00912
 10
11732.10917868312
 20
16788.17090036608
 42
0.000427
 10
11732.11058468306
 20
16788.10815636608
 42
-0.002265
 10
11732.11058468306
 20
16786.81421036608
 42
0.000566
 10
11732.11058468306
 20
16785.51977736607
 10
11732.11079068306
 20
16785.19641336607
 10
11732.110767683
 20
16784.87304836608
 10
11732.11058468306
 20
16784.22583236607
 10
11732.11058468306
 20
16783.57861536608
 10
11732.11058468306
 20
16782.93188636608
 10
11732.11114768304
 20
16779.85827836607
 10
11732.11156668297
 20
16776.78466936608
 10
11732.11202668298
 20
16770.63745336608
 10
11732.11208668297
 20
16764.49048036607
 10
11732.11186668298
 20
16758.34326336608
 10
11732.11106568305
 20
16746.04919636607
 10
11732.11072468308
 20
16739.90210136608
 10
11732.11058468306
 20
16733.75512836608
 10
11732.11058468306
 20
16731.16699436607
 10
11732.11058468306
 20
16728.57885936608
 10
11732.11058468306
 20
16727.93164236606
 10
11732.11058468306
 20
16727.28442536608
 10
11732.11058468306
 20
16726.63769736607
 10
11732.11058468306
 20
16725.99048036607
 10
11732.110767683
 20
16725.34350736607
 10
11732.11079068306
 20
16725.02002136607
 10
11732.11058468306
 20
16724.69653536607
 42
0.000566
 10
11732.11058468306
 20
16723.40210136608
 42
-0.002265
 10
11732.11058468306
 20
16722.10815636608
 42
0.000425
 10
11732.10917868312
 20
16722.04541236607
 42
-0.009119
 10
11732.10667568298
 20
16721.98266736608
 42
-0.017616
 10
11732.094959683
 20
16721.85766736608
 42
-0.045828
 10
11732.01292168301
 20
16721.49048036607
 42
-0.094196
 10
11731.65159068302
 20
16720.83325336608
 42
-0.094302
 10
11731.07396368296
 20
16720.35571436608
 42
-0.079122
 10
11730.48558568301
 20
16720.14380036608
 42
-0.013318
 10
11730.361073683
 20
16720.12378136608
 42
-0.017614
 10
11730.236073683
 20
16720.11206236608
 42
-0.009745
 10
11730.110630683
 20
16720.10815636608
 42
-0.002041
 10
11728.31656468309
 20
16720.10815636608
 42
0.000816
 10
11726.52220568298
 20
16720.10815636608
 10
11726.07367368309
 20
16720.10791236607
 10
11725.62523368296
 20
16720.10791236607
 10
11724.72826068305
 20
16720.10815636608
 10
11724.27965968304
 20
16720.10840036608
 10
11723.83110468298
 20
16720.10840036608
 10
11722.93431568307
 20
16720.10815636608
 10
11720.69163968296
 20
16720.10791236607
 10
11718.44896368308
 20
16720.10803436608
 10
11713.96361268304
 20
16720.10864436608
 10
11704.54448368305
 20
16720.10962136607
 10
11695.12535568308
 20
16720.10986536608
 10
11685.70622668315
 20
16720.10986536608
 10
11676.28709868299
 20
16720.10949936607
 10
11657.44884168308
 20
16720.10864436608
 10
11648.02971368299
 20
16720.10827836607
 10
11648.61058468306
 20
16720.10815636608
  0
LWPOLYLINE
  5
73
330
2
100
AcDbEntity
  8
0
 62
     0
100
AcDbPolyline
 90
       13
 70
     0
 43
0.0
 10
11732.11058468306
 20
16906.10815636608
 10
11732.11058468306
 20
16866.10815636608
 10
11732.11058468306
 20
16793.60815636608
 10
11648.60765568305
 20
16793.60815636608
 10
11588.610584683
 20
16793.60815636608
 10
11495.110584683
 20
16793.60815636608
 10
11495.110584683
 20
16866.10815636608
 10
11495.110584683
 20
16906.10815636608
 10
11495.110584683
 20
16978.60815636608
 10
11588.610584683
 20
16978.60815636608
 10
11648.60765568305
 20
16978.60815636608
 10
11732.11058468306
 20
16978.60815636608
 10
11732.11058468306
 20
16906.10815636608
  0
LWPOLYLINE
  5
74
330
2
100
AcDbEntity
  8
0
 62
     0
100
AcDbPolyline
 90
      206
 70
     0
 43
0.0
 10
11648.61052368306
 20
15530.10815636608
 10
11678.08104368309
 20
15530.10815636608
 10
11717.55193068307
 20
15530.10815636608
 10
11719.34587568305
 20
15530.10815636608
 10
11721.13982068309
 20
15530.10815636608
 10
11722.03703768305
 20
15530.10815636608
 10
11722.93425468307
 20
15530.10815636608
 10
11723.83104368309
 20
15530.10815636608
 10
11724.72798668306
 20
15530.10815636608
 42
-0.000408
 10
11726.52222068309
 20
15530.10815636608
 42
0.000408
 10
11728.31655268305
 20
15530.10815636608
 42
-0.00245
 10
11730.11052268323
 20
15530.10815636608
 42
-0.009745
 10
11730.23601168317
 20
15530.10425036608
 42
-0.017607
 10
11730.36101168305
 20
15530.09253136608
 42
-0.045681
 10
11730.72868868317
 20
15530.01050036608
 42
-0.094044
 10
11731.38542768299
 20
15529.64917136607
 42
-0.09431
 10
11731.86298568301
 20
15529.07153536607
 42
-0.078349
 10
11732.07536868301
 20
15528.48315636608
 42
-0.013751
 10
11732.094898683
 20
15528.35913236608
 42
-0.017055
 10
11732.10662168309
 20
15528.23364436609
 42
-0.009751
 10
11732.110523683
 20
15528.10815636608
 42
-0.002265
 10
11732.110523683
 20
15526.81421036607
 42
0.000566
 10
11732.110523683
 20
15525.51977736607
 10
11732.110729683
 20
15525.19653536607
 10
11732.110706683
 20
15524.87304836607
 10
11732.110523683
 20
15524.22583236607
 10
11732.110523683
 20
15523.57885936608
 10
11732.110523683
 20
15522.93188636608
 10
11732.11116768307
 20
15519.85815636608
 10
11732.11164568305
 20
15516.78491436608
 10
11732.1121716831
 20
15510.63794136609
 10
11732.11224068304
 20
15504.49072436608
 10
11732.11198868304
 20
15498.34375136607
 10
11732.111073683
 20
15486.04956236608
 10
11732.11068368306
 20
15479.90258936608
 10
11732.110523683
 20
15473.75561736608
 10
11732.110523683
 20
15471.16723836607
 10
11732.110523683
 20
15468.57885936608
 10
11732.110523683
 20
15467.93188636608
 10
11732.110523683
 20
15467.28491436608
 10
11732.110523683
 20
15466.63769736607
 10
11732.110523683
 20
15465.99048036607
 10
11732.110706683
 20
15465.34350736608
 10
11732.110729683
 20
15465.01977736607
 10
11732.110523683
 20
15464.69653536607
 42
0.000567
 10
11732.11052468307
 20
15463.40258936608
 42
-0.002263
 10
11732.110523683
 20
15462.10815636608
 42
-0.009674
 10
11732.10661368297
 20
15461.98266736608
 42
-0.01181
 10
11732.094898683
 20
15461.85766736608
 42
-0.045582
 10
11732.01290168309
 20
15461.49048036606
 42
-0.094666
 10
11731.65155468286
 20
15460.83374236608
 42
-0.094306
 10
11731.074388683
 20
15460.35571436608
 42
-0.078985
 10
11730.48552468301
 20
15460.14380036608
 42
-0.013754
 10
11730.36150068305
 20
15460.12426936608
 42
-0.015681
 10
11730.23650068305
 20
15460.11206236608
 42
-0.007743
 10
11730.173512683
 20
15460.10962136607
 10
11730.11056868305
 20
15460.10815636608
 42
-0.002041
 10
11728.31655668308
 20
15460.10815636608
 42
0.000816
 10
11726.52269168301
 20
15460.10815636608
 42
-0.000408
 10
11725.62541668307
 20
15460.10815636608
 10
11724.72811368304
 20
15460.10815636608
 42
0.000408
 10
11723.83098268315
 20
15460.10815636608
 10
11722.93376568307
 20
15460.10815636608
 10
11720.69109068309
 20
15460.10815636608
 10
11718.44841468315
 20
15460.10815636608
 10
11716.20573868298
 20
15460.10815636608
 10
11715.64504768308
 20
15460.10815636608
 42
0.000436
 10
11715.08440068304
 20
15460.10864436608
 10
11713.96306268305
 20
15460.10864436608
 10
11712.78562568301
 20
15460.10864436608
 10
11712.49123068315
 20
15460.10864436608
 42
0.00083
 10
11712.19690768309
 20
15460.10913236608
 10
11711.60818968298
 20
15460.10913236608
 10
11709.25305868305
 20
15460.10913236608
 42
0.000878
 10
11704.54392668306
 20
15460.10962136607
 42
-0.000803
 10
11695.124069683
 20
15460.10986536608
 42
0.000416
 10
11694.82972368305
 20
15460.11010936608
 10
11694.53536268304
 20
15460.11010936608
 10
11693.946644683
 20
15460.11010936608
 10
11692.76920768308
 20
15460.11010936608
 10
11690.41434168307
 20
15460.11010936608
 10
11685.704601683
 20
15460.11010936608
 10
11683.34973568305
 20
15460.11010936608
 10
11682.761093683
 20
15460.11010936608
 42
-0.000415
 10
11682.17230668313
 20
15460.10962136607
 10
11680.99486968304
 20
15460.10962136607
 10
11676.28514568296
 20
15460.10962136607
 10
11671.575420683
 20
15460.10962136607
 10
11670.39799168309
 20
15460.10962136607
 42
0.000415
 10
11669.80927768301
 20
15460.10913236608
 10
11669.22056268299
 20
15460.10913236608
 10
11666.86570768307
 20
15460.10913236608
 10
11662.15599468285
 20
15460.10913236608
 10
11660.97856568305
 20
15460.10913236608
 42
0.000415
 10
11660.38985868315
 20
15460.10864436608
 10
11659.80114468296
 20
15460.10864436608
 10
11657.44630168307
 20
15460.10864436608
 10
11652.73660768305
 20
15460.10864436608
 10
11651.55919368301
 20
15460.10864436608
 42
0.000415
 10
11650.97047868323
 20
15460.10815636608
 10
11650.38176368309
 20
15460.10815636608
 10
11648.02692868314
 20
15460.10815636608
 10
11648.60759468305
 20
15460.10815636608
 10
11588.61345368296
 20
15460.10815636608
 10
11549.14177368306
 20
15460.10815636608
 10
11529.40593368308
 20
15460.10815636608
 10
11509.67009468305
 20
15460.10815636608
 10
11507.87572168313
 20
15460.10815636608
 10
11506.08171568309
 20
15460.10815636608
 10
11505.18449868307
 20
15460.10815636608
 10
11504.28711368305
 20
15460.10815636608
 42
0.000409
 10
11502.49333668301
 20
15460.10815636608
 10
11501.59627268305
 20
15460.10815636608
 42
-0.000408
 10
11500.69931468308
 20
15460.10815636608
 42
0.000816
 10
11498.90500368304
 20
15460.10815636608
 42
-0.002041
 10
11497.110523683
 20
15460.10815636608
 10
11497.04796268306
 20
15460.10962136607
 42
-0.007734
 10
11496.98503568301
 20
15460.11206236608
 42
-0.015671
 10
11496.86003568307
 20
15460.12426936608
 42
-0.047531
 10
11496.49284768307
 20
15460.20630036608
 42
-0.094297
 10
11495.83609468296
 20
15460.56714036608
 42
-0.094578
 10
11495.35808268304
 20
15461.14477736607
 42
-0.079035
 10
11495.14616868306
 20
15461.73364436608
 42
-0.013779
 10
11495.126637683
 20
15461.85766736608
 42
-0.017578
 10
11495.11491868306
 20
15461.98266736608
 42
-0.005837
 10
11495.11052368306
 20
15462.10815636608
 42
-0.002263
 10
11495.11052368306
 20
15463.40258936608
 42
0.000566
 10
11495.11052368306
 20
15464.69653536607
 10
11495.11031068301
 20
15465.01977736607
 10
11495.11034068312
 20
15465.34350736608
 10
11495.11052368306
 20
15465.99048036607
 10
11495.11052368306
 20
15466.63769736607
 10
11495.11052368306
 20
15467.28491436608
 10
11495.10995968302
 20
15470.03491436608
 10
11495.10969968301
 20
15472.78466936608
 10
11495.10969968301
 20
15475.53466936606
 10
11495.10985268302
 20
15478.28466936608
 10
11495.110462683
 20
15483.78491436607
 10
11495.111012683
 20
15489.28491436607
 10
11495.11127168317
 20
15493.16723836607
 10
11495.11134768305
 20
15497.04931836608
 10
11495.11113468306
 20
15504.81396636608
 10
11495.110737683
 20
15512.57885936608
 10
11495.11052368306
 20
15520.34350736608
 10
11495.11052368306
 20
15521.63769736608
 10
11495.11052368306
 20
15522.93188636608
 10
11495.11052368306
 20
15523.57885936608
 10
11495.11052368306
 20
15524.22583236607
 10
11495.11034068312
 20
15524.87304836607
 10
11495.11031068301
 20
15525.19653536607
 10
11495.11052368306
 20
15525.52026536608
 42
0.000566
 10
11495.11052368306
 20
15526.81421036607
 42
-0.002264
 10
11495.11052368306
 20
15528.10815636608
 42
0.000521
 10
11495.11192768304
 20
15528.17114436608
 42
-0.009205
 10
11495.11443068307
 20
15528.23413236608
 42
-0.011719
 10
11495.12614868306
 20
15528.35913236608
 42
-0.045547
 10
11495.20814968306
 20
15528.72632036608
 42
-0.094665
 10
11495.56952368309
 20
15529.38305836607
 42
-0.094547
 10
11496.14714468304
 20
15529.86108536607
 42
-0.078062
 10
11496.736012683
 20
15530.07300036608
 42
-0.013763
 10
11496.86003568307
 20
15530.09253136608
 42
-0.017371
 10
11496.98503568301
 20
15530.10425036608
 42
-0.009676
 10
11497.110462683
 20
15530.10815636608
 42
-0.002449
 10
11498.90503368304
 20
15530.10815636608
 42
0.000408
 10
11500.69868968309
 20
15530.10815636608
 42
-0.000409
 10
11502.49333668301
 20
15530.10815636608
 10
11503.39012568297
 20
15530.10815636608
 10
11504.28728168305
 20
15530.10815636608
 10
11504.96001168298
 20
15530.10815636608
 10
11505.12819368297
 20
15530.10815636608
 42
-0.001452
 10
11505.29637568314
 20
15530.10864436609
 10
11505.63275568285
 20
15530.10864436609
 10
11506.97829168306
 20
15530.10864436609
 10
11509.66942268306
 20
15530.10864436609
 10
11511.01503468297
 20
15530.10864436609
 10
11511.35142968308
 20
15530.10864436609
 42
-0.001452
 10
11511.51964268296
 20
15530.10815636608
 10
11511.68782468307
 20
15530.10815636608
 10
11512.36064568306
 20
15530.10815636608
 10
11515.05193068307
 20
15530.10815636608
 10
11519.64934268301
 20
15530.10742336607
 10
11524.24675468301
 20
15530.10693536608
 42
0.000425
 10
11524.53409268298
 20
15530.10669136608
 10
11524.82143068306
 20
15530.10669136608
 10
11525.396107683
 20
15530.10669136608
 10
11526.54546068304
 20
15530.10669136608
 10
11528.84416668302
 20
15530.10669136608
 10
11533.44157868296
 20
15530.10669136608
 10
11551.83122668297
 20
15530.10669136608
 10
11556.42863868298
 20
15530.10669136608
 10
11557.57802268308
 20
15530.10669136608
 42
0.000425
 10
11558.15266868302
 20
15530.10717936607
 10
11558.72734568313
 20
15530.10717936607
 10
11561.02605168304
 20
15530.10717936607
 10
11565.62346368305
 20
15530.10717936607
 10
11566.77284668314
 20
15530.10717936607
 42
0.000425
 10
11567.34749268296
 20
15530.10766736608
 10
11567.92216968296
 20
15530.10766736608
 10
11570.22087568305
 20
15530.10766736608
 10
11574.81828768305
 20
15530.10766736608
 10
11575.96767068298
 20
15530.10766736608
 42
0.000425
 10
11576.54231668314
 20
15530.10815636608
 10
11577.11699368314
 20
15530.10815636608
 10
11579.41569968305
 20
15530.10815636608
 10
11588.610523683
 20
15530.10815636608
 10
11648.61052368306
 20
15530.10815636608
  0
LWPOLYLINE
  5
75
330
2
100
AcDbEntity
  8
0
 62
     0
100
AcDbPolyline
 90
       13
 70
     0
 43
0.0
 10
11648.610462683
 20
15271.60815636608
 10
11588.610462683
 20
15271.60815636608
 10
11495.110462683
 20
15271.60815636608
 10
11495.110462683
 20
15344.10815636607
 10
11495.110462683
 20
15384.10815636607
 10
11495.11052368306
 20
15456.60815636608
 10
11588.61345368296
 20
15456.60815636608
 10
11648.60759468305
 20
15456.60815636608
 10
11732.110523683
 20
15456.60815636608
 10
11732.110523683
 20
15384.10815636607
 10
11732.110523683
 20
15344.10815636607
 10
11732.110523683
 20
15271.60815636608
 10
11648.610462683
 20
15271.60815636608
  0
LWPOLYLINE
  5
76
330
2
100
AcDbEntity
  8
0
 62
     0
100
AcDbPolyline
 90
      197
 70
     0
 43
0.0
 10
11735.610584683
 20
16906.10815636608
 10
11735.610584683
 20
16937.59839036608
 10
11735.610584683
 20
16969.08862536608
 10
11735.610584683
 20
16970.52002136608
 10
11735.610584683
 20
16971.95141736608
 10
11735.610584683
 20
16972.66699436608
 10
11735.610584683
 20
16973.38257036608
 10
11735.610584683
 20
16974.09839036608
 10
11735.610584683
 20
16974.81421036608
 10
11735.61076768306
 20
16975.52978736607
 10
11735.61079068306
 20
16975.88757536608
 10
11735.610584683
 20
16976.24536336607
 42
-0.000513
 10
11735.610584683
 20
16977.67712636607
 42
0.001535
 10
11735.610584683
 20
16979.10815636608
 42
0.003242
 10
11735.60667768305
 20
16979.26001136608
 42
0.014181
 10
11735.59496468304
 20
16979.41186736608
 42
0.050474
 10
11735.47288868307
 20
16980.00610536607
 42
0.088856
 10
11734.98266168304
 20
16980.94458236608
 42
0.088923
 10
11734.19749868304
 20
16981.65405436608
 42
0.076042
 10
11733.36253668285
 20
16982.01245336608
 42
0.025524
 10
11733.06468668305
 20
16982.07348836607
 42
0.01138
 10
11732.91429468301
 20
16982.09301936608
 42
0.01102
 10
11732.76243868305
 20
16982.10425036609
 42
0.00805
 10
11732.61051968315
 20
16982.10815636608
 42
0.001987
 10
11730.767338683
 20
16982.10815636608
 42
-0.001
 10
11729.84587568305
 20
16982.10705736608
 10
11729.38503668304
 20
16982.10766736608
 10
11728.92406168305
 20
16982.10815636608
 10
11728.46336068299
 20
16982.10840036606
 10
11728.00261368304
 20
16982.10840036606
 10
11727.08079968298
 20
16982.10815636608
 10
11726.15935168297
 20
16982.10815636608
 10
11725.23753768285
 20
16982.10815636608
 10
11722.01195168302
 20
16982.10864436609
 10
11718.78636668301
 20
16982.10876636608
 10
11715.56078068305
 20
16982.10888836608
 10
11712.33519468309
 20
16982.10864436609
 10
11699.43285068309
 20
16982.10766736608
 10
11691.829739683
 20
16982.10717936607
 10
11684.22659768308
 20
16982.10717936607
 10
11676.62343268304
 20
16982.10717936607
 10
11669.02025268301
 20
16982.10742336607
 10
11653.81390868306
 20
16982.10791236607
 10
11648.60765568305
 20
16982.10815636608
 10
11588.610584683
 20
16982.10815636608
 10
11548.06151268315
 20
16982.10815636608
 10
11507.51244068301
 20
16982.10815636608
 10
11505.669422683
 20
16982.10815636608
 10
11503.82640568305
 20
16982.10815636608
 10
11502.90477468304
 20
16982.10815636608
 10
11501.98314368298
 20
16982.10815636608
 10
11501.06151268315
 20
16982.10815636608
 10
11500.13988168297
 20
16982.10815636608
 10
11499.21849468308
 20
16982.10840036606
 10
11498.75780168308
 20
16982.10840036606
 10
11498.29710868296
 20
16982.10815636608
 10
11497.83614068308
 20
16982.10766736608
 10
11497.37534068296
 20
16982.10705736608
 42
-0.001
 10
11496.45384668301
 20
16982.10815636608
 42
0.001987
 10
11494.610584683
 20
16982.10815636608
 42
0.008051
 10
11494.45872968306
 20
16982.10425036609
 42
0.011017
 10
11494.30687368304
 20
16982.09301936608
 42
0.049341
 10
11493.71263568305
 20
16981.97094936607
 42
0.088624
 10
11492.77464768306
 20
16981.48071436608
 42
0.088909
 10
11492.06468668305
 20
16980.69507036608
 42
0.076058
 10
11491.70628768314
 20
16979.86010936608
 42
0.025349
 10
11491.64525268312
 20
16979.56274636607
 42
0.01436
 10
11491.62620968306
 20
16979.41186736608
 42
0.01447
 10
11491.61449168301
 20
16979.26001136608
 42
0.008039
 10
11491.61058468306
 20
16979.10815636608
 42
0.002047
 10
11491.61058468306
 20
16977.67712636607
 42
-0.000517
 10
11491.61058468306
 20
16976.24536336607
 10
11491.61037168301
 20
16975.88757536608
 10
11491.61040168301
 20
16975.52978736607
 10
11491.61058468306
 20
16974.81421036608
 10
11491.61058468306
 20
16974.09839036608
 10
11491.61058468306
 20
16973.38257036608
 10
11491.60994368301
 20
16969.17798036607
 10
11491.60945568296
 20
16964.97326836608
 10
11491.60893668297
 20
16956.56396636608
 10
11491.60887568309
 20
16948.15466536607
 10
11491.60911968285
 20
16939.74536336607
 10
11491.61003568301
 20
16922.92675936607
 10
11491.61043268301
 20
16914.51745836608
 10
11491.61058468306
 20
16906.10815636608
 10
11491.61058468306
 20
16866.10815636608
 10
11491.61058468306
 20
16160.10815636608
 10
11491.610523683
 20
16090.10815636608
 10
11491.610462683
 20
15384.10815636607
 10
11491.610462683
 20
15344.10815636607
 10
11491.610462683
 20
15312.61816636608
 10
11491.610462683
 20
15281.12768736608
 10
11491.610462683
 20
15279.69653536607
 10
11491.610462683
 20
15278.26489436608
 10
11491.610462683
 20
15277.54931836608
 10
11491.610462683
 20
15276.83374236608
 10
11491.610462683
 20
15276.11816636607
 10
11491.610462683
 20
15275.40258936608
 10
11491.61027968301
 20
15274.68676936607
 10
11491.61024968301
 20
15274.32885936608
 10
11491.610462683
 20
15273.97119336608
 42
-0.000521
 10
11491.610462683
 20
15272.53979636606
 42
0.002046
 10
11491.610462683
 20
15271.10815636608
 42
0.008039
 10
11491.61436868306
 20
15270.95630036608
 42
0.014516
 10
11491.626102683
 20
15270.80493336607
 42
0.050544
 10
11491.74814268305
 20
15270.21020736607
 42
0.089179
 10
11492.23840768296
 20
15269.27221836607
 42
0.088501
 10
11493.02356368308
 20
15268.56225736608
 42
0.075507
 10
11493.85850968309
 20
15268.20385936607
 42
0.025522
 10
11494.15636168308
 20
15268.14282436607
 42
0.014584
 10
11494.30675168299
 20
15268.12378136608
 42
0.014179
 10
11494.45860768312
 20
15268.11206236608
 42
0.003248
 10
11494.61047768306
 20
15268.10815636608
 42
0.001589
 10
11496.45370968302
 20
15268.10815636608
 42
-0.001043
 10
11497.37517268307
 20
15268.10937636607
 10
11497.83601868308
 20
15268.10864436608
 42
-0.000529
 10
11498.06647168314
 20
15268.10815636608
 10
11498.29698668296
 20
15268.10815636608
 10
11498.75767968308
 20
15268.10815636608
 10
11499.21837268308
 20
15268.10815636608
 10
11500.13975968315
 20
15268.10815636608
 10
11500.60052968304
 20
15268.10815636608
 10
11501.06139068304
 20
15268.10815636608
 10
11501.98302168304
 20
15268.10815636608
 10
11502.78937268285
 20
15268.10815636608
 10
11502.99095568304
 20
15268.10815636608
 42
0.001211
 10
11503.19255568307
 20
15268.10766736608
 10
11503.59572268305
 20
15268.10766736608
 10
11505.208439683
 20
15268.10766736608
 10
11508.43391868307
 20
15268.10766736608
 10
11514.88493768299
 20
15268.10766736608
 10
11527.78722068305
 20
15268.10913236607
 10
11529.68794668301
 20
15268.10913236607
 10
11530.16313668298
 20
15268.10913236607
 42
-0.000514
 10
11530.63831068306
 20
15268.10962136607
 10
11531.58867368304
 20
15268.10962136607
 10
11535.39012568285
 20
15268.10962136607
 10
11542.99303168301
 20
15268.10962136607
 10
11550.59593668305
 20
15268.10962136607
 10
11552.49666268301
 20
15268.10962136607
 10
11552.97186768309
 20
15268.10962136607
 42
0.000514
 10
11553.44702568317
 20
15268.10913236607
 10
11554.39738868297
 20
15268.10913236607
 10
11558.19884168285
 20
15268.10913236607
 10
11573.40463668304
 20
15268.10840036608
 42
0.000514
 10
11573.87984168301
 20
15268.10815636608
 10
11574.35501568309
 20
15268.10815636608
 10
11575.30537868301
 20
15268.10815636608
 10
11577.20610468297
 20
15268.10815636608
 10
11581.00755768297
 20
15268.10815636608
 10
11588.610462683
 20
15268.10815636608
 10
11648.610462683
 20
15268.10815636608
 10
11679.15958868309
 20
15268.10815636608
 10
11699.43413268301
 20
15268.10815636608
 10
11719.70866868306
 20
15268.10815636608
 10
11721.55168568306
 20
15268.10815636608
 10
11723.39470368308
 20
15268.10815636608
 10
11724.31633468308
 20
15268.10815636608
 10
11725.23796568315
 20
15268.10815636608
 10
11726.15959668309
 20
15268.10815636608
 10
11726.62045768309
 20
15268.10815636608
 10
11727.08122668315
 20
15268.10815636608
 10
11728.00261368304
 20
15268.10815636608
 10
11728.46330668304
 20
15268.10815636608
 10
11728.924024683
 20
15268.10815636608
 42
-0.000795
 10
11730.76727268308
 20
15268.10815636608
 42
0.001589
 10
11732.61052468307
 20
15268.10815636608
 42
0.003248
 10
11732.76237968301
 20
15268.11206236608
 42
0.014183
 10
11732.91423568308
 20
15268.12378136608
 42
0.049472
 10
11733.50847268301
 20
15268.24585136608
 42
0.088852
 10
11734.446949683
 20
15268.73608536607
 42
0.088492
 10
11735.15642268296
 20
15269.52124236608
 42
0.075608
 10
11735.51482068297
 20
15270.35620336608
 42
0.025524
 10
11735.57585868284
 20
15270.65405436608
 42
0.014841
 10
11735.59489868306
 20
15270.80493336607
 42
0.014566
 10
11735.60661568305
 20
15270.95630036608
 42
0.008051
 10
11735.610523683
 20
15271.10815636608
 42
0.002046
 10
11735.610523683
 20
15272.53979636606
 42
-0.000514
 10
11735.610523683
 20
15273.97094936607
 10
11735.61072968306
 20
15274.32885936608
 10
11735.610706683
 20
15274.68676936607
 10
11735.610523683
 20
15275.40258936608
 10
11735.610523683
 20
15276.11816636607
 10
11735.610523683
 20
15276.83374236608
 10
11735.61116768307
 20
15281.03833236607
 10
11735.61164568299
 20
15285.24292136606
 10
11735.61217168315
 20
15293.65234536607
 10
11735.61224068304
 20
15302.06176936608
 10
11735.61198868304
 20
15310.47094936607
 10
11735.611073683
 20
15327.28955236608
 10
11735.61068368306
 20
15335.69897636608
 10
11735.610523683
 20
15344.10815636607
 10
11735.610523683
 20
15384.10815636607
 10
11735.610523683
 20
16090.10815636608
 10
11735.610523683
 20
16160.10815636608
 10
11735.610584683
 20
16866.10815636608
 10
11735.610584683
 20
16906.10815636608
  0
LWPOLYLINE
  5
77
330
2
100
AcDbEntity
  8
0
 62
     0
100
AcDbPolyline
 90
       13
 70
     0
 43
0.0
 10
11732.11058468306
 20
16716.60815636608
 10
11732.110523683
 20
16160.10815636608
 10
11732.110523683
 20
16090.10815636608
 10
11732.110523683
 20
15533.60815636608
 10
11648.61052368306
 20
15533.60815636608
 10
11588.610523683
 20
15533.60815636608
 10
11495.11052368306
 20
15533.60815636608
 10
11495.11052368306
 20
16090.10815636608
 10
11495.110584683
 20
16160.10815636608
 10
11495.110584683
 20
16716.60815636608
 10
11588.610584683
 20
16716.60815636608
 10
11648.61058468306
 20
16716.60815636608
 10
11732.11058468306
 20
16716.60815636608
  0
LWPOLYLINE
  5
78
330
2
100
AcDbEntity
  8
0
 62
     0
100
AcDbPolyline
 90
      181
 70
     0
 43
0.0
 10
11535.110462683
 20
15344.10815636607
 10
11535.110462683
 20
15384.10815636607
 10
11535.110462683
 20
15397.12304836607
 10
11535.110462683
 20
15410.13745336608
 10
11535.110462683
 20
15410.71606636609
 10
11535.110462683
 20
15411.29467936607
 10
11535.110462683
 20
15411.58374236608
 10
11535.110462683
 20
15411.87280436608
 10
11535.110462683
 20
15412.16211136608
 10
11535.110462683
 20
15412.45141736608
 10
11535.110645683
 20
15412.74072436607
 42
0.000634
 10
11535.110462683
 20
15413.03003136608
 42
-0.001267
 10
11535.110462683
 20
15413.60815636608
 42
-0.008039
 10
11535.114368683
 20
15413.76001136608
 42
-0.014268
 10
11535.126102683
 20
15413.91186736608
 42
-0.050432
 10
11535.24815868305
 20
15414.50610536607
 42
-0.088843
 10
11535.73840768308
 20
15415.44458236607
 42
-0.088908
 10
11536.52354868308
 20
15416.15405436607
 42
-0.076299
 10
11537.35850968298
 20
15416.51245336608
 42
-0.025522
 10
11537.65636168308
 20
15416.57348836607
 42
-0.011366
 10
11537.80675168305
 20
15416.59301936609
 42
-0.011019
 10
11537.95860768306
 20
15416.60425036607
 42
-0.008051
 10
11538.11040168306
 20
15416.60815636608
 42
-0.001479
 10
11539.10071268315
 20
15416.60815636608
 42
0.000493
 10
11539.59581468305
 20
15416.60766736608
 10
11539.71959368307
 20
15416.60766736608
 42
-0.000986
 10
11539.84337268314
 20
15416.60815636608
 10
11540.09093168306
 20
15416.60815636608
 42
-0.00074
 10
11540.58604868313
 20
15416.60815636608
 10
11541.08116568297
 20
15416.60815636608
 10
11541.57628368305
 20
15416.60815636608
 10
11542.071262683
 20
15416.60815636608
 42
-0.00042
 10
11543.52571568299
 20
15416.60742336607
 42
0.001049
 10
11544.97992368314
 20
15416.60864436608
 42
-0.00138
 10
11547.88864568317
 20
15416.60913236607
 42
0.001343
 10
11553.70601368304
 20
15416.60937636607
 42
-0.000671
 10
11553.887806683
 20
15416.60962136607
 10
11554.06959968315
 20
15416.60962136607
 10
11554.43318668297
 20
15416.60962136607
 10
11555.16035868307
 20
15416.60962136607
 10
11556.61468968306
 20
15416.60962136607
 10
11559.52336568296
 20
15416.60962136607
 10
11560.97771168306
 20
15416.60962136607
 10
11561.34129768306
 20
15416.60962136607
 42
0.000671
 10
11561.704884683
 20
15416.60913236607
 10
11562.43205668304
 20
15416.60913236607
 10
11565.34074868307
 20
15416.60913236607
 10
11571.15816168305
 20
15416.60913236607
 10
11572.61250768309
 20
15416.60913236607
 10
11572.97610968297
 20
15416.60913236607
 42
0.000336
 10
11573.157887683
 20
15416.60888836608
 42
0.000672
 10
11573.33968068308
 20
15416.60864436608
 10
11574.06685368308
 20
15416.60864436608
 10
11576.97557568298
 20
15416.60864436608
 10
11579.88429668305
 20
15416.60864436608
 10
11580.61143968299
 20
15416.60864436608
 42
-0.000671
 10
11580.97507168304
 20
15416.60815636608
 10
11581.33865768321
 20
15416.60815636608
 10
11582.79301868313
 20
15416.60815636608
 10
11588.610462683
 20
15416.60815636608
 10
11648.60753368305
 20
15416.60815636608
 10
11660.39304768304
 20
15416.60815636608
 10
11682.17888368309
 20
15416.60815636608
 10
11683.66423468307
 20
15416.60815636608
 10
11684.40691068301
 20
15416.60815636608
 10
11685.14958668301
 20
15416.60815636608
 10
11685.64470368308
 20
15416.60815636608
 10
11686.13982068309
 20
15416.60815636608
 10
11686.63493068305
 20
15416.60815636608
 42
-0.00074
 10
11687.13005568301
 20
15416.60815636608
 10
11687.37760268302
 20
15416.60815636608
 42
-0.000987
 10
11687.501392683
 20
15416.60766736608
 10
11687.62519568308
 20
15416.60766736608
 42
0.000493
 10
11688.12022468306
 20
15416.60815636608
 42
-0.001479
 10
11689.110523683
 20
15416.60815636608
 42
-0.00805
 10
11689.26237968301
 20
15416.60425036607
 42
-0.011022
 10
11689.41423468296
 20
15416.59301936609
 42
-0.049864
 10
11690.00847268301
 20
15416.47046036607
 42
-0.088517
 10
11690.946949683
 20
15415.98071436608
 42
-0.088646
 10
11691.65642268308
 20
15415.19507036608
 42
-0.076035
 10
11692.01482068309
 20
15414.36010936608
 42
-0.025513
 10
11692.07585168308
 20
15414.06225736607
 42
-0.014561
 10
11692.094898683
 20
15413.91186736608
 42
-0.01447
 10
11692.10661368286
 20
15413.76001136608
 42
-0.008039
 10
11692.11052368306
 20
15413.60815636608
 42
-0.001271
 10
11692.11052368306
 20
15413.03003136608
 42
0.000634
 10
11692.11034068312
 20
15412.74072436607
 10
11692.11052368306
 20
15412.45141736608
 10
11692.11052368306
 20
15412.16211136608
 10
11692.11052368306
 20
15411.87280436608
 10
11692.11010468307
 20
15410.93286336607
 10
11692.10991368301
 20
15409.99292136607
 10
11692.10990568301
 20
15409.05298036606
 10
11692.11003568307
 20
15408.11303936608
 10
11692.111012683
 20
15404.35327336607
 10
11692.11155368305
 20
15401.82251136608
 10
11692.11175968304
 20
15399.29175036608
 10
11692.11171368297
 20
15396.76123236608
 10
11692.11150068305
 20
15394.23071436608
 10
11692.110874683
 20
15389.16967936608
 10
11692.110622683
 20
15386.63891736608
 10
11692.11052368306
 20
15384.10815636607
 10
11692.11052368306
 20
15344.10815636607
 10
11692.11052368306
 20
15331.09350736607
 10
11692.11052368306
 20
15318.07885936608
 10
11692.11052368306
 20
15317.50024636607
 10
11692.11052368306
 20
15316.92212136607
 10
11692.11052368306
 20
15316.63281436606
 10
11692.11052368306
 20
15316.34350736607
 10
11692.11052368306
 20
15316.05420136608
 10
11692.11052368306
 20
15315.76538236608
 10
11692.11034068312
 20
15315.47607636609
 42
0.000633
 10
11692.11052368306
 20
15315.18676936609
 42
-0.00127
 10
11692.11052368306
 20
15314.60815636608
 42
-0.008038
 10
11692.10662168286
 20
15314.45630036608
 42
-0.014616
 10
11692.09487968297
 20
15314.30493336607
 42
-0.050543
 10
11691.97284768305
 20
15313.71020736607
 42
-0.089173
 10
11691.48260968305
 20
15312.77221836608
 42
-0.089095
 10
11690.69743768305
 20
15312.06225736607
 42
-0.076021
 10
11689.86247668309
 20
15311.70385936608
 42
-0.025522
 10
11689.56462568299
 20
15311.64282436607
 42
-0.014581
 10
11689.41423468296
 20
15311.62378136608
 42
-0.014183
 10
11689.26237968301
 20
15311.61206236608
 42
-0.00805
 10
11689.11057368298
 20
15311.60815636607
 42
-0.001479
 10
11688.12018268315
 20
15311.60815636607
 42
0.00074
 10
11687.13005568301
 20
15311.60815636607
 10
11686.63493768305
 20
15311.60815636607
 10
11686.13982068309
 20
15311.60815636607
 10
11685.64470368308
 20
15311.60815636607
 10
11685.14958668301
 20
15311.60815636607
 10
11679.33178768305
 20
15311.60742336607
 42
-0.000671
 10
11679.149967683
 20
15311.60717936607
 10
11678.96816368306
 20
15311.60717936607
 10
11678.60454968309
 20
15311.60717936607
 10
11677.87732368304
 20
15311.60717936607
 10
11676.42287168307
 20
15311.60717936607
 10
11673.51397368304
 20
15311.60717936607
 10
11661.87839968309
 20
15311.60717936607
 10
11650.24285568301
 20
15311.60791236607
 42
0.000672
 10
11649.87930768302
 20
15311.60815636607
 10
11649.51569068308
 20
15311.60815636607
 10
11648.78847968286
 20
15311.60815636607
 10
11647.33404968305
 20
15311.60815636607
 10
11644.42520568309
 20
15311.60815636607
 10
11648.60753368305
 20
15311.60815636607
 10
11588.61339268314
 20
15311.60815636607
 10
11566.82799268297
 20
15311.60815636607
 10
11545.04259168297
 20
15311.60815636607
 10
11543.55724068304
 20
15311.60815636607
 10
11542.071888683
 20
15311.60815636607
 10
11541.57677168304
 20
15311.60815636607
 10
11541.08165468297
 20
15311.60815636607
 10
11540.58630868308
 20
15311.60815636607
 42
-0.000739
 10
11540.09082468301
 20
15311.60815636607
 42
0.00074
 10
11539.10074268297
 20
15311.60815636607
 42
-0.001479
 10
11538.11046268306
 20
15311.60815636607
 42
-0.008003
 10
11537.95860768306
 20
15311.61206236608
 42
-0.014392
 10
11537.80724068304
 20
15311.62378136608
 42
-0.049392
 10
11537.212513683
 20
15311.74585136608
 42
-0.089151
 10
11536.274540683
 20
15312.23608536608
 42
-0.088893
 10
11535.56506768281
 20
15313.02124236608
 42
-0.075732
 10
11535.20616568309
 20
15313.85620336608
 42
-0.023668
 10
11535.14513068301
 20
15314.15405436607
 42
-0.010315
 10
11535.126087683
 20
15314.30493336607
 42
-0.009678
 10
11535.114368683
 20
15314.45630036608
 42
-0.003216
 10
11535.110462683
 20
15314.60815636608
 42
-0.001266
 10
11535.110462683
 20
15315.18676936609
 42
0.00127
 10
11535.110462683
 20
15315.76538236608
 42
-0.000425
 10
11535.11095068305
 20
15316.34350736607
 10
11535.11122568305
 20
15317.28344936607
 10
11535.11134768305
 20
15318.22339036608
 10
11535.11119568306
 20
15320.10327336607
 10
11535.11067668306
 20
15321.98315636608
 10
11535.10997468301
 20
15323.86303936608
 10
11535.10942568308
 20
15326.39380036608
 10
11535.10922668314
 20
15328.92456236608
 10
11535.10927268308
 20
15331.45508036608
 10
11535.10948668314
 20
15333.98584136608
 10
11535.11011168307
 20
15339.04712136607
 10
11535.11037168301
 20
15341.57763836608
 10
11535.110462683
 20
15344.10815636607
  0
LWPOLYLINE
  5
79
330
2
100
AcDbEntity
  8
0
 62
     0
100
AcDbPolyline
 90
       13
 70
     0
 43
0.0
 10
11523.110462683
 20
15344.10815636607
 10
11523.110462683
 20
15299.60815636608
 10
11588.61339268314
 20
15299.60815636608
 10
11648.60753368305
 20
15299.60815636608
 10
11704.110523683
 20
15299.60815636608
 10
11704.110523683
 20
15344.10815636607
 10
11704.110523683
 20
15384.10815636607
 10
11704.110523683
 20
15428.60815636608
 10
11648.60753368305
 20
15428.60815636608
 10
11588.610462683
 20
15428.60815636608
 10
11523.110462683
 20
15428.60815636608
 10
11523.110462683
 20
15384.10815636607
 10
11523.110462683
 20
15344.10815636607
  0
LWPOLYLINE
  5
7A
330
2
100
AcDbEntity
  8
0
 62
     0
100
AcDbPolyline
 90
        9
 70
     0
 43
0.0
 10
11732.610584683
 20
16985.10815636608
 10
11494.610584683
 20
16985.10815636608
 42
0.4142140000000003
 10
11488.610584683
 20
16979.10815636608
 10
11488.61046268306
 20
15271.10815636608
 42
0.4142140000000003
 10
11494.610462683
 20
15265.10815636608
 10
11732.61052468307
 20
15265.10815636608
 42
0.4142140000000003
 10
11738.610523683
 20
15271.10815636608
 10
11738.610584683
 20
16979.10815636608
 42
0.414206
 10
11732.61064368304
 20
16985.10815636608
  0
ENDSEC
  0
SECTION
  2
OBJECTS
  0
DICTIONARY
  5
7
330
0
100
AcDbDictionary
281
     1
  3
ACAD_COLOR
350
32
  3
ACAD_GROUP
350
2D
  3
ACAD_LAYOUT
350
E
  3
ACAD_MATERIAL
350
9
  3
ACAD_MLEADERSTYLE
350
35
  3
ACAD_MLINESTYLE
350
2E
  3
ACAD_PLOTSETTINGS
350
2F
  3
ACAD_PLOTSTYLENAME
350
6
  3
ACAD_SCALELIST
350
33
  3
ACAD_TABLESTYLE
350
34
  3
ACAD_VISUALSTYLE
350
20
  3
ACDB_RECOMPOSE_DATA
350
7F
  3
AcDbVariableDictionary
350
36
  0
DICTIONARY
  5
16
330
15
100
AcDbDictionary
280
     1
281
     1
  3
ACAD_LAYERSTATES
360
17
  0
DICTIONARY
  5
32
102
{ACAD_REACTORS
330
7
102
}
330
7
100
AcDbDictionary
281
     1
  0
DICTIONARY
  5
2D
102
{ACAD_REACTORS
330
7
102
}
330
7
100
AcDbDictionary
281
     1
  0
DICTIONARY
  5
E
102
{ACAD_REACTORS
330
7
102
}
330
7
100
AcDbDictionary
281
     1
  3
Layout1
350
13
  3
Model
350
D
  0
DICTIONARY
  5
9
102
{ACAD_REACTORS
330
7
102
}
330
7
100
AcDbDictionary
281
     1
  3
ByBlock
350
31
  3
ByLayer
350
30
  3
Global
350
8
  0
DICTIONARY
  5
35
102
{ACAD_REACTORS
330
7
102
}
330
7
100
AcDbDictionary
281
     1
  0
DICTIONARY
  5
2E
102
{ACAD_REACTORS
330
7
102
}
330
7
100
AcDbDictionary
281
     1
  3
Standard
350
54
  0
DICTIONARY
  5
2F
102
{ACAD_REACTORS
330
7
102
}
330
7
100
AcDbDictionary
281
     1
  0
ACDBDICTIONARYWDFLT
  5
6
102
{ACAD_REACTORS
330
7
102
}
330
7
100
AcDbDictionary
281
     1
  3
Normal
350
5
100
AcDbDictionaryWithDefault
340
5
  0
DICTIONARY
  5
33
102
{ACAD_REACTORS
330
7
102
}
330
7
100
AcDbDictionary
281
     1
  3
A0
350
56
  3
A1
350
57
  3
A2
350
58
  3
A3
350
59
  3
A4
350
5A
  3
A5
350
5B
  3
A6
350
5C
  3
A7
350
5D
  3
A8
350
5E
  3
A9
350
5F
  3
B0
350
60
  3
B1
350
61
  3
B2
350
62
  3
B3
350
63
  3
B4
350
64
  3
B5
350
65
  3
B6
350
66
  0
DICTIONARY
  5
34
102
{ACAD_REACTORS
330
7
102
}
330
7
100
AcDbDictionary
281
     1
  3
Standard
350
55
  0
DICTIONARY
  5
20
102
{ACAD_REACTORS
330
7
102
}
330
7
100
AcDbDictionary
281
     1
  3
2dWireframe
350
1F
  0
XRECORD
  5
7F
102
{ACAD_REACTORS
330
7
102
}
330
7
100
AcDbXrecord
280
     1
 90
        1
330
55
  0
DICTIONARY
  5
36
102
{ACAD_REACTORS
330
7
102
}
330
7
100
AcDbDictionary
281
     2
  3
#COMPAREDIFFTOTAL
350
37
  3
#REVCLOUDAPPROXARCLEN
350
38
  3
CANNOSCALE
350
39
  3
CMLEADERSTYLE
350
3A
  3
CTABLESTYLE
350
3B
  3
CVIEWDETAILSTYLE
350
3C
  3
CVIEWSECTIONSTYLE
350
3D
  3
DGNFRAME
350
3E
  3
DIMADEC
350
3F
  3
DIMASSOC
350
40
  3
DIMLAYER
350
41
  3
DWFFRAME
350
42
  3
HIDETEXT
350
43
  3
HPCOLOR
350
44
  3
HPTRANSPARENCY
350
45
  3
INDEXCTL
350
46
  3
LAYEREVAL
350
47
  3
LAYERNOTIFY
350
48
  3
LIGHTINGUNITS
350
49
  3
MLEADERSCALE
350
4A
  3
MSLTSCALE
350
4B
  3
MSOLESCALE
350
4C
  3
OLEFRAME
350
4D
  3
PDFFRAME
350
4E
  3
POINTCLOUDCLIPFRAME
350
4F
  3
PROJECTNAME
350
50
  3
SOLIDHIST
350
51
  3
SORTENTS
350
52
  3
VSAZEBRACOLOR1
350
53
  0
DICTIONARY
  5
17
102
{ACAD_REACTORS
330
16
102
}
330
16
100
AcDbDictionary
281
     1
  0
LAYOUT
  5
13
102
{ACAD_REACTORS
330
E
102
}
330
E
100
AcDbPlotSettings
  1

  2
ZWCAD Virtual Eps Plotter 1.0#:4
  4

  6

 40
0.0
 41
0.0
 42
0.0
 43
0.0
 44
0.0
 45
0.0
 46
0.0
 47
0.0
 48
0.0
 49
0.0
140
0.0
141
0.0
142
1.0
143
1.0
 70
   688
 72
     0
 73
     0
 74
     5
  7

 75
    16
 76
     0
 77
     2
 78
   300
147
1.0
148
0.0
149
0.0
100
AcDbLayout
  1
Layout1
 70
     1
 71
     1
 10
0.0
 20
0.0
 11
12.0
 21
9.0
 12
0.0
 22
0.0
 32
0.0
 14
0.0
 24
0.0
 34
0.0
 15
0.0
 25
0.0
 35
0.0
146
0.0
 13
0.0
 23
0.0
 33
0.0
 16
1.0
 26
0.0
 36
0.0
 17
0.0
 27
1.0
 37
0.0
 76
     0
330
10
  0
LAYOUT
  5
D
102
{ACAD_REACTORS
330
E
102
}
330
E
100
AcDbPlotSettings
  1

  2
none_device
  4
none_user_media
  6

 40
6.349999904632567
 41
6.349999904632567
 42
6.350006103515625
 43
6.350006103515625
 44
215.8999938964844
 45
279.3999938964844
 46
0.0
 47
93.24890429069769
 48
0.0
 49
0.0
140
0.0
141
0.0
142
1.0
143
5.333922030356134
 70
 11445
 72
     1
 73
     0
 74
     0
  7

 75
     0
 76
     0
 77
     2
 78
   300
147
0.1874793059045207
148
84.95211750282676
149
-33.53116226043312
100
AcDbLayout
  1
Model
 70
     1
 71
     0
 10
0.0
 20
0.0
 11
420.0
 21
297.0
 12
0.0
 22
0.0
 32
0.0
 14
1.000000000000000E+20
 24
1.000000000000000E+20
 34
1.000000000000000E+20
 15
-1.000000000000000E+20
 25
-1.000000000000000E+20
 35
-1.000000000000000E+20
146
0.0
 13
0.0
 23
0.0
 33
0.0
 16
1.0
 26
0.0
 36
0.0
 17
0.0
 27
1.0
 37
0.0
 76
     0
330
2
1001
ACAD_PSEXT
1000
None
1000
None
1000
Not applicable
1000
Select a new plotter configuration name to plot the layout.
1070
     0
  0
MATERIAL
  5
31
102
{ACAD_REACTORS
330
9
102
}
330
9
100
AcDbMaterial
  1
ByBlock
 72
     0
 73
     2
 77
     0
 78
     2
171
     0
172
     2
175
     0
176
     2
179
     0
270
     2
274
     2
 94
      127
  0
MATERIAL
  5
30
102
{ACAD_REACTORS
330
9
102
}
330
9
100
AcDbMaterial
  1
ByLayer
 72
     0
 73
     2
 77
     0
 78
     2
171
     0
172
     2
175
     0
176
     2
179
     0
270
     2
274
     2
 94
      127
  0
MATERIAL
  5
8
102
{ACAD_REACTORS
330
9
102
}
330
9
100
AcDbMaterial
  1
Global
 72
     0
 73
     2
 77
     0
 78
     2
171
     0
172
     2
175
     0
176
     2
179
     0
270
     2
274
     2
 94
      127
  0
MLINESTYLE
  5
54
102
{ACAD_REACTORS
330
2E
102
}
330
2E
100
AcDbMlineStyle
  2
STANDARD
 70
     0
  3

 62
   256
 51
90.0
 52
90.0
 71
     2
 49
0.5
 62
   256
  6
BYLAYER
 49
-0.5
 62
   256
  6
BYLAYER
  0
ACDBPLACEHOLDER
  5
5
102
{ACAD_REACTORS
330
6
102
}
330
6
  0
SCALE
  5
56
102
{ACAD_REACTORS
330
33
102
}
330
33
100
AcDbScale
 70
     0
300
1:1
140
1.0
141
1.0
290
     1
  0
SCALE
  5
57
102
{ACAD_REACTORS
330
33
102
}
330
33
100
AcDbScale
 70
     0
300
1:2
140
1.0
141
2.0
290
     0
  0
SCALE
  5
58
102
{ACAD_REACTORS
330
33
102
}
330
33
100
AcDbScale
 70
     0
300
1:4
140
1.0
141
4.0
290
     0
  0
SCALE
  5
59
102
{ACAD_REACTORS
330
33
102
}
330
33
100
AcDbScale
 70
     0
300
1:5
140
1.0
141
5.0
290
     0
  0
SCALE
  5
5A
102
{ACAD_REACTORS
330
33
102
}
330
33
100
AcDbScale
 70
     0
300
1:8
140
1.0
141
8.0
290
     0
  0
SCALE
  5
5B
102
{ACAD_REACTORS
330
33
102
}
330
33
100
AcDbScale
 70
     0
300
1:10
140
1.0
141
10.0
290
     0
  0
SCALE
  5
5C
102
{ACAD_REACTORS
330
33
102
}
330
33
100
AcDbScale
 70
     0
300
1:16
140
1.0
141
16.0
290
     0
  0
SCALE
  5
5D
102
{ACAD_REACTORS
330
33
102
}
330
33
100
AcDbScale
 70
     0
300
1:20
140
1.0
141
20.0
290
     0
  0
SCALE
  5
5E
102
{ACAD_REACTORS
330
33
102
}
330
33
100
AcDbScale
 70
     0
300
1:30
140
1.0
141
30.0
290
     0
  0
SCALE
  5
5F
102
{ACAD_REACTORS
330
33
102
}
330
33
100
AcDbScale
 70
     0
300
1:40
140
1.0
141
40.0
290
     0
  0
SCALE
  5
60
102
{ACAD_REACTORS
330
33
102
}
330
33
100
AcDbScale
 70
     0
300
1:50
140
1.0
141
50.0
290
     0
  0
SCALE
  5
61
102
{ACAD_REACTORS
330
33
102
}
330
33
100
AcDbScale
 70
     0
300
1:100
140
1.0
141
100.0
290
     0
  0
SCALE
  5
62
102
{ACAD_REACTORS
330
33
102
}
330
33
100
AcDbScale
 70
     0
300
2:1
140
2.0
141
1.0
290
     0
  0
SCALE
  5
63
102
{ACAD_REACTORS
330
33
102
}
330
33
100
AcDbScale
 70
     0
300
4:1
140
4.0
141
1.0
290
     0
  0
SCALE
  5
64
102
{ACAD_REACTORS
330
33
102
}
330
33
100
AcDbScale
 70
     0
300
8:1
140
8.0
141
1.0
290
     0
  0
SCALE
  5
65
102
{ACAD_REACTORS
330
33
102
}
330
33
100
AcDbScale
 70
     0
300
10:1
140
10.0
141
1.0
290
     0
  0
SCALE
  5
66
102
{ACAD_REACTORS
330
33
102
}
330
33
100
AcDbScale
 70
     0
300
100:1
140
100.0
141
1.0
290
     0
  0
TABLESTYLE
  5
55
102
{ACAD_XDICTIONARY
360
7B
102
}
102
{ACAD_REACTORS
330
34
102
}
330
34
100
AcDbTableStyle
  3
Standard
 70
     0
 71
     0
 40
1.5
 41
1.5
280
     0
281
     0
  7
Standard
140
4.5
170
     2
 62
     0
 63
     7
283
     0
 90
      512
 91
        0
  1

274
    -2
284
     1
 64
     0
275
    -2
285
     1
 65
     0
276
    -2
286
     1
 66
     0
277
    -2
287
     1
 67
     0
278
    -2
288
     1
 68
     0
279
    -2
289
     1
 69
     0
  7
Standard
140
6.0
170
     5
 62
     0
 63
     7
283
     0
 90
      512
 91
        0
  1

274
    -2
284
     1
 64
     0
275
    -2
285
     1
 65
     0
276
    -2
286
     1
 66
     0
277
    -2
287
     1
 67
     0
278
    -2
288
     1
 68
     0
279
    -2
289
     1
 69
     0
  7
Standard
140
4.5
170
     5
 62
     0
 63
     7
283
     0
 90
      512
 91
        0
  1

274
    -2
284
     1
 64
     0
275
    -2
285
     1
 65
     0
276
    -2
286
     1
 66
     0
277
    -2
287
     1
 67
     0
278
    -2
288
     1
 68
     0
279
    -2
289
     1
 69
     0
1001
ACAD
1000
AcRTDxfName
1000
TABLESTYLE
  0
VISUALSTYLE
  5
1F
102
{ACAD_XDICTIONARY
360
7D
102
}
102
{ACAD_REACTORS
330
20
102
}
330
20
100
AcDbVisualStyle
  2
2dWireframe
 70
     4
 71
     0
 72
     2
 73
     0
 90
        0
 40
0.6
 41
30.0
 62
     5
 63
     7
421
 16777215
 74
     1
 91
        4
 64
     7
 65
   257
 75
     1
175
     1
 42
1.0
 92
        0
 66
   257
 43
1.0
 76
     1
 77
     6
 78
     2
 67
     7
 79
     5
170
     0
171
     0
290
     0
174
     2
 93
        1
 44
0.0
173
     0
291
     0
 45
0.0
  0
DICTIONARYVAR
  5
37
102
{ACAD_REACTORS
330
36
102
}
330
36
100
DictionaryVariables
280
     0
  1
1
  0
DICTIONARYVAR
  5
38
102
{ACAD_REACTORS
330
36
102
}
330
36
100
DictionaryVariables
280
     0
  1
200.000000
  0
DICTIONARYVAR
  5
39
102
{ACAD_REACTORS
330
36
102
}
330
36
100
DictionaryVariables
280
     0
  1
1:1
  0
DICTIONARYVAR
  5
3A
102
{ACAD_REACTORS
330
36
102
}
330
36
100
DictionaryVariables
280
     0
  1
STANDARD
  0
DICTIONARYVAR
  5
3B
102
{ACAD_REACTORS
330
36
102
}
330
36
100
DictionaryVariables
280
     0
  1
STANDARD
  0
DICTIONARYVAR
  5
3C
102
{ACAD_REACTORS
330
36
102
}
330
36
100
DictionaryVariables
280
     0
  1
Imperial24
  0
DICTIONARYVAR
  5
3D
102
{ACAD_REACTORS
330
36
102
}
330
36
100
DictionaryVariables
280
     0
  1
Imperial24
  0
DICTIONARYVAR
  5
3E
102
{ACAD_REACTORS
330
36
102
}
330
36
100
DictionaryVariables
280
     0
  1
1
  0
DICTIONARYVAR
  5
3F
102
{ACAD_REACTORS
330
36
102
}
330
36
100
DictionaryVariables
280
     0
  1
-1
  0
DICTIONARYVAR
  5
40
102
{ACAD_REACTORS
330
36
102
}
330
36
100
DictionaryVariables
280
     0
  1
2
  0
DICTIONARYVAR
  5
41
102
{ACAD_REACTORS
330
36
102
}
330
36
100
DictionaryVariables
280
     0
  1
S-DIM
  0
DICTIONARYVAR
  5
42
102
{ACAD_REACTORS
330
36
102
}
330
36
100
DictionaryVariables
280
     0
  1
1
  0
DICTIONARYVAR
  5
43
102
{ACAD_REACTORS
330
36
102
}
330
36
100
DictionaryVariables
280
     0
  1
1
  0
DICTIONARYVAR
  5
44
102
{ACAD_REACTORS
330
36
102
}
330
36
100
DictionaryVariables
280
     0
  1
RGB:201,199,197
  0
DICTIONARYVAR
  5
45
102
{ACAD_REACTORS
330
36
102
}
330
36
100
DictionaryVariables
280
     0
  1
.
  0
DICTIONARYVAR
  5
46
102
{ACAD_REACTORS
330
36
102
}
330
36
100
DictionaryVariables
280
     0
  1
0
  0
DICTIONARYVAR
  5
47
102
{ACAD_REACTORS
330
36
102
}
330
36
100
DictionaryVariables
280
     0
  1
0
  0
DICTIONARYVAR
  5
48
102
{ACAD_REACTORS
330
36
102
}
330
36
100
DictionaryVariables
280
     0
  1
0
  0
DICTIONARYVAR
  5
49
102
{ACAD_REACTORS
330
36
102
}
330
36
100
DictionaryVariables
280
     0
  1
2
  0
DICTIONARYVAR
  5
4A
102
{ACAD_REACTORS
330
36
102
}
330
36
100
DictionaryVariables
280
     0
  1
1.000000
  0
DICTIONARYVAR
  5
4B
102
{ACAD_REACTORS
330
36
102
}
330
36
100
DictionaryVariables
280
     0
  1
1
  0
DICTIONARYVAR
  5
4C
102
{ACAD_REACTORS
330
36
102
}
330
36
100
DictionaryVariables
280
     0
  1
1.000000
  0
DICTIONARYVAR
  5
4D
102
{ACAD_REACTORS
330
36
102
}
330
36
100
DictionaryVariables
280
     0
  1
2
  0
DICTIONARYVAR
  5
4E
102
{ACAD_REACTORS
330
36
102
}
330
36
100
DictionaryVariables
280
     0
  1
1
  0
DICTIONARYVAR
  5
4F
102
{ACAD_REACTORS
330
36
102
}
330
36
100
DictionaryVariables
280
     0
  1
0
  0
DICTIONARYVAR
  5
50
102
{ACAD_REACTORS
330
36
102
}
330
36
100
DictionaryVariables
280
     0
  1

  0
DICTIONARYVAR
  5
51
102
{ACAD_REACTORS
330
36
102
}
330
36
100
DictionaryVariables
280
     0
  1
0
  0
DICTIONARYVAR
  5
52
102
{ACAD_REACTORS
330
36
102
}
330
36
100
DictionaryVariables
280
     0
  1
127
  0
DICTIONARYVAR
  5
53
102
{ACAD_REACTORS
330
36
102
}
330
36
100
DictionaryVariables
280
     0
  1
7
  0
DICTIONARY
  5
7B
330
55
100
AcDbDictionary
280
     1
281
     1
  3
ACAD_ROUNDTRIP_2008_TABLESTYLE_CELLSTYLEMAP
360
7C
  0
DICTIONARY
  5
7D
330
1F
100
AcDbDictionary
280
     1
281
     1
  3
ACAD_XREC_ROUNDTRIP
360
7E
  0
CELLSTYLEMAP
  5
7C
102
{ACAD_REACTORS
330
7B
102
}
330
7B
100
AcDbCellStyleMap
 90
        3
300
CELLSTYLE
  1
TABLEFORMAT_BEGIN
 90
        5
170
     1
 91
        0
 92
    32768
 62
   257
 93
        1
300
CONTENTFORMAT
  1
CONTENTFORMAT_BEGIN
 90
        0
 91
        0
 92
      512
 93
        0
300

 40
0.0
140
1.0
 94
        5
 62
     0
340
26
144
6.0
309
CONTENTFORMAT_END
171
     1
301
MARGIN
  1
CELLMARGIN_BEGIN
 40
1.5
 40
1.5
 40
0.06
 40
0.06
 40
0.18
 40
0.18
309
CELLMARGIN_END
 94
        6
 95
        1
302
GRIDFORMAT
  1
GRIDFORMAT_BEGIN
 90
        0
 91
        1
 62
     0
 92
       -2
340
0
 93
        0
 40
0.045
309
GRIDFORMAT_END
 95
        2
302
GRIDFORMAT
  1
GRIDFORMAT_BEGIN
 90
        0
 91
        1
 62
     0
 92
       -2
340
0
 93
        0
 40
0.045
309
GRIDFORMAT_END
 95
        4
302
GRIDFORMAT
  1
GRIDFORMAT_BEGIN
 90
        0
 91
        1
 62
     0
 92
       -2
340
0
 93
        0
 40
0.045
309
GRIDFORMAT_END
 95
        8
302
GRIDFORMAT
  1
GRIDFORMAT_BEGIN
 90
        0
 91
        1
 62
     0
 92
       -2
340
0
 93
        0
 40
0.045
309
GRIDFORMAT_END
 95
       16
302
GRIDFORMAT
  1
GRIDFORMAT_BEGIN
 90
        0
 91
        1
 62
     0
 92
       -2
340
0
 93
        0
 40
0.045
309
GRIDFORMAT_END
 95
       32
302
GRIDFORMAT
  1
GRIDFORMAT_BEGIN
 90
        0
 91
        1
 62
     0
 92
       -2
340
0
 93
        0
 40
0.045
309
GRIDFORMAT_END
309
TABLEFORMAT_END
  1
CELLSTYLE_BEGIN
 90
        1
 91
        1
300
_TITLE
309
CELLSTYLE_END
300
CELLSTYLE
  1
TABLEFORMAT_BEGIN
 90
        5
170
     1
 91
        0
 92
        0
 62
   257
 93
        1
300
CONTENTFORMAT
  1
CONTENTFORMAT_BEGIN
 90
        0
 91
        0
 92
      512
 93
        0
300

 40
0.0
140
1.0
 94
        5
 62
     0
340
26
144
4.5
309
CONTENTFORMAT_END
171
     1
301
MARGIN
  1
CELLMARGIN_BEGIN
 40
1.5
 40
1.5
 40
0.06
 40
0.06
 40
0.18
 40
0.18
309
CELLMARGIN_END
 94
        6
 95
        1
302
GRIDFORMAT
  1
GRIDFORMAT_BEGIN
 90
        0
 91
        1
 62
     0
 92
       -2
340
0
 93
        0
 40
0.045
309
GRIDFORMAT_END
 95
        2
302
GRIDFORMAT
  1
GRIDFORMAT_BEGIN
 90
        0
 91
        1
 62
     0
 92
       -2
340
0
 93
        0
 40
0.045
309
GRIDFORMAT_END
 95
        4
302
GRIDFORMAT
  1
GRIDFORMAT_BEGIN
 90
        0
 91
        1
 62
     0
 92
       -2
340
0
 93
        0
 40
0.045
309
GRIDFORMAT_END
 95
        8
302
GRIDFORMAT
  1
GRIDFORMAT_BEGIN
 90
        0
 91
        1
 62
     0
 92
       -2
340
0
 93
        0
 40
0.045
309
GRIDFORMAT_END
 95
       16
302
GRIDFORMAT
  1
GRIDFORMAT_BEGIN
 90
        0
 91
        1
 62
     0
 92
       -2
340
0
 93
        0
 40
0.045
309
GRIDFORMAT_END
 95
       32
302
GRIDFORMAT
  1
GRIDFORMAT_BEGIN
 90
        0
 91
        1
 62
     0
 92
       -2
340
0
 93
        0
 40
0.045
309
GRIDFORMAT_END
309
TABLEFORMAT_END
  1
CELLSTYLE_BEGIN
 90
        2
 91
        1
300
_HEADER
309
CELLSTYLE_END
300
CELLSTYLE
  1
TABLEFORMAT_BEGIN
 90
        5
170
     1
 91
        0
 92
        0
 62
   257
 93
        1
300
CONTENTFORMAT
  1
CONTENTFORMAT_BEGIN
 90
        0
 91
        0
 92
      512
 93
        0
300

 40
0.0
140
1.0
 94
        2
 62
     0
340
26
144
4.5
309
CONTENTFORMAT_END
171
     1
301
MARGIN
  1
CELLMARGIN_BEGIN
 40
1.5
 40
1.5
 40
0.06
 40
0.06
 40
0.18
 40
0.18
309
CELLMARGIN_END
 94
        6
 95
        1
302
GRIDFORMAT
  1
GRIDFORMAT_BEGIN
 90
        0
 91
        1
 62
     0
 92
       -2
340
0
 93
        0
 40
0.045
309
GRIDFORMAT_END
 95
        2
302
GRIDFORMAT
  1
GRIDFORMAT_BEGIN
 90
        0
 91
        1
 62
     0
 92
       -2
340
0
 93
        0
 40
0.045
309
GRIDFORMAT_END
 95
        4
302
GRIDFORMAT
  1
GRIDFORMAT_BEGIN
 90
        0
 91
        1
 62
     0
 92
       -2
340
0
 93
        0
 40
0.045
309
GRIDFORMAT_END
 95
        8
302
GRIDFORMAT
  1
GRIDFORMAT_BEGIN
 90
        0
 91
        1
 62
     0
 92
       -2
340
0
 93
        0
 40
0.045
309
GRIDFORMAT_END
 95
       16
302
GRIDFORMAT
  1
GRIDFORMAT_BEGIN
 90
        0
 91
        1
 62
     0
 92
       -2
340
0
 93
        0
 40
0.045
309
GRIDFORMAT_END
 95
       32
302
GRIDFORMAT
  1
GRIDFORMAT_BEGIN
 90
        0
 91
        1
 62
     0
 92
       -2
340
0
 93
        0
 40
0.045
309
GRIDFORMAT_END
309
TABLEFORMAT_END
  1
CELLSTYLE_BEGIN
 90
        3
 91
        2
300
_DATA
309
CELLSTYLE_END
  0
XRECORD
  5
7E
102
{ACAD_REACTORS
330
7D
102
}
330
7D
100
AcDbXrecord
280
     1
102
RTVSPropertyOp0
 70
     1
102
RTVSPropertyOp1
 70
     1
102
RTVSPropertyOp2
 70
     1
102
RTVSPropertyOp3
 70
     1
102
RTVSPropertyOp4
 70
     1
102
RTVSPropertyOp5
 70
     1
102
RTVSPropertyOp6
 70
     1
102
RTVSPropertyOp7
 70
     1
102
RTVSPropertyOp8
 70
     1
102
RTVSPropertyOp9
 70
     1
102
RTVSPropertyOp10
 70
     1
102
RTVSPropertyOp11
 70
     1
102
RTVSPropertyOp12
 70
     1
102
RTVSPropertyOp13
 70
     1
102
RTVSPropertyOp14
 70
     1
102
RTVSPropertyOp15
 70
     1
102
RTVSPropertyOp16
 70
     1
102
RTVSPropertyOp17
 70
     1
102
RTVSPropertyOp18
 70
     1
102
RTVSPropertyOp19
 70
     1
102
RTVSPropertyOp20
 70
     1
102
RTVSPropertyOp21
 70
     1
102
RTVSPropertyOp22
 70
     1
102
RTVSPropertyOp23
 70
     1
102
RTVSPropertyOp24
 70
     1
102
RTVSPropertyOp25
 70
     1
102
RTVSPropertyOp26
 70
     1
102
RTVSPropertyOp27
 70
     1
102
RTVSPropertyOp28
 70
     1
102
RTVSPropertyOp29
 70
     1
102
RTVSPropertyOp30
 70
     1
102
RTVSPropertyOp31
 70
     1
102
RTVSPropertyOp32
 70
     1
102
RTVSPropertyOp33
 70
     1
102
RTVSPropertyOp34
 70
     1
102
RTVSPropertyOp35
 70
     1
102
RTVSPropertyOp36
 70
     1
102
RTVSPropertyOp37
 70
     1
102
RTVSPropertyOp38
 70
     1
102
RTVSPropertyOp39
 70
     1
102
RTVSPropertyOp40
 70
     1
102
RTVSPropertyOp41
 70
     1
102
RTVSPropertyOp42
 70
     1
102
RTVSPropertyOp43
 70
     1
102
RTVSPropertyOp44
 70
     1
102
RTVSPropertyOp45
 70
     1
102
RTVSPropertyOp46
 70
     1
102
RTVSPropertyOp47
 70
     1
102
RTVSPropertyOp48
 70
     1
102
RTVSPropertyOp49
 70
     1
102
RTVSPropertyOp50
 70
     1
102
RTVSPropertyOp51
 70
     0
102
RTVSPropertyOp52
 70
     0
102
RTVSPropertyOp53
 70
     1
102
RTVSPropertyOp54
 70
     1
102
RTVSPropertyOp55
 70
     1
102
RTVSPropertyOp56
 70
     1
102
RTVSPropertyOp57
 70
     1
102
RTVSPost2010Prop28
280
     1
102
RTVSPost2010PropOp28
 70
     1
102
RTVSPost2010Prop29
280
     1
102
RTVSPost2010PropOp29
 70
     1
102
RTVSPost2010Prop30
280
     0
102
RTVSPost2010PropOp30
 70
     1
102
RTVSPost2010Prop31
280
     0
102
RTVSPost2010PropOp31
 70
     1
102
RTVSPost2010Prop32
280
     0
102
RTVSPost2010PropOp32
 70
     1
102
RTVSPost2010Prop33
280
     0
102
RTVSPost2010PropOp33
 70
     1
102
RTVSPost2010Prop34
280
     0
102
RTVSPost2010PropOp34
 70
     1
102
RTVSPost2010Prop35
280
     0
102
RTVSPost2010PropOp35
 70
     1
102
RTVSPost2010Prop36
280
     0
102
RTVSPost2010PropOp36
 70
     1
102
RTVSPost2010Prop37
 90
       50
102
RTVSPost2010PropOp37
 70
     1
102
RTVSPost2010Prop38
140
0.0
102
RTVSPost2010PropOp38
 70
     1
102
RTVSPost2010Prop39
140
1.0
102
RTVSPost2010PropOp39
 70
     1
102
RTVSPost2010Prop40
 90
        0
102
RTVSPost2010PropOp40
 70
     1
102
RTVSPost2010Prop41ColorIndex
 90
       18
102
RTVSPost2010Prop41ColorRGB
 90
        0
102
RTVSPost2010PropOp41
 70
     1
102
RTVSPost2010Prop42
 90
       50
102
RTVSPost2010PropOp42
 70
     1
102
RTVSPost2010Prop43
 90
        3
102
RTVSPost2010PropOp43
 70
     1
102
RTVSPost2010Prop44ColorIndex
 90
        5
102
RTVSPost2010Prop44ColorRGB
 90
      255
102
RTVSPost2010PropOp44
 70
     1
102
RTVSPost2010Prop45
280
     0
102
RTVSPost2010PropOp45
 70
     1
102
RTVSPost2010Prop46
 90
       50
102
RTVSPost2010PropOp46
 70
     1
102
RTVSPost2010Prop47
 90
       50
102
RTVSPost2010PropOp47
 70
     1
102
RTVSPost2010Prop48
 90
       50
102
RTVSPost2010PropOp48
 70
     1
102
RTVSPost2010Prop49
280
     0
102
RTVSPost2010PropOp49
 70
     1
102
RTVSPost2010Prop50
 90
       50
102
RTVSPost2010PropOp50
 70
     1
102
RTVSPost2010Prop51ColorIndex
 90
      256
102
RTVSPost2010Prop51ColorRGB
 90
-16777216
102
RTVSPost2010PropOp51
 70
     0
102
RTVSPost2010Prop52
140
1.0
102
RTVSPost2010PropOp52
 70
     0
102
RTVSPost2010Prop53
 90
        0
102
RTVSPost2010PropOp53
 70
     1
102
RTVSPost2010Prop54
  1
strokes_ogs.tif
102
RTVSPost2010PropOp54
 70
     1
102
RTVSPost2010Prop55
280
     0
102
RTVSPost2010PropOp55
 70
     1
102
RTVSPost2010Prop56
140
1.0
102
RTVSPost2010PropOp56
 70
     1
102
RTVSPost2010Prop57
140
1.0
102
RTVSPost2010PropOp57
 70
     1
  0
ENDSEC
  0
EOF
