<?xml version="1.0" encoding="UTF-8"?>
<svg xmlns="http://www.w3.org/2000/svg" width="800.000" height="600.000" viewBox="0.0 0.0 800.000 600.000" version="1.1">
  <title>Produce by Acme CAD Converter</title>
  <desc>Produce by Acme CAD Converter</desc>
<path d="M436.21 1.7L363.79 1.7M363.79 1.7L363.79 598.3M363.79 598.3L436.21 598.3M436.21 598.3L436.21 1.7"
fill="none" stroke="black" stroke-width="0.5"/>
<path d="M434.49 3.42L365.51 3.42M365.51 3.42L365.51 596.58M365.51 596.58L434.49 596.58M434.49 596.58L434.49 3.42"
fill="none" stroke="black" stroke-width="0.5"/>
<path d="M389.14 569.33L389.14 570.5M389.14 570.5L389.14 571.66M389.14 571.66L389.14 571.71M389.14 571.71L389.14 571.77M389.14 571.77L389.14 571.79M389.14 571.79L389.14 571.82M389.14 571.82L389.14 571.84M389.14 571.84L389.14 571.87M389.14 571.87L389.14 571.87M389.14 571.87L389.14 571.92M389.14 571.92L389.14 571.92M389.14 571.92L389.14 571.97M389.14 571.97L389.14 571.97M389.14 571.97L389.14 572.03M389.14 572.03L389.14 572.03M389.14 572.03L389.2 572.28M389.2 572.28L389.2 572.28M389.2 572.28L389.39 572.59M389.39 572.59L389.39 572.59M389.39 572.59L389.67 572.83M389.67 572.83L389.67 572.83M389.67 572.83L390.01 572.94M390.01 572.94L390.01 572.94M390.01 572.94L390.07 572.95M390.07 572.95L390.07 572.95M390.07 572.95L390.12 572.95M390.12 572.95L390.12 572.95M390.12 572.95L390.17 572.96M390.17 572.96L390.17 572.96M390.17 572.96L390.36 572.96M390.36 572.96L390.36 572.96M390.36 572.96L390.56 572.96M390.56 572.96L390.65 572.96M390.65 572.96L390.75 572.96M390.75 572.96L390.86 572.96M390.86 572.96L390.86 572.96M390.86 572.96L390.98 572.96M390.98 572.96L391.21 572.96M391.21 572.96L391.32 572.96M391.32 572.96L391.32 572.96M391.32 572.96L391.44 572.95M391.44 572.95L391.67 572.95M391.67 572.95L392.12 572.95M392.12 572.95L392.35 572.95M392.35 572.95L392.47 572.95M392.47 572.95L392.47 572.95M392.47 572.95L392.58 572.95M392.58 572.95L393.5 572.96M393.5 572.96L393.73 572.96M393.73 572.96L393.78 572.96M393.78 572.96L393.78 572.96M393.78 572.96L393.84 572.96M393.84 572.96L393.95 572.96M393.95 572.96L394.41 572.96M394.41 572.96L394.76 572.96M394.76 572.96L394.85 572.96M394.85 572.96L394.85 572.96M394.85 572.96L394.94 572.96M394.94 572.96L395.11 572.96M395.11 572.96L395.81 572.96M395.81 572.96L396.51 572.96M396.51 572.96L396.86 572.96M396.86 572.96L397.03 572.96M397.03 572.96L397.12 572.96M397.12 572.96L397.12 572.96M397.12 572.96L397.21 572.96M397.21 572.96L398.6 572.96M398.6 572.96L398.6 572.96M398.6 572.96L398.78 572.96M398.78 572.96L398.95 572.96M398.95 572.96L399.3 572.96M399.3 572.96L400 572.96M400 572.96L403.45 572.96M403.45 572.96L404.34 572.96M404.34 572.96L408.67 572.96M408.67 572.96L408.86 572.96M408.86 572.96L409.06 572.96M409.06 572.96L409.15 572.96M409.15 572.96L409.25 572.96M409.25 572.96L409.35 572.96M409.35 572.96L409.44 572.96M409.44 572.96L409.54 572.96M409.54 572.96L409.54 572.96M409.54 572.96L409.64 572.96M409.64 572.96L409.64 572.96M409.64 572.96L409.83 572.96M409.83 572.96L409.83 572.96M409.83 572.96L409.88 572.95M409.88 572.95L409.88 572.95M409.88 572.95L409.93 572.95M409.93 572.95L409.93 572.95M409.93 572.95L410.14 572.91M410.14 572.91L410.14 572.91M410.14 572.91L410.46 572.74M410.46 572.74L410.46 572.74M410.46 572.74L410.71 572.47M410.71 572.47L410.71 572.47M410.71 572.47L410.83 572.18M410.83 572.18L410.83 572.18M410.83 572.18L410.86 572.03M410.86 572.03L410.86 572.03M410.86 572.03L410.86 571.97M410.86 571.97L410.86 571.97M410.86 571.97L410.86 571.92M410.86 571.92L410.86 571.92M410.86 571.92L410.86 571.87M410.86 571.87L410.86 571.84M410.86 571.84L410.86 571.82M410.86 571.82L410.86 571.66M410.86 571.66L410.86 571.51M410.86 571.51L410.86 571.2M410.86 571.2L410.86 570.89M410.86 570.89L410.86 570.58M410.86 570.58L410.86 569.95M410.86 569.95L410.86 569.64M410.86 569.64L410.86 569.33M410.86 569.33L410.86 555.54M410.86 555.54L410.86 554.38M410.86 554.38L410.86 553.21M410.86 553.21L410.86 553.16M410.86 553.16L410.86 553.11M410.86 553.11L410.86 553.08M410.86 553.08L410.86 553.06M410.86 553.06L410.86 553.03M410.86 553.03L410.86 553.01M410.86 553.01L410.86 553.01M410.86 553.01L410.86 552.95M410.86 552.95L410.86 552.95M410.86 552.95L410.86 552.9M410.86 552.9L410.86 552.9M410.86 552.9L410.86 552.85M410.86 552.85L410.86 552.85M410.86 552.85L410.8 552.59M410.8 552.59L410.8 552.59M410.8 552.59L410.61 552.28M410.61 552.28L410.61 552.28M410.61 552.28L410.33 552.05M410.33 552.05L410.33 552.05M410.33 552.05L409.99 551.93M409.99 551.93L409.99 551.93M409.99 551.93L409.93 551.92M409.93 551.92L409.93 551.92M409.93 551.92L409.88 551.92M409.88 551.92L409.88 551.92M409.88 551.92L409.83 551.92M409.83 551.92L409.83 551.92M409.83 551.92L409.64 551.92M409.64 551.92L409.64 551.92M409.64 551.92L409.54 551.92M409.54 551.92L409.44 551.92M409.44 551.92L409.35 551.92M409.35 551.92L409.25 551.92M409.25 551.92L409.14 551.92M409.14 551.92L409.14 551.92M409.14 551.92L409.02 551.92M409.02 551.92L408.79 551.92M408.79 551.92L408.68 551.92M408.68 551.92L408.68 551.92M408.68 551.92L408.56 551.92M408.56 551.92L408.33 551.92M408.33 551.92L407.88 551.92M407.88 551.92L407.76 551.92M407.76 551.92L407.76 551.92M407.76 551.92L407.65 551.92M407.65 551.92L407.42 551.92M407.42 551.92L406.96 551.92M406.96 551.92L406.85 551.92M406.85 551.92L406.85 551.92M406.85 551.92L406.73 551.92M406.73 551.92L406.5 551.92M406.5 551.92L406.39 551.92M406.39 551.92L406.39 551.92M406.39 551.92L406.27 551.92M406.27 551.92L406.05 551.92M406.05 551.92L405.93 551.92M405.93 551.92L405.93 551.92M405.93 551.92L405.82 551.92M405.82 551.92L405.59 551.92M405.59 551.92L405.24 551.92M405.24 551.92L405.15 551.92M405.15 551.92L405.15 551.92M405.15 551.92L405.06 551.92M405.06 551.92L404.89 551.92M404.89 551.92L404.19 551.92M404.19 551.92L403.84 551.92M403.84 551.92L403.75 551.92M403.75 551.92L403.75 551.92M403.75 551.92L403.67 551.92M403.67 551.92L403.49 551.92M403.49 551.92L402.79 551.92M402.79 551.92L404.84 551.92M404.84 551.92L404.84 551.92M404.84 551.92L404.67 551.92M404.67 551.92L404.5 551.92M404.5 551.92L404.15 551.92M404.15 551.92L403.45 551.92M403.45 551.92L400 551.92M400 551.92L395.66 551.92M395.66 551.92L391.33 551.92M391.33 551.92L391.14 551.92M391.14 551.92L390.94 551.92M390.94 551.92L390.85 551.92M390.85 551.92L390.75 551.92M390.75 551.92L390.65 551.92M390.65 551.92L390.65 551.92M390.65 551.92L390.56 551.92M390.56 551.92L390.46 551.92M390.46 551.92L390.46 551.92M390.46 551.92L390.36 551.92M390.36 551.92L390.36 551.92M390.36 551.92L390.17 551.92M390.17 551.92L390.17 551.92M390.17 551.92L390.12 551.92M390.12 551.92L390.12 551.92M390.12 551.92L390.07 551.92M390.07 551.92L390.07 551.92M390.07 551.92L389.86 551.97M389.86 551.97L389.86 551.97M389.86 551.97L389.54 552.14M389.54 552.14L389.54 552.14M389.54 552.14L389.29 552.41M389.29 552.41L389.29 552.41M389.29 552.41L389.17 552.69M389.17 552.69L389.17 552.69M389.17 552.69L389.14 552.85M389.14 552.85L389.14 552.85M389.14 552.85L389.14 552.9M389.14 552.9L389.14 552.9M389.14 552.9L389.14 552.95M389.14 552.95L389.14 552.95M389.14 552.95L389.14 553.01M389.14 553.01L389.14 553.03M389.14 553.03L389.14 553.06M389.14 553.06L389.14 553.21M389.14 553.21L389.14 553.37M389.14 553.37L389.14 553.68M389.14 553.68L389.14 553.99M389.14 553.99L389.14 554.3M389.14 554.3L389.14 554.92M389.14 554.92L389.14 555.23M389.14 555.23L389.14 555.54M389.14 555.54L389.14 569.33"
fill="none" stroke="black" stroke-width="0.5"/>
<path d="M400 506.23L386.84 506.23M386.84 506.23L373.67 506.23M373.67 506.23L373.07 506.23M373.07 506.23L372.47 506.23M372.47 506.23L372.17 506.23M372.17 506.23L371.87 506.23M371.87 506.23L371.57 506.23M371.57 506.23L371.28 506.23M371.28 506.23L371.28 506.23M371.28 506.23L370.68 506.23M370.68 506.23L370.68 506.23M370.68 506.23L370.08 506.23M370.08 506.23L370.08 506.23M370.08 506.23L369.48 506.23M369.48 506.23L369.48 506.23M369.48 506.23L369.44 506.23M369.44 506.23L369.44 506.23M369.44 506.23L369.39 506.23M369.39 506.23L369.39 506.23M369.39 506.23L369.27 506.26M369.27 506.26L369.27 506.26M369.27 506.26L369.04 506.38M369.04 506.38L369.04 506.38M369.04 506.38L368.88 506.58M368.88 506.58L368.88 506.58M368.88 506.58L368.8 506.79M368.8 506.79L368.8 506.79M368.8 506.79L368.8 506.83M368.8 506.83L368.8 506.83M368.8 506.83L368.79 506.87M368.79 506.87L368.79 506.87M368.79 506.87L368.79 506.91M368.79 506.91L368.79 506.91M368.79 506.91L368.79 507.32M368.79 507.32L368.79 507.32M368.79 507.32L368.79 507.73M368.79 507.73L368.79 507.83M368.79 507.83L368.79 507.93M368.79 507.93L368.79 508.13M368.79 508.13L368.79 508.33M368.79 508.33L368.79 508.54M368.79 508.54L368.79 509.55M368.79 509.55L368.79 510.57M368.79 510.57L368.79 512.59M368.79 512.59L368.79 514.62M368.79 514.62L368.79 516.65M368.79 516.65L368.79 520.71M368.79 520.71L368.79 522.74M368.79 522.74L368.79 524.77M368.79 524.77L368.79 525.17M368.79 525.17L368.79 525.58M368.79 525.58L368.79 525.78M368.79 525.78L368.79 525.98M368.79 525.98L368.79 526.19M368.79 526.19L368.79 526.39M368.79 526.39L368.79 526.59M368.79 526.59L368.79 526.69M368.79 526.69L368.79 526.79M368.79 526.79L368.79 526.79M368.79 526.79L368.79 527.2M368.79 527.2L368.79 527.2M368.79 527.2L368.79 527.61M368.79 527.61L368.79 527.61M368.79 527.61L368.79 527.65M368.79 527.65L368.79 527.65M368.79 527.65L368.8 527.69M368.8 527.69L368.8 527.69M368.8 527.69L368.82 527.82M368.82 527.82L368.82 527.82M368.82 527.82L368.95 528.05M368.95 528.05L368.95 528.05M368.95 528.05L369.15 528.21M369.15 528.21L369.15 528.21M369.15 528.21L369.35 528.28M369.35 528.28L369.35 528.28M369.35 528.28L369.39 528.29M369.39 528.29L369.39 528.29M369.39 528.29L369.44 528.29M369.44 528.29L369.44 528.29M369.44 528.29L369.48 528.3M369.48 528.3L369.48 528.3M369.48 528.3L370.08 528.3M370.08 528.3L370.08 528.3M370.08 528.3L370.68 528.3M370.68 528.3L370.68 528.3M370.68 528.3L370.98 528.3M370.98 528.3L371.28 528.3M371.28 528.3L371.28 528.3M371.28 528.3L371.57 528.3M371.57 528.3L371.87 528.3M371.87 528.3L372.77 528.3M372.77 528.3L373.67 528.3M373.67 528.3L374.57 528.3M374.57 528.3L374.79 528.3M374.79 528.3L374.85 528.3M374.85 528.3L374.85 528.3M374.85 528.3L374.9 528.3M374.9 528.3L375.02 528.3M375.02 528.3L375.46 528.3M375.46 528.3L375.85 528.3M375.85 528.3L375.94 528.3M375.94 528.3L375.94 528.3M375.94 528.3L376.04 528.3M376.04 528.3L376.23 528.3M376.23 528.3L377 528.3M377 528.3L377 528.3M377 528.3L378.53 528.3M378.53 528.3L378.53 528.3M378.53 528.3L381.6 528.3M381.6 528.3L381.6 528.3M381.6 528.3L381.69 528.3M381.69 528.3L381.79 528.3M381.79 528.3L381.98 528.3M381.98 528.3L382.37 528.3M382.37 528.3L383.13 528.3M383.13 528.3L384.67 528.3M384.67 528.3L385.43 528.3M385.43 528.3L385.62 528.3M385.62 528.3L385.62 528.3M385.62 528.3L385.82 528.3M385.82 528.3L386.2 528.3M386.2 528.3L387.73 528.3M387.73 528.3L389.27 528.3M389.27 528.3L389.65 528.3M389.65 528.3L389.65 528.3M389.65 528.3L389.84 528.3M389.84 528.3L390.03 528.3M390.03 528.3L390.8 528.3M390.8 528.3L392.33 528.3M392.33 528.3L392.72 528.3M392.72 528.3L392.72 528.3M392.72 528.3L392.91 528.3M392.91 528.3L393.1 528.3M393.1 528.3L393.87 528.3M393.87 528.3L395.4 528.3M395.4 528.3L395.78 528.3M395.78 528.3L395.78 528.3M395.78 528.3L395.98 528.3M395.98 528.3L396.17 528.3M396.17 528.3L396.93 528.3M396.93 528.3L400 528.3M400 528.3L403.45 528.3M403.45 528.3L413.16 528.3M413.16 528.3L419.75 528.3M419.75 528.3L426.33 528.3M426.33 528.3L426.93 528.3M426.93 528.3L427.53 528.3M427.53 528.3L427.83 528.3M427.83 528.3L428.13 528.3M428.13 528.3L428.43 528.3M428.43 528.3L428.43 528.3M428.43 528.3L428.72 528.3M428.72 528.3L429.02 528.3M429.02 528.3L429.02 528.3M429.02 528.3L429.32 528.3M429.32 528.3L429.32 528.3M429.32 528.3L429.92 528.3M429.92 528.3L429.92 528.3M429.92 528.3L430.52 528.3M430.52 528.3L430.54 528.3M430.54 528.3L430.54 528.3M430.54 528.3L430.56 528.29M430.56 528.29L430.56 528.29M430.56 528.29L430.61 528.29M430.61 528.29L430.61 528.29M430.61 528.29L430.73 528.26M430.73 528.26L430.73 528.26M430.73 528.26L430.96 528.14M430.96 528.14L430.96 528.14M430.96 528.14L431.12 527.94M431.12 527.94L431.12 527.94M431.12 527.94L431.2 527.74M431.2 527.74L431.2 527.74M431.2 527.74L431.2 527.69M431.2 527.69L431.2 527.69M431.2 527.69L431.21 527.65M431.21 527.65L431.21 527.65M431.21 527.65L431.21 527.61M431.21 527.61L431.21 527.61M431.21 527.61L431.21 527.2M431.21 527.2L431.21 527.2M431.21 527.2L431.21 526.79M431.21 526.79L431.21 526.69M431.21 526.69L431.21 526.59M431.21 526.59L431.21 526.39M431.21 526.39L431.21 526.19M431.21 526.19L431.21 525.98M431.21 525.98L431.21 524.97M431.21 524.97L431.21 523.95M431.21 523.95L431.21 521.93M431.21 521.93L431.21 519.9M431.21 519.9L431.21 517.87M431.21 517.87L431.21 513.81M431.21 513.81L431.21 511.78M431.21 511.78L431.21 509.75M431.21 509.75L431.21 509.35M431.21 509.35L431.21 508.94M431.21 508.94L431.21 508.74M431.21 508.74L431.21 508.54M431.21 508.54L431.21 508.33M431.21 508.33L431.21 508.13M431.21 508.13L431.21 507.93M431.21 507.93L431.21 507.83M431.21 507.83L431.21 507.73M431.21 507.73L431.21 507.73M431.21 507.73L431.21 507.32M431.21 507.32L431.21 507.32M431.21 507.32L431.21 506.91M431.21 506.91L431.21 506.91M431.21 506.91L431.21 506.87M431.21 506.87L431.21 506.87M431.21 506.87L431.2 506.83M431.2 506.83L431.2 506.83M431.2 506.83L431.18 506.7M431.18 506.7L431.18 506.7M431.18 506.7L431.05 506.48M431.05 506.48L431.05 506.48M431.05 506.48L430.85 506.31M430.85 506.31L430.85 506.31M430.85 506.31L430.65 506.24M430.65 506.24L430.65 506.24M430.65 506.24L430.61 506.23M430.61 506.23L430.61 506.23M430.61 506.23L430.56 506.23M430.56 506.23L430.56 506.23M430.56 506.23L430.52 506.23M430.52 506.23L430.52 506.23M430.52 506.23L429.92 506.23M429.92 506.23L429.92 506.23M429.92 506.23L429.32 506.23M429.32 506.23L429.32 506.23M429.32 506.23L428.72 506.23M428.72 506.23L428.43 506.23M428.43 506.23L428.13 506.23M428.13 506.23L427.9 506.23M427.9 506.23L427.85 506.23M427.85 506.23L427.85 506.23M427.85 506.23L427.79 506.22M427.79 506.22L427.68 506.22M427.68 506.22L427.23 506.22M427.23 506.22L426.78 506.22M426.78 506.22L426.56 506.22M426.56 506.22L426.44 506.22M426.44 506.22L426.44 506.22M426.44 506.22L426.33 506.23M426.33 506.23L424.54 506.23M424.54 506.23L424.15 506.23M424.15 506.23L424.06 506.23M424.06 506.23L424.06 506.23M424.06 506.23L423.96 506.23M423.96 506.23L423.77 506.23M423.77 506.23L423 506.23M423 506.23L422.62 506.23M422.62 506.23L422.52 506.23M422.52 506.23L422.52 506.23M422.52 506.23L422.43 506.23M422.43 506.23L422.24 506.23M422.24 506.23L421.47 506.23M421.47 506.23L419.93 506.23M419.93 506.23L419.17 506.23M419.17 506.23L418.78 506.23M418.78 506.23L418.59 506.23M418.59 506.23L418.5 506.23M418.5 506.23L418.5 506.23M418.5 506.23L418.4 506.23M418.4 506.23L418.4 506.23M418.4 506.23L418.31 506.23M418.31 506.23L418.21 506.23M418.21 506.23L418.02 506.23M418.02 506.23L417.63 506.23M417.63 506.23L416.87 506.23M416.87 506.23L415.33 506.23M415.33 506.23L414.57 506.23M414.57 506.23L414.38 506.23M414.38 506.23L414.38 506.23M414.38 506.23L414.18 506.23M414.18 506.23L413.8 506.23M413.8 506.23L412.27 506.23M412.27 506.23L410.73 506.23M410.73 506.23L410.35 506.23M410.35 506.23L410.35 506.23M410.35 506.23L410.16 506.23M410.16 506.23L409.97 506.23M409.97 506.23L409.2 506.23M409.2 506.23L407.67 506.23M407.67 506.23L407.28 506.23M407.28 506.23L407.28 506.23M407.28 506.23L407.09 506.23M407.09 506.23L406.9 506.23M406.9 506.23L406.13 506.23M406.13 506.23L404.6 506.23M404.6 506.23L404.22 506.23M404.22 506.23L404.22 506.23M404.22 506.23L404.02 506.23M404.02 506.23L403.83 506.23M403.83 506.23L403.07 506.23M403.07 506.23L403.45 506.23M403.45 506.23L400 506.23"
fill="none" stroke="black" stroke-width="0.5"/>
<path d="M389.14 312.07L389.14 383.53M389.14 383.53L389.14 454.98M389.14 454.98L389.14 458.3M389.14 458.3L389.14 461.63M389.14 461.63L389.14 463.29M389.14 463.29L389.14 464.95M389.14 464.95L389.14 466.61M389.14 466.61L389.14 468.27M389.14 468.27L389.14 469.1M389.14 469.1L389.14 469.94M389.14 469.94L389.14 470.77M389.14 470.77L389.14 471.18M389.14 471.18L389.14 471.6M389.14 471.6L389.14 472.43M389.14 472.43L389.14 472.84M389.14 472.84L389.14 473.26M389.14 473.26L389.14 473.67M389.14 473.67L389.14 474.09M389.14 474.09L389.14 474.51M389.14 474.51L389.14 474.92M389.14 474.92L389.14 474.92M389.14 474.92L389.14 478.24M389.14 478.24L389.14 478.24M389.14 478.24L389.13 479.91M389.13 479.91L389.13 479.91M389.13 479.91L389.14 481.57M389.14 481.57L389.14 481.57M389.14 481.57L389.14 481.62M389.14 481.62L389.14 481.62M389.14 481.62L389.14 481.67M389.14 481.67L389.14 481.67M389.14 481.67L389.17 481.83M389.17 481.83L389.17 481.83M389.17 481.83L389.32 482.16M389.32 482.16L389.32 482.16M389.32 482.16L389.54 482.39M389.54 482.39L389.54 482.39M389.54 482.39L389.81 482.54M389.81 482.54L389.81 482.54M389.81 482.54L390.01 482.59M390.01 482.59L390.01 482.59M390.01 482.59L390.07 482.6M390.07 482.6L390.07 482.6M390.07 482.6L390.12 482.6M390.12 482.6L390.12 482.6M390.12 482.6L390.17 482.6M390.17 482.6L390.17 482.6M390.17 482.6L390.36 482.6M390.36 482.6L390.36 482.6M390.36 482.6L390.46 482.6M390.46 482.6L390.56 482.6M390.56 482.6L390.65 482.6M390.65 482.6L390.75 482.6M390.75 482.6L390.86 482.6M390.86 482.6L390.86 482.6M390.86 482.6L390.98 482.6M390.98 482.6L391.21 482.6M391.21 482.6L391.32 482.6M391.32 482.6L391.32 482.6M391.32 482.6L391.44 482.6M391.44 482.6L391.67 482.6M391.67 482.6L392.12 482.6M392.12 482.6L392.35 482.6M392.35 482.6L392.47 482.6M392.47 482.6L392.47 482.6M392.47 482.6L392.58 482.6M392.58 482.6L393.5 482.6M393.5 482.6L393.73 482.6M393.73 482.6L393.78 482.6M393.78 482.6L393.78 482.6M393.78 482.6L393.84 482.6M393.84 482.6L393.95 482.6M393.95 482.6L394.41 482.6M394.41 482.6L394.59 482.6M394.59 482.6L394.59 482.6M394.59 482.6L394.76 482.6M394.76 482.6L395.11 482.6M395.11 482.6L395.81 482.6M395.81 482.6L396.51 482.6M396.51 482.6L396.86 482.6M396.86 482.6L397.03 482.6M397.03 482.6L397.12 482.6M397.12 482.6L397.12 482.6M397.12 482.6L397.21 482.6M397.21 482.6L398.6 482.6M398.6 482.6L398.6 482.6M398.6 482.6L398.78 482.6M398.78 482.6L398.95 482.6M398.95 482.6L399.3 482.6M399.3 482.6L400 482.6M400 482.6L403.45 482.6M403.45 482.6L404.34 482.6M404.34 482.6L408.67 482.6M408.67 482.6L408.86 482.6M408.86 482.6L409.06 482.6M409.06 482.6L409.15 482.6M409.15 482.6L409.25 482.6M409.25 482.6L409.35 482.6M409.35 482.6L409.35 482.6M409.35 482.6L409.44 482.6M409.44 482.6L409.54 482.6M409.54 482.6L409.54 482.6M409.54 482.6L409.64 482.6M409.64 482.6L409.64 482.6M409.64 482.6L409.83 482.6M409.83 482.6L409.83 482.6M409.83 482.6L409.88 482.6M409.88 482.6L409.88 482.6M409.88 482.6L409.93 482.6M409.93 482.6L409.93 482.6M409.93 482.6L410.14 482.55M410.14 482.55L410.14 482.55M410.14 482.55L410.46 482.39M410.46 482.39L410.46 482.39M410.46 482.39L410.71 482.12M410.71 482.12L410.71 482.12M410.71 482.12L410.83 481.83M410.83 481.83L410.83 481.83M410.83 481.83L410.85 481.72M410.85 481.72L410.85 481.72M410.85 481.72L410.86 481.67M410.86 481.67L410.86 481.67M410.86 481.67L410.86 481.62M410.86 481.62L410.86 481.62M410.86 481.62L410.86 481.57M410.86 481.57L410.86 481.57M410.86 481.57L410.87 479.91M410.87 479.91L410.87 479.91M410.87 479.91L410.86 478.24M410.86 478.24L410.86 478.24M410.86 478.24L410.86 474.92M410.86 474.92L410.86 474.51M410.86 474.51L410.86 474.09M410.86 474.09L410.86 473.67M410.86 473.67L410.86 473.26M410.86 473.26L410.86 472.43M410.86 472.43L410.86 471.6M410.86 471.6L410.86 470.77M410.86 470.77L410.86 469.94M410.86 469.94L410.86 469.1M410.86 469.1L410.86 468.27M410.86 468.27L410.86 466.61M410.86 466.61L410.86 464.95M410.86 464.95L410.86 462.46M410.86 462.46L410.86 459.97M410.86 459.97L410.86 454.98M410.86 454.98L410.86 446.05M410.86 446.05L410.86 437.12M410.86 437.12L410.86 419.25M410.86 419.25L410.86 401.39M410.86 401.39L410.86 383.53M410.86 383.53L410.86 347.8M410.86 347.8L410.86 329.93M410.86 329.93L410.86 312.07M410.86 312.07L410.86 287.93M410.86 287.93L410.86 216.48M410.86 216.48L410.86 145.02M410.86 145.02L410.86 141.7M410.86 141.7L410.86 138.37M410.86 138.37L410.86 136.71M410.86 136.71L410.86 135.05M410.86 135.05L410.86 133.39M410.86 133.39L410.86 131.73M410.86 131.73L410.86 130.9M410.86 130.9L410.86 130.06M410.86 130.06L410.86 129.23M410.86 129.23L410.86 128.82M410.86 128.82L410.86 128.4M410.86 128.4L410.86 127.57M410.86 127.57L410.86 126.74M410.86 126.74L410.86 126.33M410.86 126.33L410.86 125.91M410.86 125.91L410.86 125.49M410.86 125.49L410.86 125.08M410.86 125.08L410.86 125.08M410.86 125.08L410.86 121.76M410.86 121.76L410.86 121.76M410.86 121.76L410.87 120.09M410.87 120.09L410.87 120.09M410.87 120.09L410.86 118.43M410.86 118.43L410.86 118.43M410.86 118.43L410.86 118.38M410.86 118.38L410.86 118.38M410.86 118.38L410.86 118.33M410.86 118.33L410.86 118.33M410.86 118.33L410.83 118.17M410.83 118.17L410.83 118.17M410.83 118.17L410.68 117.84M410.68 117.84L410.68 117.84M410.68 117.84L410.46 117.61M410.46 117.61L410.46 117.61M410.46 117.61L410.19 117.46M410.19 117.46L410.19 117.46M410.19 117.46L409.99 117.41M409.99 117.41L409.99 117.41M409.99 117.41L409.93 117.4M409.93 117.4L409.93 117.4M409.93 117.4L409.88 117.4M409.88 117.4L409.88 117.4M409.88 117.4L409.83 117.4M409.83 117.4L409.83 117.4M409.83 117.4L409.64 117.4M409.64 117.4L409.64 117.4M409.64 117.4L409.44 117.4M409.44 117.4L409.35 117.4M409.35 117.4L409.25 117.4M409.25 117.4L408.79 117.4M408.79 117.4L408.33 117.4M408.33 117.4L407.88 117.4M407.88 117.4L407.42 117.4M407.42 117.4L406.5 117.4M406.5 117.4L405.59 117.4M405.59 117.4L404.89 117.4M404.89 117.4L404.19 117.4M404.19 117.4L402.79 117.4M402.79 117.4L404.84 117.4M404.84 117.4L403.45 117.4M403.45 117.4L400 117.4M400 117.4L395.66 117.4M395.66 117.4L391.33 117.4M391.33 117.4L391.14 117.4M391.14 117.4L390.94 117.4M390.94 117.4L390.85 117.4M390.85 117.4L390.75 117.4M390.75 117.4L390.65 117.4M390.65 117.4L390.56 117.4M390.56 117.4L390.56 117.4M390.56 117.4L390.36 117.4M390.36 117.4L390.36 117.4M390.36 117.4L390.17 117.4M390.17 117.4L390.17 117.4M390.17 117.4L390.12 117.4M390.12 117.4L390.12 117.4M390.12 117.4L390.07 117.4M390.07 117.4L390.07 117.4M390.07 117.4L389.86 117.45M389.86 117.45L389.86 117.45M389.86 117.45L389.54 117.61M389.54 117.61L389.54 117.61M389.54 117.61L389.29 117.88M389.29 117.88L389.29 117.88M389.29 117.88L389.17 118.17M389.17 118.17L389.17 118.17M389.17 118.17L389.15 118.28M389.15 118.28L389.15 118.28M389.15 118.28L389.14 118.33M389.14 118.33L389.14 118.33M389.14 118.33L389.14 118.38M389.14 118.38L389.14 118.38M389.14 118.38L389.14 118.43M389.14 118.43L389.14 118.43M389.14 118.43L389.13 120.09M389.13 120.09L389.13 120.09M389.13 120.09L389.14 121.76M389.14 121.76L389.14 121.76M389.14 121.76L389.14 125.08M389.14 125.08L389.14 125.49M389.14 125.49L389.14 125.91M389.14 125.91L389.14 126.33M389.14 126.33L389.14 126.74M389.14 126.74L389.14 127.16M389.14 127.16L389.14 127.57M389.14 127.57L389.14 128.4M389.14 128.4L389.14 128.82M389.14 128.82L389.14 129.23M389.14 129.23L389.14 130.06M389.14 130.06L389.14 130.9M389.14 130.9L389.14 131.73M389.14 131.73L389.14 133.39M389.14 133.39L389.14 135.05M389.14 135.05L389.14 137.54M389.14 137.54L389.14 140.03M389.14 140.03L389.14 145.02M389.14 145.02L389.14 153.95M389.14 153.95L389.14 162.88M389.14 162.88L389.14 180.75M389.14 180.75L389.14 198.61M389.14 198.61L389.14 216.48M389.14 216.48L389.14 252.2M389.14 252.2L389.14 270.07M389.14 270.07L389.14 287.93M389.14 287.93L389.14 312.07"
fill="none" stroke="black" stroke-width="0.5"/>
<path d="M403.45 93.77L413.16 93.77M413.16 93.77L426.33 93.77M426.33 93.77L426.93 93.77M426.93 93.77L427.53 93.77M427.53 93.77L427.83 93.77M427.83 93.77L428.13 93.77M428.13 93.77L428.43 93.77M428.43 93.77L428.57 93.77M428.57 93.77L428.72 93.77M428.72 93.77L429.02 93.77M429.02 93.77L429.17 93.77M429.17 93.77L429.32 93.77M429.32 93.77L429.32 93.77M429.32 93.77L429.92 93.77M429.92 93.77L429.92 93.77M429.92 93.77L430.52 93.77M430.52 93.77L430.52 93.77M430.52 93.77L430.54 93.77M430.54 93.77L430.54 93.77M430.54 93.77L430.56 93.77M430.56 93.77L430.56 93.77M430.56 93.77L430.61 93.77M430.61 93.77L430.61 93.77M430.61 93.77L430.73 93.74M430.73 93.74L430.73 93.74M430.73 93.74L430.96 93.62M430.96 93.62L430.96 93.62M430.96 93.62L431.12 93.42M431.12 93.42L431.12 93.42M431.12 93.42L431.2 93.21M431.2 93.21L431.2 93.21M431.2 93.21L431.2 93.17M431.2 93.17L431.2 93.17M431.2 93.17L431.21 93.13M431.21 93.13L431.21 93.13M431.21 93.13L431.21 93.09M431.21 93.09L431.21 93.09M431.21 93.09L431.21 92.68M431.21 92.68L431.21 92.68M431.21 92.68L431.21 92.27M431.21 92.27L431.21 92.17M431.21 92.17L431.21 92.07M431.21 92.07L431.21 91.87M431.21 91.87L431.21 91.67M431.21 91.67L431.21 91.46M431.21 91.46L431.21 90.45M431.21 90.45L431.21 89.43M431.21 89.43L431.21 87.41M431.21 87.41L431.21 85.38M431.21 85.38L431.21 83.35M431.21 83.35L431.21 79.29M431.21 79.29L431.21 77.26M431.21 77.26L431.21 75.23M431.21 75.23L431.21 74.83M431.21 74.83L431.21 74.42M431.21 74.42L431.21 74.22M431.21 74.22L431.21 74.02M431.21 74.02L431.21 73.81M431.21 73.81L431.21 73.61M431.21 73.61L431.21 73.41M431.21 73.41L431.21 73.31M431.21 73.31L431.21 73.21M431.21 73.21L431.21 73.21M431.21 73.21L431.21 72.8M431.21 72.8L431.21 72.8M431.21 72.8L431.21 72.39M431.21 72.39L431.21 72.39M431.21 72.39L431.21 72.35M431.21 72.35L431.21 72.35M431.21 72.35L431.2 72.31M431.2 72.31L431.2 72.31M431.2 72.31L431.18 72.18M431.18 72.18L431.18 72.18M431.18 72.18L431.05 71.95M431.05 71.95L431.05 71.95M431.05 71.95L430.85 71.79M430.85 71.79L430.85 71.79M430.85 71.79L430.65 71.72M430.65 71.72L430.65 71.72M430.65 71.72L430.61 71.71M430.61 71.71L430.61 71.71M430.61 71.71L430.56 71.71M430.56 71.71L430.56 71.71M430.56 71.71L430.54 71.7M430.54 71.7L430.54 71.7M430.54 71.7L430.52 71.7M430.52 71.7L430.52 71.7M430.52 71.7L429.92 71.7M429.92 71.7L429.92 71.7M429.92 71.7L429.32 71.7M429.32 71.7L429.17 71.7M429.17 71.7L429.02 71.7M429.02 71.7L428.72 71.7M428.72 71.7L428.57 71.7M428.57 71.7L428.43 71.7M428.43 71.7L428.13 71.7M428.13 71.7L427.23 71.7M427.23 71.7L426.33 71.7M426.33 71.7L424.54 71.7M424.54 71.7L421.47 71.7M421.47 71.7L418.4 71.7M418.4 71.7L415.33 71.7M415.33 71.7L412.27 71.7M412.27 71.7L406.13 71.7M406.13 71.7L403.07 71.7M403.07 71.7L403.45 71.7M403.45 71.7L400 71.7M400 71.7L386.84 71.7M386.84 71.7L373.67 71.7M373.67 71.7L373.07 71.7M373.07 71.7L372.47 71.7M372.47 71.7L372.17 71.7M372.17 71.7L371.87 71.7M371.87 71.7L371.57 71.7M371.57 71.7L371.43 71.7M371.43 71.7L371.28 71.7M371.28 71.7L370.98 71.7M370.98 71.7L370.83 71.7M370.83 71.7L370.68 71.7M370.68 71.7L370.68 71.7M370.68 71.7L370.08 71.7M370.08 71.7L370.08 71.7M370.08 71.7L369.48 71.7M369.48 71.7L369.48 71.7M369.48 71.7L369.44 71.71M369.44 71.71L369.44 71.71M369.44 71.71L369.39 71.71M369.39 71.71L369.39 71.71M369.39 71.71L369.27 71.74M369.27 71.74L369.27 71.74M369.27 71.74L369.04 71.86M369.04 71.86L369.04 71.86M369.04 71.86L368.88 72.06M368.88 72.06L368.88 72.06M368.88 72.06L368.8 72.26M368.8 72.26L368.8 72.26M368.8 72.26L368.8 72.31M368.8 72.31L368.8 72.31M368.8 72.31L368.79 72.35M368.79 72.35L368.79 72.35M368.79 72.35L368.79 72.39M368.79 72.39L368.79 72.39M368.79 72.39L368.79 72.8M368.79 72.8L368.79 72.8M368.79 72.8L368.79 73.21M368.79 73.21L368.79 73.31M368.79 73.31L368.79 73.41M368.79 73.41L368.79 73.61M368.79 73.61L368.79 73.81M368.79 73.81L368.79 74.02M368.79 74.02L368.79 75.03M368.79 75.03L368.79 76.05M368.79 76.05L368.79 78.07M368.79 78.07L368.79 80.1M368.79 80.1L368.79 82.13M368.79 82.13L368.79 86.19M368.79 86.19L368.79 88.22M368.79 88.22L368.79 90.25M368.79 90.25L368.79 90.65M368.79 90.65L368.79 91.06M368.79 91.06L368.79 91.26M368.79 91.26L368.79 91.46M368.79 91.46L368.79 91.67M368.79 91.67L368.79 91.87M368.79 91.87L368.79 92.07M368.79 92.07L368.79 92.17M368.79 92.17L368.79 92.27M368.79 92.27L368.79 92.27M368.79 92.27L368.79 92.68M368.79 92.68L368.79 92.68M368.79 92.68L368.79 93.09M368.79 93.09L368.79 93.09M368.79 93.09L368.79 93.11M368.79 93.11L368.79 93.11M368.79 93.11L368.79 93.13M368.79 93.13L368.79 93.13M368.79 93.13L368.8 93.17M368.8 93.17L368.8 93.17M368.8 93.17L368.82 93.3M368.82 93.3L368.82 93.3M368.82 93.3L368.95 93.52M368.95 93.52L368.95 93.52M368.95 93.52L369.15 93.69M369.15 93.69L369.15 93.69M369.15 93.69L369.35 93.76M369.35 93.76L369.35 93.76M369.35 93.76L369.39 93.77M369.39 93.77L369.39 93.77M369.39 93.77L369.44 93.77M369.44 93.77L369.44 93.77M369.44 93.77L369.46 93.77M369.46 93.77L369.46 93.77M369.46 93.77L369.48 93.77M369.48 93.77L369.48 93.77M369.48 93.77L370.08 93.77M370.08 93.77L370.08 93.77M370.08 93.77L370.68 93.77M370.68 93.77L370.83 93.77M370.83 93.77L370.98 93.77M370.98 93.77L371.28 93.77M371.28 93.77L371.57 93.77M371.57 93.77L371.87 93.77M371.87 93.77L372.77 93.77M372.77 93.77L373.67 93.77M373.67 93.77L375.46 93.77M375.46 93.77L378.53 93.77M378.53 93.77L381.6 93.77M381.6 93.77L384.67 93.77M384.67 93.77L387.73 93.77M387.73 93.77L393.87 93.77M393.87 93.77L396.93 93.77M396.93 93.77L400 93.77M400 93.77L403.45 93.77"
fill="none" stroke="black" stroke-width="0.5"/>
<path d="M389.14 30.67L389.14 44.46M389.14 44.46L389.14 45.62M389.14 45.62L389.14 46.79M389.14 46.79L389.14 46.84M389.14 46.84L389.14 46.89M389.14 46.89L389.14 46.92M389.14 46.92L389.14 46.94M389.14 46.94L389.14 46.97M389.14 46.97L389.14 46.99M389.14 46.99L389.14 46.99M389.14 46.99L389.14 47.05M389.14 47.05L389.14 47.05M389.14 47.05L389.14 47.1M389.14 47.1L389.14 47.1M389.14 47.1L389.14 47.15M389.14 47.15L389.14 47.15M389.14 47.15L389.2 47.41M389.2 47.41L389.2 47.41M389.2 47.41L389.39 47.72M389.39 47.72L389.39 47.72M389.39 47.72L389.67 47.95M389.67 47.95L389.67 47.95M389.67 47.95L390.01 48.07M390.01 48.07L390.01 48.07M390.01 48.07L390.07 48.08M390.07 48.08L390.07 48.08M390.07 48.08L390.12 48.08M390.12 48.08L390.12 48.08M390.12 48.08L390.17 48.08M390.17 48.08L390.17 48.08M390.17 48.08L390.36 48.08M390.36 48.08L390.36 48.08M390.36 48.08L390.56 48.08M390.56 48.08L390.65 48.08M390.65 48.08L390.75 48.08M390.75 48.08L391.21 48.08M391.21 48.08L391.67 48.08M391.67 48.08L392.12 48.08M392.12 48.08L392.58 48.08M392.58 48.08L393.5 48.08M393.5 48.08L394.41 48.08M394.41 48.08L395.11 48.08M395.11 48.08L395.81 48.08M395.81 48.08L397.21 48.08M397.21 48.08L398.6 48.08M398.6 48.08L400 48.08M400 48.08L403.45 48.08M403.45 48.08L404.34 48.08M404.34 48.08L408.67 48.08M408.67 48.08L408.86 48.08M408.86 48.08L409.06 48.08M409.06 48.08L409.15 48.08M409.15 48.08L409.25 48.08M409.25 48.08L409.35 48.08M409.35 48.08L409.44 48.08M409.44 48.08L409.54 48.08M409.54 48.08L409.54 48.08M409.54 48.08L409.64 48.08M409.64 48.08L409.64 48.08M409.64 48.08L409.83 48.08M409.83 48.08L409.83 48.08M409.83 48.08L409.88 48.08M409.88 48.08L409.88 48.08M409.88 48.08L409.93 48.08M409.93 48.08L409.93 48.08M409.93 48.08L410.14 48.03M410.14 48.03L410.14 48.03M410.14 48.03L410.46 47.86M410.46 47.86L410.46 47.86M410.46 47.86L410.71 47.59M410.71 47.59L410.71 47.59M410.71 47.59L410.83 47.31M410.83 47.31L410.83 47.31M410.83 47.31L410.86 47.15M410.86 47.15L410.86 47.15M410.86 47.15L410.86 47.1M410.86 47.1L410.86 47.1M410.86 47.1L410.86 47.05M410.86 47.05L410.86 47.05M410.86 47.05L410.86 46.99M410.86 46.99L410.86 46.97M410.86 46.97L410.86 46.94M410.86 46.94L410.86 46.79M410.86 46.79L410.86 46.63M410.86 46.63L410.86 46.32M410.86 46.32L410.86 46.01M410.86 46.01L410.86 45.7M410.86 45.7L410.86 45.08M410.86 45.08L410.86 44.77M410.86 44.77L410.86 44.46M410.86 44.46L410.86 30.67M410.86 30.67L410.86 29.5M410.86 29.5L410.86 28.34M410.86 28.34L410.86 28.29M410.86 28.29L410.86 28.23M410.86 28.23L410.86 28.21M410.86 28.21L410.86 28.18M410.86 28.18L410.86 28.16M410.86 28.16L410.86 28.13M410.86 28.13L410.86 28.13M410.86 28.13L410.86 28.08M410.86 28.08L410.86 28.08M410.86 28.08L410.86 28.03M410.86 28.03L410.86 28.03M410.86 28.03L410.86 27.97M410.86 27.97L410.86 27.97M410.86 27.97L410.8 27.72M410.8 27.72L410.8 27.72M410.8 27.72L410.61 27.41M410.61 27.41L410.61 27.41M410.61 27.41L410.33 27.17M410.33 27.17L410.33 27.17M410.33 27.17L409.99 27.06M409.99 27.06L409.99 27.06M409.99 27.06L409.93 27.05M409.93 27.05L409.93 27.05M409.93 27.05L409.88 27.05M409.88 27.05L409.88 27.05M409.88 27.05L409.83 27.04M409.83 27.04L409.83 27.04M409.83 27.04L409.64 27.04M409.64 27.04L409.64 27.04M409.64 27.04L409.54 27.04M409.54 27.04L409.44 27.04M409.44 27.04L409.35 27.04M409.35 27.04L409.25 27.04M409.25 27.04L408.79 27.05M408.79 27.05L408.33 27.05M408.33 27.05L407.88 27.05M407.88 27.05L407.42 27.05M407.42 27.05L406.5 27.04M406.5 27.04L405.59 27.04M405.59 27.04L404.89 27.04M404.89 27.04L404.19 27.04M404.19 27.04L402.79 27.04M402.79 27.04L404.84 27.04M404.84 27.04L403.45 27.04M403.45 27.04L400 27.04M400 27.04L395.66 27.04M395.66 27.04L391.33 27.04M391.33 27.04L391.14 27.04M391.14 27.04L390.94 27.04M390.94 27.04L390.85 27.04M390.85 27.04L390.75 27.04M390.75 27.04L390.65 27.04M390.65 27.04L390.65 27.04M390.65 27.04L390.56 27.04M390.56 27.04L390.46 27.04M390.46 27.04L390.46 27.04M390.46 27.04L390.36 27.04M390.36 27.04L390.36 27.04M390.36 27.04L390.17 27.04M390.17 27.04L390.17 27.04M390.17 27.04L390.12 27.05M390.12 27.05L390.12 27.05M390.12 27.05L390.07 27.05M390.07 27.05L390.07 27.05M390.07 27.05L389.86 27.09M389.86 27.09L389.86 27.09M389.86 27.09L389.54 27.26M389.54 27.26L389.54 27.26M389.54 27.26L389.29 27.53M389.29 27.53L389.29 27.53M389.29 27.53L389.17 27.82M389.17 27.82L389.17 27.82M389.17 27.82L389.14 27.97M389.14 27.97L389.14 27.97M389.14 27.97L389.14 28.03M389.14 28.03L389.14 28.03M389.14 28.03L389.14 28.08M389.14 28.08L389.14 28.08M389.14 28.08L389.14 28.13M389.14 28.13L389.14 28.16M389.14 28.16L389.14 28.18M389.14 28.18L389.14 28.34M389.14 28.34L389.14 28.49M389.14 28.49L389.14 28.8M389.14 28.8L389.14 29.11M389.14 29.11L389.14 29.42M389.14 29.42L389.14 30.05M389.14 30.05L389.14 30.36M389.14 30.36L389.14 30.67"
fill="none" stroke="black" stroke-width="0.5"/>
<path d="M418.45 44.46L418.45 48.95M418.45 48.95L418.45 53.44M418.45 53.44L418.45 53.64M418.45 53.64L418.45 53.84M418.45 53.84L418.45 53.94M418.45 53.94L418.45 54.04M418.45 54.04L418.45 54.13M418.45 54.13L418.45 54.23M418.45 54.23L418.45 54.33M418.45 54.33L418.45 54.33M418.45 54.33L418.45 54.43M418.45 54.43L418.45 54.43M418.45 54.43L418.45 54.63M418.45 54.63L418.45 54.63M418.45 54.63L418.45 54.69M418.45 54.69L418.45 54.69M418.45 54.69L418.44 54.74M418.44 54.74L418.44 54.74M418.44 54.74L418.4 54.94M418.4 54.94L418.4 54.94M418.4 54.94L418.23 55.27M418.23 55.27L418.23 55.27M418.23 55.27L417.96 55.51M417.96 55.51L417.96 55.51M417.96 55.51L417.67 55.64M417.67 55.64L417.67 55.64M417.67 55.64L417.57 55.66M417.57 55.66L417.57 55.66M417.57 55.66L417.52 55.66M417.52 55.66L417.52 55.66M417.52 55.66L417.47 55.67M417.47 55.67L417.47 55.67M417.47 55.67L417.42 55.67M417.42 55.67L417.42 55.67M417.42 55.67L417.07 55.67M417.07 55.67L417.07 55.67M417.07 55.67L416.73 55.67M416.73 55.67L416.65 55.67M416.65 55.67L416.56 55.67M416.56 55.67L416.39 55.67M416.39 55.67L416.22 55.67M416.22 55.67L416.05 55.67M416.05 55.67L414.04 55.67M414.04 55.67L412.04 55.67M412.04 55.67L410.03 55.67M410.03 55.67L408.02 55.67M408.02 55.67L404.01 55.67M404.01 55.67L403.45 55.67M403.45 55.67L400 55.67M400 55.67L392.49 55.67M392.49 55.67L384.97 55.67M384.97 55.67L384.46 55.67M384.46 55.67L383.95 55.67M383.95 55.67L383.78 55.67M383.78 55.67L383.61 55.67M383.61 55.67L383.44 55.67M383.44 55.67L383.35 55.67M383.35 55.67L383.27 55.67M383.27 55.67L383.27 55.67M383.27 55.67L382.93 55.67M382.93 55.67L382.93 55.67M382.93 55.67L382.58 55.67M382.58 55.67L382.58 55.67M382.58 55.67L382.53 55.67M382.53 55.67L382.53 55.67M382.53 55.67L382.48 55.66M382.48 55.66L382.48 55.66M382.48 55.66L382.28 55.62M382.28 55.62L382.28 55.62M382.28 55.62L381.95 55.45M381.95 55.45L381.95 55.45M381.95 55.45L381.71 55.18M381.71 55.18L381.71 55.18M381.71 55.18L381.58 54.89M381.58 54.89L381.58 54.89M381.58 54.89L381.56 54.79M381.56 54.79L381.56 54.79M381.56 54.79L381.56 54.74M381.56 54.74L381.56 54.74M381.56 54.74L381.55 54.69M381.55 54.69L381.55 54.69M381.55 54.69L381.55 54.63M381.55 54.63L381.55 54.63M381.55 54.63L381.55 54.53M381.55 54.53L381.55 54.48M381.55 54.48L381.55 54.43M381.55 54.43L381.55 54.43M381.55 54.43L381.55 54.23M381.55 54.23L381.55 54.23M381.55 54.23L381.55 54.04M381.55 54.04L381.55 53.44M381.55 53.44L381.55 52.84M381.55 52.84L381.55 52.24M381.55 52.24L381.55 51.64M381.55 51.64L381.55 50.44M381.55 50.44L381.55 49.25M381.55 49.25L381.55 46.85M381.55 46.85L381.55 45.66M381.55 45.66L381.55 44.46M381.55 44.46L381.55 30.67M381.55 30.67L381.55 26.18M381.55 26.18L381.55 21.69M381.55 21.69L381.55 21.49M381.55 21.49L381.55 21.29M381.55 21.29L381.55 21.19M381.55 21.19L381.55 21.09M381.55 21.09L381.55 20.99M381.55 20.99L381.55 20.89M381.55 20.89L381.55 20.79M381.55 20.79L381.55 20.79M381.55 20.79L381.55 20.69M381.55 20.69L381.55 20.69M381.55 20.69L381.55 20.49M381.55 20.49L381.55 20.49M381.55 20.49L381.55 20.44M381.55 20.44L381.55 20.44M381.55 20.44L381.56 20.39M381.56 20.39L381.56 20.39M381.56 20.39L381.6 20.18M381.6 20.18L381.6 20.18M381.6 20.18L381.77 19.86M381.77 19.86L381.77 19.86M381.77 19.86L382.04 19.61M382.04 19.61L382.04 19.61M382.04 19.61L382.33 19.49M382.33 19.49L382.33 19.49M382.33 19.49L382.43 19.47M382.43 19.47L382.43 19.47M382.43 19.47L382.48 19.46M382.48 19.46L382.48 19.46M382.48 19.46L382.53 19.46M382.53 19.46L382.53 19.46M382.53 19.46L382.58 19.46M382.58 19.46L382.58 19.46M382.58 19.46L382.93 19.46M382.93 19.46L382.93 19.46M382.93 19.46L383.27 19.46M383.27 19.46L383.35 19.46M383.35 19.46L383.44 19.46M383.44 19.46L383.61 19.46M383.61 19.46L383.78 19.46M383.78 19.46L383.95 19.46M383.95 19.46L385.96 19.46M385.96 19.46L387.96 19.46M387.96 19.46L389.97 19.46M389.97 19.46L391.98 19.46M391.98 19.46L395.99 19.46M395.99 19.46L397.99 19.46M397.99 19.46L400 19.46M400 19.46L403.45 19.46M403.45 19.46L407.51 19.46M407.51 19.46L415.02 19.46M415.02 19.46L415.54 19.46M415.54 19.46L415.79 19.46M415.79 19.46L416.05 19.46M416.05 19.46L416.22 19.46M416.22 19.46L416.39 19.46M416.39 19.46L416.56 19.46M416.56 19.46L416.65 19.46M416.65 19.46L416.73 19.46M416.73 19.46L416.73 19.46M416.73 19.46L417.07 19.46M417.07 19.46L417.07 19.46M417.07 19.46L417.42 19.46M417.42 19.46L417.42 19.46M417.42 19.46L417.47 19.46M417.47 19.46L417.47 19.46M417.47 19.46L417.52 19.46M417.52 19.46L417.52 19.46M417.52 19.46L417.73 19.51M417.73 19.51L417.73 19.51M417.73 19.51L418.05 19.67M418.05 19.67L418.05 19.67M418.05 19.67L418.29 19.95M418.29 19.95L418.29 19.95M418.29 19.95L418.42 20.23M418.42 20.23L418.42 20.23M418.42 20.23L418.44 20.34M418.44 20.34L418.44 20.34M418.44 20.34L418.44 20.39M418.44 20.39L418.44 20.39M418.44 20.39L418.45 20.44M418.45 20.44L418.45 20.44M418.45 20.44L418.45 20.49M418.45 20.49L418.45 20.49M418.45 20.49L418.45 20.69M418.45 20.69L418.45 20.69M418.45 20.69L418.45 20.79M418.45 20.79L418.45 20.89M418.45 20.89L418.45 20.99M418.45 20.99L418.45 21.09M418.45 21.09L418.45 21.44M418.45 21.44L418.45 21.79M418.45 21.79L418.45 22.14M418.45 22.14L418.45 22.49M418.45 22.49L418.45 23.88M418.45 23.88L418.45 24.73M418.45 24.73L418.45 25.58M418.45 25.58L418.45 26.43M418.45 26.43L418.45 27.27M418.45 27.27L418.45 28.97M418.45 28.97L418.45 29.82M418.45 29.82L418.45 30.67M418.45 30.67L418.45 44.46"
fill="none" stroke="black" stroke-width="0.5"/>
<path d="M422.59 44.46L422.59 30.67M422.59 30.67L422.59 15.32M422.59 15.32L403.45 15.32M403.45 15.32L400 15.32M400 15.32L377.41 15.32M377.41 15.32L377.41 30.67M377.41 30.67L377.41 44.46M377.41 44.46L377.41 59.81M377.41 59.81L400 59.81M400 59.81L403.45 59.81M403.45 59.81L422.59 59.81M422.59 59.81L422.59 44.46"
fill="none" stroke="black" stroke-width="0.5"/>
<path d="M403.45 109.81L407.51 109.81M407.51 109.81L415.03 109.81M415.03 109.81L415.54 109.81M415.54 109.81L416.05 109.81M416.05 109.81L416.22 109.81M416.22 109.81L416.39 109.81M416.39 109.81L416.56 109.81M416.56 109.81L416.65 109.81M416.65 109.81L416.73 109.81M416.73 109.81L416.73 109.81M416.73 109.81L417.07 109.81M417.07 109.81L417.07 109.81M417.07 109.81L417.42 109.81M417.42 109.81L417.42 109.81M417.42 109.81L417.47 109.81M417.47 109.81L417.47 109.81M417.47 109.81L417.52 109.82M417.52 109.82L417.52 109.82M417.52 109.82L417.73 109.86M417.73 109.86L417.73 109.86M417.73 109.86L418.05 110.03M418.05 110.03L418.05 110.03M418.05 110.03L418.29 110.3M418.29 110.3L418.29 110.3M418.29 110.3L418.42 110.59M418.42 110.59L418.42 110.59M418.42 110.59L418.44 110.69M418.44 110.69L418.44 110.69M418.44 110.69L418.44 110.74M418.44 110.74L418.44 110.74M418.44 110.74L418.45 110.79M418.45 110.79L418.45 110.79M418.45 110.79L418.45 110.85M418.45 110.85L418.45 110.85M418.45 110.85L418.46 112.58M418.46 112.58L418.46 112.58M418.46 112.58L418.45 114.32M418.45 114.32L418.45 114.32M418.45 114.32L418.45 117.79M418.45 117.79L418.45 118.22M418.45 118.22L418.45 118.66M418.45 118.66L418.45 119.09M418.45 119.09L418.45 119.53M418.45 119.53L418.45 120.39M418.45 120.39L418.45 121.26M418.45 121.26L418.45 121.7M418.45 121.7L418.45 122.13M418.45 122.13L418.45 123M418.45 123L418.45 123.87M418.45 123.87L418.45 124.73M418.45 124.73L418.45 126.47M418.45 126.47L418.45 128.21M418.45 128.21L418.45 130.81M418.45 130.81L418.45 133.41M418.45 133.41L418.45 138.62M418.45 138.62L418.45 147.96M418.45 147.96L418.45 157.29M418.45 157.29L418.45 175.95M418.45 175.95L418.45 194.61M418.45 194.61L418.45 213.28M418.45 213.28L418.45 250.6M418.45 250.6L418.45 269.27M418.45 269.27L418.45 287.93M418.45 287.93L418.45 312.07M418.45 312.07L418.45 386.72M418.45 386.72L418.45 461.38M418.45 461.38L418.45 464.85M418.45 464.85L418.45 468.32M418.45 468.32L418.45 470.06M418.45 470.06L418.45 471.79M418.45 471.79L418.45 473.53M418.45 473.53L418.45 475.27M418.45 475.27L418.45 476.13M418.45 476.13L418.45 477M418.45 477L418.45 477.87M418.45 477.87L418.45 478.74M418.45 478.74L418.45 479.61M418.45 479.61L418.45 480.47M418.45 480.47L418.45 480.91M418.45 480.91L418.45 481.34M418.45 481.34L418.45 481.78M418.45 481.78L418.45 482.21M418.45 482.21L418.45 482.21M418.45 482.21L418.45 485.68M418.45 485.68L418.45 485.68M418.45 485.68L418.46 487.42M418.46 487.42L418.46 487.42M418.46 487.42L418.45 489.15M418.45 489.15L418.45 489.15M418.45 489.15L418.45 489.21M418.45 489.21L418.45 489.21M418.45 489.21L418.44 489.26M418.44 489.26L418.44 489.26M418.44 489.26L418.42 489.41M418.42 489.41L418.42 489.41M418.42 489.41L418.26 489.75M418.26 489.75L418.26 489.75M418.26 489.75L418.05 489.97M418.05 489.97L418.05 489.97M418.05 489.97L417.77 490.12M417.77 490.12L417.77 490.12M417.77 490.12L417.57 490.18M417.57 490.18L417.57 490.18M417.57 490.18L417.52 490.18M417.52 490.18L417.52 490.18M417.52 490.18L417.47 490.19M417.47 490.19L417.47 490.19M417.47 490.19L417.42 490.19M417.42 490.19L417.42 490.19M417.42 490.19L417.07 490.19M417.07 490.19L417.07 490.19M417.07 490.19L416.9 490.19M416.9 490.19L416.86 490.19M416.86 490.19L416.86 490.19M416.86 490.19L416.82 490.19M416.82 490.19L416.73 490.19M416.73 490.19L416.73 490.19M416.73 490.19L416.56 490.19M416.56 490.19L416.39 490.19M416.39 490.19L416.22 490.19M416.22 490.19L416.05 490.19M416.05 490.19L415.8 490.19M415.8 490.19L415.74 490.19M415.74 490.19L415.74 490.19M415.74 490.19L415.67 490.19M415.67 490.19L415.55 490.19M415.55 490.19L415.05 490.19M415.05 490.19L414.8 490.19M414.8 490.19L414.73 490.19M414.73 490.19L414.73 490.19M414.73 490.19L414.67 490.19M414.67 490.19L414.54 490.19M414.54 490.19L414.04 490.19M414.04 490.19L413.04 490.19M413.04 490.19L412.54 490.19M412.54 490.19L412.54 490.19M412.54 490.19L412.04 490.19M412.04 490.19L412.04 490.19M412.04 490.19L411.97 490.19M411.97 490.19L411.91 490.19M411.91 490.19L411.79 490.19M411.79 490.19L411.54 490.19M411.54 490.19L411.03 490.19M411.03 490.19L410.03 490.19M410.03 490.19L409.53 490.19M409.53 490.19L409.4 490.19M409.4 490.19L409.4 490.19M409.4 490.19L409.28 490.19M409.28 490.19L409.03 490.19M409.03 490.19L408.02 490.19M408.02 490.19L406.02 490.19M406.02 490.19L405.52 490.19M405.52 490.19L405.39 490.19M405.39 490.19L405.39 490.19M405.39 490.19L405.33 490.19M405.33 490.19L405.33 490.19M405.33 490.19L405.27 490.19M405.27 490.19L405.02 490.19M405.02 490.19L404.01 490.19M404.01 490.19L403.01 490.19M403.01 490.19L402.76 490.19M402.76 490.19L402.76 490.19M402.76 490.19L402.63 490.19M402.63 490.19L402.51 490.19M402.51 490.19L402.01 490.19M402.01 490.19L403.45 490.19M403.45 490.19L400 490.19M400 490.19L392.49 490.19M392.49 490.19L384.98 490.19M384.98 490.19L384.85 490.19M384.85 490.19L384.85 490.19M384.85 490.19L384.78 490.19M384.78 490.19L384.72 490.19M384.72 490.19L384.46 490.19M384.46 490.19L384.21 490.19M384.21 490.19L384.21 490.19M384.21 490.19L384.08 490.19M384.08 490.19L383.95 490.19M383.95 490.19L383.78 490.19M383.78 490.19L383.61 490.19M383.61 490.19L383.44 490.19M383.44 490.19L383.44 490.19M383.44 490.19L383.27 490.19M383.27 490.19L383.18 490.19M383.18 490.19L383.18 490.19M383.18 490.19L383.14 490.19M383.14 490.19L383.1 490.19M383.1 490.19L383.1 490.19M383.1 490.19L382.93 490.19M382.93 490.19L382.93 490.19M382.93 490.19L382.58 490.19M382.58 490.19L382.58 490.19M382.58 490.19L382.53 490.19M382.53 490.19L382.53 490.19M382.53 490.19L382.48 490.18M382.48 490.18L382.48 490.18M382.48 490.18L382.28 490.14M382.28 490.14L382.28 490.14M382.28 490.14L381.95 489.97M381.95 489.97L381.95 489.97M381.95 489.97L381.71 489.7M381.71 489.7L381.71 489.7M381.71 489.7L381.58 489.41M381.58 489.41L381.58 489.41M381.58 489.41L381.56 489.31M381.56 489.31L381.56 489.31M381.56 489.31L381.56 489.26M381.56 489.26L381.56 489.26M381.56 489.26L381.55 489.21M381.55 489.21L381.55 489.21M381.55 489.21L381.55 489.15M381.55 489.15L381.55 489.15M381.55 489.15L381.54 487.42M381.54 487.42L381.54 487.42M381.54 487.42L381.55 485.68M381.55 485.68L381.55 485.68M381.55 485.68L381.55 482.21M381.55 482.21L381.55 481.78M381.55 481.78L381.55 481.34M381.55 481.34L381.55 480.91M381.55 480.91L381.55 480.47M381.55 480.47L381.55 480.04M381.55 480.04L381.55 479.61M381.55 479.61L381.55 478.74M381.55 478.74L381.55 478.3M381.55 478.3L381.55 477.87M381.55 477.87L381.55 477M381.55 477L381.55 476.13M381.55 476.13L381.55 475.27M381.55 475.27L381.55 473.53M381.55 473.53L381.55 471.79M381.55 471.79L381.55 469.19M381.55 469.19L381.55 466.59M381.55 466.59L381.55 461.38M381.55 461.38L381.55 452.05M381.55 452.05L381.55 442.71M381.55 442.71L381.55 424.05M381.55 424.05L381.55 405.39M381.55 405.39L381.55 386.72M381.55 386.72L381.55 349.4M381.55 349.4L381.55 330.73M381.55 330.73L381.55 312.07M381.55 312.07L381.55 287.93M381.55 287.93L381.55 213.28M381.55 213.28L381.55 138.62M381.55 138.62L381.55 135.15M381.55 135.15L381.55 131.68M381.55 131.68L381.55 129.94M381.55 129.94L381.55 128.21M381.55 128.21L381.55 126.47M381.55 126.47L381.55 124.73M381.55 124.73L381.55 123.87M381.55 123.87L381.55 123M381.55 123L381.55 122.13M381.55 122.13L381.55 121.26M381.55 121.26L381.55 120.39M381.55 120.39L381.55 119.53M381.55 119.53L381.55 119.09M381.55 119.09L381.55 118.66M381.55 118.66L381.55 118.22M381.55 118.22L381.55 117.79M381.55 117.79L381.55 117.79M381.55 117.79L381.55 114.32M381.55 114.32L381.55 114.32M381.55 114.32L381.54 112.58M381.54 112.58L381.54 112.58M381.54 112.58L381.55 110.85M381.55 110.85L381.55 110.85M381.55 110.85L381.55 110.79M381.55 110.79L381.55 110.79M381.55 110.79L381.56 110.74M381.56 110.74L381.56 110.74M381.56 110.74L381.58 110.59M381.58 110.59L381.58 110.59M381.58 110.59L381.74 110.25M381.74 110.25L381.74 110.25M381.74 110.25L381.95 110.03M381.95 110.03L381.95 110.03M381.95 110.03L382.23 109.88M382.23 109.88L382.23 109.88M382.23 109.88L382.43 109.82M382.43 109.82L382.43 109.82M382.43 109.82L382.48 109.82M382.48 109.82L382.48 109.82M382.48 109.82L382.53 109.81M382.53 109.81L382.53 109.81M382.53 109.81L382.58 109.81M382.58 109.81L382.58 109.81M382.58 109.81L382.93 109.81M382.93 109.81L382.93 109.81M382.93 109.81L383.27 109.81M383.27 109.81L383.35 109.81M383.35 109.81L383.44 109.81M383.44 109.81L383.61 109.81M383.61 109.81L383.78 109.81M383.78 109.81L383.95 109.81M383.95 109.81L385.96 109.81M385.96 109.81L387.96 109.81M387.96 109.81L389.97 109.81M389.97 109.81L391.98 109.81M391.98 109.81L395.99 109.81M395.99 109.81L400 109.81M400 109.81L403.45 109.81"
fill="none" stroke="black" stroke-width="0.5"/>
<path d="M403.45 105.67L400 105.67M400 105.67L377.41 105.67M377.41 105.67L377.41 287.93M377.41 287.93L377.41 312.07M377.41 312.07L377.41 494.33M377.41 494.33L400 494.33M400 494.33L403.45 494.33M403.45 494.33L422.59 494.33M422.59 494.33L422.59 312.07M422.59 312.07L422.59 287.93M422.59 287.93L422.59 105.67M422.59 105.67L403.45 105.67"
fill="none" stroke="black" stroke-width="0.5"/>
<path d="M403.45 94.81L400 94.81M400 94.81L386.39 94.81M386.39 94.81L372.78 94.81M372.78 94.81L372.16 94.81M372.16 94.81L371.54 94.81M371.54 94.81L371.23 94.81M371.23 94.81L370.92 94.81M370.92 94.81L370.61 94.81M370.61 94.81L370.46 94.81M370.46 94.81L370.3 94.81M370.3 94.81L369.99 94.81M369.99 94.81L369.84 94.81M369.84 94.81L369.68 94.81M369.68 94.81L369.68 94.81M369.68 94.81L369.06 94.81M369.06 94.81L369.06 94.81M369.06 94.81L368.45 94.81M368.45 94.81L368.45 94.81M368.45 94.81L368.4 94.81M368.4 94.81L368.4 94.81M368.4 94.81L368.36 94.8M368.36 94.8L368.36 94.8M368.36 94.8L368.23 94.78M368.23 94.78L368.23 94.78M368.23 94.78L368.01 94.65M368.01 94.65L368.01 94.65M368.01 94.65L367.84 94.45M367.84 94.45L367.84 94.45M367.84 94.45L367.77 94.25M367.77 94.25L367.77 94.25M367.77 94.25L367.76 94.21M367.76 94.21L367.76 94.21M367.76 94.21L367.76 94.16M367.76 94.16L367.76 94.16M367.76 94.16L367.76 94.12M367.76 94.12L367.76 94.12M367.76 94.12L367.76 93.67M367.76 93.67L367.76 93.67M367.76 93.67L367.76 93.23M367.76 93.23L367.76 93.12M367.76 93.12L367.76 93M367.76 93L367.76 92.78M367.76 92.78L367.76 92.56M367.76 92.56L367.76 92.33M367.76 92.33L367.76 91.27M367.76 91.27L367.76 90.21M367.76 90.21L367.76 88.09M367.76 88.09L367.76 85.97M367.76 85.97L367.76 83.86M367.76 83.86L367.76 79.62M367.76 79.62L367.76 77.5M367.76 77.5L367.76 75.38M367.76 75.38L367.76 74.48M367.76 74.48L367.76 73.59M367.76 73.59L367.76 73.37M367.76 73.37L367.76 73.14M367.76 73.14L367.76 72.92M367.76 72.92L367.76 72.7M367.76 72.7L367.76 72.47M367.76 72.47L367.76 72.36M367.76 72.36L367.76 72.25M367.76 72.25L367.76 72.25M367.76 72.25L367.76 71.81M367.76 71.81L367.76 71.81M367.76 71.81L367.76 71.36M367.76 71.36L367.76 71.36M367.76 71.36L367.76 71.32M367.76 71.32L367.76 71.32M367.76 71.32L367.76 71.27M367.76 71.27L367.76 71.27M367.76 71.27L367.8 71.11M367.8 71.11L367.8 71.11M367.8 71.11L367.94 70.89M367.94 70.89L367.94 70.89M367.94 70.89L368.15 70.74M368.15 70.74L368.15 70.74M368.15 70.74L368.32 70.68M368.32 70.68L368.32 70.68M368.32 70.68L368.36 70.67M368.36 70.67L368.36 70.67M368.36 70.67L368.4 70.67M368.4 70.67L368.4 70.67M368.4 70.67L368.45 70.67M368.45 70.67L368.45 70.67M368.45 70.67L369.06 70.67M369.06 70.67L369.06 70.67M369.06 70.67L369.68 70.67M369.68 70.67L369.68 70.67M369.68 70.67L370.3 70.67M370.3 70.67L370.61 70.67M370.61 70.67L370.92 70.67M370.92 70.67L371.69 70.67M371.69 70.67L372.47 70.67M372.47 70.67L374.01 70.67M374.01 70.67L377.26 70.67M377.26 70.67L380.51 70.67M380.51 70.67L383.76 70.67M383.76 70.67L387.01 70.67M387.01 70.67L393.5 70.67M393.5 70.67L396.75 70.67M396.75 70.67L400 70.67M400 70.67L403.45 70.67M403.45 70.67L413.61 70.67M413.61 70.67L427.22 70.67M427.22 70.67L427.84 70.67M427.84 70.67L428.46 70.67M428.46 70.67L428.77 70.67M428.77 70.67L429.08 70.67M429.08 70.67L429.39 70.67M429.39 70.67L429.54 70.67M429.54 70.67L429.7 70.67M429.7 70.67L430.01 70.67M430.01 70.67L430.16 70.67M430.16 70.67L430.32 70.67M430.32 70.67L430.32 70.67M430.32 70.67L430.94 70.67M430.94 70.67L430.94 70.67M430.94 70.67L431.55 70.67M431.55 70.67L431.57 70.67M431.57 70.67L431.58 70.67M431.58 70.67L431.58 70.67M431.58 70.67L431.6 70.67M431.6 70.67L431.6 70.67M431.6 70.67L431.64 70.67M431.64 70.67L431.64 70.67M431.64 70.67L431.77 70.7M431.77 70.7L431.77 70.7M431.77 70.7L431.99 70.83M431.99 70.83L431.99 70.83M431.99 70.83L432.16 71.03M432.16 71.03L432.16 71.03M432.16 71.03L432.23 71.23M432.23 71.23L432.23 71.23M432.23 71.23L432.24 71.27M432.24 71.27L432.24 71.27M432.24 71.27L432.24 71.32M432.24 71.32L432.24 71.32M432.24 71.32L432.24 71.34M432.24 71.34L432.24 71.34M432.24 71.34L432.24 71.36M432.24 71.36L432.24 71.36M432.24 71.36L432.24 71.81M432.24 71.81L432.24 71.81M432.24 71.81L432.24 72.25M432.24 72.25L432.24 72.36M432.24 72.36L432.24 72.47M432.24 72.47L432.24 72.7M432.24 72.7L432.24 72.92M432.24 72.92L432.24 73.14M432.24 73.14L432.24 74.2M432.24 74.2L432.24 75.26M432.24 75.26L432.24 77.38M432.24 77.38L432.24 79.5M432.24 79.5L432.24 81.62M432.24 81.62L432.24 85.86M432.24 85.86L432.24 87.98M432.24 87.98L432.24 90.1M432.24 90.1L432.24 91M432.24 91L432.24 91.89M432.24 91.89L432.24 92.11M432.24 92.11L432.24 92.33M432.24 92.33L432.24 92.56M432.24 92.56L432.24 92.78M432.24 92.78L432.24 93M432.24 93L432.24 93.12M432.24 93.12L432.24 93.23M432.24 93.23L432.24 93.23M432.24 93.23L432.24 93.67M432.24 93.67L432.24 93.67M432.24 93.67L432.24 94.12M432.24 94.12L432.24 94.12M432.24 94.12L432.24 94.14M432.24 94.14L432.24 94.14M432.24 94.14L432.24 94.16M432.24 94.16L432.24 94.16M432.24 94.16L432.24 94.21M432.24 94.21L432.24 94.21M432.24 94.21L432.21 94.33M432.21 94.33L432.21 94.33M432.21 94.33L432.09 94.56M432.09 94.56L432.09 94.56M432.09 94.56L431.89 94.72M431.89 94.72L431.89 94.72M431.89 94.72L431.68 94.8M431.68 94.8L431.68 94.8M431.68 94.8L431.64 94.8M431.64 94.8L431.64 94.8M431.64 94.8L431.6 94.81M431.6 94.81L431.6 94.81M431.6 94.81L431.55 94.81M431.55 94.81L431.55 94.81M431.55 94.81L430.94 94.81M430.94 94.81L430.94 94.81M430.94 94.81L430.32 94.81M430.32 94.81L430.16 94.81M430.16 94.81L430.01 94.81M430.01 94.81L429.7 94.81M429.7 94.81L429.54 94.81M429.54 94.81L429.39 94.81M429.39 94.81L429.08 94.81M429.08 94.81L428.31 94.81M428.31 94.81L427.53 94.81M427.53 94.81L425.99 94.81M425.99 94.81L422.74 94.81M422.74 94.81L419.49 94.81M419.49 94.81L416.24 94.81M416.24 94.81L412.99 94.81M412.99 94.81L406.5 94.81M406.5 94.81L403.25 94.81M403.25 94.81L403.45 94.81"
fill="none" stroke="black" stroke-width="0.5"/>
<path d="M432.24 30.67L432.24 44.46M432.24 44.46L432.24 69.46M432.24 69.46L403.45 69.46M403.45 69.46L400 69.46M400 69.46L367.76 69.46M367.76 69.46L367.76 44.46M367.76 44.46L367.76 30.67M367.76 30.67L367.76 5.66M367.76 5.66L400 5.66M400 5.66L403.45 5.66M403.45 5.66L432.24 5.66M432.24 5.66L432.24 30.67"
fill="none" stroke="black" stroke-width="0.5"/>
<path d="M403.45 505.19L413.61 505.19M413.61 505.19L427.22 505.19M427.22 505.19L427.84 505.19M427.84 505.19L428.46 505.19M428.46 505.19L428.77 505.19M428.77 505.19L429.08 505.19M429.08 505.19L429.39 505.19M429.39 505.19L429.7 505.19M429.7 505.19L429.7 505.19M429.7 505.19L430.32 505.19M430.32 505.19L430.32 505.19M430.32 505.19L430.94 505.19M430.94 505.19L430.94 505.19M430.94 505.19L431.55 505.19M431.55 505.19L431.55 505.19M431.55 505.19L431.6 505.19M431.6 505.19L431.6 505.19M431.6 505.19L431.64 505.2M431.64 505.2L431.64 505.2M431.64 505.2L431.77 505.22M431.77 505.22L431.77 505.22M431.77 505.22L431.99 505.35M431.99 505.35L431.99 505.35M431.99 505.35L432.16 505.55M432.16 505.55L432.16 505.55M432.16 505.55L432.23 505.75M432.23 505.75L432.23 505.75M432.23 505.75L432.24 505.79M432.24 505.79L432.24 505.79M432.24 505.79L432.24 505.84M432.24 505.84L432.24 505.84M432.24 505.84L432.24 505.88M432.24 505.88L432.24 505.88M432.24 505.88L432.24 506.33M432.24 506.33L432.24 506.33M432.24 506.33L432.24 506.77M432.24 506.77L432.24 506.88M432.24 506.88L432.24 507M432.24 507L432.24 507.22M432.24 507.22L432.24 507.44M432.24 507.44L432.24 507.67M432.24 507.67L432.24 508.73M432.24 508.73L432.24 509.79M432.24 509.79L432.24 511.91M432.24 511.91L432.24 514.02M432.24 514.02L432.24 516.14M432.24 516.14L432.24 520.38M432.24 520.38L432.24 522.5M432.24 522.5L432.24 524.62M432.24 524.62L432.24 525.52M432.24 525.52L432.24 526.41M432.24 526.41L432.24 526.63M432.24 526.63L432.24 526.86M432.24 526.86L432.24 527.08M432.24 527.08L432.24 527.3M432.24 527.3L432.24 527.53M432.24 527.53L432.24 527.64M432.24 527.64L432.24 527.75M432.24 527.75L432.24 527.75M432.24 527.75L432.24 528.19M432.24 528.19L432.24 528.19M432.24 528.19L432.24 528.64M432.24 528.64L432.24 528.64M432.24 528.64L432.24 528.68M432.24 528.68L432.24 528.68M432.24 528.68L432.24 528.73M432.24 528.73L432.24 528.73M432.24 528.73L432.21 528.85M432.21 528.85L432.21 528.85M432.21 528.85L432.09 529.08M432.09 529.08L432.09 529.08M432.09 529.08L431.89 529.25M431.89 529.25L431.89 529.25M431.89 529.25L431.68 529.32M431.68 529.32L431.68 529.32M431.68 529.32L431.64 529.33M431.64 529.33L431.64 529.33M431.64 529.33L431.6 529.33M431.6 529.33L431.6 529.33M431.6 529.33L431.58 529.33M431.58 529.33L431.55 529.33M431.55 529.33L431.55 529.33M431.55 529.33L430.94 529.33M430.94 529.33L430.94 529.33M430.94 529.33L430.32 529.33M430.32 529.33L430.32 529.33M430.32 529.33L430.01 529.33M430.01 529.33L429.7 529.33M429.7 529.33L429.7 529.33M429.7 529.33L429.39 529.33M429.39 529.33L429.08 529.33M429.08 529.33L428.31 529.33M428.31 529.33L427.53 529.33M427.53 529.33L426.76 529.33M426.76 529.33L426.57 529.33M426.57 529.33L426.57 529.33M426.57 529.33L426.37 529.33M426.37 529.33L425.99 529.33M425.99 529.33L425.58 529.33M425.58 529.33L425.48 529.33M425.48 529.33L425.48 529.33M425.48 529.33L425.38 529.33M425.38 529.33L425.17 529.33M425.17 529.33L424.36 529.33M424.36 529.33L424.36 529.33M424.36 529.33L422.74 529.33M422.74 529.33L422.74 529.33M422.74 529.33L419.49 529.33M419.49 529.33L419.49 529.33M419.49 529.33L419.39 529.33M419.39 529.33L419.29 529.33M419.29 529.33L419.08 529.33M419.08 529.33L418.68 529.33M418.68 529.33L417.86 529.33M417.86 529.33L416.24 529.33M416.24 529.33L415.43 529.33M415.43 529.33L415.23 529.33M415.23 529.33L415.23 529.33M415.23 529.33L415.02 529.33M415.02 529.33L414.62 529.33M414.62 529.33L412.99 529.33M412.99 529.33L411.37 529.33M411.37 529.33L410.96 529.33M410.96 529.33L410.96 529.33M410.96 529.33L410.76 529.33M410.76 529.33L410.56 529.33M410.56 529.33L409.74 529.33M409.74 529.33L408.12 529.33M408.12 529.33L407.71 529.33M407.71 529.33L407.71 529.33M407.71 529.33L407.51 529.33M407.51 529.33L407.31 529.33M407.31 529.33L406.5 529.33M406.5 529.33L404.87 529.33M404.87 529.33L404.47 529.33M404.47 529.33L404.47 529.33M404.47 529.33L404.26 529.33M404.26 529.33L404.06 529.33M404.06 529.33L403.25 529.33M403.25 529.33L403.45 529.33M403.45 529.33L400 529.33M400 529.33L386.39 529.33M386.39 529.33L379.58 529.33M379.58 529.33L372.78 529.33M372.78 529.33L372.16 529.33M372.16 529.33L371.54 529.33M371.54 529.33L371.23 529.33M371.23 529.33L370.92 529.33M370.92 529.33L370.92 529.33M370.92 529.33L370.3 529.33M370.3 529.33L369.99 529.33M369.99 529.33L369.99 529.33M369.99 529.33L369.68 529.33M369.68 529.33L369.68 529.33M369.68 529.33L369.06 529.33M369.06 529.33L369.06 529.33M369.06 529.33L368.45 529.33M368.45 529.33L368.42 529.33M368.42 529.33L368.42 529.33M368.42 529.33L368.4 529.33M368.4 529.33L368.4 529.33M368.4 529.33L368.36 529.33M368.36 529.33L368.36 529.33M368.36 529.33L368.23 529.3M368.23 529.3L368.23 529.3M368.23 529.3L368.01 529.17M368.01 529.17L368.01 529.17M368.01 529.17L367.84 528.97M367.84 528.97L367.84 528.97M367.84 528.97L367.77 528.77M367.77 528.77L367.77 528.77M367.77 528.77L367.76 528.73M367.76 528.73L367.76 528.73M367.76 528.73L367.76 528.68M367.76 528.68L367.76 528.68M367.76 528.68L367.76 528.64M367.76 528.64L367.76 528.64M367.76 528.64L367.76 528.19M367.76 528.19L367.76 528.19M367.76 528.19L367.76 527.75M367.76 527.75L367.76 527.64M367.76 527.64L367.76 527.53M367.76 527.53L367.76 527.3M367.76 527.3L367.76 527.08M367.76 527.08L367.76 526.86M367.76 526.86L367.76 525.91M367.76 525.91L367.76 524.96M367.76 524.96L367.76 524.01M367.76 524.01L367.76 523.06M367.76 523.06L367.76 521.17M367.76 521.17L367.76 519.27M367.76 519.27L367.76 517.93M367.76 517.93L367.76 516.59M367.76 516.59L367.76 513.91M367.76 513.91L367.76 511.24M367.76 511.24L367.76 508.56M367.76 508.56L367.76 508.11M367.76 508.11L367.76 507.67M367.76 507.67L367.76 507.44M367.76 507.44L367.76 507.22M367.76 507.22L367.76 507M367.76 507L367.76 506.88M367.76 506.88L367.76 506.77M367.76 506.77L367.76 506.77M367.76 506.77L367.76 506.33M367.76 506.33L367.76 506.33M367.76 506.33L367.76 505.88M367.76 505.88L367.76 505.88M367.76 505.88L367.76 505.86M367.76 505.86L367.76 505.86M367.76 505.86L367.76 505.84M367.76 505.84L367.76 505.84M367.76 505.84L367.76 505.79M367.76 505.79L367.76 505.79M367.76 505.79L367.79 505.67M367.79 505.67L367.79 505.67M367.79 505.67L367.91 505.44M367.91 505.44L367.91 505.44M367.91 505.44L368.11 505.28M368.11 505.28L368.11 505.28M368.11 505.28L368.32 505.2M368.32 505.2L368.32 505.2M368.32 505.2L368.36 505.2M368.36 505.2L368.36 505.2M368.36 505.2L368.4 505.19M368.4 505.19L368.4 505.19M368.4 505.19L368.45 505.19M368.45 505.19L368.45 505.19M368.45 505.19L369.06 505.19M369.06 505.19L369.06 505.19M369.06 505.19L369.68 505.19M369.68 505.19L369.68 505.19M369.68 505.19L370.3 505.19M370.3 505.19L370.61 505.19M370.61 505.19L370.92 505.19M370.92 505.19L371.15 505.19M371.15 505.19L371.21 505.19M371.21 505.19L371.21 505.19M371.21 505.19L371.27 505.19M371.27 505.19L371.38 505.19M371.38 505.19L371.85 505.19M371.85 505.19L372.78 505.19M372.78 505.19L373.24 505.19M373.24 505.19L373.36 505.19M373.36 505.19L373.36 505.19M373.36 505.19L373.41 505.19M373.41 505.19L373.47 505.19M373.47 505.19L373.7 505.19M373.7 505.19L374.63 505.19M374.63 505.19L376.22 505.19M376.22 505.19L377.8 505.19M377.8 505.19L377.8 505.19M377.8 505.19L377.9 505.19M377.9 505.19L378 505.19M378 505.19L378.2 505.19M378.2 505.19L378.6 505.19M378.6 505.19L379.39 505.19M379.39 505.19L380.97 505.19M380.97 505.19L387.32 505.19M387.32 505.19L388.9 505.19M388.9 505.19L389.3 505.19M389.3 505.19L389.3 505.19M389.3 505.19L389.5 505.19M389.5 505.19L389.69 505.19M389.69 505.19L390.49 505.19M390.49 505.19L392.07 505.19M392.07 505.19L392.47 505.19M392.47 505.19L392.47 505.19M392.47 505.19L392.67 505.19M392.67 505.19L392.87 505.19M392.87 505.19L393.66 505.19M393.66 505.19L395.24 505.19M395.24 505.19L395.64 505.19M395.64 505.19L395.64 505.19M395.64 505.19L395.84 505.19M395.84 505.19L396.04 505.19M396.04 505.19L396.83 505.19M396.83 505.19L400 505.19M400 505.19L403.45 505.19"
fill="none" stroke="black" stroke-width="0.5"/>
<path d="M403.45 594.34L400 594.34M400 594.34L367.76 594.34M367.76 594.34L367.76 569.33M367.76 569.33L367.76 555.54M367.76 555.54L367.76 530.54M367.76 530.54L400 530.54M400 530.54L403.45 530.54M403.45 530.54L432.24 530.54M432.24 530.54L432.24 555.54M432.24 555.54L432.24 569.33M432.24 569.33L432.24 594.34M432.24 594.34L403.45 594.34"
fill="none" stroke="black" stroke-width="0.5"/>
<path d="M433.45 30.67L433.45 19.81M433.45 19.81L433.45 8.95M433.45 8.95L433.45 8.45M433.45 8.45L433.45 7.96M433.45 7.96L433.45 7.71M433.45 7.71L433.45 7.47M433.45 7.47L433.45 7.22M433.45 7.22L433.45 6.97M433.45 6.97L433.45 6.73M433.45 6.73L433.45 6.6M433.45 6.6L433.45 6.48M433.45 6.48L433.45 6.48M433.45 6.48L433.45 5.98M433.45 5.98L433.45 5.98M433.45 5.98L433.45 5.49M433.45 5.49L433.45 5.49M433.45 5.49L433.45 5.44M433.45 5.44L433.45 5.44M433.45 5.44L433.45 5.39M433.45 5.39L433.45 5.39M433.45 5.39L433.4 5.18M433.4 5.18L433.4 5.18M433.4 5.18L433.23 4.86M433.23 4.86L433.23 4.86M433.23 4.86L432.96 4.61M432.96 4.61L432.96 4.61M432.96 4.61L432.68 4.49M432.68 4.49L432.68 4.49M432.68 4.49L432.57 4.47M432.57 4.47L432.57 4.47M432.57 4.47L432.52 4.46M432.52 4.46L432.52 4.46M432.52 4.46L432.47 4.46M432.47 4.46L432.47 4.46M432.47 4.46L432.42 4.46M432.42 4.46L432.42 4.46M432.42 4.46L431.78 4.46M431.78 4.46L431.78 4.46M431.78 4.46L431.46 4.46M431.46 4.46L431.3 4.46M431.3 4.46L431.15 4.46M431.15 4.46L430.99 4.46M430.99 4.46L430.83 4.46M430.83 4.46L430.51 4.46M430.51 4.46L430.19 4.46M430.19 4.46L429.87 4.46M429.87 4.46L428.76 4.46M428.76 4.46L427.65 4.46M427.65 4.46L426.54 4.46M426.54 4.46L425.42 4.46M425.42 4.46L420.98 4.46M420.98 4.46L418.35 4.46M418.35 4.46L415.73 4.46M415.73 4.46L413.11 4.46M413.11 4.46L410.49 4.46M410.49 4.46L405.24 4.46M405.24 4.46L403.45 4.46M403.45 4.46L400 4.46M400 4.46L386.02 4.46M386.02 4.46L372.03 4.46M372.03 4.46L371.4 4.46M371.4 4.46L370.76 4.46M370.76 4.46L370.44 4.46M370.44 4.46L370.13 4.46M370.13 4.46L369.81 4.46M369.81 4.46L369.49 4.46M369.49 4.46L369.17 4.46M369.17 4.46L369.01 4.46M369.01 4.46L368.85 4.46M368.85 4.46L368.7 4.46M368.7 4.46L368.54 4.46M368.54 4.46L368.54 4.46M368.54 4.46L368.22 4.46M368.22 4.46L368.22 4.46M368.22 4.46L367.58 4.46M367.58 4.46L367.58 4.46M367.58 4.46L367.53 4.46M367.53 4.46L367.53 4.46M367.53 4.46L367.48 4.46M367.48 4.46L367.48 4.46M367.48 4.46L367.27 4.5M367.27 4.5L367.27 4.5M367.27 4.5L366.95 4.67M366.95 4.67L366.95 4.67M366.95 4.67L366.71 4.94M366.71 4.94L366.71 4.94M366.71 4.94L366.58 5.23M366.58 5.23L366.58 5.23M366.58 5.23L366.56 5.33M366.56 5.33L366.56 5.33M366.56 5.33L366.55 5.39M366.55 5.39L366.55 5.39M366.55 5.39L366.55 5.44M366.55 5.44L366.55 5.44M366.55 5.44L366.55 5.49M366.55 5.49L366.55 5.49M366.55 5.49L366.55 5.98M366.55 5.98L366.55 5.98M366.55 5.98L366.55 6.48M366.55 6.48L366.55 6.6M366.55 6.6L366.55 6.73M366.55 6.73L366.55 6.97M366.55 6.97L366.55 7.22M366.55 7.22L366.55 7.47M366.55 7.47L366.55 8.92M366.55 8.92L366.55 10.37M366.55 10.37L366.55 13.27M366.55 13.27L366.55 16.17M366.55 16.17L366.55 19.07M366.55 19.07L366.55 24.87M366.55 24.87L366.55 27.77M366.55 27.77L366.55 30.67M366.55 30.67L366.55 44.46M366.55 44.46L366.55 287.93M366.55 287.93L366.55 312.07M366.55 312.07L366.55 555.54M366.55 555.54L366.55 569.33M366.55 569.33L366.55 580.19M366.55 580.19L366.55 591.05M366.55 591.05L366.55 591.55M366.55 591.55L366.55 592.04M366.55 592.04L366.55 592.29M366.55 592.29L366.55 592.53M366.55 592.53L366.55 592.78M366.55 592.78L366.55 593.03M366.55 593.03L366.55 593.27M366.55 593.27L366.55 593.4M366.55 593.4L366.55 593.52M366.55 593.52L366.55 593.52M366.55 593.52L366.55 594.02M366.55 594.02L366.55 594.02M366.55 594.02L366.55 594.51M366.55 594.51L366.55 594.51M366.55 594.51L366.55 594.56M366.55 594.56L366.55 594.56M366.55 594.56L366.55 594.61M366.55 594.61L366.55 594.61M366.55 594.61L366.6 594.82M366.6 594.82L366.6 594.82M366.6 594.82L366.77 595.14M366.77 595.14L366.77 595.14M366.77 595.14L367.04 595.39M367.04 595.39L367.04 595.39M367.04 595.39L367.32 595.51M367.32 595.51L367.32 595.51M367.32 595.51L367.43 595.53M367.43 595.53L367.43 595.53M367.43 595.53L367.48 595.54M367.48 595.54L367.48 595.54M367.48 595.54L367.53 595.54M367.53 595.54L367.53 595.54M367.53 595.54L367.58 595.54M367.58 595.54L367.58 595.54M367.58 595.54L368.22 595.54M368.22 595.54L368.22 595.54M368.22 595.54L368.54 595.54M368.54 595.54L368.7 595.54M368.7 595.54L368.7 595.54M368.7 595.54L368.78 595.54M368.78 595.54L368.85 595.54M368.85 595.54L369.01 595.54M369.01 595.54L369.17 595.54M369.17 595.54L369.49 595.54M369.49 595.54L369.65 595.54M369.65 595.54L369.81 595.54M369.81 595.54L370.13 595.54M370.13 595.54L370.4 595.54M370.4 595.54L370.47 595.54M370.47 595.54L370.47 595.54M370.47 595.54L370.54 595.54M370.54 595.54L370.68 595.54M370.68 595.54L371.24 595.54M371.24 595.54L372.35 595.54M372.35 595.54L374.58 595.54M374.58 595.54L379.02 595.54M379.02 595.54L379.68 595.54M379.68 595.54L379.84 595.54M379.84 595.54L379.84 595.54M379.84 595.54L380.01 595.54M380.01 595.54L380.34 595.54M380.34 595.54L381.65 595.54M381.65 595.54L384.27 595.54M384.27 595.54L386.89 595.54M386.89 595.54L387.55 595.54M387.55 595.54L387.71 595.54M387.71 595.54L387.71 595.54M387.71 595.54L387.87 595.54M387.87 595.54L388.2 595.54M388.2 595.54L389.51 595.54M389.51 595.54L394.76 595.54M394.76 595.54L394.76 595.54M394.76 595.54L394.92 595.54M394.92 595.54L395.08 595.54M395.08 595.54L395.41 595.54M395.41 595.54L396.07 595.54M396.07 595.54L397.38 595.54M397.38 595.54L400 595.54M400 595.54L403.45 595.54M403.45 595.54L413.98 595.54M413.98 595.54L420.98 595.54M420.98 595.54L427.97 595.54M427.97 595.54L428.6 595.54M428.6 595.54L429.24 595.54M429.24 595.54L429.56 595.54M429.56 595.54L429.87 595.54M429.87 595.54L430.19 595.54M430.19 595.54L430.35 595.54M430.35 595.54L430.51 595.54M430.51 595.54L430.83 595.54M430.83 595.54L430.99 595.54M430.99 595.54L431.15 595.54M431.15 595.54L431.15 595.54M431.15 595.54L431.78 595.54M431.78 595.54L431.78 595.54M431.78 595.54L432.42 595.54M432.42 595.54L432.42 595.54M432.42 595.54L432.47 595.54M432.47 595.54L432.47 595.54M432.47 595.54L432.52 595.54M432.52 595.54L432.52 595.54M432.52 595.54L432.73 595.5M432.73 595.5L432.73 595.5M432.73 595.5L433.05 595.33M433.05 595.33L433.05 595.33M433.05 595.33L433.29 595.06M433.29 595.06L433.29 595.06M433.29 595.06L433.42 594.77M433.42 594.77L433.42 594.77M433.42 594.77L433.44 594.67M433.44 594.67L433.44 594.67M433.44 594.67L433.45 594.61M433.45 594.61L433.45 594.61M433.45 594.61L433.45 594.56M433.45 594.56L433.45 594.56M433.45 594.56L433.45 594.51M433.45 594.51L433.45 594.51M433.45 594.51L433.45 594.02M433.45 594.02L433.45 594.02M433.45 594.02L433.45 593.52M433.45 593.52L433.45 593.4M433.45 593.4L433.45 593.27M433.45 593.27L433.45 593.03M433.45 593.03L433.45 592.78M433.45 592.78L433.45 592.53M433.45 592.53L433.45 591.08M433.45 591.08L433.45 589.63M433.45 589.63L433.45 586.73M433.45 586.73L433.45 583.83M433.45 583.83L433.45 580.93M433.45 580.93L433.45 575.13M433.45 575.13L433.45 572.23M433.45 572.23L433.45 569.33M433.45 569.33L433.45 555.54M433.45 555.54L433.45 312.07M433.45 312.07L433.45 287.93M433.45 287.93L433.45 44.46M433.45 44.46L433.45 30.67"
fill="none" stroke="black" stroke-width="0.5"/>
<path d="M432.24 96.02L432.24 287.93M432.24 287.93L432.24 312.07M432.24 312.07L432.24 503.98M432.24 503.98L403.45 503.98M403.45 503.98L400 503.98M400 503.98L367.76 503.98M367.76 503.98L367.76 312.07M367.76 312.07L367.76 287.93M367.76 287.93L367.76 96.02M367.76 96.02L400 96.02M400 96.02L403.45 96.02M403.45 96.02L432.24 96.02"
fill="none" stroke="black" stroke-width="0.5"/>
<path d="M381.55 569.33L381.55 555.54M381.55 555.54L381.55 551.05M381.55 551.05L381.55 546.56M381.55 546.56L381.55 546.36M381.55 546.36L381.55 546.16M381.55 546.16L381.55 546.06M381.55 546.06L381.55 545.96M381.55 545.96L381.55 545.87M381.55 545.87L381.55 545.77M381.55 545.77L381.55 545.67M381.55 545.67L381.55 545.67M381.55 545.67L381.55 545.57M381.55 545.57L381.55 545.57M381.55 545.57L381.55 545.37M381.55 545.37L381.55 545.37M381.55 545.37L381.55 545.31M381.55 545.31L381.55 545.31M381.55 545.31L381.56 545.26M381.56 545.26L381.56 545.26M381.56 545.26L381.6 545.06M381.6 545.06L381.6 545.06M381.6 545.06L381.77 544.73M381.77 544.73L381.77 544.73M381.77 544.73L382.04 544.49M382.04 544.49L382.04 544.49M382.04 544.49L382.33 544.36M382.33 544.36L382.33 544.36M382.33 544.36L382.43 544.34M382.43 544.34L382.43 544.34M382.43 544.34L382.48 544.34M382.48 544.34L382.48 544.34M382.48 544.34L382.53 544.33M382.53 544.33L382.53 544.33M382.53 544.33L382.58 544.33M382.58 544.33L382.58 544.33M382.58 544.33L382.93 544.33M382.93 544.33L382.93 544.33M382.93 544.33L383.1 544.33M383.1 544.33L383.14 544.33M383.14 544.33L383.14 544.33M383.14 544.33L383.18 544.33M383.18 544.33L383.27 544.33M383.27 544.33L383.27 544.33M383.27 544.33L383.44 544.33M383.44 544.33L383.61 544.33M383.61 544.33L383.78 544.33M383.78 544.33L383.95 544.33M383.95 544.33L383.95 544.33M383.95 544.33L384.45 544.33M384.45 544.33L384.45 544.33M384.45 544.33L384.95 544.33M384.95 544.33L384.95 544.33M384.95 544.33L385.96 544.33M385.96 544.33L385.96 544.33M385.96 544.33L387.96 544.33M387.96 544.33L387.96 544.33M387.96 544.33L388.03 544.33M388.03 544.33L388.09 544.33M388.09 544.33L388.21 544.33M388.21 544.33L388.46 544.33M388.46 544.33L388.97 544.33M388.97 544.33L389.97 544.33M389.97 544.33L390.47 544.33M390.47 544.33L390.6 544.33M390.6 544.33L390.6 544.33M390.6 544.33L390.72 544.33M390.72 544.33L390.97 544.33M390.97 544.33L391.98 544.33M391.98 544.33L393.98 544.33M393.98 544.33L394.48 544.33M394.48 544.33L394.61 544.33M394.61 544.33L394.61 544.33M394.61 544.33L394.67 544.33M394.67 544.33L394.67 544.33M394.67 544.33L394.73 544.33M394.73 544.33L394.98 544.33M394.98 544.33L395.99 544.33M395.99 544.33L396.99 544.33M396.99 544.33L397.24 544.33M397.24 544.33L397.24 544.33M397.24 544.33L397.37 544.33M397.37 544.33L397.49 544.33M397.49 544.33L397.99 544.33M397.99 544.33L400 544.33M400 544.33L403.45 544.33M403.45 544.33L407.51 544.33M407.51 544.33L415.02 544.33M415.02 544.33L415.54 544.33M415.54 544.33L415.79 544.33M415.79 544.33L416.05 544.33M416.05 544.33L416.22 544.33M416.22 544.33L416.39 544.33M416.39 544.33L416.56 544.33M416.56 544.33L416.56 544.33M416.56 544.33L416.73 544.33M416.73 544.33L416.82 544.33M416.82 544.33L416.82 544.33M416.82 544.33L416.86 544.33M416.86 544.33L416.9 544.33M416.9 544.33L416.9 544.33M416.9 544.33L417.07 544.33M417.07 544.33L417.07 544.33M417.07 544.33L417.42 544.33M417.42 544.33L417.42 544.33M417.42 544.33L417.47 544.33M417.47 544.33L417.47 544.33M417.47 544.33L417.52 544.34M417.52 544.34L417.52 544.34M417.52 544.34L417.72 544.38M417.72 544.38L417.72 544.38M417.72 544.38L418.05 544.55M418.05 544.55L418.05 544.55M418.05 544.55L418.29 544.82M418.29 544.82L418.29 544.82M418.29 544.82L418.42 545.11M418.42 545.11L418.42 545.11M418.42 545.11L418.44 545.21M418.44 545.21L418.44 545.21M418.44 545.21L418.44 545.26M418.44 545.26L418.44 545.26M418.44 545.26L418.45 545.31M418.45 545.31L418.45 545.31M418.45 545.31L418.45 545.37M418.45 545.37L418.45 545.37M418.45 545.37L418.45 545.57M418.45 545.57L418.45 545.57M418.45 545.57L418.45 545.67M418.45 545.67L418.45 545.77M418.45 545.77L418.45 545.87M418.45 545.87L418.45 545.96M418.45 545.96L418.45 546.29M418.45 546.29L418.45 546.61M418.45 546.61L418.45 546.94M418.45 546.94L418.45 547.26M418.45 547.26L418.45 548.56M418.45 548.56L418.45 549.43M418.45 549.43L418.45 550.3M418.45 550.3L418.45 551.18M418.45 551.18L418.45 552.05M418.45 552.05L418.45 553.79M418.45 553.79L418.45 554.67M418.45 554.67L418.45 555.54M418.45 555.54L418.45 569.33M418.45 569.33L418.45 573.82M418.45 573.82L418.45 578.31M418.45 578.31L418.45 578.51M418.45 578.51L418.45 578.71M418.45 578.71L418.45 578.81M418.45 578.81L418.45 578.91M418.45 578.91L418.45 579.01M418.45 579.01L418.45 579.11M418.45 579.11L418.45 579.21M418.45 579.21L418.45 579.21M418.45 579.21L418.45 579.31M418.45 579.31L418.45 579.31M418.45 579.31L418.45 579.51M418.45 579.51L418.45 579.51M418.45 579.51L418.45 579.56M418.45 579.56L418.45 579.56M418.45 579.56L418.44 579.61M418.44 579.61L418.44 579.61M418.44 579.61L418.4 579.82M418.4 579.82L418.4 579.82M418.4 579.82L418.23 580.14M418.23 580.14L418.23 580.14M418.23 580.14L417.96 580.39M417.96 580.39L417.96 580.39M417.96 580.39L417.67 580.51M417.67 580.51L417.67 580.51M417.67 580.51L417.57 580.53M417.57 580.53L417.57 580.53M417.57 580.53L417.52 580.54M417.52 580.54L417.52 580.54M417.52 580.54L417.47 580.54M417.47 580.54L417.47 580.54M417.47 580.54L417.42 580.54M417.42 580.54L417.42 580.54M417.42 580.54L417.07 580.54M417.07 580.54L417.07 580.54M417.07 580.54L416.73 580.54M416.73 580.54L416.56 580.54M416.56 580.54L416.39 580.54M416.39 580.54L416.22 580.54M416.22 580.54L416.05 580.54M416.05 580.54L414.04 580.54M414.04 580.54L414.04 580.54M414.04 580.54L413.98 580.54M413.98 580.54L413.92 580.54M413.92 580.54L413.79 580.54M413.79 580.54L413.54 580.54M413.54 580.54L413.04 580.54M413.04 580.54L412.04 580.54M412.04 580.54L408.02 580.54M408.02 580.54L404.01 580.54M404.01 580.54L404.01 580.54M404.01 580.54L403.89 580.54M403.89 580.54L403.76 580.54M403.76 580.54L403.51 580.54M403.51 580.54L403.01 580.54M403.01 580.54L402.01 580.54M402.01 580.54L403.45 580.54M403.45 580.54L400 580.54M400 580.54L392.49 580.54M392.49 580.54L384.98 580.54M384.98 580.54L384.46 580.54M384.46 580.54L383.95 580.54M383.95 580.54L383.78 580.54M383.78 580.54L383.61 580.54M383.61 580.54L383.44 580.54M383.44 580.54L383.44 580.54M383.44 580.54L383.27 580.54M383.27 580.54L383.27 580.54M383.27 580.54L382.93 580.54M382.93 580.54L382.93 580.54M382.93 580.54L382.58 580.54M382.58 580.54L382.58 580.54M382.58 580.54L382.53 580.54M382.53 580.54L382.53 580.54M382.53 580.54L382.48 580.54M382.48 580.54L382.48 580.54M382.48 580.54L382.27 580.49M382.27 580.49L382.27 580.49M382.27 580.49L381.95 580.33M381.95 580.33L381.95 580.33M381.95 580.33L381.71 580.05M381.71 580.05L381.71 580.05M381.71 580.05L381.58 579.77M381.58 579.77L381.58 579.77M381.58 579.77L381.56 579.66M381.56 579.66L381.56 579.66M381.56 579.66L381.56 579.61M381.56 579.61L381.56 579.61M381.56 579.61L381.55 579.56M381.55 579.56L381.55 579.56M381.55 579.56L381.55 579.51M381.55 579.51L381.55 579.51M381.55 579.51L381.55 579.31M381.55 579.31L381.55 579.31M381.55 579.31L381.55 579.11M381.55 579.11L381.55 579.11M381.55 579.11L381.55 578.91M381.55 578.91L381.55 578.58M381.55 578.58L381.55 578.26M381.55 578.26L381.55 577.61M381.55 577.61L381.55 576.96M381.55 576.96L381.55 576.32M381.55 576.32L381.55 575.44M381.55 575.44L381.55 574.57M381.55 574.57L381.55 573.7M381.55 573.7L381.55 572.82M381.55 572.82L381.55 571.08M381.55 571.08L381.55 570.21M381.55 570.21L381.55 569.33"
fill="none" stroke="black" stroke-width="0.5"/>
<path d="M377.41 569.33L377.41 584.68M377.41 584.68L400 584.68M400 584.68L403.45 584.68M403.45 584.68L422.59 584.68M422.59 584.68L422.59 569.33M422.59 569.33L422.59 555.54M422.59 555.54L422.59 540.19M422.59 540.19L403.45 540.19M403.45 540.19L400 540.19M400 540.19L377.41 540.19M377.41 540.19L377.41 555.54M377.41 555.54L377.41 569.33"
fill="none" stroke="black" stroke-width="0.5"/>
<path d="M432.42 3.42L367.58 3.42M367.58 3.42L367.58 3.42M367.58 3.42L366.79 3.58M366.79 3.58L366.12 4.03M366.12 4.03L365.67 4.7M365.67 4.7L365.51 5.49M365.51 5.49L365.51 594.51M365.51 594.51L365.51 594.51M365.51 594.51L365.67 595.3M365.67 595.3L366.12 595.97M366.12 595.97L366.79 596.42M366.79 596.42L367.58 596.58M367.58 596.58L432.42 596.58M432.42 596.58L432.42 596.58M432.42 596.58L433.21 596.42M433.21 596.42L433.88 595.97M433.88 595.97L434.33 595.3M434.33 595.3L434.49 594.51M434.49 594.51L434.49 5.49M434.49 5.49L434.49 5.49M434.49 5.49L434.33 4.7M434.33 4.7L433.88 4.03M433.88 4.03L433.21 3.58M433.21 3.58L432.42 3.42"
fill="none" stroke="black" stroke-width="0.5"/>
</svg>
