<?xml version="1.0" encoding="UTF-8"?>
<svg xmlns="http://www.w3.org/2000/svg" width="800.000" height="600.000" viewBox="0.0 0.0 800.000 600.000" version="1.1">
  <title>Produce by Acme CAD Converter</title>
  <desc>Produce by Acme CAD Converter</desc>
<path d="M444.83 1.7L355.17 1.7M355.17 1.7L355.17 598.3M355.17 598.3L444.83 598.3M444.83 598.3L444.83 1.7"
fill="none" stroke="black" stroke-width="0.5"/>
<path d="M443.11 3.42L356.89 3.42M356.89 3.42L356.89 596.58M356.89 596.58L443.11 596.58M443.11 596.58L443.11 3.42"
fill="none" stroke="black" stroke-width="0.5"/>
<path d="M380.52 569.33L380.52 570.5M380.52 570.5L380.52 571.66M380.52 571.66L380.52 571.71M380.52 571.71L380.52 571.77M380.52 571.77L380.52 571.79M380.52 571.79L380.52 571.82M380.52 571.82L380.52 571.84M380.52 571.84L380.52 571.87M380.52 571.87L380.52 571.87M380.52 571.87L380.52 571.92M380.52 571.92L380.52 571.92M380.52 571.92L380.52 571.97M380.52 571.97L380.52 571.97M380.52 571.97L380.52 572.03M380.52 572.03L380.52 572.03M380.52 572.03L380.58 572.28M380.58 572.28L380.58 572.28M380.58 572.28L380.77 572.59M380.77 572.59L380.77 572.59M380.77 572.59L381.05 572.83M381.05 572.83L381.05 572.83M381.05 572.83L381.39 572.94M381.39 572.94L381.39 572.94M381.39 572.94L381.45 572.95M381.45 572.95L381.45 572.95M381.45 572.95L381.5 572.95M381.5 572.95L381.5 572.95M381.5 572.95L381.55 572.96M381.55 572.96L381.55 572.96M381.55 572.96L381.74 572.96M381.74 572.96L381.74 572.96M381.74 572.96L381.94 572.96M381.94 572.96L382.03 572.96M382.03 572.96L382.13 572.96M382.13 572.96L382.24 572.96M382.24 572.96L382.24 572.96M382.24 572.96L382.36 572.96M382.36 572.96L382.59 572.96M382.59 572.96L382.7 572.96M382.7 572.96L382.7 572.96M382.7 572.96L382.81 572.95M382.81 572.95L383.04 572.95M383.04 572.95L383.5 572.95M383.5 572.95L383.73 572.95M383.73 572.95L383.84 572.95M383.84 572.95L383.84 572.95M383.84 572.95L383.96 572.95M383.96 572.95L384.87 572.96M384.87 572.96L385.1 572.96M385.1 572.96L385.16 572.96M385.16 572.96L385.16 572.96M385.16 572.96L385.22 572.96M385.22 572.96L385.33 572.96M385.33 572.96L385.79 572.96M385.79 572.96L386.14 572.96M386.14 572.96L386.23 572.96M386.23 572.96L386.23 572.96M386.23 572.96L386.31 572.96M386.31 572.96L386.49 572.96M386.49 572.96L387.19 572.96M387.19 572.96L387.89 572.96M387.89 572.96L388.24 572.96M388.24 572.96L388.41 572.96M388.41 572.96L388.5 572.96M388.5 572.96L388.5 572.96M388.5 572.96L388.58 572.96M388.58 572.96L389.98 572.96M389.98 572.96L389.98 572.96M389.98 572.96L390.16 572.96M390.16 572.96L390.33 572.96M390.33 572.96L390.68 572.96M390.68 572.96L391.38 572.96M391.38 572.96L412.07 572.96M412.07 572.96L412.96 572.96M412.96 572.96L417.29 572.96M417.29 572.96L417.49 572.96M417.49 572.96L417.68 572.96M417.68 572.96L417.78 572.96M417.78 572.96L417.87 572.96M417.87 572.96L417.97 572.96M417.97 572.96L418.06 572.96M418.06 572.96L418.16 572.96M418.16 572.96L418.16 572.96M418.16 572.96L418.26 572.96M418.26 572.96L418.26 572.96M418.26 572.96L418.45 572.96M418.45 572.96L418.45 572.96M418.45 572.96L418.5 572.95M418.5 572.95L418.5 572.95M418.5 572.95L418.55 572.95M418.55 572.95L418.55 572.95M418.55 572.95L418.76 572.91M418.76 572.91L418.76 572.91M418.76 572.91L419.08 572.74M419.08 572.74L419.08 572.74M419.08 572.74L419.33 572.47M419.33 572.47L419.33 572.47M419.33 572.47L419.45 572.18M419.45 572.18L419.45 572.18M419.45 572.18L419.48 572.03M419.48 572.03L419.48 572.03M419.48 572.03L419.48 571.97M419.48 571.97L419.48 571.97M419.48 571.97L419.48 571.92M419.48 571.92L419.48 571.92M419.48 571.92L419.48 571.87M419.48 571.87L419.48 571.84M419.48 571.84L419.48 571.82M419.48 571.82L419.48 571.66M419.48 571.66L419.48 571.51M419.48 571.51L419.48 571.2M419.48 571.2L419.49 570.89M419.49 570.89L419.48 570.58M419.48 570.58L419.48 569.95M419.48 569.95L419.48 569.64M419.48 569.64L419.48 569.33M419.48 569.33L419.48 555.54M419.48 555.54L419.48 554.38M419.48 554.38L419.48 553.21M419.48 553.21L419.48 553.16M419.48 553.16L419.48 553.11M419.48 553.11L419.48 553.08M419.48 553.08L419.48 553.06M419.48 553.06L419.48 553.03M419.48 553.03L419.48 553.01M419.48 553.01L419.48 553.01M419.48 553.01L419.48 552.95M419.48 552.95L419.48 552.95M419.48 552.95L419.48 552.9M419.48 552.9L419.48 552.9M419.48 552.9L419.48 552.85M419.48 552.85L419.48 552.85M419.48 552.85L419.42 552.59M419.42 552.59L419.42 552.59M419.42 552.59L419.23 552.28M419.23 552.28L419.23 552.28M419.23 552.28L418.95 552.05M418.95 552.05L418.95 552.05M418.95 552.05L418.61 551.93M418.61 551.93L418.61 551.93M418.61 551.93L418.55 551.92M418.55 551.92L418.55 551.92M418.55 551.92L418.5 551.92M418.5 551.92L418.5 551.92M418.5 551.92L418.45 551.92M418.45 551.92L418.45 551.92M418.45 551.92L418.26 551.92M418.26 551.92L418.26 551.92M418.26 551.92L418.16 551.92M418.16 551.92L418.06 551.92M418.06 551.92L417.97 551.92M417.97 551.92L417.87 551.92M417.87 551.92L417.76 551.92M417.76 551.92L417.76 551.92M417.76 551.92L417.64 551.92M417.64 551.92L417.41 551.92M417.41 551.92L417.3 551.92M417.3 551.92L417.3 551.92M417.3 551.92L417.19 551.92M417.19 551.92L416.96 551.92M416.96 551.92L416.5 551.92M416.5 551.92L416.38 551.92M416.38 551.92L416.38 551.92M416.38 551.92L416.27 551.92M416.27 551.92L416.04 551.92M416.04 551.92L415.58 551.92M415.58 551.92L415.47 551.92M415.47 551.92L415.47 551.92M415.47 551.92L415.35 551.92M415.35 551.92L415.13 551.92M415.13 551.92L415.01 551.92M415.01 551.92L415.01 551.92M415.01 551.92L414.9 551.92M414.9 551.92L414.67 551.92M414.67 551.92L414.55 551.92M414.55 551.92L414.55 551.92M414.55 551.92L414.44 551.92M414.44 551.92L414.21 551.92M414.21 551.92L413.86 551.92M413.86 551.92L413.77 551.92M413.77 551.92L413.77 551.92M413.77 551.92L413.69 551.92M413.69 551.92L413.51 551.92M413.51 551.92L412.81 551.92M412.81 551.92L412.46 551.92M412.46 551.92L412.38 551.92M412.38 551.92L412.38 551.92M412.38 551.92L412.29 551.92M412.29 551.92L412.11 551.92M412.11 551.92L411.42 551.92M411.42 551.92L413.47 551.92M413.47 551.92L413.47 551.92M413.47 551.92L413.29 551.92M413.29 551.92L413.12 551.92M413.12 551.92L412.77 551.92M412.77 551.92L412.07 551.92M412.07 551.92L391.38 551.92M391.38 551.92L387.04 551.92M387.04 551.92L382.71 551.92M382.71 551.92L382.51 551.92M382.51 551.92L382.32 551.92M382.32 551.92L382.22 551.92M382.22 551.92L382.13 551.92M382.13 551.92L382.03 551.92M382.03 551.92L382.03 551.92M382.03 551.92L381.94 551.92M381.94 551.92L381.84 551.92M381.84 551.92L381.84 551.92M381.84 551.92L381.74 551.92M381.74 551.92L381.74 551.92M381.74 551.92L381.55 551.92M381.55 551.92L381.55 551.92M381.55 551.92L381.5 551.92M381.5 551.92L381.5 551.92M381.5 551.92L381.45 551.92M381.45 551.92L381.45 551.92M381.45 551.92L381.24 551.97M381.24 551.97L381.24 551.97M381.24 551.97L380.92 552.14M380.92 552.14L380.92 552.14M380.92 552.14L380.67 552.41M380.67 552.41L380.67 552.41M380.67 552.41L380.55 552.69M380.55 552.69L380.55 552.69M380.55 552.69L380.52 552.85M380.52 552.85L380.52 552.85M380.52 552.85L380.52 552.9M380.52 552.9L380.52 552.9M380.52 552.9L380.52 552.95M380.52 552.95L380.52 552.95M380.52 552.95L380.52 553.01M380.52 553.01L380.52 553.03M380.52 553.03L380.52 553.06M380.52 553.06L380.52 553.21M380.52 553.21L380.52 553.37M380.52 553.37L380.52 553.68M380.52 553.68L380.51 553.99M380.51 553.99L380.52 554.3M380.52 554.3L380.52 554.92M380.52 554.92L380.52 555.23M380.52 555.23L380.52 555.54M380.52 555.54L380.52 569.33"
fill="none" stroke="black" stroke-width="0.5"/>
<path d="M391.38 506.23L378.21 506.23M378.21 506.23L365.05 506.23M365.05 506.23L364.45 506.23M364.45 506.23L363.85 506.23M363.85 506.23L363.55 506.23M363.55 506.23L363.25 506.23M363.25 506.23L362.95 506.23M362.95 506.23L362.65 506.23M362.65 506.23L362.65 506.23M362.65 506.23L362.06 506.23M362.06 506.23L362.06 506.23M362.06 506.23L361.46 506.23M361.46 506.23L361.46 506.23M361.46 506.23L360.86 506.23M360.86 506.23L360.86 506.23M360.86 506.23L360.82 506.23M360.82 506.23L360.82 506.23M360.82 506.23L360.77 506.23M360.77 506.23L360.77 506.23M360.77 506.23L360.65 506.26M360.65 506.26L360.65 506.26M360.65 506.26L360.42 506.38M360.42 506.38L360.42 506.38M360.42 506.38L360.25 506.58M360.25 506.58L360.25 506.58M360.25 506.58L360.18 506.79M360.18 506.79L360.18 506.79M360.18 506.79L360.17 506.83M360.17 506.83L360.17 506.83M360.17 506.83L360.17 506.87M360.17 506.87L360.17 506.87M360.17 506.87L360.17 506.91M360.17 506.91L360.17 506.91M360.17 506.91L360.17 507.32M360.17 507.32L360.17 507.32M360.17 507.32L360.17 507.73M360.17 507.73L360.17 507.83M360.17 507.83L360.17 507.93M360.17 507.93L360.17 508.13M360.17 508.13L360.17 508.33M360.17 508.33L360.17 508.54M360.17 508.54L360.17 509.55M360.17 509.55L360.17 510.57M360.17 510.57L360.17 512.59M360.17 512.59L360.17 514.62M360.17 514.62L360.17 516.65M360.17 516.65L360.17 520.71M360.17 520.71L360.17 522.74M360.17 522.74L360.17 524.77M360.17 524.77L360.17 525.17M360.17 525.17L360.17 525.58M360.17 525.58L360.17 525.78M360.17 525.78L360.17 525.98M360.17 525.98L360.17 526.19M360.17 526.19L360.17 526.39M360.17 526.39L360.17 526.59M360.17 526.59L360.17 526.69M360.17 526.69L360.17 526.79M360.17 526.79L360.17 526.79M360.17 526.79L360.17 527.2M360.17 527.2L360.17 527.2M360.17 527.2L360.17 527.61M360.17 527.61L360.17 527.61M360.17 527.61L360.17 527.65M360.17 527.65L360.17 527.65M360.17 527.65L360.17 527.69M360.17 527.69L360.17 527.69M360.17 527.69L360.2 527.82M360.2 527.82L360.2 527.82M360.2 527.82L360.33 528.05M360.33 528.05L360.33 528.05M360.33 528.05L360.53 528.21M360.53 528.21L360.53 528.21M360.53 528.21L360.73 528.28M360.73 528.28L360.73 528.28M360.73 528.28L360.77 528.29M360.77 528.29L360.77 528.29M360.77 528.29L360.82 528.29M360.82 528.29L360.82 528.29M360.82 528.29L360.86 528.3M360.86 528.3L360.86 528.3M360.86 528.3L361.46 528.3M361.46 528.3L361.46 528.3M361.46 528.3L362.06 528.3M362.06 528.3L362.06 528.3M362.06 528.3L362.35 528.3M362.35 528.3L362.65 528.3M362.65 528.3L362.65 528.3M362.65 528.3L362.95 528.3M362.95 528.3L363.25 528.3M363.25 528.3L364.15 528.3M364.15 528.3L365.05 528.3M365.05 528.3L365.95 528.3M365.95 528.3L366.17 528.3M366.17 528.3L366.23 528.3M366.23 528.3L366.23 528.3M366.23 528.3L366.28 528.3M366.28 528.3L366.39 528.3M366.39 528.3L366.84 528.3M366.84 528.3L367.23 528.3M367.23 528.3L367.32 528.3M367.32 528.3L367.32 528.3M367.32 528.3L367.42 528.3M367.42 528.3L367.61 528.3M367.61 528.3L368.38 528.3M368.38 528.3L368.38 528.3M368.38 528.3L369.91 528.3M369.91 528.3L369.91 528.3M369.91 528.3L372.98 528.3M372.98 528.3L372.98 528.3M372.98 528.3L373.07 528.3M373.07 528.3L373.17 528.3M373.17 528.3L373.36 528.3M373.36 528.3L373.74 528.3M373.74 528.3L374.51 528.3M374.51 528.3L376.04 528.3M376.04 528.3L376.81 528.3M376.81 528.3L377 528.3M377 528.3L377 528.3M377 528.3L377.19 528.3M377.19 528.3L377.58 528.3M377.58 528.3L379.11 528.3M379.11 528.3L380.64 528.3M380.64 528.3L381.03 528.3M381.03 528.3L381.03 528.3M381.03 528.3L381.22 528.3M381.22 528.3L381.41 528.3M381.41 528.3L382.18 528.3M382.18 528.3L383.71 528.3M383.71 528.3L384.1 528.3M384.1 528.3L384.1 528.3M384.1 528.3L384.29 528.3M384.29 528.3L384.48 528.3M384.48 528.3L385.25 528.3M385.25 528.3L386.78 528.3M386.78 528.3L387.16 528.3M387.16 528.3L387.16 528.3M387.16 528.3L387.35 528.3M387.35 528.3L387.55 528.3M387.55 528.3L388.31 528.3M388.31 528.3L391.38 528.3M391.38 528.3L412.07 528.3M412.07 528.3L421.79 528.3M421.79 528.3L428.37 528.3M428.37 528.3L434.95 528.3M434.95 528.3L435.55 528.3M435.55 528.3L436.15 528.3M436.15 528.3L436.45 528.3M436.45 528.3L436.75 528.3M436.75 528.3L437.05 528.3M437.05 528.3L437.05 528.3M437.05 528.3L437.35 528.3M437.35 528.3L437.65 528.3M437.65 528.3L437.65 528.3M437.65 528.3L437.94 528.3M437.94 528.3L437.94 528.3M437.94 528.3L438.54 528.3M438.54 528.3L438.54 528.3M438.54 528.3L439.14 528.3M439.14 528.3L439.16 528.3M439.16 528.3L439.16 528.3M439.16 528.3L439.18 528.29M439.18 528.29L439.18 528.29M439.18 528.29L439.23 528.29M439.23 528.29L439.23 528.29M439.23 528.29L439.35 528.26M439.35 528.26L439.35 528.26M439.35 528.26L439.58 528.14M439.58 528.14L439.58 528.14M439.58 528.14L439.75 527.94M439.75 527.94L439.75 527.94M439.75 527.94L439.82 527.74M439.82 527.74L439.82 527.74M439.82 527.74L439.83 527.69M439.83 527.69L439.83 527.69M439.83 527.69L439.83 527.65M439.83 527.65L439.83 527.65M439.83 527.65L439.83 527.61M439.83 527.61L439.83 527.61M439.83 527.61L439.83 527.2M439.83 527.2L439.83 527.2M439.83 527.2L439.83 526.79M439.83 526.79L439.83 526.69M439.83 526.69L439.83 526.59M439.83 526.59L439.83 526.39M439.83 526.39L439.83 526.19M439.83 526.19L439.83 525.98M439.83 525.98L439.83 524.97M439.83 524.97L439.83 523.95M439.83 523.95L439.83 521.93M439.83 521.93L439.83 519.9M439.83 519.9L439.83 517.87M439.83 517.87L439.83 513.81M439.83 513.81L439.83 511.78M439.83 511.78L439.83 509.75M439.83 509.75L439.83 509.35M439.83 509.35L439.83 508.94M439.83 508.94L439.83 508.74M439.83 508.74L439.83 508.54M439.83 508.54L439.83 508.33M439.83 508.33L439.83 508.13M439.83 508.13L439.83 507.93M439.83 507.93L439.83 507.83M439.83 507.83L439.83 507.73M439.83 507.73L439.83 507.73M439.83 507.73L439.83 507.32M439.83 507.32L439.83 507.32M439.83 507.32L439.83 506.91M439.83 506.91L439.83 506.91M439.83 506.91L439.83 506.87M439.83 506.87L439.83 506.87M439.83 506.87L439.83 506.83M439.83 506.83L439.83 506.83M439.83 506.83L439.8 506.7M439.8 506.7L439.8 506.7M439.8 506.7L439.67 506.48M439.67 506.48L439.67 506.48M439.67 506.48L439.47 506.31M439.47 506.31L439.47 506.31M439.47 506.31L439.27 506.24M439.27 506.24L439.27 506.24M439.27 506.24L439.23 506.23M439.23 506.23L439.23 506.23M439.23 506.23L439.18 506.23M439.18 506.23L439.18 506.23M439.18 506.23L439.14 506.23M439.14 506.23L439.14 506.23M439.14 506.23L438.54 506.23M438.54 506.23L438.54 506.23M438.54 506.23L437.94 506.23M437.94 506.23L437.94 506.23M437.94 506.23L437.35 506.23M437.35 506.23L437.05 506.23M437.05 506.23L436.75 506.23M436.75 506.23L436.52 506.23M436.52 506.23L436.47 506.23M436.47 506.23L436.47 506.23M436.47 506.23L436.41 506.22M436.41 506.22L436.3 506.22M436.3 506.22L435.85 506.22M435.85 506.22L435.4 506.22M435.4 506.22L435.18 506.22M435.18 506.22L435.06 506.22M435.06 506.22L435.06 506.22M435.06 506.22L434.95 506.23M434.95 506.23L433.16 506.23M433.16 506.23L432.77 506.23M432.77 506.23L432.68 506.23M432.68 506.23L432.68 506.23M432.68 506.23L432.58 506.23M432.58 506.23L432.39 506.23M432.39 506.23L431.62 506.23M431.62 506.23L431.24 506.23M431.24 506.23L431.14 506.23M431.14 506.23L431.14 506.23M431.14 506.23L431.05 506.23M431.05 506.23L430.86 506.23M430.86 506.23L430.09 506.23M430.09 506.23L428.56 506.23M428.56 506.23L427.79 506.23M427.79 506.23L427.41 506.23M427.41 506.23L427.21 506.23M427.21 506.23L427.12 506.23M427.12 506.23L427.12 506.23M427.12 506.23L427.02 506.23M427.02 506.23L427.02 506.23M427.02 506.23L426.93 506.23M426.93 506.23L426.83 506.23M426.83 506.23L426.64 506.23M426.64 506.23L426.26 506.23M426.26 506.23L425.49 506.23M425.49 506.23L423.96 506.23M423.96 506.23L423.19 506.23M423.19 506.23L423 506.23M423 506.23L423 506.23M423 506.23L422.81 506.23M422.81 506.23L422.42 506.23M422.42 506.23L420.89 506.23M420.89 506.23L419.36 506.23M419.36 506.23L418.97 506.23M418.97 506.23L418.97 506.23M418.97 506.23L418.78 506.23M418.78 506.23L418.59 506.23M418.59 506.23L417.82 506.23M417.82 506.23L416.29 506.23M416.29 506.23L415.9 506.23M415.9 506.23L415.9 506.23M415.9 506.23L415.71 506.23M415.71 506.23L415.52 506.23M415.52 506.23L414.75 506.23M414.75 506.23L413.22 506.23M413.22 506.23L412.84 506.23M412.84 506.23L412.84 506.23M412.84 506.23L412.65 506.23M412.65 506.23L412.45 506.23M412.45 506.23L411.69 506.23M411.69 506.23L412.07 506.23M412.07 506.23L391.38 506.23"
fill="none" stroke="black" stroke-width="0.5"/>
<path d="M380.52 312.07L380.52 383.53M380.52 383.53L380.52 454.98M380.52 454.98L380.52 458.3M380.52 458.3L380.52 461.63M380.52 461.63L380.52 463.29M380.52 463.29L380.52 464.95M380.52 464.95L380.52 466.61M380.52 466.61L380.52 468.27M380.52 468.27L380.52 469.1M380.52 469.1L380.52 469.94M380.52 469.94L380.52 470.77M380.52 470.77L380.52 471.18M380.52 471.18L380.52 471.6M380.52 471.6L380.52 472.43M380.52 472.43L380.52 472.84M380.52 472.84L380.51 473.26M380.51 473.26L380.51 473.67M380.51 473.67L380.51 474.09M380.51 474.09L380.52 474.51M380.52 474.51L380.52 474.92M380.52 474.92L380.52 474.92M380.52 474.92L380.52 478.24M380.52 478.24L380.52 478.24M380.52 478.24L380.51 479.91M380.51 479.91L380.51 479.91M380.51 479.91L380.52 481.57M380.52 481.57L380.52 481.57M380.52 481.57L380.52 481.62M380.52 481.62L380.52 481.62M380.52 481.62L380.52 481.67M380.52 481.67L380.52 481.67M380.52 481.67L380.55 481.83M380.55 481.83L380.55 481.83M380.55 481.83L380.7 482.16M380.7 482.16L380.7 482.16M380.7 482.16L380.92 482.39M380.92 482.39L380.92 482.39M380.92 482.39L381.19 482.54M381.19 482.54L381.19 482.54M381.19 482.54L381.39 482.59M381.39 482.59L381.39 482.59M381.39 482.59L381.45 482.6M381.45 482.6L381.45 482.6M381.45 482.6L381.5 482.6M381.5 482.6L381.5 482.6M381.5 482.6L381.55 482.6M381.55 482.6L381.55 482.6M381.55 482.6L381.74 482.6M381.74 482.6L381.74 482.6M381.74 482.6L381.84 482.6M381.84 482.6L381.94 482.6M381.94 482.6L382.03 482.6M382.03 482.6L382.13 482.6M382.13 482.6L382.24 482.6M382.24 482.6L382.24 482.6M382.24 482.6L382.36 482.6M382.36 482.6L382.59 482.6M382.59 482.6L382.7 482.6M382.7 482.6L382.7 482.6M382.7 482.6L382.81 482.6M382.81 482.6L383.04 482.6M383.04 482.6L383.5 482.6M383.5 482.6L383.73 482.6M383.73 482.6L383.84 482.6M383.84 482.6L383.84 482.6M383.84 482.6L383.96 482.6M383.96 482.6L384.87 482.6M384.87 482.6L385.1 482.6M385.1 482.6L385.16 482.6M385.16 482.6L385.16 482.6M385.16 482.6L385.22 482.6M385.22 482.6L385.33 482.6M385.33 482.6L385.79 482.6M385.79 482.6L385.96 482.6M385.96 482.6L385.96 482.6M385.96 482.6L386.14 482.6M386.14 482.6L386.49 482.6M386.49 482.6L387.19 482.6M387.19 482.6L387.89 482.6M387.89 482.6L388.24 482.6M388.24 482.6L388.41 482.6M388.41 482.6L388.5 482.6M388.5 482.6L388.5 482.6M388.5 482.6L388.58 482.6M388.58 482.6L389.98 482.6M389.98 482.6L389.98 482.6M389.98 482.6L390.16 482.6M390.16 482.6L390.33 482.6M390.33 482.6L390.68 482.6M390.68 482.6L391.38 482.6M391.38 482.6L412.07 482.6M412.07 482.6L412.96 482.6M412.96 482.6L417.29 482.6M417.29 482.6L417.49 482.6M417.49 482.6L417.68 482.6M417.68 482.6L417.78 482.6M417.78 482.6L417.87 482.6M417.87 482.6L417.97 482.6M417.97 482.6L417.97 482.6M417.97 482.6L418.06 482.6M418.06 482.6L418.16 482.6M418.16 482.6L418.16 482.6M418.16 482.6L418.26 482.6M418.26 482.6L418.26 482.6M418.26 482.6L418.45 482.6M418.45 482.6L418.45 482.6M418.45 482.6L418.5 482.6M418.5 482.6L418.5 482.6M418.5 482.6L418.55 482.6M418.55 482.6L418.55 482.6M418.55 482.6L418.76 482.55M418.76 482.55L418.76 482.55M418.76 482.55L419.08 482.39M419.08 482.39L419.08 482.39M419.08 482.39L419.33 482.12M419.33 482.12L419.33 482.12M419.33 482.12L419.45 481.83M419.45 481.83L419.45 481.83M419.45 481.83L419.47 481.72M419.47 481.72L419.47 481.72M419.47 481.72L419.48 481.67M419.48 481.67L419.48 481.67M419.48 481.67L419.48 481.62M419.48 481.62L419.48 481.62M419.48 481.62L419.48 481.57M419.48 481.57L419.48 481.57M419.48 481.57L419.49 479.91M419.49 479.91L419.49 479.91M419.49 479.91L419.48 478.24M419.48 478.24L419.48 478.24M419.48 478.24L419.48 474.92M419.48 474.92L419.48 474.51M419.48 474.51L419.49 474.09M419.49 474.09L419.49 473.67M419.49 473.67L419.49 473.26M419.49 473.26L419.48 472.43M419.48 472.43L419.48 471.6M419.48 471.6L419.48 470.77M419.48 470.77L419.48 469.94M419.48 469.94L419.48 469.1M419.48 469.1L419.48 468.27M419.48 468.27L419.48 466.61M419.48 466.61L419.48 464.95M419.48 464.95L419.48 462.46M419.48 462.46L419.48 459.97M419.48 459.97L419.48 454.98M419.48 454.98L419.48 446.05M419.48 446.05L419.48 437.12M419.48 437.12L419.48 419.25M419.48 419.25L419.49 401.39M419.49 401.39L419.48 383.53M419.48 383.53L419.48 347.8M419.48 347.8L419.48 329.93M419.48 329.93L419.48 312.07M419.48 312.07L419.48 287.93M419.48 287.93L419.48 216.48M419.48 216.48L419.48 145.02M419.48 145.02L419.48 141.7M419.48 141.7L419.48 138.37M419.48 138.37L419.48 136.71M419.48 136.71L419.48 135.05M419.48 135.05L419.48 133.39M419.48 133.39L419.48 131.73M419.48 131.73L419.48 130.9M419.48 130.9L419.48 130.06M419.48 130.06L419.48 129.23M419.48 129.23L419.48 128.82M419.48 128.82L419.48 128.4M419.48 128.4L419.48 127.57M419.48 127.57L419.49 126.74M419.49 126.74L419.49 126.33M419.49 126.33L419.49 125.91M419.49 125.91L419.48 125.49M419.48 125.49L419.48 125.08M419.48 125.08L419.48 125.08M419.48 125.08L419.48 121.76M419.48 121.76L419.48 121.76M419.48 121.76L419.49 120.09M419.49 120.09L419.49 120.09M419.49 120.09L419.48 118.43M419.48 118.43L419.48 118.43M419.48 118.43L419.48 118.38M419.48 118.38L419.48 118.38M419.48 118.38L419.48 118.33M419.48 118.33L419.48 118.33M419.48 118.33L419.45 118.17M419.45 118.17L419.45 118.17M419.45 118.17L419.3 117.84M419.3 117.84L419.3 117.84M419.3 117.84L419.08 117.61M419.08 117.61L419.08 117.61M419.08 117.61L418.81 117.46M418.81 117.46L418.81 117.46M418.81 117.46L418.61 117.41M418.61 117.41L418.61 117.41M418.61 117.41L418.55 117.4M418.55 117.4L418.55 117.4M418.55 117.4L418.5 117.4M418.5 117.4L418.5 117.4M418.5 117.4L418.45 117.4M418.45 117.4L418.45 117.4M418.45 117.4L418.26 117.4M418.26 117.4L418.26 117.4M418.26 117.4L418.06 117.4M418.06 117.4L417.97 117.4M417.97 117.4L417.87 117.4M417.87 117.4L417.41 117.4M417.41 117.4L416.96 117.4M416.96 117.4L416.5 117.4M416.5 117.4L416.04 117.4M416.04 117.4L415.13 117.4M415.13 117.4L414.21 117.4M414.21 117.4L413.51 117.4M413.51 117.4L412.81 117.4M412.81 117.4L411.42 117.4M411.42 117.4L413.47 117.4M413.47 117.4L412.07 117.4M412.07 117.4L391.38 117.4M391.38 117.4L387.04 117.4M387.04 117.4L382.71 117.4M382.71 117.4L382.51 117.4M382.51 117.4L382.32 117.4M382.32 117.4L382.22 117.4M382.22 117.4L382.13 117.4M382.13 117.4L382.03 117.4M382.03 117.4L381.94 117.4M381.94 117.4L381.94 117.4M381.94 117.4L381.74 117.4M381.74 117.4L381.74 117.4M381.74 117.4L381.55 117.4M381.55 117.4L381.55 117.4M381.55 117.4L381.5 117.4M381.5 117.4L381.5 117.4M381.5 117.4L381.45 117.4M381.45 117.4L381.45 117.4M381.45 117.4L381.24 117.45M381.24 117.45L381.24 117.45M381.24 117.45L380.92 117.61M380.92 117.61L380.92 117.61M380.92 117.61L380.67 117.88M380.67 117.88L380.67 117.88M380.67 117.88L380.55 118.17M380.55 118.17L380.55 118.17M380.55 118.17L380.53 118.28M380.53 118.28L380.53 118.28M380.53 118.28L380.52 118.33M380.52 118.33L380.52 118.33M380.52 118.33L380.52 118.38M380.52 118.38L380.52 118.38M380.52 118.38L380.52 118.43M380.52 118.43L380.52 118.43M380.52 118.43L380.51 120.09M380.51 120.09L380.51 120.09M380.51 120.09L380.52 121.76M380.52 121.76L380.52 121.76M380.52 121.76L380.52 125.08M380.52 125.08L380.52 125.49M380.52 125.49L380.51 125.91M380.51 125.91L380.51 126.33M380.51 126.33L380.51 126.74M380.51 126.74L380.52 127.16M380.52 127.16L380.52 127.57M380.52 127.57L380.52 128.4M380.52 128.4L380.52 128.82M380.52 128.82L380.52 129.23M380.52 129.23L380.52 130.06M380.52 130.06L380.52 130.9M380.52 130.9L380.52 131.73M380.52 131.73L380.52 133.39M380.52 133.39L380.52 135.05M380.52 135.05L380.52 137.54M380.52 137.54L380.52 140.03M380.52 140.03L380.52 145.02M380.52 145.02L380.52 153.95M380.52 153.95L380.52 162.88M380.52 162.88L380.51 180.75M380.51 180.75L380.51 198.61M380.51 198.61L380.52 216.48M380.52 216.48L380.52 252.2M380.52 252.2L380.52 270.07M380.52 270.07L380.52 287.93M380.52 287.93L380.52 312.07"
fill="none" stroke="black" stroke-width="0.5"/>
<path d="M412.07 93.77L421.79 93.77M421.79 93.77L434.95 93.77M434.95 93.77L435.55 93.77M435.55 93.77L436.15 93.77M436.15 93.77L436.45 93.77M436.45 93.77L436.75 93.77M436.75 93.77L437.05 93.77M437.05 93.77L437.2 93.77M437.2 93.77L437.35 93.77M437.35 93.77L437.65 93.77M437.65 93.77L437.79 93.77M437.79 93.77L437.94 93.77M437.94 93.77L437.94 93.77M437.94 93.77L438.54 93.77M438.54 93.77L438.54 93.77M438.54 93.77L439.14 93.77M439.14 93.77L439.14 93.77M439.14 93.77L439.16 93.77M439.16 93.77L439.16 93.77M439.16 93.77L439.18 93.77M439.18 93.77L439.18 93.77M439.18 93.77L439.23 93.77M439.23 93.77L439.23 93.77M439.23 93.77L439.35 93.74M439.35 93.74L439.35 93.74M439.35 93.74L439.58 93.62M439.58 93.62L439.58 93.62M439.58 93.62L439.75 93.42M439.75 93.42L439.75 93.42M439.75 93.42L439.82 93.21M439.82 93.21L439.82 93.21M439.82 93.21L439.83 93.17M439.83 93.17L439.83 93.17M439.83 93.17L439.83 93.13M439.83 93.13L439.83 93.13M439.83 93.13L439.83 93.09M439.83 93.09L439.83 93.09M439.83 93.09L439.83 92.68M439.83 92.68L439.83 92.68M439.83 92.68L439.83 92.27M439.83 92.27L439.83 92.17M439.83 92.17L439.83 92.07M439.83 92.07L439.83 91.87M439.83 91.87L439.83 91.67M439.83 91.67L439.83 91.46M439.83 91.46L439.83 90.45M439.83 90.45L439.83 89.43M439.83 89.43L439.83 87.41M439.83 87.41L439.83 85.38M439.83 85.38L439.83 83.35M439.83 83.35L439.83 79.29M439.83 79.29L439.83 77.26M439.83 77.26L439.83 75.23M439.83 75.23L439.83 74.83M439.83 74.83L439.83 74.42M439.83 74.42L439.83 74.22M439.83 74.22L439.83 74.02M439.83 74.02L439.83 73.81M439.83 73.81L439.83 73.61M439.83 73.61L439.83 73.41M439.83 73.41L439.83 73.31M439.83 73.31L439.83 73.21M439.83 73.21L439.83 73.21M439.83 73.21L439.83 72.8M439.83 72.8L439.83 72.8M439.83 72.8L439.83 72.39M439.83 72.39L439.83 72.39M439.83 72.39L439.83 72.35M439.83 72.35L439.83 72.35M439.83 72.35L439.83 72.31M439.83 72.31L439.83 72.31M439.83 72.31L439.8 72.18M439.8 72.18L439.8 72.18M439.8 72.18L439.67 71.95M439.67 71.95L439.67 71.95M439.67 71.95L439.47 71.79M439.47 71.79L439.47 71.79M439.47 71.79L439.27 71.72M439.27 71.72L439.27 71.72M439.27 71.72L439.23 71.71M439.23 71.71L439.23 71.71M439.23 71.71L439.18 71.71M439.18 71.71L439.18 71.71M439.18 71.71L439.16 71.7M439.16 71.7L439.16 71.7M439.16 71.7L439.14 71.7M439.14 71.7L439.14 71.7M439.14 71.7L438.54 71.7M438.54 71.7L438.54 71.7M438.54 71.7L437.94 71.7M437.94 71.7L437.79 71.7M437.79 71.7L437.65 71.7M437.65 71.7L437.35 71.7M437.35 71.7L437.2 71.7M437.2 71.7L437.05 71.7M437.05 71.7L436.75 71.7M436.75 71.7L435.85 71.7M435.85 71.7L434.95 71.7M434.95 71.7L433.16 71.7M433.16 71.7L430.09 71.7M430.09 71.7L427.02 71.7M427.02 71.7L423.96 71.7M423.96 71.7L420.89 71.7M420.89 71.7L414.75 71.7M414.75 71.7L411.69 71.7M411.69 71.7L412.07 71.7M412.07 71.7L391.38 71.7M391.38 71.7L378.21 71.7M378.21 71.7L365.05 71.7M365.05 71.7L364.45 71.7M364.45 71.7L363.85 71.7M363.85 71.7L363.55 71.7M363.55 71.7L363.25 71.7M363.25 71.7L362.95 71.7M362.95 71.7L362.8 71.7M362.8 71.7L362.65 71.7M362.65 71.7L362.35 71.7M362.35 71.7L362.21 71.7M362.21 71.7L362.06 71.7M362.06 71.7L362.06 71.7M362.06 71.7L361.46 71.7M361.46 71.7L361.46 71.7M361.46 71.7L360.86 71.7M360.86 71.7L360.86 71.7M360.86 71.7L360.82 71.71M360.82 71.71L360.82 71.71M360.82 71.71L360.77 71.71M360.77 71.71L360.77 71.71M360.77 71.71L360.65 71.74M360.65 71.74L360.65 71.74M360.65 71.74L360.42 71.86M360.42 71.86L360.42 71.86M360.42 71.86L360.25 72.06M360.25 72.06L360.25 72.06M360.25 72.06L360.18 72.26M360.18 72.26L360.18 72.26M360.18 72.26L360.17 72.31M360.17 72.31L360.17 72.31M360.17 72.31L360.17 72.35M360.17 72.35L360.17 72.35M360.17 72.35L360.17 72.39M360.17 72.39L360.17 72.39M360.17 72.39L360.17 72.8M360.17 72.8L360.17 72.8M360.17 72.8L360.17 73.21M360.17 73.21L360.17 73.31M360.17 73.31L360.17 73.41M360.17 73.41L360.17 73.61M360.17 73.61L360.17 73.81M360.17 73.81L360.17 74.02M360.17 74.02L360.17 75.03M360.17 75.03L360.17 76.05M360.17 76.05L360.17 78.07M360.17 78.07L360.17 80.1M360.17 80.1L360.17 82.13M360.17 82.13L360.17 86.19M360.17 86.19L360.17 88.22M360.17 88.22L360.17 90.25M360.17 90.25L360.17 90.65M360.17 90.65L360.17 91.06M360.17 91.06L360.17 91.26M360.17 91.26L360.17 91.46M360.17 91.46L360.17 91.67M360.17 91.67L360.17 91.87M360.17 91.87L360.17 92.07M360.17 92.07L360.17 92.17M360.17 92.17L360.17 92.27M360.17 92.27L360.17 92.27M360.17 92.27L360.17 92.68M360.17 92.68L360.17 92.68M360.17 92.68L360.17 93.09M360.17 93.09L360.17 93.09M360.17 93.09L360.17 93.11M360.17 93.11L360.17 93.11M360.17 93.11L360.17 93.13M360.17 93.13L360.17 93.13M360.17 93.13L360.17 93.17M360.17 93.17L360.17 93.17M360.17 93.17L360.2 93.3M360.2 93.3L360.2 93.3M360.2 93.3L360.33 93.52M360.33 93.52L360.33 93.52M360.33 93.52L360.53 93.69M360.53 93.69L360.53 93.69M360.53 93.69L360.73 93.76M360.73 93.76L360.73 93.76M360.73 93.76L360.77 93.77M360.77 93.77L360.77 93.77M360.77 93.77L360.82 93.77M360.82 93.77L360.82 93.77M360.82 93.77L360.84 93.77M360.84 93.77L360.84 93.77M360.84 93.77L360.86 93.77M360.86 93.77L360.86 93.77M360.86 93.77L361.46 93.77M361.46 93.77L361.46 93.77M361.46 93.77L362.06 93.77M362.06 93.77L362.21 93.77M362.21 93.77L362.35 93.77M362.35 93.77L362.65 93.77M362.65 93.77L362.95 93.77M362.95 93.77L363.25 93.77M363.25 93.77L364.15 93.77M364.15 93.77L365.05 93.77M365.05 93.77L366.84 93.77M366.84 93.77L369.91 93.77M369.91 93.77L372.98 93.77M372.98 93.77L376.04 93.77M376.04 93.77L379.11 93.77M379.11 93.77L385.25 93.77M385.25 93.77L388.31 93.77M388.31 93.77L391.38 93.77M391.38 93.77L412.07 93.77"
fill="none" stroke="black" stroke-width="0.5"/>
<path d="M380.52 30.67L380.52 44.46M380.52 44.46L380.52 45.62M380.52 45.62L380.52 46.79M380.52 46.79L380.52 46.84M380.52 46.84L380.52 46.89M380.52 46.89L380.52 46.92M380.52 46.92L380.52 46.94M380.52 46.94L380.52 46.97M380.52 46.97L380.52 46.99M380.52 46.99L380.52 46.99M380.52 46.99L380.52 47.05M380.52 47.05L380.52 47.05M380.52 47.05L380.52 47.1M380.52 47.1L380.52 47.1M380.52 47.1L380.52 47.15M380.52 47.15L380.52 47.15M380.52 47.15L380.58 47.41M380.58 47.41L380.58 47.41M380.58 47.41L380.77 47.72M380.77 47.72L380.77 47.72M380.77 47.72L381.05 47.95M381.05 47.95L381.05 47.95M381.05 47.95L381.39 48.07M381.39 48.07L381.39 48.07M381.39 48.07L381.45 48.08M381.45 48.08L381.45 48.08M381.45 48.08L381.5 48.08M381.5 48.08L381.5 48.08M381.5 48.08L381.55 48.08M381.55 48.08L381.55 48.08M381.55 48.08L381.74 48.08M381.74 48.08L381.74 48.08M381.74 48.08L381.94 48.08M381.94 48.08L382.03 48.08M382.03 48.08L382.13 48.08M382.13 48.08L382.59 48.08M382.59 48.08L383.04 48.08M383.04 48.08L383.5 48.08M383.5 48.08L383.96 48.08M383.96 48.08L384.87 48.08M384.87 48.08L385.79 48.08M385.79 48.08L386.49 48.08M386.49 48.08L387.19 48.08M387.19 48.08L388.58 48.08M388.58 48.08L389.98 48.08M389.98 48.08L391.38 48.08M391.38 48.08L412.07 48.08M412.07 48.08L412.96 48.08M412.96 48.08L417.29 48.08M417.29 48.08L417.49 48.08M417.49 48.08L417.68 48.08M417.68 48.08L417.78 48.08M417.78 48.08L417.87 48.08M417.87 48.08L417.97 48.08M417.97 48.08L418.06 48.08M418.06 48.08L418.16 48.08M418.16 48.08L418.16 48.08M418.16 48.08L418.26 48.08M418.26 48.08L418.26 48.08M418.26 48.08L418.45 48.08M418.45 48.08L418.45 48.08M418.45 48.08L418.5 48.08M418.5 48.08L418.5 48.08M418.5 48.08L418.55 48.08M418.55 48.08L418.55 48.08M418.55 48.08L418.76 48.03M418.76 48.03L418.76 48.03M418.76 48.03L419.08 47.86M419.08 47.86L419.08 47.86M419.08 47.86L419.33 47.59M419.33 47.59L419.33 47.59M419.33 47.59L419.45 47.31M419.45 47.31L419.45 47.31M419.45 47.31L419.48 47.15M419.48 47.15L419.48 47.15M419.48 47.15L419.48 47.1M419.48 47.1L419.48 47.1M419.48 47.1L419.48 47.05M419.48 47.05L419.48 47.05M419.48 47.05L419.48 46.99M419.48 46.99L419.48 46.97M419.48 46.97L419.48 46.94M419.48 46.94L419.48 46.79M419.48 46.79L419.48 46.63M419.48 46.63L419.49 46.32M419.49 46.32L419.49 46.01M419.49 46.01L419.48 45.7M419.48 45.7L419.48 45.08M419.48 45.08L419.48 44.77M419.48 44.77L419.48 44.46M419.48 44.46L419.48 30.67M419.48 30.67L419.48 29.5M419.48 29.5L419.48 28.34M419.48 28.34L419.48 28.29M419.48 28.29L419.48 28.23M419.48 28.23L419.48 28.21M419.48 28.21L419.48 28.18M419.48 28.18L419.48 28.16M419.48 28.16L419.48 28.13M419.48 28.13L419.48 28.13M419.48 28.13L419.48 28.08M419.48 28.08L419.48 28.08M419.48 28.08L419.48 28.03M419.48 28.03L419.48 28.03M419.48 28.03L419.48 27.97M419.48 27.97L419.48 27.97M419.48 27.97L419.42 27.72M419.42 27.72L419.42 27.72M419.42 27.72L419.23 27.41M419.23 27.41L419.23 27.41M419.23 27.41L418.95 27.17M418.95 27.17L418.95 27.17M418.95 27.17L418.61 27.06M418.61 27.06L418.61 27.06M418.61 27.06L418.55 27.05M418.55 27.05L418.55 27.05M418.55 27.05L418.5 27.05M418.5 27.05L418.5 27.05M418.5 27.05L418.45 27.04M418.45 27.04L418.45 27.04M418.45 27.04L418.26 27.04M418.26 27.04L418.26 27.04M418.26 27.04L418.16 27.04M418.16 27.04L418.06 27.04M418.06 27.04L417.97 27.04M417.97 27.04L417.87 27.04M417.87 27.04L417.41 27.05M417.41 27.05L416.96 27.05M416.96 27.05L416.5 27.05M416.5 27.05L416.04 27.05M416.04 27.05L415.13 27.04M415.13 27.04L414.21 27.04M414.21 27.04L413.51 27.04M413.51 27.04L412.81 27.04M412.81 27.04L411.42 27.04M411.42 27.04L413.47 27.04M413.47 27.04L412.07 27.04M412.07 27.04L391.38 27.04M391.38 27.04L387.04 27.04M387.04 27.04L382.71 27.04M382.71 27.04L382.51 27.04M382.51 27.04L382.32 27.04M382.32 27.04L382.22 27.04M382.22 27.04L382.13 27.04M382.13 27.04L382.03 27.04M382.03 27.04L382.03 27.04M382.03 27.04L381.94 27.04M381.94 27.04L381.84 27.04M381.84 27.04L381.84 27.04M381.84 27.04L381.74 27.04M381.74 27.04L381.74 27.04M381.74 27.04L381.55 27.04M381.55 27.04L381.55 27.04M381.55 27.04L381.5 27.05M381.5 27.05L381.5 27.05M381.5 27.05L381.45 27.05M381.45 27.05L381.45 27.05M381.45 27.05L381.24 27.09M381.24 27.09L381.24 27.09M381.24 27.09L380.92 27.26M380.92 27.26L380.92 27.26M380.92 27.26L380.67 27.53M380.67 27.53L380.67 27.53M380.67 27.53L380.55 27.82M380.55 27.82L380.55 27.82M380.55 27.82L380.52 27.97M380.52 27.97L380.52 27.97M380.52 27.97L380.52 28.03M380.52 28.03L380.52 28.03M380.52 28.03L380.52 28.08M380.52 28.08L380.52 28.08M380.52 28.08L380.52 28.13M380.52 28.13L380.52 28.16M380.52 28.16L380.52 28.18M380.52 28.18L380.52 28.34M380.52 28.34L380.52 28.49M380.52 28.49L380.52 28.8M380.52 28.8L380.52 29.11M380.52 29.11L380.52 29.42M380.52 29.42L380.52 30.05M380.52 30.05L380.52 30.36M380.52 30.36L380.52 30.67"
fill="none" stroke="black" stroke-width="0.5"/>
<path d="M427.07 44.46L427.07 48.95M427.07 48.95L427.07 53.44M427.07 53.44L427.07 53.64M427.07 53.64L427.07 53.84M427.07 53.84L427.07 53.94M427.07 53.94L427.07 54.04M427.07 54.04L427.07 54.13M427.07 54.13L427.07 54.23M427.07 54.23L427.07 54.33M427.07 54.33L427.07 54.33M427.07 54.33L427.07 54.43M427.07 54.43L427.07 54.43M427.07 54.43L427.07 54.63M427.07 54.63L427.07 54.63M427.07 54.63L427.07 54.69M427.07 54.69L427.07 54.69M427.07 54.69L427.07 54.74M427.07 54.74L427.07 54.74M427.07 54.74L427.02 54.94M427.02 54.94L427.02 54.94M427.02 54.94L426.85 55.27M426.85 55.27L426.85 55.27M426.85 55.27L426.58 55.51M426.58 55.51L426.58 55.51M426.58 55.51L426.3 55.64M426.3 55.64L426.3 55.64M426.3 55.64L426.19 55.66M426.19 55.66L426.19 55.66M426.19 55.66L426.14 55.66M426.14 55.66L426.14 55.66M426.14 55.66L426.09 55.67M426.09 55.67L426.09 55.67M426.09 55.67L426.04 55.67M426.04 55.67L426.04 55.67M426.04 55.67L425.7 55.67M425.7 55.67L425.7 55.67M425.7 55.67L425.35 55.67M425.35 55.67L425.27 55.67M425.27 55.67L425.18 55.67M425.18 55.67L425.01 55.67M425.01 55.67L424.84 55.67M424.84 55.67L424.67 55.67M424.67 55.67L422.66 55.67M422.66 55.67L420.66 55.67M420.66 55.67L418.65 55.67M418.65 55.67L416.65 55.67M416.65 55.67L412.63 55.67M412.63 55.67L412.07 55.67M412.07 55.67L391.38 55.67M391.38 55.67L383.87 55.67M383.87 55.67L376.35 55.67M376.35 55.67L375.84 55.67M375.84 55.67L375.33 55.67M375.33 55.67L375.16 55.67M375.16 55.67L374.99 55.67M374.99 55.67L374.82 55.67M374.82 55.67L374.73 55.67M374.73 55.67L374.65 55.67M374.65 55.67L374.65 55.67M374.65 55.67L374.3 55.67M374.3 55.67L374.3 55.67M374.3 55.67L373.96 55.67M373.96 55.67L373.96 55.67M373.96 55.67L373.91 55.67M373.91 55.67L373.91 55.67M373.91 55.67L373.86 55.66M373.86 55.66L373.86 55.66M373.86 55.66L373.65 55.62M373.65 55.62L373.65 55.62M373.65 55.62L373.33 55.45M373.33 55.45L373.33 55.45M373.33 55.45L373.09 55.18M373.09 55.18L373.09 55.18M373.09 55.18L372.96 54.89M372.96 54.89L372.96 54.89M372.96 54.89L372.94 54.79M372.94 54.79L372.94 54.79M372.94 54.79L372.93 54.74M372.93 54.74L372.93 54.74M372.93 54.74L372.93 54.69M372.93 54.69L372.93 54.69M372.93 54.69L372.93 54.63M372.93 54.63L372.93 54.63M372.93 54.63L372.93 54.53M372.93 54.53L372.93 54.48M372.93 54.48L372.93 54.43M372.93 54.43L372.93 54.43M372.93 54.43L372.93 54.23M372.93 54.23L372.93 54.23M372.93 54.23L372.93 54.04M372.93 54.04L372.93 53.44M372.93 53.44L372.93 52.84M372.93 52.84L372.93 52.24M372.93 52.24L372.93 51.64M372.93 51.64L372.93 50.44M372.93 50.44L372.93 49.25M372.93 49.25L372.93 46.85M372.93 46.85L372.93 45.66M372.93 45.66L372.93 44.46M372.93 44.46L372.93 30.67M372.93 30.67L372.93 26.18M372.93 26.18L372.93 21.69M372.93 21.69L372.93 21.49M372.93 21.49L372.93 21.29M372.93 21.29L372.93 21.19M372.93 21.19L372.93 21.09M372.93 21.09L372.93 20.99M372.93 20.99L372.93 20.89M372.93 20.89L372.93 20.79M372.93 20.79L372.93 20.79M372.93 20.79L372.93 20.69M372.93 20.69L372.93 20.69M372.93 20.69L372.93 20.49M372.93 20.49L372.93 20.49M372.93 20.49L372.93 20.44M372.93 20.44L372.93 20.44M372.93 20.44L372.93 20.39M372.93 20.39L372.93 20.39M372.93 20.39L372.98 20.18M372.98 20.18L372.98 20.18M372.98 20.18L373.15 19.86M373.15 19.86L373.15 19.86M373.15 19.86L373.42 19.61M373.42 19.61L373.42 19.61M373.42 19.61L373.7 19.49M373.7 19.49L373.7 19.49M373.7 19.49L373.81 19.47M373.81 19.47L373.81 19.47M373.81 19.47L373.86 19.46M373.86 19.46L373.86 19.46M373.86 19.46L373.91 19.46M373.91 19.46L373.91 19.46M373.91 19.46L373.96 19.46M373.96 19.46L373.96 19.46M373.96 19.46L374.3 19.46M374.3 19.46L374.3 19.46M374.3 19.46L374.65 19.46M374.65 19.46L374.73 19.46M374.73 19.46L374.82 19.46M374.82 19.46L374.99 19.46M374.99 19.46L375.16 19.46M375.16 19.46L375.33 19.46M375.33 19.46L377.34 19.46M377.34 19.46L379.34 19.46M379.34 19.46L381.35 19.46M381.35 19.46L383.35 19.46M383.35 19.46L387.37 19.46M387.37 19.46L389.37 19.46M389.37 19.46L391.38 19.46M391.38 19.46L412.07 19.46M412.07 19.46L416.13 19.46M416.13 19.46L423.65 19.46M423.65 19.46L424.16 19.46M424.16 19.46L424.41 19.46M424.41 19.46L424.67 19.46M424.67 19.46L424.84 19.46M424.84 19.46L425.01 19.46M425.01 19.46L425.18 19.46M425.18 19.46L425.27 19.46M425.27 19.46L425.35 19.46M425.35 19.46L425.35 19.46M425.35 19.46L425.7 19.46M425.7 19.46L425.7 19.46M425.7 19.46L426.04 19.46M426.04 19.46L426.04 19.46M426.04 19.46L426.09 19.46M426.09 19.46L426.09 19.46M426.09 19.46L426.14 19.46M426.14 19.46L426.14 19.46M426.14 19.46L426.35 19.51M426.35 19.51L426.35 19.51M426.35 19.51L426.67 19.67M426.67 19.67L426.67 19.67M426.67 19.67L426.91 19.95M426.91 19.95L426.91 19.95M426.91 19.95L427.04 20.23M427.04 20.23L427.04 20.23M427.04 20.23L427.06 20.34M427.06 20.34L427.06 20.34M427.06 20.34L427.07 20.39M427.07 20.39L427.07 20.39M427.07 20.39L427.07 20.44M427.07 20.44L427.07 20.44M427.07 20.44L427.07 20.49M427.07 20.49L427.07 20.49M427.07 20.49L427.07 20.69M427.07 20.69L427.07 20.69M427.07 20.69L427.07 20.79M427.07 20.79L427.07 20.89M427.07 20.89L427.07 20.99M427.07 20.99L427.07 21.09M427.07 21.09L427.07 21.44M427.07 21.44L427.07 21.79M427.07 21.79L427.07 22.14M427.07 22.14L427.07 22.49M427.07 22.49L427.07 23.88M427.07 23.88L427.07 24.73M427.07 24.73L427.07 25.58M427.07 25.58L427.07 26.43M427.07 26.43L427.07 27.27M427.07 27.27L427.07 28.97M427.07 28.97L427.07 29.82M427.07 29.82L427.07 30.67M427.07 30.67L427.07 44.46"
fill="none" stroke="black" stroke-width="0.5"/>
<path d="M431.21 44.46L431.21 30.67M431.21 30.67L431.21 15.32M431.21 15.32L412.07 15.32M412.07 15.32L391.38 15.32M391.38 15.32L368.79 15.32M368.79 15.32L368.79 30.67M368.79 30.67L368.79 44.46M368.79 44.46L368.79 59.81M368.79 59.81L391.38 59.81M391.38 59.81L412.07 59.81M412.07 59.81L431.21 59.81M431.21 59.81L431.21 44.46"
fill="none" stroke="black" stroke-width="0.5"/>
<path d="M412.07 109.81L416.13 109.81M416.13 109.81L423.65 109.81M423.65 109.81L424.16 109.81M424.16 109.81L424.67 109.81M424.67 109.81L424.84 109.81M424.84 109.81L425.01 109.81M425.01 109.81L425.18 109.81M425.18 109.81L425.27 109.81M425.27 109.81L425.35 109.81M425.35 109.81L425.35 109.81M425.35 109.81L425.7 109.81M425.7 109.81L425.7 109.81M425.7 109.81L426.04 109.81M426.04 109.81L426.04 109.81M426.04 109.81L426.09 109.81M426.09 109.81L426.09 109.81M426.09 109.81L426.14 109.82M426.14 109.82L426.14 109.82M426.14 109.82L426.35 109.86M426.35 109.86L426.35 109.86M426.35 109.86L426.67 110.03M426.67 110.03L426.67 110.03M426.67 110.03L426.91 110.3M426.91 110.3L426.91 110.3M426.91 110.3L427.04 110.59M427.04 110.59L427.04 110.59M427.04 110.59L427.06 110.69M427.06 110.69L427.06 110.69M427.06 110.69L427.07 110.74M427.07 110.74L427.07 110.74M427.07 110.74L427.07 110.79M427.07 110.79L427.07 110.79M427.07 110.79L427.07 110.85M427.07 110.85L427.07 110.85M427.07 110.85L427.08 112.58M427.08 112.58L427.08 112.58M427.08 112.58L427.07 114.32M427.07 114.32L427.07 114.32M427.07 114.32L427.07 117.79M427.07 117.79L427.07 118.22M427.07 118.22L427.07 118.66M427.07 118.66L427.07 119.09M427.07 119.09L427.07 119.53M427.07 119.53L427.07 120.39M427.07 120.39L427.07 121.26M427.07 121.26L427.07 121.7M427.07 121.7L427.07 122.13M427.07 122.13L427.07 123M427.07 123L427.07 123.87M427.07 123.87L427.07 124.73M427.07 124.73L427.07 126.47M427.07 126.47L427.07 128.21M427.07 128.21L427.07 130.81M427.07 130.81L427.07 133.41M427.07 133.41L427.07 138.62M427.07 138.62L427.07 147.96M427.07 147.96L427.07 157.29M427.07 157.29L427.07 175.95M427.07 175.95L427.07 194.61M427.07 194.61L427.07 213.28M427.07 213.28L427.07 250.6M427.07 250.6L427.07 269.27M427.07 269.27L427.07 287.93M427.07 287.93L427.07 312.07M427.07 312.07L427.07 386.72M427.07 386.72L427.07 461.38M427.07 461.38L427.07 464.85M427.07 464.85L427.07 468.32M427.07 468.32L427.07 470.06M427.07 470.06L427.07 471.79M427.07 471.79L427.07 473.53M427.07 473.53L427.07 475.27M427.07 475.27L427.07 476.13M427.07 476.13L427.07 477M427.07 477L427.07 477.87M427.07 477.87L427.07 478.74M427.07 478.74L427.07 479.61M427.07 479.61L427.07 480.47M427.07 480.47L427.07 480.91M427.07 480.91L427.07 481.34M427.07 481.34L427.07 481.78M427.07 481.78L427.07 482.21M427.07 482.21L427.07 482.21M427.07 482.21L427.07 485.68M427.07 485.68L427.07 485.68M427.07 485.68L427.08 487.42M427.08 487.42L427.08 487.42M427.08 487.42L427.07 489.15M427.07 489.15L427.07 489.15M427.07 489.15L427.07 489.21M427.07 489.21L427.07 489.21M427.07 489.21L427.07 489.26M427.07 489.26L427.07 489.26M427.07 489.26L427.04 489.41M427.04 489.41L427.04 489.41M427.04 489.41L426.89 489.75M426.89 489.75L426.89 489.75M426.89 489.75L426.67 489.97M426.67 489.97L426.67 489.97M426.67 489.97L426.4 490.12M426.4 490.12L426.4 490.12M426.4 490.12L426.19 490.18M426.19 490.18L426.19 490.18M426.19 490.18L426.14 490.18M426.14 490.18L426.14 490.18M426.14 490.18L426.09 490.19M426.09 490.19L426.09 490.19M426.09 490.19L426.04 490.19M426.04 490.19L426.04 490.19M426.04 490.19L425.7 490.19M425.7 490.19L425.7 490.19M425.7 490.19L425.52 490.19M425.52 490.19L425.48 490.19M425.48 490.19L425.48 490.19M425.48 490.19L425.44 490.19M425.44 490.19L425.35 490.19M425.35 490.19L425.35 490.19M425.35 490.19L425.18 490.19M425.18 490.19L425.01 490.19M425.01 490.19L424.84 490.19M424.84 490.19L424.67 490.19M424.67 490.19L424.42 490.19M424.42 490.19L424.36 490.19M424.36 490.19L424.36 490.19M424.36 490.19L424.29 490.19M424.29 490.19L424.17 490.19M424.17 490.19L423.67 490.19M423.67 490.19L423.42 490.19M423.42 490.19L423.35 490.19M423.35 490.19L423.35 490.19M423.35 490.19L423.29 490.19M423.29 490.19L423.17 490.19M423.17 490.19L422.66 490.19M422.66 490.19L421.66 490.19M421.66 490.19L421.16 490.19M421.16 490.19L421.16 490.19M421.16 490.19L420.66 490.19M420.66 490.19L420.66 490.19M420.66 490.19L420.6 490.19M420.6 490.19L420.53 490.19M420.53 490.19L420.41 490.19M420.41 490.19L420.16 490.19M420.16 490.19L419.66 490.19M419.66 490.19L418.65 490.19M418.65 490.19L418.15 490.19M418.15 490.19L418.03 490.19M418.03 490.19L418.03 490.19M418.03 490.19L417.9 490.19M417.9 490.19L417.65 490.19M417.65 490.19L416.65 490.19M416.65 490.19L414.64 490.19M414.64 490.19L414.14 490.19M414.14 490.19L414.01 490.19M414.01 490.19L414.01 490.19M414.01 490.19L413.95 490.19M413.95 490.19L413.95 490.19M413.95 490.19L413.89 490.19M413.89 490.19L413.64 490.19M413.64 490.19L412.63 490.19M412.63 490.19L411.63 490.19M411.63 490.19L411.38 490.19M411.38 490.19L411.38 490.19M411.38 490.19L411.25 490.19M411.25 490.19L411.13 490.19M411.13 490.19L410.63 490.19M410.63 490.19L412.07 490.19M412.07 490.19L391.38 490.19M391.38 490.19L383.87 490.19M383.87 490.19L376.35 490.19M376.35 490.19L376.23 490.19M376.23 490.19L376.23 490.19M376.23 490.19L376.16 490.19M376.16 490.19L376.1 490.19M376.1 490.19L375.84 490.19M375.84 490.19L375.59 490.19M375.59 490.19L375.59 490.19M375.59 490.19L375.46 490.19M375.46 490.19L375.33 490.19M375.33 490.19L375.16 490.19M375.16 490.19L374.99 490.19M374.99 490.19L374.82 490.19M374.82 490.19L374.82 490.19M374.82 490.19L374.65 490.19M374.65 490.19L374.56 490.19M374.56 490.19L374.56 490.19M374.56 490.19L374.52 490.19M374.52 490.19L374.48 490.19M374.48 490.19L374.48 490.19M374.48 490.19L374.3 490.19M374.3 490.19L374.3 490.19M374.3 490.19L373.96 490.19M373.96 490.19L373.96 490.19M373.96 490.19L373.91 490.19M373.91 490.19L373.91 490.19M373.91 490.19L373.86 490.18M373.86 490.18L373.86 490.18M373.86 490.18L373.65 490.14M373.65 490.14L373.65 490.14M373.65 490.14L373.33 489.97M373.33 489.97L373.33 489.97M373.33 489.97L373.09 489.7M373.09 489.7L373.09 489.7M373.09 489.7L372.96 489.41M372.96 489.41L372.96 489.41M372.96 489.41L372.94 489.31M372.94 489.31L372.94 489.31M372.94 489.31L372.93 489.26M372.93 489.26L372.93 489.26M372.93 489.26L372.93 489.21M372.93 489.21L372.93 489.21M372.93 489.21L372.93 489.15M372.93 489.15L372.93 489.15M372.93 489.15L372.92 487.42M372.92 487.42L372.92 487.42M372.92 487.42L372.93 485.68M372.93 485.68L372.93 485.68M372.93 485.68L372.93 482.21M372.93 482.21L372.93 481.78M372.93 481.78L372.93 481.34M372.93 481.34L372.93 480.91M372.93 480.91L372.93 480.47M372.93 480.47L372.93 480.04M372.93 480.04L372.93 479.61M372.93 479.61L372.93 478.74M372.93 478.74L372.93 478.3M372.93 478.3L372.93 477.87M372.93 477.87L372.93 477M372.93 477L372.93 476.13M372.93 476.13L372.93 475.27M372.93 475.27L372.93 473.53M372.93 473.53L372.93 471.79M372.93 471.79L372.93 469.19M372.93 469.19L372.93 466.59M372.93 466.59L372.93 461.38M372.93 461.38L372.93 452.05M372.93 452.05L372.93 442.71M372.93 442.71L372.93 424.05M372.93 424.05L372.93 405.39M372.93 405.39L372.93 386.72M372.93 386.72L372.93 349.4M372.93 349.4L372.93 330.73M372.93 330.73L372.93 312.07M372.93 312.07L372.93 287.93M372.93 287.93L372.93 213.28M372.93 213.28L372.93 138.62M372.93 138.62L372.93 135.15M372.93 135.15L372.93 131.68M372.93 131.68L372.93 129.94M372.93 129.94L372.93 128.21M372.93 128.21L372.93 126.47M372.93 126.47L372.93 124.73M372.93 124.73L372.93 123.87M372.93 123.87L372.93 123M372.93 123L372.93 122.13M372.93 122.13L372.93 121.26M372.93 121.26L372.93 120.39M372.93 120.39L372.93 119.53M372.93 119.53L372.93 119.09M372.93 119.09L372.93 118.66M372.93 118.66L372.93 118.22M372.93 118.22L372.93 117.79M372.93 117.79L372.93 117.79M372.93 117.79L372.93 114.32M372.93 114.32L372.93 114.32M372.93 114.32L372.92 112.58M372.92 112.58L372.92 112.58M372.92 112.58L372.93 110.85M372.93 110.85L372.93 110.85M372.93 110.85L372.93 110.79M372.93 110.79L372.93 110.79M372.93 110.79L372.93 110.74M372.93 110.74L372.93 110.74M372.93 110.74L372.96 110.59M372.96 110.59L372.96 110.59M372.96 110.59L373.11 110.25M373.11 110.25L373.11 110.25M373.11 110.25L373.33 110.03M373.33 110.03L373.33 110.03M373.33 110.03L373.6 109.88M373.6 109.88L373.6 109.88M373.6 109.88L373.81 109.82M373.81 109.82L373.81 109.82M373.81 109.82L373.86 109.82M373.86 109.82L373.86 109.82M373.86 109.82L373.91 109.81M373.91 109.81L373.91 109.81M373.91 109.81L373.96 109.81M373.96 109.81L373.96 109.81M373.96 109.81L374.3 109.81M374.3 109.81L374.3 109.81M374.3 109.81L374.65 109.81M374.65 109.81L374.73 109.81M374.73 109.81L374.82 109.81M374.82 109.81L374.99 109.81M374.99 109.81L375.16 109.81M375.16 109.81L375.33 109.81M375.33 109.81L377.34 109.81M377.34 109.81L379.34 109.81M379.34 109.81L381.35 109.81M381.35 109.81L383.35 109.81M383.35 109.81L387.37 109.81M387.37 109.81L391.38 109.81M391.38 109.81L412.07 109.81"
fill="none" stroke="black" stroke-width="0.5"/>
<path d="M412.07 105.67L391.38 105.67M391.38 105.67L368.79 105.67M368.79 105.67L368.79 287.93M368.79 287.93L368.79 312.07M368.79 312.07L368.79 494.33M368.79 494.33L391.38 494.33M391.38 494.33L412.07 494.33M412.07 494.33L431.21 494.33M431.21 494.33L431.21 312.07M431.21 312.07L431.21 287.93M431.21 287.93L431.21 105.67M431.21 105.67L412.07 105.67"
fill="none" stroke="black" stroke-width="0.5"/>
<path d="M412.07 94.81L391.38 94.81M391.38 94.81L377.77 94.81M377.77 94.81L364.16 94.81M364.16 94.81L363.54 94.81M363.54 94.81L362.92 94.81M362.92 94.81L362.61 94.81M362.61 94.81L362.3 94.81M362.3 94.81L361.99 94.81M361.99 94.81L361.83 94.81M361.83 94.81L361.68 94.81M361.68 94.81L361.37 94.81M361.37 94.81L361.22 94.81M361.22 94.81L361.06 94.81M361.06 94.81L361.06 94.81M361.06 94.81L360.44 94.81M360.44 94.81L360.44 94.81M360.44 94.81L359.82 94.81M359.82 94.81L359.82 94.81M359.82 94.81L359.78 94.81M359.78 94.81L359.78 94.81M359.78 94.81L359.74 94.8M359.74 94.8L359.74 94.8M359.74 94.8L359.61 94.78M359.61 94.78L359.61 94.78M359.61 94.78L359.38 94.65M359.38 94.65L359.38 94.65M359.38 94.65L359.22 94.45M359.22 94.45L359.22 94.45M359.22 94.45L359.15 94.25M359.15 94.25L359.15 94.25M359.15 94.25L359.14 94.21M359.14 94.21L359.14 94.21M359.14 94.21L359.14 94.16M359.14 94.16L359.14 94.16M359.14 94.16L359.13 94.12M359.13 94.12L359.13 94.12M359.13 94.12L359.13 93.67M359.13 93.67L359.13 93.67M359.13 93.67L359.13 93.23M359.13 93.23L359.13 93.12M359.13 93.12L359.13 93M359.13 93L359.13 92.78M359.13 92.78L359.13 92.56M359.13 92.56L359.13 92.33M359.13 92.33L359.13 91.27M359.13 91.27L359.13 90.21M359.13 90.21L359.13 88.09M359.13 88.09L359.13 85.97M359.13 85.97L359.13 83.86M359.13 83.86L359.13 79.62M359.13 79.62L359.13 77.5M359.13 77.5L359.13 75.38M359.13 75.38L359.13 74.48M359.13 74.48L359.13 73.59M359.13 73.59L359.13 73.37M359.13 73.37L359.13 73.14M359.13 73.14L359.13 72.92M359.13 72.92L359.13 72.7M359.13 72.7L359.13 72.47M359.13 72.47L359.13 72.36M359.13 72.36L359.13 72.25M359.13 72.25L359.13 72.25M359.13 72.25L359.13 71.81M359.13 71.81L359.13 71.81M359.13 71.81L359.13 71.36M359.13 71.36L359.13 71.36M359.13 71.36L359.14 71.32M359.14 71.32L359.14 71.32M359.14 71.32L359.14 71.27M359.14 71.27L359.14 71.27M359.14 71.27L359.18 71.11M359.18 71.11L359.18 71.11M359.18 71.11L359.32 70.89M359.32 70.89L359.32 70.89M359.32 70.89L359.53 70.74M359.53 70.74L359.53 70.74M359.53 70.74L359.69 70.68M359.69 70.68L359.69 70.68M359.69 70.68L359.74 70.67M359.74 70.67L359.74 70.67M359.74 70.67L359.78 70.67M359.78 70.67L359.78 70.67M359.78 70.67L359.82 70.67M359.82 70.67L359.82 70.67M359.82 70.67L360.44 70.67M360.44 70.67L360.44 70.67M360.44 70.67L361.06 70.67M361.06 70.67L361.06 70.67M361.06 70.67L361.68 70.67M361.68 70.67L361.99 70.67M361.99 70.67L362.3 70.67M362.3 70.67L363.07 70.67M363.07 70.67L363.85 70.67M363.85 70.67L365.39 70.67M365.39 70.67L368.64 70.67M368.64 70.67L371.89 70.67M371.89 70.67L375.14 70.67M375.14 70.67L378.39 70.67M378.39 70.67L384.88 70.67M384.88 70.67L388.13 70.67M388.13 70.67L391.38 70.67M391.38 70.67L412.07 70.67M412.07 70.67L422.23 70.67M422.23 70.67L435.84 70.67M435.84 70.67L436.46 70.67M436.46 70.67L437.08 70.67M437.08 70.67L437.39 70.67M437.39 70.67L437.7 70.67M437.7 70.67L438.01 70.67M438.01 70.67L438.17 70.67M438.17 70.67L438.32 70.67M438.32 70.67L438.63 70.67M438.63 70.67L438.78 70.67M438.78 70.67L438.94 70.67M438.94 70.67L438.94 70.67M438.94 70.67L439.56 70.67M439.56 70.67L439.56 70.67M439.56 70.67L440.18 70.67M440.18 70.67L440.19 70.67M440.19 70.67L440.2 70.67M440.2 70.67L440.2 70.67M440.2 70.67L440.22 70.67M440.22 70.67L440.22 70.67M440.22 70.67L440.26 70.67M440.26 70.67L440.26 70.67M440.26 70.67L440.39 70.7M440.39 70.7L440.39 70.7M440.39 70.7L440.62 70.83M440.62 70.83L440.62 70.83M440.62 70.83L440.78 71.03M440.78 71.03L440.78 71.03M440.78 71.03L440.85 71.23M440.85 71.23L440.85 71.23M440.85 71.23L440.86 71.27M440.86 71.27L440.86 71.27M440.86 71.27L440.86 71.32M440.86 71.32L440.86 71.32M440.86 71.32L440.87 71.34M440.87 71.34L440.87 71.34M440.87 71.34L440.87 71.36M440.87 71.36L440.87 71.36M440.87 71.36L440.87 71.81M440.87 71.81L440.87 71.81M440.87 71.81L440.87 72.25M440.87 72.25L440.87 72.36M440.87 72.36L440.87 72.47M440.87 72.47L440.87 72.7M440.87 72.7L440.87 72.92M440.87 72.92L440.87 73.14M440.87 73.14L440.87 74.2M440.87 74.2L440.87 75.26M440.87 75.26L440.87 77.38M440.87 77.38L440.87 79.5M440.87 79.5L440.87 81.62M440.87 81.62L440.87 85.86M440.87 85.86L440.87 87.98M440.87 87.98L440.87 90.1M440.87 90.1L440.87 91M440.87 91L440.87 91.89M440.87 91.89L440.87 92.11M440.87 92.11L440.87 92.33M440.87 92.33L440.87 92.56M440.87 92.56L440.87 92.78M440.87 92.78L440.87 93M440.87 93L440.87 93.12M440.87 93.12L440.87 93.23M440.87 93.23L440.87 93.23M440.87 93.23L440.87 93.67M440.87 93.67L440.87 93.67M440.87 93.67L440.87 94.12M440.87 94.12L440.87 94.12M440.87 94.12L440.87 94.14M440.87 94.14L440.87 94.14M440.87 94.14L440.86 94.16M440.86 94.16L440.86 94.16M440.86 94.16L440.86 94.21M440.86 94.21L440.86 94.21M440.86 94.21L440.83 94.33M440.83 94.33L440.83 94.33M440.83 94.33L440.71 94.56M440.71 94.56L440.71 94.56M440.71 94.56L440.51 94.72M440.51 94.72L440.51 94.72M440.51 94.72L440.31 94.8M440.31 94.8L440.31 94.8M440.31 94.8L440.26 94.8M440.26 94.8L440.26 94.8M440.26 94.8L440.22 94.81M440.22 94.81L440.22 94.81M440.22 94.81L440.18 94.81M440.18 94.81L440.18 94.81M440.18 94.81L439.56 94.81M439.56 94.81L439.56 94.81M439.56 94.81L438.94 94.81M438.94 94.81L438.78 94.81M438.78 94.81L438.63 94.81M438.63 94.81L438.32 94.81M438.32 94.81L438.17 94.81M438.17 94.81L438.01 94.81M438.01 94.81L437.7 94.81M437.7 94.81L436.93 94.81M436.93 94.81L436.15 94.81M436.15 94.81L434.61 94.81M434.61 94.81L431.36 94.81M431.36 94.81L428.11 94.81M428.11 94.81L424.86 94.81M424.86 94.81L421.61 94.81M421.61 94.81L415.12 94.81M415.12 94.81L411.87 94.81M411.87 94.81L412.07 94.81"
fill="none" stroke="black" stroke-width="0.5"/>
<path d="M440.87 30.67L440.87 44.46M440.87 44.46L440.87 69.46M440.87 69.46L412.07 69.46M412.07 69.46L391.38 69.46M391.38 69.46L359.13 69.46M359.13 69.46L359.13 44.46M359.13 44.46L359.13 30.67M359.13 30.67L359.13 5.66M359.13 5.66L391.38 5.66M391.38 5.66L412.07 5.66M412.07 5.66L440.87 5.66M440.87 5.66L440.87 30.67"
fill="none" stroke="black" stroke-width="0.5"/>
<path d="M412.07 505.19L422.23 505.19M422.23 505.19L435.85 505.19M435.85 505.19L436.46 505.19M436.46 505.19L437.08 505.19M437.08 505.19L437.39 505.19M437.39 505.19L437.7 505.19M437.7 505.19L438.01 505.19M438.01 505.19L438.32 505.19M438.32 505.19L438.32 505.19M438.32 505.19L438.94 505.19M438.94 505.19L438.94 505.19M438.94 505.19L439.56 505.19M439.56 505.19L439.56 505.19M439.56 505.19L440.18 505.19M440.18 505.19L440.18 505.19M440.18 505.19L440.22 505.19M440.22 505.19L440.22 505.19M440.22 505.19L440.26 505.2M440.26 505.2L440.26 505.2M440.26 505.2L440.39 505.22M440.39 505.22L440.39 505.22M440.39 505.22L440.62 505.35M440.62 505.35L440.62 505.35M440.62 505.35L440.78 505.55M440.78 505.55L440.78 505.55M440.78 505.55L440.85 505.75M440.85 505.75L440.85 505.75M440.85 505.75L440.86 505.79M440.86 505.79L440.86 505.79M440.86 505.79L440.86 505.84M440.86 505.84L440.86 505.84M440.86 505.84L440.87 505.88M440.87 505.88L440.87 505.88M440.87 505.88L440.87 506.33M440.87 506.33L440.87 506.33M440.87 506.33L440.87 506.77M440.87 506.77L440.87 506.88M440.87 506.88L440.87 507M440.87 507L440.87 507.22M440.87 507.22L440.87 507.44M440.87 507.44L440.87 507.67M440.87 507.67L440.87 508.73M440.87 508.73L440.87 509.79M440.87 509.79L440.87 511.91M440.87 511.91L440.87 514.02M440.87 514.02L440.87 516.14M440.87 516.14L440.87 520.38M440.87 520.38L440.87 522.5M440.87 522.5L440.87 524.62M440.87 524.62L440.87 525.52M440.87 525.52L440.87 526.41M440.87 526.41L440.87 526.63M440.87 526.63L440.87 526.86M440.87 526.86L440.87 527.08M440.87 527.08L440.87 527.3M440.87 527.3L440.87 527.53M440.87 527.53L440.87 527.64M440.87 527.64L440.87 527.75M440.87 527.75L440.87 527.75M440.87 527.75L440.87 528.19M440.87 528.19L440.87 528.19M440.87 528.19L440.87 528.64M440.87 528.64L440.87 528.64M440.87 528.64L440.86 528.68M440.86 528.68L440.86 528.68M440.86 528.68L440.86 528.73M440.86 528.73L440.86 528.73M440.86 528.73L440.83 528.85M440.83 528.85L440.83 528.85M440.83 528.85L440.71 529.08M440.71 529.08L440.71 529.08M440.71 529.08L440.51 529.25M440.51 529.25L440.51 529.25M440.51 529.25L440.31 529.32M440.31 529.32L440.31 529.32M440.31 529.32L440.26 529.33M440.26 529.33L440.26 529.33M440.26 529.33L440.22 529.33M440.22 529.33L440.22 529.33M440.22 529.33L440.2 529.33M440.2 529.33L440.18 529.33M440.18 529.33L440.18 529.33M440.18 529.33L439.56 529.33M439.56 529.33L439.56 529.33M439.56 529.33L438.94 529.33M438.94 529.33L438.94 529.33M438.94 529.33L438.63 529.33M438.63 529.33L438.32 529.33M438.32 529.33L438.32 529.33M438.32 529.33L438.01 529.33M438.01 529.33L437.7 529.33M437.7 529.33L436.93 529.33M436.93 529.33L436.15 529.33M436.15 529.33L435.38 529.33M435.38 529.33L435.19 529.33M435.19 529.33L435.19 529.33M435.19 529.33L434.99 529.33M434.99 529.33L434.61 529.33M434.61 529.33L434.2 529.33M434.2 529.33L434.1 529.33M434.1 529.33L434.1 529.33M434.1 529.33L434 529.33M434 529.33L433.8 529.33M433.8 529.33L432.98 529.33M432.98 529.33L432.98 529.33M432.98 529.33L431.36 529.33M431.36 529.33L431.36 529.33M431.36 529.33L428.11 529.33M428.11 529.33L428.11 529.33M428.11 529.33L428.01 529.33M428.01 529.33L427.91 529.33M427.91 529.33L427.7 529.33M427.7 529.33L427.3 529.33M427.3 529.33L426.49 529.33M426.49 529.33L424.86 529.33M424.86 529.33L424.05 529.33M424.05 529.33L423.85 529.33M423.85 529.33L423.85 529.33M423.85 529.33L423.64 529.33M423.64 529.33L423.24 529.33M423.24 529.33L421.61 529.33M421.61 529.33L419.99 529.33M419.99 529.33L419.58 529.33M419.58 529.33L419.58 529.33M419.58 529.33L419.38 529.33M419.38 529.33L419.18 529.33M419.18 529.33L418.37 529.33M418.37 529.33L416.74 529.33M416.74 529.33L416.34 529.33M416.34 529.33L416.34 529.33M416.34 529.33L416.13 529.33M416.13 529.33L415.93 529.33M415.93 529.33L415.12 529.33M415.12 529.33L413.49 529.33M413.49 529.33L413.09 529.33M413.09 529.33L413.09 529.33M413.09 529.33L412.88 529.33M412.88 529.33L412.68 529.33M412.68 529.33L411.87 529.33M411.87 529.33L412.07 529.33M412.07 529.33L391.38 529.33M391.38 529.33L377.77 529.33M377.77 529.33L370.96 529.33M370.96 529.33L364.16 529.33M364.16 529.33L363.54 529.33M363.54 529.33L362.92 529.33M362.92 529.33L362.61 529.33M362.61 529.33L362.3 529.33M362.3 529.33L362.3 529.33M362.3 529.33L361.68 529.33M361.68 529.33L361.37 529.33M361.37 529.33L361.37 529.33M361.37 529.33L361.06 529.33M361.06 529.33L361.06 529.33M361.06 529.33L360.44 529.33M360.44 529.33L360.44 529.33M360.44 529.33L359.82 529.33M359.82 529.33L359.8 529.33M359.8 529.33L359.8 529.33M359.8 529.33L359.78 529.33M359.78 529.33L359.78 529.33M359.78 529.33L359.74 529.33M359.74 529.33L359.74 529.33M359.74 529.33L359.61 529.3M359.61 529.3L359.61 529.3M359.61 529.3L359.38 529.17M359.38 529.17L359.38 529.17M359.38 529.17L359.22 528.97M359.22 528.97L359.22 528.97M359.22 528.97L359.15 528.77M359.15 528.77L359.15 528.77M359.15 528.77L359.14 528.73M359.14 528.73L359.14 528.73M359.14 528.73L359.14 528.68M359.14 528.68L359.14 528.68M359.14 528.68L359.13 528.64M359.13 528.64L359.13 528.64M359.13 528.64L359.13 528.19M359.13 528.19L359.13 528.19M359.13 528.19L359.13 527.75M359.13 527.75L359.13 527.64M359.13 527.64L359.13 527.53M359.13 527.53L359.13 527.3M359.13 527.3L359.13 527.08M359.13 527.08L359.13 526.86M359.13 526.86L359.13 525.91M359.13 525.91L359.13 524.96M359.13 524.96L359.13 524.01M359.13 524.01L359.13 523.06M359.13 523.06L359.13 521.17M359.13 521.17L359.13 519.27M359.13 519.27L359.13 517.93M359.13 517.93L359.13 516.59M359.13 516.59L359.13 513.91M359.13 513.91L359.13 511.24M359.13 511.24L359.13 508.56M359.13 508.56L359.13 508.11M359.13 508.11L359.13 507.67M359.13 507.67L359.13 507.44M359.13 507.44L359.13 507.22M359.13 507.22L359.13 507M359.13 507L359.13 506.88M359.13 506.88L359.13 506.77M359.13 506.77L359.13 506.77M359.13 506.77L359.13 506.33M359.13 506.33L359.13 506.33M359.13 506.33L359.13 505.88M359.13 505.88L359.13 505.88M359.13 505.88L359.13 505.86M359.13 505.86L359.13 505.86M359.13 505.86L359.14 505.84M359.14 505.84L359.14 505.84M359.14 505.84L359.14 505.79M359.14 505.79L359.14 505.79M359.14 505.79L359.17 505.67M359.17 505.67L359.17 505.67M359.17 505.67L359.29 505.44M359.29 505.44L359.29 505.44M359.29 505.44L359.49 505.28M359.49 505.28L359.49 505.28M359.49 505.28L359.69 505.2M359.69 505.2L359.69 505.2M359.69 505.2L359.74 505.2M359.74 505.2L359.74 505.2M359.74 505.2L359.78 505.19M359.78 505.19L359.78 505.19M359.78 505.19L359.82 505.19M359.82 505.19L359.82 505.19M359.82 505.19L360.44 505.19M360.44 505.19L360.44 505.19M360.44 505.19L361.06 505.19M361.06 505.19L361.06 505.19M361.06 505.19L361.68 505.19M361.68 505.19L361.99 505.19M361.99 505.19L362.3 505.19M362.3 505.19L362.53 505.19M362.53 505.19L362.59 505.19M362.59 505.19L362.59 505.19M362.59 505.19L362.65 505.19M362.65 505.19L362.76 505.19M362.76 505.19L363.23 505.19M363.23 505.19L364.16 505.19M364.16 505.19L364.62 505.19M364.62 505.19L364.74 505.19M364.74 505.19L364.74 505.19M364.74 505.19L364.79 505.19M364.79 505.19L364.85 505.19M364.85 505.19L365.08 505.19M365.08 505.19L366.01 505.19M366.01 505.19L367.6 505.19M367.6 505.19L369.18 505.19M369.18 505.19L369.18 505.19M369.18 505.19L369.28 505.19M369.28 505.19L369.38 505.19M369.38 505.19L369.58 505.19M369.58 505.19L369.97 505.19M369.97 505.19L370.77 505.19M370.77 505.19L372.35 505.19M372.35 505.19L378.69 505.19M378.69 505.19L380.28 505.19M380.28 505.19L380.68 505.19M380.68 505.19L380.68 505.19M380.68 505.19L380.87 505.19M380.87 505.19L381.07 505.19M381.07 505.19L381.87 505.19M381.87 505.19L383.45 505.19M383.45 505.19L383.85 505.19M383.85 505.19L383.85 505.19M383.85 505.19L384.05 505.19M384.05 505.19L384.24 505.19M384.24 505.19L385.04 505.19M385.04 505.19L386.62 505.19M386.62 505.19L387.02 505.19M387.02 505.19L387.02 505.19M387.02 505.19L387.22 505.19M387.22 505.19L387.41 505.19M387.41 505.19L388.21 505.19M388.21 505.19L391.38 505.19M391.38 505.19L412.07 505.19"
fill="none" stroke="black" stroke-width="0.5"/>
<path d="M412.07 594.34L391.38 594.34M391.38 594.34L359.13 594.34M359.13 594.34L359.13 569.33M359.13 569.33L359.13 555.54M359.13 555.54L359.13 530.54M359.13 530.54L391.38 530.54M391.38 530.54L412.07 530.54M412.07 530.54L440.87 530.54M440.87 530.54L440.87 555.54M440.87 555.54L440.87 569.33M440.87 569.33L440.87 594.34M440.87 594.34L412.07 594.34"
fill="none" stroke="black" stroke-width="0.5"/>
<path d="M442.07 30.67L442.07 19.81M442.07 19.81L442.07 8.95M442.07 8.95L442.07 8.45M442.07 8.45L442.07 7.96M442.07 7.96L442.07 7.71M442.07 7.71L442.07 7.47M442.07 7.47L442.07 7.22M442.07 7.22L442.07 6.97M442.07 6.97L442.07 6.73M442.07 6.73L442.07 6.6M442.07 6.6L442.07 6.48M442.07 6.48L442.07 6.48M442.07 6.48L442.07 5.98M442.07 5.98L442.07 5.98M442.07 5.98L442.07 5.49M442.07 5.49L442.07 5.49M442.07 5.49L442.07 5.44M442.07 5.44L442.07 5.44M442.07 5.44L442.07 5.39M442.07 5.39L442.07 5.39M442.07 5.39L442.03 5.18M442.03 5.18L442.03 5.18M442.03 5.18L441.86 4.86M441.86 4.86L441.86 4.86M441.86 4.86L441.59 4.61M441.59 4.61L441.59 4.61M441.59 4.61L441.3 4.49M441.3 4.49L441.3 4.49M441.3 4.49L441.19 4.47M441.19 4.47L441.19 4.47M441.19 4.47L441.14 4.46M441.14 4.46L441.14 4.46M441.14 4.46L441.09 4.46M441.09 4.46L441.09 4.46M441.09 4.46L441.04 4.46M441.04 4.46L441.04 4.46M441.04 4.46L440.4 4.46M440.4 4.46L440.4 4.46M440.4 4.46L440.08 4.46M440.08 4.46L439.93 4.46M439.93 4.46L439.77 4.46M439.77 4.46L439.61 4.46M439.61 4.46L439.45 4.46M439.45 4.46L439.13 4.46M439.13 4.46L438.81 4.46M438.81 4.46L438.5 4.46M438.5 4.46L437.38 4.46M437.38 4.46L436.27 4.46M436.27 4.46L435.16 4.46M435.16 4.46L434.05 4.46M434.05 4.46L429.6 4.46M429.6 4.46L426.97 4.46M426.97 4.46L424.35 4.46M424.35 4.46L421.73 4.46M421.73 4.46L419.11 4.46M419.11 4.46L413.86 4.46M413.86 4.46L412.07 4.46M412.07 4.46L391.38 4.46M391.38 4.46L377.39 4.46M377.39 4.46L363.41 4.46M363.41 4.46L362.78 4.46M362.78 4.46L362.14 4.46M362.14 4.46L361.82 4.46M361.82 4.46L361.5 4.46M361.5 4.46L361.19 4.46M361.19 4.46L360.87 4.46M360.87 4.46L360.55 4.46M360.55 4.46L360.39 4.46M360.39 4.46L360.23 4.46M360.23 4.46L360.07 4.46M360.07 4.46L359.92 4.46M359.92 4.46L359.92 4.46M359.92 4.46L359.6 4.46M359.6 4.46L359.6 4.46M359.6 4.46L358.96 4.46M358.96 4.46L358.96 4.46M358.96 4.46L358.91 4.46M358.91 4.46L358.91 4.46M358.91 4.46L358.86 4.46M358.86 4.46L358.86 4.46M358.86 4.46L358.65 4.5M358.65 4.5L358.65 4.5M358.65 4.5L358.33 4.67M358.33 4.67L358.33 4.67M358.33 4.67L358.08 4.94M358.08 4.94L358.08 4.94M358.08 4.94L357.96 5.23M357.96 5.23L357.96 5.23M357.96 5.23L357.94 5.33M357.94 5.33L357.94 5.33M357.94 5.33L357.93 5.39M357.93 5.39L357.93 5.39M357.93 5.39L357.93 5.44M357.93 5.44L357.93 5.44M357.93 5.44L357.93 5.49M357.93 5.49L357.93 5.49M357.93 5.49L357.93 5.98M357.93 5.98L357.93 5.98M357.93 5.98L357.93 6.48M357.93 6.48L357.93 6.6M357.93 6.6L357.93 6.73M357.93 6.73L357.93 6.97M357.93 6.97L357.93 7.22M357.93 7.22L357.93 7.47M357.93 7.47L357.93 8.92M357.93 8.92L357.93 10.37M357.93 10.37L357.93 13.27M357.93 13.27L357.93 16.17M357.93 16.17L357.93 19.07M357.93 19.07L357.93 24.87M357.93 24.87L357.93 27.77M357.93 27.77L357.93 30.67M357.93 30.67L357.93 44.46M357.93 44.46L357.93 287.93M357.93 287.93L357.93 312.07M357.93 312.07L357.93 555.54M357.93 555.54L357.93 569.33M357.93 569.33L357.93 580.19M357.93 580.19L357.93 591.05M357.93 591.05L357.93 591.55M357.93 591.55L357.93 592.04M357.93 592.04L357.93 592.29M357.93 592.29L357.93 592.53M357.93 592.53L357.93 592.78M357.93 592.78L357.93 593.03M357.93 593.03L357.93 593.27M357.93 593.27L357.93 593.4M357.93 593.4L357.93 593.52M357.93 593.52L357.93 593.52M357.93 593.52L357.93 594.02M357.93 594.02L357.93 594.02M357.93 594.02L357.93 594.51M357.93 594.51L357.93 594.51M357.93 594.51L357.93 594.56M357.93 594.56L357.93 594.56M357.93 594.56L357.93 594.61M357.93 594.61L357.93 594.61M357.93 594.61L357.97 594.82M357.97 594.82L357.97 594.82M357.97 594.82L358.14 595.14M358.14 595.14L358.14 595.14M358.14 595.14L358.41 595.39M358.41 595.39L358.41 595.39M358.41 595.39L358.7 595.51M358.7 595.51L358.7 595.51M358.7 595.51L358.81 595.53M358.81 595.53L358.81 595.53M358.81 595.53L358.86 595.54M358.86 595.54L358.86 595.54M358.86 595.54L358.91 595.54M358.91 595.54L358.91 595.54M358.91 595.54L358.96 595.54M358.96 595.54L358.96 595.54M358.96 595.54L359.6 595.54M359.6 595.54L359.6 595.54M359.6 595.54L359.92 595.54M359.92 595.54L360.07 595.54M360.07 595.54L360.07 595.54M360.07 595.54L360.15 595.54M360.15 595.54L360.23 595.54M360.23 595.54L360.39 595.54M360.39 595.54L360.55 595.54M360.55 595.54L360.87 595.54M360.87 595.54L361.03 595.54M361.03 595.54L361.19 595.54M361.19 595.54L361.5 595.54M361.5 595.54L361.78 595.54M361.78 595.54L361.85 595.54M361.85 595.54L361.85 595.54M361.85 595.54L361.92 595.54M361.92 595.54L362.06 595.54M362.06 595.54L362.62 595.54M362.62 595.54L363.73 595.54M363.73 595.54L365.95 595.54M365.95 595.54L370.4 595.54M370.4 595.54L371.06 595.54M371.06 595.54L371.22 595.54M371.22 595.54L371.22 595.54M371.22 595.54L371.39 595.54M371.39 595.54L371.71 595.54M371.71 595.54L373.03 595.54M373.03 595.54L375.65 595.54M375.65 595.54L378.27 595.54M378.27 595.54L378.92 595.54M378.92 595.54L379.09 595.54M379.09 595.54L379.09 595.54M379.09 595.54L379.25 595.54M379.25 595.54L379.58 595.54M379.58 595.54L380.89 595.54M380.89 595.54L386.13 595.54M386.13 595.54L386.13 595.54M386.13 595.54L386.3 595.54M386.3 595.54L386.46 595.54M386.46 595.54L386.79 595.54M386.79 595.54L387.45 595.54M387.45 595.54L388.76 595.54M388.76 595.54L391.38 595.54M391.38 595.54L412.07 595.54M412.07 595.54L422.61 595.54M422.61 595.54L429.6 595.54M429.6 595.54L436.59 595.54M436.59 595.54L437.22 595.54M437.22 595.54L437.86 595.54M437.86 595.54L438.18 595.54M438.18 595.54L438.5 595.54M438.5 595.54L438.81 595.54M438.81 595.54L438.97 595.54M438.97 595.54L439.13 595.54M439.13 595.54L439.45 595.54M439.45 595.54L439.61 595.54M439.61 595.54L439.77 595.54M439.77 595.54L439.77 595.54M439.77 595.54L440.4 595.54M440.4 595.54L440.4 595.54M440.4 595.54L441.04 595.54M441.04 595.54L441.04 595.54M441.04 595.54L441.09 595.54M441.09 595.54L441.09 595.54M441.09 595.54L441.14 595.54M441.14 595.54L441.14 595.54M441.14 595.54L441.35 595.5M441.35 595.5L441.35 595.5M441.35 595.5L441.67 595.33M441.67 595.33L441.67 595.33M441.67 595.33L441.92 595.06M441.92 595.06L441.92 595.06M441.92 595.06L442.04 594.77M442.04 594.77L442.04 594.77M442.04 594.77L442.06 594.67M442.06 594.67L442.06 594.67M442.06 594.67L442.07 594.61M442.07 594.61L442.07 594.61M442.07 594.61L442.07 594.56M442.07 594.56L442.07 594.56M442.07 594.56L442.07 594.51M442.07 594.51L442.07 594.51M442.07 594.51L442.07 594.02M442.07 594.02L442.07 594.02M442.07 594.02L442.07 593.52M442.07 593.52L442.07 593.4M442.07 593.4L442.07 593.27M442.07 593.27L442.07 593.03M442.07 593.03L442.07 592.78M442.07 592.78L442.07 592.53M442.07 592.53L442.07 591.08M442.07 591.08L442.07 589.63M442.07 589.63L442.07 586.73M442.07 586.73L442.07 583.83M442.07 583.83L442.07 580.93M442.07 580.93L442.07 575.13M442.07 575.13L442.07 572.23M442.07 572.23L442.07 569.33M442.07 569.33L442.07 555.54M442.07 555.54L442.07 312.07M442.07 312.07L442.07 287.93M442.07 287.93L442.07 44.46M442.07 44.46L442.07 30.67"
fill="none" stroke="black" stroke-width="0.5"/>
<path d="M440.87 96.02L440.87 287.93M440.87 287.93L440.87 312.07M440.87 312.07L440.87 503.98M440.87 503.98L412.07 503.98M412.07 503.98L391.38 503.98M391.38 503.98L359.13 503.98M359.13 503.98L359.13 312.07M359.13 312.07L359.13 287.93M359.13 287.93L359.13 96.02M359.13 96.02L391.38 96.02M391.38 96.02L412.07 96.02M412.07 96.02L440.87 96.02"
fill="none" stroke="black" stroke-width="0.5"/>
<path d="M372.93 569.33L372.93 555.54M372.93 555.54L372.93 551.05M372.93 551.05L372.93 546.56M372.93 546.56L372.93 546.36M372.93 546.36L372.93 546.16M372.93 546.16L372.93 546.06M372.93 546.06L372.93 545.96M372.93 545.96L372.93 545.87M372.93 545.87L372.93 545.77M372.93 545.77L372.93 545.67M372.93 545.67L372.93 545.67M372.93 545.67L372.93 545.57M372.93 545.57L372.93 545.57M372.93 545.57L372.93 545.37M372.93 545.37L372.93 545.37M372.93 545.37L372.93 545.31M372.93 545.31L372.93 545.31M372.93 545.31L372.93 545.26M372.93 545.26L372.93 545.26M372.93 545.26L372.98 545.06M372.98 545.06L372.98 545.06M372.98 545.06L373.15 544.73M373.15 544.73L373.15 544.73M373.15 544.73L373.42 544.49M373.42 544.49L373.42 544.49M373.42 544.49L373.7 544.36M373.7 544.36L373.7 544.36M373.7 544.36L373.81 544.34M373.81 544.34L373.81 544.34M373.81 544.34L373.86 544.34M373.86 544.34L373.86 544.34M373.86 544.34L373.91 544.33M373.91 544.33L373.91 544.33M373.91 544.33L373.96 544.33M373.96 544.33L373.96 544.33M373.96 544.33L374.3 544.33M374.3 544.33L374.3 544.33M374.3 544.33L374.48 544.33M374.48 544.33L374.52 544.33M374.52 544.33L374.52 544.33M374.52 544.33L374.56 544.33M374.56 544.33L374.65 544.33M374.65 544.33L374.65 544.33M374.65 544.33L374.82 544.33M374.82 544.33L374.99 544.33M374.99 544.33L375.16 544.33M375.16 544.33L375.33 544.33M375.33 544.33L375.33 544.33M375.33 544.33L375.83 544.33M375.83 544.33L375.83 544.33M375.83 544.33L376.33 544.33M376.33 544.33L376.33 544.33M376.33 544.33L377.34 544.33M377.34 544.33L377.34 544.33M377.34 544.33L379.34 544.33M379.34 544.33L379.34 544.33M379.34 544.33L379.4 544.33M379.4 544.33L379.47 544.33M379.47 544.33L379.59 544.33M379.59 544.33L379.84 544.33M379.84 544.33L380.34 544.33M380.34 544.33L381.35 544.33M381.35 544.33L381.85 544.33M381.85 544.33L381.97 544.33M381.97 544.33L381.97 544.33M381.97 544.33L382.1 544.33M382.1 544.33L382.35 544.33M382.35 544.33L383.35 544.33M383.35 544.33L385.36 544.33M385.36 544.33L385.86 544.33M385.86 544.33L385.99 544.33M385.99 544.33L385.99 544.33M385.99 544.33L386.05 544.33M386.05 544.33L386.05 544.33M386.05 544.33L386.11 544.33M386.11 544.33L386.36 544.33M386.36 544.33L387.37 544.33M387.37 544.33L388.37 544.33M388.37 544.33L388.62 544.33M388.62 544.33L388.62 544.33M388.62 544.33L388.75 544.33M388.75 544.33L388.87 544.33M388.87 544.33L389.37 544.33M389.37 544.33L391.38 544.33M391.38 544.33L412.07 544.33M412.07 544.33L416.13 544.33M416.13 544.33L423.65 544.33M423.65 544.33L424.16 544.33M424.16 544.33L424.41 544.33M424.41 544.33L424.67 544.33M424.67 544.33L424.84 544.33M424.84 544.33L425.01 544.33M425.01 544.33L425.18 544.33M425.18 544.33L425.18 544.33M425.18 544.33L425.35 544.33M425.35 544.33L425.44 544.33M425.44 544.33L425.44 544.33M425.44 544.33L425.48 544.33M425.48 544.33L425.52 544.33M425.52 544.33L425.52 544.33M425.52 544.33L425.7 544.33M425.7 544.33L425.7 544.33M425.7 544.33L426.04 544.33M426.04 544.33L426.04 544.33M426.04 544.33L426.09 544.33M426.09 544.33L426.09 544.33M426.09 544.33L426.14 544.34M426.14 544.34L426.14 544.34M426.14 544.34L426.35 544.38M426.35 544.38L426.35 544.38M426.35 544.38L426.67 544.55M426.67 544.55L426.67 544.55M426.67 544.55L426.91 544.82M426.91 544.82L426.91 544.82M426.91 544.82L427.04 545.11M427.04 545.11L427.04 545.11M427.04 545.11L427.06 545.21M427.06 545.21L427.06 545.21M427.06 545.21L427.07 545.26M427.07 545.26L427.07 545.26M427.07 545.26L427.07 545.31M427.07 545.31L427.07 545.31M427.07 545.31L427.07 545.37M427.07 545.37L427.07 545.37M427.07 545.37L427.07 545.57M427.07 545.57L427.07 545.57M427.07 545.57L427.07 545.67M427.07 545.67L427.07 545.77M427.07 545.77L427.07 545.87M427.07 545.87L427.07 545.96M427.07 545.96L427.07 546.29M427.07 546.29L427.07 546.61M427.07 546.61L427.07 546.94M427.07 546.94L427.07 547.26M427.07 547.26L427.07 548.56M427.07 548.56L427.07 549.43M427.07 549.43L427.07 550.3M427.07 550.3L427.07 551.18M427.07 551.18L427.07 552.05M427.07 552.05L427.07 553.79M427.07 553.79L427.07 554.67M427.07 554.67L427.07 555.54M427.07 555.54L427.07 569.33M427.07 569.33L427.07 573.82M427.07 573.82L427.07 578.31M427.07 578.31L427.07 578.51M427.07 578.51L427.07 578.71M427.07 578.71L427.07 578.81M427.07 578.81L427.07 578.91M427.07 578.91L427.07 579.01M427.07 579.01L427.07 579.11M427.07 579.11L427.07 579.21M427.07 579.21L427.07 579.21M427.07 579.21L427.07 579.31M427.07 579.31L427.07 579.31M427.07 579.31L427.07 579.51M427.07 579.51L427.07 579.51M427.07 579.51L427.07 579.56M427.07 579.56L427.07 579.56M427.07 579.56L427.07 579.61M427.07 579.61L427.07 579.61M427.07 579.61L427.02 579.82M427.02 579.82L427.02 579.82M427.02 579.82L426.85 580.14M426.85 580.14L426.85 580.14M426.85 580.14L426.58 580.39M426.58 580.39L426.58 580.39M426.58 580.39L426.3 580.51M426.3 580.51L426.3 580.51M426.3 580.51L426.19 580.53M426.19 580.53L426.19 580.53M426.19 580.53L426.14 580.54M426.14 580.54L426.14 580.54M426.14 580.54L426.09 580.54M426.09 580.54L426.09 580.54M426.09 580.54L426.04 580.54M426.04 580.54L426.04 580.54M426.04 580.54L425.7 580.54M425.7 580.54L425.7 580.54M425.7 580.54L425.35 580.54M425.35 580.54L425.18 580.54M425.18 580.54L425.01 580.54M425.01 580.54L424.84 580.54M424.84 580.54L424.67 580.54M424.67 580.54L422.66 580.54M422.66 580.54L422.66 580.54M422.66 580.54L422.6 580.54M422.6 580.54L422.54 580.54M422.54 580.54L422.41 580.54M422.41 580.54L422.16 580.54M422.16 580.54L421.66 580.54M421.66 580.54L420.66 580.54M420.66 580.54L416.65 580.54M416.65 580.54L412.63 580.54M412.63 580.54L412.63 580.54M412.63 580.54L412.51 580.54M412.51 580.54L412.38 580.54M412.38 580.54L412.13 580.54M412.13 580.54L411.63 580.54M411.63 580.54L410.63 580.54M410.63 580.54L412.07 580.54M412.07 580.54L391.38 580.54M391.38 580.54L383.87 580.54M383.87 580.54L376.35 580.54M376.35 580.54L375.84 580.54M375.84 580.54L375.33 580.54M375.33 580.54L375.16 580.54M375.16 580.54L374.99 580.54M374.99 580.54L374.82 580.54M374.82 580.54L374.82 580.54M374.82 580.54L374.65 580.54M374.65 580.54L374.65 580.54M374.65 580.54L374.3 580.54M374.3 580.54L374.3 580.54M374.3 580.54L373.96 580.54M373.96 580.54L373.96 580.54M373.96 580.54L373.91 580.54M373.91 580.54L373.91 580.54M373.91 580.54L373.86 580.54M373.86 580.54L373.86 580.54M373.86 580.54L373.65 580.49M373.65 580.49L373.65 580.49M373.65 580.49L373.33 580.33M373.33 580.33L373.33 580.33M373.33 580.33L373.09 580.05M373.09 580.05L373.09 580.05M373.09 580.05L372.96 579.77M372.96 579.77L372.96 579.77M372.96 579.77L372.94 579.66M372.94 579.66L372.94 579.66M372.94 579.66L372.93 579.61M372.93 579.61L372.93 579.61M372.93 579.61L372.93 579.56M372.93 579.56L372.93 579.56M372.93 579.56L372.93 579.51M372.93 579.51L372.93 579.51M372.93 579.51L372.93 579.31M372.93 579.31L372.93 579.31M372.93 579.31L372.93 579.11M372.93 579.11L372.93 579.11M372.93 579.11L372.93 578.91M372.93 578.91L372.93 578.58M372.93 578.58L372.93 578.26M372.93 578.26L372.93 577.61M372.93 577.61L372.93 576.96M372.93 576.96L372.93 576.32M372.93 576.32L372.93 575.44M372.93 575.44L372.93 574.57M372.93 574.57L372.93 573.7M372.93 573.7L372.93 572.82M372.93 572.82L372.93 571.08M372.93 571.08L372.93 570.21M372.93 570.21L372.93 569.33"
fill="none" stroke="black" stroke-width="0.5"/>
<path d="M368.79 569.33L368.79 584.68M368.79 584.68L391.38 584.68M391.38 584.68L412.07 584.68M412.07 584.68L431.21 584.68M431.21 584.68L431.21 569.33M431.21 569.33L431.21 555.54M431.21 555.54L431.21 540.19M431.21 540.19L412.07 540.19M412.07 540.19L391.38 540.19M391.38 540.19L368.79 540.19M368.79 540.19L368.79 555.54M368.79 555.54L368.79 569.33"
fill="none" stroke="black" stroke-width="0.5"/>
<path d="M441.04 3.42L358.96 3.42M358.96 3.42L358.96 3.42M358.96 3.42L358.17 3.58M358.17 3.58L357.5 4.03M357.5 4.03L357.05 4.7M357.05 4.7L356.89 5.49M356.89 5.49L356.89 594.51M356.89 594.51L356.89 594.51M356.89 594.51L357.05 595.3M357.05 595.3L357.5 595.97M357.5 595.97L358.17 596.42M358.17 596.42L358.96 596.58M358.96 596.58L441.04 596.58M441.04 596.58L441.04 596.58M441.04 596.58L441.83 596.42M441.83 596.42L442.5 595.97M442.5 595.97L442.95 595.3M442.95 595.3L443.11 594.51M443.11 594.51L443.11 5.49M443.11 5.49L443.11 5.49M443.11 5.49L442.95 4.7M442.95 4.7L442.5 4.03M442.5 4.03L441.83 3.58M441.83 3.58L441.04 3.42"
fill="none" stroke="black" stroke-width="0.5"/>
</svg>
