<?xml version="1.0" encoding="UTF-8"?>
<svg xmlns="http://www.w3.org/2000/svg" width="800.000" height="600.000" viewBox="0.0 0.0 800.000 600.000" version="1.1">
  <title>Produce by Acme CAD Converter</title>
  <desc>Produce by Acme CAD Converter</desc>
<path d="M460.35 1.7L339.65 1.7M339.65 1.7L339.65 598.3M339.65 598.3L460.35 598.3M460.35 598.3L460.35 1.7"
fill="none" stroke="black" stroke-width="0.5"/>
<path d="M458.63 3.42L341.37 3.42M341.37 3.42L341.37 596.58M341.37 596.58L458.63 596.58M458.63 596.58L458.63 3.42"
fill="none" stroke="black" stroke-width="0.5"/>
<path d="M365 569.33L365 570.5M365 570.5L365 571.66M365 571.66L365 571.71M365 571.71L365 571.77M365 571.77L365 571.79M365 571.79L365 571.82M365 571.82L365 571.84M365 571.84L365 571.87M365 571.87L365 571.87M365 571.87L365 571.92M365 571.92L365 571.92M365 571.92L365 571.97M365 571.97L365 571.97M365 571.97L365 572.03M365 572.03L365 572.03M365 572.03L365.06 572.28M365.06 572.28L365.06 572.28M365.06 572.28L365.25 572.59M365.25 572.59L365.25 572.59M365.25 572.59L365.53 572.83M365.53 572.83L365.53 572.83M365.53 572.83L365.87 572.94M365.87 572.94L365.87 572.94M365.87 572.94L365.93 572.95M365.93 572.95L365.93 572.95M365.93 572.95L365.98 572.95M365.98 572.95L365.98 572.95M365.98 572.95L366.03 572.96M366.03 572.96L366.03 572.96M366.03 572.96L366.22 572.96M366.22 572.96L366.22 572.96M366.22 572.96L366.42 572.96M366.42 572.96L366.51 572.96M366.51 572.96L366.61 572.96M366.61 572.96L366.72 572.96M366.72 572.96L366.72 572.96M366.72 572.96L366.84 572.96M366.84 572.96L367.07 572.96M367.07 572.96L367.18 572.96M367.18 572.96L367.18 572.96M367.18 572.96L367.3 572.95M367.3 572.95L367.53 572.95M367.53 572.95L367.98 572.95M367.98 572.95L368.21 572.95M368.21 572.95L368.33 572.95M368.33 572.95L368.33 572.95M368.33 572.95L368.44 572.95M368.44 572.95L369.36 572.96M369.36 572.96L369.59 572.96M369.59 572.96L369.64 572.96M369.64 572.96L369.64 572.96M369.64 572.96L369.7 572.96M369.7 572.96L369.81 572.96M369.81 572.96L370.27 572.96M370.27 572.96L370.62 572.96M370.62 572.96L370.71 572.96M370.71 572.96L370.71 572.96M370.71 572.96L370.8 572.96M370.8 572.96L370.97 572.96M370.97 572.96L371.67 572.96M371.67 572.96L372.37 572.96M372.37 572.96L372.72 572.96M372.72 572.96L372.89 572.96M372.89 572.96L372.98 572.96M372.98 572.96L372.98 572.96M372.98 572.96L373.07 572.96M373.07 572.96L374.46 572.96M374.46 572.96L374.46 572.96M374.46 572.96L374.64 572.96M374.64 572.96L374.81 572.96M374.81 572.96L375.16 572.96M375.16 572.96L375.86 572.96M375.86 572.96L427.59 572.96M427.59 572.96L428.48 572.96M428.48 572.96L432.81 572.96M432.81 572.96L433 572.96M433 572.96L433.2 572.96M433.2 572.96L433.29 572.96M433.29 572.96L433.39 572.96M433.39 572.96L433.49 572.96M433.49 572.96L433.58 572.96M433.58 572.96L433.68 572.96M433.68 572.96L433.68 572.96M433.68 572.96L433.78 572.96M433.78 572.96L433.78 572.96M433.78 572.96L433.97 572.96M433.97 572.96L433.97 572.96M433.97 572.96L434.02 572.95M434.02 572.95L434.02 572.95M434.02 572.95L434.07 572.95M434.07 572.95L434.07 572.95M434.07 572.95L434.28 572.91M434.28 572.91L434.28 572.91M434.28 572.91L434.6 572.74M434.6 572.74L434.6 572.74M434.6 572.74L434.85 572.47M434.85 572.47L434.85 572.47M434.85 572.47L434.97 572.18M434.97 572.18L434.97 572.18M434.97 572.18L435 572.03M435 572.03L435 572.03M435 572.03L435 571.97M435 571.97L435 571.97M435 571.97L435 571.92M435 571.92L435 571.92M435 571.92L435 571.87M435 571.87L435 571.84M435 571.84L435 571.82M435 571.82L435 571.66M435 571.66L435 571.51M435 571.51L435 571.2M435 571.2L435 570.89M435 570.89L435 570.58M435 570.58L435 569.95M435 569.95L435 569.64M435 569.64L435 569.33M435 569.33L435 555.54M435 555.54L435 554.38M435 554.38L435 553.21M435 553.21L435 553.16M435 553.16L435 553.11M435 553.11L435 553.08M435 553.08L435 553.06M435 553.06L435 553.03M435 553.03L435 553.01M435 553.01L435 553.01M435 553.01L435 552.95M435 552.95L435 552.95M435 552.95L435 552.9M435 552.9L435 552.9M435 552.9L435 552.85M435 552.85L435 552.85M435 552.85L434.94 552.59M434.94 552.59L434.94 552.59M434.94 552.59L434.75 552.28M434.75 552.28L434.75 552.28M434.75 552.28L434.47 552.05M434.47 552.05L434.47 552.05M434.47 552.05L434.13 551.93M434.13 551.93L434.13 551.93M434.13 551.93L434.07 551.92M434.07 551.92L434.07 551.92M434.07 551.92L434.02 551.92M434.02 551.92L434.02 551.92M434.02 551.92L433.97 551.92M433.97 551.92L433.97 551.92M433.97 551.92L433.78 551.92M433.78 551.92L433.78 551.92M433.78 551.92L433.68 551.92M433.68 551.92L433.58 551.92M433.58 551.92L433.49 551.92M433.49 551.92L433.39 551.92M433.39 551.92L433.28 551.92M433.28 551.92L433.28 551.92M433.28 551.92L433.16 551.92M433.16 551.92L432.93 551.92M432.93 551.92L432.82 551.92M432.82 551.92L432.82 551.92M432.82 551.92L432.7 551.92M432.7 551.92L432.47 551.92M432.47 551.92L432.02 551.92M432.02 551.92L431.9 551.92M431.9 551.92L431.9 551.92M431.9 551.92L431.79 551.92M431.79 551.92L431.56 551.92M431.56 551.92L431.1 551.92M431.1 551.92L430.99 551.92M430.99 551.92L430.99 551.92M430.99 551.92L430.87 551.92M430.87 551.92L430.64 551.92M430.64 551.92L430.53 551.92M430.53 551.92L430.53 551.92M430.53 551.92L430.41 551.92M430.41 551.92L430.19 551.92M430.19 551.92L430.07 551.92M430.07 551.92L430.07 551.92M430.07 551.92L429.96 551.92M429.96 551.92L429.73 551.92M429.73 551.92L429.38 551.92M429.38 551.92L429.29 551.92M429.29 551.92L429.29 551.92M429.29 551.92L429.2 551.92M429.2 551.92L429.03 551.92M429.03 551.92L428.33 551.92M428.33 551.92L427.98 551.92M427.98 551.92L427.89 551.92M427.89 551.92L427.89 551.92M427.89 551.92L427.81 551.92M427.81 551.92L427.63 551.92M427.63 551.92L426.93 551.92M426.93 551.92L428.98 551.92M428.98 551.92L428.98 551.92M428.98 551.92L428.81 551.92M428.81 551.92L428.64 551.92M428.64 551.92L428.29 551.92M428.29 551.92L427.59 551.92M427.59 551.92L375.86 551.92M375.86 551.92L371.52 551.92M371.52 551.92L367.19 551.92M367.19 551.92L367 551.92M367 551.92L366.8 551.92M366.8 551.92L366.71 551.92M366.71 551.92L366.61 551.92M366.61 551.92L366.51 551.92M366.51 551.92L366.51 551.92M366.51 551.92L366.42 551.92M366.42 551.92L366.32 551.92M366.32 551.92L366.32 551.92M366.32 551.92L366.22 551.92M366.22 551.92L366.22 551.92M366.22 551.92L366.03 551.92M366.03 551.92L366.03 551.92M366.03 551.92L365.98 551.92M365.98 551.92L365.98 551.92M365.98 551.92L365.93 551.92M365.93 551.92L365.93 551.92M365.93 551.92L365.72 551.97M365.72 551.97L365.72 551.97M365.72 551.97L365.4 552.14M365.4 552.14L365.4 552.14M365.4 552.14L365.15 552.41M365.15 552.41L365.15 552.41M365.15 552.41L365.03 552.69M365.03 552.69L365.03 552.69M365.03 552.69L365 552.85M365 552.85L365 552.85M365 552.85L365 552.9M365 552.9L365 552.9M365 552.9L365 552.95M365 552.95L365 552.95M365 552.95L365 553.01M365 553.01L365 553.03M365 553.03L365 553.06M365 553.06L365 553.21M365 553.21L365 553.37M365 553.37L365 553.68M365 553.68L365 553.99M365 553.99L365 554.3M365 554.3L365 554.92M365 554.92L365 555.23M365 555.23L365 555.54M365 555.54L365 569.33"
fill="none" stroke="black" stroke-width="0.5"/>
<path d="M375.86 506.23L362.7 506.23M362.7 506.23L349.53 506.23M349.53 506.23L348.93 506.23M348.93 506.23L348.33 506.23M348.33 506.23L348.03 506.23M348.03 506.23L347.73 506.23M347.73 506.23L347.43 506.23M347.43 506.23L347.14 506.23M347.14 506.23L347.14 506.23M347.14 506.23L346.54 506.23M346.54 506.23L346.54 506.23M346.54 506.23L345.94 506.23M345.94 506.23L345.94 506.23M345.94 506.23L345.34 506.23M345.34 506.23L345.34 506.23M345.34 506.23L345.3 506.23M345.3 506.23L345.3 506.23M345.3 506.23L345.25 506.23M345.25 506.23L345.25 506.23M345.25 506.23L345.13 506.26M345.13 506.26L345.13 506.26M345.13 506.26L344.9 506.38M344.9 506.38L344.9 506.38M344.9 506.38L344.74 506.58M344.74 506.58L344.74 506.58M344.74 506.58L344.66 506.79M344.66 506.79L344.66 506.79M344.66 506.79L344.66 506.83M344.66 506.83L344.66 506.83M344.66 506.83L344.65 506.87M344.65 506.87L344.65 506.87M344.65 506.87L344.65 506.91M344.65 506.91L344.65 506.91M344.65 506.91L344.65 507.32M344.65 507.32L344.65 507.32M344.65 507.32L344.65 507.73M344.65 507.73L344.65 507.83M344.65 507.83L344.65 507.93M344.65 507.93L344.65 508.13M344.65 508.13L344.65 508.33M344.65 508.33L344.65 508.54M344.65 508.54L344.65 509.55M344.65 509.55L344.65 510.57M344.65 510.57L344.65 512.59M344.65 512.59L344.65 514.62M344.65 514.62L344.65 516.65M344.65 516.65L344.65 520.71M344.65 520.71L344.65 522.74M344.65 522.74L344.65 524.77M344.65 524.77L344.65 525.17M344.65 525.17L344.65 525.58M344.65 525.58L344.65 525.78M344.65 525.78L344.65 525.98M344.65 525.98L344.65 526.19M344.65 526.19L344.65 526.39M344.65 526.39L344.65 526.59M344.65 526.59L344.65 526.69M344.65 526.69L344.65 526.79M344.65 526.79L344.65 526.79M344.65 526.79L344.65 527.2M344.65 527.2L344.65 527.2M344.65 527.2L344.65 527.61M344.65 527.61L344.65 527.61M344.65 527.61L344.65 527.65M344.65 527.65L344.65 527.65M344.65 527.65L344.66 527.69M344.66 527.69L344.66 527.69M344.66 527.69L344.68 527.82M344.68 527.82L344.68 527.82M344.68 527.82L344.81 528.05M344.81 528.05L344.81 528.05M344.81 528.05L345.01 528.21M345.01 528.21L345.01 528.21M345.01 528.21L345.21 528.28M345.21 528.28L345.21 528.28M345.21 528.28L345.25 528.29M345.25 528.29L345.25 528.29M345.25 528.29L345.3 528.29M345.3 528.29L345.3 528.29M345.3 528.29L345.34 528.3M345.34 528.3L345.34 528.3M345.34 528.3L345.94 528.3M345.94 528.3L345.94 528.3M345.94 528.3L346.54 528.3M346.54 528.3L346.54 528.3M346.54 528.3L346.84 528.3M346.84 528.3L347.14 528.3M347.14 528.3L347.14 528.3M347.14 528.3L347.43 528.3M347.43 528.3L347.73 528.3M347.73 528.3L348.63 528.3M348.63 528.3L349.53 528.3M349.53 528.3L350.43 528.3M350.43 528.3L350.65 528.3M350.65 528.3L350.71 528.3M350.71 528.3L350.71 528.3M350.71 528.3L350.76 528.3M350.76 528.3L350.88 528.3M350.88 528.3L351.32 528.3M351.32 528.3L351.71 528.3M351.71 528.3L351.8 528.3M351.8 528.3L351.8 528.3M351.8 528.3L351.9 528.3M351.9 528.3L352.09 528.3M352.09 528.3L352.86 528.3M352.86 528.3L352.86 528.3M352.86 528.3L354.39 528.3M354.39 528.3L354.39 528.3M354.39 528.3L357.46 528.3M357.46 528.3L357.46 528.3M357.46 528.3L357.55 528.3M357.55 528.3L357.65 528.3M357.65 528.3L357.84 528.3M357.84 528.3L358.23 528.3M358.23 528.3L358.99 528.3M358.99 528.3L360.53 528.3M360.53 528.3L361.29 528.3M361.29 528.3L361.48 528.3M361.48 528.3L361.48 528.3M361.48 528.3L361.68 528.3M361.68 528.3L362.06 528.3M362.06 528.3L363.59 528.3M363.59 528.3L365.13 528.3M365.13 528.3L365.51 528.3M365.51 528.3L365.51 528.3M365.51 528.3L365.7 528.3M365.7 528.3L365.89 528.3M365.89 528.3L366.66 528.3M366.66 528.3L368.19 528.3M368.19 528.3L368.58 528.3M368.58 528.3L368.58 528.3M368.58 528.3L368.77 528.3M368.77 528.3L368.96 528.3M368.96 528.3L369.73 528.3M369.73 528.3L371.26 528.3M371.26 528.3L371.64 528.3M371.64 528.3L371.64 528.3M371.64 528.3L371.84 528.3M371.84 528.3L372.03 528.3M372.03 528.3L372.79 528.3M372.79 528.3L375.86 528.3M375.86 528.3L427.59 528.3M427.59 528.3L437.3 528.3M437.3 528.3L443.89 528.3M443.89 528.3L450.47 528.3M450.47 528.3L451.07 528.3M451.07 528.3L451.67 528.3M451.67 528.3L451.97 528.3M451.97 528.3L452.27 528.3M452.27 528.3L452.57 528.3M452.57 528.3L452.57 528.3M452.57 528.3L452.86 528.3M452.86 528.3L453.16 528.3M453.16 528.3L453.16 528.3M453.16 528.3L453.46 528.3M453.46 528.3L453.46 528.3M453.46 528.3L454.06 528.3M454.06 528.3L454.06 528.3M454.06 528.3L454.66 528.3M454.66 528.3L454.68 528.3M454.68 528.3L454.68 528.3M454.68 528.3L454.7 528.29M454.7 528.29L454.7 528.29M454.7 528.29L454.75 528.29M454.75 528.29L454.75 528.29M454.75 528.29L454.87 528.26M454.87 528.26L454.87 528.26M454.87 528.26L455.1 528.14M455.1 528.14L455.1 528.14M455.1 528.14L455.26 527.94M455.26 527.94L455.26 527.94M455.26 527.94L455.34 527.74M455.34 527.74L455.34 527.74M455.34 527.74L455.34 527.69M455.34 527.69L455.34 527.69M455.34 527.69L455.35 527.65M455.35 527.65L455.35 527.65M455.35 527.65L455.35 527.61M455.35 527.61L455.35 527.61M455.35 527.61L455.35 527.2M455.35 527.2L455.35 527.2M455.35 527.2L455.35 526.79M455.35 526.79L455.35 526.69M455.35 526.69L455.35 526.59M455.35 526.59L455.35 526.39M455.35 526.39L455.35 526.19M455.35 526.19L455.35 525.98M455.35 525.98L455.35 524.97M455.35 524.97L455.35 523.95M455.35 523.95L455.35 521.93M455.35 521.93L455.35 519.9M455.35 519.9L455.35 517.87M455.35 517.87L455.35 513.81M455.35 513.81L455.35 511.78M455.35 511.78L455.35 509.75M455.35 509.75L455.35 509.35M455.35 509.35L455.35 508.94M455.35 508.94L455.35 508.74M455.35 508.74L455.35 508.54M455.35 508.54L455.35 508.33M455.35 508.33L455.35 508.13M455.35 508.13L455.35 507.93M455.35 507.93L455.35 507.83M455.35 507.83L455.35 507.73M455.35 507.73L455.35 507.73M455.35 507.73L455.35 507.32M455.35 507.32L455.35 507.32M455.35 507.32L455.35 506.91M455.35 506.91L455.35 506.91M455.35 506.91L455.35 506.87M455.35 506.87L455.35 506.87M455.35 506.87L455.34 506.83M455.34 506.83L455.34 506.83M455.34 506.83L455.32 506.7M455.32 506.7L455.32 506.7M455.32 506.7L455.19 506.48M455.19 506.48L455.19 506.48M455.19 506.48L454.99 506.31M454.99 506.31L454.99 506.31M454.99 506.31L454.79 506.24M454.79 506.24L454.79 506.24M454.79 506.24L454.75 506.23M454.75 506.23L454.75 506.23M454.75 506.23L454.7 506.23M454.7 506.23L454.7 506.23M454.7 506.23L454.66 506.23M454.66 506.23L454.66 506.23M454.66 506.23L454.06 506.23M454.06 506.23L454.06 506.23M454.06 506.23L453.46 506.23M453.46 506.23L453.46 506.23M453.46 506.23L452.86 506.23M452.86 506.23L452.57 506.23M452.57 506.23L452.27 506.23M452.27 506.23L452.04 506.23M452.04 506.23L451.99 506.23M451.99 506.23L451.99 506.23M451.99 506.23L451.93 506.22M451.93 506.22L451.82 506.22M451.82 506.22L451.37 506.22M451.37 506.22L450.92 506.22M450.92 506.22L450.7 506.22M450.7 506.22L450.58 506.22M450.58 506.22L450.58 506.22M450.58 506.22L450.47 506.23M450.47 506.23L448.68 506.23M448.68 506.23L448.29 506.23M448.29 506.23L448.2 506.23M448.2 506.23L448.2 506.23M448.2 506.23L448.1 506.23M448.1 506.23L447.91 506.23M447.91 506.23L447.14 506.23M447.14 506.23L446.76 506.23M446.76 506.23L446.66 506.23M446.66 506.23L446.66 506.23M446.66 506.23L446.57 506.23M446.57 506.23L446.38 506.23M446.38 506.23L445.61 506.23M445.61 506.23L444.07 506.23M444.07 506.23L443.31 506.23M443.31 506.23L442.92 506.23M442.92 506.23L442.73 506.23M442.73 506.23L442.64 506.23M442.64 506.23L442.64 506.23M442.64 506.23L442.54 506.23M442.54 506.23L442.54 506.23M442.54 506.23L442.45 506.23M442.45 506.23L442.35 506.23M442.35 506.23L442.16 506.23M442.16 506.23L441.77 506.23M441.77 506.23L441.01 506.23M441.01 506.23L439.47 506.23M439.47 506.23L438.71 506.23M438.71 506.23L438.52 506.23M438.52 506.23L438.52 506.23M438.52 506.23L438.32 506.23M438.32 506.23L437.94 506.23M437.94 506.23L436.41 506.23M436.41 506.23L434.87 506.23M434.87 506.23L434.49 506.23M434.49 506.23L434.49 506.23M434.49 506.23L434.3 506.23M434.3 506.23L434.11 506.23M434.11 506.23L433.34 506.23M433.34 506.23L431.81 506.23M431.81 506.23L431.42 506.23M431.42 506.23L431.42 506.23M431.42 506.23L431.23 506.23M431.23 506.23L431.04 506.23M431.04 506.23L430.27 506.23M430.27 506.23L428.74 506.23M428.74 506.23L428.36 506.23M428.36 506.23L428.36 506.23M428.36 506.23L428.16 506.23M428.16 506.23L427.97 506.23M427.97 506.23L427.21 506.23M427.21 506.23L427.59 506.23M427.59 506.23L375.86 506.23"
fill="none" stroke="black" stroke-width="0.5"/>
<path d="M365 312.07L365 383.53M365 383.53L365 454.98M365 454.98L365 458.3M365 458.3L365 461.63M365 461.63L365 463.29M365 463.29L365 464.95M365 464.95L365 466.61M365 466.61L365 468.27M365 468.27L365 469.1M365 469.1L365 469.94M365 469.94L365 470.77M365 470.77L365 471.18M365 471.18L365 471.6M365 471.6L365 472.43M365 472.43L365 472.84M365 472.84L365 473.26M365 473.26L365 473.67M365 473.67L365 474.09M365 474.09L365 474.51M365 474.51L365 474.92M365 474.92L365 474.92M365 474.92L365 478.24M365 478.24L365 478.24M365 478.24L364.99 479.91M364.99 479.91L364.99 479.91M364.99 479.91L365 481.57M365 481.57L365 481.57M365 481.57L365 481.62M365 481.62L365 481.62M365 481.62L365 481.67M365 481.67L365 481.67M365 481.67L365.03 481.83M365.03 481.83L365.03 481.83M365.03 481.83L365.18 482.16M365.18 482.16L365.18 482.16M365.18 482.16L365.4 482.39M365.4 482.39L365.4 482.39M365.4 482.39L365.67 482.54M365.67 482.54L365.67 482.54M365.67 482.54L365.87 482.59M365.87 482.59L365.87 482.59M365.87 482.59L365.93 482.6M365.93 482.6L365.93 482.6M365.93 482.6L365.98 482.6M365.98 482.6L365.98 482.6M365.98 482.6L366.03 482.6M366.03 482.6L366.03 482.6M366.03 482.6L366.22 482.6M366.22 482.6L366.22 482.6M366.22 482.6L366.32 482.6M366.32 482.6L366.42 482.6M366.42 482.6L366.51 482.6M366.51 482.6L366.61 482.6M366.61 482.6L366.72 482.6M366.72 482.6L366.72 482.6M366.72 482.6L366.84 482.6M366.84 482.6L367.07 482.6M367.07 482.6L367.18 482.6M367.18 482.6L367.18 482.6M367.18 482.6L367.3 482.6M367.3 482.6L367.53 482.6M367.53 482.6L367.98 482.6M367.98 482.6L368.21 482.6M368.21 482.6L368.33 482.6M368.33 482.6L368.33 482.6M368.33 482.6L368.44 482.6M368.44 482.6L369.36 482.6M369.36 482.6L369.59 482.6M369.59 482.6L369.64 482.6M369.64 482.6L369.64 482.6M369.64 482.6L369.7 482.6M369.7 482.6L369.81 482.6M369.81 482.6L370.27 482.6M370.27 482.6L370.45 482.6M370.45 482.6L370.45 482.6M370.45 482.6L370.62 482.6M370.62 482.6L370.97 482.6M370.97 482.6L371.67 482.6M371.67 482.6L372.37 482.6M372.37 482.6L372.72 482.6M372.72 482.6L372.89 482.6M372.89 482.6L372.98 482.6M372.98 482.6L372.98 482.6M372.98 482.6L373.07 482.6M373.07 482.6L374.46 482.6M374.46 482.6L374.46 482.6M374.46 482.6L374.64 482.6M374.64 482.6L374.81 482.6M374.81 482.6L375.16 482.6M375.16 482.6L375.86 482.6M375.86 482.6L427.59 482.6M427.59 482.6L428.48 482.6M428.48 482.6L432.81 482.6M432.81 482.6L433 482.6M433 482.6L433.2 482.6M433.2 482.6L433.29 482.6M433.29 482.6L433.39 482.6M433.39 482.6L433.49 482.6M433.49 482.6L433.49 482.6M433.49 482.6L433.58 482.6M433.58 482.6L433.68 482.6M433.68 482.6L433.68 482.6M433.68 482.6L433.78 482.6M433.78 482.6L433.78 482.6M433.78 482.6L433.97 482.6M433.97 482.6L433.97 482.6M433.97 482.6L434.02 482.6M434.02 482.6L434.02 482.6M434.02 482.6L434.07 482.6M434.07 482.6L434.07 482.6M434.07 482.6L434.28 482.55M434.28 482.55L434.28 482.55M434.28 482.55L434.6 482.39M434.6 482.39L434.6 482.39M434.6 482.39L434.85 482.12M434.85 482.12L434.85 482.12M434.85 482.12L434.97 481.83M434.97 481.83L434.97 481.83M434.97 481.83L434.99 481.72M434.99 481.72L434.99 481.72M434.99 481.72L435 481.67M435 481.67L435 481.67M435 481.67L435 481.62M435 481.62L435 481.62M435 481.62L435 481.57M435 481.57L435 481.57M435 481.57L435.01 479.91M435.01 479.91L435.01 479.91M435.01 479.91L435 478.24M435 478.24L435 478.24M435 478.24L435 474.92M435 474.92L435 474.51M435 474.51L435 474.09M435 474.09L435 473.67M435 473.67L435 473.26M435 473.26L435 472.43M435 472.43L435 471.6M435 471.6L435 470.77M435 470.77L435 469.94M435 469.94L435 469.1M435 469.1L435 468.27M435 468.27L435 466.61M435 466.61L435 464.95M435 464.95L435 462.46M435 462.46L435 459.97M435 459.97L435 454.98M435 454.98L435 446.05M435 446.05L435 437.12M435 437.12L435 419.25M435 419.25L435 401.39M435 401.39L435 383.53M435 383.53L435 347.8M435 347.8L435 329.93M435 329.93L435 312.07M435 312.07L435 287.93M435 287.93L435 216.48M435 216.48L435 145.02M435 145.02L435 141.7M435 141.7L435 138.37M435 138.37L435 136.71M435 136.71L435 135.05M435 135.05L435 133.39M435 133.39L435 131.73M435 131.73L435 130.9M435 130.9L435 130.06M435 130.06L435 129.23M435 129.23L435 128.82M435 128.82L435 128.4M435 128.4L435 127.57M435 127.57L435 126.74M435 126.74L435 126.33M435 126.33L435 125.91M435 125.91L435 125.49M435 125.49L435 125.08M435 125.08L435 125.08M435 125.08L435 121.76M435 121.76L435 121.76M435 121.76L435.01 120.09M435.01 120.09L435.01 120.09M435.01 120.09L435 118.43M435 118.43L435 118.43M435 118.43L435 118.38M435 118.38L435 118.38M435 118.38L435 118.33M435 118.33L435 118.33M435 118.33L434.97 118.17M434.97 118.17L434.97 118.17M434.97 118.17L434.82 117.84M434.82 117.84L434.82 117.84M434.82 117.84L434.6 117.61M434.6 117.61L434.6 117.61M434.6 117.61L434.33 117.46M434.33 117.46L434.33 117.46M434.33 117.46L434.13 117.41M434.13 117.41L434.13 117.41M434.13 117.41L434.07 117.4M434.07 117.4L434.07 117.4M434.07 117.4L434.02 117.4M434.02 117.4L434.02 117.4M434.02 117.4L433.97 117.4M433.97 117.4L433.97 117.4M433.97 117.4L433.78 117.4M433.78 117.4L433.78 117.4M433.78 117.4L433.58 117.4M433.58 117.4L433.49 117.4M433.49 117.4L433.39 117.4M433.39 117.4L432.93 117.4M432.93 117.4L432.47 117.4M432.47 117.4L432.02 117.4M432.02 117.4L431.56 117.4M431.56 117.4L430.64 117.4M430.64 117.4L429.73 117.4M429.73 117.4L429.03 117.4M429.03 117.4L428.33 117.4M428.33 117.4L426.93 117.4M426.93 117.4L428.98 117.4M428.98 117.4L427.59 117.4M427.59 117.4L375.86 117.4M375.86 117.4L371.52 117.4M371.52 117.4L367.19 117.4M367.19 117.4L367 117.4M367 117.4L366.8 117.4M366.8 117.4L366.71 117.4M366.71 117.4L366.61 117.4M366.61 117.4L366.51 117.4M366.51 117.4L366.42 117.4M366.42 117.4L366.42 117.4M366.42 117.4L366.22 117.4M366.22 117.4L366.22 117.4M366.22 117.4L366.03 117.4M366.03 117.4L366.03 117.4M366.03 117.4L365.98 117.4M365.98 117.4L365.98 117.4M365.98 117.4L365.93 117.4M365.93 117.4L365.93 117.4M365.93 117.4L365.72 117.45M365.72 117.45L365.72 117.45M365.72 117.45L365.4 117.61M365.4 117.61L365.4 117.61M365.4 117.61L365.15 117.88M365.15 117.88L365.15 117.88M365.15 117.88L365.03 118.17M365.03 118.17L365.03 118.17M365.03 118.17L365.01 118.28M365.01 118.28L365.01 118.28M365.01 118.28L365 118.33M365 118.33L365 118.33M365 118.33L365 118.38M365 118.38L365 118.38M365 118.38L365 118.43M365 118.43L365 118.43M365 118.43L364.99 120.09M364.99 120.09L364.99 120.09M364.99 120.09L365 121.76M365 121.76L365 121.76M365 121.76L365 125.08M365 125.08L365 125.49M365 125.49L365 125.91M365 125.91L365 126.33M365 126.33L365 126.74M365 126.74L365 127.16M365 127.16L365 127.57M365 127.57L365 128.4M365 128.4L365 128.82M365 128.82L365 129.23M365 129.23L365 130.06M365 130.06L365 130.9M365 130.9L365 131.73M365 131.73L365 133.39M365 133.39L365 135.05M365 135.05L365 137.54M365 137.54L365 140.03M365 140.03L365 145.02M365 145.02L365 153.95M365 153.95L365 162.88M365 162.88L365 180.75M365 180.75L365 198.61M365 198.61L365 216.48M365 216.48L365 252.2M365 252.2L365 270.07M365 270.07L365 287.93M365 287.93L365 312.07"
fill="none" stroke="black" stroke-width="0.5"/>
<path d="M427.59 93.77L437.3 93.77M437.3 93.77L450.47 93.77M450.47 93.77L451.07 93.77M451.07 93.77L451.67 93.77M451.67 93.77L451.97 93.77M451.97 93.77L452.27 93.77M452.27 93.77L452.57 93.77M452.57 93.77L452.72 93.77M452.72 93.77L452.86 93.77M452.86 93.77L453.16 93.77M453.16 93.77L453.31 93.77M453.31 93.77L453.46 93.77M453.46 93.77L453.46 93.77M453.46 93.77L454.06 93.77M454.06 93.77L454.06 93.77M454.06 93.77L454.66 93.77M454.66 93.77L454.66 93.77M454.66 93.77L454.68 93.77M454.68 93.77L454.68 93.77M454.68 93.77L454.7 93.77M454.7 93.77L454.7 93.77M454.7 93.77L454.75 93.77M454.75 93.77L454.75 93.77M454.75 93.77L454.87 93.74M454.87 93.74L454.87 93.74M454.87 93.74L455.1 93.62M455.1 93.62L455.1 93.62M455.1 93.62L455.26 93.42M455.26 93.42L455.26 93.42M455.26 93.42L455.34 93.21M455.34 93.21L455.34 93.21M455.34 93.21L455.34 93.17M455.34 93.17L455.34 93.17M455.34 93.17L455.35 93.13M455.35 93.13L455.35 93.13M455.35 93.13L455.35 93.09M455.35 93.09L455.35 93.09M455.35 93.09L455.35 92.68M455.35 92.68L455.35 92.68M455.35 92.68L455.35 92.27M455.35 92.27L455.35 92.17M455.35 92.17L455.35 92.07M455.35 92.07L455.35 91.87M455.35 91.87L455.35 91.67M455.35 91.67L455.35 91.46M455.35 91.46L455.35 90.45M455.35 90.45L455.35 89.43M455.35 89.43L455.35 87.41M455.35 87.41L455.35 85.38M455.35 85.38L455.35 83.35M455.35 83.35L455.35 79.29M455.35 79.29L455.35 77.26M455.35 77.26L455.35 75.23M455.35 75.23L455.35 74.83M455.35 74.83L455.35 74.42M455.35 74.42L455.35 74.22M455.35 74.22L455.35 74.02M455.35 74.02L455.35 73.81M455.35 73.81L455.35 73.61M455.35 73.61L455.35 73.41M455.35 73.41L455.35 73.31M455.35 73.31L455.35 73.21M455.35 73.21L455.35 73.21M455.35 73.21L455.35 72.8M455.35 72.8L455.35 72.8M455.35 72.8L455.35 72.39M455.35 72.39L455.35 72.39M455.35 72.39L455.35 72.35M455.35 72.35L455.35 72.35M455.35 72.35L455.34 72.31M455.34 72.31L455.34 72.31M455.34 72.31L455.32 72.18M455.32 72.18L455.32 72.18M455.32 72.18L455.19 71.95M455.19 71.95L455.19 71.95M455.19 71.95L454.99 71.79M454.99 71.79L454.99 71.79M454.99 71.79L454.79 71.72M454.79 71.72L454.79 71.72M454.79 71.72L454.75 71.71M454.75 71.71L454.75 71.71M454.75 71.71L454.7 71.71M454.7 71.71L454.7 71.71M454.7 71.71L454.68 71.7M454.68 71.7L454.68 71.7M454.68 71.7L454.66 71.7M454.66 71.7L454.66 71.7M454.66 71.7L454.06 71.7M454.06 71.7L454.06 71.7M454.06 71.7L453.46 71.7M453.46 71.7L453.31 71.7M453.31 71.7L453.16 71.7M453.16 71.7L452.86 71.7M452.86 71.7L452.72 71.7M452.72 71.7L452.57 71.7M452.57 71.7L452.27 71.7M452.27 71.7L451.37 71.7M451.37 71.7L450.47 71.7M450.47 71.7L448.68 71.7M448.68 71.7L445.61 71.7M445.61 71.7L442.54 71.7M442.54 71.7L439.47 71.7M439.47 71.7L436.41 71.7M436.41 71.7L430.27 71.7M430.27 71.7L427.21 71.7M427.21 71.7L427.59 71.7M427.59 71.7L375.86 71.7M375.86 71.7L362.7 71.7M362.7 71.7L349.53 71.7M349.53 71.7L348.93 71.7M348.93 71.7L348.33 71.7M348.33 71.7L348.03 71.7M348.03 71.7L347.73 71.7M347.73 71.7L347.43 71.7M347.43 71.7L347.28 71.7M347.28 71.7L347.14 71.7M347.14 71.7L346.84 71.7M346.84 71.7L346.69 71.7M346.69 71.7L346.54 71.7M346.54 71.7L346.54 71.7M346.54 71.7L345.94 71.7M345.94 71.7L345.94 71.7M345.94 71.7L345.34 71.7M345.34 71.7L345.34 71.7M345.34 71.7L345.3 71.71M345.3 71.71L345.3 71.71M345.3 71.71L345.25 71.71M345.25 71.71L345.25 71.71M345.25 71.71L345.13 71.74M345.13 71.74L345.13 71.74M345.13 71.74L344.9 71.86M344.9 71.86L344.9 71.86M344.9 71.86L344.74 72.06M344.74 72.06L344.74 72.06M344.74 72.06L344.66 72.26M344.66 72.26L344.66 72.26M344.66 72.26L344.66 72.31M344.66 72.31L344.66 72.31M344.66 72.31L344.65 72.35M344.65 72.35L344.65 72.35M344.65 72.35L344.65 72.39M344.65 72.39L344.65 72.39M344.65 72.39L344.65 72.8M344.65 72.8L344.65 72.8M344.65 72.8L344.65 73.21M344.65 73.21L344.65 73.31M344.65 73.31L344.65 73.41M344.65 73.41L344.65 73.61M344.65 73.61L344.65 73.81M344.65 73.81L344.65 74.02M344.65 74.02L344.65 75.03M344.65 75.03L344.65 76.05M344.65 76.05L344.65 78.07M344.65 78.07L344.65 80.1M344.65 80.1L344.65 82.13M344.65 82.13L344.65 86.19M344.65 86.19L344.65 88.22M344.65 88.22L344.65 90.25M344.65 90.25L344.65 90.65M344.65 90.65L344.65 91.06M344.65 91.06L344.65 91.26M344.65 91.26L344.65 91.46M344.65 91.46L344.65 91.67M344.65 91.67L344.65 91.87M344.65 91.87L344.65 92.07M344.65 92.07L344.65 92.17M344.65 92.17L344.65 92.27M344.65 92.27L344.65 92.27M344.65 92.27L344.65 92.68M344.65 92.68L344.65 92.68M344.65 92.68L344.65 93.09M344.65 93.09L344.65 93.09M344.65 93.09L344.65 93.11M344.65 93.11L344.65 93.11M344.65 93.11L344.65 93.13M344.65 93.13L344.65 93.13M344.65 93.13L344.66 93.17M344.66 93.17L344.66 93.17M344.66 93.17L344.68 93.3M344.68 93.3L344.68 93.3M344.68 93.3L344.81 93.52M344.81 93.52L344.81 93.52M344.81 93.52L345.01 93.69M345.01 93.69L345.01 93.69M345.01 93.69L345.21 93.76M345.21 93.76L345.21 93.76M345.21 93.76L345.25 93.77M345.25 93.77L345.25 93.77M345.25 93.77L345.3 93.77M345.3 93.77L345.3 93.77M345.3 93.77L345.32 93.77M345.32 93.77L345.32 93.77M345.32 93.77L345.34 93.77M345.34 93.77L345.34 93.77M345.34 93.77L345.94 93.77M345.94 93.77L345.94 93.77M345.94 93.77L346.54 93.77M346.54 93.77L346.69 93.77M346.69 93.77L346.84 93.77M346.84 93.77L347.14 93.77M347.14 93.77L347.43 93.77M347.43 93.77L347.73 93.77M347.73 93.77L348.63 93.77M348.63 93.77L349.53 93.77M349.53 93.77L351.32 93.77M351.32 93.77L354.39 93.77M354.39 93.77L357.46 93.77M357.46 93.77L360.53 93.77M360.53 93.77L363.59 93.77M363.59 93.77L369.73 93.77M369.73 93.77L372.79 93.77M372.79 93.77L375.86 93.77M375.86 93.77L427.59 93.77"
fill="none" stroke="black" stroke-width="0.5"/>
<path d="M365 30.67L365 44.46M365 44.46L365 45.62M365 45.62L365 46.79M365 46.79L365 46.84M365 46.84L365 46.89M365 46.89L365 46.92M365 46.92L365 46.94M365 46.94L365 46.97M365 46.97L365 46.99M365 46.99L365 46.99M365 46.99L365 47.05M365 47.05L365 47.05M365 47.05L365 47.1M365 47.1L365 47.1M365 47.1L365 47.15M365 47.15L365 47.15M365 47.15L365.06 47.41M365.06 47.41L365.06 47.41M365.06 47.41L365.25 47.72M365.25 47.72L365.25 47.72M365.25 47.72L365.53 47.95M365.53 47.95L365.53 47.95M365.53 47.95L365.87 48.07M365.87 48.07L365.87 48.07M365.87 48.07L365.93 48.08M365.93 48.08L365.93 48.08M365.93 48.08L365.98 48.08M365.98 48.08L365.98 48.08M365.98 48.08L366.03 48.08M366.03 48.08L366.03 48.08M366.03 48.08L366.22 48.08M366.22 48.08L366.22 48.08M366.22 48.08L366.42 48.08M366.42 48.08L366.51 48.08M366.51 48.08L366.61 48.08M366.61 48.08L367.07 48.08M367.07 48.08L367.53 48.08M367.53 48.08L367.98 48.08M367.98 48.08L368.44 48.08M368.44 48.08L369.36 48.08M369.36 48.08L370.27 48.08M370.27 48.08L370.97 48.08M370.97 48.08L371.67 48.08M371.67 48.08L373.07 48.08M373.07 48.08L374.46 48.08M374.46 48.08L375.86 48.08M375.86 48.08L427.59 48.08M427.59 48.08L428.48 48.08M428.48 48.08L432.81 48.08M432.81 48.08L433 48.08M433 48.08L433.2 48.08M433.2 48.08L433.29 48.08M433.29 48.08L433.39 48.08M433.39 48.08L433.49 48.08M433.49 48.08L433.58 48.08M433.58 48.08L433.68 48.08M433.68 48.08L433.68 48.08M433.68 48.08L433.78 48.08M433.78 48.08L433.78 48.08M433.78 48.08L433.97 48.08M433.97 48.08L433.97 48.08M433.97 48.08L434.02 48.08M434.02 48.08L434.02 48.08M434.02 48.08L434.07 48.08M434.07 48.08L434.07 48.08M434.07 48.08L434.28 48.03M434.28 48.03L434.28 48.03M434.28 48.03L434.6 47.86M434.6 47.86L434.6 47.86M434.6 47.86L434.85 47.59M434.85 47.59L434.85 47.59M434.85 47.59L434.97 47.31M434.97 47.31L434.97 47.31M434.97 47.31L435 47.15M435 47.15L435 47.15M435 47.15L435 47.1M435 47.1L435 47.1M435 47.1L435 47.05M435 47.05L435 47.05M435 47.05L435 46.99M435 46.99L435 46.97M435 46.97L435 46.94M435 46.94L435 46.79M435 46.79L435 46.63M435 46.63L435 46.32M435 46.32L435 46.01M435 46.01L435 45.7M435 45.7L435 45.08M435 45.08L435 44.77M435 44.77L435 44.46M435 44.46L435 30.67M435 30.67L435 29.5M435 29.5L435 28.34M435 28.34L435 28.29M435 28.29L435 28.23M435 28.23L435 28.21M435 28.21L435 28.18M435 28.18L435 28.16M435 28.16L435 28.13M435 28.13L435 28.13M435 28.13L435 28.08M435 28.08L435 28.08M435 28.08L435 28.03M435 28.03L435 28.03M435 28.03L435 27.97M435 27.97L435 27.97M435 27.97L434.94 27.72M434.94 27.72L434.94 27.72M434.94 27.72L434.75 27.41M434.75 27.41L434.75 27.41M434.75 27.41L434.47 27.17M434.47 27.17L434.47 27.17M434.47 27.17L434.13 27.06M434.13 27.06L434.13 27.06M434.13 27.06L434.07 27.05M434.07 27.05L434.07 27.05M434.07 27.05L434.02 27.05M434.02 27.05L434.02 27.05M434.02 27.05L433.97 27.04M433.97 27.04L433.97 27.04M433.97 27.04L433.78 27.04M433.78 27.04L433.78 27.04M433.78 27.04L433.68 27.04M433.68 27.04L433.58 27.04M433.58 27.04L433.49 27.04M433.49 27.04L433.39 27.04M433.39 27.04L432.93 27.05M432.93 27.05L432.47 27.05M432.47 27.05L432.02 27.05M432.02 27.05L431.56 27.05M431.56 27.05L430.64 27.04M430.64 27.04L429.73 27.04M429.73 27.04L429.03 27.04M429.03 27.04L428.33 27.04M428.33 27.04L426.93 27.04M426.93 27.04L428.98 27.04M428.98 27.04L427.59 27.04M427.59 27.04L375.86 27.04M375.86 27.04L371.52 27.04M371.52 27.04L367.19 27.04M367.19 27.04L367 27.04M367 27.04L366.8 27.04M366.8 27.04L366.71 27.04M366.71 27.04L366.61 27.04M366.61 27.04L366.51 27.04M366.51 27.04L366.51 27.04M366.51 27.04L366.42 27.04M366.42 27.04L366.32 27.04M366.32 27.04L366.32 27.04M366.32 27.04L366.22 27.04M366.22 27.04L366.22 27.04M366.22 27.04L366.03 27.04M366.03 27.04L366.03 27.04M366.03 27.04L365.98 27.05M365.98 27.05L365.98 27.05M365.98 27.05L365.93 27.05M365.93 27.05L365.93 27.05M365.93 27.05L365.72 27.09M365.72 27.09L365.72 27.09M365.72 27.09L365.4 27.26M365.4 27.26L365.4 27.26M365.4 27.26L365.15 27.53M365.15 27.53L365.15 27.53M365.15 27.53L365.03 27.82M365.03 27.82L365.03 27.82M365.03 27.82L365 27.97M365 27.97L365 27.97M365 27.97L365 28.03M365 28.03L365 28.03M365 28.03L365 28.08M365 28.08L365 28.08M365 28.08L365 28.13M365 28.13L365 28.16M365 28.16L365 28.18M365 28.18L365 28.34M365 28.34L365 28.49M365 28.49L365 28.8M365 28.8L365 29.11M365 29.11L365 29.42M365 29.42L365 30.05M365 30.05L365 30.36M365 30.36L365 30.67"
fill="none" stroke="black" stroke-width="0.5"/>
<path d="M442.59 44.46L442.59 48.95M442.59 48.95L442.59 53.44M442.59 53.44L442.59 53.64M442.59 53.64L442.59 53.84M442.59 53.84L442.59 53.94M442.59 53.94L442.59 54.04M442.59 54.04L442.59 54.13M442.59 54.13L442.59 54.23M442.59 54.23L442.59 54.33M442.59 54.33L442.59 54.33M442.59 54.33L442.59 54.43M442.59 54.43L442.59 54.43M442.59 54.43L442.59 54.63M442.59 54.63L442.59 54.63M442.59 54.63L442.59 54.69M442.59 54.69L442.59 54.69M442.59 54.69L442.58 54.74M442.58 54.74L442.58 54.74M442.58 54.74L442.54 54.94M442.54 54.94L442.54 54.94M442.54 54.94L442.37 55.27M442.37 55.27L442.37 55.27M442.37 55.27L442.1 55.51M442.1 55.51L442.1 55.51M442.1 55.51L441.81 55.64M441.81 55.64L441.81 55.64M441.81 55.64L441.71 55.66M441.71 55.66L441.71 55.66M441.71 55.66L441.66 55.66M441.66 55.66L441.66 55.66M441.66 55.66L441.61 55.67M441.61 55.67L441.61 55.67M441.61 55.67L441.56 55.67M441.56 55.67L441.56 55.67M441.56 55.67L441.21 55.67M441.21 55.67L441.21 55.67M441.21 55.67L440.87 55.67M440.87 55.67L440.79 55.67M440.79 55.67L440.7 55.67M440.7 55.67L440.53 55.67M440.53 55.67L440.36 55.67M440.36 55.67L440.19 55.67M440.19 55.67L438.18 55.67M438.18 55.67L436.18 55.67M436.18 55.67L434.17 55.67M434.17 55.67L432.16 55.67M432.16 55.67L428.15 55.67M428.15 55.67L427.59 55.67M427.59 55.67L375.86 55.67M375.86 55.67L368.35 55.67M368.35 55.67L360.83 55.67M360.83 55.67L360.32 55.67M360.32 55.67L359.81 55.67M359.81 55.67L359.64 55.67M359.64 55.67L359.47 55.67M359.47 55.67L359.3 55.67M359.3 55.67L359.21 55.67M359.21 55.67L359.13 55.67M359.13 55.67L359.13 55.67M359.13 55.67L358.79 55.67M358.79 55.67L358.79 55.67M358.79 55.67L358.44 55.67M358.44 55.67L358.44 55.67M358.44 55.67L358.39 55.67M358.39 55.67L358.39 55.67M358.39 55.67L358.34 55.66M358.34 55.66L358.34 55.66M358.34 55.66L358.13 55.62M358.13 55.62L358.13 55.62M358.13 55.62L357.81 55.45M357.81 55.45L357.81 55.45M357.81 55.45L357.57 55.18M357.57 55.18L357.57 55.18M357.57 55.18L357.44 54.89M357.44 54.89L357.44 54.89M357.44 54.89L357.42 54.79M357.42 54.79L357.42 54.79M357.42 54.79L357.42 54.74M357.42 54.74L357.42 54.74M357.42 54.74L357.41 54.69M357.41 54.69L357.41 54.69M357.41 54.69L357.41 54.63M357.41 54.63L357.41 54.63M357.41 54.63L357.41 54.53M357.41 54.53L357.41 54.48M357.41 54.48L357.41 54.43M357.41 54.43L357.41 54.43M357.41 54.43L357.41 54.23M357.41 54.23L357.41 54.23M357.41 54.23L357.41 54.04M357.41 54.04L357.41 53.44M357.41 53.44L357.41 52.84M357.41 52.84L357.41 52.24M357.41 52.24L357.41 51.64M357.41 51.64L357.41 50.44M357.41 50.44L357.41 49.25M357.41 49.25L357.41 46.85M357.41 46.85L357.41 45.66M357.41 45.66L357.41 44.46M357.41 44.46L357.41 30.67M357.41 30.67L357.41 26.18M357.41 26.18L357.41 21.69M357.41 21.69L357.41 21.49M357.41 21.49L357.41 21.29M357.41 21.29L357.41 21.19M357.41 21.19L357.41 21.09M357.41 21.09L357.41 20.99M357.41 20.99L357.41 20.89M357.41 20.89L357.41 20.79M357.41 20.79L357.41 20.79M357.41 20.79L357.41 20.69M357.41 20.69L357.41 20.69M357.41 20.69L357.41 20.49M357.41 20.49L357.41 20.49M357.41 20.49L357.41 20.44M357.41 20.44L357.41 20.44M357.41 20.44L357.42 20.39M357.42 20.39L357.42 20.39M357.42 20.39L357.46 20.18M357.46 20.18L357.46 20.18M357.46 20.18L357.63 19.86M357.63 19.86L357.63 19.86M357.63 19.86L357.9 19.61M357.9 19.61L357.9 19.61M357.9 19.61L358.19 19.49M358.19 19.49L358.19 19.49M358.19 19.49L358.29 19.47M358.29 19.47L358.29 19.47M358.29 19.47L358.34 19.46M358.34 19.46L358.34 19.46M358.34 19.46L358.39 19.46M358.39 19.46L358.39 19.46M358.39 19.46L358.44 19.46M358.44 19.46L358.44 19.46M358.44 19.46L358.79 19.46M358.79 19.46L358.79 19.46M358.79 19.46L359.13 19.46M359.13 19.46L359.21 19.46M359.21 19.46L359.3 19.46M359.3 19.46L359.47 19.46M359.47 19.46L359.64 19.46M359.64 19.46L359.81 19.46M359.81 19.46L361.82 19.46M361.82 19.46L363.82 19.46M363.82 19.46L365.83 19.46M365.83 19.46L367.84 19.46M367.84 19.46L371.85 19.46M371.85 19.46L373.85 19.46M373.85 19.46L375.86 19.46M375.86 19.46L427.59 19.46M427.59 19.46L431.65 19.46M431.65 19.46L439.16 19.46M439.16 19.46L439.68 19.46M439.68 19.46L439.93 19.46M439.93 19.46L440.19 19.46M440.19 19.46L440.36 19.46M440.36 19.46L440.53 19.46M440.53 19.46L440.7 19.46M440.7 19.46L440.79 19.46M440.79 19.46L440.87 19.46M440.87 19.46L440.87 19.46M440.87 19.46L441.21 19.46M441.21 19.46L441.21 19.46M441.21 19.46L441.56 19.46M441.56 19.46L441.56 19.46M441.56 19.46L441.61 19.46M441.61 19.46L441.61 19.46M441.61 19.46L441.66 19.46M441.66 19.46L441.66 19.46M441.66 19.46L441.87 19.51M441.87 19.51L441.87 19.51M441.87 19.51L442.19 19.67M442.19 19.67L442.19 19.67M442.19 19.67L442.43 19.95M442.43 19.95L442.43 19.95M442.43 19.95L442.56 20.23M442.56 20.23L442.56 20.23M442.56 20.23L442.58 20.34M442.58 20.34L442.58 20.34M442.58 20.34L442.58 20.39M442.58 20.39L442.58 20.39M442.58 20.39L442.59 20.44M442.59 20.44L442.59 20.44M442.59 20.44L442.59 20.49M442.59 20.49L442.59 20.49M442.59 20.49L442.59 20.69M442.59 20.69L442.59 20.69M442.59 20.69L442.59 20.79M442.59 20.79L442.59 20.89M442.59 20.89L442.59 20.99M442.59 20.99L442.59 21.09M442.59 21.09L442.59 21.44M442.59 21.44L442.59 21.79M442.59 21.79L442.59 22.14M442.59 22.14L442.59 22.49M442.59 22.49L442.59 23.88M442.59 23.88L442.59 24.73M442.59 24.73L442.59 25.58M442.59 25.58L442.59 26.43M442.59 26.43L442.59 27.27M442.59 27.27L442.59 28.97M442.59 28.97L442.59 29.82M442.59 29.82L442.59 30.67M442.59 30.67L442.59 44.46"
fill="none" stroke="black" stroke-width="0.5"/>
<path d="M446.73 44.46L446.73 30.67M446.73 30.67L446.73 15.32M446.73 15.32L427.59 15.32M427.59 15.32L375.86 15.32M375.86 15.32L353.27 15.32M353.27 15.32L353.27 30.67M353.27 30.67L353.27 44.46M353.27 44.46L353.27 59.81M353.27 59.81L375.86 59.81M375.86 59.81L427.59 59.81M427.59 59.81L446.73 59.81M446.73 59.81L446.73 44.46"
fill="none" stroke="black" stroke-width="0.5"/>
<path d="M427.59 109.81L431.65 109.81M431.65 109.81L439.17 109.81M439.17 109.81L439.68 109.81M439.68 109.81L440.19 109.81M440.19 109.81L440.36 109.81M440.36 109.81L440.53 109.81M440.53 109.81L440.7 109.81M440.7 109.81L440.79 109.81M440.79 109.81L440.87 109.81M440.87 109.81L440.87 109.81M440.87 109.81L441.21 109.81M441.21 109.81L441.21 109.81M441.21 109.81L441.56 109.81M441.56 109.81L441.56 109.81M441.56 109.81L441.61 109.81M441.61 109.81L441.61 109.81M441.61 109.81L441.66 109.82M441.66 109.82L441.66 109.82M441.66 109.82L441.87 109.86M441.87 109.86L441.87 109.86M441.87 109.86L442.19 110.03M442.19 110.03L442.19 110.03M442.19 110.03L442.43 110.3M442.43 110.3L442.43 110.3M442.43 110.3L442.56 110.59M442.56 110.59L442.56 110.59M442.56 110.59L442.58 110.69M442.58 110.69L442.58 110.69M442.58 110.69L442.58 110.74M442.58 110.74L442.58 110.74M442.58 110.74L442.59 110.79M442.59 110.79L442.59 110.79M442.59 110.79L442.59 110.85M442.59 110.85L442.59 110.85M442.59 110.85L442.6 112.58M442.6 112.58L442.6 112.58M442.6 112.58L442.59 114.32M442.59 114.32L442.59 114.32M442.59 114.32L442.59 117.79M442.59 117.79L442.59 118.22M442.59 118.22L442.59 118.66M442.59 118.66L442.59 119.09M442.59 119.09L442.59 119.53M442.59 119.53L442.59 120.39M442.59 120.39L442.59 121.26M442.59 121.26L442.59 121.7M442.59 121.7L442.59 122.13M442.59 122.13L442.59 123M442.59 123L442.59 123.87M442.59 123.87L442.59 124.73M442.59 124.73L442.59 126.47M442.59 126.47L442.59 128.21M442.59 128.21L442.59 130.81M442.59 130.81L442.59 133.41M442.59 133.41L442.59 138.62M442.59 138.62L442.59 147.96M442.59 147.96L442.59 157.29M442.59 157.29L442.59 175.95M442.59 175.95L442.59 194.61M442.59 194.61L442.59 213.28M442.59 213.28L442.59 250.6M442.59 250.6L442.59 269.27M442.59 269.27L442.59 287.93M442.59 287.93L442.59 312.07M442.59 312.07L442.59 386.72M442.59 386.72L442.59 461.38M442.59 461.38L442.59 464.85M442.59 464.85L442.59 468.32M442.59 468.32L442.59 470.06M442.59 470.06L442.59 471.79M442.59 471.79L442.59 473.53M442.59 473.53L442.59 475.27M442.59 475.27L442.59 476.13M442.59 476.13L442.59 477M442.59 477L442.59 477.87M442.59 477.87L442.59 478.74M442.59 478.74L442.59 479.61M442.59 479.61L442.59 480.47M442.59 480.47L442.59 480.91M442.59 480.91L442.59 481.34M442.59 481.34L442.59 481.78M442.59 481.78L442.59 482.21M442.59 482.21L442.59 482.21M442.59 482.21L442.59 485.68M442.59 485.68L442.59 485.68M442.59 485.68L442.6 487.42M442.6 487.42L442.6 487.42M442.6 487.42L442.59 489.15M442.59 489.15L442.59 489.15M442.59 489.15L442.59 489.21M442.59 489.21L442.59 489.21M442.59 489.21L442.58 489.26M442.58 489.26L442.58 489.26M442.58 489.26L442.56 489.41M442.56 489.41L442.56 489.41M442.56 489.41L442.4 489.75M442.4 489.75L442.4 489.75M442.4 489.75L442.19 489.97M442.19 489.97L442.19 489.97M442.19 489.97L441.91 490.12M441.91 490.12L441.91 490.12M441.91 490.12L441.71 490.18M441.71 490.18L441.71 490.18M441.71 490.18L441.66 490.18M441.66 490.18L441.66 490.18M441.66 490.18L441.61 490.19M441.61 490.19L441.61 490.19M441.61 490.19L441.56 490.19M441.56 490.19L441.56 490.19M441.56 490.19L441.21 490.19M441.21 490.19L441.21 490.19M441.21 490.19L441.04 490.19M441.04 490.19L441 490.19M441 490.19L441 490.19M441 490.19L440.96 490.19M440.96 490.19L440.87 490.19M440.87 490.19L440.87 490.19M440.87 490.19L440.7 490.19M440.7 490.19L440.53 490.19M440.53 490.19L440.36 490.19M440.36 490.19L440.19 490.19M440.19 490.19L439.94 490.19M439.94 490.19L439.88 490.19M439.88 490.19L439.88 490.19M439.88 490.19L439.81 490.19M439.81 490.19L439.69 490.19M439.69 490.19L439.19 490.19M439.19 490.19L438.94 490.19M438.94 490.19L438.87 490.19M438.87 490.19L438.87 490.19M438.87 490.19L438.81 490.19M438.81 490.19L438.68 490.19M438.68 490.19L438.18 490.19M438.18 490.19L437.18 490.19M437.18 490.19L436.68 490.19M436.68 490.19L436.68 490.19M436.68 490.19L436.18 490.19M436.18 490.19L436.18 490.19M436.18 490.19L436.11 490.19M436.11 490.19L436.05 490.19M436.05 490.19L435.93 490.19M435.93 490.19L435.68 490.19M435.68 490.19L435.17 490.19M435.17 490.19L434.17 490.19M434.17 490.19L433.67 490.19M433.67 490.19L433.54 490.19M433.54 490.19L433.54 490.19M433.54 490.19L433.42 490.19M433.42 490.19L433.17 490.19M433.17 490.19L432.16 490.19M432.16 490.19L430.16 490.19M430.16 490.19L429.66 490.19M429.66 490.19L429.53 490.19M429.53 490.19L429.53 490.19M429.53 490.19L429.47 490.19M429.47 490.19L429.47 490.19M429.47 490.19L429.41 490.19M429.41 490.19L429.16 490.19M429.16 490.19L428.15 490.19M428.15 490.19L427.15 490.19M427.15 490.19L426.9 490.19M426.9 490.19L426.9 490.19M426.9 490.19L426.77 490.19M426.77 490.19L426.65 490.19M426.65 490.19L426.15 490.19M426.15 490.19L427.59 490.19M427.59 490.19L375.86 490.19M375.86 490.19L368.35 490.19M368.35 490.19L360.84 490.19M360.84 490.19L360.71 490.19M360.71 490.19L360.71 490.19M360.71 490.19L360.64 490.19M360.64 490.19L360.58 490.19M360.58 490.19L360.32 490.19M360.32 490.19L360.07 490.19M360.07 490.19L360.07 490.19M360.07 490.19L359.94 490.19M359.94 490.19L359.81 490.19M359.81 490.19L359.64 490.19M359.64 490.19L359.47 490.19M359.47 490.19L359.3 490.19M359.3 490.19L359.3 490.19M359.3 490.19L359.13 490.19M359.13 490.19L359.04 490.19M359.04 490.19L359.04 490.19M359.04 490.19L359 490.19M359 490.19L358.96 490.19M358.96 490.19L358.96 490.19M358.96 490.19L358.79 490.19M358.79 490.19L358.79 490.19M358.79 490.19L358.44 490.19M358.44 490.19L358.44 490.19M358.44 490.19L358.39 490.19M358.39 490.19L358.39 490.19M358.39 490.19L358.34 490.18M358.34 490.18L358.34 490.18M358.34 490.18L358.13 490.14M358.13 490.14L358.13 490.14M358.13 490.14L357.81 489.97M357.81 489.97L357.81 489.97M357.81 489.97L357.57 489.7M357.57 489.7L357.57 489.7M357.57 489.7L357.44 489.41M357.44 489.41L357.44 489.41M357.44 489.41L357.42 489.31M357.42 489.31L357.42 489.31M357.42 489.31L357.42 489.26M357.42 489.26L357.42 489.26M357.42 489.26L357.41 489.21M357.41 489.21L357.41 489.21M357.41 489.21L357.41 489.15M357.41 489.15L357.41 489.15M357.41 489.15L357.4 487.42M357.4 487.42L357.4 487.42M357.4 487.42L357.41 485.68M357.41 485.68L357.41 485.68M357.41 485.68L357.41 482.21M357.41 482.21L357.41 481.78M357.41 481.78L357.41 481.34M357.41 481.34L357.41 480.91M357.41 480.91L357.41 480.47M357.41 480.47L357.41 480.04M357.41 480.04L357.41 479.61M357.41 479.61L357.41 478.74M357.41 478.74L357.41 478.3M357.41 478.3L357.41 477.87M357.41 477.87L357.41 477M357.41 477L357.41 476.13M357.41 476.13L357.41 475.27M357.41 475.27L357.41 473.53M357.41 473.53L357.41 471.79M357.41 471.79L357.41 469.19M357.41 469.19L357.41 466.59M357.41 466.59L357.41 461.38M357.41 461.38L357.41 452.05M357.41 452.05L357.41 442.71M357.41 442.71L357.41 424.05M357.41 424.05L357.41 405.39M357.41 405.39L357.41 386.72M357.41 386.72L357.41 349.4M357.41 349.4L357.41 330.73M357.41 330.73L357.41 312.07M357.41 312.07L357.41 287.93M357.41 287.93L357.41 213.28M357.41 213.28L357.41 138.62M357.41 138.62L357.41 135.15M357.41 135.15L357.41 131.68M357.41 131.68L357.41 129.94M357.41 129.94L357.41 128.21M357.41 128.21L357.41 126.47M357.41 126.47L357.41 124.73M357.41 124.73L357.41 123.87M357.41 123.87L357.41 123M357.41 123L357.41 122.13M357.41 122.13L357.41 121.26M357.41 121.26L357.41 120.39M357.41 120.39L357.41 119.53M357.41 119.53L357.41 119.09M357.41 119.09L357.41 118.66M357.41 118.66L357.41 118.22M357.41 118.22L357.41 117.79M357.41 117.79L357.41 117.79M357.41 117.79L357.41 114.32M357.41 114.32L357.41 114.32M357.41 114.32L357.4 112.58M357.4 112.58L357.4 112.58M357.4 112.58L357.41 110.85M357.41 110.85L357.41 110.85M357.41 110.85L357.41 110.79M357.41 110.79L357.41 110.79M357.41 110.79L357.42 110.74M357.42 110.74L357.42 110.74M357.42 110.74L357.44 110.59M357.44 110.59L357.44 110.59M357.44 110.59L357.6 110.25M357.6 110.25L357.6 110.25M357.6 110.25L357.81 110.03M357.81 110.03L357.81 110.03M357.81 110.03L358.09 109.88M358.09 109.88L358.09 109.88M358.09 109.88L358.29 109.82M358.29 109.82L358.29 109.82M358.29 109.82L358.34 109.82M358.34 109.82L358.34 109.82M358.34 109.82L358.39 109.81M358.39 109.81L358.39 109.81M358.39 109.81L358.44 109.81M358.44 109.81L358.44 109.81M358.44 109.81L358.79 109.81M358.79 109.81L358.79 109.81M358.79 109.81L359.13 109.81M359.13 109.81L359.21 109.81M359.21 109.81L359.3 109.81M359.3 109.81L359.47 109.81M359.47 109.81L359.64 109.81M359.64 109.81L359.81 109.81M359.81 109.81L361.82 109.81M361.82 109.81L363.82 109.81M363.82 109.81L365.83 109.81M365.83 109.81L367.84 109.81M367.84 109.81L371.85 109.81M371.85 109.81L375.86 109.81M375.86 109.81L427.59 109.81"
fill="none" stroke="black" stroke-width="0.5"/>
<path d="M427.59 105.67L375.86 105.67M375.86 105.67L353.27 105.67M353.27 105.67L353.27 287.93M353.27 287.93L353.27 312.07M353.27 312.07L353.27 494.33M353.27 494.33L375.86 494.33M375.86 494.33L427.59 494.33M427.59 494.33L446.73 494.33M446.73 494.33L446.73 312.07M446.73 312.07L446.73 287.93M446.73 287.93L446.73 105.67M446.73 105.67L427.59 105.67"
fill="none" stroke="black" stroke-width="0.5"/>
<path d="M427.59 94.81L375.86 94.81M375.86 94.81L362.25 94.81M362.25 94.81L348.64 94.81M348.64 94.81L348.02 94.81M348.02 94.81L347.4 94.81M347.4 94.81L347.09 94.81M347.09 94.81L346.78 94.81M346.78 94.81L346.47 94.81M346.47 94.81L346.32 94.81M346.32 94.81L346.16 94.81M346.16 94.81L345.85 94.81M345.85 94.81L345.7 94.81M345.7 94.81L345.54 94.81M345.54 94.81L345.54 94.81M345.54 94.81L344.92 94.81M344.92 94.81L344.92 94.81M344.92 94.81L344.31 94.81M344.31 94.81L344.31 94.81M344.31 94.81L344.26 94.81M344.26 94.81L344.26 94.81M344.26 94.81L344.22 94.8M344.22 94.8L344.22 94.8M344.22 94.8L344.09 94.78M344.09 94.78L344.09 94.78M344.09 94.78L343.87 94.65M343.87 94.65L343.87 94.65M343.87 94.65L343.7 94.45M343.7 94.45L343.7 94.45M343.7 94.45L343.63 94.25M343.63 94.25L343.63 94.25M343.63 94.25L343.62 94.21M343.62 94.21L343.62 94.21M343.62 94.21L343.62 94.16M343.62 94.16L343.62 94.16M343.62 94.16L343.62 94.12M343.62 94.12L343.62 94.12M343.62 94.12L343.62 93.67M343.62 93.67L343.62 93.67M343.62 93.67L343.62 93.23M343.62 93.23L343.62 93.12M343.62 93.12L343.62 93M343.62 93L343.62 92.78M343.62 92.78L343.62 92.56M343.62 92.56L343.62 92.33M343.62 92.33L343.62 91.27M343.62 91.27L343.62 90.21M343.62 90.21L343.62 88.09M343.62 88.09L343.62 85.97M343.62 85.97L343.62 83.86M343.62 83.86L343.62 79.62M343.62 79.62L343.62 77.5M343.62 77.5L343.62 75.38M343.62 75.38L343.62 74.48M343.62 74.48L343.62 73.59M343.62 73.59L343.62 73.37M343.62 73.37L343.62 73.14M343.62 73.14L343.62 72.92M343.62 72.92L343.62 72.7M343.62 72.7L343.62 72.47M343.62 72.47L343.62 72.36M343.62 72.36L343.62 72.25M343.62 72.25L343.62 72.25M343.62 72.25L343.62 71.81M343.62 71.81L343.62 71.81M343.62 71.81L343.62 71.36M343.62 71.36L343.62 71.36M343.62 71.36L343.62 71.32M343.62 71.32L343.62 71.32M343.62 71.32L343.62 71.27M343.62 71.27L343.62 71.27M343.62 71.27L343.66 71.11M343.66 71.11L343.66 71.11M343.66 71.11L343.8 70.89M343.8 70.89L343.8 70.89M343.8 70.89L344.01 70.74M344.01 70.74L344.01 70.74M344.01 70.74L344.18 70.68M344.18 70.68L344.18 70.68M344.18 70.68L344.22 70.67M344.22 70.67L344.22 70.67M344.22 70.67L344.26 70.67M344.26 70.67L344.26 70.67M344.26 70.67L344.31 70.67M344.31 70.67L344.31 70.67M344.31 70.67L344.92 70.67M344.92 70.67L344.92 70.67M344.92 70.67L345.54 70.67M345.54 70.67L345.54 70.67M345.54 70.67L346.16 70.67M346.16 70.67L346.47 70.67M346.47 70.67L346.78 70.67M346.78 70.67L347.55 70.67M347.55 70.67L348.33 70.67M348.33 70.67L349.87 70.67M349.87 70.67L353.12 70.67M353.12 70.67L356.37 70.67M356.37 70.67L359.62 70.67M359.62 70.67L362.87 70.67M362.87 70.67L369.36 70.67M369.36 70.67L372.61 70.67M372.61 70.67L375.86 70.67M375.86 70.67L427.59 70.67M427.59 70.67L437.75 70.67M437.75 70.67L451.36 70.67M451.36 70.67L451.98 70.67M451.98 70.67L452.6 70.67M452.6 70.67L452.91 70.67M452.91 70.67L453.22 70.67M453.22 70.67L453.53 70.67M453.53 70.67L453.68 70.67M453.68 70.67L453.84 70.67M453.84 70.67L454.15 70.67M454.15 70.67L454.3 70.67M454.3 70.67L454.46 70.67M454.46 70.67L454.46 70.67M454.46 70.67L455.08 70.67M455.08 70.67L455.08 70.67M455.08 70.67L455.69 70.67M455.69 70.67L455.71 70.67M455.71 70.67L455.72 70.67M455.72 70.67L455.72 70.67M455.72 70.67L455.74 70.67M455.74 70.67L455.74 70.67M455.74 70.67L455.78 70.67M455.78 70.67L455.78 70.67M455.78 70.67L455.91 70.7M455.91 70.7L455.91 70.7M455.91 70.7L456.13 70.83M456.13 70.83L456.13 70.83M456.13 70.83L456.3 71.03M456.3 71.03L456.3 71.03M456.3 71.03L456.37 71.23M456.37 71.23L456.37 71.23M456.37 71.23L456.38 71.27M456.38 71.27L456.38 71.27M456.38 71.27L456.38 71.32M456.38 71.32L456.38 71.32M456.38 71.32L456.38 71.34M456.38 71.34L456.38 71.34M456.38 71.34L456.38 71.36M456.38 71.36L456.38 71.36M456.38 71.36L456.38 71.81M456.38 71.81L456.38 71.81M456.38 71.81L456.38 72.25M456.38 72.25L456.38 72.36M456.38 72.36L456.38 72.47M456.38 72.47L456.38 72.7M456.38 72.7L456.38 72.92M456.38 72.92L456.38 73.14M456.38 73.14L456.38 74.2M456.38 74.2L456.38 75.26M456.38 75.26L456.38 77.38M456.38 77.38L456.38 79.5M456.38 79.5L456.38 81.62M456.38 81.62L456.38 85.86M456.38 85.86L456.38 87.98M456.38 87.98L456.38 90.1M456.38 90.1L456.38 91M456.38 91L456.38 91.89M456.38 91.89L456.38 92.11M456.38 92.11L456.38 92.33M456.38 92.33L456.38 92.56M456.38 92.56L456.38 92.78M456.38 92.78L456.38 93M456.38 93L456.38 93.12M456.38 93.12L456.38 93.23M456.38 93.23L456.38 93.23M456.38 93.23L456.38 93.67M456.38 93.67L456.38 93.67M456.38 93.67L456.38 94.12M456.38 94.12L456.38 94.12M456.38 94.12L456.38 94.14M456.38 94.14L456.38 94.14M456.38 94.14L456.38 94.16M456.38 94.16L456.38 94.16M456.38 94.16L456.38 94.21M456.38 94.21L456.38 94.21M456.38 94.21L456.35 94.33M456.35 94.33L456.35 94.33M456.35 94.33L456.23 94.56M456.23 94.56L456.23 94.56M456.23 94.56L456.03 94.72M456.03 94.72L456.03 94.72M456.03 94.72L455.82 94.8M455.82 94.8L455.82 94.8M455.82 94.8L455.78 94.8M455.78 94.8L455.78 94.8M455.78 94.8L455.74 94.81M455.74 94.81L455.74 94.81M455.74 94.81L455.69 94.81M455.69 94.81L455.69 94.81M455.69 94.81L455.08 94.81M455.08 94.81L455.08 94.81M455.08 94.81L454.46 94.81M454.46 94.81L454.3 94.81M454.3 94.81L454.15 94.81M454.15 94.81L453.84 94.81M453.84 94.81L453.68 94.81M453.68 94.81L453.53 94.81M453.53 94.81L453.22 94.81M453.22 94.81L452.45 94.81M452.45 94.81L451.67 94.81M451.67 94.81L450.13 94.81M450.13 94.81L446.88 94.81M446.88 94.81L443.63 94.81M443.63 94.81L440.38 94.81M440.38 94.81L437.13 94.81M437.13 94.81L430.64 94.81M430.64 94.81L427.39 94.81M427.39 94.81L427.59 94.81"
fill="none" stroke="black" stroke-width="0.5"/>
<path d="M456.38 30.67L456.38 44.46M456.38 44.46L456.38 69.46M456.38 69.46L427.59 69.46M427.59 69.46L375.86 69.46M375.86 69.46L343.62 69.46M343.62 69.46L343.62 44.46M343.62 44.46L343.62 30.67M343.62 30.67L343.62 5.66M343.62 5.66L375.86 5.66M375.86 5.66L427.59 5.66M427.59 5.66L456.38 5.66M456.38 5.66L456.38 30.67"
fill="none" stroke="black" stroke-width="0.5"/>
<path d="M427.59 505.19L437.75 505.19M437.75 505.19L451.36 505.19M451.36 505.19L451.98 505.19M451.98 505.19L452.6 505.19M452.6 505.19L452.91 505.19M452.91 505.19L453.22 505.19M453.22 505.19L453.53 505.19M453.53 505.19L453.84 505.19M453.84 505.19L453.84 505.19M453.84 505.19L454.46 505.19M454.46 505.19L454.46 505.19M454.46 505.19L455.08 505.19M455.08 505.19L455.08 505.19M455.08 505.19L455.69 505.19M455.69 505.19L455.69 505.19M455.69 505.19L455.74 505.19M455.74 505.19L455.74 505.19M455.74 505.19L455.78 505.2M455.78 505.2L455.78 505.2M455.78 505.2L455.91 505.22M455.91 505.22L455.91 505.22M455.91 505.22L456.13 505.35M456.13 505.35L456.13 505.35M456.13 505.35L456.3 505.55M456.3 505.55L456.3 505.55M456.3 505.55L456.37 505.75M456.37 505.75L456.37 505.75M456.37 505.75L456.38 505.79M456.38 505.79L456.38 505.79M456.38 505.79L456.38 505.84M456.38 505.84L456.38 505.84M456.38 505.84L456.38 505.88M456.38 505.88L456.38 505.88M456.38 505.88L456.38 506.33M456.38 506.33L456.38 506.33M456.38 506.33L456.38 506.77M456.38 506.77L456.38 506.88M456.38 506.88L456.38 507M456.38 507L456.38 507.22M456.38 507.22L456.38 507.44M456.38 507.44L456.38 507.67M456.38 507.67L456.38 508.73M456.38 508.73L456.38 509.79M456.38 509.79L456.38 511.91M456.38 511.91L456.38 514.02M456.38 514.02L456.38 516.14M456.38 516.14L456.38 520.38M456.38 520.38L456.38 522.5M456.38 522.5L456.38 524.62M456.38 524.62L456.38 525.52M456.38 525.52L456.38 526.41M456.38 526.41L456.38 526.63M456.38 526.63L456.38 526.86M456.38 526.86L456.38 527.08M456.38 527.08L456.38 527.3M456.38 527.3L456.38 527.53M456.38 527.53L456.38 527.64M456.38 527.64L456.38 527.75M456.38 527.75L456.38 527.75M456.38 527.75L456.38 528.19M456.38 528.19L456.38 528.19M456.38 528.19L456.38 528.64M456.38 528.64L456.38 528.64M456.38 528.64L456.38 528.68M456.38 528.68L456.38 528.68M456.38 528.68L456.38 528.73M456.38 528.73L456.38 528.73M456.38 528.73L456.35 528.85M456.35 528.85L456.35 528.85M456.35 528.85L456.23 529.08M456.23 529.08L456.23 529.08M456.23 529.08L456.03 529.25M456.03 529.25L456.03 529.25M456.03 529.25L455.82 529.32M455.82 529.32L455.82 529.32M455.82 529.32L455.78 529.33M455.78 529.33L455.78 529.33M455.78 529.33L455.74 529.33M455.74 529.33L455.74 529.33M455.74 529.33L455.72 529.33M455.72 529.33L455.69 529.33M455.69 529.33L455.69 529.33M455.69 529.33L455.08 529.33M455.08 529.33L455.08 529.33M455.08 529.33L454.46 529.33M454.46 529.33L454.46 529.33M454.46 529.33L454.15 529.33M454.15 529.33L453.84 529.33M453.84 529.33L453.84 529.33M453.84 529.33L453.53 529.33M453.53 529.33L453.22 529.33M453.22 529.33L452.45 529.33M452.45 529.33L451.67 529.33M451.67 529.33L450.9 529.33M450.9 529.33L450.71 529.33M450.71 529.33L450.71 529.33M450.71 529.33L450.51 529.33M450.51 529.33L450.13 529.33M450.13 529.33L449.72 529.33M449.72 529.33L449.62 529.33M449.62 529.33L449.62 529.33M449.62 529.33L449.52 529.33M449.52 529.33L449.31 529.33M449.31 529.33L448.5 529.33M448.5 529.33L448.5 529.33M448.5 529.33L446.88 529.33M446.88 529.33L446.88 529.33M446.88 529.33L443.63 529.33M443.63 529.33L443.63 529.33M443.63 529.33L443.53 529.33M443.53 529.33L443.43 529.33M443.43 529.33L443.22 529.33M443.22 529.33L442.82 529.33M442.82 529.33L442.01 529.33M442.01 529.33L440.38 529.33M440.38 529.33L439.57 529.33M439.57 529.33L439.37 529.33M439.37 529.33L439.37 529.33M439.37 529.33L439.16 529.33M439.16 529.33L438.76 529.33M438.76 529.33L437.13 529.33M437.13 529.33L435.51 529.33M435.51 529.33L435.1 529.33M435.1 529.33L435.1 529.33M435.1 529.33L434.9 529.33M434.9 529.33L434.7 529.33M434.7 529.33L433.88 529.33M433.88 529.33L432.26 529.33M432.26 529.33L431.85 529.33M431.85 529.33L431.85 529.33M431.85 529.33L431.65 529.33M431.65 529.33L431.45 529.33M431.45 529.33L430.64 529.33M430.64 529.33L429.01 529.33M429.01 529.33L428.61 529.33M428.61 529.33L428.61 529.33M428.61 529.33L428.4 529.33M428.4 529.33L428.2 529.33M428.2 529.33L427.39 529.33M427.39 529.33L427.59 529.33M427.59 529.33L375.86 529.33M375.86 529.33L362.25 529.33M362.25 529.33L355.44 529.33M355.44 529.33L348.64 529.33M348.64 529.33L348.02 529.33M348.02 529.33L347.4 529.33M347.4 529.33L347.09 529.33M347.09 529.33L346.78 529.33M346.78 529.33L346.78 529.33M346.78 529.33L346.16 529.33M346.16 529.33L345.85 529.33M345.85 529.33L345.85 529.33M345.85 529.33L345.54 529.33M345.54 529.33L345.54 529.33M345.54 529.33L344.92 529.33M344.92 529.33L344.92 529.33M344.92 529.33L344.31 529.33M344.31 529.33L344.28 529.33M344.28 529.33L344.28 529.33M344.28 529.33L344.26 529.33M344.26 529.33L344.26 529.33M344.26 529.33L344.22 529.33M344.22 529.33L344.22 529.33M344.22 529.33L344.09 529.3M344.09 529.3L344.09 529.3M344.09 529.3L343.87 529.17M343.87 529.17L343.87 529.17M343.87 529.17L343.7 528.97M343.7 528.97L343.7 528.97M343.7 528.97L343.63 528.77M343.63 528.77L343.63 528.77M343.63 528.77L343.62 528.73M343.62 528.73L343.62 528.73M343.62 528.73L343.62 528.68M343.62 528.68L343.62 528.68M343.62 528.68L343.62 528.64M343.62 528.64L343.62 528.64M343.62 528.64L343.62 528.19M343.62 528.19L343.62 528.19M343.62 528.19L343.62 527.75M343.62 527.75L343.62 527.64M343.62 527.64L343.62 527.53M343.62 527.53L343.62 527.3M343.62 527.3L343.62 527.08M343.62 527.08L343.62 526.86M343.62 526.86L343.62 525.91M343.62 525.91L343.62 524.96M343.62 524.96L343.62 524.01M343.62 524.01L343.62 523.06M343.62 523.06L343.62 521.17M343.62 521.17L343.62 519.27M343.62 519.27L343.62 517.93M343.62 517.93L343.62 516.59M343.62 516.59L343.62 513.91M343.62 513.91L343.62 511.24M343.62 511.24L343.62 508.56M343.62 508.56L343.62 508.11M343.62 508.11L343.62 507.67M343.62 507.67L343.62 507.44M343.62 507.44L343.62 507.22M343.62 507.22L343.62 507M343.62 507L343.62 506.88M343.62 506.88L343.62 506.77M343.62 506.77L343.62 506.77M343.62 506.77L343.62 506.33M343.62 506.33L343.62 506.33M343.62 506.33L343.62 505.88M343.62 505.88L343.62 505.88M343.62 505.88L343.62 505.86M343.62 505.86L343.62 505.86M343.62 505.86L343.62 505.84M343.62 505.84L343.62 505.84M343.62 505.84L343.62 505.79M343.62 505.79L343.62 505.79M343.62 505.79L343.65 505.67M343.65 505.67L343.65 505.67M343.65 505.67L343.77 505.44M343.77 505.44L343.77 505.44M343.77 505.44L343.97 505.28M343.97 505.28L343.97 505.28M343.97 505.28L344.18 505.2M344.18 505.2L344.18 505.2M344.18 505.2L344.22 505.2M344.22 505.2L344.22 505.2M344.22 505.2L344.26 505.19M344.26 505.19L344.26 505.19M344.26 505.19L344.31 505.19M344.31 505.19L344.31 505.19M344.31 505.19L344.92 505.19M344.92 505.19L344.92 505.19M344.92 505.19L345.54 505.19M345.54 505.19L345.54 505.19M345.54 505.19L346.16 505.19M346.16 505.19L346.47 505.19M346.47 505.19L346.78 505.19M346.78 505.19L347.01 505.19M347.01 505.19L347.07 505.19M347.07 505.19L347.07 505.19M347.07 505.19L347.13 505.19M347.13 505.19L347.24 505.19M347.24 505.19L347.71 505.19M347.71 505.19L348.64 505.19M348.64 505.19L349.1 505.19M349.1 505.19L349.22 505.19M349.22 505.19L349.22 505.19M349.22 505.19L349.27 505.19M349.27 505.19L349.33 505.19M349.33 505.19L349.56 505.19M349.56 505.19L350.49 505.19M350.49 505.19L352.08 505.19M352.08 505.19L353.66 505.19M353.66 505.19L353.66 505.19M353.66 505.19L353.76 505.19M353.76 505.19L353.86 505.19M353.86 505.19L354.06 505.19M354.06 505.19L354.46 505.19M354.46 505.19L355.25 505.19M355.25 505.19L356.83 505.19M356.83 505.19L363.18 505.19M363.18 505.19L364.76 505.19M364.76 505.19L365.16 505.19M365.16 505.19L365.16 505.19M365.16 505.19L365.36 505.19M365.36 505.19L365.55 505.19M365.55 505.19L366.35 505.19M366.35 505.19L367.93 505.19M367.93 505.19L368.33 505.19M368.33 505.19L368.33 505.19M368.33 505.19L368.53 505.19M368.53 505.19L368.73 505.19M368.73 505.19L369.52 505.19M369.52 505.19L371.1 505.19M371.1 505.19L371.5 505.19M371.5 505.19L371.5 505.19M371.5 505.19L371.7 505.19M371.7 505.19L371.9 505.19M371.9 505.19L372.69 505.19M372.69 505.19L375.86 505.19M375.86 505.19L427.59 505.19"
fill="none" stroke="black" stroke-width="0.5"/>
<path d="M427.59 594.34L375.86 594.34M375.86 594.34L343.62 594.34M343.62 594.34L343.62 569.33M343.62 569.33L343.62 555.54M343.62 555.54L343.62 530.54M343.62 530.54L375.86 530.54M375.86 530.54L427.59 530.54M427.59 530.54L456.38 530.54M456.38 530.54L456.38 555.54M456.38 555.54L456.38 569.33M456.38 569.33L456.38 594.34M456.38 594.34L427.59 594.34"
fill="none" stroke="black" stroke-width="0.5"/>
<path d="M457.59 30.67L457.59 19.81M457.59 19.81L457.59 8.95M457.59 8.95L457.59 8.45M457.59 8.45L457.59 7.96M457.59 7.96L457.59 7.71M457.59 7.71L457.59 7.47M457.59 7.47L457.59 7.22M457.59 7.22L457.59 6.97M457.59 6.97L457.59 6.73M457.59 6.73L457.59 6.6M457.59 6.6L457.59 6.48M457.59 6.48L457.59 6.48M457.59 6.48L457.59 5.98M457.59 5.98L457.59 5.98M457.59 5.98L457.59 5.49M457.59 5.49L457.59 5.49M457.59 5.49L457.59 5.44M457.59 5.44L457.59 5.44M457.59 5.44L457.59 5.39M457.59 5.39L457.59 5.39M457.59 5.39L457.54 5.18M457.54 5.18L457.54 5.18M457.54 5.18L457.37 4.86M457.37 4.86L457.37 4.86M457.37 4.86L457.1 4.61M457.1 4.61L457.1 4.61M457.1 4.61L456.82 4.49M456.82 4.49L456.82 4.49M456.82 4.49L456.71 4.47M456.71 4.47L456.71 4.47M456.71 4.47L456.66 4.46M456.66 4.46L456.66 4.46M456.66 4.46L456.61 4.46M456.61 4.46L456.61 4.46M456.61 4.46L456.56 4.46M456.56 4.46L456.56 4.46M456.56 4.46L455.92 4.46M455.92 4.46L455.92 4.46M455.92 4.46L455.6 4.46M455.6 4.46L455.44 4.46M455.44 4.46L455.29 4.46M455.29 4.46L455.13 4.46M455.13 4.46L454.97 4.46M454.97 4.46L454.65 4.46M454.65 4.46L454.33 4.46M454.33 4.46L454.01 4.46M454.01 4.46L452.9 4.46M452.9 4.46L451.79 4.46M451.79 4.46L450.68 4.46M450.68 4.46L449.56 4.46M449.56 4.46L445.12 4.46M445.12 4.46L442.49 4.46M442.49 4.46L439.87 4.46M439.87 4.46L437.25 4.46M437.25 4.46L434.63 4.46M434.63 4.46L429.38 4.46M429.38 4.46L427.59 4.46M427.59 4.46L375.86 4.46M375.86 4.46L361.88 4.46M361.88 4.46L347.89 4.46M347.89 4.46L347.26 4.46M347.26 4.46L346.62 4.46M346.62 4.46L346.3 4.46M346.3 4.46L345.99 4.46M345.99 4.46L345.67 4.46M345.67 4.46L345.35 4.46M345.35 4.46L345.03 4.46M345.03 4.46L344.87 4.46M344.87 4.46L344.71 4.46M344.71 4.46L344.56 4.46M344.56 4.46L344.4 4.46M344.4 4.46L344.4 4.46M344.4 4.46L344.08 4.46M344.08 4.46L344.08 4.46M344.08 4.46L343.44 4.46M343.44 4.46L343.44 4.46M343.44 4.46L343.39 4.46M343.39 4.46L343.39 4.46M343.39 4.46L343.34 4.46M343.34 4.46L343.34 4.46M343.34 4.46L343.13 4.5M343.13 4.5L343.13 4.5M343.13 4.5L342.81 4.67M342.81 4.67L342.81 4.67M342.81 4.67L342.57 4.94M342.57 4.94L342.57 4.94M342.57 4.94L342.44 5.23M342.44 5.23L342.44 5.23M342.44 5.23L342.42 5.33M342.42 5.33L342.42 5.33M342.42 5.33L342.41 5.39M342.41 5.39L342.41 5.39M342.41 5.39L342.41 5.44M342.41 5.44L342.41 5.44M342.41 5.44L342.41 5.49M342.41 5.49L342.41 5.49M342.41 5.49L342.41 5.98M342.41 5.98L342.41 5.98M342.41 5.98L342.41 6.48M342.41 6.48L342.41 6.6M342.41 6.6L342.41 6.73M342.41 6.73L342.41 6.97M342.41 6.97L342.41 7.22M342.41 7.22L342.41 7.47M342.41 7.47L342.41 8.92M342.41 8.92L342.41 10.37M342.41 10.37L342.41 13.27M342.41 13.27L342.41 16.17M342.41 16.17L342.41 19.07M342.41 19.07L342.41 24.87M342.41 24.87L342.41 27.77M342.41 27.77L342.41 30.67M342.41 30.67L342.41 44.46M342.41 44.46L342.41 287.93M342.41 287.93L342.41 312.07M342.41 312.07L342.41 555.54M342.41 555.54L342.41 569.33M342.41 569.33L342.41 580.19M342.41 580.19L342.41 591.05M342.41 591.05L342.41 591.55M342.41 591.55L342.41 592.04M342.41 592.04L342.41 592.29M342.41 592.29L342.41 592.53M342.41 592.53L342.41 592.78M342.41 592.78L342.41 593.03M342.41 593.03L342.41 593.27M342.41 593.27L342.41 593.4M342.41 593.4L342.41 593.52M342.41 593.52L342.41 593.52M342.41 593.52L342.41 594.02M342.41 594.02L342.41 594.02M342.41 594.02L342.41 594.51M342.41 594.51L342.41 594.51M342.41 594.51L342.41 594.56M342.41 594.56L342.41 594.56M342.41 594.56L342.41 594.61M342.41 594.61L342.41 594.61M342.41 594.61L342.46 594.82M342.46 594.82L342.46 594.82M342.46 594.82L342.63 595.14M342.63 595.14L342.63 595.14M342.63 595.14L342.9 595.39M342.9 595.39L342.9 595.39M342.9 595.39L343.18 595.51M343.18 595.51L343.18 595.51M343.18 595.51L343.29 595.53M343.29 595.53L343.29 595.53M343.29 595.53L343.34 595.54M343.34 595.54L343.34 595.54M343.34 595.54L343.39 595.54M343.39 595.54L343.39 595.54M343.39 595.54L343.44 595.54M343.44 595.54L343.44 595.54M343.44 595.54L344.08 595.54M344.08 595.54L344.08 595.54M344.08 595.54L344.4 595.54M344.4 595.54L344.56 595.54M344.56 595.54L344.56 595.54M344.56 595.54L344.64 595.54M344.64 595.54L344.71 595.54M344.71 595.54L344.87 595.54M344.87 595.54L345.03 595.54M345.03 595.54L345.35 595.54M345.35 595.54L345.51 595.54M345.51 595.54L345.67 595.54M345.67 595.54L345.99 595.54M345.99 595.54L346.26 595.54M346.26 595.54L346.33 595.54M346.33 595.54L346.33 595.54M346.33 595.54L346.4 595.54M346.4 595.54L346.54 595.54M346.54 595.54L347.1 595.54M347.1 595.54L348.21 595.54M348.21 595.54L350.44 595.54M350.44 595.54L354.88 595.54M354.88 595.54L355.54 595.54M355.54 595.54L355.7 595.54M355.7 595.54L355.7 595.54M355.7 595.54L355.87 595.54M355.87 595.54L356.2 595.54M356.2 595.54L357.51 595.54M357.51 595.54L360.13 595.54M360.13 595.54L362.75 595.54M362.75 595.54L363.41 595.54M363.41 595.54L363.57 595.54M363.57 595.54L363.57 595.54M363.57 595.54L363.73 595.54M363.73 595.54L364.06 595.54M364.06 595.54L365.37 595.54M365.37 595.54L370.62 595.54M370.62 595.54L370.62 595.54M370.62 595.54L370.78 595.54M370.78 595.54L370.94 595.54M370.94 595.54L371.27 595.54M371.27 595.54L371.93 595.54M371.93 595.54L373.24 595.54M373.24 595.54L375.86 595.54M375.86 595.54L427.59 595.54M427.59 595.54L438.12 595.54M438.12 595.54L445.12 595.54M445.12 595.54L452.11 595.54M452.11 595.54L452.74 595.54M452.74 595.54L453.38 595.54M453.38 595.54L453.7 595.54M453.7 595.54L454.01 595.54M454.01 595.54L454.33 595.54M454.33 595.54L454.49 595.54M454.49 595.54L454.65 595.54M454.65 595.54L454.97 595.54M454.97 595.54L455.13 595.54M455.13 595.54L455.29 595.54M455.29 595.54L455.29 595.54M455.29 595.54L455.92 595.54M455.92 595.54L455.92 595.54M455.92 595.54L456.56 595.54M456.56 595.54L456.56 595.54M456.56 595.54L456.61 595.54M456.61 595.54L456.61 595.54M456.61 595.54L456.66 595.54M456.66 595.54L456.66 595.54M456.66 595.54L456.87 595.5M456.87 595.5L456.87 595.5M456.87 595.5L457.19 595.33M457.19 595.33L457.19 595.33M457.19 595.33L457.43 595.06M457.43 595.06L457.43 595.06M457.43 595.06L457.56 594.77M457.56 594.77L457.56 594.77M457.56 594.77L457.58 594.67M457.58 594.67L457.58 594.67M457.58 594.67L457.59 594.61M457.59 594.61L457.59 594.61M457.59 594.61L457.59 594.56M457.59 594.56L457.59 594.56M457.59 594.56L457.59 594.51M457.59 594.51L457.59 594.51M457.59 594.51L457.59 594.02M457.59 594.02L457.59 594.02M457.59 594.02L457.59 593.52M457.59 593.52L457.59 593.4M457.59 593.4L457.59 593.27M457.59 593.27L457.59 593.03M457.59 593.03L457.59 592.78M457.59 592.78L457.59 592.53M457.59 592.53L457.59 591.08M457.59 591.08L457.59 589.63M457.59 589.63L457.59 586.73M457.59 586.73L457.59 583.83M457.59 583.83L457.59 580.93M457.59 580.93L457.59 575.13M457.59 575.13L457.59 572.23M457.59 572.23L457.59 569.33M457.59 569.33L457.59 555.54M457.59 555.54L457.59 312.07M457.59 312.07L457.59 287.93M457.59 287.93L457.59 44.46M457.59 44.46L457.59 30.67"
fill="none" stroke="black" stroke-width="0.5"/>
<path d="M456.38 96.02L456.38 287.93M456.38 287.93L456.38 312.07M456.38 312.07L456.38 503.98M456.38 503.98L427.59 503.98M427.59 503.98L375.86 503.98M375.86 503.98L343.62 503.98M343.62 503.98L343.62 312.07M343.62 312.07L343.62 287.93M343.62 287.93L343.62 96.02M343.62 96.02L375.86 96.02M375.86 96.02L427.59 96.02M427.59 96.02L456.38 96.02"
fill="none" stroke="black" stroke-width="0.5"/>
<path d="M357.41 569.33L357.41 555.54M357.41 555.54L357.41 551.05M357.41 551.05L357.41 546.56M357.41 546.56L357.41 546.36M357.41 546.36L357.41 546.16M357.41 546.16L357.41 546.06M357.41 546.06L357.41 545.96M357.41 545.96L357.41 545.87M357.41 545.87L357.41 545.77M357.41 545.77L357.41 545.67M357.41 545.67L357.41 545.67M357.41 545.67L357.41 545.57M357.41 545.57L357.41 545.57M357.41 545.57L357.41 545.37M357.41 545.37L357.41 545.37M357.41 545.37L357.41 545.31M357.41 545.31L357.41 545.31M357.41 545.31L357.42 545.26M357.42 545.26L357.42 545.26M357.42 545.26L357.46 545.06M357.46 545.06L357.46 545.06M357.46 545.06L357.63 544.73M357.63 544.73L357.63 544.73M357.63 544.73L357.9 544.49M357.9 544.49L357.9 544.49M357.9 544.49L358.19 544.36M358.19 544.36L358.19 544.36M358.19 544.36L358.29 544.34M358.29 544.34L358.29 544.34M358.29 544.34L358.34 544.34M358.34 544.34L358.34 544.34M358.34 544.34L358.39 544.33M358.39 544.33L358.39 544.33M358.39 544.33L358.44 544.33M358.44 544.33L358.44 544.33M358.44 544.33L358.79 544.33M358.79 544.33L358.79 544.33M358.79 544.33L358.96 544.33M358.96 544.33L359 544.33M359 544.33L359 544.33M359 544.33L359.04 544.33M359.04 544.33L359.13 544.33M359.13 544.33L359.13 544.33M359.13 544.33L359.3 544.33M359.3 544.33L359.47 544.33M359.47 544.33L359.64 544.33M359.64 544.33L359.81 544.33M359.81 544.33L359.81 544.33M359.81 544.33L360.31 544.33M360.31 544.33L360.31 544.33M360.31 544.33L360.81 544.33M360.81 544.33L360.81 544.33M360.81 544.33L361.82 544.33M361.82 544.33L361.82 544.33M361.82 544.33L363.82 544.33M363.82 544.33L363.82 544.33M363.82 544.33L363.89 544.33M363.89 544.33L363.95 544.33M363.95 544.33L364.07 544.33M364.07 544.33L364.32 544.33M364.32 544.33L364.83 544.33M364.83 544.33L365.83 544.33M365.83 544.33L366.33 544.33M366.33 544.33L366.46 544.33M366.46 544.33L366.46 544.33M366.46 544.33L366.58 544.33M366.58 544.33L366.83 544.33M366.83 544.33L367.84 544.33M367.84 544.33L369.84 544.33M369.84 544.33L370.34 544.33M370.34 544.33L370.47 544.33M370.47 544.33L370.47 544.33M370.47 544.33L370.53 544.33M370.53 544.33L370.53 544.33M370.53 544.33L370.59 544.33M370.59 544.33L370.84 544.33M370.84 544.33L371.85 544.33M371.85 544.33L372.85 544.33M372.85 544.33L373.1 544.33M373.1 544.33L373.1 544.33M373.1 544.33L373.23 544.33M373.23 544.33L373.35 544.33M373.35 544.33L373.85 544.33M373.85 544.33L375.86 544.33M375.86 544.33L427.59 544.33M427.59 544.33L431.65 544.33M431.65 544.33L439.16 544.33M439.16 544.33L439.68 544.33M439.68 544.33L439.93 544.33M439.93 544.33L440.19 544.33M440.19 544.33L440.36 544.33M440.36 544.33L440.53 544.33M440.53 544.33L440.7 544.33M440.7 544.33L440.7 544.33M440.7 544.33L440.87 544.33M440.87 544.33L440.96 544.33M440.96 544.33L440.96 544.33M440.96 544.33L441 544.33M441 544.33L441.04 544.33M441.04 544.33L441.04 544.33M441.04 544.33L441.21 544.33M441.21 544.33L441.21 544.33M441.21 544.33L441.56 544.33M441.56 544.33L441.56 544.33M441.56 544.33L441.61 544.33M441.61 544.33L441.61 544.33M441.61 544.33L441.66 544.34M441.66 544.34L441.66 544.34M441.66 544.34L441.87 544.38M441.87 544.38L441.87 544.38M441.87 544.38L442.19 544.55M442.19 544.55L442.19 544.55M442.19 544.55L442.43 544.82M442.43 544.82L442.43 544.82M442.43 544.82L442.56 545.11M442.56 545.11L442.56 545.11M442.56 545.11L442.58 545.21M442.58 545.21L442.58 545.21M442.58 545.21L442.58 545.26M442.58 545.26L442.58 545.26M442.58 545.26L442.59 545.31M442.59 545.31L442.59 545.31M442.59 545.31L442.59 545.37M442.59 545.37L442.59 545.37M442.59 545.37L442.59 545.57M442.59 545.57L442.59 545.57M442.59 545.57L442.59 545.67M442.59 545.67L442.59 545.77M442.59 545.77L442.59 545.87M442.59 545.87L442.59 545.96M442.59 545.96L442.59 546.29M442.59 546.29L442.59 546.61M442.59 546.61L442.59 546.94M442.59 546.94L442.59 547.26M442.59 547.26L442.59 548.56M442.59 548.56L442.59 549.43M442.59 549.43L442.59 550.3M442.59 550.3L442.59 551.18M442.59 551.18L442.59 552.05M442.59 552.05L442.59 553.79M442.59 553.79L442.59 554.67M442.59 554.67L442.59 555.54M442.59 555.54L442.59 569.33M442.59 569.33L442.59 573.82M442.59 573.82L442.59 578.31M442.59 578.31L442.59 578.51M442.59 578.51L442.59 578.71M442.59 578.71L442.59 578.81M442.59 578.81L442.59 578.91M442.59 578.91L442.59 579.01M442.59 579.01L442.59 579.11M442.59 579.11L442.59 579.21M442.59 579.21L442.59 579.21M442.59 579.21L442.59 579.31M442.59 579.31L442.59 579.31M442.59 579.31L442.59 579.51M442.59 579.51L442.59 579.51M442.59 579.51L442.59 579.56M442.59 579.56L442.59 579.56M442.59 579.56L442.58 579.61M442.58 579.61L442.58 579.61M442.58 579.61L442.54 579.82M442.54 579.82L442.54 579.82M442.54 579.82L442.37 580.14M442.37 580.14L442.37 580.14M442.37 580.14L442.1 580.39M442.1 580.39L442.1 580.39M442.1 580.39L441.81 580.51M441.81 580.51L441.81 580.51M441.81 580.51L441.71 580.53M441.71 580.53L441.71 580.53M441.71 580.53L441.66 580.54M441.66 580.54L441.66 580.54M441.66 580.54L441.61 580.54M441.61 580.54L441.61 580.54M441.61 580.54L441.56 580.54M441.56 580.54L441.56 580.54M441.56 580.54L441.21 580.54M441.21 580.54L441.21 580.54M441.21 580.54L440.87 580.54M440.87 580.54L440.7 580.54M440.7 580.54L440.53 580.54M440.53 580.54L440.36 580.54M440.36 580.54L440.19 580.54M440.19 580.54L438.18 580.54M438.18 580.54L438.18 580.54M438.18 580.54L438.12 580.54M438.12 580.54L438.06 580.54M438.06 580.54L437.93 580.54M437.93 580.54L437.68 580.54M437.68 580.54L437.18 580.54M437.18 580.54L436.18 580.54M436.18 580.54L432.16 580.54M432.16 580.54L428.15 580.54M428.15 580.54L428.15 580.54M428.15 580.54L428.03 580.54M428.03 580.54L427.9 580.54M427.9 580.54L427.65 580.54M427.65 580.54L427.15 580.54M427.15 580.54L426.15 580.54M426.15 580.54L427.59 580.54M427.59 580.54L375.86 580.54M375.86 580.54L368.35 580.54M368.35 580.54L360.84 580.54M360.84 580.54L360.32 580.54M360.32 580.54L359.81 580.54M359.81 580.54L359.64 580.54M359.64 580.54L359.47 580.54M359.47 580.54L359.3 580.54M359.3 580.54L359.3 580.54M359.3 580.54L359.13 580.54M359.13 580.54L359.13 580.54M359.13 580.54L358.79 580.54M358.79 580.54L358.79 580.54M358.79 580.54L358.44 580.54M358.44 580.54L358.44 580.54M358.44 580.54L358.39 580.54M358.39 580.54L358.39 580.54M358.39 580.54L358.34 580.54M358.34 580.54L358.34 580.54M358.34 580.54L358.13 580.49M358.13 580.49L358.13 580.49M358.13 580.49L357.81 580.33M357.81 580.33L357.81 580.33M357.81 580.33L357.57 580.05M357.57 580.05L357.57 580.05M357.57 580.05L357.44 579.77M357.44 579.77L357.44 579.77M357.44 579.77L357.42 579.66M357.42 579.66L357.42 579.66M357.42 579.66L357.42 579.61M357.42 579.61L357.42 579.61M357.42 579.61L357.41 579.56M357.41 579.56L357.41 579.56M357.41 579.56L357.41 579.51M357.41 579.51L357.41 579.51M357.41 579.51L357.41 579.31M357.41 579.31L357.41 579.31M357.41 579.31L357.41 579.11M357.41 579.11L357.41 579.11M357.41 579.11L357.41 578.91M357.41 578.91L357.41 578.58M357.41 578.58L357.41 578.26M357.41 578.26L357.41 577.61M357.41 577.61L357.41 576.96M357.41 576.96L357.41 576.32M357.41 576.32L357.41 575.44M357.41 575.44L357.41 574.57M357.41 574.57L357.41 573.7M357.41 573.7L357.41 572.82M357.41 572.82L357.41 571.08M357.41 571.08L357.41 570.21M357.41 570.21L357.41 569.33"
fill="none" stroke="black" stroke-width="0.5"/>
<path d="M353.27 569.33L353.27 584.68M353.27 584.68L375.86 584.68M375.86 584.68L427.59 584.68M427.59 584.68L446.73 584.68M446.73 584.68L446.73 569.33M446.73 569.33L446.73 555.54M446.73 555.54L446.73 540.19M446.73 540.19L427.59 540.19M427.59 540.19L375.86 540.19M375.86 540.19L353.27 540.19M353.27 540.19L353.27 555.54M353.27 555.54L353.27 569.33"
fill="none" stroke="black" stroke-width="0.5"/>
<path d="M456.56 3.42L343.44 3.42M343.44 3.42L343.44 3.42M343.44 3.42L342.65 3.58M342.65 3.58L341.98 4.03M341.98 4.03L341.53 4.7M341.53 4.7L341.37 5.49M341.37 5.49L341.37 594.51M341.37 594.51L341.37 594.51M341.37 594.51L341.53 595.3M341.53 595.3L341.98 595.97M341.98 595.97L342.65 596.42M342.65 596.42L343.44 596.58M343.44 596.58L456.56 596.58M456.56 596.58L456.56 596.58M456.56 596.58L457.35 596.42M457.35 596.42L458.02 595.97M458.02 595.97L458.47 595.3M458.47 595.3L458.63 594.51M458.63 594.51L458.63 5.49M458.63 5.49L458.63 5.49M458.63 5.49L458.47 4.7M458.47 4.7L458.02 4.03M458.02 4.03L457.35 3.58M457.35 3.58L456.56 3.42"
fill="none" stroke="black" stroke-width="0.5"/>
</svg>
