<?xml version="1.0" encoding="UTF-8" standalone="yes"?>
<!-- Created with sK1/UniConvertor (http://sk1project.org/) -->
<svg xmlns="http://www.w3.org/2000/svg" xmlns:xlink="http://www.w3.org/1999/xlink"
  width="595.276pt" height="841.89pt" viewBox="0 0 595.276 841.89"
  fill-rule="evenodd">
<g>
<path style="stroke:#000000; stroke-width:0.850394; stroke-linejoin:round; stroke-linecap:round; fill:none" d="M 204.837 521.599L 204.837 523.088"/>
<path style="stroke:#000000; stroke-width:0.850394; stroke-linejoin:round; stroke-linecap:round; fill:none" d="M 204.837 521.599C 204.837 521.556 204.802 521.521 204.76 521.521"/>
<path style="stroke:#000000; stroke-width:0.850394; stroke-linejoin:round; stroke-linecap:round; fill:none" d="M 204.76 521.521L 175.334 521.521"/>
<path style="stroke:#000000; stroke-width:0.850394; stroke-linejoin:round; stroke-linecap:round; fill:none" d="M 204.81 521.599C 204.81 521.571 204.788 521.548 204.76 521.548"/>
<path style="stroke:#000000; stroke-width:0.850394; stroke-linejoin:round; stroke-linecap:round; fill:none" d="M 204.81 521.599L 204.81 523.088"/>
<path style="stroke:#000000; stroke-width:0.850394; stroke-linejoin:round; stroke-linecap:round; fill:none" d="M 204.76 521.548L 175.334 521.548"/>
<path style="stroke:#000000; stroke-width:0.850394; stroke-linejoin:round; stroke-linecap:round; fill:none" d="M 175.284 521.599L 175.284 523.088"/>
<path style="stroke:#000000; stroke-width:0.850394; stroke-linejoin:round; stroke-linecap:round; fill:none" d="M 175.257 521.599L 175.257 523.088"/>
<path style="stroke:#000000; stroke-width:0.850394; stroke-linejoin:round; stroke-linecap:round; fill:none" d="M 175.257 523.088C 175.257 523.13 175.292 523.165 175.334 523.165"/>
<path style="stroke:#000000; stroke-width:0.850394; stroke-linejoin:round; stroke-linecap:round; fill:none" d="M 175.284 523.088C 175.284 523.115 175.307 523.138 175.334 523.138"/>
<path style="stroke:#000000; stroke-width:0.850394; stroke-linejoin:round; stroke-linecap:round; fill:none" d="M 204.76 523.138C 204.76 523.138 204.76 523.138 204.76 523.138C 204.788 523.138 204.81 523.115 204.81 523.088C 204.81 523.088 204.81 523.088 204.81 523.088"/>
<path style="stroke:#000000; stroke-width:0.850394; stroke-linejoin:round; stroke-linecap:round; fill:none" d="M 204.76 523.138L 175.334 523.138"/>
<path style="stroke:#000000; stroke-width:0.850394; stroke-linejoin:round; stroke-linecap:round; fill:none" d="M 204.76 523.165L 175.334 523.165"/>
<path style="stroke:#000000; stroke-width:0.850394; stroke-linejoin:round; stroke-linecap:round; fill:none" d="M 204.76 523.165C 204.76 523.165 204.76 523.165 204.76 523.165C 204.802 523.165 204.837 523.13 204.837 523.088C 204.837 523.088 204.837 523.088 204.837 523.088"/>
<path style="stroke:#000000; stroke-width:0.850394; stroke-linejoin:round; stroke-linecap:round; fill:none" d="M 175.334 521.521C 175.292 521.521 175.257 521.556 175.257 521.599"/>
<path style="stroke:#000000; stroke-width:0.850394; stroke-linejoin:round; stroke-linecap:round; fill:none" d="M 175.334 521.548C 175.307 521.548 175.284 521.571 175.284 521.599"/>
</g>
</svg>